<?xml version="1.0" encoding="UTF-8"?><svg id="Layer_1" xmlns="http://www.w3.org/2000/svg" viewBox="0 0 223.913 271.475"><defs><style>.cls-1{fill:#496f92;}.cls-2{fill:#7b8897;}.cls-3{fill:#d3d2cb;}.cls-4{fill:#b1bfc9;}.cls-5{fill:#4f6579;}.cls-6{fill:#20232a;}.cls-7{fill:#a9b6c0;}.cls-8{fill:#51463e;}.cls-9{fill:#948575;}.cls-10{fill:#8f867c;}.cls-11{fill:#7e8b9d;}.cls-12{fill:#605b5a;}.cls-13{fill:#9eb0c3;}.cls-14{fill:#b2babd;}.cls-15{fill:#cddae1;}.cls-16{fill:#76675c;}.cls-17{fill:#37474f;}.cls-18{fill:#93897a;}.cls-19{fill:#fafcfc;}.cls-20{fill:#648cb2;}.cls-21{fill:#a6a59e;}.cls-22{fill:#2c608e;}.cls-23{fill:#99907f;}.cls-24{fill:#6e5d51;}.cls-25{fill:#cccbcb;}.cls-26{fill:#adbcce;}.cls-27{fill:#8498af;}.cls-28{fill:#2e3439;}.cls-29{fill:#a8a092;}.cls-30{fill:#6d717c;}.cls-31{fill:#6b696b;}.cls-32{fill:#d0d1cf;}.cls-33{fill:#d5dfe8;}.cls-34{fill:#2c343d;}.cls-35{fill:#c7cfd1;}.cls-36{fill:#667d93;}.cls-37{fill:#b3a99a;}.cls-38{fill:#463f3b;}.cls-39{fill:#5b4c45;}.cls-40{fill:#9bb5c6;}.cls-41{fill:#726157;}.cls-42{fill:#365775;}.cls-43{fill:#cbd8e8;}.cls-44{fill:#a59783;}.cls-45{fill:#d0cec9;}.cls-46{fill:#55443b;}.cls-47{fill:#617486;}.cls-48{fill:#5e626c;}.cls-49{fill:#706359;}.cls-50{fill:#c1d5e5;}.cls-51{fill:#8596a6;}.cls-52{fill:#b8c2ca;}.cls-53{fill:#ada69a;}.cls-54{fill:#6c686c;}.cls-55{fill:#a1b1ba;}.cls-56{fill:#6f5c52;}.cls-57{fill:#9b8d84;}.cls-58{fill:#abbacb;}.cls-59{fill:#a8b1ba;}.cls-60{fill:#897c6c;}.cls-61{fill:#323133;}.cls-62{fill:#9ba9b6;}.cls-63{fill:#99b1c7;}.cls-64{fill:#c4c8c9;}.cls-65{fill:#7b6c63;}.cls-66{fill:#84756a;}.cls-67{fill:#b6c4d0;}.cls-68{fill:#497ba5;}.cls-69{fill:#5b4f48;}.cls-70{fill:#6f8496;}.cls-71{fill:#4c4245;}.cls-72{fill:#938275;}.cls-73{fill:#c9cbc5;}.cls-74{fill:#dce8f1;}.cls-75{fill:#a4a9aa;}.cls-76{fill:#4f6479;}.cls-77{fill:#617d9b;}.cls-78{fill:#26597b;}.cls-79{fill:#786a65;}.cls-80{fill:#b1bfd0;}.cls-81{fill:#5d9bca;}.cls-82{fill:#aaa59b;}.cls-83{fill:#6c8ead;}.cls-84{fill:#171514;}.cls-85{fill:#b2c5d7;}.cls-86{fill:#473a35;}.cls-87{fill:#244d75;}.cls-88{fill:#6c7a8a;}.cls-89{fill:#53555b;}.cls-90{fill:#b1bfca;}.cls-91{fill:#d5e1ea;}.cls-92{fill:#92887f;}.cls-93{fill:#335c86;}.cls-94{fill:#675b54;}.cls-95{fill:#87796b;}.cls-96{fill:#859fb8;}.cls-97{fill:#737f88;}.cls-98{fill:#5c4e4a;}.cls-99{fill:#c3d5df;}.cls-100{fill:#cacec1;}.cls-101{fill:#5b6b73;}.cls-102{fill:#7f6d66;}.cls-103{fill:#c7d4e0;}.cls-104{fill:#a1a2a5;}.cls-105{fill:#a3a6a2;}.cls-106{fill:#786c67;}.cls-107{fill:#958477;}.cls-108{fill:#928476;}.cls-109{fill:#baaf9a;}.cls-110{fill:#9bacbc;}.cls-111{fill:#968d80;}.cls-112{fill:#233243;}.cls-113{fill:#9c999c;}.cls-114{fill:#bab8a9;}.cls-115{fill:#56473f;}.cls-116{fill:#6986a5;}.cls-117{fill:#7c6a5d;}.cls-118{fill:#847667;}.cls-119{fill:#3b5672;}.cls-120{fill:#95b7ca;}</style></defs><path class="cls-59" d="m34.902,238.153c2.165-4.363,4.329-8.727,6.494-13.09.458.094.836-.039,1.133-.4,1.041-1.929,2.082-3.858,3.122-5.787,1.113-1.534,2.226-3.069,3.339-4.603,3.041,0,6.083,0,10.397,0-.351-4.129-.704-8.27-1.081-12.702,2.312.417,4.642.564,6.99.441.15,3.189.3,6.378.451,9.568-8.095,11.431-16.923,22.263-25.765,33.13-1.704,2.094-11.969,19.915-14.176,12.267,3.032-6.274,6.065-12.548,9.097-18.822Z"/><path class="cls-12" d="m25.804,256.975c2.207,7.648,12.471-10.173,14.176-12.267,8.842-10.866,17.67-21.698,25.765-33.13,1.485-2.056,2.97-4.112,4.454-6.168,9.874.066.363,6.351,2.826,8.795-1.471,1.086-2.943,2.172-4.414,3.257-2.869,2.397-4.134,4.684-.367,7.61,1.075.835,1.171,2.929,1.715,4.446-3.535-1.481-7.071-5.828-10.602.006-.53.998-1.06,1.997-1.59,2.995-2.544,2.543-5.088,5.086-7.632,7.629-9.672,10.442-19.344,20.884-29.017,31.326-.506-.288-1.013-.577-1.52-.865,2.068-4.545,4.136-9.09,6.204-13.635Z"/><path class="cls-31" d="m67.073,250.999c.984-1.066,1.968-2.132,2.952-3.198,2.516.505,5.033,1.01,7.549,1.514-.145.443-.28.889-.404,1.339-.401.554-.801,1.109-1.202,1.663-4.471,5.03-8.942,10.06-13.413,15.09l-1.932-.809c2.15-5.199,4.299-10.399,6.449-15.599Z"/><path class="cls-25" d="m0,118.28c1.936.576,3.872,1.152,5.809,1.728-1.41,1.398-2.82,2.795-4.23,4.193,0,0-.417.2-.417.2-.387-2.04-.774-4.08-1.162-6.121Z"/><path class="cls-33" d="m155.433,45.015c5.201-6.031,10.403-12.061,15.604-18.092,3.915-4.141,7.831-8.282,11.746-12.423,1.024,1.466,2.048,2.932,3.073,4.398-2.637,5.093-5.274,10.186-7.911,15.279-5.085,7.644-10.17,15.288-15.255,22.931-1.463,1.003-2.927,2.005-4.391,3.008-1.408-2.102-3.653-4.071-4.011-6.339-.44-2.791.692-5.831,1.144-8.763Z"/><path class="cls-48" d="m177.944,34.177c2.637-5.093,5.274-10.186,7.912-15.278,3.605-5.002,7.21-10.005,10.815-15.007.029,2.014.578,4.19.005,6.015-3.989,12.697-8.21,25.322-12.357,37.968-1.542,5.071-3.082,10.143-4.622,15.217-.954,1.844-1.723,3.826-2.955,5.459-.507.671-2.014.589-3.065.851-.619-1.997-1.239-3.995-1.858-5.993,6.729-6.439,8.035-20.415,6.127-29.232Z"/><path class="cls-90" d="m196.671,3.891c-3.605,5.002-7.21,10.005-10.815,15.007-1.025-1.466-2.049-2.932-3.073-4.398,4.575-4.833,9.151-9.667,13.727-14.5.422.419.844.837,1.266,1.256-.368.879-.737,1.757-1.105,2.636Z"/><path class="cls-65" d="m213.444,156.232c.521-.025,1.041-.05,1.562-.075,1,1.072,1.999,2.146,2.999,3.219-.504-.087-.997-.041-1.477.136-4.603-.577-9.205-1.153-13.807-1.728-.055-4.421-4.202-15.383,2.169-17.473-.83-7.329.262-19.199-3.992-25.455-1.145-1.683-6.939-3.973-8.809-6.14-3.208-3.718-4.353-8.955-6.156-13.427,2.646-1.018,5.293-2.036,9.158-3.522-1.068,15.657,5.98,12.913,10.889,22.746,4.156,8.324-6.586,19.915,7.448,23.534,4.725,3.383.456,2.839-1.45,3.298-4.678,1.126-6.536,3.947-6.258,8.844.302,5.326,3.547,6.083,7.723,6.044Z"/><path class="cls-115" d="m117.288,41.975c4.441-3.245,8.882-6.49,13.713-10.019-.296-.104.584.108.571.214-1.738,14.572,9.274,15.259,18.937,17.411-1.476,1.521-2.952,3.042-4.428,4.564-6.853-2.106-13.681-4.302-20.573-6.271-2.605-.744-5.359-.966-8.045-1.426-1.579-.469-3.158-.937-4.737-1.406l-.408-.304c1.657-.921,3.314-1.841,4.971-2.762Z"/><path class="cls-104" d="m146.079,54.145c1.476-1.521,2.953-3.043,4.429-4.564.759-.928,1.519-1.856,2.278-2.783.882-.594,1.764-1.188,2.646-1.783-.452,2.932-1.585,5.971-1.144,8.763.358,2.267,2.603,4.237,4.011,6.339-3.084,1.572-6.215,3.062-9.24,4.742-2.563,1.423-5.004,3.064-7.499,4.609-2.013-5.854-5.768-5.134-9.909-2.544-1.875,1.173-3.612,2.568-5.411,3.862,1.141-1.954,2.281-3.908,3.422-5.862,2.974-1.297,5.959-2.57,8.918-3.9,1.565-.703,3.086-1.506,4.627-2.264.957-1.538,1.914-3.077,2.872-4.615Z"/><path class="cls-113" d="m8.94,121.443c.107.947.213,1.894.319,2.841.019.502.039,1.004.058,1.506-1.074.473-2.148.946-3.223,1.419-.617-.007-1.234-.015-1.85-.022-.396.024-.784-.023-1.163-.143-.501-.948-1.002-1.895-1.503-2.843,1.41-1.398,2.82-2.795,4.23-4.193,1.044.478,2.087.957,3.131,1.435Z"/><path class="cls-71" d="m8.89,136.479c-1.503-1.974-3.006-3.948-4.509-5.92-.434-1.17-.867-2.342-1.3-3.514.379.12.766.167,1.164.144.617.008,1.233.015,1.85.022,1.074-.473,2.148-.946,3.222-1.419.922.012,1.845.023,2.767.034.049.536.099,1.072.147,1.607,1.861,2.626,3.724,5.251,5.587,7.876,2.266,3.415,4.533,6.83,6.799,10.245-.106.543-.212,1.086-.318,1.63-1.529-.078-3.058-.156-4.587-.234-3.607-3.49-7.214-6.98-10.821-10.471Z"/><path class="cls-86" d="m143.332,246.394c-2.161.978-4.499,1.691-6.439,2.997-2.63,1.771-4.954,3.995-7.409,6.024-1.665,1.403-3.137,3.402-5.055,4.025-1.595.518-3.716-.582-5.604-.965-.324-9.408-7.598-11.062-12.785-12.73-10.61,4.589-13.697,5.501-25.337,2.032,2.505-8.501,9.572-5.568,15.265-6.079,8.572-.621,20.824-3.917,29.239-1.355,9.471,2.884,3.673,5.45,14.633,2.252,1.282,1.394,2.387,2.596,3.493,3.799Z"/><path class="cls-91" d="m70.2,205.41c-1.485,2.056-2.969,4.112-4.454,6.168-.15-3.189-.301-6.378-.45-9.567.156-.439.213-.891.173-1.355,1.439-1.128,2.877-2.256,4.316-3.385,3.568.095,7.137.19,10.706.287,1.081.582,2.161,1.162,3.241,1.742,3.084,1.426,6.039,3.42,9.28,4.157,6.514,1.481,13.185,2.276,19.791,3.354-2.008,2.505-4.016,5.01-6.023,7.515-.663-1.459-1.327-2.918-1.122-2.469-8.093-1.385-14.986-2.564-21.879-3.744-4.662-.22-7.978-7.188-13.578-2.704Z"/><path class="cls-69" d="m45.651,218.875c-6.232-7.742-21.422-19.089-24.643-27.529,1.656.052,3.311.103,4.967.154,7.594,7.102,15.188,14.204,22.783,21.306-.095.516-.018,1.004.231,1.465-1.113,1.534-2.226,3.069-3.339,4.603Z"/><path class="cls-105" d="m48.99,214.272c-.249-.461-.326-.95-.232-1.465,1.015-1.533,2.031-3.066,3.047-4.599.434-.054.857-.156,1.268-.305-.44-2.698-.15-5.845-1.476-7.998-2.541-4.125-6-7.686-9.077-11.482,1.06.465,2.121.931,3.181,1.397,1.593,1.382,3.186,2.765,5.245,4.552.455-1.944.735-3.145,1.016-4.346.381-.062.764-.103,1.149-.122.081,8.217,6.412,9.265,12.358,10.754.04.464-.018.916-.173,1.355-2.349.123-4.679-.024-6.991-.441.377,4.432.73,8.573,1.081,12.702h-10.397Z"/><path class="cls-39" d="m143.332,246.394c-1.106-1.202-2.211-2.405-3.493-3.799-10.96,3.198-5.162.633-14.633-2.252-8.414-2.563-20.667.733-29.239,1.355-3.969-1.226-7.965-2.372-11.901-3.696-8.253-2.776-16.474-5.646-24.708-8.477,3.53-5.834,7.067-1.488,10.602-.006,3.041.709,6.049,1.739,9.13,2.054,5.023.514,10.093.561,15.145.807,1.629.092,3.257.184,4.884.275-.072,3.058-.675,6.509,4.311,5.844,12.679-4.548,32.784-7.743,46.266-8.209,11.739-.406,17.261,7.043,22.544-5.336,6.209-6.554,20.451-15.797,22.505-23.862,1.588-6.234-1.105-10.138,1.388-17.284,2.182-6.255,5.515-12.306,8.22-18.339-1.176-1.505-2.977-3.808-4.778-6.112.109-.449.203-.901.283-1.356.954-.073,1.909-.145,2.863-.218,4.602.576,9.205,1.151,13.807,1.728-2.157,6.839-9.218,10.59-12.103,18.11-3.489,9.094-5.188,19.605-7.804,29.001-.509.509-1.018,1.017-1.527,1.527-9.104,7.432-15.513,16.133-23.616,23.965-6.598,6.377-16.919,6.004-22.173,14.102-1.991.059-3.983.119-5.974.178Z"/><path class="cls-38" d="m59.358,229.525c8.234,2.831,16.456,5.701,24.708,8.477,3.936,1.324,7.932,2.47,11.901,3.696-5.693.511-12.759-2.423-15.264,6.078-1.042.512-2.085,1.025-3.128,1.538-2.517-.505-5.033-1.01-7.55-1.514,2.51-9.529,1.639-10.615-12.257-15.28.529-.999,1.059-1.997,1.589-2.995Z"/><path class="cls-100" d="m70.2,205.41c5.6-4.484,8.916,2.485,13.578,2.705,2.491,4.621,4.983,9.242,7.474,13.863-2.591-.822-5.276-1.429-7.75-2.516-3.572-1.57-6.992-3.487-10.476-5.256-2.463-2.444,7.048-8.728-2.826-8.795Z"/><path class="cls-102" d="m94.233,232.379c-5.05-.244-10.121-.292-15.144-.806-3.081-.315-6.088-1.345-9.129-2.054-.545-1.517-.641-3.611-1.716-4.446-3.767-2.926-2.502-5.214.366-7.612,1.038,1.738,1.743,4.605,3.172,5.027,7.536,2.225,15.254,3.834,22.907,5.655-.153,1.411-.305,2.823-.456,4.235Z"/><path class="cls-107" d="m94.691,228.144c-7.655-1.823-15.373-3.431-22.909-5.657-1.429-.422-2.134-3.289-3.172-5.027,1.472-1.084,2.944-2.17,4.415-3.256,3.485,1.769,6.904,3.686,10.476,5.256,2.474,1.087,5.159,1.695,7.751,2.516,1.659,1.124,3.318,2.248,4.977,3.372-.513.932-1.026,1.864-1.538,2.796Z"/><path class="cls-30" d="m141.561,69.467c2.495-1.545,4.936-3.186,7.499-4.609,3.025-1.679,6.156-3.169,9.24-4.742,1.463-1.003,2.926-2.006,4.39-3.008.294.049.575.139.843.269-.663,3.035-1.326,6.071-1.989,9.106-1.042,3.999-2.085,7.998-3.127,11.998-.045.518-.09,1.035-.135,1.552-2.588-.18-5.898.578-7.612-.738-3.492-2.684-6.123-6.486-9.109-9.827Z"/><path class="cls-89" d="m177.944,34.177c1.909,8.817.603,22.792-6.124,29.231-3.398-1.136-2.27-8.486-8.287-6.031-.268-.13-.549-.22-.843-.269,5.085-7.644,10.17-15.288,15.254-22.931Z"/><path class="cls-84" d="m163.533,57.377c6.017-2.456,4.889,4.895,8.287,6.031.617,1.998,1.237,3.996,1.856,5.994-1.515.999-3.029,1.998-4.542,2.998-2.841.323-5.682.646-9.053,1.028.571-2.709,1.017-4.827,1.463-6.944.663-3.035,1.326-6.071,1.989-9.106Z"/><path class="cls-94" d="m161.544,66.483c-.446,2.118-.892,4.235-1.463,6.944,3.371-.383,6.212-.705,9.053-1.028,5.46,1.6,24.454,1.934,24.353,7.651-1.421,2.698-2.844,5.395-4.466,8.47,3.648.642,6.062,1.067,9.159,1.612,0,3.728-.893,9.401.991,12.937,2.151,4.037,6.65,4.103,8.603,8.179,3.581,7.477-3.528,20.914,5.631,25.297.017.5.026,1,.027,1.5-14.034-3.619-3.292-15.21-7.448-23.534-4.909-9.832-11.958-7.088-10.889-22.746-3.865,1.487-6.512,2.504-9.158,3.523-1.452.583-2.905,1.165-4.359,1.747-1.153-1.144-2.305-2.288-3.456-3.431.591-.985,1.181-1.97,1.772-2.955,1.603-2.474,3.206-4.948,4.084-6.304-7.725-3.488-14.115-5.906-22.427-7.349-1.044.495-2.089.989-3.133,1.484,1.043-3.999,2.085-7.998,3.128-11.997Z"/><path class="cls-8" d="m213.403,136.545c-9.158-4.383-2.049-17.82-5.631-25.297-1.953-4.076-6.452-4.142-8.603-8.179-1.884-3.536-.991-9.209-.991-12.937-3.097-.545-5.511-.97-9.159-1.612,1.622-3.075,3.044-5.772,4.466-8.47,8.502,3.072,7.786,10.096,8.126,17.222.126,2.643,3.105,5.981,5.673,7.511,6.239,3.717,7.163,8.488,6.48,15.325-.533,5.337,1.673,10.948,2.662,16.437-1.007,0-2.016,0-3.024,0Z"/><path class="cls-39" d="m213.403,136.545c1.008,0,2.016,0,3.024,0,1.822,1.108,3.644,2.216,7.486,4.553-11.559,1.191-14.954,6.143-10.468,15.134-4.176.038-7.421-.719-7.723-6.045-.277-4.896,1.581-7.718,6.258-8.844,1.907-.459,6.175.085,1.45-3.298,0-.5-.009-1-.027-1.5Z"/><path class="cls-72" d="m181.578,97.037c1.453-.582,2.905-1.165,4.358-1.748,1.803,4.471,2.948,9.708,6.156,13.427,1.869,2.167,7.664,4.456,8.809,6.14,4.254,6.256,3.162,18.126,3.992,25.455-6.371,2.09-2.224,13.052-2.169,17.473-.955.072-1.909.145-2.864.217,0,0-.364-.324-.362-.322-.58-10.413,3.061-29.984-1.08-39.446.928,2.121-9.561-8.988-9.341-8.76-3.184-3.312-5.206-7.223-9.136-10.591.547-.615,1.093-1.23,1.64-1.845Z"/><path class="cls-46" d="m12.084,125.825c-.923-.011-1.845-.022-2.768-.034-.019-.503-.038-1.005-.058-1.507,6.092-5.967,5.609-12.973,9.589-20.096,4.084-7.309,10.604-14.199,15.708-21.194,13.203-18.096,26.314-28.215,48.769-31.98-.402,1.022-.807,2.043-1.212,3.065-16.637,7.943-29.836,14.385-41.492,29.26-10.331,13.184-15.286,32.339-28.537,42.486Z"/><path class="cls-16" d="m82.114,54.079c.405-1.021.81-2.043,1.211-3.065,1.632-2.598,3.267-5.195,4.901-7.795,1.206.292,3.185.237,3.502.935,4.277,9.424,11.326,5.573,17.929,3.94-1.134,1.939-2.268,3.878-3.4,5.818-8.022,1.083-16.046,2.164-24.07,3.246-.025-1.026-.049-2.053-.074-3.079Z"/><path class="cls-60" d="m110.929,47.524c.598-.828,1.197-1.655,1.795-2.483,1.579.469,3.158.937,4.736,1.407.781,1.418,1.241,3.675,2.397,4.117,7.7,2.948,15.55,5.508,23.351,8.195-1.541.758-3.061,1.56-4.627,2.264-2.959,1.33-5.944,2.603-8.918,3.9-.558-1.537-1.116-3.075-1.673-4.612-.641-1.4-1.715-4.069-1.862-4.019-8.5,2.893-12.344-2.05-15.199-8.768Z"/><path class="cls-41" d="m143.207,58.76c-7.801-2.686-15.65-5.247-23.351-8.195-1.156-.442-1.616-2.699-2.397-4.117,2.687.459,5.442.681,8.047,1.425,6.893,1.97,13.72,4.165,20.573,6.271-.958,1.539-1.915,3.077-2.872,4.615Z"/><path class="cls-58" d="m141.561,69.467c2.986,3.341,5.617,7.144,9.109,9.828,1.713,1.317,5.024.558,7.613.739,5.677,5.145,11.352,10.29,17.028,15.435-4.097,5.03-8.194,10.061-12.292,15.091-2.702.486-5.405.972-8.107,1.458-3.988-.865-7.976-1.73-11.964-2.595,1.2-1.65,2.399-3.3,3.637-5.003-6.443-10.617-17.604-20.657-30.97-18.276,3.542-5.12,7.084-10.239,10.626-15.359,1.799-1.294,3.536-2.689,5.411-3.862,4.141-2.59,7.896-3.31,9.909,2.544Zm18.004,19.787c-.236,2.218-.416,3.919-.646,6.079-5.202-2.618-9.74-4.901-14.278-7.185,2.726,5.864,8.664,21.23,17.497,17.661,10.285-4.156,3.647-13.364-2.572-16.555Z"/><path class="cls-6" d="m126.241,70.785c-3.542,5.12-7.084,10.239-10.626,15.359-1.13,1.497-2.26,2.995-3.39,4.492-2.319,4.348-4.637,8.695-6.862,12.867-.589-1.033-1.307-2.29-2.024-3.546.532-2.556.384-5.554,1.711-7.594,6.398-9.837,13.193-19.416,19.847-29.086,1.031-.988,2.062-1.977,3.092-2.965.558,1.538,1.115,3.075,1.673,4.612-1.141,1.954-2.281,3.907-3.422,5.861Z"/><path class="cls-29" d="m127.99,60.311c-1.031.988-2.062,1.977-3.092,2.965-3.414-6.183-36.405.757-44.332,1.422.068-.444.134-.888.197-1.332,6.77-1.553,13.617-2.848,20.265-4.813,2.024-.598,3.501-3.043,5.228-4.641,1.134-1.939,2.268-3.878,3.402-5.817.427-.18.851-.369,1.271-.568,2.855,6.716,6.699,11.659,15.199,8.766.147-.05,1.221,2.619,1.862,4.019Z"/><path class="cls-54" d="m6.094,127.209c-.616-.007-1.233-.014-1.85-.022.616.007,1.233.014,1.85.022Z"/><path class="cls-98" d="m22.836,188.499c-8.1-9.765-12.732-20.585-10.061-33.557,1.09-5.291,2.317-10.544-3.795-13.828-.029-1.545-.058-3.089-.089-4.634,3.606,3.49,7.213,6.98,10.82,10.473-.512.595-1.023,1.188-1.535,1.781,1.499,9.646,2.997,19.292,4.496,28.938,2.034.504,4.067,1.008,6.101,1.512-1.979,3.105-3.958,6.21-5.937,9.316Z"/><path class="cls-24" d="m82.114,54.079c.025,1.026.049,2.053.074,3.08-1.032,1.531-2.065,3.061-3.096,4.591-15.941,7.444-27.857,12.887-38.78,27.358-9.287,12.304-13.308,27.138-23.642,38.397-1.479-.024-2.958-.048-4.438-.072-.05-.536-.099-1.071-.148-1.607,13.252-10.147,18.207-29.302,28.538-42.486,11.656-14.875,24.855-21.317,41.492-29.26Z"/><path class="cls-111" d="m22.836,188.499c1.979-3.105,3.958-6.21,5.938-9.316,1.179-2.051,2.358-4.102,4.592-7.989-4.037,1.275-5.542,1.75-7.628,2.409.716-9.237-6.065-17.409-1.438-26.421.106-.543.212-1.086.318-1.629,1.399,5.217,2.693,10.465,4.243,15.637.756,2.523,1.988,4.903,3.005,7.348,1.348,7.807,1.716,16.138,10.655,19.885,3.078,3.795,6.537,7.356,9.077,11.481,1.326,2.153,1.036,5.3,1.477,8-2.399-3.054-22.528-29.212-24.313-19.667-.928,1.087-1.857,2.175-2.785,3.262-1.656-.051-3.311-.103-4.967-.154.609-.949,1.218-1.898,1.827-2.848Z"/><path class="cls-53" d="m31.864,168.539c-1.017-2.445-2.249-4.825-3.005-7.348-1.55-5.172-2.844-10.42-4.243-15.637-2.266-3.415-4.532-6.83-6.797-10.245,3.029-1.086,6.056-2.171,10.147-3.637.838-2.231,2.37-6.313,3.903-10.395-4.149,15.754-3.147,31.508-.005,47.262Z"/><path class="cls-106" d="m24.299,147.183c-4.627,9.011,2.154,17.183,1.438,26.421,2.087-.659,3.591-1.134,7.628-2.409-2.234,3.887-3.413,5.938-4.592,7.989-2.034-.504-4.068-1.008-6.101-1.512-1.498-9.646-2.997-19.292-4.496-28.938.512-.593,1.023-1.186,1.535-1.781,1.529.075,3.058.153,4.587.231Z"/><path class="cls-92" d="m31.869,121.277c-1.533,4.082-3.065,8.163-3.903,10.394-4.091,1.466-7.119,2.551-10.147,3.637-1.864-2.625-3.727-5.25-5.588-7.876,1.481.024,2.96.048,4.438.071,2.505,1.121,5.012,2.244,7.563,3.387,2.361-6.039,4.253-10.878,6.145-15.718.521.007,1.041.013,1.562.02-.022,2.026-.043,4.053-.065,6.079l-.005.006Z"/><path class="cls-27" d="m80.49,197.557c-3.568-.095-7.137-.19-10.706-.285-3.441-4.465-6.819-8.982-10.407-13.326-.421-.509-1.999-.064-3.041-.061,1.446-10.007-.31-14.442-7.252-18.288.548,3.357,1.099,6.728,1.649,10.099-.74.116-1.48.232-2.22.348-8.292-13.508-10.545-28.387-9.087-44.107,1.029.003,2.057.007,3.084.01-3.415,5.936.023,9.283,4.614,12.194,4.882,10.075,4.347,18.063,11.592,27.789,6.309,8.47,14.419,14.386,20.616,22.802.385.941.771,1.883,1.156,2.824Z"/><path class="cls-64" d="m96.229,225.348c-1.659-1.124-3.317-2.248-4.977-3.372-2.492-4.62-4.983-9.241-7.474-13.862,6.893,1.179,13.786,2.358,21.879,3.743-.204-.449.459,1.01,1.122,2.469-3.517,3.674-7.033,7.348-10.55,11.022Z"/><path class="cls-28" d="m56.337,183.885c1.042-.003,2.62-.449,3.041.061,3.588,4.344,6.966,8.861,10.407,13.326-1.438,1.128-2.877,2.256-4.316,3.384-5.946-1.489-12.277-2.536-12.358-10.754,1.076-2.006,2.151-4.011,3.226-6.017Z"/><path class="cls-61" d="m96.229,225.348c3.517-3.674,7.033-7.348,10.55-11.022,2.008-2.505,4.016-5.01,6.024-7.515,1.021-.11,2.043-.22,3.064-.33.163.573.326,1.147.489,1.72-1.326,2.441-2.651,4.882-3.977,7.324-2.916,3.688-5.832,7.376-8.749,11.063-1.504,2.022-3.007,4.044-4.511,6.066-1.628-.092-3.256-.183-4.885-.276.15-1.413.302-2.825.455-4.236.514-.931,1.027-1.863,1.54-2.795Z"/><path class="cls-85" d="m115.867,206.481c-1.021.11-2.043.22-3.064.33-6.606-1.078-13.277-1.873-19.791-3.354-3.241-.737-6.196-2.732-9.28-4.157.528-.157,1.057-.314,1.585-.47l.697.095s.693-.121.693-.12c7.683,1.097,15.402,1.996,23.024,3.414,2.167.403,4.054,2.314,6.07,3.533,0,0,.067.73.067.73Z"/><path class="cls-17" d="m85.316,198.83c-.528.157-1.057.314-1.585.47-1.08-.58-2.16-1.161-3.24-1.742-.386-.943-.771-1.884-1.157-2.826,3.035-.152,6.909-1.525,5.982,4.098Z"/><path class="cls-49" d="m25.975,191.501c.928-1.087,1.857-2.175,2.785-3.261,2.914,2.288,5.939,4.449,8.716,6.89,4.856,4.268,9.56,8.71,14.327,13.078-1.016,1.533-2.032,3.066-3.047,4.599-7.594-7.102-15.188-14.204-22.782-21.306Z"/><path class="cls-13" d="m56.337,183.885c-1.075,2.005-2.151,4.011-3.226,6.017-.386.02-.769.061-1.152.122-5.165-12.251-10.328-24.501-15.491-36.75.017-7.613.035-15.226.052-22.839.969.501,1.937,1.002,2.906,1.504-1.456,15.72.796,30.599,9.088,44.107.74-.116,1.48-.232,2.22-.348-.55-3.371-1.101-6.742-1.649-10.099,6.942,3.846,8.698,8.281,7.252,18.288Z"/><path class="cls-35" d="m36.468,153.273c5.163,12.25,10.326,24.499,15.491,36.75-.279,1.202-.56,2.403-1.014,4.348-2.059-1.787-3.652-3.169-5.246-4.551-12.564-17.937-15.699-38.061-13.787-59.356.513,1.085,1.302,2.125,1.495,3.265,1.099,6.501,2.056,13.027,3.061,19.544Z"/><path class="cls-114" d="m31.913,130.465c-1.912,21.294,1.223,41.418,13.787,59.355-1.059-.466-2.12-.932-3.18-1.397-8.939-3.746-9.307-12.077-10.655-19.884-3.142-15.754-4.144-31.509.005-47.262,0,0,.005-.006.005-.006.503.011,1.006.016,1.509.014-.49,3.06-.981,6.12-1.471,9.18Z"/><path class="cls-95" d="m51.804,208.208c-4.768-4.369-9.472-8.81-14.327-13.078-2.778-2.442-5.802-4.602-8.716-6.89,1.785-9.547,21.913,16.611,24.313,19.666-.412.147-.835.249-1.269.303Z"/><path class="cls-117" d="m199.575,159.357c1.801,2.303,3.602,4.607,4.778,6.112-2.705,6.033-6.038,12.084-8.22,18.339-2.493,7.146.199,11.05-1.388,17.284-2.054,8.065-16.296,17.307-22.505,23.862-2.153,1.842-4.307,3.685-7.841,6.708,1.15-4.728,1.861-7.651,2.934-12.065-7.86,2.567-14.439,4.716-21.018,6.865,3.472-2.235,6.942-4.472,10.416-6.703,3.634-2.334,7.272-4.661,10.908-6.991,16.036-11.974,25.101-28.802,30.854-47.257.361-2.051.722-4.102,1.083-6.153Z"/><path class="cls-9" d="m199.575,159.357c-.361,2.051-.722,4.102-1.083,6.153-5.753,18.455-14.818,35.283-30.854,47.256-2.081.845-4.146,1.738-6.248,2.528-8.586,3.23-17.185,6.429-25.778,9.64,4.057-2.045,8.114-4.091,12.17-6.136,13.918-7.302,26.708-15.908,35.109-29.742,5.309-8.742,12.471-16.75,10.63-28.171,1.061-1.005,2.122-2.01,3.182-3.015.93-.065,1.86-.13,2.789-.194,0,0,.363.323.364.324-.079.456-.173.908-.282,1.357Z"/><path class="cls-56" d="m146.315,226.462c6.579-2.149,13.158-4.298,21.018-6.865-1.073,4.414-1.784,7.337-2.934,12.065,3.534-3.024,5.688-4.866,7.841-6.708-5.283,12.379-10.806,4.93-22.544,5.336-13.483.466-33.587,3.66-46.265,8.21,1.582-1.471,3.162-2.944,4.742-4.416,12.708-2.537,25.417-5.073,38.125-7.61,0,0,.018-.012.018-.012Z"/><path class="cls-66" d="m108.172,234.084c-1.58,1.473-3.16,2.945-4.742,4.416-4.987.663-4.384-2.787-4.312-5.846,1.504-2.022,3.008-4.044,4.512-6.066.253,1.792.507,3.585.701,4.956,10.967-2.317,21.124-4.463,31.281-6.609,8.594-3.211,17.192-6.41,25.778-9.64,2.102-.791,4.167-1.683,6.248-2.528-3.637,2.331-7.274,4.658-10.908,6.992-3.474,2.231-6.944,4.469-10.416,6.703,0,0-.017.012-.017.011-3.476.517-6.986.869-10.421,1.584-9.252,1.926-18.471,4.007-27.704,6.027Z"/><path class="cls-82" d="m175.311,95.468c-5.675-5.145-11.351-10.29-17.028-15.435.043-.517.089-1.034.134-1.552,1.044-.495,2.089-.99,3.133-1.484,5.969,3.575,11.971,7.099,17.855,10.808.544.343.343,1.868.488,2.844-.591.985-1.181,1.97-1.772,2.956-.937.621-1.873,1.242-2.809,1.862Z"/><path class="cls-18" d="m179.892,90.65c-.145-.976.057-2.501-.488-2.844-5.884-3.71-11.886-7.233-17.855-10.808,8.312,1.443,14.702,3.861,22.427,7.349-.878,1.355-2.481,3.83-4.084,6.304Z"/><path class="cls-34" d="m175.311,95.468c.936-.62,1.873-1.241,2.809-1.862,1.152,1.143,2.304,2.286,3.456,3.431-.546.616-1.092,1.23-1.639,1.844-.529.859-1.056,1.72-1.584,2.581-1.039.957-2.077,1.913-3.116,2.87-.511.525-1.021,1.05-1.532,1.575-3.245,2.837-6.491,5.674-10.238,8.95-.203-1.951-.326-3.124-.448-4.297,4.097-5.03,8.194-10.061,12.292-15.091Z"/><path class="cls-44" d="m178.353,101.461c.528-.861,1.056-1.721,1.584-2.581,3.931,3.369,5.953,7.28,9.137,10.592-.22-.229,10.27,10.881,9.341,8.76,4.141,9.462.5,29.034,1.08,39.446-.931.063-1.861.128-2.792.193-1.044-14.511.894-46.288-15.359-54.844-.997-.522-1.995-1.044-2.992-1.566Z"/><path class="cls-108" d="m79.091,61.749c1.033-1.53,2.065-3.06,3.097-4.591,8.024-1.082,16.048-2.164,24.07-3.246-1.729,1.597-3.206,4.042-5.23,4.64-6.648,1.965-13.494,3.261-20.265,4.813-.558-.539-1.115-1.077-1.672-1.616Z"/><path class="cls-74" d="m112.225,90.635c1.13-1.497,2.26-2.995,3.39-4.492,13.365-2.382,24.526,7.658,30.97,18.276-1.238,1.703-2.437,3.353-3.633,4.998.276,3.225,1.526,5.537-1.229,9.539-5.972,8.675-13.657,13.81-22.904,17.553-5.676.989-11.988,3.625-13.41-7.358-1.15,2.68-1.502,3.499-1.853,4.317-21.563-5.876-26.593-29.3-10.646-42.675,3.231.77,2.349-8.739,7.56-3.02.454,2.552.908,5.104,1.363,7.656-6.234-9.206-12.38,12.847-11.233,17.328,2.332,9.108,10.945,12.471,18.805,14.172,11.255,2.436,22.633-.457,25.185-13.994,1.806-9.577-10.619-31.016-22.365-22.3Z"/><path class="cls-51" d="m163.019,110.559c.122,1.173.245,2.346.448,4.297,3.747-3.276,6.992-6.113,10.238-8.95,11.363,15.129,11.11,32.725,10.711,50.353-.978,2.037-1.956,4.073-2.934,6.109.447-5.077.894-10.153,1.341-15.23-.441-12.535-2.225-24.687-8.522-35.55-.666.167-1.332.333-1.999.5.985,6.103,1.97,12.205,2.955,18.308-.501.006-1.003.014-1.504.023-2.903.131-6.297-.647-8.601.594-4.091,2.204-7.521,5.633-11.227,8.549-1.02.511-2.039,1.023-3.059,1.534-4.819,2.527-9.442,5.575-14.496,7.479-12.85,4.839-25.896,7.72-38.892.201-.03-.58-.06-1.16-.09-1.741.521-.477,1.042-.953,1.563-1.43,17.066,7.82,57.744-1.024,56.522-25.833.756-2.129,5.008-4.581-.567-6.125.002-.543.004-1.086.006-1.629,2.702-.486,5.405-.972,8.107-1.458Z"/><path class="cls-110" d="m159.564,89.254c6.22,3.191,12.858,12.399,2.572,16.555-8.833,3.569-14.771-11.797-17.497-17.661,4.538,2.284,9.077,4.568,14.278,7.185.23-2.16.41-3.861.646-6.079Z"/><path class="cls-103" d="m154.912,112.017c-.002.543-.004,1.086,0,1.629-3.251,2.905-7.514,5.24-9.554,8.835-4.067,7.17-8.988,12.524-17.351,14.044-3.063-.006-6.127-.011-9.19-.017,9.247-3.742,16.932-8.878,22.904-17.553,2.755-4.002,1.506-6.313,1.229-9.539,3.984.869,7.972,1.735,11.96,2.6Z"/><path class="cls-19" d="m112.225,90.635c11.746-8.717,24.171,12.722,22.365,22.3-2.553,13.537-13.931,16.431-25.185,13.994-7.86-1.701-16.473-5.064-18.805-14.172-1.147-4.48,4.999-26.533,11.234-17.328.503,1.509,1.004,3.018,1.506,4.527.717,1.257,1.435,2.514,2.024,3.546,2.225-4.172,4.543-8.519,6.862-12.867Z"/><path class="cls-52" d="m103.34,99.956c-.501-1.509-1.003-3.018-1.506-4.527-.456-2.552-.91-5.104-1.363-7.656,1.046-3.561,2.092-7.121,3.138-10.682,2.316-2.027,4.632-4.054,6.614-5.789-11.867-2.947-23.321-1.823-34.084,4.222-.5-.029-1-.061-1.5-.096-4.835-6.292,3.044-7.018,4.608-10.508.444-.047.884-.121,1.319-.223,7.926-.665,40.918-7.604,44.332-1.422-6.654,9.671-13.449,19.25-19.847,29.086-1.327,2.04-1.179,5.037-1.711,7.594Z"/><path class="cls-118" d="m80.566,64.697c-.435.102-.875.176-1.319.223-13.938.953-30.684,16.994-36.714,28.886l.042.042c-7.553,5.116-9.828,13.247-12.198,21.324-1.892,4.839-3.784,9.679-6.145,15.718-2.552-1.143-5.058-2.265-7.563-3.387,10.335-11.258,14.355-26.092,23.643-38.396,10.923-14.471,22.839-19.914,38.78-27.358.556.538,1.113,1.076,1.671,1.615-.063.445-.128.889-.197,1.332Z"/><path class="cls-79" d="m18.176,148.733c1.499,9.646,2.998,19.292,4.496,28.938-1.499-9.646-2.997-19.292-4.496-28.938Z"/><path class="cls-21" d="m33.384,121.285c-.503.002-1.006-.003-1.509-.014.022-2.026.043-4.053.064-6.079,3.545-7.115,7.091-14.229,10.637-21.343,0,0-.042-.042-.042-.042,4.307-4.535,8.321-9.404,13.009-13.503,3.967-3.469,8.323-7.774,14.391-3.368l-.282.499c-3.807,1.522-8.18,2.302-11.321,4.696-13.036,9.933-19.017,24.574-24.946,39.155Z"/><path class="cls-23" d="m42.575,93.849c-3.546,7.114-7.092,14.229-10.637,21.343-.52-.006-1.041-.013-1.562-.02,2.37-8.077,4.645-16.207,12.198-21.324Z"/><path class="cls-116" d="m85.316,198.83c.926-5.623-2.947-4.25-5.982-4.098-6.197-8.415-14.307-14.332-20.616-22.802-7.245-9.726-6.709-17.714-11.592-27.789.928-.496,1.856-.993,2.787-1.489,1.553,2.034,3.104,4.068,4.654,6.102-2.621,9.27,10.752,40.072,23.122,38.034,15.348,9.031,31.493,11.637,48.657,6.025.482-.501.964-1.001,1.446-1.502.87,1.183,1.74,2.367,2.535,3.448,14.002-7.113,19.61-14.281,27.518-27.572.705.447,1.41.894,2.115,1.341-4.02,8.642-8.04,17.284-12.06,25.927-.29-1.342-.58-2.684-.651-3.011-9.319,3.717-20.067,6.192-26.97,13.619-1.094.134-2.188.268-3.281.402.748-2.466,1.495-4.931,1.811-5.972-11.053-1.194-21.236-3.201-32.104-.686,0,0-.693.121-.693.121l-.697-.095Z"/><path class="cls-83" d="m49.91,142.652c-.928.496-1.856.993-2.784,1.489-4.591-2.911-8.029-6.258-4.614-12.194,5.877-5.017,1.935-10.111.12-15.188.548-1.515,1.097-3.03,1.644-4.546,7.272-8.206,14.545-16.413,21.818-24.619.923.656,1.846,1.312,2.769,1.968-3.215,5.635-6.43,11.27-9.555,16.746,4.637-3.582,4.701,1.337,6.097,4.251-2.503,2.531-5.007,5.061-7.51,7.592-11.11,3.787-14.253,13.421-6.576,20.164.169.845.338,1.69.506,2.534-.638.601-1.276,1.201-1.914,1.802Z"/><path class="cls-120" d="m42.632,116.759c1.815,5.077,5.757,10.171-.12,15.188-1.028-.003-2.056-.006-3.085-.01-.969-.501-1.938-1.003-2.907-1.504,2.037-4.558,4.075-9.116,6.112-13.674Z"/><path class="cls-15" d="m116.998,205.462c1.094-.134,2.188-.268,3.282-.402,6.84-1.985,13.651-4.085,20.549-5.843,1.14-.29,2.662.92,4.008,1.437-.549,1.48-1.097,2.96-1.646,4.441-6.14,2.14-12.394,4.007-18.382,6.511-4.336,1.814-6.689.339-8.454-3.404-.163-.573-.326-1.147-.489-1.72,0,0-.066-.73-.066-.736.395-.12.794-.212,1.198-.283Z"/><path class="cls-14" d="m116.355,208.202c1.765,3.743,4.117,5.218,8.454,3.404,5.987-2.504,12.242-4.371,18.382-6.511-.522,3.172-1.043,6.344-1.565,9.517-1.039.799-2.077,1.599-3.116,2.398-.569-.987-1.246-2.88-1.691-2.827-7.966.949-15.903,2.134-23.847,3.269-.198-.642-.396-1.284-.593-1.927,1.326-2.441,2.651-4.882,3.977-7.324Z"/><path class="cls-57" d="m112.379,215.525c.198.642.396,1.284.592,1.926-.644.978-1.286,1.958-1.928,2.938-1.127,2.298-2.253,4.596-3.557,7.254,9.586-1.981,18.745-4.458,28.108-7.331,0,0-.014.001-.014.001,4.068-.505,8.135-1.009,12.203-1.514-4.057,2.045-8.114,4.091-12.17,6.136-10.157,2.146-20.314,4.292-31.281,6.609-.194-1.372-.448-3.164-.701-4.956,2.916-3.687,5.832-7.375,8.749-11.063Z"/><path class="cls-96" d="m116.998,205.462c-.404.07-.804.163-1.198.283-2.015-1.213-3.902-3.123-6.07-3.526-7.623-1.417-15.342-2.317-23.024-3.414,10.868-2.517,21.05-.509,32.103.685-.316,1.041-1.063,3.507-1.811,5.972Z"/><path class="cls-67" d="m42.632,116.759c-2.038,4.558-4.075,9.116-6.112,13.674-.017,7.613-.034,15.227-.052,22.84-1.005-6.517-1.962-13.043-3.061-19.544-.193-1.14-.982-2.18-1.495-3.265.491-3.059.981-6.119,1.472-9.179,5.929-14.581,11.91-29.222,24.946-39.155,3.142-2.394,7.515-3.174,11.324-4.699-7.421,8.69-15.015,17.247-22.15,26.169-1.821,2.276-2.19,5.711-3.226,8.613-.548,1.515-1.097,3.03-1.645,4.545Z"/><path class="cls-37" d="m147.783,218.799c-4.068.505-8.135,1.009-12.202,1.514.977-1.101,1.953-2.202,2.93-3.303,1.039-.799,2.077-1.599,3.117-2.398.53-.154,1.06-.308,1.589-.462,10.123,3.652,30.437-17.848,31.953-27.199.03-1.056.061-2.111.091-3.167.551-.004,1.102-.007,1.654-.011,1.564-.119,4.226.245,4.524-.432,3.254-7.371,6.138-14.905,9.123-22.395.493-.008.985-.032,1.476-.07l.743.009h.743c1.841,11.421-5.321,19.429-10.63,28.171-8.401,13.834-21.191,22.439-35.109,29.742Z"/><path class="cls-109" d="m193.522,160.886h-.743s-.743-.009-.743-.009c.511-15.121,1.816-30.318-4.913-44.658-2.039-4.345-3.858-8.792-5.778-13.193,16.253,8.556,14.315,40.334,15.359,54.844-1.06,1.005-2.121,2.01-3.182,3.015Z"/><path class="cls-117" d="m108.172,234.084c9.232-2.019,18.452-4.101,27.704-6.027,3.435-.715,6.945-1.066,10.421-1.584-12.708,2.537-25.417,5.073-38.125,7.61Z"/><path class="cls-73" d="m181.345,103.027c1.92,4.4,3.739,8.848,5.778,13.193,6.729,14.34,5.424,29.537,4.913,44.658-.491.038-.983.061-1.476.069-.296-9.233.613-18.57-1.814-27.65-3.185,7.264-2.109,18.375-2.778,26.084-.02-19.042,2.711-38.619-10.731-55.049,1.039-.957,2.077-1.913,3.116-2.87.997.522,1.995,1.044,2.992,1.566Z"/><path class="cls-62" d="m175.237,104.331c13.442,16.43,10.711,36.007,10.731,55.049-.489.543-.979,1.086-1.468,1.629-.028-1.583-.056-3.167-.084-4.751.399-17.627.652-35.223-10.711-50.352.511-.525,1.021-1.05,1.532-1.575Z"/><path class="cls-43" d="m92.91,90.793c-15.947,13.376-10.917,36.8,10.646,42.675-.488,2.55-.976,5.101-1.464,7.651,0,0-.032.013-.032.013-5.592-5.092-11.185-10.184-16.777-15.275-1.766-2.031-4.716-3.877-5.07-6.129-.943-5.998-.767-12.171-1.036-18.274,3.769-4.594,6.367-10.693,13.733-10.66Z"/><path class="cls-50" d="m92.91,90.793c-7.366-.032-9.965,6.066-13.733,10.66-.014-2.034-.028-4.068-.042-6.103,2.558-3.601,5.116-7.203,7.675-10.804,5.6-2.485,11.199-4.97,16.799-7.455-1.046,3.56-2.092,7.121-3.138,10.681-5.211-5.719-4.33,3.79-7.561,3.02Z"/><path class="cls-99" d="m102.092,141.119c.488-2.55.976-5.101,1.464-7.651.351-.818.702-1.637,1.853-4.317,1.422,10.983,7.734,8.346,13.41,7.358,3.063.005,6.127.011,9.19.016-8.639,1.531-17.277,3.063-25.916,4.594Z"/><path class="cls-4" d="m102.092,141.119c8.639-1.531,17.277-3.063,25.916-4.594,8.363-1.52,13.284-6.874,17.351-14.044,2.039-3.595,6.303-5.931,9.554-8.835,5.568,1.544,1.316,3.996.56,6.125-8.167,5.531-11.559,14.853-21.307,19.772-11.499,5.802-21.27,4.948-33.659,4.532.518-.981,1.036-1.962,1.554-2.943,0,0,.032-.013.032-.013Z"/><path class="cls-55" d="m100.506,144.075c12.39.416,22.161,1.27,33.659-4.532,9.748-4.919,13.14-14.242,21.307-19.772,1.223,24.809-39.456,33.653-56.521,25.834.519-.51,1.037-1.02,1.555-1.53Z"/><path class="cls-97" d="m182.823,147.139c-.447,5.077-.894,10.153-1.342,15.231-3.34,3.315-1.227,11.312-9.177,10.667-2.035-.983-4.068-1.966-6.102-2.949,1.411-1.052,2.821-2.103,5.049-3.763-2.489-1.561-4.461-2.797-6.432-4.033,2.916-3.199,8.663-4.386,7.474-10.502,3.51-1.55,7.021-3.1,10.531-4.65Z"/><path class="cls-36" d="m182.823,147.139c-3.51,1.55-7.021,3.1-10.532,4.65-.044-.525-.087-1.05-.13-1.576,1.032-6.606,2.064-13.211,3.096-19.817-.985-6.103-1.97-12.205-2.955-18.308.666-.167,1.332-.333,1.999-.5,6.297,10.863,8.081,23.015,8.522,35.55Z"/><path class="cls-2" d="m97.478,148.775c12.996,7.519,26.043,4.638,38.892-.201,5.054-1.903,9.677-4.952,14.496-7.479-5.079,4.059-10.159,8.118-15.238,12.177-9.204,1.019-18.418,2.833-27.608,2.717-4.552-.057-9.06-3.665-13.588-5.666,1.015-.516,2.031-1.033,3.046-1.549Z"/><path class="cls-81" d="m175.257,130.396c-1.032,6.606-2.064,13.211-3.095,19.817-1.32-.957-3.026-2.999-3.897-2.69-4.383,1.554-8.548,3.722-12.789,5.675,6.092-7.593,12.185-15.186,18.277-22.78.501-.009,1.002-.016,1.504-.023Z"/><path class="cls-20" d="m173.753,130.419c-6.092,7.593-12.185,15.186-18.277,22.781-.518-1.516-1.036-3.032-1.554-4.549.001-3.029.002-6.059.003-9.088,3.706-2.916,7.136-6.345,11.227-8.549,2.304-1.241,5.698-.463,8.601-.594Z"/><path class="cls-55" d="m97.478,148.775c-1.015.516-2.031,1.033-3.046,1.549-1.515.583-3.031,1.167-4.546,1.75-.515-1.669-1.03-3.338-1.544-5.007-1.045-1.482-2.09-2.965-3.136-4.447-1.584-2.367-3.095-4.786-4.769-7.087-2.392-3.287-4.903-6.487-7.364-9.723,1.018.518,2.036,1.035,3.054,1.552,5.409,7.209,11.775,12.933,21.321,13.728-.02,1.981-.039,3.962-.059,5.943.03.58.06,1.16.09,1.741Z"/><path class="cls-75" d="m172.305,173.035c7.949.646,5.836-7.351,9.176-10.666.979-2.037,1.957-4.073,2.935-6.11.028,1.583.056,3.166.083,4.749-1.643,4.868-3.296,9.733-4.925,14.606-.907,2.713-1.775,5.439-2.661,8.16-.551.004-1.102.007-1.653.011-.985-3.583-1.97-7.166-2.955-10.748Z"/><path class="cls-70" d="m153.924,139.562c-.001,3.029-.002,6.059-.003,9.089-.538.557-1.076,1.114-1.613,1.669-5.559.983-11.12,1.968-16.681,2.952,5.08-4.059,10.159-8.118,15.238-12.177,1.019-.511,2.039-1.023,3.059-1.534Z"/><path class="cls-99" d="m97.388,147.035c.02-1.981.039-3.962.059-5.943-.33-.781-.493-1.703-1.017-2.321-3.674-4.34-7.423-8.616-11.147-12.913,5.592,5.092,11.185,10.183,16.777,15.275-.518.982-1.036,1.963-1.554,2.944-.518.509-1.036,1.019-1.555,1.529-.521.476-1.042.953-1.564,1.43Z"/><path class="cls-96" d="m73.072,125.81c2.461,3.237,4.972,6.437,7.364,9.724,1.675,2.301,3.185,4.72,4.77,7.087-12.233-7.213-18.947-17.83-19.802-32.061-1.395-2.913-1.46-7.832-6.096-4.251,3.124-5.476,6.339-11.111,9.555-16.746-.923-.656-1.846-1.312-2.769-1.968-7.273,8.206-14.546,16.412-21.818,24.619,1.038-2.902,1.407-6.337,3.228-8.613,7.136-8.922,14.73-17.479,22.15-26.169-.003.003.28-.496.281-.494,1.569-.502,3.136-1.005,4.704-1.508.5.035,1,.067,1.499.096,1.021.514,2.043,1.028,3.064,1.542-5.224,6.963-4.454,16.056-9.265,23.855-3.421,5.546,1.781,16.403,3.135,24.889Z"/><path class="cls-40" d="m79.203,77.066c-1.022-.514-2.043-1.028-3.064-1.542,10.763-6.045,22.217-7.169,34.084-4.222-1.982,1.735-4.298,3.762-6.614,5.789-5.599,2.485-11.199,4.97-16.799,7.457v-9.982c-2.466.811-5.036,1.655-7.606,2.5Z"/><path class="cls-10" d="m74.639,75.429c-1.568.503-3.135,1.006-4.704,1.508-6.07-4.408-10.426-.102-14.393,3.366-4.688,4.099-8.702,8.968-13.009,13.503,6.029-11.893,22.775-27.933,36.713-28.886-1.564,3.491-9.443,4.216-4.608,10.509Z"/><path class="cls-68" d="m152.307,150.321c.538-.557,1.076-1.113,1.614-1.67.518,1.516,1.036,3.033,1.554,4.548,4.242-1.954,8.406-4.121,12.789-5.676.871-.309,2.577,1.732,3.897,2.69.042.525.085,1.05.129,1.575,1.19,6.116-4.557,7.303-7.476,10.504-1.62,2.079-3.237,4.157-4.855,6.235-.705-.447-1.41-.894-2.115-1.341-7.909,13.291-13.516,20.459-27.518,27.572-.795-1.082-1.665-2.265-2.533-3.448,2.702-3.961,5.402-7.923,8.099-11.887,6.93-6.808,15.332-12.38,20.057-21.042l-1.63-1.655c-1.683.881-3.367,1.761-5.05,2.642,1.012-3.015,2.024-6.031,3.036-9.047Z"/><path class="cls-93" d="m135.896,179.425c-2.7,3.962-5.4,7.924-8.101,11.885-.484.5-.966,1.001-1.447,1.503-.924-1.097-1.849-2.195-2.532-3.007-15.64,3.235-30.581,2.392-44.56-6.023.447-4.118.895-8.237,1.343-12.355.59.556,1.18,1.112,1.77,1.668,7.86,5.888,16.259,14.434,26.628,15.07,9.67.592,17.875-5.892,26.555-8.961l.343.22Z"/><path class="cls-1" d="m79.256,183.783c13.978,8.416,28.919,9.258,44.559,6.023.684.812,1.609,1.91,2.532,3.007-17.165,5.611-33.31,3.005-48.659-6.025-5.812-7.322-11.623-14.645-18.285-23.038,3.343-.728,4.698-1.023,6.053-1.318,3.466,7.849,5.509,16.616,13.799,21.351Z"/><path class="cls-112" d="m159.961,168.526c1.617-2.078,3.235-4.155,4.855-6.235,1.974,1.235,3.946,2.471,6.435,4.032-2.227,1.66-3.638,2.712-5.049,3.764-5.261,10.094-10.521,20.188-15.782,30.283-2.401,4.593-4.802,9.186-7.204,13.779-.529.154-1.059.309-1.589.463.521-3.172,1.042-6.344,1.564-9.517.549-1.48,1.097-2.961,1.646-4.441,1.021-2.067,2.043-4.134,3.064-6.201,4.02-8.642,8.04-17.284,12.06-25.927Z"/><path class="cls-77" d="m65.457,162.431c-1.355.295-2.71.59-6.053,1.318,6.662,8.394,12.473,15.716,18.285,23.038-12.37,2.038-25.743-28.764-23.12-38.034,2.256,1.975,4.511,3.95,6.766,5.924,1.374,2.585,2.749,5.169,4.123,7.754Z"/><path class="cls-26" d="m147.901,194.453c-1.021,2.067-2.043,4.134-3.064,6.202-1.346-.517-2.868-1.727-4.008-1.437-6.898,1.757-13.709,3.857-20.549,5.843,6.902-7.427,17.65-9.902,26.969-13.619.071.328.361,1.67.651,3.011Z"/><path class="cls-5" d="m61.335,154.678c-2.255-1.975-4.51-3.95-6.766-5.924-1.552-2.034-3.102-4.068-4.655-6.102.636-.601,1.274-1.201,1.913-1.801,3.506,3.105,7.011,6.209,10.515,9.314-.335,1.504-.671,3.009-1.006,4.513Z"/><path class="cls-101" d="m62.341,150.165c-3.505-3.104-7.01-6.208-10.515-9.314-.169-.846-.338-1.691-.504-2.537,1.101-5.025,2.199-10.049,3.297-15.073l2.127.22c3.817,11.726,12.35,19.206,22.386,25.334-3.123,1.038-6.246,2.077-9.368,3.115-1.46-.125-2.92-.249-4.381-.374-1.014-.457-2.028-.914-3.042-1.371Z"/><path class="cls-88" d="m79.131,148.794c-10.036-6.128-18.569-13.608-22.386-25.334l-2.127-.22c-1.098,5.024-2.196,10.048-3.297,15.073-7.679-6.741-4.537-16.375,6.572-20.162,8.796,9.65,15.203,29.035,30.447,28.915.515,1.669,1.03,3.338,1.544,5.005-.021.472-.047.946-.08,1.417-.989.028-1.978.058-2.968.088-2.569-1.595-5.137-3.189-7.706-4.784Z"/><path class="cls-11" d="m88.341,147.067c-15.244.121-21.651-19.265-30.447-28.915,2.505-2.531,5.008-5.062,7.512-7.593.854,14.23,7.568,24.847,19.801,32.06,1.044,1.482,2.09,2.964,3.135,4.447Z"/><path class="cls-45" d="m138.51,217.01c-.976,1.101-1.953,2.203-2.93,3.303,0,0,.014-.001.014-.001-5.46.912-10.896,2.241-16.39,2.556-2.664.153-5.438-1.593-8.162-2.48.642-.98,1.284-1.959,1.928-2.938,7.945-1.133,15.883-2.318,23.849-3.268.445-.053,1.122,1.84,1.691,2.827Z"/><path class="cls-37" d="m111.043,220.389c2.724.886,5.497,2.633,8.162,2.48,5.494-.315,10.93-1.644,16.39-2.556-9.363,2.872-18.522,5.349-28.108,7.33,1.303-2.659,2.43-4.956,3.557-7.254Z"/><path class="cls-7" d="m150.419,200.37c5.261-10.094,10.521-20.188,15.782-30.283,2.034.983,4.068,1.966,6.102,2.949.986,3.582,1.971,7.165,2.956,10.748-.031,1.056-.061,2.111-.09,3.165-1.476,1.197-3.121,2.24-4.401,3.62-5.515,5.952-12.338,9.081-20.349,9.8Z"/><path class="cls-32" d="m150.419,200.37c8.012-.719,14.835-3.848,20.349-9.8,1.28-1.381,2.925-2.423,4.401-3.62-1.517,9.353-21.831,30.853-31.954,27.2,2.401-4.593,4.803-9.186,7.204-13.78Z"/><path class="cls-3" d="m176.913,183.773c.886-2.72,1.754-5.446,2.661-8.16,1.629-4.873,3.282-9.738,4.925-14.606.49-.542.979-1.085,1.469-1.628.669-7.708-.407-18.819,2.778-26.084,2.426,9.081,1.517,18.417,1.814,27.65-2.985,7.49-5.869,15.024-9.123,22.395-.299.677-2.96.312-4.524.432Z"/><path class="cls-80" d="m85.283,125.857c3.725,4.297,7.473,8.574,11.147,12.913.523.618.687,1.54,1.017,2.321-9.546-.795-15.913-6.519-21.321-13.728-3.48-11.091-6.888-22.176,3.009-32.013.014,2.034.028,4.069.042,6.103.269,6.103.094,12.276,1.036,18.274.354,2.253,3.304,4.098,5.07,6.129Z"/><path class="cls-63" d="m79.135,95.351c-9.897,9.836-6.489,20.921-3.009,32.013-1.018-.517-2.036-1.035-3.054-1.553-1.354-8.487-6.556-19.344-3.135-24.89,4.811-7.799,4.041-16.892,9.265-23.855,2.57-.845,5.14-1.689,7.607-2.5v9.982c-2.558,3.6-5.116,7.201-7.674,10.802Z"/><path class="cls-47" d="m89.805,153.492c.033-.473.059-.947.08-1.419,1.516-.582,3.031-1.165,4.546-1.748,4.528,2.002,9.036,5.609,13.588,5.666,9.19.115,18.404-1.699,27.608-2.717,5.561-.985,11.121-1.969,16.681-2.953-1.013,3.017-2.025,6.032-3.036,9.048-.518.012-1.037.023-1.555.035-19.477-4.987-38.89,7.361-57.912-5.911Z"/><path class="cls-22" d="m147.716,159.403c.519-.012,1.038-.023,1.556-.035,1.682-.881,3.366-1.762,5.049-2.642l1.63,1.655c-4.725,8.662-13.127,14.234-20.057,21.042.002.002-.341-.218-.34-.218,2.048-4.063,4.094-8.126,6.141-12.189,1.026-1.511,2.052-3.021,3.078-4.532.981-1.027,1.962-2.054,2.943-3.08Z"/><path class="cls-87" d="m141.694,167.015c-2.047,4.063-4.093,8.126-6.141,12.189-8.681,3.069-16.886,9.554-26.556,8.961-10.369-.635-18.769-9.182-26.63-15.069,3-1.021,6.001-2.042,9.002-3.063,9.95,1.224,19.773,1.193,29.675,2.035,11.401.97,10.668-2.898,20.649-5.053Z"/><path class="cls-42" d="m62.341,150.165c1.014.457,2.028.914,3.042,1.374,4.081,4.172,8.162,8.342,12.243,12.512.991,2.459,1.982,4.918,2.973,7.377-.448,4.118-.896,8.237-1.343,12.355-8.29-4.736-10.332-13.503-13.798-21.351-1.375-2.585-2.749-5.17-4.123-7.754.336-1.504.671-3.008,1.007-4.513Z"/><path class="cls-78" d="m80.599,171.427c-.991-2.459-1.982-4.918-2.972-7.378.577-1.39,1.154-2.779,1.731-4.169,1.972.857,3.945,1.714,5.918,2.571,2.032,2.527,4.063,5.055,6.095,7.582-3.001,1.021-6.003,2.042-9.002,3.063-.589-.557-1.179-1.113-1.769-1.669Z"/><path class="cls-5" d="m79.131,148.794c2.569,1.595,5.137,3.189,7.706,4.78-.992.882-1.983,1.766-2.975,2.651-4.846-.963-10.922,2.088-14.099-4.316,3.123-1.038,6.246-2.077,9.368-3.115Z"/><path class="cls-5" d="m69.763,151.91c3.177,6.405,9.254,3.354,14.098,4.317-1.502,1.218-3.003,2.436-4.504,3.654-.577,1.389-1.154,2.779-1.731,4.169-4.081-4.169-8.162-8.339-12.244-12.511,1.46.122,2.92.247,4.38.371Z"/><path class="cls-76" d="m79.357,159.881c1.501-1.218,3.002-2.435,4.504-3.654.993-.886,1.985-1.77,2.977-2.652.989-.027,1.979-.057,2.968-.085,19.022,13.274,38.435.926,57.912,5.913-.982,1.027-1.963,2.054-2.944,3.08-12.362.5-24.721,1.286-37.086,1.396-7.466.066-14.941-.916-22.412-1.428-1.972-.857-3.945-1.714-5.918-2.571Z"/><path class="cls-119" d="m85.275,162.451c7.471.511,14.946,1.494,22.412,1.428,12.365-.11,24.724-.896,37.086-1.396-1.026,1.511-2.052,3.022-3.078,4.533-9.981,2.156-9.248,6.023-20.65,5.053-9.901-.842-19.725-.811-29.675-2.035-2.032-2.528-4.063-5.055-6.095-7.582Z"/></svg>