<?xml version="1.0" encoding="UTF-8"?><svg id="Layer_1" xmlns="http://www.w3.org/2000/svg" viewBox="0 0 243.75 241.689"><defs><style>.cls-1{fill:#5f7273;}.cls-2{fill:#8ba0b7;}.cls-3{fill:#566278;}.cls-4{fill:#99a7c1;}.cls-5{fill:#8090a4;}.cls-6{fill:#5e667d;}.cls-7{fill:#546267;}.cls-8{fill:#71849b;}.cls-9{fill:#94aeb9;}.cls-10{fill:#8593a4;}.cls-11{fill:#4f5e6d;}.cls-12{fill:#728397;}.cls-13{fill:#5b6a7b;}.cls-14{fill:#9ab1b6;}.cls-15{fill:#626d84;}.cls-16{fill:#3b4459;}.cls-17{fill:#524f4c;}.cls-18{fill:#abc4d5;}.cls-19{fill:#5c697d;}.cls-20{fill:#77869a;}.cls-21{fill:#4b596b;}.cls-22{fill:#bed3dc;}.cls-23{fill:#2c384d;}.cls-24{fill:#556b79;}.cls-25{fill:#4f5b70;}.cls-26{fill:#71868b;}.cls-27{fill:#7d969f;}.cls-28{fill:#36455b;}.cls-29{fill:#525d66;}.cls-30{fill:#abbed1;}.cls-31{fill:#6e7e95;}.cls-32{fill:#586981;}.cls-33{fill:#5f747b;}.cls-34{fill:#8199a4;}.cls-35{fill:#61728c;}.cls-36{fill:#546277;}.cls-37{fill:#85989c;}.cls-38{fill:#4c5658;}.cls-39{fill:#98a0b7;}.cls-40{fill:#555d5f;}.cls-41{fill:#2d364a;}.cls-42{fill:#d5eaf4;}.cls-43{fill:#8f9bb2;}.cls-44{fill:#798b9c;}.cls-45{fill:#57686e;}.cls-46{fill:#90a6b8;}.cls-47{fill:#8294a7;}.cls-48{fill:#96a7b9;}.cls-49{fill:#a9bbbe;}.cls-50{fill:#65797a;}.cls-51{fill:#b4cddc;}.cls-52{fill:#69768d;}.cls-53{fill:#adc3cd;}.cls-54{fill:#67706e;}.cls-55{fill:#a9bbce;}.cls-56{fill:#9aaeb9;}.cls-57{fill:#869da3;}.cls-58{fill:#c7dce6;}.cls-59{fill:#677879;}.cls-60{fill:#8192a2;}.cls-61{fill:#acc2d4;}.cls-62{fill:#9aacc0;}.cls-63{fill:#677376;}.cls-64{fill:#c4d7e9;}.cls-65{fill:#4e5d70;}.cls-66{fill:#626e85;}.cls-67{fill:#64728c;}.cls-68{fill:#b2cbd3;}.cls-69{fill:#687f87;}.cls-70{fill:#d2e6f3;}.cls-71{fill:#63737a;}.cls-72{fill:#97a7c1;}.cls-73{fill:#687788;}.cls-74{fill:#81999a;}.cls-75{fill:#465267;}.cls-76{fill:#69738d;}.cls-77{fill:#3a465e;}.cls-78{fill:#cde2eb;}.cls-79{fill:#4f5a72;}.cls-80{fill:#7f8f91;}.cls-81{fill:#7e9ca1;}.cls-82{fill:#778199;}.cls-83{fill:#6d7a7c;}.cls-84{fill:#67768a;}.cls-85{fill:#b9ccdb;}.cls-86{fill:#a2bac3;}.cls-87{fill:#c3dcec;}.cls-88{fill:#7b8aa4;}.cls-89{fill:#718b91;}.cls-90{fill:#5b6f72;}.cls-91{fill:#475369;}.cls-92{fill:#768699;}.cls-93{fill:#60727a;}.cls-94{fill:#a9bacd;}.cls-95{fill:#899eb5;}.cls-96{fill:#8a9db3;}.cls-97{fill:#738098;}.cls-98{fill:#7c8a9c;}.cls-99{fill:#94a3b3;}.cls-100{fill:#293146;}.cls-101{fill:#8ca6a9;}.cls-102{fill:#cfe5ee;}.cls-103{fill:#6a768b;}.cls-104{fill:#8097a0;}.cls-105{fill:#889eb0;}.cls-106{fill:#515d73;}.cls-107{fill:#617778;}</style></defs><path class="cls-54" d="m161.662,229.757c-2.443,1.782-6.078,1.229-7.992,4.049-5.376-.077-10.769,2.044-15.505,2.423-16.102,1.29-32.654,2.882-48.578-2.51.056-.677.112-1.354.167-2.031,13.691-6.258,24.402,2.862,38.019,1.79,14.173-1.116,26.917-9.236,41.811-9.746-1.693,3.246-8.008.455-7.923,6.024Z"/><path class="cls-17" d="m89.587,233.72c15.925,5.392,32.476,3.8,48.578,2.51,4.736-.38,10.129-2.5,15.505-2.423-2.672,1.279-5.344,2.558-8.015,3.835-1.98.695-3.961,1.39-5.941,2.084-9.468-1.312-18.619,1.862-27.986,1.964-3.324-.026-6.648-.053-9.972-.08-.407-3.513-2.928-3.741-5.747-3.925-14.079-.922-27.791-2.928-38.147-13.977,11.25,1.214,20.897,7.474,31.727,10.012Z"/><path class="cls-50" d="m223.801,169.758c2.053,1.774,1.742,4.104,1.518,6.412-5.542,5.046-9.314,11.752-15.656,16.149-1.531,1.062,1.236,1.208,2.072,1.723-1.404,1.264-2.809,2.527-4.213,3.791-5.712.821-8.512,6.69-13.946,7.994-.084-2.08-.168-4.16-.252-6.24.638-.681,1.277-1.362,1.915-2.043,6.658-6.068,17.089-8.83,16.936-20.864-.033-2.575,3.335-6.365,8-4.019,3.017,1.517,3.012-1.186,3.626-2.903Z"/><path class="cls-40" d="m193.576,205.827c5.434-1.304,8.233-7.173,13.946-7.994-5.725,13.85-19.851,19.804-29.309,30.195-2.778,3.052-10.886,1.286-16.55,1.729-.085-5.569,6.229-2.778,7.923-6.024,3.491-.304,6.084-1.306,4.395-5.628,1.144-.188,2.289-.374,3.433-.561,7.599,1.857,10.497-5.688,16.03-7.962.044-1.251.088-2.502.132-3.754Z"/><path class="cls-80" d="m227.475,178.171c-1.962,5.527-8.748,7.563-9.942,13.645-1.933.741-3.866,1.483-5.798,2.225-.835-.514-3.603-.661-2.072-1.722,6.342-4.397,10.115-11.103,15.656-16.149.718.668,1.437,1.334,2.156,2.001Z"/><path class="cls-107" d="m4.001,78.576c7.743-7.153,16.691-11.367,4.306-18.723,11.217,1.342,14.47-8.823,21.739-13.184,4.844,6.218-4.432,7.347-4.307,11.864-5.493,6.827-10.001,14.255-13.652,22.207-.306-1.13-.033-3.003-1.764-2.71-.957.162-1.678,1.71-2.505,2.634-1.309-.055-2.618-.11-3.927-.165-.045-.645-.008-1.286.111-1.922Z"/><path class="cls-38" d="m89.587,233.72c-10.83-2.538-20.477-8.798-31.727-10.012-5.168-4.725-9.97-9.944-15.576-14.078-15.316-11.294-23.821-27.491-32.682-43.499.003,0,.399-.123.398-.123,1.283.039,2.567.078,3.852.116,6.735,10.061,13.49,20.109,20.191,30.192,1.888,2.841,3.971,5.318,7.652,5.731,11.139,10.915,23.762,19.606,38.31,25.419,3.616.568,7.94-.485,9.75,4.224-.056.677-.112,1.354-.168,2.031Z"/><path class="cls-29" d="m153.62,8.876c1.343-.014,2.686-.029,4.029-.043,10.598,1.868,39.063,12.503,43.905,23.945.007,1.953.014,3.906.022,5.859-2.848-2.821-4.8-7.181-10.078-5.828-4.002.348-5.829-4.583-9.906-4.056-4.5-7.521-11.687-9.801-19.878-10.123,3.961-8.74-5.399-6.5-8.094-9.754Z"/><path class="cls-93" d="m233.724,84.57c-3.177,7.444-3.929,14.969.327,22.177,1.829,3.099,1.29,6.241,1.611,9.403-.713,1.361-1.424,2.721-2.136,4.082-1.283-.063-2.565-.126-3.847-.189-.038-.574-.135-1.137-.291-1.691.927-1.875,4.842-2.97,3.006-5.299-3.958-5.022-2.218-12.113-6.778-16.715l.005.008c.932-5.881,5.514-12.681-4.036-15.923-.054-.671.055-1.315.328-1.931,2.577-.183,3.566-1.771,3.685-4.132,4.351,2.105,2.916,8.783,8.125,10.211Z"/><path class="cls-33" d="m191.497,32.81c5.278-1.353,7.231,3.006,10.079,5.827,3.308,1.75,5.077,4.488,6.491,7.992,1.631,4.042,3.609,8.548,9.431,8.161-.646,1.265-1.293,2.533-1.939,3.8-9.765-6.977-19.448-14.03-24.062-25.782Z"/><path class="cls-59" d="m215.559,58.592c.647-1.267,1.293-2.535,1.939-3.8,9.063,3.909,10.017,11.149,8.1,19.569-.118,2.359-1.107,3.948-3.686,4.13-1.424-2.674-4.347-4.51-4.455-7.918-.305-4.045,1.286-8.389-1.898-11.981Z"/><path class="cls-45" d="m233.526,120.231c.711-1.36,1.423-2.72,2.135-4.082,13.741,6.066,6.325,10.362,3.983,22.227-1.265,6.407,3.838,11.17-.768,17.717-4.007,5.694-12.035,4.051-15.54,12.125-.677-.693-1.355-1.384-2.031-2.077-.89-6.984,3.658-11.548,8.081-15.438,3.239-2.848,2.635-4.26.196-6.514-.338-5.198-.326-10.439,3.682-14.383,3.37-3.316,1.789-6.347.261-9.575Z"/><path class="cls-74" d="m221.304,166.142c.678.692,1.356,1.384,2.033,2.076.16.513.315,1.026.463,1.541-.613,1.717-.608,4.419-3.625,2.903-4.666-2.345-8.033,1.444-8,4.019.153,12.034-10.279,14.795-16.935,20.866,3.48-5.174,6.959-10.35,10.437-15.526,6.193-7.778,7.471-18.187,13.914-25.834.429,3.342-1.146,7.027,1.713,9.955Z"/><path class="cls-37" d="m89.755,231.688c-1.81-4.709-6.134-3.655-9.751-4.222-.141-2.527,1.736-5.179-.469-7.581,3.942.264,7.518-.375,9.91-3.957.422,3.515-.074,7.027,5.276,7.966,15.098,2.652,30.096,3.266,45.151.04,5.235.743,8.376-5.305,13.722-4.203,6.285-3.85,13.658,2.56,19.858-2.094l.53.468c1.688,4.322-.904,5.323-4.395,5.627-14.894.51-27.638,8.63-41.811,9.746-13.617,1.072-24.328-8.048-38.02-1.79Z"/><path class="cls-68" d="m205.678,182.021c-3.479,5.176-6.957,10.351-10.438,15.526-.64.679-1.278,1.36-1.915,2.043-4.616,3.393-9.233,6.786-13.848,10.178-4.673,1.371-9.3,2.946-14.039,4.045-3.52.817-7.723,3.339-9.923-2.222,1.845-3.493,4.874-5.717,8.21-7.612,3.251-.098,6.501-.197,9.752-.295,9.488-1.72,29.166-30.304,32.2-21.663Z"/><path class="cls-74" d="m179.475,209.767c4.617-3.392,9.234-6.784,13.85-10.178.083,2.079.167,4.159.251,6.239-.044,1.251-.088,2.502-.131,3.756-8.802-4.265-10.475,5.731-16.031,7.96-1.145.187-2.29.373-3.433.561,0,0-.529-.467-.528-.466,2.009-2.623,4.016-5.248,6.023-7.872Z"/><path class="cls-63" d="m177.413,217.543c5.556-2.229,7.229-12.226,16.031-7.96-5.534,2.273-8.432,9.817-16.031,7.96Z"/><path class="cls-101" d="m25.738,58.533c-.125-4.517,9.15-5.646,4.307-11.864.74-1.276,1.479-2.552,2.219-3.828.541.015,1.071-.048,1.591-.189,5.316,3.887,8.896,2.232,13.627-2.169,6.344-5.903,10.197-16.863,22.306-13.746-1.9,4.731-7.494,3.495-10.413,6.328-4.322,4.196-12.906,7.177-5.595,15.611-8.96-1.052-8.168,7.428-11.596,11.784-2.318-20.605-28.862,22.513-8.766,17.6.052,1.494.104,2.988.156,4.483-.554-.075-1.111-.095-1.669-.06q-10.034-.394-10.019-11.912c1.284-4.012,2.568-8.025,3.852-12.037Z"/><path class="cls-26" d="m69.789,26.736c-12.11-3.118-15.962,7.843-22.306,13.746-4.73,4.401-8.311,6.057-13.627,2.169,6.064-12.817,21.307-13.45,30.289-22.478.852-.856,3.639.201,5.529.371,2.686-.625,5.371-1.253,8.056-1.88,7.123,1.487,11.137-6.676,18.069-5.782-2.013,1.963-4.026,3.926-6.039,5.889-6.657,2.655-13.314,5.309-19.971,7.964Z"/><path class="cls-7" d="m77.73,18.665c-2.685.627-5.37,1.254-8.056,1.88,7.534-14.541,72.455-29.687,80-13.713-5.344.031-10.688.061-16.031.091-10.669.605-21.339,1.211-32.009,1.817-9.499-.354-16.632,4.954-23.905,9.925Z"/><path class="cls-71" d="m133.643,6.923c5.344-.031,10.687-.061,16.031-.092,1.6.137,3.081.5,3.946,2.045,2.695,3.254,12.054,1.015,8.093,9.756-.038.762-.075,1.523-.112,2.282-3.7-4.894-7.126-10.564-14.496-4.991-.122.093-.942-.731-1.437-1.126-3.408-3.535-9.784-2.569-12.025-7.873Z"/><path class="cls-89" d="m25.738,58.533c-1.284,4.012-2.568,8.025-3.852,12.036-.819,10.931-6.322,20.585-8.443,31.293-2.257,11.397.312,23.576-5.65,34.285.044-6.235.009-12.472.15-18.705.279-12.354-1.797-24.981,4.143-36.703,3.651-7.951,8.159-15.38,13.652-22.207Z"/><path class="cls-90" d="m12.086,80.739c-5.941,11.721-3.865,24.349-4.143,36.703-.141,6.233-.105,12.47-.149,18.705-1.111,2.138-2.223,4.275-3.335,6.413l-.747-.543c-1.148-10.128,1.494-20.465-1.803-30.507-.59-1.796-.337-3.864-1.909-5.321,1.87-8.735,6.98-16.483,7.818-25.528.826-.922,1.547-2.471,2.504-2.632,1.732-.293,1.459,1.58,1.764,2.71Z"/><path class="cls-83" d="m79.532,219.886c2.208,2.401.331,5.054.472,7.58-14.546-5.814-27.169-14.506-38.307-25.422.089-.777.177-1.553.264-2.327,4.453.721,7.31,4.237,11.022,6.254,6.749,3.668,11.687,11.081,20.746,9.981.167,3.901,2.966,3.944,5.803,3.934Z"/><path class="cls-1" d="m41.962,199.716c-.088.775-.176,1.551-.265,2.328-3.682-.412-5.766-2.888-7.654-5.729-6.701-10.083-13.456-20.131-20.191-30.193.019-3.362.038-6.723.057-10.084,1.572.883,1.958,2.391,2.127,4.012.657,4.966,2.604,9.176,5.858,13.178,6.984,8.591,13.413,17.631,20.069,26.487Z"/><path class="cls-90" d="m13.909,156.038c-.019,3.361-.038,6.722-.057,10.084-1.285-.038-2.569-.077-3.852-.116-4.47-7.378-11.408-14.113-6.287-23.989-.001,0,.745.542.742.54-.29,6.888,3.595,10.872,9.454,13.481Z"/><path class="cls-34" d="m215.559,58.592c3.184,3.592,1.593,7.936,1.899,11.981-.643-.013-1.287-.021-1.931-.023-6.478-10.861-15.066-16.475-23.138-26.427-4.662-5.748-4.155-6.862-10.254-11.154-6.385-4.493-9.481,2.665-14.574-5.947.024-.689.048-1.379.072-2.068,4.473,1.926,8.669,4.858,13.96,3.801,4.076-.527,5.903,4.404,9.906,4.056,4.613,11.753,14.297,18.805,24.062,25.782Z"/><path class="cls-33" d="m181.592,28.753c-5.29,1.057-9.487-1.875-13.96-3.803-2.01-1.346-4.021-2.691-6.031-4.036.037-.76.074-1.521.112-2.283,8.192.32,15.379,2.6,19.879,10.121Z"/><path class="cls-9" d="m215.527,70.549c.644.002,1.288.01,1.931.023.107,3.409,3.03,5.244,4.454,7.919-.272.616-.381,1.259-.327,1.931.978,5.4.871,11.074,4.036,15.923,0,0-.005-.008-.006-.008-.267,3.593-.331,7.133-1.168,10.753-1.028,4.447-.48,9.166,4.941,11.261.156.554.253,1.117.289,1.693-5.159,7.764-10.063,15.545-1.902,24.339-2.728,3.935-5.457,7.869-8.185,11.804-6.443,7.645-7.721,18.054-13.914,25.833-3.032-8.641-22.71,19.943-32.198,21.665,4.021-6.512-6.824-14.703.787-20.375,1.077,1.331,5.466,16.86,7.514,4.831,3.496-2.475,6.869-5.15,10.519-7.374,5.629-3.431,10.341-7.256,9.396-14.761,2.265-1.574,1.758-4.056,2.068-6.27,2.153,1.781,3.793,1.153,5.864-.563,7.771-6.437,1.924-12.714.068-19.059,19.963,11.983,9.077-51.798-.651-61.344,2.147-2.752,7.952-2.638,6.484-8.222Z"/><path class="cls-81" d="m227.776,144.384c-8.162-8.795-3.258-16.576,1.902-24.339,1.284.061,2.566.124,3.849.187,1.529,3.227,3.11,6.258-.261,9.574-4.008,3.944-4.02,9.185-3.683,14.383-.609.01-1.211.075-1.807.195Z"/><path class="cls-27" d="m229.388,118.352c-5.421-2.095-5.97-6.814-4.941-11.261.837-3.62.901-7.159,1.168-10.753,4.56,4.601,2.82,11.692,6.779,16.715,1.836,2.33-2.079,3.424-3.006,5.299Z"/><path class="cls-27" d="m225.621,96.345c-3.165-4.849-3.058-10.523-4.036-15.923,9.55,3.242,4.968,10.042,4.036,15.923Z"/><path class="cls-69" d="m227.776,144.384c.596-.12,1.198-.186,1.807-.195,2.439,2.255,3.043,3.666-.196,6.515-4.423,3.89-8.971,8.454-8.081,15.438-2.861-2.927-1.286-6.613-1.715-9.955,2.729-3.934,5.457-7.868,8.185-11.803Z"/><path class="cls-49" d="m139.871,223.934c-15.055,3.226-30.052,2.611-45.151-.04-5.35-.94-4.854-4.452-5.273-7.968.105-1.376.207-2.75.309-4.123,4.755-.331,6.429,4.465,10.06,6.004,9.923,1.833,19.875,5.674,29.686-.419.705-.547,1.41-1.094,2.115-1.642.762.109,1.525.218,2.287.328-.902,2.282-1.804,4.565-2.871,7.265,3.211.217,6.025.407,8.838.597Z"/><path class="cls-60" d="m89.756,211.802c-.102,1.374-.204,2.747-.309,4.123-2.395,3.585-5.971,4.224-9.913,3.959-2.839.012-5.638-.032-5.805-3.934.037-.741.074-1.48.11-2.218,2.605-.244,7.505.612,2.589-3.982-2.569-2.401-5.478-4.312-6.625-7.832,4.227-10.361,8.704-6.642,13.22-1.309,6.025,7.114-8.385,9.996,6.732,11.194Z"/><path class="cls-22" d="m139.871,223.934c-2.813-.19-5.627-.38-8.838-.597,1.067-2.7,1.969-4.982,2.87-7.267,5.055-1.505,9.755-5.989,15.487-1.845,1.401,1.835,2.802,3.67,4.202,5.506-5.346-1.102-8.487,4.946-13.722,4.203Z"/><path class="cls-9" d="m153.593,219.731c-1.401-1.835-2.802-3.67-4.201-5.509.002-.004.296-.509.296-.509,1.581.067,3.081-.067,4.031-1.589.585-.222,1.184-.4,1.796-.534,2.2,5.562,6.403,3.039,9.923,2.222,4.738-1.099,9.365-2.674,14.039-4.045-2.009,2.624-4.016,5.249-6.025,7.872-6.201,4.652-13.575-1.758-19.859,2.092Z"/><path class="cls-20" d="m181.782,188.143c-2.05,12.027-6.438-3.502-7.516-4.833-7.611,5.671,3.234,13.862-.787,20.375-3.252.097-6.503.195-9.753.293,9.642-7.269,9.63-8.049-.216-13.883-.637-1.397-1.275-2.792-1.914-4.187l.008-.002c3.998-3.303,7.996-6.606,11.994-9.909,6.612-1.288,2.645,4.06,3.957,6.088,1.188,1.837-3.46,7.785,3.72,5.461l.508.596Z"/><path class="cls-11" d="m163.508,190.097c9.848,5.832,9.86,6.612.218,13.881-3.337,1.895-6.366,4.119-8.21,7.612-.612.134-1.21.312-1.796.532-3.836-6.154,3.421-9.284,3.909-14.258,5.336-.051.891-7.455,5.879-7.767Z"/><path class="cls-48" d="m31.905,82.481c.558-.035,1.115-.015,1.672.06.317,2.466,1.608,3.901,4.208,3.953-.54,1.213-1.08,2.427-1.62,3.64-.827,6.799,2.801,7.755,7.549,4.837,3.224-1.982,5.476-5.535,8.162-8.387,4.188,4.361,7.221,4.399,7.816-2.379.339-3.86.057-7.775.054-11.665,3.409,2.761,1.573,6.627,2.118,9.991,1.662,2.432-3.785,8.317,3.84,7.853-4.284,19.658-20.909,16.898-33.937,18.027-1.243-1.246-2.485-2.491-3.728-3.737-3.821-8.281.041-15.234,3.865-22.193Z"/><path class="cls-57" d="m31.905,82.481c-3.824,6.959-7.685,13.912-3.865,22.191,0-.002-.043-.17-.043-.171-1.315-.738-2.629-1.475-3.944-2.213-2.908-14.258-7.734,5.446-8.235,8.756-2.221,14.674-1.478,34.728,2.321,48.931-.701.026-1.402.051-2.103.077-.169-1.622-.555-3.129-2.127-4.012-5.858-2.609-9.744-6.593-9.453-13.481,1.115-2.136,2.227-4.273,3.338-6.411,5.962-10.71,3.393-22.888,5.649-34.285,2.12-10.708,7.624-20.361,8.443-31.293q-.015,11.518,10.019,11.912Z"/><path class="cls-14" d="m69.789,26.736c6.657-2.655,13.314-5.309,19.971-7.963,5.369-.123,10.78-4.627,16.102.15-11.929,3.035-24.178,5.254-34.664,12.779,2.196,2.262,4.314,2.976,6.647,3.202-.126,2.663-1.516,4.527-3.733,5.868-10.345-4.003-15.012,3.383-20.089,9.947-.08-.681-.161-1.362-.241-2.043-7.311-8.435,1.274-11.416,5.595-15.612,2.918-2.833,8.513-1.597,10.413-6.328Z"/><path class="cls-92" d="m51.877,86.586c-2.687,2.85-4.939,6.403-8.163,8.385-4.748,2.918-8.376,1.962-7.551-4.836,26.833,3.138,1.253-23.066,1.622-3.641-2.6-.052-3.891-1.488-4.208-3.953-.055-1.494-.107-2.988-.156-4.481,3.23-4.942,3.351-11.452,7.974-15.692.857.081,1.715.163,2.572.244-.602,1.858-.927,3.868-1.855,5.547-4.129,7.472-.344,7.75,5.557,6.259,13.086.043,4.448,7.548,4.208,12.168Z"/><path class="cls-58" d="m41.395,62.368c-4.623,4.239-4.744,10.75-7.974,15.692-20.098,4.912,6.445-38.206,8.761-17.599-.264.637-.526,1.272-.787,1.907Z"/><path class="cls-44" d="m41.395,62.368c.262-.635.523-1.27.787-1.907,3.431-4.358,2.639-12.838,11.599-11.786.08.681.16,1.362.239,2.043-.124.597-.245,1.195-.366,1.794.124,6.561-.877,12.05-9.687,10.1-.857-.081-1.715-.162-2.572-.244Z"/><path class="cls-104" d="m105.862,18.923c-5.323-4.778-10.734-.274-16.103-.151,2.013-1.963,4.026-3.926,6.038-5.89,0,0-.01-.01-.01-.01,17.458-4.26,33.766,3.525,49.881,1.924.494.396,1.314,1.219,1.437,1.126,7.37-5.573,10.796.097,14.496,4.991,2.01,1.346,4.02,2.691,6.031,4.037-.024.691-.048,1.381-.072,2.068-2.88.081-5.216-3.191-8.447-1.436.03,2.715,3.043,4.478,2.153,7.352-4.25-1.997-7.155-11.1-13.412-2.527-1.339.084-2.678.168-4.017.252-5.266-2.082-10.531-4.164-15.797-6.247.622-2.373,1.243-4.746,1.985-7.58-6.421.618-12.649-1.883-18.343,1.896-1.941.065-3.881.13-5.822.195Z"/><path class="cls-71" d="m77.73,18.665c7.273-4.971,14.406-10.279,23.906-9.924-1.949,1.378-3.899,2.755-5.848,4.132,0,0,.01.01.01.01-6.931-.894-10.945,7.27-18.068,5.782Z"/><path class="cls-26" d="m95.788,12.872c1.95-1.377,3.899-2.754,5.848-4.132,10.669-.607,21.338-1.212,32.008-1.818,2.241,5.305,8.617,4.339,12.025,7.874-16.114,1.6-32.423-6.184-49.881-1.924Z"/><path class="cls-37" d="m16.036,160.051c.701-.026,1.402-.051,2.101-.076,5.238,7.332,10.479,14.663,15.72,21.993,2.656,6.186,8.15,9.198,13.688,12.163.73,3.857,3.395,5.781,6.653,7.704,6.588,3.888,13.923,6.588,19.642,11.897-.036.739-.073,1.478-.11,2.219-9.059,1.102-13.997-6.311-20.746-9.979-3.712-2.017-6.569-5.533-11.022-6.254-6.655-8.857-13.083-17.897-20.067-26.488-3.254-4.002-5.201-8.212-5.858-13.178Z"/><path class="cls-18" d="m161.266,32.935c.891-2.875-2.122-4.638-2.152-7.353,3.231-1.756,5.567,1.517,8.447,1.436,5.093,8.614,8.189,1.457,14.574,5.949,6.099,4.292,5.593,5.407,10.254,11.154,8.072,9.952,16.66,15.566,23.138,26.427,1.468,5.584-4.337,5.47-6.478,8.218-.884.585-1.773,1.175-2.667,1.765-1.675-2.617-3.346-5.234-5.017-7.85.078-.724.156-1.447.234-2.171,3.529,1.587,7.386,1.195,7.488-2.879.17-6.77-7.293-4.295-10.857-7.021,1.122,3.297,2.245,6.594,3.367,9.892-4.27-.227-7.184-2.482-9.067-6.313-6.027,10.849-7.827,10.839-14.632.135,1.083-7.284-2.165-15.335,3.865-21.747,5.167,4.173-3.631,9.05,2.719,13.576,5.907,4.209,8.563,2.026,9.751-2.936,4.262-17.798-25.794-14.892-20.44-12.247-1.432.642-2.864,1.287-4.295,1.932-1.343-1.93-2.686-3.859-4.029-5.789-1.401-1.392-2.801-2.785-4.202-4.177Z"/><path class="cls-51" d="m206.386,80.532c.889-.59,1.779-1.179,2.663-1.764,9.722,9.55,20.608,73.33.645,61.348,0,0-.057-.07-.058-.069-1.109-8.851,11.106-12.093,7.194-21.75,1.085,2.678-9.041-3.924-9.212-3.993-.03-.657-.067-1.315-.111-1.971.143-5.157,1.152-10.345-5.805-12.889-1.053-.385-12.681-5.281-2.099-10.964.561-.696,1.121-1.391,1.682-2.087,1.701-1.953,3.401-3.907,5.102-5.86Z"/><path class="cls-35" d="m209.694,140.115c1.856,6.344,7.703,12.621-.068,19.059-2.071,1.715-3.711,2.344-5.865.565-.111-3.522-.193-7.047-.335-10.57-.382-9.535-1.364-10.027-9.824-4.986-2.897-.429-5.422.524-7.785,2.082,2.197-5.381.402-10.718-.176-16.068.619.028,1.237.057,1.856.087,6.304,19.852,7.576-9.05,10.651-11.346,1.704,5.697,4.053,10.645,9.385,13.323.438,2.665-.894,5.806,2.104,7.784l.057.07Z"/><path class="cls-4" d="m193.602,144.183c8.46-5.041,9.442-4.549,9.824,4.986.141,3.523.224,7.048.335,10.57-.309,2.212.199,4.694-2.068,6.268-3.602-.517-9.749,4.624-10.13.267-.621-7.091-5.647-15.519,2.04-22.091Z"/><path class="cls-97" d="m193.602,144.183c-7.687,6.571-2.661,15-2.04,22.091.382,4.357,6.529-.784,10.13-.267.946,7.504-3.765,11.33-9.394,14.76-3.65,2.224-7.023,4.899-10.519,7.374.001.002-.506-.595-.504-.591,1.644-8.44,14.077-7.412,15.454-16.293-4.671-2.792-9.314,4.928-13.045-1.211,3.84-7.648.727-15.915,2.133-23.78,2.362-1.558,4.886-2.511,7.783-2.083Z"/><path class="cls-73" d="m89.756,211.802c-15.117-1.198-.707-4.08-6.732-11.194-4.516-5.332-8.994-9.052-13.22,1.309-13.26-2.529-13.336-14.133-16.406-23.676,5.009,2.915,4.789,10.928,11.729,12.103.256-5.278-12.359-25.839-13.556-16.062-5.363.292-3.201,4.66-4.038,7.405-5.12,3.715-6.083-3.449-9.696-3.681-.111-.6-.154-1.206-.13-1.816,4.486-5.947.59-10.94-1.844-16.1,3.082-.329,3.953,2.684,5.988,3.936,5.503,4.036,5.884.292,5.968-3.903,6.793,3.037,16.561.103,19.99,9.892,2.056,4.574,2.404,10.843,9.955,9.968.247,6.242-1.621,9.039-7.769,3.7-1.141,16.189,28.599,11.919,36.686,15.204,5.211,2.117,11.61,13.465,18.83,12.106,9.509-1.79,3.339-14.658,12.106-19.034,3.896,3.03,1.211,5.997-.603,8.301-1.846,2.344-3.824,4.317-3.345,7.558-1.32,2.479-4.244,4.545-2.054,7.927-.705.547-1.41,1.094-2.114,1.645-9.895.141-19.791.279-29.687.416-3.631-1.539-5.305-6.335-10.06-6.004Zm21.2,2.053c2.402-.452,6.774.088,5.65-2.383-7.342-16.139-30.171-.928-5.65,2.383Z"/><path class="cls-99" d="m131.617,215.745c-2.19-3.382.735-5.448,2.054-7.927,14.632-9.932,10.101-6.016,16.017,5.895,0,0-.295.505-.296.509-5.734-4.141-10.434.343-15.489,1.848-.761-.107-1.523-.216-2.286-.325Z"/><path class="cls-99" d="m99.816,217.806c9.896-.138,19.792-.275,29.687-.416-9.812,6.09-19.764,2.249-29.687.416Z"/><path class="cls-56" d="m47.532,181.686c.837-2.744-1.324-7.112,4.04-7.405.609,1.319,1.217,2.64,1.825,3.96,3.07,9.543,3.145,21.146,16.406,23.676,1.147,3.521,4.056,5.432,6.625,7.833,4.916,4.595.017,3.739-2.589,3.982-5.719-5.309-13.054-8.009-19.642-11.897-3.257-1.923-5.923-3.847-6.651-7.706.002-.002.5-.393.5-.393,1.652.625,4.236,2.858,4.845.339,1.091-4.514,1.124-9.496-4.651-11.708l-.708-.681Z"/><path class="cls-98" d="m149.688,213.713c-5.916-11.912-1.386-15.827-16.017-5.895-.479-3.242,1.499-5.214,3.345-7.558,1.814-2.304,4.5-5.271.604-8.302-.599-.605-1.199-1.21-1.798-1.814,3.839-.615,7.173.86,9.922,3.158,2.704,2.261,5.077,2.486,7.827.499,2.524.192,3.947,1.477,4.058,4.063-.488,4.974-7.746,8.104-3.909,14.258-.95,1.525-2.451,1.658-4.031,1.591Z"/><path class="cls-3" d="m153.571,193.801c-2.75,1.987-5.123,1.763-7.827-.499-2.748-2.299-6.083-3.774-9.923-3.16-1.533-2.598-2.138-6.118-6.207-6.187-3.464-2.956-8.843-.319-12.029-4.089.644-.689,1.288-1.377,1.932-2.066,6.483-1.249,10.79-5.637,15.458-9.886,8.452-7.695,18.769-13.428,24.609-23.808-.104,3.505.232,6.925,1.961,10.076-5.664,1.726-24.152,19.936-19.333,25.241-.338-.372,29.894-8.113,33.372-9.357,2.051,2.404,4.101,2.434,6.15-.002.651-.014,1.302-.02,1.953-.019,3.731,6.14,8.373-1.581,13.045,1.211-1.377,8.881-13.81,7.853-15.454,16.293-7.183,2.321-2.535-3.627-3.723-5.464-1.312-2.029,2.655-7.376-3.956-6.088-6.089.788-16.309-3.388-11.994,9.909,0,0-.008.002-.008.002-3.079,2.222-14.187-3.664-8.025,7.892Z"/><path class="cls-73" d="m153.571,193.801c-6.162-11.557,4.946-5.67,8.025-7.892.638,1.395,1.276,2.79,1.913,4.187-4.989.314-.544,7.718-5.88,7.769-.112-2.586-1.534-3.871-4.058-4.063Z"/><path class="cls-73" d="m161.604,185.906c-4.316-13.298,5.904-9.121,11.994-9.909-3.998,3.303-7.996,6.606-11.994,9.909Z"/><path class="cls-5" d="m31.768,108.411c13.028-1.129,29.654,1.631,33.938-18.027,1.279-.699,2.557-1.399,3.838-2.097,5.838-5.566,9.42-13.695,18.212-15.9,3.329.722,6.659,1.444,9.988,2.166.097,2.61,1.532,3.856,4.076,3.971-1.924,2.463-4.934,2.66-7.229,1.888-10.247-3.445-15.638,2.959-21.034,9.641-8.068,5.318-10.531,16.056-19.74,20.268-4.026,7.715-6.174,19.263-10.004,25.821-3.506,6.002-11.714,4.536-11.883,11.926l-.253.231c-2.012-4.525-9.841-15.258-10.073-19.454-.193-3.494,4.866-13.928,6.062-18.059,7.538,4.418,3.71,14.704,10.174,20.945,4.732-10.487-2.001-16.536-6.071-23.319Z"/><path class="cls-62" d="m43.967,62.612c8.81,1.95,9.811-3.539,9.689-10.099,10.87,7.106,16.45,6.012,20.281-3.976,15.025,11.556-6.493,7.166-10.015,11.986-2.136.491-7.585.69-3.677,3.575,8.498,6.273,3.327,12.166,1.62,18.435-.545-3.364,1.291-7.23-2.117-9.992-5.344-7.797-8.615-2.339-12.079,1.878-5.902,1.491-9.686,1.212-5.557-6.259.928-1.679,1.253-3.689,1.855-5.547Z"/><path class="cls-30" d="m61.866,82.532c1.707-6.268,6.877-12.161-1.62-18.435-3.909-2.885,1.54-3.085,3.675-3.575,3.535,4.493,11.731-1.684,13.867,6.016.391,5.749-6.598,5.649-7.976,9.996-2.915,3.853-6.145,7.699-.269,11.752-1.278.699-2.557,1.399-3.836,2.098-7.626.464-2.179-5.421-3.841-7.853Z"/><path class="cls-44" d="m47.669,74.418c3.465-4.217,6.735-9.675,12.079-1.878.002,3.89.284,7.805-.055,11.665-.596,6.778-3.629,6.74-7.816,2.379.241-4.619,8.879-12.123-4.207-12.167Z"/><path class="cls-21" d="m37.785,86.494c-.369-19.425,25.211,6.779-1.622,3.641.541-1.214,1.082-2.428,1.622-3.641Z"/><path class="cls-13" d="m31.768,108.411c4.07,6.783,10.803,12.832,6.071,23.319-6.464-6.241-2.636-16.527-10.173-20.948-2.794-2.247-.423-4.222.33-6.281,0,0,.043.168.043.17,1.243,1.248,2.485,2.494,3.728,3.739Z"/><path class="cls-53" d="m37.708,176.19c-.025.61.018,1.215.13,1.816-.095,2.55-1.437,3.856-3.981,3.963-5.241-7.331-10.482-14.662-15.72-21.993-3.797-14.203-4.539-34.257-2.319-48.931.501-3.31,5.327-23.014,8.234-8.755-.221,4.588.901,9.801-.904,13.651-6.3,13.444-2.696,25.014,4.926,36.294.002,3.385-1.457,7.033,1.774,9.84,2.62,4.705,5.24,9.411,7.86,14.116Z"/><path class="cls-46" d="m28.076,152.234c-7.625-11.281-11.228-22.85-4.928-36.294,1.804-3.85.682-9.063.904-13.651,1.316.737,2.631,1.474,3.945,2.212-.753,2.06-3.124,4.035-.33,6.282-1.198,4.134-6.257,14.568-6.064,18.062.232,4.197,8.061,14.929,10.075,19.452.066,2.462-1.257,3.663-3.602,3.937Z"/><path class="cls-47" d="m77.787,66.539c-2.135-7.7-10.332-1.523-13.867-6.016,3.523-4.821,25.042-.43,10.015-11.985.058-2.588.116-5.177.175-7.765,2.217-1.341,3.607-3.205,3.733-5.869,3.389-1.61,6.349-4.755,11.38-3.497-1.538,2.194-2.595,3.702-3.651,5.21-6.999,6.195,4.347,6.36,5.55,7.097,5.177,3.173,7.244-7.938,12.74,2.781,5.63,3.132,11.344,5.534,17.739,2.032-3.764,4.067-20.096,10.196-16.302,12.08.018.705.036,1.409.054,2.114-9.344.16-17.819,6.554-27.567,3.82Zm17.333-22.249c-2.032,8.771-10.101,11.061-14.034,17.227,19.694-.423,22.9-5.491,14.034-17.227Z"/><path class="cls-78" d="m85.571,36.615c1.058-1.508,2.115-3.017,3.653-5.21-5.031-1.258-7.991,1.887-11.38,3.497-2.332-.225-4.45-.938-6.646-3.201,10.486-7.525,22.735-9.744,34.664-12.779,1.941-.064,3.882-.129,5.823-.194,6.263-.422,12.23.001,16.358,5.684,5.266,2.082,10.531,4.164,15.797,6.247-1.706.12-3.279.501-4.219,2.128-3.346-4.013-8.219,1.968-11.71-1.861-6.675-7.32-14.462-4.594-22.166-2.184-5.22,1.111-9.507,4.071-12.631,8.054-3.097,3.948-5.099,2.447-7.541-.181Z"/><path class="cls-85" d="m74.111,40.772c-.059,2.589-.118,5.178-.175,7.765-3.83,9.987-9.41,11.081-20.28,3.976.119-.599.24-1.197.364-1.794,5.079-6.564,9.746-13.95,20.091-9.947Z"/><path class="cls-70" d="m139.62,32.788c.94-1.627,2.513-2.009,4.219-2.128,1.339-.084,2.678-.168,4.017-.252,2.48,2.247,4.96,4.495,7.44,6.742-.257,6.767-5.984,4.59-9.615,5.841-.716.514-1.432,1.027-2.148,1.541-5.898-2.394-9.147-5.665-3.913-11.743Z"/><path class="cls-24" d="m155.295,37.15c-2.48-2.247-4.96-4.495-7.44-6.742,6.257-8.573,9.161.53,13.412,2.527,1.399,1.393,2.8,2.785,4.201,4.176.094,2.724.152,5.425-3.73,5.445-2.008-1.967-3.085-5.036-6.442-5.407Z"/><path class="cls-86" d="m128.042,24.412c-4.127-5.683-10.095-6.105-16.358-5.684,5.694-3.779,11.922-1.278,18.343-1.896-.742,2.834-1.364,5.207-1.985,7.58Z"/><path class="cls-56" d="m33.857,181.969c2.543-.107,3.886-1.413,3.981-3.963,3.613.233,4.576,7.396,9.696,3.681-.001-.001.707.68.705.678-.065,3.789-.129,7.58-.192,11.371,0,0-.497.392-.5.393-5.54-2.962-11.035-5.975-13.69-12.161Z"/><path class="cls-87" d="m173.793,40.972c-5.355-2.647,24.702-5.553,20.439,12.244-1.188,4.962-3.844,7.145-9.751,2.936-6.35-4.525,2.448-9.403-2.72-13.575-2.657-.535-5.312-1.07-7.968-1.606Z"/><path class="cls-2" d="m177.9,64.322c6.802,10.706,8.602,10.716,14.629-.133,1.883,3.831,4.797,6.087,9.067,6.313l.003.008c-.078.724-.156,1.447-.232,2.17-7.535-2.272-11.75-1.268-7.85,7.852.232.544.037,1.269.041,1.91-1.979,1.336-3.956,1.301-5.93-.01-.055-3.07-.386-6.143-4.51-5.866-5.916.398-7.526-3.915-9.446-8.016,1.247-1.294,2.494-2.587,3.741-3.881l.488-.347Z"/><path class="cls-8" d="m193.557,82.442c-.004-.641.192-1.366-.041-1.91-3.9-9.12.315-10.124,7.85-7.852,1.669,2.618,3.34,5.235,5.016,7.851-1.696,1.953-3.397,3.907-5.096,5.861-3.136-.226-7.136,1.222-7.729-3.95Z"/><path class="cls-31" d="m161.738,42.556c3.883-.02,3.824-2.722,3.73-5.445,1.343,1.931,2.686,3.861,4.03,5.789,6.91,2.416,4.997,8.747,6.129,13.726-1.933-.015-3.865-.031-5.798-.046-1.362-5.439-5.624-9.217-8.091-14.023Z"/><path class="cls-2" d="m175.627,56.626c-1.133-4.979.781-11.31-6.129-13.726,1.431-.643,2.862-1.288,4.294-1.93,2.656.538,5.312,1.073,7.969,1.608-6.029,6.411-2.78,14.463-3.863,21.746.003-.002-.485.345-.483.344-3.814-1.969-3.871-4.769-1.788-8.042Z"/><path class="cls-42" d="m201.596,70.502c-1.122-3.297-2.245-6.594-3.367-9.892,3.565,2.727,11.027.251,10.857,7.021-.102,4.074-3.959,4.466-7.488,2.879,0,0-.002-.009-.002-.009Z"/><path class="cls-88" d="m193.557,82.442c.594,5.172,4.594,3.724,7.729,3.95-.563.695-1.124,1.391-1.684,2.086-3.091,1.856-8.974-3.968-9.689,2.103-.875,7.43-1.556,15.309,1.062,23.201q11.99-11.74,16.532-1.451c.044.657.081,1.314.111,1.971-.428,5.984-1.742,11.964-.084,17.957-5.332-2.679-7.681-7.626-9.385-13.323-3.074,2.296-4.347,31.198-10.65,11.346.044-15.951.086-31.901.129-47.851,1.974,1.312,3.951,1.347,5.93.011Z"/><path class="cls-72" d="m207.507,112.332q-4.542-10.289-16.532,1.451c-2.618-7.892-1.937-15.771-1.062-23.201.715-6.071,6.598-.248,9.689-2.103-10.581,5.684,1.047,10.58,2.1,10.964,6.958,2.543,5.949,7.731,5.805,12.889Z"/><path class="cls-9" d="m207.533,132.26c-1.657-5.994-.344-11.973.084-17.957.172.069,10.298,6.671,9.213,3.993,3.912,9.656-8.303,12.898-7.194,21.75-2.997-1.979-1.665-5.12-2.103-7.785Z"/><path class="cls-79" d="m183.686,170.046c-.651-.001-1.302.005-1.955.019,3.325-25.992,1.428-51.901-.986-77.801-15.793-1.034-12.229,18.446-7.249,26.228-3.317,2.713-3.729,6.433-3.886,10.385-.184,4.618-1.428,8.85-6.008,11.214,1.501-8.609-3.389-13.672-9.949-17.81,2.08-4.847-2.11-11.168-7.3-11.697-5.174-.527-2.145,3.173-4.824,3.953-3.942,1.147-11.628,11.27-18.324,6.795-12.769-8.534,19.419-42.599-4.96-38.797,0,0-.921-.135-.919-.135,1.795-2.308,6.648-1.346,6.346-5.894,4.67,2.646,9.339,5.292,14.008,7.938-12.359.559-1.1,21.154-1.877,28.428,2.245-7.318,8.061-11.659,11.273-18.205,6.539,4.08,8.452,14.134,16.313,5.015,4.002-4.642,2.408-18.302-5.947-17.069-.699-.653-1.397-1.305-2.096-1.958.19-1.347.38-2.694.571-4.041,11.043-2.837,10.679,8.545,16.31,13.545,2.782-5.868,7.916-7.789,13.184-9.505.077,16.514.154,33.028.23,49.542.578,5.35,2.373,10.687.176,16.068-1.404,7.866,1.709,16.133-2.131,23.781Z"/><path class="cls-31" d="m185.641,130.196c-.077-16.514-.154-33.028-.229-49.544-1.753-2.238-11.165-.515-14.146-1.779-8.158-3.457-1.301-11.108-13.628-6.406,2.799-11.65,10.199-4.602,16.033-3.918,1.919,4.101,3.53,8.414,9.445,8.016,4.123-.277,4.454,2.797,4.51,5.866-.042,15.95-.085,31.9-.128,47.851-.62-.03-1.238-.059-1.857-.087Z"/><path class="cls-75" d="m77.766,179.983c-7.551.876-7.898-5.393-9.955-9.968,1.117-13.35-17.186-9.998-22.597-20.539,1.992-2.31,4.451-.957,6.591-1.321,2.007.722,4.014,1.444,6.02,2.164,6.568,2.198,12.626,6.146,19.942,5.783,4.422-.346-1.815,13.52,8.011,5.967,1.664.077,3.159.485,4.055,2.062-.592,6.092-4.723,12.556,1.894,17.89,2.028,2.612,4.055,5.225,6.083,7.837,4.913,4.225-5.783,5.047-8.768,4.048-7.457-2.497-5.154-11.666-11.277-13.923Z"/><path class="cls-19" d="m77.766,179.983c6.123,2.256,3.82,11.426,11.277,13.923,2.985.999,13.681.178,8.767-4.047-.023-1.291-.045-2.583-.067-3.875,6.232-.344,12.913-4.672,18.352,2.046.538,4.118-11.135,7.971,2.903,13.095,12.239,4.468,13.109-7.665,10.615-17.169,4.069.069,4.674,3.589,6.207,6.187.601.606,1.201,1.211,1.8,1.816-8.767,4.376-2.598,17.244-12.107,19.034-7.22,1.359-13.619-9.989-18.83-12.106-8.087-3.285-37.827.985-36.686-15.204,6.147,5.339,8.016,2.543,7.769-3.7Z"/><path class="cls-36" d="m51.806,148.155c-2.14.364-4.599-.989-6.591,1.321,5.411,10.541,23.713,7.188,22.597,20.539-3.429-9.789-13.197-6.855-19.99-9.893-2.756-3.34-3.331-9.426-9.976-7.865-1.388-1.327-2.777-2.654-4.165-3.982,5.987-8.218,12.057-4.133,18.126-.121Z"/><path class="cls-65" d="m53.398,178.241c-.608-1.32-1.216-2.641-1.825-3.96,1.196-9.776,13.811,10.786,13.555,16.063-6.94-1.175-6.72-9.188-11.729-12.103Z"/><path class="cls-10" d="m110.956,213.855c-24.52-3.312-1.691-18.523,5.65-2.383,1.124,2.471-3.248,1.931-5.65,2.383Z"/><path class="cls-12" d="m37.708,176.19c-2.62-4.705-5.24-9.411-7.86-14.116.508-2.11-1.303-5.353,1.232-6.176,2.426-.788,3.593,2.255,4.785,4.192,2.433,5.16,6.33,10.154,1.844,16.1Z"/><path class="cls-5" d="m35.864,160.09c-1.192-1.937-2.359-4.98-4.785-4.192-2.535.823-.724,4.066-1.232,6.176-3.231-2.807-1.771-6.455-1.774-9.84,2.347-.273,3.671-1.475,3.604-3.936-.002.002.251-.229.25-.228.582.078,1.166.146,1.751.207,1.388,1.327,2.777,2.654,4.165,3.98,2.865,3.405,7.238,6.301,4.007,11.769-2.036-1.252-2.907-4.264-5.988-3.936Z"/><path class="cls-12" d="m41.853,164.025c3.23-5.468-1.142-8.364-4.007-11.769,6.645-1.56,7.22,4.526,9.976,7.866-.085,4.195-.466,7.939-5.968,3.903Z"/><path class="cls-102" d="m48.046,193.736c.063-3.791.127-7.582.192-11.371,5.777,2.214,5.744,7.196,4.653,11.71-.609,2.519-3.193.286-4.845-.339Z"/><path class="cls-77" d="m173.496,118.493c-4.98-7.784-8.543-27.264,7.25-26.23,2.414,25.9,4.311,51.809.986,77.801-2.048,2.436-4.098,2.406-6.148.002-2.406-4.858-7.086-8.431-8.028-14.115,8.675-11.431,7.417-24.427,5.941-37.458Z"/><path class="cls-75" d="m153.654,122.281c6.56,4.137,11.45,9.2,9.949,17.81-1.34,1.339-2.681,2.677-4.021,4.015-5.839,10.38-16.156,16.113-24.608,23.808-4.667,4.25-8.974,8.638-15.456,9.888-2.147-10.217-8.679-4.043-13.672-3.631,2.306-6.703,11.932-1.243,11.543-8.953-.308-6.113-7.617,2.883-10.335-.34-1.182-1.402,2.315-7.588,2.638-8.744,11.317,1.791,10.926,10.322,22.809,7.795,1.619-.344,11.924-7.045,12.964-8.352,5.264-6.617,12.513-25.834,8.189-33.295Z"/><path class="cls-91" d="m167.555,155.951c.942,5.684,5.622,9.257,8.028,14.115-3.479,1.244-33.711,8.985-33.373,9.357-4.82-5.305,13.668-23.515,19.334-25.242,1.521,2.218,3.804,1.865,6.011,1.77Z"/><path class="cls-75" d="m129.614,183.956c2.494,9.505,1.624,21.637-10.615,17.169-14.038-5.125-2.365-8.977-2.903-13.095-5.439-6.718-12.12-2.39-18.352-2.046,2.656-3.332,5.311-6.664,7.967-9.996,1.012,10.25,6.941,5.549,11.874,3.879,3.186,3.77,8.565,1.133,12.029,4.089Z"/><path class="cls-76" d="m167.555,155.951c-2.207.095-4.49.448-6.011-1.77-1.729-3.15-2.066-6.57-1.962-10.075,1.34-1.338,2.68-2.676,4.021-4.015,4.579-2.364,5.824-6.596,6.007-11.214.157-3.952.569-7.672,3.886-10.385,1.475,13.032,2.733,26.028-5.942,37.46Z"/><path class="cls-23" d="m117.585,179.866c-4.933,1.671-10.862,6.372-11.874-3.879.065-.604.11-1.209.136-1.815,4.992-.414,11.524-6.588,13.671,3.629-.646.687-1.29,1.376-1.934,2.064Z"/><path class="cls-103" d="m33.68,148.276c-.585-.06-1.169-.129-1.751-.207.17-7.391,8.378-5.925,11.884-11.927,3.831-6.558,5.979-18.106,10.004-25.821.03.7.06,1.4.089,2.098-.278,6.99,2.732,10.741,10.091,9.829,5.442-.674,10.42,1.65,15.68,2.064-11.639,22.694-13.733,2.153-26.754,1.571-18.024-.805,10.57,18.184,4.902,24.437-2.007-.722-4.013-1.444-6.02-2.166-6.069-4.012-12.139-8.098-18.126.121Z"/><path class="cls-84" d="m73.556,90.05c5.397-6.678,10.789-13.083,21.035-9.638,2.295.772,5.305.575,7.228-1.888,5.185-1.5,12.965-13.506,13.692,3.344.009.203,1.183.356,1.813.532,0,0,.921.135.918.135-5.848,4.122-11.856-.641-18.095.306-9.275,1.408-17.008,6.705-26.084,7.981l-.508-.773Z"/><path class="cls-94" d="m77.787,66.539c9.748,2.734,18.223-3.66,27.567-3.82.747.712,1.495,1.424,2.242,2.136-.576,5.964-4.118,8.937-9.852,9.698-3.329-.722-6.659-1.444-9.988-2.164-7.674-5.893-11.419,5.108-17.946,4.146,1.378-4.347,8.367-4.247,7.976-9.996Z"/><path class="cls-47" d="m97.745,74.553c5.734-.761,9.275-3.734,9.852-9.698,7.093,1.506,10.5,8.064,16.075,11.651.303,4.548-4.551,3.586-6.345,5.894-.632-.177-1.806-.33-1.815-.532-.726-16.85-8.507-4.843-13.692-3.344-2.543-.115-3.978-1.361-4.075-3.97Z"/><path class="cls-48" d="m69.811,76.535c6.527.963,10.272-10.039,17.946-4.146-8.792,2.203-12.374,10.333-18.212,15.899-5.879-4.054-2.649-7.9.266-11.753Z"/><path class="cls-66" d="m53.907,112.421c-.03-.7-.06-1.4-.09-2.099,9.209-4.212,11.672-14.951,19.74-20.268-.001-.003.507.77.505.767-.101.527-.194,1.058-.281,1.59-5.642,7.639-8.805,17.724-19.874,20.011Z"/><path class="cls-32" d="m105.3,60.606c-3.793-1.884,12.538-8.013,16.303-12.08.648-.653,1.297-1.307,1.945-1.96,17.331,2.28,1.109,7.755,3.618,17.541,2.572,10.03,18.587,7.479,21.017,16.505l-.445-.101c-8.637-3.942-18.335-5.765-24.586-14.191-4.304-5.801-11.031-6.477-17.852-5.713Z"/><path class="cls-28" d="m105.3,60.606c6.821-.764,13.548-.088,17.852,5.713,6.251,8.426,15.949,10.249,24.586,14.191-.708,1.302-1.416,2.605-2.124,3.908-.651.062-1.293.173-1.926.334-2.003-.102-4.005-.205-6.007-.307-4.669-2.646-9.339-5.292-14.008-7.938-5.575-3.586-8.982-10.145-16.075-11.651-.747-.712-1.495-1.424-2.242-2.136-.018-.704-.036-1.409-.054-2.114Z"/><path class="cls-64" d="m123.547,46.565c-.648.654-1.296,1.307-1.945,1.96-6.395,3.502-12.109,1.1-17.74-2.031-1.543-5.27,3.663-5.359,5.946-7.694,2.608-.726,5.218-1.451,7.827-2.175,4.826.705,5.411,4.577,6.225,8.278-.11.552-.214,1.106-.312,1.661Z"/><path class="cls-55" d="m109.809,38.802c-2.283,2.334-7.49,2.423-5.947,7.693-5.495-10.72-7.562.391-12.739-2.782-1.202-.737-12.549-.903-5.55-7.097,2.441,2.628,4.442,4.129,7.54.181,3.124-3.983,7.411-6.943,12.631-8.054,1.373.042,2.746.084,4.119.126-1.891,2.448-6.466,2.969-5.705,7.255.552,3.109,3.496,2.318,5.65,2.678Z"/><path class="cls-55" d="m95.12,44.29c8.866,11.736,5.66,16.804-14.034,17.227,3.933-6.166,12.002-8.456,14.034-17.227Z"/><path class="cls-61" d="m109.863,28.869c-1.373-.042-2.746-.084-4.119-.126,7.704-2.41,15.491-5.137,22.166,2.184,3.491,3.828,8.364-2.152,11.71,1.861-5.235,6.079-1.986,9.35,3.913,11.745-10.035,8.272-13.933-22.315-17.993-.015-.558.139-1.118.268-1.681.387-.814-3.702-1.4-7.574-6.225-8.278,2.638-6.951,6.417-8.163-7.772-7.757Z"/><path class="cls-95" d="m161.738,42.556c2.467,4.806,6.729,8.584,8.089,14.023-2.839,2.622-6.512,3.083-10.063,3.864-2.414-7.087-4.373-14.582-13.857-15.317-.076-.712-.151-1.424-.227-2.137,3.631-1.251,9.359.927,9.615-5.841,3.357.371,4.434,3.44,6.442,5.407Z"/><path class="cls-96" d="m145.68,42.99c.076.712.151,1.424.225,2.132-3.293,9.495-8.065,3.381-11.821.735-2.903-2.044-4.935-5.353-8.544-1.342,4.061-22.299,7.959,8.288,17.994.016.715-.515,1.431-1.028,2.147-1.542Z"/><path class="cls-82" d="m159.765,60.442c3.549-.779,7.222-1.24,10.061-3.862,1.935.015,3.868.03,5.8.046-2.084,3.273-2.026,6.073,1.788,8.042-1.25,1.295-2.497,2.588-3.743,3.882-5.833-.684-13.233-7.732-16.032,3.919-1.553.978-1.932,2.441-1.723,4.146-.19,1.347-.38,2.694-.568,4.04-.559-.087-1.124-.146-1.692-.178,1.295-8.909,2.117-17.583-9.905-19.913,2.45-1.362,4.675-1.985,7.257.18,2.778,2.329,5.949,2.931,8.757-.3Z"/><path class="cls-16" d="m73.781,92.409c.087-.532.18-1.063.281-1.59,9.077-1.274,16.811-6.571,26.086-7.979,6.239-.947,12.247,3.816,18.095-.306,24.382-3.802-7.806,30.264,4.963,38.797,6.696,4.475,14.382-5.648,18.324-6.795,2.679-.78-.35-4.48,4.824-3.953,5.19.529,9.38,6.85,7.3,11.697,4.325,7.461-2.925,26.678-8.189,33.295-1.04,1.307-11.345,8.008-12.964,8.352-11.882,2.526-11.491-6.004-22.808-7.796-1.99-.693-5.531.145-3.999-4.025,5.136,1.26,33.435.619,37.602-2.742,1.271-1.025,4.745-20.631,5.247-23.99-9.911,5.018-14.903-.019-21.827,5.998-1.196,1.039.213,6.268-1.68,8.649-3.316,4.172-14.291,7.637-19.085,10.217-4.083-11.491-10.847-18.98-25.858-15.284,9.21-3.987,8.17-7.271,1.72-10.724-.041-.638-.074-1.277-.097-1.916,11.085.262,16.869,5.161,24.082,10.264,4.169,2.95-.695,10.45,8.627,7.32,8.694-2.919.501-18.247.194-22.545-.746-10.448.718-36.642-18.753-24.657-4.992,3.072-3.783,9.775-7.297,13.205-6.285,6.133-14.367-1.284-12.774,12.362-3.029-8.436-2.95-17.112-2.015-25.855Z"/><path class="cls-15" d="m137.68,84.444c2.003.102,4.005.205,6.008.305-8.619,11.097-4.179,4.335,4.064,7.333,3.555,1.293,6.084,7.628,10.016,5.204,4.038-2.489,4.853-9.364,1.495-12.658-.607-.672-1.214-1.344-1.821-2.017,8.355-1.233,9.949,12.427,5.947,17.069-7.861,9.119-9.775-.935-16.313-5.015-3.211,6.545-9.028,10.887-11.273,18.205.777-7.274-10.481-27.869,1.877-28.428Z"/><path class="cls-6" d="m155.916,76.614c-.209-1.705.17-3.168,1.723-4.146,12.327-4.703,5.47,2.948,13.628,6.405,2.981,1.263,12.392-.459,14.146,1.779-5.27,1.717-10.404,3.639-13.186,9.507-5.631-5-5.267-16.382-16.31-13.545Z"/><path class="cls-39" d="m157.442,82.613c.607.672,1.214,1.344,1.825,2.016-4.601,3.319-9.227,7.952-13.653-.212.708-1.303,1.416-2.605,2.124-3.908,0,0,.445.101.441.101.62-.647,1.243-1.294,1.867-1.941,1.204.602,2.407,1.204,3.611,1.806.568.032,1.132.091,1.692.178.696.654,1.395,1.307,2.094,1.959Z"/><path class="cls-106" d="m105.694,152.108c-1.532,4.17,2.009,3.332,3.999,4.025-.324,1.157-3.82,7.343-2.639,8.745,2.717,3.223,10.026-5.773,10.335.34.389,7.711-9.237,2.251-11.543,8.953-.025.608-.07,1.213-.135,1.817-2.656,3.332-5.312,6.663-7.967,9.996.022,1.292.044,2.584.067,3.875-2.027-2.613-4.055-5.225-6.082-7.838,9.869.632,4.521-15.838,9.175-21.288-5.156-.725-7.875,2.002-11.069,3.398-.896-1.577-2.391-1.986-4.055-2.062,4.62-7.25-12.068-25.26-8.011-5.967-7.317.363-13.375-3.584-19.942-5.783,5.668-6.251-22.926-25.24-4.902-24.435,13.021.582,15.115,21.122,26.755-1.572.712-.027,1.423-.054,2.135-.08,6.449,3.453,7.49,6.737-1.72,10.724,15.011-3.695,21.775,3.793,25.856,15.283-.165.612-.25,1.235-.256,1.868Z"/><path class="cls-67" d="m89.834,164.131c3.194-1.397,5.913-4.124,11.069-3.398-4.654,5.45.694,21.92-9.175,21.288-6.618-5.333-2.486-11.798-1.894-17.89Z"/><path class="cls-52" d="m77.768,156.101c-4.057-19.293,12.631-1.283,8.011,5.967-9.826,7.553-3.589-6.313-8.011-5.967Z"/><path class="cls-25" d="m81.814,124.232c-.711.026-1.422.053-2.135.08-5.261-.413-10.24-2.738-15.681-2.063-7.359.912-10.369-2.839-10.091-9.829,11.07-2.286,14.232-12.371,19.874-20.01-.935,8.742-1.013,17.419,2.015,25.855,1.973,1.35,3.947,2.701,5.92,4.051.023.639.056,1.278.097,1.916Z"/><path class="cls-31" d="m150.045,78.669c-.623.647-1.247,1.294-1.867,1.941-2.426-9.025-18.441-6.474-21.013-16.504-2.51-9.786,13.712-15.261-3.618-17.541.098-.555.202-1.109.312-1.661.563-.119,1.124-.248,1.681-.387,3.608-4.013,5.64-.703,8.543,1.341,3.757,2.645,8.528,8.759,11.821-.735,9.486.739,11.445,8.234,13.859,15.321-2.806,3.23-5.977,2.628-8.756.299-2.582-2.164-4.807-1.542-7.257-.18-4.075-4.601-9.844-6.556-7.397,1.093,2.253,7.043,13.723,8.455,13.691,17.014Z"/><path class="cls-82" d="m145.614,84.417c4.426,8.164,9.052,3.531,13.653.212,3.354,3.294,2.539,10.17-1.499,12.659-3.932,2.423-6.461-3.911-10.016-5.204-8.243-2.998-12.683,3.763-4.064-7.333.633-.159,1.275-.271,1.925-.333Z"/><path class="cls-105" d="m109.863,28.869c14.189-.405,10.41.806,7.772,7.757-2.61.724-5.219,1.449-7.827,2.175-2.153-.359-5.097.431-5.649-2.677-.762-4.285,3.813-4.807,5.705-7.255Z"/><path class="cls-43" d="m150.045,78.669c.032-8.559-11.438-9.971-13.691-17.014-2.447-7.649,3.322-5.693,7.397-1.093,12.023,2.33,11.201,11.004,9.905,19.913-1.203-.602-2.407-1.204-3.611-1.806Z"/><path class="cls-41" d="m81.717,122.315c-1.974-1.35-3.947-2.701-5.92-4.051-1.593-13.646,6.489-6.228,12.774-12.362,3.515-3.43,2.306-10.133,7.297-13.205,19.471-11.984,18.008,14.21,18.753,24.657.307,4.298,8.5,19.626-.194,22.545-9.322,3.13-4.458-4.371-8.627-7.32-7.214-5.103-12.998-10.002-24.082-10.264Z"/><path class="cls-100" d="m105.694,152.108c.006-.634.091-1.257.256-1.868,4.796-2.579,15.771-6.044,19.087-10.216,1.893-2.382.484-7.61,1.68-8.649,6.924-6.017,11.917-.98,21.827-5.998-.502,3.359-3.977,22.964-5.247,23.99-4.167,3.361-32.466,4.002-37.602,2.742Z"/></svg>