<?xml version="1.0" encoding="UTF-8"?><svg id="Layer_1" xmlns="http://www.w3.org/2000/svg" viewBox="0 0 207.005 273.762"><defs><style>.cls-1{fill:#ea9c47;}.cls-2{fill:#f79f3f;}.cls-3{fill:#f27531;}.cls-4{fill:#d94926;}.cls-5{fill:#b84129;}.cls-6{fill:#952d21;}.cls-7{fill:#bc3d28;}.cls-8{fill:#fac43f;}.cls-9{fill:#fbdb53;}.cls-10{fill:#f8c551;}.cls-11{fill:#f1b241;}.cls-12{fill:#f3b437;}.cls-13{fill:#eeb136;}.cls-14{fill:#f4b944;}.cls-15{fill:#f0872d;}.cls-16{fill:#bd2826;}.cls-17{fill:#e55825;}.cls-18{fill:#fac74c;}.cls-19{fill:#da5226;}.cls-20{fill:#ca6328;}.cls-21{fill:#d03927;}.cls-22{fill:#f1892a;}.cls-23{fill:#ef8025;}.cls-24{fill:#b74626;}.cls-25{fill:#f0a537;}.cls-26{fill:#e38225;}.cls-27{fill:#f9cc4c;}.cls-28{fill:#e78026;}.cls-29{fill:#f5953d;}.cls-30{fill:#ed6937;}.cls-31{fill:#e38325;}.cls-32{fill:#facf54;}.cls-33{fill:#bf5c28;}.cls-34{fill:#f28032;}.cls-35{fill:#e47e2a;}.cls-36{fill:#e7a92b;}.cls-37{fill:#d43e26;}.cls-38{fill:#d74026;}.cls-39{fill:#e56125;}.cls-40{fill:#cd3627;}.cls-41{fill:#df5126;}.cls-42{fill:#d89329;}.cls-43{fill:#d5772d;}.cls-44{fill:#cc6728;}.cls-45{fill:#da3d27;}.cls-46{fill:#f0ae37;}.cls-47{fill:#f9c14e;}.cls-48{fill:#ec9f49;}.cls-49{fill:#fcd651;}.cls-50{fill:#ea6b25;}.cls-51{fill:#96331f;}.cls-52{fill:#e65a25;}.cls-53{fill:#f9c864;}.cls-54{fill:#be2526;}.cls-55{fill:#fde76c;}.cls-56{fill:#741a13;}.cls-57{fill:#c95c27;}.cls-58{fill:#c53427;}.cls-59{fill:#c84e28;}.cls-60{fill:#e9902c;}.cls-61{fill:#e58426;}.cls-62{fill:#e36426;}.cls-63{fill:#f9a23f;}.cls-64{fill:#fdd34b;}.cls-65{fill:#e18629;}.cls-66{fill:#ec8f2c;}.cls-67{fill:#d55627;}.cls-68{fill:#df4726;}.cls-69{fill:#962c1f;}.cls-70{fill:#f4a035;}.cls-71{fill:#ed7d29;}.cls-72{fill:#b03e25;}.cls-73{fill:#e35025;}.cls-74{fill:#f7bb44;}.cls-75{fill:#f08531;}.cls-76{fill:#d36528;}.cls-77{fill:#eda541;}.cls-78{fill:#fce151;}.cls-79{fill:#fde865;}</style></defs><path class="cls-69" d="m96.996,40.878c5.879-1.904,9.561-1.662,15.638-1.48-8.575,25.067,4.159,27.648,24.667,31.616-.6.619-1.199,1.239-1.798,1.856-1.635.019-3.271.039-4.906.06-21.744,13.289-23.318-18.365-23.318-31.528-12.243,2.629-14.796,5.774-11.992,14.6.617,8.572-3.128,14.866-8.973,20.063-.945-.185-1.889-.371-2.834-.556v-27.93c.073,7.544.369,10.364,4.714,16.429,4.21-7.155,2.391-17.497,8.802-23.13Z"/><path class="cls-6" d="m85.247,25.788V0c3.918.718,8.655,1.586,13.392,2.454,9.618,14.005,5.725,14.303-1.736,26.65-3.32,3.928-6.639,7.857-9.958,11.786-.529.027-1.057.053-1.586.079,2.54-5.059,5.082-10.117,7.623-15.176l-1.79-.909c-1.971,1.433-3.942,2.867-5.913,4.3-.01-1.132-.02-2.265-.03-3.397Zm12.812-6.666c5.725-6.841,2.357-10.104-1.852-12.565-1.071-.626-3.324.767-5.034,1.232,2.295,3.777,4.59,7.555,6.886,11.332Z"/><path class="cls-51" d="m138.837,71.122c3.265,2.525,6.606,5.304,9.973,8.362,9.929,9.02,17.663,18.271,23.65,26.7,1.666,2.822,3.332,5.644,4.999,8.466-2.662-.787-5.45-1.846-8.283-3.265-16.012-8.022-23.725-22.687-26.954-30.215-2.24-2.766-4.479-5.532-6.719-8.298.599-.619,1.198-1.238,1.798-1.858.512.036,1.024.072,1.536.107Z"/><path class="cls-56" d="m85.359,40.97c.528-.026,1.057-.053,1.586-.08-.649,5.107-1.297,10.214-1.946,15.32.898.263,1.795.527,2.693.79,2.181-6.785,4.716-10.606,9.305-16.122-6.411,5.633-4.593,15.975-8.802,23.13-4.345-6.065-4.641-8.885-4.713-16.43.627-2.203,1.253-4.406,1.879-6.609Z"/><path class="cls-33" d="m122.151,273.762c-17.755-.553-35.522-.886-53.253-1.871-3.01-.167-5.864-3.129-8.79-4.8.594-.026,1.188-.053,1.781-.078,7.764.039,15.53.078,23.295.116.563.561,1.125,1.122,1.688,1.683,9.402,4.849,36.182,8.758,40.404-4.794,3.353-1.738,6.705-3.476,10.058-5.214.574-.506,1.148-1.012,1.722-1.518,12.372-.537,21.785-6.834,30.029-15.406,1.991-2.766,4.052-5.485,5.959-8.309,3.91-5.79,3.195-14.984,12.448-16.833-2.819,5.599-5.638,11.198-8.456,16.797-14.05,20.343-34.032,32.311-56.885,40.226Z"/><path class="cls-76" d="m189.228,215.125c-.48.041-.957.101-1.433.179-.128-5.1-.255-10.199-.382-15.299,1.084-4.991,2.166-9.982,3.249-14.973-1.46-11.466-2.867-22.938-4.442-34.388-.208-1.514-1.266-2.912-1.93-4.364-.031-.466-.107-.925-.227-1.377-1.913-15.431-15.366-24.127-21.637-37.014-2.035-2.857-4.009-5.761-6.121-8.561-2.933-3.886-5.97-7.694-8.962-11.536,7.251,7.821,14.501,15.642,21.752,23.463,5.56,8.841,13.166,15.889,17.34,25.729,4.905,11.564,3.125,22.833,6.154,34.568,3.192,6.344,4.822,12.946,3.308,20.065-2.223,7.836-4.446,15.671-6.669,23.507Z"/><path class="cls-24" d="m192.588,171.554c-3.029-11.735-1.249-23.004-6.154-34.568-4.174-9.84-11.779-16.888-17.34-25.729.006-1.133.013-2.266.019-3.399,2.782,2.264,5.563,4.529,8.345,6.793,10.768,12.223,14.974,26.991,17.122,42.725.439,3.213,3.056,6.129,4.669,9.182.299,1.029.264,2.541.947,3.013,8.756,6.043,7.854,13.75,4.033,22.031-3.15,1.715-15.19,23.415-15.003,23.524,2.223-7.836,4.446-15.671,6.669-23.506,7.192-10.134,6.103-16.739-3.308-20.065Z"/><path class="cls-1" d="m187.412,200.005c.127,5.099.254,10.199.383,15.299-.172.464-.274.942-.303,1.435-9.253,1.849-8.539,11.042-12.449,16.832-1.906,2.823-3.968,5.542-5.959,8.309,0-.551-.005-1.103-.011-1.654,1.619-3.9,3.238-7.8,4.857-11.7,4.494-9.507,8.988-19.014,13.482-28.521Z"/><path class="cls-72" d="m3.089,153.124c3.153-12.662,8.757-17.535,14.56-27.909,5.042-9.014,3.874-18.524,3.874-28.613,15.523,10.912,38.143-26.111,46.983-35.572-.005,1.096-.01,2.192-.016,3.289-8.981,15.211-21.926,25.092-30.141,41.39-16.705-2.681-12.938,8.352-15.175,22.025-13.349,7.318-16.775,20.044-18.42,33.74-.542.034-1.085.071-1.627.111-.013-2.82-.026-5.64-.038-8.46Z"/><path class="cls-20" d="m61.89,267.012c-.594.026-1.188.052-1.782.079-17.309-9.246-31.553-22.092-43.256-37.68-2.663-3.547-3.716-8.3-5.509-12.499.001,0,.353-.252.35-.251,1.096,1.149,2.194,2.297,3.292,3.445.484.587.968,1.174,1.452,1.761,7.179,19.083,28.31,28.157,43.745,40.044.569,1.7,1.138,3.401,1.707,5.101Z"/><path class="cls-20" d="m3.127,161.584c.542-.04,1.084-.077,1.627-.11,1.116,7.837,2.232,15.674,3.348,23.51,1.198,10.559,2.396,21.117,3.594,31.676,0,0-.351.251-.353.252-1.684-6.751-3.366-13.503-5.047-20.254-1.081-7.233-2.163-14.466-3.246-21.7.026-4.458.051-8.916.077-13.374Z"/><path class="cls-72" d="m3.05,174.958c1.082,7.234,2.165,14.467,3.246,21.7-7.285-8.819-8.084-14.167-3.246-21.7Z"/><path class="cls-5" d="m68.49,64.318c.005-1.096.01-2.193.016-3.289,5.591-10.615,11.181-21.23,16.772-31.845,1.971-1.433,3.942-2.867,5.913-4.3l1.79.909c-2.541,5.058-5.082,10.117-7.623,15.176-.625,2.204-1.251,4.406-1.878,6.61,0,9.31,0,18.62,0,27.93.945.185,1.889.371,2.834.556,5.845-5.197,9.59-11.491,8.974-20.063,0,0,.833-.003.833-.003,0,0,.833.002.833.001,2.374,11.637-3.125,21.253-13.371,23.382-1.686-10.144-3.372-20.289-5.227-31.45-3.579,5.945-6.722,11.165-9.865,16.385Z"/><path class="cls-59" d="m96.952,56.001l-.833-.002s-.833.002-.833.003c-2.804-8.825-.252-11.97,11.992-14.599,0,13.163,1.575,44.816,23.318,31.526-1.818,2.27-3.221,5.164-5.531,6.693-6.467,4.28-8.596-3.61-13.044-5.201-4.073-7.802-8.147-15.603-13.036-24.965-1.01,3.253-1.522,4.899-2.033,6.545Z"/><path class="cls-19" d="m112.021,74.421c4.449,1.591,6.578,9.48,13.045,5.2,2.31-1.528,3.713-4.423,5.531-6.693,1.636-.019,3.272-.039,4.907-.058,2.239,2.767,4.479,5.533,6.719,8.298,1.152,1.637,2.303,3.275,3.455,4.913-4.836-1.465-9.016-2.575-14.677-.468-9.27,3.449-16.686-1.868-18.98-11.193Z"/><path class="cls-7" d="m98.06,19.122c-2.295-3.777-4.59-7.555-6.886-11.332,1.71-.465,3.963-1.858,5.034-1.232,4.208,2.461,7.577,5.724,1.852,12.565Z"/><text/><path class="cls-9" d="m139.056,257.286c-.574.506-1.148,1.012-1.723,1.519-19.224.35-35.775,6.382-55.524,5.045,0,0,.045-.005.045-.005-5.452-4.687-7.661-7.393-13.448-9.248-9.609-3.08-14.023-.78-23.473-7.578-4.358-5.092-8.716-10.183-13.075-15.275,1.254.44,2.489,1.137,3.768,1.231.88.064,1.822-.707,2.736-1.105.573-.016,1.146-.033,1.719-.049,4.989,3.018,9.977,6.037,16.431,9.942,4.093,11.833,11.869,3.721,20.379,5.051,13.689,2.14,18.803,13.333,33.461,1.922,8.767,6.513,10.391,6.517,23.678.828.625-2.861,1.166-5.332,1.705-7.803,1.574.001,3.148.001,4.723.001,1.152-.521,2.304-1.042,3.457-1.562,1.699-1.13,3.398-2.259,5.097-3.389,2.41-1.565,5.232-2.745,7.141-4.78,3.474-3.703,6.407-7.913,9.566-11.911.551.009,1.103.013,1.655.014-2.001,2.982-3.872,6.062-6.033,8.924-3.368,4.462-1.85,7.345,2.692,9.464-2.769,2.265-5.537,4.53-8.306,6.795-5.557,3.99-11.114,7.98-16.671,11.97Z"/><path class="cls-10" d="m81.809,263.849c19.749,1.338,36.3-4.694,55.524-5.045-3.352,1.738-6.704,3.476-10.057,5.213-3.067,1.046-6.279,1.794-9.175,3.193-10.227,4.944-20.668,4.067-31.229,1.601-.563-.561-1.125-1.122-1.688-1.684-1.125-1.093-2.25-2.186-3.376-3.279Z"/><path class="cls-48" d="m139.056,257.286c5.557-3.99,11.114-7.98,16.671-11.97,4.448-1.697,8.897-3.393,13.346-5.089.007.551.011,1.103.011,1.654-8.243,8.572-17.656,14.868-30.029,15.405Z"/><path class="cls-43" d="m86.872,268.812c10.561,2.466,21.002,3.342,31.229-1.601,2.896-1.4,6.108-2.148,9.175-3.193-4.222,13.553-31.002,9.644-40.404,4.795Z"/><path class="cls-35" d="m81.809,263.849c1.125,1.093,2.251,2.186,3.376,3.279-7.766-.038-15.531-.077-23.296-.116-.568-1.701-1.137-3.401-1.707-5.1,5.001.599,10.003,1.196,15.005,1.793,2.222.046,4.444.093,6.666.139l-.045.005Z"/><path class="cls-50" d="m145.677,86.082c.555.57,1.11,1.141,1.666,1.711,2.993,3.841,6.03,7.649,8.962,11.536,2.112,2.799,4.086,5.703,6.121,8.561-9.308-5.307-19.454-13.054-29.376-16.837-8.514-3.245-17.088-1.578-25.879-2.95-10.89-1.7-20.453-6.424-31.676-3.561-10.456,2.668-18.69,11.876-27.158,18.176.934-7.558,9.072-9.659,13.579-15.762,6.035-8.171,8.018-17.812,14.106-26.118,3.176,6.334,3.77,12.436,7.56,18.544,10.246-2.129,15.745-11.745,13.371-23.382.511-1.646,1.022-3.292,2.032-6.545,4.889,9.362,8.963,17.163,13.036,24.965,2.293,9.325,9.709,14.642,18.979,11.193,5.661-2.106,9.841-.997,14.677.468Z"/><path class="cls-61" d="m48.337,102.719c8.468-6.301,16.702-15.509,27.158-18.176,11.223-2.863,20.785,1.861,31.676,3.561,8.79,1.372,17.365-.295,25.879,2.95,9.923,3.782,20.069,11.53,29.376,16.837,6.272,12.887,19.725,21.583,21.638,37.013-1.072-.605-2.144-1.211-3.216-1.816-3.88-5.082-7.76-10.164-11.64-15.244-3.942-10.302-11.592-16.558-21.843-19.973-2.801-2.232-5.603-4.464-8.404-6.697-14.376-6.099-43.842-17.437-59.256-12.602-6.436,2.019-7.407,6.041-13.314,9.559-5.99,3.567-13.391,3.718-19.759,6.332.569-.582,1.138-1.163,1.706-1.745Z"/><path class="cls-32" d="m167.374,220.132c-.552,0-1.103-.005-1.654-.013,4.155-10.851,2.23-21.41-1.531-31.882-.112-.503-.167-1.012-.166-1.527,1.273-9.942,7.711-19.138,4.346-29.808-.129-.41,1.534-1.385,2.363-2.097,1.131,2.242,2.263,4.485,3.394,6.727-.017,2.789-.035,5.577-.052,8.366-6.901,16.939-6.115,16.59,7.771,27.646,1.566-5.528,2.786-9.837,4.007-14.146,1.604.545,3.207,1.089,4.811,1.634-1.083,4.991-2.166,9.982-3.249,14.973-4.495,9.507-8.989,19.014-13.481,28.521-1.045,0-2.092,0-3.14.001,3.685-6.408,5.808-9.149,4.718-16.333-6.979,2.936-6.072,2.281-8.135,7.938Z"/><path class="cls-14" d="m190.662,185.032c-1.604-.545-3.207-1.089-4.811-1.635-2.616-2.505-5.376-4.88-7.797-7.56-1.581-1.75-2.671-3.944-3.981-5.939.017-2.789.034-5.577.052-8.366,4.804-4.142,11.57-6.979,10.165-15.253.664,1.452,1.722,2.849,1.93,4.364,1.574,11.45,2.982,22.923,4.442,34.388Z"/><path class="cls-49" d="m184.29,146.28c1.405,8.274-5.361,11.11-10.165,15.253-1.131-2.242-2.263-4.485-3.393-6.727,1.08-4.118,1.869-8.359,3.522-12.232.276-.648,4.301.302,6.594.514,1.072.605,2.145,1.21,3.216,1.816.119.452.195.911.226,1.377Z"/><path class="cls-57" d="m192.588,171.554c9.411,3.326,10.5,9.931,3.308,20.065,1.513-7.12-.116-13.721-3.308-20.065Z"/><path class="cls-53" d="m170.792,228.527c1.047,0,2.095,0,3.14-.001-1.621,3.9-3.24,7.8-4.859,11.7-4.449,1.696-8.898,3.392-13.347,5.089,2.769-2.265,5.538-4.53,8.307-6.794,2.253-3.331,4.506-6.662,6.758-9.994Z"/><path class="cls-67" d="m48.337,102.719c-.569.582-1.138,1.163-1.706,1.746-2.773,2.237-5.546,4.474-8.319,6.71-3.65,2.437-7.829,4.372-10.775,7.475-2.223,2.341-2.869,6.178-4.217,9.35l-.146-.269c2.236-13.67-1.53-24.703,15.175-22.022,8.215-16.298,21.16-26.179,30.141-41.39,3.143-5.22,6.285-10.44,9.865-16.385,1.855,11.161,3.541,21.306,5.227,31.45-3.791-6.108-4.384-12.21-7.56-18.544-6.088,8.306-8.071,17.947-14.106,26.118-4.507,6.102-12.645,8.204-13.579,15.762Z"/><path class="cls-44" d="m8.102,184.984c-1.116-7.837-2.232-15.673-3.348-23.51,1.645-13.696,5.07-26.422,18.42-33.74,0-.003.146.266.145.266-1.142,2.153-1.777,4.91-3.508,6.356-9.07,7.573-8.992,18.681-11.684,28.729-.02,6.204-.04,12.408-.06,18.612.012,1.096.024,2.191.035,3.287Z"/><path class="cls-27" d="m40.082,231.819c-.573.016-1.146.033-1.72.049-.265-2.347-10.176-25.211-11.405-26.035-9.852-6.605-7.125,12.887-7.161,17.699-1.119-.555-2.239-1.11-3.358-1.665-.484-.587-.968-1.174-1.453-1.761-.024-1.671-.048-3.342-.071-5.013,4.528-7.17,2.766-21.278-3.349-26.81-.528-1.68-1.055-3.36-1.584-5.039,3.162,1.921,6.324,3.841,10.319,6.267,2.566-9.271-1.021-20.397,9.579-24.65-2.351,5.862-12.379,33.65-1.657,33.544,3.881,8.958,7.762,17.916,11.642,26.874.073,2.18.145,4.361.218,6.541Z"/><path class="cls-77" d="m16.438,221.867c1.119.555,2.239,1.11,3.359,1.665,4.021,2.737,8.042,5.474,12.062,8.211,4.358,5.092,8.716,10.183,13.076,15.274,4.648,3.861,8.877,8.473,14.065,11.368,4.869,2.717,10.752,3.619,16.189,5.32-5.002-.597-10.004-1.195-15.005-1.793-15.435-11.888-36.566-20.962-43.745-40.045Z"/><path class="cls-65" d="m14.913,215.093c.023,1.671.047,3.342.071,5.013-1.097-1.148-2.195-2.296-3.291-3.445-1.195-10.56-2.393-21.119-3.591-31.677-.012-1.095-.024-2.191-.035-3.287.531.009,1.06.034,1.589.075.07.499.178.99.326,1.472.528,1.68,1.055,3.36,1.582,5.04,1.116,8.937,2.233,17.873,3.35,26.81Z"/><path class="cls-12" d="m40.082,231.819c-.073-2.18-.145-4.361-.217-6.542.001,0,.197-.142.196-.141,9.49,7.044,49.849,32.616,58.483,16.67,2.745-.077,5.504-.002,8.229-.276,2.367-.237,4.695-.868,7.04-1.325,6.686-.572,13.373-1.144,20.059-1.716.621,1.09,1.243,2.18,1.864,3.27-.54,2.471-1.081,4.943-1.706,7.804-13.287,5.689-14.91,5.685-23.678-.828-14.658,11.411-19.773.218-33.461-1.922-8.51-1.33-16.286,6.782-20.379-5.051-6.454-3.905-11.442-6.923-16.431-9.942Z"/><path class="cls-46" d="m164.189,188.237c3.761,10.472,5.686,21.031,1.531,31.882-3.159,3.998-6.092,8.208-9.566,11.91-1.909,2.035-4.731,3.215-7.141,4.781,1.76-5.766,3.521-11.534,5.412-17.73-12.289-2.274-10.484,13.742-10.509,21.118-1.152.521-2.304,1.042-3.456,1.563,1.436-14.521,1.576-17.242,12.08-26.021,10.666-8.914,11.523-12.712,11.649-27.503Z"/><path class="cls-28" d="m164.189,188.237c-.127,14.791-.984,18.589-11.649,27.503-10.504,8.779-10.644,11.5-12.08,26.021-1.575-.001-3.15-.001-4.723-.002-.62-1.091-1.242-2.181-1.862-3.27-1.776-.525-3.646-1.707-5.313-1.467-8.204,1.177-11.139-2.289-9.68-10.135.53-.019,1.06-.032,1.591-.039,11.174,13.851,18.99-1.235,25.149-11.724,2.512-1.143,5.972-1.605,7.37-3.548,6.016-8.361,9.527-17.662,7.731-28.275.549,0,1.099.004,1.648.012.551,1.133,1.101,2.265,1.652,3.398,0,.515.054,1.024.166,1.527Z"/><path class="cls-79" d="m31.859,231.743c-4.021-2.737-8.041-5.474-12.062-8.211.036-4.812-2.692-24.304,7.16-17.699,1.229.824,11.141,23.688,11.405,26.035-.914.398-1.855,1.17-2.736,1.105-1.279-.094-2.514-.791-3.768-1.231Z"/><path class="cls-55" d="m170.792,228.527c-2.253,3.331-4.505,6.663-6.758,9.994-4.542-2.119-6.06-5.003-2.692-9.464,2.161-2.862,4.032-5.942,6.033-8.924,2.063-5.657,1.156-5.002,8.135-7.938,1.09,7.184-1.033,9.924-4.717,16.333Z"/><path class="cls-10" d="m75.188,263.705c-5.437-1.701-11.32-2.604-16.189-5.32-5.188-2.895-9.417-7.506-14.065-11.368,9.449,6.799,13.863,4.499,23.472,7.579,5.786,1.855,7.996,4.561,13.448,9.248-2.222-.046-4.444-.092-6.666-.138Z"/><path class="cls-18" d="m143.916,240.199c.025-7.375-1.78-23.392,10.509-21.118-1.892,6.197-3.652,11.964-5.412,17.73-1.699,1.128-3.398,2.258-5.097,3.388Z"/><path class="cls-74" d="m164.023,186.711c-.551-1.133-1.101-2.265-1.651-3.398.302-7.396,4.844-13.65,3.045-21.072-1.185-4.885-8.353-16.227-14.786-10.778-1.179,2.415-2.359,4.831-3.823,7.828-1.168-3.335-1.966-5.612-2.763-7.889,5.94-9.635,15.576-6.864,22.295,1.176-.413-13.762-15.475-13.523-25.717-16.196-.273-6.507,13.281-2.345,17.098-1.942.493-1.241.985-2.482,1.478-3.723-5.08-3.14-10.159-6.281-15.239-9.421,0,0,.002-.003.002-.003-2.13-.434-4.417-.528-6.34-1.413-1.457-.67-2.451-2.347-3.65-3.575,1.654-.563,3.307-1.125,4.961-1.688,13.948-2.67,13.628,9.253,21.807,16.313,1.73,1.493-.223,6.858,4.629,5.824,4.642-.99,5.173-4.956,3.841-8.911,3.88,5.082,7.76,10.164,11.64,15.246-2.293-.212-6.318-1.161-6.594-.514-1.653,3.873-2.442,8.114-3.522,12.232-.829.712-2.492,1.687-2.363,2.097,3.366,10.67-3.073,19.866-4.346,29.808Z"/><path class="cls-8" d="m138.931,114.616c-1.653.563-3.307,1.125-4.961,1.688-8.989-2.68-22.817-11.089-31.955-10.02-7.385.613-15.577-.712-19.168,8.637-.355.923-2.84,1.029-4.337,1.514-1.161-.61-2.323-1.219-3.484-1.828-4.412.009-8.824.018-13.236.027-1.11-.018-2.22-.037-3.329-.055,1.565-9.006,11.735-5.864,18.162-6.737,9.588-1.303,17.556-4.544,25.311-9.892,6.546.984,8.58-1.547,14.491-1.772,6.683-.254,15.923,3.685,22.536,4.999,2.801,2.232,5.603,4.464,8.404,6.697-4.43-2.469-23.546-11.761-23.969,1.086,5.53,2.014,10.533,3.837,15.537,5.659Z"/><path class="cls-13" d="m138.96,101.174c-6.614-1.314-15.853-5.253-22.536-4.999-5.91.225-7.944,2.756-14.49,1.771-12.396-10.003-29.86.461-41.18,6.188-5.946,5.41-10.949,9.961-16.818,15.301-1.265-3.215-1.794-4.559-2.415-6.137-1.68.979-3.317,1.933-4.954,2.888.582-1.671,1.163-3.341,1.745-5.012,2.773-2.236,5.546-4.473,8.319-6.71,6.367-2.615,13.769-2.765,19.758-6.333,5.907-3.518,6.878-7.541,13.314-9.559,15.415-4.835,44.881,6.503,59.256,12.602Z"/><path class="cls-64" d="m138.931,114.616c-5.003-1.822-10.007-3.645-15.537-5.659.423-12.847,19.539-3.555,23.969-1.086,10.252,3.414,17.901,9.67,21.844,19.972,1.333,3.954.803,7.92-3.84,8.91-4.852,1.034-2.899-4.331-4.629-5.824-8.18-7.061-7.859-18.983-21.807-16.313Z"/><path class="cls-49" d="m174.073,169.899c1.31,1.995,2.4,4.189,3.981,5.939,2.421,2.68,5.181,5.054,7.797,7.56-1.221,4.31-2.441,8.619-4.007,14.147-13.886-11.056-14.671-10.707-7.771-27.646Z"/><path class="cls-42" d="m38.312,111.175c-.582,1.671-1.163,3.341-1.745,5.012-9.307,13.768-19.97,26.807-23.506,43.675-1.645,1.074-3.289,2.149-4.934,3.223,2.691-10.048,2.614-21.157,11.684-28.729,1.732-1.446,2.367-4.203,3.509-6.356,1.349-3.172,1.994-7.009,4.217-9.35,2.947-3.103,7.126-5.038,10.775-7.475Z"/><path class="cls-11" d="m8.127,163.085c1.645-1.074,3.289-2.149,4.935-3.224-1.135,7.303-2.27,14.607-3.406,21.91-.529-.041-1.058-.066-1.589-.075.019-6.203.04-12.408.06-18.612Z"/><path class="cls-78" d="m9.656,181.771c1.136-7.304,2.271-14.607,3.406-21.91,3.536-16.868,14.199-29.906,23.506-43.674,1.637-.955,3.274-1.91,4.954-2.889.621,1.578,1.15,2.921,2.415,6.137,5.869-5.339,10.872-9.891,16.818-15.301,11.32-5.727,28.783-16.191,41.18-6.188-7.756,5.349-15.724,8.59-25.312,9.893-6.427.874-16.597-2.268-18.162,6.738-5.909,7.057-11.817,14.114-18.296,21.853-.003,0-2.104-.635-4.209-1.271-2.14,10.46-4.108,20.081-6.076,29.701-10.6,4.254-7.013,15.379-9.579,24.65-3.995-2.426-7.157-4.346-10.319-6.267-.146-.483-.255-.973-.325-1.472Z"/><path class="cls-47" d="m29.878,164.86c1.968-9.62,3.936-19.241,6.076-29.701,2.105.636,4.206,1.27,4.209,1.271,6.479-7.739,12.387-14.796,18.296-21.853,1.11.018,2.22.036,3.33.054-8.139,10.817-16.098,22.158-22.203,33.194-6.702,12.115-5.911,22.139-4.705,37.034-1.167,1.708-2.333,3.415-3.5,5.123-1.053,2.807-2.106,5.614-3.159,8.422-10.722.106-.694-27.682,1.656-33.544Z"/><path class="cls-12" d="m28.222,198.404c1.053-2.807,2.106-5.614,3.16-8.422.082,2.239.163,4.478.244,6.717,2.762,7.838,5.524,15.676,8.286,23.513l.151,4.923s-.196.141-.197.142c-3.882-8.957-7.763-17.915-11.643-26.873Z"/><path class="cls-36" d="m14.913,215.093c-1.117-8.936-2.234-17.873-3.35-26.81,6.116,5.532,7.878,19.64,3.35,26.81Z"/><path class="cls-62" d="m113.814,240.205c-2.345.457-4.673,1.088-7.04,1.325-2.725.273-5.485.199-8.228.277-2.668.501-5.334,1.016-8.006,1.497-7.678,1.382-17.08-3.912-20.33-11.433.152-6.521,1.005-12.566-6.934-16.595-6.195-3.143-4.999-9.008.227-13.457,1.1-.03,2.2-.06,3.3-.09-2.208,2.81-3.614,6.02-4.219,9.63,3.72,1.072,7.373,2.329,10.96,3.771,0,0-.019.024-.019.024.435,5.945-1.399,13.925,1.752,17.434,7.765,8.645,17.419,8.511,28.392,2.684,9.529-.398,9.795-.817,6.267-9.476-.518-1.271-.818-2.631-1.219-3.95.533.01,1.067.03,1.599.059,3.069,5.737,6.248,11.453,3.497,18.301Z"/><path class="cls-66" d="m70.211,231.872c3.249,7.521,12.651,12.816,20.329,11.433,2.672-.481,5.338-.997,8.006-1.497-8.636,15.944-48.994-9.627-58.484-16.672-.05-1.642-.1-3.283-.149-4.924,0,0,.105-.072.104-.072,4.277,6.777,8.895,13.022,18.343,11.714,2.3.004,4.6.009,6.9.013,1.65.002,3.301.003,4.951.005Z"/><path class="cls-29" d="m113.814,240.205c2.751-6.847-.428-12.563-3.496-18.301,4.963-1.955,8.246-1.03,8.563,4.983-1.46,7.847,1.475,11.313,9.68,10.135,1.666-.239,3.537.942,5.313,1.467-6.687.571-13.373,1.143-20.06,1.716Z"/><path class="cls-3" d="m118.881,226.887c-.317-6.013-3.601-6.938-8.563-4.983-.534-.028-1.067-.048-1.6-.058-1.664-1.133-3.327-2.267-4.991-3.4-.081-.496-.207-.982-.376-1.455-2.171-2.823-4.342-5.646-6.512-8.469.956-2.938,1.913-5.876,2.831-8.698-2.373-1.274-4.177-2.242-5.981-3.209,7.823-2.192,15.646-4.385,23.469-6.577,3.311-3.946,6.623-7.891,9.934-11.837.571.575,1.143,1.15,1.714,1.725.582.573,1.165,1.146,1.747,1.72-.007,1.061-.015,2.123-.022,3.184-6.717,3.84-6.39,6.554,1.641,13.605,1.123,4.452,2.246,8.905,3.369,13.357-1.024,1.421-2.322,4.2-3.032,4.057-9.254-1.856-11.847,3.174-12.037,10.998-.53.007-1.061.021-1.591.039Zm10.525-20.498c-2.441-2.623-5.057-7.921-8.725-8.79-6.445-1.528-17.265-1.415-18.741,5.823-1.561,7.651,8.688,11.59,13.79,15.185,4.463-3.987,8.167-7.296,13.676-12.218Z"/><path class="cls-52" d="m120.472,226.848c.19-7.824,2.783-12.854,12.037-10.998.71.142,2.007-2.636,3.032-4.058,1.675.719,3.691,2.435,4.972,1.998,10.446-3.561,13.729-16.391,6.759-25.468,3.359.559,6.719,1.118,10.078,1.677-1.587,9.457-4.251,18.412-11.728,25.124-6.159,10.489-13.975,25.575-25.149,11.724Z"/><path class="cls-60" d="m150.63,151.462c6.433-5.45,13.602,5.893,14.786,10.778,1.8,7.423-2.743,13.676-3.045,21.072-.55-.007-1.099-.011-1.649-.012-1.669-1.691-3.337-3.382-5.006-5.073,7.525-10.565,4.928-14.011,1.142-26.605-3.268,3.433-4.735,4.975-6.202,6.516-.009-2.225-.018-4.451-.027-6.677Z"/><path class="cls-39" d="m155.717,178.227c1.669,1.691,3.337,3.382,5.006,5.073,1.796,10.614-1.715,19.915-7.731,28.276-1.398,1.943-4.859,2.405-7.37,3.548,7.478-6.712,10.141-15.667,11.728-25.124-1.675-3.907-3.35-7.814-5.025-11.721,1.131-.017,2.261-.034,3.392-.051Z"/><path class="cls-70" d="m102.015,106.283c9.138-1.069,22.966,7.34,31.955,10.02,1.201,1.229,2.194,2.906,3.651,3.576,1.923.884,4.209.979,6.339,1.413-3.657.791-7.314,1.582-10.971,2.373-.147.86-.294,1.72-.441,2.58,5.309,2.052,10.617,4.103,15.926,6.155.485-.837.971-1.675,1.456-2.512-1.991-2.864-3.981-5.729-5.972-8.593,5.08,3.14,10.159,6.281,15.239,9.421-.493,1.241-.985,2.482-1.478,3.723-3.816-.403-17.371-4.565-17.098,1.942-.04.607-.081,1.213-.12,1.819-1.119-.566-2.239-1.131-3.358-1.696-3.057-5.326-7.529-7.239-13.732-6.944-4.854.23-9.777-1.002-14.669-1.584-3.195-3.902-6.389-7.804-9.584-11.705l1.558-1.34c12.619,9.776,19.738-5.294-.378-5.383.558-1.088,1.117-2.177,1.676-3.265Zm24.987,10.022c-6.396,2.496-10.626,4.147-15.998,6.244,8.815,5.625,11.277,4.726,15.998-6.244Z"/><path class="cls-25" d="m140.501,138.202c.04-.607.08-1.213.121-1.82,10.242,2.673,25.304,2.434,25.717,16.196-6.719-8.04-16.355-10.811-22.296-1.176-.001,0-.165.106-.164.106-1.125-4.436-2.251-8.871-3.377-13.306Z"/><path class="cls-25" d="m150.63,151.462c.009,2.226.018,4.451.026,6.677-2.793,3.808-5.49,7.882-10.584,5.075,1.466-4.509,2.636-8.108,3.806-11.706,0,0,.164-.105.165-.106.798,2.277,1.596,4.553,2.764,7.888,1.464-2.998,2.643-5.413,3.823-7.828Z"/><path class="cls-2" d="m102.015,106.283c-.559,1.088-1.117,2.177-1.675,3.266-4.681,1.896-9.362,3.791-14.042,5.686.25.928.5,1.857.751,2.785,1.94,1.011,3.88,2.022,6.899,3.596-6.095,1.207-10.748,2.129-15.402,3.051-8.438,1.642-3.401,8.285-4.23,11.722-6.336,3.612-11.962,6.819-17.588,10.026-20.467,5.165-17.963,7.409-21.779,28.615,1.034.339,2.068.679,3.102,1.018,2.461-5.54,4.922-11.079,7.121-16.027,2.44,5.797,6.679,10.568,3.261,16.263-4.517,2.858-9.034,5.717-13.551,8.575-1.206-14.895-1.997-24.919,4.705-37.034,6.105-11.036,14.064-22.377,22.203-33.194,4.412-.009,8.824-.017,13.238-.026-10.205,4.109-26.14,16.548-26.14,28.617,14.079-6.84,19.158-16.098,29.623-26.789,1.497-.485,3.982-.591,4.337-1.514,3.591-9.348,11.783-8.024,19.168-8.637Z"/><path class="cls-22" d="m78.509,116.434c-10.465,10.69-15.543,19.949-29.623,26.789,0-12.069,15.936-24.508,26.14-28.617,1.159.609,2.321,1.219,3.482,1.828Z"/><path class="cls-17" d="m34.881,184.86c4.517-2.858,9.034-5.717,13.55-8.573,0,.002-.091.487-.091.487-4.972,5.916-17.954,19.494-5.217,24.76,8.985,3.716,17.822-10.722,23.758-16.685,3.778,2.702,7.556,5.405,11.949,8.547-8.228,2.463-15.191,4.547-22.153,6.631-3.703,3.965-5.671,10.674-13.315,8.412-3.913-3.914-7.825-7.827-11.738-11.741-.081-2.239-.162-4.478-.244-6.717,1.166-1.707,2.333-3.415,3.499-5.123Z"/><path class="cls-66" d="m31.626,196.699c3.913,3.914,7.825,7.827,11.737,11.741-.558,1.673-1.116,3.346-1.674,5.019l-.024.023c-.549,2.219-1.099,4.439-1.648,6.658,0,0-.104.071-.105.072-2.763-7.837-5.525-15.675-8.286-23.513Z"/><path class="cls-34" d="m56.678,200.028c6.962-2.084,13.924-4.168,22.153-6.631-4.393-3.142-8.171-5.845-11.95-8.546-.006-.515-.023-1.03-.051-1.545.977-8.856,1.961-17.711,2.99-26.561,3.482,1.59,6.965,3.179,10.447,4.769-6.161,5.24-8.147,11.205-3.196,18.374-.43,6.067,3.264,8.363,8.358,10.31,3.116,1.191,5.531,4.216,8.261,6.417,1.804.968,3.607,1.936,5.981,3.21-.919,2.822-1.875,5.76-2.83,8.697-11.566-12.266-14.406-12.908-30.037-6.792-1.1.03-2.2.06-3.3.089-2.275-.598-4.55-1.194-6.824-1.791Z"/><path class="cls-68" d="m66.803,201.729c15.631-6.117,18.471-5.475,30.037,6.792,2.169,2.824,4.34,5.647,6.514,8.469-2.053-1.325-3.958-3.042-6.194-3.896-5.457-2.084-10.732-8.371-16.927-1.308-2.23,1.115-4.459,2.229-6.689,3.344-3.587-1.442-7.241-2.699-10.96-3.771.605-3.61,2.011-6.819,4.219-9.63Z"/><path class="cls-21" d="m73.545,215.13c2.229-1.115,4.459-2.23,6.688-3.344-2.107,13.337,6.641,19.765,19.768,15.717,6.433-1.984,8.287-3.607,3.726-9.057,1.664,1.133,3.327,2.267,4.991,3.4.401,1.319.701,2.679,1.219,3.95,3.528,8.659,3.262,9.079-6.267,9.476-2.221-.032-4.465.132-6.659-.126-17.717-2.084-23.512-7.051-23.485-19.991,0,0,.019-.024.019-.024Z"/><path class="cls-75" d="m56.678,200.028c2.275.597,4.549,1.193,6.824,1.791-5.225,4.45-6.421,10.315-.226,13.458,7.938,4.028,7.086,10.074,6.934,16.595-1.65-.002-3.3-.003-4.952-.005,1.755-4.87.413-8.284-3.026-12.546-5.894-7.304-12.572-7.875-20.544-5.863.558-1.673,1.116-3.346,1.674-5.019,7.644,2.263,9.612-4.446,13.315-8.412Z"/><path class="cls-68" d="m73.526,215.154c-.026,12.94,5.768,17.907,23.485,19.991,2.194.258,4.439.094,6.659.126-10.973,5.827-20.627,5.962-28.392-2.683-3.152-3.509-1.318-11.489-1.752-17.434Z"/><path class="cls-62" d="m41.689,213.458c7.971-2.012,14.65-1.441,20.544,5.863,3.439,4.262,4.781,7.676,3.026,12.546-2.299-.005-4.599-.009-6.898-.013-1.915-1.687-4.039-3.194-5.706-5.099-3.782-4.32-7.34-8.837-10.989-13.273l.024-.023Z"/><path class="cls-75" d="m41.665,213.482c3.649,4.437,7.207,8.953,10.989,13.273,1.668,1.905,3.791,3.412,5.706,5.099-9.45,1.308-14.067-4.937-18.344-11.714.55-2.22,1.099-4.439,1.649-6.658Z"/><path class="cls-40" d="m77.072,179.888c-4.952-7.169-2.966-13.134,3.195-18.374,1.65-.549,3.301-1.097,4.952-1.646-6.479,6.491,29.84,19.784,25.177-3.345,4.494,3.838,8.987,7.675,13.481,11.513,1.072,3.389,2.143,6.778,3.215,10.167-3.311,3.946-6.623,7.891-9.934,11.836-6.241.789-12.482,1.579-18.043,2.283-7.24-4.084-14.642-8.258-22.043-12.433Z"/><path class="cls-37" d="m147.272,188.323c6.97,9.077,3.687,21.907-6.759,25.468-1.281.437-3.296-1.28-4.972-1.998-1.123-4.452-2.246-8.905-3.369-13.358-2.214-8.979,10.48-21.17,18.187-17.747l-2.57.699c-.172,2.312-.344,4.624-.517,6.936Z"/><path class="cls-71" d="m127.092,178.201c-1.072-3.389-2.143-6.778-3.216-10.164.539-1.615,1.079-3.231,1.62-4.848,12.266-.971,16.531-6.769,13.671-18.608-.652-2.698-1.348-5.384-2.024-8.076,1.12.565,2.24,1.129,3.359,1.696,1.125,4.437,2.251,8.872,3.377,13.308-1.171,3.599-2.34,7.197-3.806,11.706,5.094,2.807,7.791-1.267,10.584-5.075,1.467-1.542,2.934-3.083,6.202-6.516,3.786,12.594,6.384,16.04-1.142,26.605-1.13.017-2.261.034-3.392.051-1.939-.734-3.878-1.468-6.764-2.561,6.313-2.637,8.902-3.718,11.491-4.8-7.224-16.785-20.139,6.439-26.521,13.912.007-1.061.014-2.123.021-3.184,3.349-4.509,6.453-9.181,9.31-14.017-3.247-1.014-6.494-2.027-9.09-2.837-.803,6.177-1.385,10.656-1.967,15.135-.571-.575-1.143-1.15-1.714-1.725Z"/><path class="cls-38" d="m129.406,206.389c-5.51,4.922-9.213,8.231-13.676,12.218-5.102-3.595-15.351-7.534-13.79-15.185,1.476-7.238,12.295-7.351,18.741-5.823,3.668.869,6.284,6.167,8.725,8.79Z"/><path class="cls-54" d="m103.727,218.446c4.562,5.45,2.708,7.073-3.726,9.057-13.127,4.048-21.876-2.38-19.768-15.717,6.195-7.063,11.471-.777,16.927,1.308,2.235.854,4.141,2.571,6.194,3.896.166.475.292.96.373,1.456Z"/><path class="cls-41" d="m130.531,184.83c6.382-7.473,19.297-30.697,26.521-13.912-2.589,1.082-5.178,2.163-11.491,4.8,2.886,1.093,4.825,1.827,6.764,2.561,1.675,3.907,3.35,7.814,5.025,11.721-3.359-.559-6.719-1.118-10.078-1.677.172-2.312.344-4.624.517-6.936l2.57-.699c-7.707-3.423-20.401,8.768-18.187,17.747-8.031-7.05-8.358-9.765-1.641-13.605Z"/><path class="cls-4" d="m77.072,179.888c7.401,4.175,14.803,8.349,22.043,12.433,5.561-.704,11.802-1.493,18.043-2.283-7.823,2.193-15.646,4.386-23.468,6.578-2.729-2.202-5.144-5.227-8.26-6.418-5.093-1.947-8.787-4.242-8.358-10.31Z"/><path class="cls-63" d="m128.806,179.926c.582-4.479,1.164-8.958,1.967-15.135,2.596.81,5.843,1.824,9.09,2.837-2.857,4.836-5.961,9.508-9.31,14.017-.582-.573-1.164-1.146-1.747-1.72Z"/><path class="cls-17" d="m137.144,136.505c.676,2.692,1.372,5.378,2.024,8.076,2.859,11.839-1.405,17.637-13.671,18.608-.579-1.111-1.159-2.222-1.738-3.333,13.124,6.252,9.342-21.83.261-26.939-5.536-3.114-29.197-6.565-35.878-4.566-10.911,3.265-10.134,11.503-11.275,21.428-1.067,8.749,5.251,6.523,9.959,6.691,1.153.591,2.306,1.182,3.46,1.773-1.688.541-3.377,1.082-5.065,1.624-1.651.549-3.302,1.098-4.952,1.646-3.482-1.59-6.964-3.179-10.447-4.769-1.029,8.85-2.013,17.705-2.99,26.561-3.242-6.345-9.271-6.427-15.192-6.753,3.191-1.002,6.381-2.005,12.122-3.808-6.01-3.402-10.06-5.696-14.86-8.413-4.378-8.1,3.819-12.193,7.827-17.917,5.626-3.207,11.252-6.414,17.588-10.026.828-3.437-4.208-10.08,4.23-11.722,10.066,1.103,20.132,2.207,30.198,3.31,4.892.582,9.815,1.814,14.669,1.584,6.203-.295,10.675,1.618,13.732,6.944Z"/><path class="cls-15" d="m108.743,127.977c-10.066-1.103-20.132-2.207-30.198-3.31,4.654-.922,9.307-1.844,15.402-3.051-3.019-1.574-4.959-2.585-6.899-3.596-.25-.928-.5-1.857-.751-2.785,4.681-1.895,9.362-3.79,14.042-5.686,20.116.089,12.997,15.159.378,5.383l-1.558,1.34c3.195,3.902,6.389,7.804,9.584,11.705Z"/><path class="cls-31" d="m143.958,121.295c1.991,2.864,3.981,5.729,5.972,8.593-.485.837-.971,1.675-1.456,2.512-5.309-2.052-10.617-4.103-15.926-6.155.147-.86.294-1.72.441-2.58,3.657-.791,7.314-1.582,10.971-2.373,0,0-.002.003-.002.003Z"/><path class="cls-26" d="m127.001,116.305c-4.722,10.97-7.183,11.869-15.998,6.244,5.372-2.097,9.602-3.748,15.998-6.244Z"/><path class="cls-23" d="m56.727,146.415c-4.007,5.725-12.205,9.817-7.827,17.917,4.8,2.717,8.85,5.011,14.86,8.413-5.741,1.803-8.931,2.806-12.121,3.809-1.099.074-2.198.147-3.298.22,0,0,.09-.484.091-.487,3.418-5.698-.821-10.469-3.26-16.266-2.198,4.948-4.66,10.488-7.121,16.027-1.034-.339-2.068-.679-3.102-1.018,3.816-21.206,1.312-23.451,21.779-28.615Z"/><path class="cls-73" d="m48.341,176.774c1.1-.073,2.199-.147,3.298-.22,5.92.325,11.95.407,15.191,6.752.028.515.045,1.031.051,1.545-5.936,5.962-14.772,20.399-23.758,16.684-12.736-5.267.245-18.845,5.217-24.76Z"/><path class="cls-16" d="m85.219,159.867c1.688-.541,3.377-1.082,5.065-1.624,6.404-4.083,12.815-8.077,20.112-1.721,4.662,23.13-31.656,9.837-25.177,3.345Z"/><path class="cls-30" d="m110.396,156.522c-7.298-6.356-13.709-2.362-20.112,1.721-1.154-.59-2.307-1.181-3.459-1.772,6.795-6.738,13.921-11.508,23.795-5.417,1.611.994,4.267.296,6.44.38,2.232,2.807,4.465,5.614,6.697,8.422.579,1.111,1.159,2.222,1.738,3.333-.54,1.617-1.08,3.233-1.62,4.848-4.493-3.84-8.987-7.677-13.48-11.515Z"/><path class="cls-45" d="m123.758,159.856c-2.232-2.807-4.465-5.614-6.696-8.421,0-5.865,0-11.73,0-19.946-6.234,11.49-28.913,12.302-40.197,18.291,1.141-9.925.364-18.163,11.275-21.428,6.681-1.999,30.342,1.452,35.878,4.566,9.081,5.109,12.864,33.191-.261,26.939Z"/><path class="cls-58" d="m76.866,149.78c11.284-5.989,33.962-6.801,40.197-18.291,0,8.216,0,14.081,0,19.946-2.174-.084-4.83.613-6.441-.38-9.874-6.091-17-1.32-23.795,5.417-4.709-.168-11.027,2.058-9.96-6.692Z"/></svg>