<?xml version="1.0" encoding="UTF-8"?><svg id="Layer_1" xmlns="http://www.w3.org/2000/svg" viewBox="0 0 233.828 235.761"><defs><style>.cls-1{fill:#a48453;}.cls-2{fill:#56201f;}.cls-3{fill:#b55f28;}.cls-4{fill:#d67d2a;}.cls-5{fill:#d5ab78;}.cls-6{fill:#f7d26a;}.cls-7{fill:#552e32;}.cls-8{fill:#dab197;}.cls-9{fill:#d69597;}.cls-10{fill:#e5af60;}.cls-11{fill:#9f5c27;}.cls-12{fill:#f2c1ae;}.cls-13{fill:#a85a27;}.cls-14{fill:#cb6d29;}.cls-15{fill:#7f5857;}.cls-16{fill:#a35125;}.cls-17{fill:#cc6c2a;}.cls-18{fill:#c86d2a;}.cls-19{fill:#cb6f2d;}.cls-20{fill:#8b4523;}.cls-21{fill:#704037;}.cls-22{fill:#c96d2b;}.cls-23{fill:#f3b65e;}.cls-24{fill:#e6a7ad;}.cls-25{fill:#e7a262;}.cls-26{fill:#543130;}.cls-27{fill:#ab7f3c;}.cls-28{fill:#f0a149;}.cls-29{fill:#b98382;}.cls-30{fill:#f3cf78;}.cls-31{fill:#683f40;}.cls-32{fill:#a68890;}.cls-33{fill:#ad8683;}.cls-34{fill:#f2b335;}.cls-35{fill:#81614d;}.cls-36{fill:#40201e;}.cls-37{fill:#a74e4e;}.cls-38{fill:#9f6566;}.cls-39{fill:#e1913a;}.cls-40{fill:#d4a19d;}.cls-41{fill:#6f2527;}.cls-42{fill:#8f6766;}.cls-43{fill:#f7c7d0;}.cls-44{fill:#914923;}.cls-45{fill:#cc8252;}.cls-46{fill:#e38441;}.cls-47{fill:#89666d;}.cls-48{fill:#a75e62;}.cls-49{fill:#421a1b;}.cls-50{fill:#ad5426;}.cls-51{fill:#eea43c;}.cls-52{fill:#f5a75e;}.cls-53{fill:#f7c665;}.cls-54{fill:#c97379;}.cls-55{fill:#df812f;}.cls-56{fill:#ac5626;}.cls-57{fill:#bf948b;}.cls-58{fill:#412526;}.cls-59{fill:#c9732a;}.cls-60{fill:#240e10;}.cls-61{fill:#431a1c;}.cls-62{fill:#efc371;}.cls-63{fill:#b17679;}.cls-64{fill:#b68555;}.cls-65{fill:#9c6e65;}.cls-66{fill:#f8c48d;}.cls-67{fill:#f5b762;}.cls-68{fill:#3a1514;}.cls-69{fill:#845451;}.cls-70{fill:#b17859;}.cls-71{fill:#a66637;}.cls-72{fill:#e08c30;}.cls-73{fill:#e3c192;}.cls-74{fill:#c36929;}.cls-75{fill:#8c4720;}.cls-76{fill:#f7c66a;}.cls-77{fill:#8d4820;}.cls-78{fill:#8d6f6e;}.cls-79{fill:#98783e;}.cls-80{fill:#5e3a3d;}.cls-81{fill:#edc78a;}.cls-82{fill:#f9da77;}.cls-83{fill:#6d494a;}.cls-84{fill:#8b5f5a;}.cls-85{fill:#efa538;}.cls-86{fill:#5d3e3c;}.cls-87{fill:#6e4344;}.cls-88{fill:#9d7673;}.cls-89{fill:#894c4d;}.cls-90{fill:#8c3c3b;}.cls-91{fill:#683336;}.cls-92{fill:#f8c472;}.cls-93{fill:#492724;}.cls-94{fill:#3f2120;}.cls-95{fill:#b96328;}.cls-96{fill:#835a55;}.cls-97{fill:#f0a934;}.cls-98{fill:#8e6443;}.cls-99{fill:#a1808a;}.cls-100{fill:#efb988;}</style></defs><path class="cls-77" d="m232.432,116.366c-11.983,7.461-6.313,51.149-19.653,52.496-.062-.599-.122-1.198-.182-1.796,3.11-3.194,1.133-7.246,1.831-10.847,1.957-1.091,2.991-2.69,3.489-4.948,4.638-21.039,9.336-42.06,5.444-63.822,3.046,6.41,1.521,13.998,5.378,20.292,1.044,1.704,1.773,2.964,3.794,3.105,2.599,1.888.602,3.692-.101,5.52Z"/><path class="cls-75" d="m192.601,205.047c.014.594.037,1.188.068,1.782-3.541,6.653-24.412,5.027-32.412,8.62-4.774,2.144-8.965,3.151-12.61,7.067-3.734,4.011,3.019,10.26-5.72,13.244-6.84-1.411-8.12-6.552-14.135-10.149-6.183-3.698-13.101-3.146-19.919-3.797-18.284-1.748-34.99-5.815-52.817-9.58-10.342-8.938-35.979-11.921-36.478-28.744.002-.002.475-.414.475-.414,1.148.03,2.296.06,3.444.09,2.432,7.372,28.964,20.714,35.738,24.11,19.091,9.572,42.59,11.848,63.674,10.449,1.137,1.883,2.611,2.555,4.972,3.039,11.02,2.261,20.27-2.216,29.584-6.813,4.86.119,5.339-4.22,7.244-7.107,4.973.229,10.005-.727,14.904,1.022,5.173,1.847,9.82.576,13.988-2.818Z"/><path class="cls-3" d="m194.431,22.305c2.636-.045,4.393,1.248,5.465,3.584-.178,8.706-1.052,17.502,4.355,25.29,1.291,1.86,1.408,3.988-.852,5.522-2.313-1.82-3.312-4.309-3.643-7.138-3.896-15.155-5.311-16.287-18.135-14.498-1.114-.074-2.23-.147-3.346-.22-2.21-3.388-3.673-8.473-6.774-9.834-7.975-3.5-12.514-9.108-14.941-17.019-1.367-2.17-3.493-1.949-5.604-1.775-20.029-3.277-47.158-5.428-66.954.882-16.974,5.41-39.931,36.277-57.918,31.494-.048-1.177-.095-2.355-.143-3.532.051-1.247.103-2.495.154-3.742,7.84,4.318,13.173.199,18.078-5.363,1.128-.338,2.376-.469,3.365-1.044C59.77,17.8,66.57,2.943,82.193.65c13.437-1,28.382.058,42.19-.069,10.471-.096,27.377-3.08,35.614,5.46,0,0,.014.025.014.025.06,1.472.394,2.809,1.792,3.62-1.197,7.364,35.939,33.904,32.58,14.435.016-.606.032-1.211.048-1.817Z"/><path class="cls-16" d="m203.399,56.702c2.26-1.535,2.144-3.663.852-5.522-5.407-7.788-4.533-16.584-4.355-25.29,7.737,5.087,2.884,13.582,7.251,20.634,4.367,7.052,11.617,6.382,18.083,10.245-4.359,5.301-6.099,9.579,3.664,9.36-5.641,6.123-10.911,12.342-5.534,21.321,3.891,21.762-.806,42.782-5.444,63.822-.498,2.258-1.531,3.857-3.49,4.947-.044-3.048-.086-6.096-.129-9.143.008-.576.045-1.15.111-1.723,7.611-10.34,14.28-77.745-1.869-79.622-2.481-3.085-2.889-8.677-8.971-7.405-.053-.541-.11-1.083-.169-1.623Z"/><path class="cls-20" d="m194.431,22.305c-.016.606-.032,1.211-.047,1.816-5.995,5.976-10.294.889-14.183-2.679-5.499-5.045-10.8-10.11-18.398-11.756-1.398-.811-1.732-2.148-1.792-3.62,7.503,3.342,16.085,4.062,21.701,11.811,2.234,3.083,8.013,4.135,12.719,4.428Z"/><path class="cls-25" d="m228.894,66.128c-9.763.219-8.023-4.059-3.664-9.36,9.082.048,5.903,4.888,3.664,9.36Z"/><path class="cls-19" d="m212.596,167.066c.06.599.12,1.198.182,1.796-.111.575-.21,1.153-.295,1.733-8.529,7.944-15.574,17.072-21.6,27.017-1.647-9.354-1.459-18.002,3.031-27.202,2.465-5.051,9.162-4.857,9.509-10.675,2.525-3.557,5.947-6.509,7.318-10.843.575.005,1.15.008,1.725.01.519,6.051-5.508,12.148.129,18.163Z"/><path class="cls-11" d="m190.885,197.61c6.025-9.943,13.07-19.072,21.599-27.015-4.415,12.758-14.028,22.522-19.883,34.451-4.168,3.394-8.815,4.665-13.988,2.819-4.899-1.749-9.93-.793-14.904-1.022,3.654-8.743,10.452-3.816,16.142-3.708,4.95.696,9.357.309,11.033-5.525Z"/><path class="cls-95" d="m212.596,167.066c-5.637-6.015.39-12.112-.129-18.163.61-.609,1.22-1.219,1.83-1.828.043,3.048.085,6.095.129,9.144-.698,3.601,1.28,7.653-1.83,10.847Z"/><path class="cls-44" d="m26.097,24.174c5.099,9.976,11.898,2.73,18.076,1.782-4.905,5.562-10.238,9.682-18.078,5.364-7.218-18.42-14.515.392-14.432,9.035l-.109.092c-3.482-4.455-.996-9.649-1.791-14.435,4.6-8.107,10.557-4.177,16.335-1.837Z"/><path class="cls-14" d="m19.054,183.076c-1.536-4.006-3.975-7.524-2.162-12.493,2.528-6.927-2.811-12.189-5.348-17.991-3.522-11.857-5.694-23.845-3.523-36.254,3.644,2.785-.145,8.01,3.543,10.781,3.854,12.902,6.856,27.164,13.705,38.313,8.022,13.057,23.857,26.362,37.208,33.816,1.111.136,2.221.271,3.332.407,1.513,3.18,5.611,4.758,5.538,8.921-17.285-6.547-29.015-23.756-48.849-25.41-1.148-.03-2.296-.06-3.444-.09Z"/><path class="cls-56" d="m22.498,183.165c19.834,1.655,31.564,18.864,48.849,25.411,4.9-.249,9.714.122,14.318,1.999,2.381,4.313,6.545,3.427,10.331,3.457,9.447.077,18.916-.099,27.899,3.569-.662.042-1.323.083-1.985.124-21.083,1.398-44.582-.878-63.673-10.45-6.774-3.396-33.307-16.738-35.738-24.11Z"/><path class="cls-59" d="m123.894,217.601c-8.983-3.668-18.451-3.492-27.899-3.569-3.786-.031-7.95.856-10.33-3.459,22.077-1.075,40.602.86,61.884-3.642,1.983-1.788,3.718-1.536,5.205.756,3.798,3.607,6.564,2.872,8.297-2.206,8.314-2.069,8.259-14.269,18.8-2.347-5.69-.108-12.489-5.035-16.142,3.708-1.905,2.888-2.384,7.227-7.244,7.108-1.964-1.924-4.143-3.994-7.023-2.444-8.009,4.312-17.673,1.43-25.548,6.093Z"/><path class="cls-13" d="m123.894,217.601c7.875-4.663,17.539-1.781,25.548-6.093,2.88-1.551,5.059.52,7.023,2.444-9.313,4.596-18.564,9.073-29.583,6.812-2.361-.484-3.835-1.156-4.972-3.039.661-.041,1.322-.082,1.984-.124Z"/><path class="cls-50" d="m8.021,116.337c-2.171,12.409,0,24.397,3.523,36.254-21.128-15.908-8.393-71.797.03-90.562,7.253-5.975,1.036-13.214,1.858-19.793,1.181.582,2.363,1.165,3.545,1.747l.086.057c-.506,4.097.761,8.109.852,12.217.261,11.821-11.563,19.322-9.868,31.169-2.237,9.639-3.558,19.278-.032,28.924l.007-.013Z"/><path class="cls-44" d="m13.431,42.236c-.821,6.579,5.395,13.817-1.858,19.793-.007-7.195-.013-14.39-.021-21.583,0,0,.109-.091.108-.091.59.627,1.18,1.255,1.77,1.881Z"/><path class="cls-4" d="m26.083,38.593c17.987,4.783,40.944-26.083,57.918-31.494,19.797-6.31,46.925-4.159,66.955-.884-7.063,11.846-27.96.423-37.786.279-16.212-.238-40.75,9.304-52.686,19.359-2.416,1.288-5.308,2.112-5.459,5.603-7.396,1.293-11.605,8.014-18.199,10.672-3.304,2.326-5.88,9.255-10.746,1.696,0-1.744.002-3.488.003-5.232Z"/><path class="cls-51" d="m60.484,25.855c11.936-10.056,36.474-19.597,52.686-19.359,9.826.144,30.723,11.567,37.786-.279,2.11-.172,4.236-.393,5.602,1.775-2.747,9.42,2.415,14.545,10.124,17.936,3.47,1.526,6.745,2.681,5.882,7.407-3.175.08-5.255-1.461-7.407-3.812-2.679-2.927-5.754-5.981-10.477-5.224-8.238-17.365-51.054-10.212-66.929-9.047-9.827,1.638-16.856,10.463-27.267,10.603Z"/><path class="cls-72" d="m203.399,56.702c.059.541.116,1.082.169,1.625,4.867,7.138,4.579,15.832,7.154,23.661-.006,3.609-.011,7.218-.017,10.827-.607.004-1.214.007-1.822.01.93-13.332-6.764-23.467-12.716-34.247.773-5.308-.829-10.026-3.597-14.455,4.012-.319,4.111,4.523,7.186,5.44.331,2.83,1.331,5.319,3.643,7.138Z"/><path class="cls-16" d="m161.803,9.687c7.598,1.646,12.898,6.711,18.398,11.756,3.889,3.568,8.188,8.655,14.183,2.679,3.358,19.469-33.777-7.071-32.581-14.435Z"/><path class="cls-45" d="m26.083,38.593c-.001,1.744-.002,3.488-.003,5.234-1.988.261-4.181-.036-5.504,2.028-1.172-.605-2.343-1.21-3.515-1.816,0,0-.086-.057-.086-.057-.185-5.04-5.735-10.872-1.357-14.57,3.303-2.79,5.853,5.224,10.322,5.647.048,1.177.095,2.355.143,3.532Z"/><path class="cls-71" d="m25.941,35.061c-4.468-.424-7.019-8.437-10.322-5.647-4.377,3.698,1.172,9.53,1.357,14.57-1.182-.583-2.364-1.166-3.545-1.748-.59-.627-1.18-1.254-1.77-1.881-.082-8.643,7.215-27.455,14.433-9.035-.051,1.247-.102,2.494-.154,3.742Z"/><path class="cls-74" d="m199.755,49.564c-3.075-.917-3.174-5.759-7.185-5.441-.575-.069-1.152-.125-1.73-.169-2.068-4.004-7.493-4.53-9.221-8.886,12.825-1.79,14.241-.659,18.137,14.497Z"/><path class="cls-4" d="m172.563,33.336c.864-4.728-2.411-5.882-5.881-7.408-7.709-3.391-12.871-8.517-10.124-17.936,2.428,7.914,6.967,13.521,14.942,17.022,3.101,1.361,4.565,6.446,6.773,9.835-.708.078-1.416.155-2.122.231-1.195-.581-2.392-1.162-3.589-1.743Z"/><path class="cls-72" d="m176.15,35.079c.707-.077,1.414-.154,2.123-.232,1.117.072,2.232.145,3.347.219,1.727,4.357,7.152,4.883,9.22,8.888-1.877.055-3.753.109-5.63.163-3.02-3.013-6.04-6.025-9.06-9.038Z"/><path class="cls-95" d="m212.54,65.73c16.149,1.877,9.48,69.281,1.869,79.621,2.791-15.568,4.637-31.206,3.528-47.065.286-7.723-3.425-14.145-4.726-20.965-1.022-5.355,2.648-5.681-.671-11.591Z"/><path class="cls-55" d="m217.937,98.286c1.109,15.859-.737,31.497-3.528,47.065-.065.573-.102,1.148-.11,1.724-.61.609-1.22,1.219-1.83,1.828-.575-.002-1.15-.006-1.726-.01,1.959-11.445-1.124-23.242,2.024-34.524,2.133-7.646,1.803-14.671-2.061-21.555.006-3.609.011-7.218.017-10.826,2.405,5.433,4.81,10.866,7.215,16.298Z"/><path class="cls-17" d="m217.937,98.286c-2.405-5.433-4.81-10.866-7.215-16.298-2.575-7.829-2.287-16.523-7.154-23.661,6.083-1.274,6.491,4.318,8.972,7.403,3.32,5.91-.35,6.235.671,11.591,1.301,6.82,5.012,13.242,4.726,20.965Z"/><path class="cls-39" d="m179.852,203.135c-10.541-11.922-10.486.278-18.8,2.347-1.733,5.077-4.498,5.813-8.297,2.206-1.487-2.292-3.222-2.545-5.205-.756-21.282,4.502-39.807,2.567-61.884,3.642-4.605-1.875-9.418-2.246-14.319-1.998.073-4.164-4.024-5.742-5.537-8.922,5.901-.936,10.778,2.685,16.253,3.644,14.502,17.024,60.339,1.436,76.152-4.843,5.473-2.173,9.005-4.73,15.066-4.204,4.298.372,5.958,5.941,10.647,4.334,7.679-2.633-1.693-14.014-1.969-18.808,7.624-2.79,7.294-11.658,12.479-16.313,2.996-1.243,5.992-2.485,8.987-3.728-.347,5.818-7.044,5.624-9.509,10.675-4.49,9.2-4.678,17.848-3.031,27.202-1.675,5.831-6.082,6.218-11.032,5.523Z"/><path class="cls-97" d="m203.425,159.735c-2.996,1.243-5.992,2.485-8.987,3.727.572-1.189,1.143-2.377,1.715-3.564,11.255-13.02,18.63-45.506,12.707-61.645.008-1.809.016-3.618.023-5.428.607-.003,1.215-.007,1.822-.01,3.864,6.883,4.194,13.909,2.061,21.554-3.147,11.282-.065,23.079-2.024,34.524-1.37,4.334-4.793,7.286-7.317,10.843Z"/><path class="cls-85" d="m62.477,199.248c-13.351-7.454-29.186-20.759-37.208-33.816-6.849-11.148-9.852-25.411-13.705-38.311.054-8.391.108-16.783.162-25.176,1.905,1.537,1.698,3.705,1.681,5.786-.17,19.906,6.543,37.706,16.589,54.514,8.184,13.692,19.834,24.035,32.277,33.631.068,1.124.137,2.248.205,3.373Z"/><path class="cls-62" d="m62.477,199.248c-.068-1.124-.137-2.248-.205-3.372.303-3.703,3.117-3.522,5.71-3.684,8.353,3.147,16.707,6.294,25.06,9.441-3.31,2.859-7.345.946-10.979,1.666-5.475-.959-10.352-4.581-16.253-3.644-1.112-.135-2.222-.271-3.333-.406Z"/><path class="cls-46" d="m11.726,101.945c-.054,8.392-.108,16.784-.163,25.175-3.688-2.773.101-7.997-3.543-10.782,0,0-.007.012-.007.013.01-5.3.072-10.601.012-15.9-.044-3.863.581-7.145,5.324-7.611-1.387,2.885-1.887,5.927-1.623,9.106Z"/><path class="cls-22" d="m17.062,44.04c1.172.605,2.343,1.21,3.515,1.816,3.29,7.836,1.686,15.52-.816,23.136-.794,2.418-2.955,4.553-1.206,7.369-3.028,3.3-1.151,7.3-1.571,10.973-.584.086-1.171.133-1.761.14-2.393-.016-4.785-.031-7.178-.047-1.696-11.847,10.129-19.348,9.868-31.169-.091-4.109-1.358-8.12-.852-12.217Z"/><path class="cls-18" d="m8.046,87.426c2.393.016,4.785.031,7.178.047-.625,1.788-1.249,3.577-1.874,5.366-4.743.467-5.369,3.748-5.324,7.611.061,5.299-.002,10.6-.012,15.9-3.526-9.645-2.205-19.285.032-28.924Z"/><path class="cls-28" d="m18.554,76.36c-1.748-2.815.413-4.95,1.207-7.368,2.502-7.616,4.106-15.3.816-23.136,1.322-2.064,3.515-1.767,5.503-2.028,4.866,7.557,7.442.628,10.747-1.697,1.136,1.723,1.394,3.465.127,5.248-8.523,2.29-6.969,11.205-10.883,16.524-3.293,3.678-3.021,9.504-7.517,12.458Z"/><path class="cls-67" d="m60.484,25.855c10.411-.14,17.439-8.965,27.265-10.605-.061.542-.099,1.088-.114,1.636-3.635,2.408-7.27,4.815-10.905,7.223-3.287.563-6.441,1.317-7.452,5.161-5.506-1.358-9.098,3.859-14.136,4.109-.039-.64-.078-1.281-.118-1.921.151-3.491,3.044-4.315,5.459-5.603Z"/><path class="cls-52" d="m55.025,31.458c.039.64.078,1.281.117,1.919-6.789,3.723-10.781,11.076-18.188,13.998,1.267-1.779,1.009-3.522-.127-5.245,6.593-2.659,10.802-9.379,18.198-10.672Z"/><path class="cls-76" d="m208.883,92.825c-.008,1.809-.016,3.618-.023,5.428-2.087-6.502-3.567-17.938-7.549-23.42-1.507.615-2.018,1.803-1.531,3.565-7.07-7.063-6.91-18.304-14.501-25.067-5.658-3.335-10.025-8.126-14.479-12.818-.346-7.956-8.752-6.827-12.438-11.018-1.227-1.732-2.454-3.464-3.682-5.196,4.723-.757,7.798,2.297,10.477,5.224,2.152,2.351,4.232,3.892,7.407,3.812,1.196.582,2.392,1.163,3.588,1.744,3.019,3.013,6.039,6.026,9.06,9.038,4.141,4.451,9.977,7.619,10.956,14.461,5.952,10.781,13.645,20.915,12.716,34.247Z"/><path class="cls-82" d="m154.68,24.299c1.227,1.732,2.454,3.464,3.68,5.196-6.015,1.395-10.326-4.867-16.307-3.618-.088-.551-.178-1.102-.269-1.652-.083-3.334-2.494-3.293-4.961-3.837-16.237-3.58-32.959-.074-49.187-3.502.015-.547.053-1.093.114-1.636,15.876-1.164,58.692-8.316,66.93,9.049Z"/><path class="cls-34" d="m196.167,58.578c-.979-6.842-6.814-10.011-10.956-14.461,1.875-.054,3.751-.108,5.628-.163.578.043,1.155.099,1.73.168,2.769,4.429,4.37,9.147,3.597,14.456Z"/><path class="cls-23" d="m82.063,203.298c3.635-.72,7.67,1.193,10.979-1.667.6-.075,1.2-.148,1.8-.222,17.526,3.932,34.525,2.906,50.755-5.378,5.299-1.475,10.178-3.774,14.408-7.345,1.813-.55,3.626-1.099,5.44-1.649,9.41,6.164,12.055-2.255,16.176-7.493l.341.232c.274,4.793,9.646,16.174,1.967,18.807-4.689,1.608-6.349-3.961-10.647-4.334-6.061-.525-9.594,2.031-15.066,4.204-15.812,6.279-61.65,21.867-76.152,4.843Z"/><path class="cls-10" d="m196.153,159.898c-.572,1.188-1.143,2.376-1.715,3.564-5.184,4.656-4.854,13.524-12.479,16.314.002,0-.339-.232-.338-.231.208-4.285,6.964-7.495,2.077-12.618,1.753-2.366,3.508-4.732,5.263-7.099.552,1.824-.72,7.025,3.56,1.992,1.032-1.214,2.109-1.868,3.632-1.923Z"/><path class="cls-6" d="m196.152,159.898c-1.523.055-2.6.709-3.632,1.923-4.279,5.033-3.007-.168-3.559-1.993.623-1.799,1.245-3.596,1.868-5.394,5.348-4.841,7.655-10.897,7.215-18.049,0,0,.098-.193.097-.192,3.022-2.395,1.172-5.827,1.855-8.721,4.533-12.168,6.418-24.341.079-36.532-.103-1.136-.205-2.273-.308-3.409.004-3.045.007-6.089.011-9.134-.486-1.761.025-2.95,1.532-3.565,3.982,5.482,5.462,16.918,7.549,23.42,5.923,16.139-1.452,48.625-12.707,61.645Z"/><path class="cls-53" d="m13.349,92.839c.625-1.789,1.25-3.578,1.874-5.366.59-.007,1.177-.054,1.761-.139,2.59,1.881,1.788,4.671,1.828,7.175.04,2.518,1.079,2.994,3.184,1.957-.574,9.017-3.311,18.052.229,27.034.1,5.756.87,11.364,3.657,16.527,7.089,22.985,21.273,40.251,42.1,52.165-2.593.162-5.407-.019-5.71,3.684-12.443-9.597-24.093-19.939-32.277-33.631-10.046-16.808-16.759-34.608-16.589-54.514.018-2.081.225-4.25-1.681-5.786-.263-3.177.237-6.22,1.625-9.105Z"/><path class="cls-98" d="m67.982,192.192c-20.827-11.913-35.012-29.18-42.1-52.165,0,0,.654-.471.651-.469,7.308,11.682,14.129,23.731,24.835,32.847,10.384,13.463,30.501,22.046,46.954,23.493,9.524.838,39.844,1.87,47.292-7.164,3.643-1.136,8.963,2.777,10.865-3.602,1.175,1.185,2.35,2.37,3.525,3.555-4.23,3.57-9.108,5.869-14.408,7.344-9.171.469-18.073,2.997-27.078,4.401-8.052,1.255-15.952-1.694-23.676.977-.6.074-1.2.147-1.8.222-8.353-3.146-16.707-6.293-25.06-9.44Z"/><path class="cls-92" d="m21.993,96.466c-2.102,1.037-3.14.561-3.18-1.957-.04-2.503.762-5.293-1.828-7.175.42-3.673-1.457-7.674,1.571-10.973,4.494-2.955,4.222-8.781,7.516-12.459.09,1.282.181,2.564.271,3.846-.079,2.439-.157,4.879-.236,7.318.049,1.163.097,2.327.146,3.49-.112,1.164-.225,2.329-.338,3.493-3.366,4.246-2.753,9.573-3.921,14.417Z"/><path class="cls-66" d="m26.342,67.748c-.09-1.282-.181-2.564-.271-3.846,3.913-5.319,2.36-14.233,10.883-16.524,7.408-2.925,11.399-10.277,18.188-14.001,5.039-.248,8.631-5.465,14.139-4.105.002.002.387.399.386.398-1.354,4.591-5.716,5.714-9.141,7.918-7.46,4.8-15.158,9.321-20.054,17.121-6.994,1.875-6.587,11.757-14.129,13.039Z"/><path class="cls-81" d="m87.636,16.886c16.228,3.428,32.95-.078,49.187,3.502,2.467.544,4.878.503,4.963,3.836-4.379-.79-8.741-1.71-13.144-2.343-15.037-2.163-30.037-3.169-44.721,2.155-2.397.025-4.793.049-7.19.073,3.635-2.408,7.27-4.815,10.905-7.223Z"/><path class="cls-100" d="m76.731,24.109c2.397-.025,4.793-.049,7.19-.073.012.591.015,1.18.008,1.771-5.184-.3-8.812,5.138-14.261,3.864,0,0-.386-.397-.387-.399,1.009-3.846,4.163-4.6,7.45-5.163Z"/><path class="cls-57" d="m170.8,40.513c4.454,4.693,8.821,9.484,14.48,12.816.061,4.09.121,8.183.181,12.275-.636.045-1.272.091-1.908.136-2.138-1.947-3.179-4.459-3.721-7.227-3.912-9.94-12.7-14.053-21.593-18.041-5.342-4.183-12.162-4.735-18.132-7.374-1.539-3.262-4.748-2.753-7.507-3.712-17.162-5.962-32.304,4.158-48.492,5.615-1.182-.024-2.365-.049-3.547-.073,5.059-6.164,11.566-1.76,17.509-3.767,7.204-2.433,6.322-7.062,14.924-7.124,10.595-.187,20.927,1.129,30.747,5.372,8.742,4.377,17.678,8.284,27.061,11.103Z"/><path class="cls-5" d="m185.46,65.603c-.06-4.093-.12-8.185-.181-12.275,7.59,6.766,7.43,18.007,14.5,25.07-.004,3.045-.008,6.089-.011,9.133-4.769-7.31-9.539-14.619-14.308-21.928Z"/><path class="cls-73" d="m170.8,40.513c-9.383-2.819-18.319-6.726-27.061-11.102-.562-1.177-1.124-2.355-1.686-3.534,5.981-1.249,10.292,5.013,16.307,3.618,3.688,4.19,12.094,3.061,12.44,11.018Z"/><path class="cls-8" d="m142.053,25.877c.562,1.178,1.124,2.357,1.686,3.534-9.82-4.244-20.152-5.56-30.747-5.373-2.767-2.728-6.596-2.322-9.374-1.434-6.474,2.071-13.097,2.361-19.689,3.202.007-.59.005-1.179-.008-1.77,14.683-5.324,29.683-4.318,44.72-2.155,4.403.633,8.764,1.553,13.144,2.343.09.551.18,1.102.268,1.653Z"/><path class="cls-30" d="m183.7,166.928c4.884,5.124-1.871,8.333-2.079,12.618-4.122,5.237-6.767,13.656-16.177,7.49,3.592-5.467,11.365-7.226,12.892-14.521,1.788-1.863,3.576-3.725,5.364-5.588Z"/><path class="cls-1" d="m178.336,172.515c-1.527,7.296-9.3,9.054-12.892,14.521-1.813.551-3.627,1.101-5.44,1.65-1.175-1.185-2.351-2.37-3.526-3.555,5.368-5.2,9.284-12.847,18.871-10.93.849.17,1.985-1.09,2.987-1.686Z"/><path class="cls-64" d="m94.842,201.409c7.724-2.671,15.624.278,23.676-.977,9.005-1.404,17.908-3.932,27.078-4.401-16.229,8.284-33.229,9.31-50.754,5.378Z"/><path class="cls-35" d="m178.336,172.515c-1.002.596-2.138,1.856-2.987,1.686-9.587-1.916-13.503,5.73-18.871,10.93-1.901,6.38-7.221,2.467-10.865,3.603,9.323-5.624,23.657-19.146,31.123-27.191,7.568-8.156,8.406-26.809,15.847-32.455.736-4.218-1.61-8.877,1.822-12.709,2.401,6.387,3.499,13.019,3.737,19.813,0,0-.098.193-.097.192-7.196,4.103-7.166,11.093-7.216,18.05-.622,1.798-1.245,3.596-1.868,5.394-1.755,2.368-3.51,4.734-5.263,7.1-1.786,1.862-3.574,3.724-5.362,5.587Z"/><path class="cls-88" d="m185.46,65.603c4.77,7.309,9.539,14.618,14.308,21.928.102,1.137.205,2.273.306,3.41-.137.638-.273,1.275-.41,1.913-1.201-.568-2.402-1.137-3.602-1.706-2.137-1.974-3.116-4.502-3.505-7.312.552-7.468-5.138-4.94-8.877-5.535-3.436-7.47-8.069-3.546-12.524-1.314,1.541-4.299-1.547-4.136-4.221-4.371,7.989-4.564,4.219-9.241.134-13.921,1.447-.84,1.982-2.152,1.944-3.759,3.582,4.022,7.229,7.988,10.723,12.085,2.545,2.984,3.291,1.356,3.816-1.283.636-.045,1.272-.091,1.908-.136Z"/><path class="cls-65" d="m196.061,91.149c1.201.568,2.402,1.137,3.605,1.705.111,11.54.221,23.079.331,34.619-.683,2.894,1.167,6.326-1.855,8.721-.237-6.796-1.335-13.428-3.736-19.815,3.503-8.217,2.422-16.733,1.655-25.23Z"/><path class="cls-27" d="m199.997,127.473c-.11-11.54-.22-23.079-.331-34.619.135-.637.271-1.274.408-1.912,6.34,12.19,4.456,24.364-.077,36.531Z"/><path class="cls-79" d="m190.829,154.434c.05-6.958.02-13.947,7.216-18.05.439,7.153-1.867,13.209-7.216,18.05Z"/><path class="cls-98" d="m25.882,140.027c-2.786-5.163-3.556-10.771-3.655-16.524,1.238-5.285-1.73-11.112,2.065-16.074.503,2.942-2.18,8.578,5.143,5.681,1.562-.618,2.959,1.503,3.919,3.01-1.825.48-4.948-.346-4.682,2.656.63,7.113-2.233,13.781-2.135,20.779l-.654.471Z"/><path class="cls-70" d="m24.291,107.43c-3.795,4.96-.827,10.788-2.065,16.073-3.541-8.986-.804-18.02-.23-27.037,1.165-4.843.552-10.17,3.92-14.417.091,7.816.18,15.633.267,23.45-.632.644-1.262,1.288-1.892,1.932Z"/><path class="cls-86" d="m192.583,129.088c-7.441,5.647-8.279,24.299-15.847,32.455-7.466,8.046-21.8,21.568-31.123,27.191-7.447,9.033-37.767,8.001-47.291,7.164-16.454-1.447-36.57-10.03-46.953-23.492.023-1.204.045-2.409.068-3.614,4.209,2.425,8.418,4.85,12.627,7.275,6.753,6.263,14.193,11.252,23.556,12.668,3.616,3.412,8.672,2.625,12.679,2.925,12.236.915,25.006,3.181,36.21-4.734,7.534-.903,7.972-7.831,10.814-12.718v-.008c7.472-1.587,40.598-20.981,23.016-23.867-1.753-.288-11.816,10.631-14.462,11.846-9.889,4.541-21.514,3.034-32.055,3.05-2.945-1.208-37.579-13.076-33.741-18.064,3.865-5.022,28.73,10.083,35.547,10.82,1.275,1.549,3.047,1.61,4.871,1.805,17.013,1.816,30.247-4.686,40.356-18.157,2.523,2.996,4.219.537,5.55-1.136,2.515-3.16,4.677-6.6,6.986-9.924.816-3.597,3.403-6.094,5.525-8.879,3.001,1.583.908,5.69,3.667,7.393Z"/><path class="cls-21" d="m51.436,168.792c-.022,1.205-.045,2.41-.068,3.614-10.707-9.117-17.528-21.166-24.836-32.848-.095-7.001,2.768-13.668,2.138-20.781-.266-3.002,2.858-2.176,4.683-2.654,1.775.176,3.55.35,5.325.522,4.573,3.005,9.657,1.026,14.491,1.482-13.719,12.183-21.895-7.393-17.212,19.817,1.306,7.589,2.689,12.853,6.567,19.58,2.428,4.211,8.869,5.48,8.912,11.269Z"/><path class="cls-29" d="m26.185,105.498c-.089-7.817-.178-15.634-.269-23.45.111-1.164.224-2.328.335-3.494,1.077,8.889,7.521,5.341,12.431,5.352-.595.593-1.191,1.187-1.787,1.78-7.17,3.989.081,9.757-1.78,14.401-3.212-1.203-.922-5.731-5.206-5.587-4.452.15-.707,11.576-.405,12.984-1.106-.662-2.213-1.325-3.319-1.987Z"/><path class="cls-12" d="m26.342,67.748c7.542-1.282,7.135-11.164,14.13-13.037-.009,2.43-.019,4.859-.029,7.287-9.031,3.389-9.254,10.253-7.131,18.044-2.549.024-3.505-1.394-3.667-3.779-.205-3.018-1.948-1.998-3.539-1.196.079-2.439.157-4.879.236-7.318Z"/><path class="cls-9" d="m26.106,75.066c1.591-.802,3.334-1.822,3.539,1.196.162,2.385,1.118,3.803,3.668,3.781,5.644.979,6.319-3.188,7.3-7.038,1.156-.626,2.312-1.251,3.468-1.877-1.816,4.253-.218,9.947-5.4,12.779-4.908-.012-11.353,3.537-12.429-5.353-.048-1.162-.096-2.325-.145-3.488Z"/><path class="cls-24" d="m44.081,71.128c-1.156.626-2.312,1.251-3.468,1.877.575-3.679,2.852-7.383-.17-11.007.01-2.429.02-4.857.029-7.287,4.895-7.801,12.593-12.323,20.053-17.122,3.425-2.204,7.787-3.327,9.141-7.918,5.45,1.275,9.079-4.162,14.263-3.863,6.591-.842,13.214-1.132,19.688-3.203,2.778-.889,6.607-1.294,9.374,1.434-8.602.062-7.72,4.691-14.924,7.124-5.943,2.007-12.45-2.397-17.511,3.768-11.405,5.203-34.93,23.003-36.476,36.198Z"/><path class="cls-42" d="m183.552,65.739c-.525,2.638-1.271,4.267-3.816,1.283-3.494-4.097-7.141-8.063-10.722-12.085-9.669-3.591-19.338-7.181-29.008-10.771,1.27-5.691-1.177-7.984-7.402-8.281-6.619-.316-13.425.163-19.741-2.638,4.871-.046,9.741-.092,14.612-.138,4.21-.207,8.419-1.936,12.632-.011,5.97,2.639,12.791,3.191,18.132,7.374,5.402,8.159,14.719,11.641,21.593,18.041.542,2.768,1.583,5.28,3.721,7.227Z"/><path class="cls-54" d="m44.081,71.128c1.546-13.195,25.071-30.996,36.476-36.198,1.184.024,2.367.048,3.548.072-.034,1.142-.066,2.285-.099,3.43-3.492.441-5.681,2.571-7.211,5.554-12.778,7.362-22.844,17.276-29.041,30.828-3.507,3.737-1.536,12.935-10.859,10.873.596-.594,1.192-1.188,1.787-1.78,5.181-2.832,3.583-8.525,5.399-12.779Z"/><path class="cls-63" d="m84.006,38.429c.033-1.143.065-2.285.099-3.428,16.19-1.457,31.332-11.577,48.494-5.615,2.758.959,5.967.45,7.507,3.712-4.213-1.926-8.422-.197-12.632.011-9.609-2.913-18.997-4.707-26.213,4.989-1.216,1.634-3.1,2.519-4.6,1.022-4.137-4.126-8.415-1.15-12.654-.691Z"/><path class="cls-88" d="m179.831,58.512c-6.875-6.4-16.191-9.883-21.593-18.041,8.893,3.989,17.682,8.101,21.593,18.041Z"/><path class="cls-15" d="m192.583,129.088c-2.759-1.703-.667-5.809-3.667-7.392,0-6.539,0-13.079,0-19.619-2.194,8.767-4.484,17.294-9.01,25.071-.803-10.258,4.382-20.49.137-30.763,9.669,5.05,6.273-3.348,7.355-7.135,3.261-.338-1.069-7.899,5.159-5.413.39,2.81,1.369,5.338,3.506,7.312.765,8.497,1.846,17.014-1.657,25.231-3.433,3.832-1.087,8.491-1.822,12.709Z"/><path class="cls-83" d="m167.069,58.696c4.085,4.68,7.855,9.357-.132,13.923-1.099.188-2.2.373-3.3.558-3.14-.173-6.307-.229-9.096-1.999-1.585-2.959-2.976-5.88,1.355-7.822,2.896-1.299,4.693-3.286,4.127-6.716,2.349.686,4.698,1.371,7.047,2.057Z"/><path class="cls-33" d="m167.069,58.696c-2.349-.686-4.698-1.371-7.047-2.056-.995-.501-1.99-1.003-2.985-1.504-3.839,10.115-21.232-5.465-20.47-11.05,1.147.026,2.293.053,3.44.079,9.67,3.59,19.339,7.18,29.008,10.771.037,1.608-.497,2.919-1.944,3.76Z"/><path class="cls-80" d="m171.156,76.988c4.455-2.232,9.088-6.156,12.523,1.314-.115,1.785-.229,3.569-.342,5.354-4.839,4.579-8.252-1.332-12.421-1.687-2.656-1.792-.808-3.368.239-4.982Z"/><path class="cls-99" d="m171.156,76.988c-1.047,1.614-2.895,3.19-.239,4.982-.088,2.291-1.328,3.433-3.571,3.573-2.418-2.425-4.837-4.851-7.255-7.276-.315-2.737,2.297-3.439,3.545-5.089,1.101-.186,2.202-.371,3.301-.559,2.672.233,5.76.07,4.22,4.369Z"/><path class="cls-84" d="m183.336,83.655c.114-1.784.228-3.568.343-5.353,3.741.594,9.43-1.934,8.878,5.534-6.229-2.485-1.898,5.076-5.16,5.413-.18-.552-.288-1.118-.326-1.697-.534-1.98-1.946-3.119-3.735-3.898Z"/><path class="cls-38" d="m36.895,85.686c9.322,2.063,7.352-7.136,10.859-10.873-.47,3.211,4.537,5.327,1.801,8.991-6.265,3.692-9.134,8.904-7.278,16.232-2.849,4.286-2.416,8.747-.317,13.063,2.153,4.425-1.707,2.826-3.282,3.546-1.775-.174-3.55-.348-5.325-.524-.96-1.509-2.357-3.63-3.919-3.012-7.324,2.897-4.64-2.739-5.143-5.681.631-.643,1.261-1.287,1.892-1.931,1.108.662,2.214,1.325,3.322,1.986,7.445,8.668,5.705-1.122,5.61-7.396,1.861-4.644-5.39-10.413,1.78-14.401Z"/><path class="cls-60" d="m125.627,157.987c-6.816-.738-31.682-15.842-35.547-10.82-3.838,4.988,30.796,16.856,33.741,18.064,7.441,7.231,13.671-.882,20.258,2.147,8.019,3.688,1.761-.53,3.242,6.824,0,0,0,.008.001.009-7.774,3.263-17.458,3.885-19.969,14.422-4.798.036-9.596.072-14.394.107-2.617-2.969-6.128-1.501-9.263-1.835-15.737-1.674-27.051-7.029-28.759-19.905.148-5.637-2.609-9.085-7.43-12.025-6.726-4.103-13.887-7.698-19.557-13.386-.131-.549-.191-1.105-.181-1.669-5.301-32.7,67.342-3.907,74.237-21.754,10.103-.136,20.849-14.251,13.958-23.024-13.491-17.175-12.381,18.757-13.939,23.043-12.133,1.678-21.79-3.655-30.79-10.852-11.48-16.73,10.884-9.661,21.726-16.292,1.211-1.202,2.422-2.403,3.633-3.605,9.024,1.186,6.849-12.243,15.773-11.828,1.719.08,9.84,11.98,11.188,13.213,14.286,13.07,20.09,12.421,20.085,34.777-4.5,9.477-10.871,14.728-15.442,22.861-4.526,8.054,3.404,5.188-4.007,11.078-1.891,1.503-18.832.451-18.564.45Z"/><path class="cls-26" d="m47.952,141.588c5.669,5.689,12.83,9.284,19.556,13.386,4.82,2.94,7.578,6.388,7.43,12.025-10.847,10.056-21.491-27.348-30.99-18.392-5.898,5.56,19.011,22.601,20.114,27.46-4.209-2.425-8.418-4.85-12.627-7.275-.042-5.788-6.484-7.058-8.911-11.269-3.879-6.727-5.261-11.991-6.567-19.58-4.683-27.21,3.493-7.634,17.213-19.816-1.123-1.825-2.248-3.65-3.372-5.475,6.766-.082,12.854-3.977,19.719-3.505,11.833,9.047,18.542-4.546,28.056,10.827-7.871,0-16.158-1.285-23.944-.998-5.672.209-12.423,4.195-16.938,4.358-1.653.06-5.063,1.799-6.797,1.875,1.024-.045-12.037-3.22-12.706-3.296,2.399,2.584,3.746,4.035,5.094,5.487-9.564,1.418,3.179,20.571,5.671,14.188Z"/><path class="cls-94" d="m64.063,176.067c-1.104-4.858-26.012-21.899-20.114-27.46,9.499-8.956,20.143,28.448,30.99,18.392,1.707,12.876,13.022,18.23,28.758,19.905,3.135.334,6.646-1.134,9.263,1.835-8.448,4.527-16.894-2.225-25.342-.003-9.363-1.417-16.803-6.405-23.556-12.668Z"/><path class="cls-31" d="m160.091,78.267c2.418,2.426,4.836,4.851,7.254,7.277,4.131,3.089,8.262,6.177,12.393,9.266.082.529.184,1.054.305,1.575,4.245,10.273-.94,20.505-.136,30.764-.382,1.284-1.485,3.136-1.007,3.741,1.26,1.595,2.932-.342,4.491-.315-2.309,3.324-4.471,6.764-6.986,9.924-1.331,1.673-3.027,4.132-5.55,1.136-1.367-10.99-12.298,7.529-5.47-9.039,4.809.05,5.499-4.157,7.383-7.13,9.09-18.081,8.304-22.842-5.803-35.676-3.529-3.211-6.842-6.616-8.756-11.109.627-.138,1.255-.276,1.882-.414Z"/><path class="cls-36" d="m165.384,132.595c-6.827,16.569,4.104-1.95,5.471,9.04-10.109,13.471-23.343,19.973-40.356,18.157-1.824-.195-3.596-.256-4.871-1.805-.268,0,16.673,1.053,18.564-.45,7.411-5.89-.519-3.025,4.007-11.078,4.571-8.133,10.942-13.384,15.442-22.861l.013.009c.405,3.029-1.147,6.435,1.73,8.989Z"/><path class="cls-93" d="m147.322,174.201c-1.481-7.354,4.777-3.136-3.242-6.824-6.586-3.029-12.817,5.084-20.258-2.147,10.54-.016,22.166,1.491,32.055-3.05,2.646-1.215,12.709-12.134,14.462-11.846,17.582,2.886-15.544,22.279-23.017,23.867Z"/><path class="cls-93" d="m127.354,188.632c2.512-10.538,12.195-11.16,19.969-14.422-2.843,4.886-3.28,11.814-10.815,12.717-3.052.568-6.103,1.137-9.155,1.705Z"/><path class="cls-26" d="m127.354,188.632c3.051-.569,6.103-1.137,9.155-1.705-11.204,7.915-23.974,5.649-36.21,4.734-4.008-.3-9.064.487-12.679-2.925,8.448-2.221,16.894,4.53,25.342.004,4.798-.036,9.596-.071,14.393-.107Z"/><path class="cls-78" d="m183.391,130.574c-1.559-.027-3.23,1.91-4.491.315-.478-.605.625-2.457,1.007-3.741,4.526-7.778,6.816-16.304,9.01-25.072,0,6.54,0,13.08,0,19.619-2.123,2.785-4.709,5.282-5.526,8.878Z"/><path class="cls-69" d="m49.798,112.651c1.124,1.825,2.248,3.65,3.372,5.475-4.835-.456-9.919,1.522-14.492-1.482,1.575-.719,5.435.881,3.282-3.545-2.099-4.316-2.532-8.777.318-13.062.237,1.962-.154,4.141,1.9,5.473,1.199,1.777,1.404,4.249,3.686,5.27.645.624,1.29,1.248,1.934,1.872Z"/><path class="cls-40" d="m35.115,100.088c.095,6.274,1.836,16.065-5.61,7.396-.304-1.407-4.049-12.833.403-12.983,4.284-.145,1.994,4.384,5.206,5.587Z"/><path class="cls-43" d="m40.443,61.998c3.022,3.623.744,7.328.17,11.007-.981,3.851-1.656,8.017-7.3,7.039-2.124-7.792-1.901-14.656,7.13-18.045Z"/><path class="cls-89" d="m140.005,44.165c-1.147-.026-2.293-.053-3.44-.08-2.493-.138-3.534,1.226-3.663,3.534-17.354-17.664-10.494,4.21-12.909,13.825-4.184,16.662-5.528-1.075-14.262-1.107-9.222-2.362-6.247-10.188-7.276-16.22,4.613-.741,2.292,5.781,6.634,6.043.338-6.718,1.946-12.858,7.772-16.916,6.316,2.801,13.122,2.322,19.741,2.638,6.225.297,8.673,2.591,7.402,8.281Z"/><path class="cls-48" d="m112.861,33.246c-5.826,4.057-7.434,10.198-7.772,16.916-4.342-.263-2.022-6.785-6.634-6.044-4.785-2.627-9.59-.528-14.388-.064-2.424-.022-4.848-.045-7.271-.067,1.53-2.983,3.718-5.113,7.211-5.554,4.24-.461,8.517-3.436,12.654.689,1.501,1.497,3.385.611,4.6-1.022,7.216-9.696,16.604-7.902,26.213-4.989-4.871.045-9.741.091-14.612.137Z"/><path class="cls-37" d="m76.795,43.986c2.424.022,4.848.045,7.271.067-7.514,5.158-11.092,14.331-20.999,17.804-4.234,1.484-17.47,6.324-7.44,17.402.374.413-1.572,2.924-2.437,4.457-.593.107-1.185.214-1.778.321-.618-.077-1.237-.154-1.856-.231,2.736-3.664-2.271-5.78-1.801-8.991,6.197-13.552,16.262-23.465,29.041-30.828Z"/><path class="cls-32" d="m180.043,96.385c-.122-.521-.223-1.046-.304-1.576-.288-5.176,1.165-8.594,7.332-7.256.038.579.147,1.144.326,1.697-1.081,3.788,2.316,12.185-7.354,7.135Z"/><path class="cls-42" d="m132.902,47.619c.129-2.308,1.17-3.672,3.663-3.534-.761,5.586,16.632,21.166,20.471,11.05.995.501,1.99,1.003,2.985,1.504.566,3.43-1.23,5.417-4.127,6.716-4.33,1.942-2.939,4.863-1.354,7.822-6.751-1.574-3.002-10.573-8.985-12.69-1.325-6.986-9.88-5.566-12.653-10.867Z"/><path class="cls-88" d="m145.555,58.487c5.983,2.117,2.234,11.116,8.985,12.69,2.789,1.77,5.955,1.827,9.095,1.999-1.248,1.652-3.86,2.354-3.546,5.091-.627.137-1.254.275-1.882.412-5.618-2.684-10.394-6.44-14.35-11.242,0,0,.083-.034.082-.033.387-2.999-1.166-6.351,1.615-8.918Z"/><path class="cls-47" d="m187.071,87.553c-6.167-1.339-7.62,2.08-7.332,7.256-4.132-3.088-8.263-6.176-12.394-9.265,2.244-.141,3.483-1.283,3.571-3.574,4.169.354,7.582,6.266,12.421,1.686,1.787.778,3.2,1.917,3.733,3.897Z"/><path class="cls-21" d="m49.555,83.805c.618.077,1.237.154,1.856.229.007.53.01,1.061.012,1.593-4.971,5.698-7.144,12.414-7.245,19.883-2.054-1.332-1.663-3.511-1.9-5.473-1.857-7.328,1.012-12.541,7.277-16.233Z"/><path class="cls-49" d="m163.641,123.597c.005-22.356-5.799-21.707-20.085-34.777-1.348-1.233-9.469-13.133-11.188-13.213-8.924-.415-6.749,13.014-15.773,11.828-2.144-2.824-4.401-.241-6.562-.052-4.06.355-6.489-.811-6.112-5.355.6-.621,1.2-1.242,1.801-1.863,13.934-3.343,9.622-11.967,18.15-18.53,8.74-6.726,11.343,2.696,20.069,5.768,0,0-.083.034-.084.034-.012,6.684,6.128,9.593,8.939,14.545-.267,8.96,9.138,7.689,12.524,13.585,4.284,7.459,2.699,20.908-1.668,28.038l-.013-.009Z"/><path class="cls-68" d="m49.798,112.651c-.645-.624-1.29-1.248-1.935-1.87,1.772-9.778,12.07-17.901,22.633-19.627,5.96-.974,14.524,2.173,21.095,1.975,7.167-.216,14.169-2.51,21.37-2.089-10.842,6.631-33.206-.438-21.726,16.292-7.376-1.032-14.459,1.447-21.719,1.814-6.865-.473-12.953,3.423-19.719,3.505Z"/><path class="cls-58" d="m69.517,109.146c7.26-.367,14.343-2.846,21.719-1.814,9,7.197,18.658,12.53,30.79,10.852l-.019-.019c-6.895,17.847-79.538-10.946-74.237,21.754-1.829-4.173-3.659-8.346-5.489-12.519-1.348-1.451-2.695-2.903-5.094-5.487.67.076,13.731,3.251,12.706,3.296,1.734-.076,5.144-1.815,6.797-1.875,4.515-.163,11.266-4.149,16.938-4.358,7.786-.287,16.073.998,23.944.998-9.514-15.374-16.223-1.78-28.056-10.827Z"/><path class="cls-2" d="m112.962,91.041c-7.202-.421-14.203,1.872-21.37,2.089-6.571.198-15.135-2.949-21.095-1.975-10.563,1.726-20.862,9.848-22.633,19.627-2.282-1.022-2.486-3.494-3.686-5.271.101-7.47,2.274-14.185,7.245-19.883,8.356,1.972,17.656-2.817,25.401,3.537,11.006,5.106,19.575.966,27.098-7.135-.377,4.543,2.052,5.71,6.112,5.354,2.161-.189,4.418-2.772,6.562.052-1.211,1.202-2.422,2.404-3.633,3.605Z"/><path class="cls-58" d="m122.026,118.185c1.558-4.286.448-40.218,13.939-23.043,6.891,8.772-3.856,22.888-13.958,23.024,0,0,.019.019.019.019Z"/><path class="cls-96" d="m42.282,127.4c1.83,4.173,3.659,8.346,5.489,12.519-.01.564.05,1.121.181,1.67-2.49,6.383-15.233-12.771-5.669-14.189Z"/><path class="cls-7" d="m152.798,81.983c-2.811-4.952-8.951-7.861-8.939-14.545,3.956,4.802,8.732,8.558,14.35,11.241,1.914,4.495,5.227,7.9,8.756,11.111,14.106,12.834,14.892,17.595,5.802,35.676-2.869-16.122,1.301-37.929-19.969-43.483Z"/><path class="cls-61" d="m152.798,81.983c21.27,5.554,17.1,27.361,19.969,43.483-1.884,2.973-2.574,7.181-7.382,7.13-2.877-2.555-1.326-5.961-1.731-8.99,4.367-7.13,5.952-20.579,1.668-28.038-3.387-5.896-12.791-4.626-12.524-13.585Z"/><path class="cls-91" d="m76.824,89.164c-7.745-6.355-17.045-1.566-25.401-3.537-.001-.532-.005-1.064-.012-1.593.593-.105,1.185-.212,1.778-.318,7.179.329,14.369.376,21.257-1.967,3.359-1.142,6.184-2.961.47-5.22,5.411-5.604,12.449-3.914,18.699-3.271,8.08.832,7.26-2.469,4.869-7.557,2.415-1.788,4.83-3.576,7.245-5.364,8.734.032,10.079,17.769,14.262,1.107,2.414-9.615-4.446-31.489,12.909-13.825,2.773,5.302,11.329,3.882,12.654,10.867-2.781,2.567-1.228,5.918-1.615,8.918-8.725-3.072-11.328-12.494-20.068-5.768-8.528,6.563-4.216,15.187-18.15,18.53,2.01-2.625,4.02-5.251,6.031-7.877-10.998,6.111-26.427,8.011-34.93,16.875Z"/><path class="cls-90" d="m105.731,60.338c-2.415,1.788-4.83,3.576-7.245,5.365-5.361-32.228-26.436,6.394-41.267,8.834,5.9.664,11.799,1.328,17.699,1.992,5.714,2.259,2.889,4.077-.47,5.22-6.888,2.343-14.078,2.296-21.257,1.966.865-1.534,2.811-4.044,2.437-4.458-10.03-11.077,3.206-15.917,7.44-17.402,9.907-3.472,13.485-12.646,20.999-17.804,4.799-.464,9.605-2.562,14.389.065,1.029,6.033-1.946,13.859,7.276,16.221Z"/><path class="cls-87" d="m76.824,89.164c8.503-8.864,23.932-10.764,34.93-16.875-2.01,2.626-4.02,5.251-6.031,7.877-.6.621-1.2,1.242-1.801,1.863-7.524,8.102-16.092,12.242-27.098,7.135Z"/><path class="cls-41" d="m74.917,76.529c-5.9-.664-11.799-1.328-17.699-1.992,14.831-2.44,35.906-41.063,41.267-8.834,2.39,5.088,3.211,8.388-4.869,7.556-6.25-.643-13.289-2.333-18.699,3.271Z"/></svg>