<?xml version="1.0" encoding="UTF-8"?><svg id="Layer_1" xmlns="http://www.w3.org/2000/svg" viewBox="0 0 227.628 217.024"><defs><style>.cls-1{fill:#2f65a3;}.cls-2{fill:#3a54a4;}.cls-3{fill:#cfe8f1;}.cls-4{fill:#244393;}.cls-5{fill:#638dc9;}.cls-6{fill:#5f95ce;}.cls-7{fill:#2c479b;}.cls-8{fill:#66a6da;}.cls-9{fill:#5081c2;}.cls-10{fill:#79b9e1;}.cls-11{fill:#d2edf2;}.cls-12{fill:#5d9ed5;}.cls-13{fill:#9dd6ed;}.cls-14{fill:#2b4090;}.cls-15{fill:#253c7f;}.cls-16{fill:#61abdf;}.cls-17{fill:#6992cc;}.cls-18{fill:#6ba5d6;}.cls-19{fill:#3859a8;}.cls-20{fill:#4e6db4;}.cls-21{fill:#6cbae7;}.cls-22{fill:#283f8a;}.cls-23{fill:#88d1ee;}.cls-24{fill:#2b3880;}.cls-25{fill:#76c1e9;}.cls-26{fill:#6ec2eb;}.cls-27{fill:#537aba;}.cls-28{fill:#6792cb;}.cls-29{fill:#435ba9;}.cls-30{fill:#3952a4;}.cls-31{fill:#2f4396;}.cls-32{fill:#bae4ee;}.cls-33{fill:#485eab;}.cls-34{fill:#68bce9;}.cls-35{fill:#547bbd;}.cls-36{fill:#4973b8;}.cls-37{fill:#72caee;}.cls-38{fill:#90d7ee;}.cls-39{fill:#2b3e94;}.cls-40{fill:#4968b1;}.cls-41{fill:#aee0ec;}.cls-42{fill:#73c4ec;}.cls-43{fill:#94c6e8;}.cls-44{fill:#f5f9fa;}.cls-45{fill:#517abd;}.cls-46{fill:#6d9ad0;}.cls-47{fill:#3457a7;}.cls-48{fill:#5a8fcb;}.cls-49{fill:#9cd6ee;}.cls-50{fill:#60a2d7;}.cls-51{fill:#71b1e1;}.cls-52{fill:#6599d1;}.cls-53{fill:#5190ca;}.cls-54{fill:#67a3d8;}.cls-55{fill:#4e80c1;}.cls-56{fill:#5a9ad3;}.cls-57{fill:#90c4e7;}.cls-58{fill:#314599;}.cls-59{fill:#5f91cc;}.cls-60{fill:#5178b9;}.cls-61{fill:#91d4ee;}.cls-62{fill:#76bbe5;}.cls-63{fill:#77b3e0;}.cls-64{fill:#cceaf3;}.cls-65{fill:#529bd0;}.cls-66{fill:#4e76ba;}.cls-67{fill:#70abdc;}.cls-68{fill:#2c4296;}.cls-69{fill:#ebf6f7;}.cls-70{fill:#e1f2f4;}.cls-71{fill:#66addf;}.cls-72{fill:#a5ddec;}.cls-73{fill:#76ccee;}.cls-74{fill:#74b9e5;}.cls-75{fill:#6ab5e4;}.cls-76{fill:#293885;}.cls-77{fill:#5c86c5;}.cls-78{fill:#3e61ad;}.cls-79{fill:#60a4da;}.cls-80{fill:#205e97;}.cls-81{fill:#365aa9;}.cls-82{fill:#a9deed;}.cls-83{fill:#4667b1;}.cls-84{fill:#5793ce;}.cls-85{fill:#d9eff4;}.cls-86{fill:#4461ac;}.cls-87{fill:#3a50a1;}.cls-88{fill:#6491cc;}</style></defs><path class="cls-60" d="m212.85,46.596c1.621.241,3.242.482,4.863.722.037.484.157.947.36,1.389-1.352.952-2.704,1.904-4.056,2.856-3.576.025-4.274,2.359-4.242,5.279-1.055.559-2.111,1.119-3.166,1.678-.637-2.709,1.682-5.453-.096-8.149.533-.51,1.067-1.021,1.6-1.531,1.579-.748,3.158-1.496,4.737-2.244Z"/><path class="cls-67" d="m84.792,9.896c.559,1.005,1.118,2.011,1.677,3.017.335,3.497,1.797,7.64-4.824,5.232-2.462-.896-5.832-1.398-8.187,1.303-.506.25-1.025.278-1.555.083-.881-5.159-3.269-13.477-9.206-14.506-.632,3.768-.064,5.775-3.566,4.927-1.866-14.664,3.78-10.251,11.054-4.863,3.485,5.802,9.304,4.522,14.608,4.807Z"/><path class="cls-25" d="m59.13,9.952c3.502.848,2.935-1.159,3.566-4.927,5.937,1.028,8.325,9.346,9.206,14.506-3.402,3.717-3.691,8.141-2.912,12.807,3.142,8.652,4.717,9.126,11.644,3.776,1.205-.931,2.826-1.326,4.255-1.968,3.106,1.313-1.471,4.226,1.051,6.25,4.254,3.415,6.397-3.157,9.521-3.73,8.866-1.626,19.883.808,28.306-2.517,6.671,1.929,12.216,5.946,17.93,9.649-7.233,1.32-12.342-6.023-19.555-4.787-13.846-4.736-31.05,4.21-45.311,4.468-16.312.296-16.856,8.419-24.465,23.041-.543.011-1.086.023-1.63.034.013-2.707.026-5.415.039-8.122.62-3.213,1.241-6.426,1.861-9.64,6.634-2.577,12.656-30.506,4.433-34.016-.497-.03-.987-.104-1.471-.222,1.177-1.534,2.354-3.068,3.531-4.602Z"/><path class="cls-8" d="m219.496,144.316c-.666,2.811,1.762,6.727-3.047,8.051-7.965,2.193-2.003,10.113-9.813,8.088-1.064-1.092-2.129-2.183-3.193-3.275-.069-1.565-.138-3.13-.208-4.695-6.14-9.735-6.797-9.8-13.558-1.929-1.177,1.371-2.82,2.343-4.248,3.499,2.089-5.255,6.648-9.776,4.822-16.195,3.3-2.663,3.416-6.361,3.39-10.154-.066-9.579-.069-19.158-.097-28.737.004-2.163.009-4.325.013-6.488,3.864,2.63,7.132,5.854,9.742,9.737,2.434,5.183-3.988,8.813-.91,15.771,5.09,11.51,13.59,14.227,23.659,16.572.519.082,1.023.217,1.513.407.942,1.637-8.143,3.939-8.064,9.347Z"/><path class="cls-45" d="m227.56,134.969c-.49-.19-.994-.326-1.513-.407-4.166-7.751-16.968-6.812-17.929-17.789,3.88-1.01,5.269-1.915,3.206-6.868-1.367-3.283-6.556-4.76-4.722-9.391,5.437,3.248,8.345,8.982,12.895,13.102-.823,7.974-.983-1.995-4.309,6.442-.939,2.382,7.475,7.956,7.979,8.039,1.459,1.223,2.918,2.446,4.377,3.669.005,1.067.011,2.135.016,3.202Z"/><path class="cls-62" d="m60.372,207.609c-2.344-1.206-3.102-.362-3.199,2.123-.095,2.446.952,5.129-1.102,7.293-1.108-3.72-2.216-7.437-3.325-11.155.046-1.015.092-2.029.139-3.043,1.382-3.211,1.99-8.322-.243-11.49-.098-.14-9.947-6.418-9.4-3.281.605-1.235,1.152-2.494,1.64-3.78.094,1.316-13.871-12.515-14.965-12.368,0,0-.185-.02-.185-.02-1.708-4.591,2.235-8.368,1.842-12.77,1.443-1.354,2.124-3.694,5.151-2.439,4.211,1.746,4.161-1.675,4.483-4.358.422.104.843.213,1.265.324.935,9.664,3.977,18.698,8.207,27.377,2.381,4.864,3.902,11.241,11.67,6.62-.036.919-.072,1.837-.108,2.756-1.97,5.337-5.486,10.553-1.273,16.37-.199.614-.398,1.228-.597,1.842Z"/><path class="cls-53" d="m29.916,171.907c1.094-.148,15.059,13.684,14.965,12.368-.488,1.285-1.035,2.545-1.64,3.78-.547-3.137,9.302,3.141,9.4,3.281,2.233,3.169,1.625,8.279.243,11.49-.212-1.055-.425-2.109-.637-3.164-.022-5.818-1.826-9.197-8.774-8.531-6.677.64-4.847,4.327-3.936,8.077v.432c-3.876,2.527-6.519-2.112-10.027-1.722.529-3.805,1.058-7.611,1.586-11.416,1.019-4.979-.023-9.791-1.181-14.594Z"/><path class="cls-88" d="m206.513,50.372c1.778,2.696-.541,5.44.096,8.148-.103.47-.167.945-.192,1.426-7.437,8.847-19.336-8.174-29.42,1.241,7.755.35,10.755,4.305,11.62,10.277-3.356-2.527-6.334-5.902-11.221-4.996-1.58-1.8-3.14-3.619-4.744-5.398-2.013-2.233-1.63-3.75,1.292-4.569,3.3-.634,6.6-1.269,9.899-1.903-8.368-.69-15.888-5.772-24.439-4.168-1.667-.38-3.638.285-4.915-1.433-1.527-1.762-2.441-3.505.139-5.155,3.407,4.704,9.091.419,12.965,3.279,11.429,6.147,23.418,6.337,35.705,3.345,1.072-.032,2.143-.063,3.215-.095Z"/><path class="cls-2" d="m206.416,59.945c.025-.481.089-.956.193-1.425,1.056-.559,2.111-1.119,3.167-1.678.483,3.425-1.035,6.493-1.735,9.706-5.013-.109-7.204,1.784-4.826,6.856,4.613,9.839,5.908,20.923,11.447,30.413-4.095-1.311-4.429-6.383-8.116-8.102-2.066-4.07-9.837-21.067-9.003-25.131,1.215-5.917,9.731-4.864,8.873-10.639Z"/><path class="cls-31" d="m206.513,50.372c-1.072.032-2.143.063-3.215.094-4.327-.068-8.654-.134-12.981-.201-6.806-6.196-11.71-14.645-21.094-17.791,1.661-2.532,3.396-.266,5.099-.079,2.109-1.567,4.148.245,6.227.128,0,0,.01.013.01.013.729,4.203,5.834,4.727,7.142,8.229,2.845,7.614,8.679,8.683,15.628,7.761,1.595.104,3.19.209,4.784.314-.535.511-1.068,1.022-1.601,1.532Z"/><path class="cls-87" d="m112.986,214.902c-.21-.858-.421-1.716-.631-2.572,1.051-1.754,1.436-3.19-1.465-3.053-3.429-.049-7.045.58-10.247-.297-5.456-1.495-12.261-.049-15.798-6.362,2.393-3.001,25.388,3.546,31.031,3.325,12.993-.509,26.014-4.118,38.732-6.512-.003.545-.006,1.089-.009,1.634-3.546,2.936-7.344,4.489-12.147,5.311-7.278,1.247-15.017.694-21.847,4.285-1.448.096-2.721.514-3.475,1.887-2.185-.627-2.921,1.294-4.146,2.355Z"/><path class="cls-24" d="m117.132,212.548c.754-1.373,2.027-1.79,3.474-1.886,3.79.434,7.089,5.906,10.983,2.319,4.6-4.236,9.67-3.903,15.016-3.695-6.894,4.654-14.659,6.242-22.809,6.476-1.247-.484-2.527-1.851-3.686.132-.994-1.117-1.986-2.232-2.978-3.347Z"/><path class="cls-84" d="m3.597,133.027c-1.494.098-2.888-.024-3.597-1.642,2.136-2.218,4.273-4.436,6.412-6.655,3.358.187,3.426-3.373,5.417-4.741,2.304,7.234,8.094,10.565,14.634,13.058-.536,1.063-1.073,2.126-1.609,3.19-6.473-5.123-13.971-3.47-21.257-3.209Z"/><path class="cls-1" d="m10.075,113.433c1.914.305,3.733.272,5.075-1.439,1.038-.12,2.076-.239,3.114-.356.58-.442,1.16-.887,1.74-1.332.477.469.954.938,1.431,1.407-1.058,1.043-2.116,2.086-3.173,3.129-3.177.427-7.141-.129-6.433,5.147-1.991,1.368-2.059,4.928-5.417,4.741,2.857-3.234,1.171-7.942,3.662-11.296Z"/><path class="cls-35" d="m84.889,34.146c-1.429.642-3.049,1.037-4.255,1.968-6.926,5.35-8.502,4.876-11.644-3.776,12.633,4.948,27.448-12.909,4.468-12.89,2.356-2.7,5.725-2.198,8.187-1.303,6.621,2.408,5.16-1.735,4.824-5.232.644.492,1.289.984,1.934,1.479.378.659.755,1.315,1.134,1.972.245,2.662,2.374,4.241,3.637,6.318.451.593.904,1.185,1.357,1.778,5.038,10.251,27.708-4.09,32.525,6.451-1.882,2.217-4.359,1.775-6.65,1.209-12.064-2.979-23.693,1.152-35.517,2.025Z"/><path class="cls-47" d="m73.457,19.448c22.98-.019,8.166,17.838-4.468,12.89-.778-4.666-.489-9.09,2.913-12.807.53.195,1.049.167,1.555-.083Z"/><path class="cls-82" d="m154.489,48.998c1.277,1.716,3.249,1.052,4.916,1.431,2.728,1.59,5.456,3.181,8.184,4.772.013,3.128-.478,6.457,3.237,8.11-.944,5.309-2.928,5.205-6.899,2.043-5.836-4.646-11.433-9.908-19.046-11.773-2.235-.281-4.775.699-6.527-1.578-5.514-6.397-35.417,1.015-41.768,4.294-7.765,4.009-8.759,9.217-13.433,15.506-5.418,7.29-10.247,10.707-19.381,14.175-4.951-1.926-7.447-1.026-8.595,4.976-1.761,9.203-5.158,18.082-6.036,27.513-2.832-7.485-2.251-28.685,1.682-37.25,2.454.063,5.699-.106,6.529-2.088,3.769-9,11.741-12.984,19.405-17.453,8.449,1.257,15.589-10.256,23.589-12.597,9.327-2.729,16.078.913,21.795-10.068,7.212-1.236,12.322,6.107,19.554,4.787,4.119,2.09,8.019,4.717,12.793,5.2Z"/><path class="cls-64" d="m122.142,39.011c-5.717,10.981-12.468,7.338-21.795,10.068-8.001,2.341-15.14,13.855-23.589,12.597,3.757-8.985,27.58-13.824,7.397-16.339-5.799-.722-14.503,1.503-19.081,5.148-5.17,4.117-4.994,13.183-10.958,16.089-.584-.018-1.167-.036-1.751-.054,7.61-14.622,8.154-22.745,24.466-23.041,14.261-.258,31.465-9.204,45.311-4.468Z"/><path class="cls-78" d="m52.636,48.792c-.62,3.213-1.241,6.426-1.861,9.64-4.161,3.125-3.135,11.243-9.97,11.387-6.111.129-6.887,3.273-6.402,8.024-.453,10.966-5.502,20.188-11.097,29.203-5.663-6.227,6.024-26.368,8.877-32.62,4.958-10.865,13.216-25.172,21.512-33.872,1.179,2.942-1.477,5.393-1.059,8.238Z"/><path class="cls-77" d="m34.402,77.844c-.483-4.752.292-7.896,6.403-8.025,6.835-.144,5.809-8.262,9.97-11.387-.013,2.707-.027,5.415-.039,8.122-3.173,5.952-6.346,11.904-9.521,17.857-5.734,1.71-1.125,9.47-6.629,11.313-.062-5.96-.123-11.92-.185-17.88Z"/><path class="cls-12" d="m84.889,34.146c11.824-.874,23.453-5.004,35.517-2.025,2.291.566,4.768,1.008,6.65-1.209.536-.006,1.072-.014,1.608-.025.554,1.064,1.109,2.127,1.663,3.191-2.187.024-4.373.047-6.56.071-8.423,3.325-19.44.892-28.306,2.517-3.124.573-5.267,7.145-9.521,3.73-2.521-2.024,2.056-4.937-1.051-6.25Z"/><path class="cls-50" d="m52.636,48.792c-.418-2.845,2.237-5.295,1.06-8.238.584-2.168,1.166-4.337,1.749-6.505-.023-1.079-.046-2.158-.069-3.237-.344-5.441,3.887-10.4,1.694-16.036,8.223,3.51,2.2,31.439-4.433,34.016Z"/><path class="cls-18" d="m123.766,34.148c2.187-.024,4.373-.047,6.559-.07,9.925-1.278,14.939,9.648,24.303,9.764-2.58,1.65-1.666,3.393-.139,5.155-4.774-.481-8.674-3.108-12.793-5.198-5.714-3.703-11.259-7.721-17.93-9.65Z"/><path class="cls-3" d="m41.217,84.41c3.173-5.952,6.347-11.905,9.52-17.857.543-.011,1.086-.022,1.629-.033.583.018,1.167.036,1.75.053-1.105,2.69-2.209,5.38-3.314,8.07-2.825,1.42-3.808,4.098-5.322,6.686-3.837,6.56-2.268,14.992-7.678,20.86-.035-1.103-.07-2.206-.103-3.309,1.174-4.823,2.346-9.647,3.519-14.47Z"/><path class="cls-76" d="m41.078,50.346c.017-2.326.035-4.654-3.178-4.878,6.079-4.583,10.055-11.669,17.475-14.656.023,1.079.046,2.158.069,3.237-3.539.314-5.056,3.428-7.467,5.322-3.641,2.86-2.409,8.704-6.899,10.975Z"/><path class="cls-58" d="m154.601,201.065c.003-.545.006-1.089.009-1.634,1.26-.668,1.655-1.815,1.736-3.136,2.19-.979,3.588-3.42,6.311-3.414,3.466.553,6.55-.915,8.959-2.866,9.383-7.596,16.997-16.695,21.915-27.854,2.36-3.535,1.991-12.492,9.911-4.981,1.064,1.092,2.129,2.183,3.193,3.275-.057.615-.113,1.23-.169,1.845-4.057-2.685-12.685,10.087-15.39,13.716-9.054,12.142-11.137,13.66-24.948,20.259-4.622-.276-7.156,4.465-11.527,4.789Z"/><path class="cls-88" d="m206.602,100.514c-1.835,4.631,3.354,6.109,4.722,9.392,2.063,4.953.674,5.858-3.205,6.868-6.422-3.259-.613-10.563-4.819-14.555-2.61-3.883-5.878-7.107-9.742-9.737-.097-2.669.256-5.448-1.976-7.569-3.73-3.545-3.572-7.551-1.362-11.788,4.748.982,6.821,3.307,6.776,8.72-.06,7.078,2.638,13.491,9.5,17.166.029.502.065,1.003.107,1.504Z"/><path class="cls-20" d="m203.442,157.18c-7.92-7.511-7.551,1.446-9.91,4.981-7.682,6.54-16.653,11.967-19.55,22.633-1.201-6.351,4.101-11.461,3.39-17.719.502-.576,1.004-1.152,1.507-1.729,4.758-2.303,7.215-6.91,10.367-10.723,4.223-5.109,8.409-7.354,13.99-2.138.069,1.565.138,3.13.208,4.695Z"/><path class="cls-6" d="m203.299,102.218c4.207,3.992-1.603,11.296,4.819,14.555.96,10.977,13.762,10.038,17.928,17.789-10.068-2.346-18.568-5.063-23.658-16.573-3.077-6.959,3.344-10.589.91-15.771Z"/><path class="cls-74" d="m190.219,73.124c-2.21,4.237-2.368,8.243,1.362,11.788,2.232,2.121,1.878,4.9,1.976,7.569-.004,2.163-.009,4.325-.013,6.488-3.682-.672-2.184-6.414-6.418-6.545.752-4.468-1.54-8.518-1.774-12.851,1.306-6.849-6.607-7.844-8.181-12.863l.225-.243c4.887-.905,7.865,2.47,11.221,4.997.534.553,1.068,1.107,1.602,1.661Z"/><path class="cls-23" d="m187.126,92.423c4.233.132,2.736,5.874,6.418,6.546.028,9.579.031,19.159.097,28.737.026,3.793-.09,7.492-3.389,10.154-.526-.011-1.053-.016-1.58-.014.19-2.243-.703-4.751,1.587-6.481,3.602-8.942,1.052-18.207,1.361-27.319.056-1.657-1.474-2.724-2.974-3.445-2.618-2.335-1.276-5.404-1.519-8.179Z"/><path class="cls-5" d="m203.235,152.486c-5.581-5.217-9.767-2.971-13.99,2.138-3.152,3.814-5.609,8.42-10.366,10.724.002-1.073.003-2.146.005-3.219.634-1.54,1.268-3.08,1.902-4.621,2.363-.056,3.016-2.409,4.643-3.452,1.428-1.156,3.07-2.128,4.248-3.499,6.761-7.871,7.418-7.806,13.558,1.929Z"/><path class="cls-57" d="m185.429,154.056c-1.628,1.043-2.281,3.396-4.644,3.451-.015-4.037,3.74-6.325,4.62-9.947,3.207-2.526,3.339-6.086,3.267-9.713.527-.002,1.054.003,1.58.014,1.825,6.419-2.734,10.94-4.823,16.195Z"/><path class="cls-22" d="m222.71,111.976c2.974,5.294-1.189,10.787.454,16.119-.501-.081-8.915-5.656-7.976-8.038,3.326-8.437,3.486,1.532,4.309-6.443-.004-1.088-.007-2.176-.011-3.264.057-1.688.114-3.375.171-5.063,2.321,1.635.546,5.137,3.053,6.688Z"/><path class="cls-19" d="m219.486,110.352c.004,1.088.007,2.175.011,3.264-4.55-4.119-7.458-9.853-12.895-13.101-.042-.501-.078-1.003-.107-1.505.017-1.098.034-2.196.05-3.294,3.687,1.718,4.022,6.791,8.116,8.102,1.608,2.178,3.216,4.357,4.824,6.535Z"/><path class="cls-39" d="m219.486,110.352c-1.608-2.178-3.216-4.356-4.824-6.535-5.539-9.49-6.834-20.574-11.447-30.413-2.378-5.072-.187-6.965,4.826-6.856,1.193,9.349,2.934,18.563,6.699,27.284,4.966,2.394,1.959,8.204,4.918,11.456-.057,1.688-.114,3.375-.171,5.063Z"/><path class="cls-27" d="m11.882,135.918c-2.079-1.351-4.344-1.741-6.772-1.311-.506-.527-1.009-1.053-1.512-1.58,7.286-.261,14.784-1.914,21.257,3.209-.559,1.641-1.117,3.282-1.675,4.922-.508-.047-1.016-.09-1.525-.128-2.167-3.785-6.284-3.849-9.772-5.112Z"/><path class="cls-11" d="m62.35,186.641c-7.769,4.621-9.29-1.756-11.669-6.62,2.339.816,3.794,3.468,6.655,3.198,10.743.672,23.217,5.894,17.706-7.919-4.003-10.031-19.727-15.747-24.268-27.666.014-1.101.027-2.203.04-3.304,5.925,7.052,11.849,14.104,17.774,21.155,4.838,4.608,10.216,8.44,16.276,11.289,2.495,5.62,26.752,7.002,32.648,6.747,12.457-.54,23.612-6.599,33.861-13.248,5.552-1.819,12.109-3.004,6.676-11.945,3.647.719,6.797,1.031,9.496-1.112.435,3.806-10.26,21.11,6.609,8.22-.27,4.522-5.014,5.986-6.587,9.617-10.527.438-23.008,11.113-34.466,13.183-14.432,2.607-29.268,4.19-43.601.047-6.47.236-12.65-2.706-19.186-1.744-2.655.033-5.31.067-7.966.1Z"/><path class="cls-85" d="m50.815,144.33c-.014,1.101-.027,2.203-.04,3.304-4.763-1.004-3.438-8.126-9.804-9.316,2.306,5.092,1.569,9.608,1.827,14.071l-.327.257c-.42-.113-.841-.222-1.264-.325.523-5.141-2.458-9.54-3.068-14.441,3.17-8.728-2.137-17.32-.419-26.025,2.747-3.198-4.905-6.485.082-9.665,5.41-5.868,3.841-14.3,7.678-20.86,1.514-2.588,2.497-5.266,5.322-6.686.007,2.191.014,4.382.022,6.573-3.933,8.565-4.514,29.765-1.681,37.25,3.08,8.458-2.186,17.456,1.673,25.864Z"/><path class="cls-40" d="m62.35,186.641c2.655-.033,5.31-.067,7.965-.1,11.517,5.16,23.24,12.403,35.757,14.883,11.897,2.357,23.654-1.892,35.493-3.671,4.956-.199,9.723-2.307,14.782-1.457-.082,1.32-.477,2.467-1.737,3.135-12.719,2.394-25.739,6.003-38.732,6.512-5.643.221-28.638-6.326-31.031-3.324-1.051-.055-2.887.187-3.038-.212-3.196-8.39-12.666-6.24-18.042-10.86-.508-.717-1.016-1.434-1.524-2.151.036-.919.072-1.837.108-2.756Z"/><path class="cls-28" d="m38.14,137.879c.608,4.902,3.59,9.3,3.066,14.442-.322,2.683-.271,6.103-4.483,4.357-3.027-1.255-3.708,1.085-5.153,2.438.726-5.101,3.18-10.408-1.777-14.829-1.443-2.653-5.183-.454-6.616-3.128.559-1.641,1.117-3.282,1.676-4.922.537-1.063,1.073-2.126,1.61-3.19,3.552,1.809,6.103,7.133,11.289,3.209.13.541.258,1.082.387,1.624Z"/><path class="cls-15" d="m62.242,189.397c.508.717,1.016,1.434,1.524,2.149.678,4.428,4.214,6.211,7.476,8.434,3.532,2.406,8.34,3.026,10.522,7.35l-.191.328c-4.465-1.776-9.311-2.952-13.302-5.477-5.201-3.29-6.041.056-7.302,3.588-4.213-5.818-.697-11.035,1.273-16.372Z"/><path class="cls-85" d="m57.336,183.219c-2.861.27-4.316-2.382-6.655-3.198-4.232-8.679-7.273-17.713-8.208-27.377-.002.002.325-.256.324-.255,5.635,9.905,4.575,22.964,14.54,30.83Z"/><path class="cls-66" d="m29.795,144.286c4.956,4.421,2.502,9.728,1.776,14.829.395,4.403-3.549,8.18-1.84,12.771-.966-1.087-1.932-2.174-2.901-3.262-.055-2.079-.107-4.157-.159-6.235,3.13-.649,3.127-3.047,3.114-5.495-.022-4.203.004-8.406.01-12.609Z"/><path class="cls-80" d="m52.246,199.661c-3.947-8.338-8.483-.129-12.712-.453-.908-3.752-2.739-7.439,3.938-8.078,6.948-.665,8.752,2.714,8.774,8.531Z"/><path class="cls-83" d="m206.545,95.715c-.017,1.098-.033,2.196-.05,3.294-6.862-3.675-9.56-10.088-9.5-17.166.046-5.413-2.027-7.738-6.776-8.72-.534-.553-1.068-1.107-1.602-1.66-.866-5.971-3.865-9.927-11.62-10.276,10.084-9.415,21.983,7.606,29.42-1.241.856,5.774-7.659,4.721-8.874,10.638-.835,4.064,6.937,21.061,9.003,25.131Z"/><path class="cls-35" d="m154.628,43.842c-9.364-.116-14.378-11.042-24.303-9.764-.554-1.064-1.109-2.128-1.663-3.191,7.001-.481,14.002-.963,21.003-1.444.05,1.285.321,2.457,1.587,3.125,3.088,3.881,5.881,7.969,11.63,8.448,2.227.186,4.598,1.434,4.721,4.447-.003.552-.007,1.105-.01,1.657-3.874-2.861-9.558,1.425-12.965-3.279Z"/><path class="cls-60" d="m167.593,47.121c.004-.552.007-1.105.01-1.657,4.745-.563,8.225,3.825,12.959,3.309,2.912,2.717,6.47,1.214,9.755,1.492,4.327.067,8.654.134,12.981.201-12.287,2.992-24.276,2.802-35.705-3.345Z"/><path class="cls-10" d="m167.589,55.201c-2.728-1.591-5.456-3.182-8.184-4.772,8.55-1.604,16.071,3.478,24.438,4.168-3.3.634-6.6,1.269-9.897,1.906-1.947-1.259-3.578-4.073-6.357-1.303Z"/><path class="cls-74" d="m167.589,55.201c2.779-2.77,4.41.044,6.357,1.303-2.924.816-3.308,2.332-1.295,4.566,1.604,1.779,3.164,3.598,4.744,5.398,0,0-.225.243-.223.241-2.115-1.134-4.231-2.265-6.347-3.397-3.714-1.653-3.223-4.982-3.237-8.11Z"/><path class="cls-33" d="m154.611,27.654c5.339.19,8.05,8.336,14.613,4.82,9.383,3.146,14.287,11.595,21.094,17.791-3.285-.278-6.844,1.225-9.755-1.493-4.166-3.899-7.751-9.683-12.654-11.193-5.468-1.684-11.041-3.552-16.656-5.011-1.266-.668-1.537-1.84-1.586-3.127.03-.589.059-1.176.088-1.764,1.619-.008,3.238-.016,4.857-.024Z"/><path class="cls-68" d="m154.285,208.909c-2.561.125-5.121.25-7.681.376-5.345-.207-10.416-.54-15.015,3.696-3.895,3.587-7.194-1.885-10.983-2.319,6.831-3.592,14.57-3.039,21.848-4.286,4.803-.823,8.602-2.375,12.147-5.311,4.371-.324,6.905-5.064,11.527-4.789-.829,1.572,4.961,8.026-3.618,4.38-2.083-.885-6.689,4.116-8.224,8.253Z"/><path class="cls-14" d="m110.89,209.277c-5.206,5.18-11.118,4.342-16.926,1.562-3.927-1.88-7.851-3.319-12.202-3.508-2.18-4.326-6.989-4.946-10.52-7.352-3.262-2.223-6.798-4.006-7.476-8.434,5.375,4.622,14.846,2.472,18.042,10.862.152.398,1.987.156,3.038.212,3.537,6.313,10.342,4.867,15.797,6.362,3.202.877,6.817.248,10.247.297Z"/><path class="cls-71" d="m37.752,136.255c-5.185,3.924-7.736-1.4-11.288-3.209-6.54-2.492-12.331-5.824-14.634-13.057-.708-5.275,3.256-4.72,6.432-5.145-2.073,7.967,2.772,12.88,14.716,14.923,2.82,1.26,5.538,2.595,4.774,6.488Z"/><path class="cls-7" d="m41.078,50.346c4.491-2.271,3.258-8.115,6.899-10.975,2.412-1.894,3.928-5.008,7.467-5.322-.583,2.168-1.166,4.336-1.749,6.505-8.296,8.7-16.555,23.007-21.513,33.872-2.853,6.252-14.539,26.393-8.877,32.621-1.101,1.087-2.201,2.173-3.302,3.259-.58.445-1.16.89-1.74,1.332,1.518-22.694,8.279-43.438,22.814-61.292Z"/><path class="cls-42" d="m32.979,129.767c-11.944-2.043-16.79-6.957-14.716-14.923,1.058-1.044,2.115-2.087,3.175-3.129,6.236-.346,7.892-6.074,11.37-9.659,1.63-1.059,3.259-2.117,4.889-3.176.035,1.103.07,2.207.104,3.31-4.988,3.179,2.664,6.466-.081,9.665-.576-.04-1.153-.081-1.73-.122-.6-7.048-15.645,9.69-1.589,8.083-4.935,2.68-3.264,6.303-1.423,9.951Z"/><path class="cls-36" d="m32.808,102.056c-3.479,3.585-5.134,9.313-11.37,9.659-.479-.471-.956-.94-1.433-1.409,1.1-1.086,2.201-2.173,3.302-3.259,5.596-9.015,10.645-18.237,11.098-29.203.06,5.96.122,11.92.183,17.88-.593,2.111-1.186,4.222-1.779,6.333Z"/><path class="cls-86" d="m149.754,27.678c-.029.587-.058,1.174-.088,1.764-7.002.483-14.003.964-21.004,1.446-.536.011-1.072.019-1.608.025-4.817-10.541-27.487,3.8-32.524-6.452,5.367-.112,10.872.51,16.071-.477,13.501-2.562,26.38-.463,39.151,3.695Z"/><path class="cls-30" d="m149.754,27.678c-12.771-4.158-25.65-6.257-39.151-3.695-5.2.987-10.705.365-16.071.477-.453-.592-.906-1.184-1.357-1.777,15.028-2.132,30.072-4.004,45.308-3.128,6.557.377,11.91,3.098,16.129,8.1-1.619.008-3.238.016-4.857.024Z"/><path class="cls-73" d="m63.773,85.978c9.134-3.468,13.963-6.884,19.381-14.175,4.674-6.289,5.668-11.497,13.433-15.506,6.351-3.279,36.254-10.692,41.768-4.295-4.236-.487-4.952,6.143-9.633,4.76-1.49-5.101-5.527-3.369-8.502-2.628-4.674,1.163-6.546,5.789-9.383,9.171-15.686-12.236-18.303,6.379-26.346,15.313-.253.281-38.63,25.629-22.173,28.466,3.264.563,4.033-2.908,8.971-1.108,4.42,1.611,12.441,5.142,15.181,9.22-2.379,18.255-5.055,18.287-10.373,2.468-5.468,1.713-9.228,7.512-15.554,5.611-3.123-3.91-1.407-9.035-3.38-13.271-3.541-7.603-.29-19.157,6.611-24.026Z"/><path class="cls-69" d="m50.823,81.217c-.007-2.191-.014-4.382-.022-6.573,1.104-2.69,2.209-5.38,3.314-8.07,5.964-2.905,5.788-11.972,10.959-16.088,4.578-3.645,13.282-5.87,19.081-5.148,20.183,2.514-3.639,7.354-7.397,16.339-7.664,4.469-15.636,8.453-19.405,17.453-.83,1.982-4.075,2.151-6.529,2.088Z"/><path class="cls-38" d="m63.773,85.978c-6.901,4.869-10.152,16.423-6.611,24.026,1.973,4.236.257,9.362,3.38,13.271-5.703,6.83-4.328,17.966,3.205,25.975,1.082,1.614,2.165,3.227,3.247,4.841-1.331,4.059,5.213,7.018,1.593,11.396-5.925-7.052-11.849-14.104-17.774-21.156-3.858-8.409,1.407-17.406-1.673-25.864.877-9.43,4.275-18.309,6.036-27.512,1.148-6.002,3.645-6.902,8.595-4.976Z"/><path class="cls-23" d="m170.825,63.311c2.116,1.132,4.232,2.264,6.347,3.397,1.573,5.021,9.486,6.016,8.181,12.864-16.063-11.919-6.24,3.543-6.429,9.684-4.218-2.039-3.192,2.224-4.257,3.721-1.847,2.597-3.008,3.222-3.833-.501.853-10.152-5.991-25.837-16.142-26.003-3.27-4.297-6.541-8.594-9.811-12.892,7.613,1.865,13.21,7.127,19.046,11.773,3.971,3.161,5.955,3.265,6.899-2.043Z"/><path class="cls-21" d="m144.881,53.581c3.27,4.297,6.541,8.594,9.81,12.893,0,0-.11.112-.11.112-4.048.945-7.999-3.912-10.261-2.691-9.043,4.882-10.822-4.099-15.683-7.042l.086-.091c4.681,1.384,5.396-5.246,9.633-4.759,1.751,2.278,4.291,1.297,6.526,1.579Z"/><path class="cls-52" d="m32.808,102.056c.593-2.111,1.186-4.222,1.779-6.333,5.505-1.843.896-9.603,6.629-11.313-1.172,4.824-2.344,9.647-3.518,14.47-1.631,1.058-3.26,2.117-4.89,3.175Z"/><path class="cls-29" d="m173.98,184.794c2.899-10.665,11.87-16.093,19.551-22.633-4.918,11.159-12.532,20.258-21.915,27.854-2.41,1.951-5.493,3.419-8.959,2.867,1.524-3.708,6.062-3.504,8.253-6.345,1.023-.581,2.046-1.162,3.07-1.743Z"/><path class="cls-55" d="m170.911,186.537c-2.192,2.842-6.729,2.637-8.253,6.345-2.724-.007-4.122,2.434-6.312,3.413-5.058-.849-9.826,1.259-14.781,1.459.011-.526.021-1.053.031-1.58,4.199-2.051,9.904.248,13.152-4.547,4.254-1.764,8.508-3.529,12.762-5.293,1.134.068,2.267.136,3.401.204Z"/><path class="cls-17" d="m170.911,186.537c-1.134-.068-2.267-.136-3.401-.202,5.481-2.741,5.106-7.808,5.066-12.741,1.598-2.173,3.197-4.345,4.795-6.518.711,6.258-4.591,11.368-3.39,17.719-1.024.58-2.047,1.161-3.071,1.742Z"/><path class="cls-43" d="m177.371,167.075c-1.598,2.173-3.197,4.345-4.796,6.517-1.648,1.592-3.295,3.184-4.942,4.776-.022-1.105-.043-2.21-.065-3.315,1.573-3.632,6.317-5.095,6.586-9.618,1.576-1.103,3.152-2.206,4.728-3.309-.001,1.073-.003,2.146-.004,3.219-.503.576-1.005,1.152-1.507,1.728Z"/><path class="cls-41" d="m178.924,89.256c.189-6.141-9.634-21.603,6.429-9.684.233,4.334,2.524,8.383,1.773,12.851.244,2.775-1.098,5.844,1.52,8.178.555,3.235,1.11,6.469,1.665,9.704-2.492-.219-3.204,2.237-4.881,3.242-2.975-6.153,1.138-14.051-4.802-19.473-.568-1.606-1.135-3.212-1.703-4.818Z"/><path class="cls-32" d="m185.429,113.548c1.677-1.005,2.39-3.461,4.882-3.242-.017,7.02-.034,14.04-.051,21.059-2.29,1.73-1.397,4.238-1.587,6.481.071,3.627-.061,7.187-3.267,9.713.261-2.093.22-4.281.84-6.262,1.72-5.492-.075-8.748-5.689-9.936.014-2.689.027-5.377.041-8.066,1.611-3.249,3.221-6.499,4.832-9.748Z"/><path class="cls-61" d="m190.259,131.366c.017-7.02.034-14.04.051-21.059-.555-3.235-1.11-6.47-1.665-9.704,1.5.721,3.03,1.788,2.974,3.445-.309,9.112,2.242,18.376-1.361,27.319Z"/><path class="cls-70" d="m180.556,131.362c5.614,1.188,7.409,4.444,5.689,9.936-.62,1.981-.579,4.169-.84,6.262-.88,3.622-4.635,5.91-4.62,9.947-.633,1.541-1.267,3.081-1.902,4.621-1.577,1.103-3.153,2.205-4.728,3.308-16.868,12.89-6.173-4.414-6.608-8.219.04-.501.08-1.002.121-1.504,8.74-5.769,8.885-16.081,12.89-24.353h-.002Z"/><path class="cls-4" d="m26.671,162.39c.052,2.078.104,4.156.159,6.235-4.129-4.187-1.662-10.142-4.265-15.08-3.229-6.128-3.373-13.948-10.681-17.625,3.487,1.261,7.604,1.325,9.771,5.11.997,2.707,2.016,5.405,2.985,8.121,1.526,4.279,5.354,8.214,2.031,13.239Z"/><path class="cls-81" d="m26.671,162.39c3.323-5.024-.505-8.959-2.031-13.239-.969-2.716-1.989-5.414-2.985-8.121.509.038,1.017.08,1.525.128,1.432,2.675,5.173.475,6.615,3.128-.005,4.203-.032,8.406-.009,12.609.013,2.448.015,4.845-3.114,5.495Z"/><path class="cls-37" d="m167.668,155.714c-.041.501-.082,1.003-.122,1.504-2.7,2.142-5.849,1.831-9.496,1.112,5.433,8.941-1.124,10.127-6.675,11.945-9.754,3.448-20.832,9.911-31.032,11.276-11.764,1.574-23.451-4.92-35.478-4.775-6.061-2.848-11.438-6.681-16.276-11.289,3.619-4.377-2.925-7.337-1.594-11.395,7.397,4.788,13.634,12.817,22.291,15.442,2.375.72,18.296,5.487,19.595,5.203,15.483-3.38,3.314-27.372,11.685-25.533,2.728,2.679,4.339,6.47,8.101,8.118,9.991,9.526,12.333.803,19.351-6.012,6.386-6.201,15.685-5.126,19.595-11.814,1.622-1.081,3.244-2.163,4.865-3.244l1.761.052c-1.132,6.828-4.191,13.005-6.572,19.412Z"/><path class="cls-44" d="m57.336,183.219c-9.965-7.866-8.904-20.925-14.54-30.83-.257-4.463.481-8.979-1.826-14.071,6.366,1.19,5.041,8.312,9.804,9.316,4.541,11.92,20.265,17.635,24.268,27.667,5.511,13.813-6.963,8.59-17.706,7.919Z"/><path class="cls-13" d="m167.568,175.054c.022,1.105.043,2.21.064,3.315.444,3.518-1.518,5.344-4.589,6.141-3.392.88-6.011,2.871-8.423,5.254-7.524,5.566-12.048,1.033-20.092.406-9.731-.758-21.658,3.019-31.879,2.9-4.256-1.944-11.423,4.1-13.149-4.786,14.333,4.142,29.169,2.56,43.601-.047,11.458-2.07,23.939-12.745,34.466-13.183Z"/><path class="cls-46" d="m89.501,188.284c1.725,8.886,8.893,2.842,13.149,4.785.724,3.912,3.91,3.432,6.39,3.066,10.873-1.605,21.707.098,32.555.038-.009.527-.019,1.054-.031,1.58-11.84,1.779-23.597,6.028-35.494,3.67-12.517-2.48-24.239-9.723-35.757-14.883,6.537-.962,12.717,1.98,19.187,1.744Z"/><path class="cls-72" d="m84.865,176.775c12.027-.145,23.714,6.349,35.478,4.775,10.2-1.365,21.278-7.828,31.032-11.276-10.249,6.649-21.405,12.708-33.861,13.248-5.896.255-30.154-1.127-32.648-6.747Z"/><path class="cls-49" d="m35.99,111.733c.577.041,1.154.082,1.73.122-1.719,8.704,3.589,17.296.418,26.024-.127-.542-.256-1.083-.386-1.624.764-3.893-1.955-5.228-4.774-6.488-1.841-3.647-3.512-7.271,1.425-9.949.512-2.697-.813-5.756,1.587-8.084Z"/><path class="cls-86" d="m151.252,32.568c5.615,1.459,11.188,3.328,16.656,5.011,4.903,1.51,8.487,7.294,12.654,11.193-4.734.517-8.213-3.871-12.959-3.308-.123-3.013-2.494-4.262-4.721-4.447-5.749-.479-8.542-4.567-11.63-8.448Z"/><path class="cls-65" d="m35.99,111.733c-2.401,2.329-1.075,5.387-1.587,8.084-14.057,1.606.987-15.132,1.587-8.084Z"/><path class="cls-37" d="m86.468,115.196c-2.739-4.079-10.761-7.61-15.18-9.221-4.938-1.8-5.707,1.671-8.971,1.108-16.458-2.837,21.92-28.185,22.173-28.466,8.043-8.934,10.66-27.548,26.346-15.313-2.33,11.448-16.895,9.43-21.417,18.809-.911,1.888,4.303,5.704,3.238,9.195-1.912,6.264-13.271,6.041-7.794,15.742.558,2.695,1.117,5.39,1.675,8.084l-.069.06Z"/><path class="cls-21" d="m84.862,107.052c-5.477-9.701,5.882-9.478,7.794-15.742,1.066-3.492-4.148-7.307-3.238-9.195,4.522-9.379,19.087-7.361,21.417-18.809,2.837-3.382,4.71-8.008,9.383-9.171,2.975-.741,7.012-2.473,8.502,2.628,0,0-.085.091-.085.09-11.815.157-12.633.767-12.961,9.669-6.978,5.961-1.697,11.887.05,17.824,1.093,11.19,4.635,7.965-1.83,19.558-4.765-7.368-6.045-12.845-14.932-11.692-5.109.662-13.467,9.922-14.101,14.841Z"/><path class="cls-37" d="m63.748,149.25c-7.534-8.009-8.908-19.145-3.205-25.975,6.326,1.901,10.086-3.898,15.554-5.611,5.317,15.82,7.994,15.787,10.373-2.468,0,0,.069-.06.068-.059,1.541.626,2.601,1.724,3.208,3.266.375,9.891,10.6,7.439,16.083,15.896,7.386,11.391,1.096,3.331-9.603,3.565-4.876-3.008-9.213-.202-14.178-1.5-2.356-.616-6.387-5.027-8.288-4.998-7.215.11-15.016,3.69-9.998,13.01-.004,1.625-.008,3.249-.012,4.874Z"/><path class="cls-34" d="m63.748,149.25c.004-1.625.008-3.249.013-4.874,6.989,1.607,7.64,9.662,13.084,12.84.508.059,1.018.097,1.53.112,5.17,8.525,20.967,11.197,26.114,4.738-1.924,2.415,2.078-17.744,3.014-15.271-.995-2.628-9.177-7.691-11.278-8.931,10.7-.234,16.989,7.825,9.603-3.565-5.483-8.456-15.708-6.004-16.083-15.896,1.078.004,2.157.008,3.235.011h0c5.459,7.085,9.892-.423,11.449,1.041.374.352,1.853,5.027,1.884,5.052-1.413-1.135,8.014,12.26,7.679,11.747,2.629,4.031,3.223,9.449,6.574,12.947-8.371-1.839,3.798,22.153-11.685,25.533-1.299.284-17.22-4.483-19.595-5.203-8.657-2.625-14.894-10.654-22.291-15.442-1.083-1.613-2.165-3.227-3.248-4.84Z"/><path class="cls-26" d="m174.24,136.302c-.587-.017-1.174-.035-1.761-.052,4.674-3.758-1.816-5.263-1.639-8.114h0c2.175-7.024,4.543-14.079-3.239-19.445l-.004-.007c5.676-8.713,5.658-8.783-2.993-10.176,2.196-2.126,4.213-4.079,6.23-6.032.824,3.723,1.986,3.098,3.833.501,1.065-1.497.039-5.76,4.257-3.721.567,1.606,1.135,3.212,1.702,4.819,3.345,9.744-5.785,19.475-.029,29.221-.014,2.689-.027,5.377-.041,8.066,0,0,.002-.001.002,0-3.473-.098-3.579,4.103-6.318,4.941Z"/><path class="cls-21" d="m170.834,92.476c-2.017,1.953-4.034,3.906-6.23,6.032,8.651,1.393,8.669,1.462,2.993,10.176-1.667-1.007-2.368-3.457-4.852-3.244-.656-.518-4.569-16.995-4.837-19.04-.866-6.601,4.287-12.423-3.276-16.627-.017-1.062-.034-2.124-.051-3.186,0,0,.11-.111.11-.112,10.153.165,16.997,15.85,16.143,26.002Z"/><path class="cls-54" d="m154.581,66.586c.017,1.062.034,2.124.051,3.186-1.236,3.245,2.63,6.504-.026,9.745-3.145.891-10.552-.576-8.766,2.631,4.741,8.514-3.222,12.344-4.207,18.422-6.404,2.045-7.5-6.572-12.952-6.44,0-1.108,0-2.217,0-3.325,7.013-5.542,11.597-15.501,4.297-23.266-7.41-7.882-8.687-1.247-17.302-1.018.328-8.901,1.146-9.511,12.961-9.668,4.861,2.943,6.64,11.924,15.683,7.042,2.262-1.221,6.213,3.636,10.261,2.691Z"/><path class="cls-63" d="m141.596,196.173c-10.848.06-21.682-1.643-32.555-.038-2.481.366-5.666.846-6.39-3.066,10.22.12,22.147-3.656,31.878-2.899,8.044.626,12.568,5.159,20.092-.407.042.621.085,1.242.127,1.863-3.249,4.795-8.953,2.496-13.152,4.547Z"/><path class="cls-51" d="m154.748,191.626c-.042-.621-.085-1.242-.127-1.863,2.412-2.383,5.031-4.374,8.423-5.254,3.071-.797,5.033-2.622,4.589-6.141,1.647-1.592,3.294-3.185,4.942-4.776.041,4.934.417,10.001-5.064,12.742-4.254,1.763-8.508,3.528-12.762,5.292Z"/><path class="cls-61" d="m180.597,123.296c-5.755-9.746,3.374-19.477.029-29.221,5.94,5.422,1.828,13.32,4.803,19.473-1.611,3.249-3.222,6.499-4.832,9.748Z"/><path class="cls-32" d="m174.24,136.302c2.739-.838,2.845-5.039,6.318-4.941-4.006,8.272-4.15,18.584-12.891,24.353,2.381-6.406,5.44-12.583,6.572-19.412Z"/><path class="cls-79" d="m154.605,79.516c2.657-3.241-1.209-6.5.026-9.745,7.563,4.204,2.41,10.026,3.276,16.627.268,2.046,4.181,18.522,4.837,19.04,2.408,5.114,1.413,15.258.402,20.482-1.928,9.958,2.051,5.923-7.867,10.981-6.649,3.39-7.944,2.582-13.159,7.89-5.901,6.006-3.105,9.938-13.453,12.529-3.762-1.648-5.373-5.44-8.101-8.118-3.35-3.498-3.944-8.917-6.574-12.947.335.513-9.093-12.883-7.679-11.747-.031-.025-1.51-4.7-1.884-5.052-1.557-1.464-5.99,6.044-11.449-1.041,16.474,2.759,21.203-21.404,4.283-18.48-13.841,2.392-4.914,9.226-4.283,18.48-1.079-.004-2.157-.007-3.235-.011-.607-1.542-1.667-2.64-3.208-3.266-.558-2.695-1.116-5.39-1.674-8.085.635-4.919,8.993-14.179,14.101-14.841,8.887-1.152,10.167,4.324,14.932,11.692,6.465-11.593,2.922-8.368,1.829-19.558,4.318,2.153,8.637,4.306,12.956,6.46,0,1.108,0,2.217,0,3.325-.021,1.053-.042,2.107-.062,3.161-6.927.364-16.267,18.883-17.105,24.542-1.664,11.234,2.824,6.198,10.648,12.485,9.023,7.251,2.188,12.146,15.531,4.015,6.512-3.968,17.855-10.807,16.976-19.876,11.204-4.225-.44-30.636-.063-38.942Z"/><path class="cls-75" d="m128.668,157.32c10.348-2.591,7.552-6.523,13.453-12.529,5.215-5.308,6.51-4.499,13.159-7.89,9.918-5.058,5.939-1.023,7.867-10.981,1.011-5.224,2.006-15.368-.402-20.482,2.484-.213,3.186,2.237,4.853,3.244,0,0,.004.007.004.007-1.56,6.92,4.797,12.524,3.239,19.444,0,0,0,.001,0,.001-3.708,3.039-3.262,7.257-3.226,11.358-3.91,6.688-13.209,5.613-19.595,11.814-7.018,6.816-9.36,15.538-19.351,6.012Z"/><path class="cls-21" d="m167.613,139.494c-.036-4.101-.482-8.318,3.226-11.358-.177,2.85,6.313,4.356,1.639,8.114-1.622,1.082-3.244,2.163-4.865,3.244Z"/><path class="cls-48" d="m128.681,90.805c-4.319-2.153-8.637-4.306-12.956-6.46-1.747-5.937-7.028-11.863-.049-17.824,8.615-.229,9.892-6.864,17.302,1.018,7.3,7.765,2.717,17.723-4.297,23.266Z"/><path class="cls-16" d="m96.224,137.864c2.102,1.24,10.284,6.304,11.278,8.931-.936-2.473-4.939,17.686-3.014,15.271-5.147,6.459-20.944,3.787-26.114-4.738,4.419,1.541,15.751,8.182,19.572,2.725-1.011,1.444-1.35-15.814-1.367-15.84-2.936-4.389-16.273-7.9-21.162-3.1-6.146,6.033,1.285,8.738,1.428,16.103-5.445-3.178-6.095-11.234-13.085-12.84-5.017-9.32,2.783-12.9,9.998-13.01,1.902-.029,5.933,4.382,8.288,4.998,4.965,1.298,9.301-1.508,14.178,1.5Z"/><path class="cls-56" d="m76.845,157.216c-.143-7.366-7.574-10.071-1.428-16.103,4.89-4.799,18.227-1.289,21.162,3.1.017.026.356,17.284,1.367,15.84-3.821,5.457-15.153-1.184-19.572-2.725-.512-.015-1.021-.053-1.53-.112Z"/><path class="cls-21" d="m170.84,128.135c1.557-6.92-4.799-12.524-3.239-19.444,7.782,5.367,5.414,12.421,3.239,19.444Z"/><path class="cls-59" d="m154.605,79.516c-.377,8.306,11.267,34.716.063,38.942l-.09-.089c.021-2.68.069-5.361.058-8.041-.042-9.777-3.357-12.252-12.896-9.654l-.109-.104c.985-6.078,8.948-9.908,4.207-18.422-1.786-3.207,5.621-1.74,8.766-2.631Z"/><path class="cls-59" d="m128.618,97.291c.021-1.054.041-2.107.062-3.161,5.452-.132,6.548,8.485,12.952,6.44,0,0,.108.104.107.103.544,17.774-10.901-2.217-13.033-3.28l-.088-.102Z"/><path class="cls-59" d="m154.669,118.458c.879,9.069-10.465,15.908-16.976,19.876-13.344,8.131-6.508,3.236-15.531-4.015-7.823-6.287-12.311-1.252-10.648-12.485.838-5.66,10.178-24.178,17.105-24.542,0,0,.088.102.087.101.253,3.334-4.114,12.082-2.627,15.067-2.048-4.111,12.507,3.743,10.243,3.145,6.067,1.603,10.774,2.79,18.257,2.765,0,0,.09.089.09.089Z"/><path class="cls-84" d="m92.98,118.414c-.631-9.255-9.558-16.088,4.283-18.48,16.92-2.924,12.191,21.239-4.283,18.48h0Z"/><path class="cls-9" d="m154.579,118.369c-7.483.024-12.19-1.162-18.257-2.765,2.265.598-12.29-7.256-10.243-3.145-1.487-2.986,2.879-11.733,2.627-15.067,2.133,1.064,13.578,21.055,13.034,3.281,9.541-2.597,12.855-.122,12.897,9.656.012,2.68-.037,5.361-.058,8.041Z"/></svg>