<?xml version="1.0" encoding="UTF-8"?><svg id="Layer_1" xmlns="http://www.w3.org/2000/svg" viewBox="0 0 246.244 228.138"><defs><style>.cls-1{fill:#80321d;}.cls-2{fill:#cb7b5c;}.cls-3{fill:#f2aa8f;}.cls-4{fill:#ab4e2b;}.cls-5{fill:#642319;}.cls-6{fill:#903927;}.cls-7{fill:#efb898;}.cls-8{fill:#813025;}.cls-9{fill:#f9e7c6;}.cls-10{fill:#b36048;}.cls-11{fill:#b5553a;}.cls-12{fill:#ba614b;}.cls-13{fill:#ea9578;}.cls-14{fill:#f0b57d;}.cls-15{fill:#3a1410;}.cls-16{fill:#d77a5d;}.cls-17{fill:#9a5a41;}.cls-18{fill:#f1a280;}.cls-19{fill:#df815d;}.cls-20{fill:#fad6b0;}.cls-21{fill:#984731;}.cls-22{fill:#c2664c;}.cls-23{fill:#551b15;}.cls-24{fill:#a55241;}.cls-25{fill:#fbefcc;}.cls-26{fill:#e79573;}.cls-27{fill:#9c5e4e;}.cls-28{fill:#9c4123;}.cls-29{fill:#f8c9a7;}.cls-30{fill:#f5c88d;}.cls-31{fill:#c67763;}.cls-32{fill:#a55542;}.cls-33{fill:#eda98b;}.cls-34{fill:#f8de94;}.cls-35{fill:#c9755c;}.cls-36{fill:#ee9f7c;}.cls-37{fill:#e79a81;}.cls-38{fill:#7d3c2d;}.cls-39{fill:#f9e2c8;}.cls-40{fill:#ae5936;}.cls-41{fill:#8d4637;}.cls-42{fill:#cd6c50;}.cls-43{fill:#a6573f;}.cls-44{fill:#bf624a;}.cls-45{fill:#f5bfa3;}.cls-46{fill:#9d483f;}.cls-47{fill:#e28b6f;}.cls-48{fill:#8d3f32;}.cls-49{fill:#faf0b7;}.cls-50{fill:#f5b697;}.cls-51{fill:#c66e56;}.cls-52{fill:#f9c2a6;}.cls-53{fill:#7b3a29;}.cls-54{fill:#bb6245;}.cls-55{fill:#efa184;}.cls-56{fill:#cb775c;}.cls-57{fill:#b95e4e;}.cls-58{fill:#c26e57;}.cls-59{fill:#7f3a2f;}.cls-60{fill:#da7d68;}.cls-61{fill:#a35131;}.cls-62{fill:#6e372a;}.cls-63{fill:#ab4c36;}.cls-64{fill:#b96247;}.cls-65{fill:#d87e61;}.cls-66{fill:#d37b60;}.cls-67{fill:#af5f4a;}.cls-68{fill:#884538;}.cls-69{fill:#d57d62;}.cls-70{fill:#c4664c;}.cls-71{fill:#b1523f;}.cls-72{fill:#eda178;}.cls-73{fill:#bd7a49;}.cls-74{fill:#c46348;}.cls-75{fill:#ef9679;}.cls-76{fill:#d27d5f;}.cls-77{fill:#8f4836;}.cls-78{fill:#7b3f2e;}.cls-79{fill:#f5bd95;}.cls-80{fill:#6f3c28;}.cls-81{fill:#a54836;}.cls-82{fill:#f5b38d;}.cls-83{fill:#75281d;}.cls-84{fill:#c9624e;}.cls-85{fill:#e79676;}.cls-86{fill:#f8e2c2;}.cls-87{fill:#c36c51;}.cls-88{fill:#e08a6d;}.cls-89{fill:#eda68a;}.cls-90{fill:#d18064;}.cls-91{fill:#905434;}.cls-92{fill:#8f4d36;}.cls-93{fill:#db8362;}.cls-94{fill:#8b423a;}.cls-95{fill:#ad5e4e;}.cls-96{fill:#df7f68;}.cls-97{fill:#f0ac8f;}.cls-98{fill:#f09a7b;}.cls-99{fill:#633a29;}.cls-100{fill:#a05044;}</style></defs><path class="cls-80" d="m107.802,54.239c-.006-1.116-.012-2.232-.019-3.347,6.945,3.221,9.233,11.142,15.355,15.194-.03,1.168-.061,2.335-.09,3.502-1.688-1.157-3.377-2.314-5.065-3.47-3.393-3.959-6.787-7.919-10.18-11.878Z"/><path class="cls-27" d="m115.075,47.513c1.689,1.156,3.378,2.313,5.065,3.47,2.589,13.106,1.307,16.492-8.325,21.982-.735-.1-1.47-.201-2.203-.3,11.172-11.031,11.348-11.84,5.462-25.151Z"/><g><path class="cls-53" d="m119.043,7.489c7.643,6.302,17.009,2.262,25.954,5.538,2.167-2.076.495-4.792,1.203-7.062,2.414.763,3.218,2.628,3.383,4.931,2.021,5.554,6.854,6.232,11.771,6.835,2.867.351,6.114-1.047,8.473,1.76-1.711.571-3.423,1.143-5.134,1.714-7.712,1.217-14.927-.706-22.006-3.485-5.575-1.28-10.986-3.439-16.822-3.331-4.764.088-7.412-1.771-6.823-6.9Z"/><path class="cls-92" d="m227.621,85.63c3.249,13.179,4.623,26.816,10.085,39.47,1.193,2.765,2.598,4.86,5.045,6.395,1.157,1.137,2.315,2.274,3.474,3.41.007,1.115.013,2.231.019,3.348-3.762.392-4.098-3.847-6.736-4.977-1.858-2.265-3.716-4.53-5.574-6.795-.468-1.187-.937-2.374-1.405-3.561-4.202-15.548-5.85-31.943-15.19-45.789.056-.562.106-1.125.149-1.688,1.628,1.004,3.263,1.081,4.908.042-.738,4.657,3.527,6.742,5.225,10.146Z"/><path class="cls-41" d="m186.862,31.316c6.999,1.852,7.546,9.7,12.676,13.53,5.937,4.433,9.645,11.442,16.321,15.225-.001,0-.243.2-.241.199-1.661-.012-3.323-.023-4.985-.033-.577-.558-1.154-1.116-1.731-1.676-4.392-5.256-8.128-11.233-15.085-13.659-.118-3.845-4.01-5.365-5.255-8.517-.567-1.69-1.134-3.38-1.7-5.07Z"/><path class="cls-77" d="m186.862,31.316c.567,1.69,1.134,3.38,1.7,5.07-1.699-1.03-3.398-2.059-5.096-3.092-6.221-1.021-10.505-6.562-16.879-7.221-.533-1.172-1.066-2.345-1.599-3.517-.087-.453-.186-.904-.294-1.352,1.712-.572,3.423-1.144,5.135-1.715,3.38,7.247,11.539,7.621,17.033,11.827Z"/><path class="cls-41" d="m222.396,75.484c-1.645,1.04-3.281.963-4.909-.042-2.227-4.859-4.804-9.676-1.872-15.17,0,0,.242-.199.243-.2,3.636,4.52,2.445,11.085,6.538,15.412Z"/><path class="cls-78" d="m27.343,153.646c5.886-3.148.794-6.938.322-10.273-.264-1.862-2.487-3.447-3.828-5.156,11.151,8.267,12.792,21.888,18.625,33.145.339.654.029,1.644.021,2.477-2.683-1.443-.608-5.308-3.409-6.691-2.979-5.309-9.964-7.143-11.731-13.503Z"/><path class="cls-99" d="m39.074,167.15c2.802,1.383.727,5.247,3.41,6.691,4.878,5.028,10.234,9.72,11.971,16.961,0,0-.192.079-.194.08-11.155-3.564-17.634-13.688-15.187-23.731Z"/><path class="cls-51" d="m15.376,94.054c-.42-3.449-11.094-6.967.069-10.337.529.161,1.07.268,1.62.32,2.471,1.536,8.815,10.824,11.016,10.358,8.613-1.821.102-7.204.851-12.207.611-.527,1.223-1.054,1.833-1.581,5.546-3.582,9.321-8.153,8.543-15.269,3.278-2.34,6.555-4.679,9.833-7.019.088.618.177,1.237.265,1.855-1.151,1.125-2.302,2.25-3.453,3.375-1.982,3.292-4.434,6.355-5.026,10.323-.034.498-.081.995-.14,1.491-5.948,7.155-2.119,19.377-12.555,24.274-.35.164-.496,1.971-.145,2.24,8.12,6.217,4.45,17.604,10.84,24.532.976,4.484-1.313,9.387,1.751,13.602.567,2.802,1.134,5.603,1.701,8.405-13.857-.5-3.158-38.489-16.865-44.052-3.391-3.426-4.891-8.71-10.14-10.311Z"/><path class="cls-78" d="m15.376,94.054c5.249,1.602,6.749,6.885,10.14,10.311,4.643,6.648,2.443,14.887,5.121,21.993-.557,4.238-1.031,8.544-6.919,8.394,3.078-6.784,2.723-26.366-2.437-32.068-6.273-6.931-14.07-1.999-21.282,1.466,2.354-7.581,8.827-8.897,15.376-10.097Z"/><path class="cls-38" d="m17.065,84.037c-.551-.053-1.091-.159-1.62-.32-.042-.513-.091-1.023-.147-1.533,4.611-1.367,6.603-5.895,10.224-8.458.093,3.289,2.907,3.874,5.075,5.101.057.594.113,1.188.169,1.782-.611.527-1.223,1.054-1.834,1.581-3.29,4.885-8.323-1.405-11.867,1.848Z"/><path class="cls-68" d="m169.885,211.198c-15.442,5.11-31.839,6.089-47.913,4.049-7.281-.924-28.623-8.771-35.318-3.728-4.539,3.419,1.318,14.762-5.964,16.605-2.786.705-8.599-24.138-11.061-28.733,6.908,6.319,15.917,4.096,23.93,5.953,18.04,4.181,36.306,6.361,54.773,5.69,9.547-.347,17.765-9.063,28.237-5.088l.209.276c-2.298,1.658-4.595,3.317-6.893,4.975Z"/><path class="cls-94" d="m215.846,179.022c-10.551,4.441-15.875,14.995-24.933,21.336-4.511,3.158-8.593,5.861-14.136,5.863.001.001-.208-.275-.207-.273.676-.997,1.351-1.995,2.025-2.996,6.617.44,9.478-4.581,13.434-8.57,6.716-6.772,12.549-15.277,23.584-15.73l.233.369Z"/><path class="cls-17" d="m119.043,7.489c-.589,5.128,2.059,6.988,6.823,6.9,5.836-.108,11.247,2.051,16.822,3.331-6.247,3.455-12.53-.793-18.79.087-2.481-2.756-9.059-.378-8.582-6.839,1.867-11.87-5.928-7.273-11.381-6.668-2.245,1.132-4.489,2.265-6.734,3.397l-.596-.396c7.831-9.807,17.676-9.724,22.437.187Z"/><path class="cls-62" d="m67.914,31.247c-.355-5.397,1.162-10.356,3.547-15.111,5.757,2.42,9.491.26,11.773-5.19.031,1.135.061,2.269.091,3.404-2.894,7.675-9.604,11.875-15.412,16.897Z"/><path class="cls-91" d="m83.325,14.351c-.03-1.135-.061-2.269-.091-3.404,3.447-4.923,8.469-4.068,13.373-3.643-.001-.002.594.393.591.393-2.971,2.788-5.938,5.577-8.906,8.366-1.656-.57-3.312-1.141-4.967-1.711Z"/><path class="cls-57" d="m123.899,17.806c6.259-.88,12.543,3.368,18.79-.087,7.079,2.779,14.293,4.702,22.005,3.485.108.449.206.9.293,1.354-12.33,6.353-13.675-.685-26.785-.656-6.805.015-18.045,8.069-14.303-4.096Z"/><path class="cls-2" d="m232.529,122.92c.468,1.187.937,2.374,1.408,3.563-6.147-3.782-11.724-8.251-16.444-13.744-.114-14.7-5.512-27.868-11.838-40.766,1.646,1.188,3.291,2.376,4.937,3.565.116,2.373,1.248,4.046,3.438,4.992,9.02,7.994,6.095,20.77,12.038,30.028,2.51,3.91,2.12,9.373,6.461,12.363Z"/><path class="cls-30" d="m217.494,112.738c4.72,5.493,10.296,9.961,16.443,13.744,1.855,2.264,3.713,4.528,5.571,6.793-.284,3.29-2.769,3.235-5.129,3.371-5.588-2.785-11.175-5.569-16.763-8.352-3.785-5.156,2.945-10.395-.123-15.556Z"/><path class="cls-10" d="m232.529,122.92c-4.34-2.99-3.95-8.452-6.461-12.363-5.944-9.258-3.018-22.034-12.038-30.028.075-2.132,1.143-3.298,3.308-3.398,9.34,13.846,10.989,30.24,15.19,45.789Z"/><path class="cls-67" d="m217.339,77.131c-2.165.1-3.233,1.266-3.308,3.398-2.19-.946-3.323-2.619-3.438-4.993.014-5.1.027-10.199.04-15.298,1.662.011,3.324.021,4.985.033-2.934,5.496-.357,10.312,1.87,15.172-.042.564-.092,1.126-.148,1.689Z"/><path class="cls-10" d="m210.633,60.237c-.013,5.099-.026,10.198-.04,15.298-1.646-1.187-3.292-2.375-4.937-3.563-1.726-1.731-3.451-3.462-5.177-5.194.359-1.785,1.679-2.64,3.201-3.299,2.321-1,1.856-2.954,1.655-4.819l.3-.349c1.089.084,2.179.168,3.268.251l1.731,1.675Z"/><path class="cls-67" d="m183.466,33.298c1.699,1.03,3.398,2.06,5.096,3.089,1.245,3.151,5.137,4.671,5.253,8.516,3.938,4.469,7.879,8.939,11.819,13.409,0,0-.3.349-.297.347-9.891-4.873-15.327-14.118-21.878-22.27.002-1.03.004-2.061.007-3.091Z"/><path class="cls-77" d="m205.634,58.311c-3.94-4.47-7.881-8.939-11.819-13.409,6.959,2.426,10.696,8.403,15.087,13.659-1.09-.083-2.179-.167-3.268-.25Z"/><path class="cls-76" d="m123.899,17.806c-3.741,12.164,7.499,4.11,14.303,4.096,13.11-.028,14.455,7.009,26.785.656.534,1.171,1.067,2.343,1.599,3.517,1.715,1.704,3.43,3.407,5.144,5.11-.001.001-.286.25-.285.249-2.384.083-4.752-2.86-7.072-.411-3.724,3.93-8.59,3.35-13.226,3.813-3.854-.554-3.777-6.796-8.238-6.058-11.324,1.873-22.964-.768-34.16,2.543,3.964-6.212,4.777-13.44,6.57-20.352-.477,6.461,6.101,4.083,8.582,6.839Z"/><path class="cls-54" d="m171.731,31.184c-1.715-1.703-3.43-3.405-5.145-5.109,6.375.658,10.659,6.198,16.88,7.219-.002,1.034-.004,2.064-.007,3.095-3.792-1.998-8.633-1.639-11.728-5.205Z"/><path class="cls-59" d="m83.325,14.351c1.656.57,3.312,1.141,4.968,1.711-.623,1.124-1.246,2.248-1.869,3.371-19.221,6.601-30.717,31.846-47.308,42.373-.566-3.492.676-6.256,3.396-8.426,1.443-4.02,4.067-6.649,7.593-9.349,4.327-3.313,10.498-5.8,11.141-12.64,2.223-.048,4.446-.096,6.669-.144,5.806-5.023,12.517-9.222,15.411-16.897Z"/><path class="cls-62" d="m61.246,31.392c-.642,6.839-6.814,9.327-11.141,12.64-3.526,2.699-6.15,5.329-7.593,9.349-.57-.007-1.139-.014-1.709-.021-.855-14.449,13.741-14.54,20.443-21.967Z"/><path class="cls-59" d="m30.597,78.827c-2.168-1.227-4.983-1.812-5.075-5.101,1.096-2.309,2.794-4.014,5.12-5.088,1.667-.564,3.335-1.128,5.003-1.692.57,4.916-7.061,6.353-5.048,11.881Z"/><path class="cls-38" d="m35.643,66.945c-1.667.564-3.335,1.128-5.002,1.692-.183-5.228,8.364-7.042,6.18-11.717-3.835-8.209,2.518-2.672,3.981-3.561.57.007,1.139.014,1.709.021-2.72,2.169-3.963,4.934-3.396,8.426-1.274.808-1.599,2.062-1.628,3.456-.615.561-1.23,1.122-1.845,1.683Z"/><path class="cls-95" d="m178.597,202.954c-.675.999-1.35,1.997-2.026,2.994-10.474-3.977-18.692,4.739-28.239,5.086-18.467.671-36.733-1.509-54.773-5.69-8.013-1.857-17.022.366-23.93-5.953-2.817-2.285-5.634-4.57-8.45-6.856-1.773-7.246-3.976-14.164-10.774-18.595-3.59-2.34-5.855-5.796-6.226-10.245.024-1.694.048-3.387.071-5.08,4.665,9.694,12.086,17.05,20.223,23.798.565.6,1.131,1.199,1.696,1.799,1.173,10.29,6.524,16.116,15.649,16.403,3.302.104,6.638-.866,9.959-1.346,5.978,6.76,26.946,6.636,35.329,7.112,15.108.857,26.639-5.101,40.951-6.84,2.029,5.657,6.758,2.254,10.236,3.045l.303.368Z"/><path class="cls-68" d="m44.178,163.695c.372,4.448,2.636,7.904,6.227,10.244,6.798,4.431,9.001,11.349,10.774,18.595-2.242-.577-4.484-1.155-6.725-1.733-1.737-7.241-7.092-11.933-11.971-16.961.007-.834.317-1.823-.022-2.478-5.832-11.258-7.474-24.878-18.625-33.145-.039-1.155-.078-2.31-.118-3.465,5.887.149,6.36-4.158,6.917-8.395,1.847,1.362,1.682,3.372,1.67,5.305-.071,12.171,3.554,22.968,11.871,32.033Z"/><path class="cls-52" d="m42.381,148.417c-.567-2.802-1.134-5.603-1.7-8.405.059-14.73.117-29.459.175-44.188.109-1.907-.331-3.964,1.48-5.405.595.066,1.19.133,1.787.2.586,2.916-1.02,6.289,1.829,8.731,2.948,16.483-7.497,45.74,11.851,54.143,2.007,1.279,1.604,3.439,1.951,5.325,1.14,1.561,2.28,3.123,3.419,4.684-.286,1.482.006,2.752,1.338,3.641-.235,3.48,1.338,6.325,3.259,9.009,3.031,4.236.264,4.428-2.968,4.346-8.479-7.687-14.691-17.132-20.736-26.706-1.995-1.342-1.273-3.535-1.685-5.373Z"/><path class="cls-96" d="m42.336,90.418c-1.811,1.442-1.371,3.498-1.48,5.405-4.153,9.975-.537,20.438-1.926,30.587-6.391-6.928-2.721-18.315-10.84-24.532-.351-.269-.205-2.076.145-2.24,10.435-4.898,6.607-17.119,12.555-24.274,2.686,4.796,3.531,9.78,1.547,15.054Z"/><path class="cls-43" d="m37.488,65.263c.028-1.394.354-2.647,1.628-3.456,16.591-10.528,28.087-35.773,47.311-42.375-1.531,4.346-7.516,6.187-6.683,11.864-9.054,7.259-18.11,14.519-27.165,21.778-2.056,1.153-3.352,2.803-3.438,5.245-3.278,2.34-6.555,4.679-9.835,7.018-.607-.026-1.213-.051-1.818-.076Z"/><path class="cls-100" d="m42.381,148.417c.412,1.838-.311,4.031,1.685,5.372.062,1.608.123,3.216.184,4.825-.024,1.693-.047,3.387-.071,5.08-8.317-9.064-11.942-19.861-11.871-32.033.011-1.933.177-3.944-1.67-5.305-2.678-7.105-.478-15.345-5.121-21.993,13.706,5.564,3.007,43.554,16.865,44.053Z"/><path class="cls-40" d="m17.065,84.037c3.544-3.253,8.577,3.037,11.867-1.848-.749,5.002,7.762,10.385-.851,12.206-2.201.465-8.545-8.822-11.016-10.358Z"/><path class="cls-37" d="m38.929,126.41c1.389-10.149-2.226-20.612,1.926-30.587-.058,14.73-.116,29.459-.175,44.189-3.065-4.215-.776-9.118-1.751-13.602Z"/><path class="cls-37" d="m42.336,90.418c1.984-5.274,1.139-10.258-1.547-15.054.058-.496.105-.993.138-1.493,5.624-2.973,4.303,3.42,6.623,4.905.084.623.167,1.246.25,1.869.341,3.901-3.248,6.355-3.679,9.972-.595-.066-1.19-.133-1.786-.199Z"/><path class="cls-96" d="m47.55,78.776c-2.32-1.484-.999-7.877-6.623-4.904.593-3.966,3.044-7.03,5.026-10.322,3.361,1.827-.555,7.883,4.933,8.475-1.112,2.251-2.224,4.501-3.337,6.752Z"/><path class="cls-32" d="m37.488,65.263c.605.025,1.211.05,1.818.076.78,7.116-2.996,11.688-8.541,15.269-.055-.593-.111-1.187-.168-1.781-2.014-5.529,5.617-6.966,5.047-11.882.614-.561,1.229-1.122,1.844-1.683Z"/><path class="cls-96" d="m49.141,58.32c.086-2.442,1.382-4.092,3.438-5.244.193,2.417-.096,5.146,3.488,5.355,1.152.597,2.304,1.193,3.457,1.79-.373,3.25-2.237,5.364-5.118,6.702-.141-3.378-2.362-5.217-5-6.748-.088-.618-.177-1.237-.265-1.855Z"/><path class="cls-69" d="m49.406,60.175c2.638,1.531,4.859,3.37,5,6.748-2.175,1.011-3.226,2.796-3.52,5.101-5.487-.591-1.571-6.648-4.932-8.474,1.151-1.125,2.302-2.25,3.453-3.375Z"/><path class="cls-95" d="m215.801,177.349c-.036.44-.098.877-.187,1.307-11.036.45-16.869,8.955-23.585,15.727-3.956,3.988-6.817,9.009-13.434,8.57.002.002-.301-.366-.3-.364,6.435-3.154,4.117-10.324,6.952-15.131,2.195-1.743,4.39-3.487,6.584-5.23,2.253.041,2.222-3.899,5.034-2.884.356,1.972-.356,5.142,3.52,2.442,4.578-3.19,9.587-5.361,15.416-4.436Z"/><path class="cls-56" d="m215.801,177.349c-5.829-.925-10.838,1.246-15.416,4.436-3.876,2.701-3.164-.47-3.519-2.444,13.042-4.174,8.585-17.461,13.495-25.869,4.923-7.672,3.311-17.224,7.256-25.177,5.588,2.784,11.175,5.567,16.763,8.352.351.306,1.128,1.066,1.528,2.326.377,1.186.224,2.195.126,2.65-.054.357-.141.893-.269,1.539-1.063,5.37-3.244,9.701-7.948,16.699-2.526,3.757-5.814,8.335-9.942,13.385-.691,1.368-1.383,2.735-2.074,4.103Z"/><path class="cls-14" d="m115.317,10.967c-1.793,6.912-2.606,14.14-6.57,20.352-2.386,2.43-4.746,2.232-7.085-.07.123-1.104.245-2.208.368-3.312,12.414-2.936,2.583-15.924-10.285-5.121l.006-.011c-1.074.01-2.147.019-3.221.029,3.459-7.569,12.463-10.536,15.406-18.535,5.453-.605,13.248-5.202,11.381,6.668Z"/><path class="cls-73" d="m103.936,4.3c-2.942,7.998-11.947,10.965-15.407,18.535-1.261,1.701-2.521,3.402-3.781,5.103-1.668,1.12-3.337,2.239-5.005,3.359-.832-5.678,5.153-7.519,6.684-11.864.621-1.123,1.244-2.247,1.867-3.371,2.967-2.788,5.934-5.577,8.905-8.365,2.248-1.132,4.492-2.264,6.737-3.396Z"/><path class="cls-20" d="m217.617,128.295c-3.945,7.953-2.333,17.506-7.255,25.177-1.038,1.138-2.078,2.276-3.118,3.414-3.664-14.132-17.333,13.158-23.96,18.511-.131-2.995,1.925-4.94,3.183-7.357,2.837-5.452,9.14-8.219,10.719-14.478,7.073-7.504,13.586-15.124,7.74-26.485-.496-.965.47-2.68.756-4.047,1.713-.511,5.248-.974,3.223-3.158-6.694-7.216-4.689-15.821-5.088-24.097-.24-7.37-.217-14.859-8.447-18.607-5.342-1.106-2.772-5.454-3.474-8.461,2.86,2.926,5.718,5.262,8.549-.03.011-.633.022-1.265.034-1.898,1.726,1.731,3.451,3.463,5.177,5.194,6.326,12.898,11.724,26.066,11.838,40.766,3.069,5.162-3.662,10.401.123,15.556Z"/><path class="cls-97" d="m200.478,66.779c-.011.633-.022,1.265-.034,1.897-2.554-1.815-1.502-7.304-6.421-6.585-3.726.545-3.886,3.482-3.578,6.477,0,0-.394.082-.392.083-1.855-7.94-6.59-12.728-14.911-13.584-3.93-1.422-7.682-3.475-12.036-3.397,1.089-1.151,2.179-2.303,3.269-3.454,2.505-2.282,5.602-4.309,3.67-8.503,4.6.065,2.051,5.482,5.054,6.743,5.093,1.269,8.994,8.044,15.384,3.328,1.843,7.023,10.318,7.665,13.194,13.694-1.522.659-2.841,1.514-3.201,3.299Z"/><path class="cls-66" d="m203.679,63.48c-2.875-6.029-11.351-6.672-13.194-13.694-6.39,4.716-10.291-2.059-15.385-3.328-1.457-4.806,3.361-4.377,5.677-6.009-2.603-4.011-9.003-3.382-9.334-9.013,0,0,.285-.249.286-.25,3.097,3.565,7.937,3.206,11.73,5.204,6.55,8.151,11.986,17.396,21.877,22.27.199,1.867.664,3.822-1.658,4.821Z"/><path class="cls-29" d="m166.376,48.217c-1.089,1.151-2.179,2.303-3.268,3.454l-.054.022c-8.791.86-8.274-8.033-14.22-11.198-7.084-3.77-12.138-1.3-19.635-1.15-20.726.415-32.648,3.75-51.049,13.962-3.198.249-3.857,2.976-5.057,5.174-3.43,2.826-6.859,5.652-10.289,8.478-4.039-6.704,3.68-9.068,5.087-13.76,3.979-5.72,10.697-8.373,15.182-13.527.556-2.74-.894-5.912,1.768-8.202.337,20.651,12.328.661,16.821-.219,2.339,2.303,4.699,2.5,7.085.07,11.197-3.311,22.837-.669,34.16-2.543,4.461-.738,4.383,5.504,8.238,6.058,2.612,2.563,5.865,1.482,8.873,1.428,2.412-.043,5.098-1.658,6.539,1.749-3.045.064-11.344-1.6-12.41,2.259-1.82,6.592,8.408,8.014,12.228,7.946Z"/><path class="cls-85" d="m166.558,38.012c-1.441-3.408-4.128-1.792-6.539-1.749-3.008.054-6.262,1.135-8.873-1.428,4.636-.462,9.503.118,13.226-3.812,2.32-2.449,4.689.494,7.072.411.329,5.633,6.729,5.004,9.333,9.014-2.316,1.632-7.135,1.203-5.677,6.009-3.002-1.262-.452-6.678-5.054-6.743-1.163-.567-2.326-1.135-3.488-1.703Z"/><path class="cls-45" d="m168.058,199.541c-14.312,1.739-25.842,7.696-40.951,6.84-8.384-.475-29.351-.352-35.329-7.111-6.14-2.407-12.971-3.853-16.251-11.124,14.408-3.154,16.095,6.958,28.285-.507.502-.164,1.017-.25,1.544-.257,3.367.61,6.734,1.22,10.101,1.829.025,9.241,9.591-.95,14.557,1.607,4.358,2.243,3.42,11.461,8.464,11.023.096-9.066,7.663-6.18,12.721-7.639,9.002-3.339,19.118-4.921,23.79-15.081,1.049-.108,2.099-.216,3.148-.324-1.067,3.585-7.012,6.003-4.219,10.032,2.695,3.886,6.108-2.258,9.61-1.312-5.014,4.192-6.223,13.271-15.471,12.024Z"/><path class="cls-31" d="m103.812,187.638c-12.19,7.465-13.877-2.647-28.285.507,3.28,7.271,10.111,8.717,16.251,11.124-3.321.48-6.657,1.45-9.959,1.345-9.125-.288-14.476-6.113-15.648-16.405,4.165,3.339,6.64-1.667,10.055-2.033-.401,7.175,4.722,2.046,7.043,3.157,2.276.089,4.553.179,6.829.268,4.279,2.646,9.13,1.44,13.714,2.036Z"/><path class="cls-90" d="m168.058,199.541c9.247,1.247,10.457-7.833,15.471-12.025.573-.02,1.145-.04,1.718-.06-2.834,4.807-.516,11.977-6.952,15.131-3.479-.793-8.208,2.611-10.237-3.047Z"/><path class="cls-31" d="m44.25,158.614c-.061-1.609-.123-3.218-.184-4.825,6.045,9.575,12.257,19.02,20.735,26.708-.11.639-.218,1.277-.327,1.916-8.137-6.748-15.558-14.104-20.223-23.798Z"/><path class="cls-55" d="m64.473,182.413c.109-.638.217-1.276.327-1.916,3.233.082,5.999-.111,2.969-4.347-1.92-2.684-3.494-5.529-3.258-9.009,5.705,3.034,5.223,11.563,12.079,13.573-.088.496-.21.983-.365,1.462-3.414.366-5.889,5.373-10.055,2.034-.566-.598-1.132-1.198-1.697-1.797Z"/><path class="cls-50" d="m67.891,53.197c-1.407,4.694-9.126,7.058-5.086,13.761.048,3.879,2.622,3.54,5.236,3.133,3.849.837,3.997,3.67,3.129,6.546-1.434,4.749-3.237,9.386-4.885,14.07-7.429-.237-9.151,15.813-10.89,20.865-3.275-.51-4.057-4.561-7.925-3.947,1.881,6.556.142,15.194,1.593,22.239,1.402,6.809,4.546,17.928,8.739,23.627-19.348-8.403-8.903-37.66-11.851-54.145,6.657-1.095,20.813-12.365,17.264-21.951-2.256-6.093-12.093-1.375-15.414,3.25-.083-.623-.166-1.246-.25-1.869,1.112-2.251,2.225-4.501,3.336-6.752.294-2.306,1.345-4.091,3.519-5.101,2.881-1.339,4.744-3.452,5.118-6.703,2.751-2.386,3.997-6.564,8.367-7.024Z"/><path class="cls-98" d="m57.802,153.492c-4.194-5.699-7.337-16.819-8.739-23.627-1.451-7.045.288-15.683-1.593-22.239,3.868-.615,4.65,3.437,7.925,3.947,1.739-5.052,3.462-21.102,10.89-20.865-.607,5.743-3.787,11.664-6.151,16.919-.74,1.646-7.408,11.715-7.611,12.981-1.819,11.306,6.564,25.408,10.269,36.185-1.013.674-2.026,1.349-3.039,2.023-.347-1.886.056-4.046-1.951-5.325Z"/><path class="cls-39" d="m47.801,80.646c3.321-4.625,13.158-9.342,15.414-3.25,3.549,9.585-10.607,20.856-17.264,21.951-2.849-2.44-1.243-5.813-1.829-8.729.431-3.617,4.02-6.071,3.678-9.972Z"/><path class="cls-71" d="m59.754,158.816c1.013-.674,2.026-1.349,3.04-2.022,2.882-1.612,1.633-4.327,1.784-6.669,1.622-3.811,8.911-3.869,6.754-10.183.57-.005,1.139-.009,1.709-.014,3.709,8.181-2.206,10.888-.853,16.989,2.239,10.094,11.352,10.775,5.78,23.539-1.266-8.847-9.068-11.997-14.796-16.956-1.14-1.561-2.28-3.123-3.419-4.684Z"/><path class="cls-65" d="m63.173,163.5c5.728,4.958,13.53,8.109,14.797,16.957-.453.12-.913.205-1.379.257-6.856-2.01-6.375-10.54-12.079-13.573-1.333-.888-1.625-2.158-1.338-3.64Z"/><path class="cls-26" d="m84.84,31.471c-2.661,2.288-1.21,5.46-1.765,8.202-1.518-.461-3.168-2.018-4.619-.589-7.043,6.943-16.978,10.538-22.389,19.347-3.584-.209-3.295-2.938-3.488-5.355,9.055-7.261,18.111-14.521,27.165-21.78,1.667-1.119,3.335-2.239,5.006-3.36.091,1.141.18,2.284.269,3.426l-.179.108Z"/><path class="cls-69" d="m56.067,58.431c5.411-8.809,15.346-12.404,22.389-19.347,1.45-1.43,3.101.128,4.619.589-4.487,5.152-11.204,7.805-15.183,13.525-4.371.459-5.617,4.636-8.368,7.022-1.152-.596-2.304-1.193-3.457-1.789Z"/><path class="cls-25" d="m185.247,187.457c-.573.02-1.145.039-1.718.06-3.502-.946-6.915,5.198-9.61,1.312-2.794-4.029,3.152-6.447,4.22-10.033.171-.494.321-.994.451-1.499.502-.008.986-.108,1.45-.301,1.081-.533,2.163-1.066,3.244-1.599,6.628-5.351,20.298-32.642,23.962-18.509-3.578,7.32-4.732,16.219-13.66,20.016-1.923.818-1.73,3.345-1.754,5.324-2.195,1.743-4.39,3.487-6.584,5.23Z"/><path class="cls-7" d="m191.831,182.227c.023-1.979-.17-4.506,1.754-5.324,8.928-3.797,10.082-12.696,13.66-20.016,1.04-1.138,2.08-2.276,3.118-3.414-4.912,8.408-.454,21.695-13.496,25.869-2.813-1.014-2.782,2.927-5.035,2.886Z"/><path class="cls-49" d="m101.662,31.25c-4.493.88-16.484,20.87-16.821.219-.001.002.178-.106.177-.106,7.059.931,7.046-3.696,6.732-8.557,0,0-.006.011-.005.011,4.235.088,8.469.143,12.771-1.207.565,3.169-1.999,4.312-2.486,6.328-.123,1.104-.245,2.208-.368,3.312Z"/><path class="cls-34" d="m102.03,27.937c.488-2.016,3.051-3.159,2.486-6.328-4.302,1.35-8.536,1.295-12.771,1.207,12.868-10.803,22.699,2.185,10.285,5.121Z"/><path class="cls-34" d="m91.751,22.805c.313,4.862.327,9.488-6.732,8.557-.089-1.142-.178-2.285-.269-3.426,1.258-1.7,2.518-3.401,3.779-5.102,1.075-.01,2.148-.02,3.222-.029Z"/><path class="cls-72" d="m195.369,77.168c8.23,3.748,8.206,11.237,8.447,18.607-6.585,5.23-2.001,12.494-3.404,18.667-10.81-7.128,8.058-31.007-8.617-30.825,1.192-2.15,2.383-4.3,3.574-6.45Z"/><path class="cls-89" d="m205.682,123.03c-.287,1.367-1.252,3.082-.756,4.047,5.845,11.36-.667,18.98-7.742,26.484-.632-.032-1.263-.063-1.893-.094.628-1.673,1.255-3.347,1.88-5.02,3.713-3.424,5.107-7.311,3.374-12.387-1.244-3.644-.699-7.525.265-11.263.518-.643,1.037-1.286,1.555-1.929,1.105.054,2.21.108,3.315.162Z"/><path class="cls-79" d="m205.682,123.03c-1.105-.054-2.21-.108-3.318-.161-6.558-1.444.167-5.957-1.952-8.426,1.404-6.173-3.18-13.437,3.404-18.667.399,8.277-1.606,16.881,5.088,24.097,2.025,2.183-1.51,2.647-3.223,3.158Z"/><path class="cls-33" d="m195.29,153.467c.631.031,1.262.062,1.894.094-1.578,6.26-7.88,9.028-10.717,14.479-1.258,2.417-3.314,4.362-3.183,7.357-1.083.532-2.164,1.065-3.246,1.599,1.191-10.361,7.657-17.311,15.252-23.529Z"/><path class="cls-9" d="m190.446,68.569c-.308-2.995-.147-5.932,3.578-6.477,4.918-.719,3.867,4.769,6.421,6.585-2.831,5.292-5.689,2.956-8.549.029-.483-.041-.967-.086-1.45-.137Z"/><path class="cls-79" d="m190.446,68.569c.483.05.967.096,1.45.137.701,3.008-1.869,7.356,3.473,8.462-1.191,2.15-2.383,4.3-3.573,6.453.001.002.177.665.177.665-2.1-1.133-3.497-2.744-3.574-5.252.551-3.461,1.102-6.922,1.653-10.382l.394-.082Z"/><path class="cls-86" d="m166.558,38.012c1.162.568,2.324,1.135,3.488,1.703,1.932,4.193-1.164,6.22-3.669,8.502-3.82.068-14.049-1.354-12.229-7.946,1.065-3.859,9.365-2.195,12.41-2.259Z"/><path class="cls-35" d="m163.107,51.671c4.354-.078,8.106,1.975,12.034,3.397,1.014,2.435,2.741,4.379,5.168,5.179,5.939,1.959,7.328,6.215,6.559,11.782-3.209-4.191-8.778-2.226-12.569-4.324-.228-3.718,4.405-1.055,4.413-2.179-5.193-6.451-8.232-8.939-15.792-12.307.074-.506.119-1.015.134-1.527l.054-.022Z"/><path class="cls-72" d="m186.868,72.029c.769-5.567-.62-9.823-6.559-11.782-2.428-.801-4.154-2.745-5.168-5.179,8.323.856,13.058,5.643,14.913,13.584-.553,3.46-1.104,6.921-1.655,10.382-.529-.625-1.059-1.25-1.589-1.875.019-1.71.039-3.419.058-5.129Z"/><path class="cls-42" d="m68.042,70.09c-2.616.408-5.189.747-5.238-3.132,3.429-2.826,6.859-5.652,10.288-8.478,0,0,.103.417.102.414,4.852,8.354,6.222,8.521,13.857,3.207,8.633-6.009,17.819-10.94,28.56-12.078-5.887,4.083-11.774,8.166-18.894,13.104,4.076-.094,5.251,2.346,7.031,4.066-.263,2.28.598,4.865-1.782,6.572-1.442-5.349-7.988-4.507-10.839-1.062-1.492,1.803,5.415,7.389.625,11.203.55-7.337-3.913-9.653-10.186-10.156-1.225-3.016-3.634-3.647-6.554-3.251-2.283-.834-4.484-3.062-6.971-.409Z"/><path class="cls-82" d="m163.053,51.693c-.015.512-.059,1.02-.133,1.528-.494.051-.98.148-1.456.293-6.183-.213-11.123-3.469-15.043-7.599-5.364-5.651-15.688-6.524-22.338-.989-.512.603-1.024,1.205-1.536,1.808,0,0-.285-.201-.285-.201-7.071-.224-11.756-4.852-19.22-3.429-8.505,1.622-15.529,8.563-24.893,10.202,18.401-10.211,30.322-13.547,51.049-13.962,7.497-.15,12.551-2.62,19.635,1.15,5.946,3.165,5.428,12.058,14.22,11.198Z"/><path class="cls-13" d="m78.15,53.306c9.364-1.639,16.388-8.581,24.893-10.202,7.463-1.423,12.149,3.205,19.22,3.429-.871,2.565-3.198,1.368-4.864,1.879-12-1.803-22.346,4.243-32.441,8.637-4.423,1.925-7.399,3.484-11.761,1.849,0,0-.103-.417-.103-.417,1.2-2.199,1.859-4.925,5.057-5.174Z"/><path class="cls-19" d="m115.457,189.21c-3.367-.61-6.734-1.22-10.102-1.829,1.253-1.044,2.507-2.088,3.758-3.133,2.394-1.878,4.649-4.07,8.09-3.607,10.204-1.693,20.43,4.245,30.627-.086,5.548-.433,9.978-2.506,11.824-8.22,1.538-4.761,3.283-3.167,5.123-.225-1.714,2.816-3.428,5.631-5.141,8.447-5.761,1.907-6.085,7.647-8.442,11.954l-.003-.002c-8.499-.35-9.396-6.663-15.904-7.854-7.329-1.341-12.676,5.699-19.828,4.555Z"/><path class="cls-70" d="m164.777,172.109c-1.84-2.942-3.585-4.535-5.123.225-1.846,5.714-6.275,7.787-11.824,8.22,1.311-4.601,8.363-4.432,8.399-10.093,1.364-4.802,4.522-4.939,8.392-3.221,1.672,2.209,3.165,4.628,6.15,5.408,3.962-8.723,11.2-14.556,16.603-22.331,2.225-3.201,7.072-19.184,9.512-20.692.222,6.302,1.899,12.719-1.475,18.739-8.893,2.464-9.24,12.201-14.87,17.45-3.543,3.303-3.912,7.211-1.952,11.482-.129.506-.279,1.005-.451,1.499-1.05.109-2.1.217-3.149.324-3.404-2.337-6.808-4.674-10.213-7.011Z"/><path class="cls-36" d="m115.457,189.21c7.153,1.143,12.499-5.896,19.828-4.555,6.508,1.191,7.406,7.504,15.904,7.854.007.564.01,1.128.009,1.692-5.058,1.459-12.625-1.428-12.721,7.639-5.044.437-4.106-8.78-8.464-11.023-4.966-2.556-14.533,7.634-14.557-1.607Z"/><path class="cls-18" d="m151.2,194.201c0-.564-.002-1.128-.009-1.692,0,0,.003.002.003.002,6.54-1.358,8.135-6.202,8.442-11.955,1.714-2.815,3.428-5.631,5.141-8.447,3.404,2.336,6.809,4.673,10.213,7.01-4.672,10.16-14.788,11.742-23.79,15.081Z"/><path class="cls-4" d="m109.116,184.248c-1.254,1.044-2.507,2.089-3.76,3.133-.527.007-1.042.093-1.544.257-4.584-.596-9.435.61-13.714-2.035.567-1.023,1.135-2.047,1.702-3.071,5.017-.65,10.42,1.476,15.032-2.087l.269.4c-1.427,2.375-.242,3.205,2.015,3.402Z"/><path class="cls-6" d="m76.591,180.714c.466-.052.926-.137,1.379-.257,5.571-12.764-3.542-13.446-5.781-23.54-1.353-6.1,4.562-8.807.853-16.989-3.662-11.257-13.534-4.99-5.06-21.295,4.094-7.877.99-5.253,7.702-10.112,4.239-3.069,10.92,3.81,12.692-4.174,2.227-1.131,3.323-2.919,3.357-5.44.091-6.818,4.294-8.578,10.205-8.181-6.935,2.758-12.197,17.891-14.937,24.696-2.96,7.352-6.044,17.128-7.312,24.912-2.413,14.82,5.363,18.427,17.984,25.116,5.375,2.849,18.842,6.17,12.693,13.462-1.987-3.031-17.257-12.103-20.936-9.719-5.455,3.535-.79,11.175-6.162,16.139-2.321-1.111-7.444,4.018-7.043-3.157.155-.479.277-.967.365-1.463Z"/><path class="cls-71" d="m83.269,185.334c5.371-4.964.706-12.604,6.162-16.139,3.68-2.385,18.949,6.688,20.937,9.719-1.088.644-2.177,1.288-3.266,1.932,0,0-.269-.4-.267-.399.07.056-16.417-7.006-15.367-7.583-3.928,2.158-5.601,7.848.333,9.668-.568,1.024-1.135,2.048-1.702,3.071-2.276-.091-4.552-.18-6.829-.269Z"/><path class="cls-16" d="m81.568,73.75c6.273.503,10.736,2.819,10.186,10.156-3.065,5.602-7.906,9.111-13.4,12.168-7.934,4.415-15.927,9.083-15.502,20.073-2.246,3.242-7.983,4.673-6.575,9.704,2.301,8.222,5.487,16.196,8.3,24.275-.151,2.342,1.098,5.057-1.784,6.669-3.706-10.778-12.089-24.88-10.27-36.186.204-1.267,6.871-11.336,7.611-12.981,2.363-5.256,5.544-11.176,6.151-16.919,1.648-4.684,3.451-9.321,4.885-14.07.868-2.876.719-5.709-3.129-6.546,2.489-2.654,4.69-.426,6.97.407,4.365,9.218-13.031,26.822,1.44,22.237,4.498-1.425,12.618-8.222,10.97-13.613-.787-2.574-6.389-1.333-5.854-5.372Z"/><path class="cls-63" d="m88.376,104.348c-1.771,7.983-8.452,1.105-12.692,4.173-6.713,4.859-3.609,2.235-7.702,10.112-8.474,16.305,1.399,10.038,5.06,21.295-.57.005-1.14.009-1.709.014-12.246-5.159-14.821-10.874-8.392-18.621,6.19-19.736,8.55-17.656,25.319-18.85.039.627.078,1.252.116,1.878Z"/><path class="cls-74" d="m62.941,121.322c-6.43,7.746-3.854,13.461,8.391,18.62,2.156,6.314-5.133,6.372-6.755,10.183-2.813-8.078-5.999-16.053-8.3-24.275-1.408-5.031,4.328-6.463,6.575-9.704.03,1.725.059,3.45.089,5.175Z"/><path class="cls-88" d="m178.589,177.296c-1.961-4.271-1.591-8.179,1.952-11.482,5.631-5.249,5.977-14.986,14.87-17.45.587.028,1.175.055,1.762.082-.627,1.673-1.254,3.347-1.881,5.02-7.596,6.218-14.062,13.167-15.253,23.529-.463.192-.947.292-1.449.3Z"/><path class="cls-93" d="m200.412,114.443c2.119,2.47-4.606,6.983,1.952,8.426-.516.642-1.035,1.286-1.557,1.928-1.258.518-2.513,1.037-3.768,1.557-.621.071-1.242.142-1.863.212-2.19-.05-4.381-.1-6.573-.15-.81-9.14-.994-18.1-3.465-27.335-2.958-11.053-9.23-16.393-18.647-20.141-1.8-1.585-5.041-1.308-5.681-4.392,1.334-.271,2.668-.541,4.002-.812.471.132.949.232,1.434.299,10.105,3.771,20.691,6.797,25.937,18.671,2.281-4.052.896-6.219-.21-8.419,0,0-.176-.663-.177-.665,16.674-.185-2.195,23.694,8.616,30.822Z"/><path class="cls-60" d="m197.039,126.353c1.255-.519,2.51-1.038,3.768-1.557-.962,3.738-1.507,7.619-.262,11.263,1.733,5.076.338,8.963-3.374,12.387-.587-.027-1.174-.054-1.761-.082,3.375-6.02,1.698-12.437,1.477-18.739.051-1.091.102-2.182.152-3.273Z"/><path class="cls-61" d="m191.973,84.286c1.106,2.2,2.491,4.367.21,8.419-5.246-11.874-15.832-14.9-25.937-18.672,2.822-.885,6.254.954,8.627-1.932,4.028,1.571,8.62,1.81,11.937,5.058.53.625,1.06,1.25,1.589,1.875.077,2.508,1.473,4.119,3.574,5.252Z"/><path class="cls-22" d="m186.81,77.158c-3.316-3.247-7.909-3.487-11.935-5.058-8.837-1.682-9.464-2.324-6.837-7.004,4.296-.348,6.345-1.861,2.042-5.231-2.565-2.01-5.747-3.233-8.652-4.81-.018-.514-.006-1.028.037-1.541.476-.145.962-.242,1.456-.293,7.56,3.367,10.598,5.855,15.791,12.306-.007,1.124-4.641-1.539-4.413,2.179,3.792,2.098,9.36.133,12.569,4.324-.019,1.709-.039,3.419-.058,5.129Z"/><path class="cls-47" d="m161.465,53.514c-.043.513-.055,1.026-.037,1.541,0,0-.113-.006-.112-.006-10.15,5.011-20.66,8.331-32.195,6.814-7.473.072-15.462-1.008-18.756,8.391-2.144,1.746-2.931,4.162-3.344,6.762-1.975.257-2.764,4.177-5.349,2.039-1.885-1.558.703-3.47.297-5.29,2.38-1.707,1.519-4.292,1.781-6.573,7.824-2.336,10.436-11.797,18.639-13.614-.975,1.208-1.69,2.552-2.143,4.032,1.044,2.251,34.001-.095,15.634-5.993,1.079-.609,2.158-1.218,3.238-1.827,4.369-.024,2.582-3.326,1.126-5.447-2.414-3.517-13.544.622-16.158.584,6.65-5.535,16.973-4.662,22.338.989,3.92,4.13,8.861,7.386,15.043,7.599Z"/><path class="cls-44" d="m101.967,73.765c.406,1.82-2.182,3.732-.297,5.29,2.585,2.138,3.374-1.782,5.35-2.038.014.603.028,1.205.042,1.808.031.596.062,1.192.093,1.788-1.169,1.671-2.337,3.341-3.506,5.012-11.773.218-15.18,3.948-15.39,16.845-16.768,1.196-19.127-.885-25.318,18.851-.029-1.724-.058-3.45-.088-5.175-.426-10.99,7.567-15.658,15.501-20.073,5.494-3.057,10.335-6.565,13.4-12.168,4.789-3.814-2.118-9.4-.625-11.203,2.851-3.445,9.397-4.287,10.839,1.062Z"/><path class="cls-28" d="m139.116,49.789c-1.079.609-2.158,1.218-3.238,1.827-4.522.483-9.302-.812-13.49,1.962-8.203,1.817-10.815,11.278-18.639,13.614-1.779-1.719-2.954-4.159-7.03-4.065,7.12-4.938,13.007-9.021,18.893-13.105.595-.537,1.191-1.074,1.787-1.61,1.666-.511,3.993.686,4.864-1.879,0,0,.285.201.285.201,3.496-.405,7.023-.64,10.481-1.262,3.675-.66,5.876.314,6.088,4.317Z"/><path class="cls-75" d="m81.568,73.75c-.535,4.039,5.067,2.798,5.854,5.372,1.648,5.39-6.472,12.187-10.97,13.613-14.47,4.585,2.926-13.019-1.44-22.237,2.922-.395,5.331.236,6.556,3.252Z"/><path class="cls-16" d="m117.399,48.412c-.596.537-1.192,1.073-1.787,1.61-10.741,1.139-19.926,6.069-28.56,12.078-7.635,5.315-9.005,5.147-13.857-3.207,4.364,1.638,7.34.08,11.763-1.845,10.095-4.394,20.441-10.44,32.441-8.637Z"/><path class="cls-12" d="m139.116,49.789c-.212-4.003-2.413-4.977-6.088-4.317-3.458.621-6.985.856-10.481,1.262.512-.603,1.024-1.206,1.536-1.808,2.615.038,13.744-4.101,16.159-.584,1.456,2.121,3.244,5.423-1.126,5.447Z"/><path class="cls-83" d="m107.101,180.846c1.089-.644,2.178-1.288,3.266-1.932,6.148-7.292-7.319-10.613-12.694-13.462-12.621-6.689-20.397-10.297-17.984-25.116,1.268-7.784,4.352-17.56,7.312-24.912,2.74-6.805,8.002-21.938,14.937-24.696,1.132-.594,2.264-1.188,3.396-1.781,8.674.369,17.353.754,23.797-6.74,6.485-1.792,11.316,3.818,17.774,3.623,14.004-.423,27.926,16.126,26.422,30.318-.016.565-.033,1.129-.049,1.694-1.139-1.128-2.278-2.255-3.416-3.383-.72-1.344-1.968-1.655-3.347-1.711.238-10.404-6.544-22.175-15.109-23.097-12.096-1.303-24.643-2.767-35.864,4.451h-.001c-4.663,1.353-12.155-4.924-13.623,5.044-4.558,3.409-1.862,10.392-6.735,13.645-9.665,7.692-9.676,19.015-.026,27.131,2.468,5.733-3.478,9.377-.91,14.251,1.468,2.786,7.699,3.46,10.228,4.825,10.068,5.437,15.068,12.553,24.661,3.013,1.773,6.887-2.866,10.919-6.806,15.262-1.708,1.123-3.417,2.245-5.125,3.368-3.441-.463-5.696,1.729-8.09,3.607-2.254-.196-3.44-1.026-2.013-3.401Z"/><path class="cls-11" d="m117.204,180.64c1.708-1.123,3.417-2.245,5.125-3.368,2.262-.013,4.524-.025,6.786-.038,9.9,1.187,18.805-1.601,27.114-6.773-.037,5.661-7.089,5.492-8.399,10.093-10.196,4.33-20.422-1.607-30.626.086Z"/><path class="cls-36" d="m159.635,180.556c-.307,5.753-1.902,10.597-8.442,11.955,2.357-4.307,2.682-10.047,8.442-11.955Z"/><path class="cls-81" d="m197.039,126.353c-.05,1.091-.101,2.182-.152,3.273-2.441,1.507-7.289,17.491-9.513,20.691-5.404,7.775-12.642,13.608-16.603,22.331-2.985-.781-4.477-3.199-6.148-5.41.002-.002.314-.339.314-.339,4.383-2.215,13.726-12.768,17.837-16.814,7.089-6.975,8.301-14.692,12.401-23.52.621-.071,1.242-.142,1.864-.213Z"/><path class="cls-81" d="m156.229,170.462c-8.309,5.171-17.214,7.959-27.114,6.773,9.663-3.892,20.387-5.117,27.778-14.255,3.633-4.492,6.811-.532,8.045,3.92,0,0-.313.337-.314.339-3.872-1.716-7.03-1.579-8.394,3.223Z"/><path class="cls-84" d="m91.8,182.532c-5.934-1.82-4.261-7.51-.333-9.668-1.05.577,15.437,7.638,15.367,7.583-4.614,3.561-10.017,1.435-15.034,2.085Z"/><path class="cls-46" d="m105.334,88.945c-1.132.594-2.264,1.188-3.396,1.782-5.911-.397-10.114,1.363-10.206,8.181-.034,2.521-1.13,4.309-3.357,5.44-.038-.625-.076-1.25-.116-1.877.208-12.898,3.616-16.628,15.389-16.846,2.941-.1,2.589,1.471,1.686,3.32Z"/><path class="cls-8" d="m164.937,166.9c-1.234-4.452-4.412-8.412-8.045-3.92-7.391,9.138-18.115,10.363-27.778,14.255-2.262.012-4.524.025-6.786.037,3.94-4.343,8.579-8.375,6.805-15.262,1.838-1.979,3.632-4.042,6.779-3.454,3.245,8.647,31.921.271,33.52-6.492,1.365-5.776-6.049-7.978-5.977-14.219.083-7.209,11.507-9.596,9.822-20.004.017-.565.033-1.129.049-1.694,3.056,2.245,6.237,3.881,5.529,9.057-.398,2.908,1.232,8.266,6.319,2.988,1.143-.592,2.286-1.184,3.429-1.776,2.191.05,4.382.1,6.573.15-4.101,8.828-5.313,16.546-12.402,23.521-4.112,4.045-13.454,14.599-17.837,16.814Z"/><path class="cls-24" d="m107.155,80.612c-.031-.596-.062-1.192-.093-1.788,10.951-6.965,22.171-13.228,35.639-13.613,2.206,4.655,6.489,3.154,10.174,3.429,3.979,1.698,7.958,3.396,11.938,5.095-1.334.271-2.668.541-4.002.812.64,3.084,3.881,2.807,5.68,4.391-.033.556-.061,1.114-.083,1.672-9.043-3.973-15.244.022-22.811-.889-6.502-.783-10.263-8.731-17.882-.919-5.84,4.151-11.877,6.294-18.56,1.811Z"/><path class="cls-64" d="m166.408,80.61c.023-.558.05-1.116.084-1.672,9.417,3.749,15.69,9.089,18.647,20.142,2.471,9.235,2.655,18.195,3.465,27.335-1.143.592-2.286,1.184-3.429,1.775-4.04-3.089-2.022-15.677-3.402-20.32-2.94-9.893-10.198-18.498-15.366-27.26Z"/><path class="cls-1" d="m164.812,73.735c-3.979-1.698-7.958-3.396-11.938-5.094-.239-3.389-.413-6.751,3.436-8.487,4.645-.096,8.996.504,11.727,4.942-2.627,4.68-2,5.322,6.837,7.004-2.374,2.887-5.806,1.048-8.628,1.932-.485-.065-.963-.165-1.434-.297Z"/><path class="cls-21" d="m168.037,65.096c-2.731-4.438-7.082-5.038-11.727-4.942,1.668-1.702,3.336-3.403,5.004-5.105,0,0,.113.006.113.006,2.905,1.577,6.087,2.8,8.653,4.81,4.303,3.371,2.253,4.883-2.042,5.231Z"/><path class="cls-87" d="m142.701,65.212c-13.468.385-24.688,6.648-35.639,13.613-.014-.602-.028-1.204-.042-1.808.414-2.601,1.2-5.017,3.345-6.762,5.932-3.106,11.339-7.676,18.731-6.715,4.511.754,9.407-1.624,13.605,1.672Z"/><path class="cls-3" d="m122.388,53.578c4.188-2.773,8.968-1.478,13.49-1.962,18.368,5.898-14.589,8.245-15.633,5.993.454-1.48,1.168-2.823,2.143-4.032Z"/><path class="cls-58" d="m142.701,65.212c-4.198-3.296-9.094-.918-13.605-1.672.02-.559.028-1.118.024-1.677,11.535,1.516,22.044-1.803,32.195-6.814-1.669,1.702-3.337,3.403-5.004,5.105-3.849,1.736-3.675,5.098-3.436,8.487-3.685-.275-7.968,1.226-10.174-3.429Z"/><path class="cls-16" d="m129.12,61.863c.004.559-.004,1.118-.024,1.677-7.393-.961-12.799,3.609-18.732,6.715,3.293-9.4,11.282-8.32,18.756-8.392Z"/><path class="cls-6" d="m107.155,80.612c6.684,4.484,12.72,2.34,18.561-1.81,4.038-1.771,3.318,1.226,3.416,3.403-6.444,7.493-15.123,7.109-23.797,6.74.903-1.85,1.256-3.42-1.686-3.321,1.169-1.671,2.337-3.341,3.506-5.012Z"/><path class="cls-23" d="m135.914,158.556c-3.147-.588-4.942,1.475-6.779,3.454-9.593,9.54-14.593,2.424-24.661-3.013-2.529-1.366-8.76-2.04-10.228-4.825-2.568-4.874,3.378-8.518.91-14.251-1.037-9.045-2.594-18.09.026-27.131,4.873-3.253,2.177-10.237,6.735-13.645,5.465.809,9.962-.99,13.622-5.045h.001c4.891.646,10.273-1.739,14.639,2.032,4.445,3.839,8.573,4.245,13.54.6,3.967-2.912,9.333-3.499,11.608,1.537,2.669,5.908,7.78,9.434,11.186,14.477,1.379.055,2.628.366,3.348,1.711-6.248,4.472-10.783,23.815-12.562,29.948-2.52,8.688,7.621,2.641-2.635,9.203-4.935,3.157-13.177,1.623-18.751,4.948Zm-34.081-17.536c-.691,34.156,73.341-2.086,56.457-29.874-6.137-10.1-37.703-9.105-47.41-5.33-19.885,7.732-8.263,22.284-9.047,35.204Z"/><path class="cls-48" d="m129.131,82.206c-.098-2.178.622-5.174-3.416-3.403,7.619-7.813,11.38.135,17.882.918,7.567.911,13.768-3.084,22.811.889,5.167,8.763,12.425,17.368,15.365,27.261,1.38,4.642-.638,17.231,3.402,20.32-5.088,5.279-6.717-.079-6.32-2.987.708-5.176-2.472-6.812-5.529-9.057,1.505-14.192-12.417-30.741-26.421-30.318-6.458.195-11.289-5.415-17.774-3.623Z"/><path class="cls-5" d="m135.914,158.556c5.575-3.325,13.816-1.79,18.751-4.948,10.256-6.562.116-.515,2.635-9.203,1.779-6.133,6.314-25.476,12.562-29.948,1.139,1.128,2.277,2.256,3.416,3.383,1.685,10.408-9.739,12.795-9.822,20.004-.072,6.241,7.342,8.443,5.977,14.219-1.598,6.763-30.275,15.139-33.52,6.492Z"/><path class="cls-5" d="m166.514,112.747c-3.406-5.043-8.517-8.57-11.186-14.477-2.275-5.037-7.641-4.449-11.608-1.537-4.967,3.645-9.095,3.239-13.54-.6-4.367-3.771-9.748-1.386-14.639-2.032,11.222-7.218,23.769-5.754,35.864-4.451,8.565.923,15.348,12.693,15.109,23.097Z"/><path class="cls-5" d="m95.182,112.789c-2.621,9.041-1.064,18.086-.026,27.131-9.649-8.116-9.638-19.439.026-27.131Z"/><path class="cls-5" d="m115.54,94.1c-3.66,4.055-8.158,5.854-13.622,5.045,1.468-9.969,8.96-3.692,13.622-5.045Z"/><path class="cls-15" d="m101.843,141.018c.773-12.918-10.849-27.47,9.036-35.202,9.707-3.775,41.273-4.77,47.41,5.33,16.885,27.788-57.148,64.03-56.446,29.872Z"/></g></svg>