<?xml version="1.0" encoding="UTF-8"?><svg id="Layer_1" xmlns="http://www.w3.org/2000/svg" viewBox="0 0 224.064 212.454"><defs><style>.cls-1{fill:#f5cf7d;}.cls-2{fill:#7a5b26;}.cls-3{fill:#bf853c;}.cls-4{fill:#fbf6de;}.cls-5{fill:#e2c988;}.cls-6{fill:#fbfae9;}.cls-7{fill:#b98e3e;}.cls-8{fill:#d8af54;}.cls-9{fill:#ad6c36;}.cls-10{fill:#f5d899;}.cls-11{fill:#ebbd7a;}.cls-12{fill:#edad5f;}.cls-13{fill:#faee66;}.cls-14{fill:#f0c363;}.cls-15{fill:#98702f;}.cls-16{fill:#fdfae7;}.cls-17{fill:#e2c167;}.cls-18{fill:#f9f2c7;}.cls-19{fill:#e0a568;}.cls-20{fill:#cfa74f;}.cls-21{fill:#f8ed8e;}.cls-22{fill:#d8b762;}.cls-23{fill:#f9f1a1;}.cls-24{fill:#faefac;}.cls-25{fill:#d4ae5c;}.cls-26{fill:#935a2a;}.cls-27{fill:#b4894a;}.cls-28{fill:#f9f0a2;}.cls-29{fill:#ecd99b;}.cls-30{fill:#e6b66e;}.cls-31{fill:#faf4d3;}.cls-32{fill:#f9ee87;}.cls-33{fill:#b58840;}.cls-34{fill:#ddbe94;}.cls-35{fill:#f8cb57;}.cls-36{fill:#c19942;}.cls-37{fill:#ce9b4e;}.cls-38{fill:#e1c684;}.cls-39{fill:#f3d16b;}.cls-40{fill:#fae58a;}.cls-41{fill:#fbf3d8;}.cls-42{fill:#756d2c;}.cls-43{fill:#c07e4a;}.cls-44{fill:#cc9d60;}.cls-45{fill:#9f9c42;}.cls-46{fill:#b3bc60;}.cls-47{fill:#b7742b;}.cls-48{fill:#f7e28a;}.cls-49{fill:#f4db7b;}.cls-50{fill:#e2a244;}.cls-51{fill:#e69349;}.cls-52{fill:#fcf9f0;}.cls-53{fill:#fbe66b;}.cls-54{fill:#a97031;}.cls-55{fill:#d4b051;}.cls-56{fill:#bb9146;}.cls-57{fill:#f5c97e;}.cls-58{fill:#f9f2b7;}.cls-59{fill:#b79458;}.cls-60{fill:#e7aa4f;}.cls-61{fill:#efb959;}.cls-62{fill:#fbf7dd;}.cls-63{fill:#ebcd6f;}.cls-64{fill:#ecab55;}.cls-65{fill:#876029;}.cls-66{fill:#bc9038;}.cls-67{fill:#e3b055;}.cls-68{fill:#c8905d;}.cls-69{fill:#8c582f;}.cls-70{fill:#fcfbf4;}.cls-71{fill:#fbf5b1;}.cls-72{fill:#f3d27b;}.cls-73{fill:#a57d37;}.cls-74{fill:#fbeda5;}.cls-75{fill:#dbaa53;}.cls-76{fill:#d28836;}.cls-77{fill:#f6d56c;}.cls-78{fill:#ad8d4b;}.cls-79{fill:#f1d169;}.cls-80{fill:#c2a25a;}.cls-81{fill:#a37a37;}.cls-82{fill:#faf4bf;}.cls-83{fill:#a17431;}.cls-84{fill:#edcf9a;}.cls-85{fill:#f5c75e;}.cls-86{fill:#986b41;}.cls-87{fill:#dab05d;}.cls-88{fill:#efc586;}.cls-89{fill:#9c6231;}.cls-90{fill:#888937;}.cls-91{fill:#f9f3bd;}.cls-92{fill:#caaf78;}.cls-93{fill:#f7e4b8;}.cls-94{fill:#a39d60;}.cls-95{fill:#f6db6d;}.cls-96{fill:#f8eb7e;}.cls-97{fill:#bc9f63;}.cls-98{fill:#f7eca9;}.cls-99{fill:#e7e28c;}.cls-100{fill:#e0b85d;}.cls-101{fill:#f9e78c;}.cls-102{fill:#886b2a;}.cls-103{fill:#d7a16e;}.cls-104{fill:#8a813b;}.cls-105{fill:#fcfaee;}.cls-106{fill:#d4aa4a;}.cls-107{fill:#bb843e;}.cls-108{fill:#f9ef8e;}</style></defs><path class="cls-83" d="m50.536,14.57c2.442-1.789,4.884-3.577,7.326-5.366,3.276-.205,7.02.551,9.751-.775,14.298-6.943,29.421-7.159,44.738-6.484,7.515,2.331,14.999,4.305,21.801-1.833l.002-.006c3.27.647,6.642,1.154,7.313,5.349-2.385,1.59-4.923-3.457-7.261.168-11.609-.097-23.218-.321-34.825-.209-3.281.032-7.526-1.417-9.081,3.502-4.055.176-8.109.351-12.164.527-11.63,2.057-23.732,3.09-31.138,14.319-.606-.004-1.213-.009-1.819-.014,1.786-3.059,3.571-6.118,5.357-9.177Z"/><path class="cls-67" d="m3.125,99.987c1.311-2.376,2.623-4.752,3.934-7.129.489-.103.978-.211,1.465-.325.868,7.05,1.92,14.084,2.536,21.155.368,4.231-1.154,6.818-5.983,4.272.292-4.567.766-9.218-5.076-10.941,1.042-2.344,2.083-4.688,3.125-7.032Z"/><path class="cls-59" d="m185.076,21.757c1.107-.616,2.213-1.231,3.321-1.847-.089,6.693.243,13.194,7.534,16.528.624.594,1.247,1.188,1.87,1.782,3.611,5.511,7.223,11.022,10.835,16.531-.02,1.845.33,3.787-1.351,5.203-.723-.683-1.446-1.366-2.169-2.049.099-6.803-4.528-10.533-9.254-14.197-2.547-4.648-6.73-7.721-10.648-11.048-.058-2.977-.116-5.955-.174-8.932.012-.657.024-1.314.036-1.971Z"/><path class="cls-32" d="m179.236,183.296c-1.035.758-2.071,1.516-3.107,2.274-8.55-1.089-12.641,7.492-19.915,9.169-8.534,1.718-17.068,3.435-25.602,5.153-6.73-1.313-2.391-10.884-3.918-15.237-3.349-9.546-8.408-7.729-5.307-19.338,1.754-1.918,3.508-3.837,5.262-5.755.154,2.53,1.224,3.548,3.703,2.239.112,2.33.224,4.661.336,6.991.467,10.023,8.461,17.836,18.034,18.423,12.668.776,20.154-8.21,29.068-14.598,2.545.03,5.091.059,7.636.089-.631,1.266-1.263,2.531-1.894,3.797-1.431,2.265-2.863,4.53-4.294,6.795Z"/><path class="cls-33" d="m70.409,196.337c-5.787.44-11.242-.569-16.207-3.711-14.303-16.139-40.529-34.643-47.203-56.306,3.03,1.288,6.002,2.754,7.916,5.534,3.369,4.892,6.84,9.634,12.319,12.412.604.58,1.209,1.159,1.814,1.738-1.726,5.381,3.503,7.416,5.341,11.082,4.112,8.782,11.752,13.74,19.81,18.245v.004c2.484,7.962,11.896,5.733,16.21,11.002Z"/><path class="cls-49" d="m5.076,117.961c4.829,2.545,6.351-.041,5.983-4.272-.615-7.072-1.667-14.106-2.534-21.155,1.859-4.851,3.717-9.703,5.575-14.554.642,10.348.801,20.756,2.072,31.027,1.125,9.091-2.261,13.721-11.162,14.692-.623.025-1.245.05-1.868.075-1.916-2.789-2.561-5.156,1.935-5.813Z"/><path class="cls-25" d="m3.141,123.774c.623-.025,1.245-.05,1.869-.076,1.23,6.667,6.361,10.556,10.677,15.047,4.498,4.682,10.111,8.557,11.548,15.52-5.481-2.778-8.951-7.519-12.321-12.412-1.914-2.78-4.886-4.246-7.916-5.534-1.883-3.998-3.515-8.074-3.857-12.546Z"/><path class="cls-40" d="m78.136,9.442c4.055-.176,8.109-.351,12.165-.526,4.204-1.46,8.531-1.843,12.944-1.493-.067,4.858-.135,9.717-.203,14.576-5.307-9.36-13.837-10.467-23.345-9.149-1.177.163-2.393.038-3.592.047.677-1.151,1.354-2.303,2.031-3.454Z"/><path class="cls-66" d="m78.136,9.442c-.677,1.151-1.354,2.303-2.031,3.454,0,0-.153-.149-.153-.148-6.67,4.539-16.915.463-21.896,9.072-1.746,1.875-3.493,3.75-5.24,5.625l-1.953-.292c.045-1.131.09-2.262.136-3.393,7.406-11.229,19.507-12.262,31.138-14.319Z"/><path class="cls-20" d="m103.245,7.424c-4.412-.35-8.74.033-12.944,1.493,1.554-4.92,5.799-3.471,9.08-3.503,11.607-.112,23.216.112,34.824.209-.061,1.153-.121,2.306-.181,3.461-1.778.887-3.515,2.891-5.426.201-8.212-3.875-16.91-1.141-25.354-1.86Z"/><path class="cls-39" d="m134.023,9.082c.06-1.153.121-2.307.182-3.46,2.338-3.624,4.876,1.422,7.261-.167,3.063,2.409,6.125,4.818,9.187,7.228.536,1.255,1.072,2.51,1.609,3.764-4.326-.391-6.868-4.314-10.815-5.457-1.944-2.699-4.473-3.121-7.424-1.908Z"/><path class="cls-73" d="m46.999,23.761c-.045,1.131-.09,2.262-.135,3.395-6.619,4.362-10.194,11.618-15.978,16.772l-.542-.425c2.519-8.404,10.199-12.939,14.836-19.755.607.005,1.213.009,1.82.014Z"/><path class="cls-65" d="m112.351,1.945c7.453,1.598,14.411-2.68,21.801-1.833-6.802,6.138-14.286,4.164-21.801,1.833Z"/><path class="cls-73" d="m14.099,77.979c-1.858,4.851-3.716,9.703-5.575,14.554-.488.114-.977.222-1.466.325,3.847-18.296,6.265-37.265,23.287-49.355-.002-.002.54.423.538.421-.183,1.076-.364,2.154-.544,3.232-.551.644-1.101,1.288-1.652,1.933-5.181,3.7-9.126,8.301-10.697,14.635-1.673,2.2-2.516,4.582-1.603,7.345-.762,2.303-1.525,4.606-2.287,6.909Z"/><path class="cls-100" d="m156.214,194.739c-6.828,4.378-14.853,5.751-22.197,8.828-15.679,1.503-31.632,7.141-46.501-3.488-1.365-.976-4.073-.077-6.157-.048-2.654.056-4.996-.824-7.122-2.358-.014-1.062-.027-2.126-.041-3.191,6.053,1.185,12.106,2.37,18.159,3.555,12.567,4.43,25.171,8.105,38.256,1.854,8.534-1.718,17.068-3.435,25.602-5.153Z"/><path class="cls-3" d="m81.359,200.031c2.084-.029,4.792-.928,6.157.048,14.869,10.63,30.822,4.992,46.501,3.488-4.506,4.678-11.413,1.91-16.345,5.267-1.792.124-3.908-.331-5.323.462-13.618,7.634-22.58.201-30.99-9.265Z"/><path class="cls-87" d="m74.196,194.483c.014,1.064.027,2.128.041,3.19-1.587.445-2.868.016-3.826-1.337-4.315-5.268-13.727-3.039-16.21-11.001,2.404.622,4.808,1.244,7.212,1.866,4.262,2.427,8.523,4.855,12.784,7.283Z"/><path class="cls-36" d="m152.262,16.447c-.536-1.255-1.073-2.509-1.608-3.764,5.019-.155,10.666,2.151,14.248-3.634.147,1.092.295,2.185.441,3.28,1.487,5.477,6.043,4.075,9.738,4.121,3.767.047,6.771.456,6.264,5.302-2.734,1.97-5.906,2.016-9.077,2.058-6.668-2.455-13.337-4.91-20.005-7.365Z"/><path class="cls-97" d="m181.344,21.753c.507-4.846-2.497-5.255-6.264-5.302-3.694-.046-8.25,1.355-9.738-4.121,5.238,2.846,10.511,3.583,15.852.265,4.879,1.538,1.622,6.518,3.882,9.164-.012.655-.024,1.313-.036,1.97-1.232-.658-2.464-1.317-3.696-1.975Z"/><path class="cls-28" d="m205.116,57.905c.723.683,1.446,1.366,2.167,2.05-1.373,5.024,2.072,9.58,1.409,14.535-4.29,11.572,9.311,56.727-9.161,54.599-6.228-3.618-12.963-4.299-19.963-3.442-4.201-.082-8.403-.163-12.604-.245,7.402-8.68,25.344-.008,33.967-13.71,7.939-12.615,5.462-38.803,4.048-52.97l.137-.818Z"/><path class="cls-56" d="m208.693,74.49c.663-4.955-2.783-9.511-1.41-14.535,1.683-1.417,1.332-3.359,1.353-5.204.585-.065,1.166-.04,1.741.08.981,12.303,5.527,23.868,7.42,35.982-.038,3.066-.077,6.13-.114,9.195-4.275-7.317-1.895-16.628-7.098-23.668-.631-.617-1.262-1.233-1.893-1.85Z"/><path class="cls-17" d="m181.344,21.753c1.232.658,2.464,1.317,3.696,1.975.058,2.977.116,5.955.173,8.933-1.16,0-2.318,0-3.481,0-4.128-1.913-7.341-4.801-9.466-8.849,3.172-.043,6.343-.089,9.077-2.059Z"/><path class="cls-5" d="m195.862,43.708c4.726,3.664,9.352,7.394,9.254,14.197,0,0-.137.817-.137.814-4.737-4.207-7.68-9.727-10.997-14.972.627-.013,1.254-.026,1.88-.039Z"/><path class="cls-38" d="m195.862,43.708c-.627.013-1.254.026-1.879.039-5.746-1.803-7.8-7.939-12.665-10.776l.418-.311c1.159,0,2.317.002,3.477.001,3.919,3.327,8.102,6.4,10.649,11.047Z"/><path class="cls-13" d="m130.611,199.892c-13.085,6.251-25.689,2.576-38.256-1.854-6.223-7.186-14.827-9.234-23.6-10.919,3.172-10.875-8.014-8.31-12.037-12.401-2.978-3.028-1.926,3.316-4.343,3.334-3.717-3.072-7.075-6.44-9.046-10.952,9.642.413,9.181-6.405,16.93-9.173,1.771-.633,14.49-.47,16.117.002,5.462,1.583,7.189,4.701,11.93,7.017.862.421,17.259,7.216,16.554,7.45,2.869-.952,1.391-7.097,3.805-8.813,3.364,6.997,8.141,3.644,12.721,1.735-3.101,11.608,1.958,9.791,5.307,19.338,1.527,4.353-2.812,13.924,3.918,15.237Z"/><path class="cls-106" d="m130.687,168.792c-.112-2.33-.224-4.661-.335-6.992,1.16-3.095,2.318-6.189,3.48-9.285,1.377,4.044-2.082,9.496,2.901,12.335,5.934,3.38,21.096-.727,26.399-6.64,7.569,1.428,7.162-5.15,9.261-9.212,3.863.248,3.01-4.23,5.439-5.419,2.603,1.904,1.505,4.742,1.827,7.222-2.696,6.508-6.619,10.638-13.746,13.893-11.198,5.113-22.438,3.127-33.631,4.351-.536-.06-1.067-.145-1.595-.253Z"/><path class="cls-53" d="m130.687,168.792c.528.108,1.06.193,1.596.252,5.044,14.225,27.219,16.267,38.305,3.527,2.4.015,4.801.03,7.201.045-8.914,6.388-16.4,15.374-29.068,14.598-9.572-.586-17.566-8.399-18.034-18.423Z"/><path class="cls-61" d="m121.386,165.317c-4.58,1.909-9.358,5.263-12.721-1.735-.645-4.2,1.431-7.55,3.417-10.93.021-.622.039-1.242.057-1.863.874-1.14,1.749-2.279,2.62-3.42,1.541,1.076,3.084,2.153,4.627,3.23,1.433,2.973-2.64,12.833,6.976,5.568.095,1.132.19,2.264.285,3.395-1.754,1.918-3.508,3.837-5.262,5.755Z"/><path class="cls-95" d="m177.789,172.616c-2.4-.015-4.801-.03-7.202-.044-.386-7.196,13.914-6.197,17.621-11.923,5.153-7.958-4.709-22.137,11.239-22.643-.007,1.99-1.126,3.099-2.701,4.252-5.395,3.949-8.988,19.193-6.48,26.634-.706,2.422-2.345,3.661-4.841,3.813-2.545-.03-5.091-.059-7.636-.089Z"/><path class="cls-80" d="m185.425,172.705c2.497-.151,4.136-1.39,4.843-3.812,3.765-2.837,5.907-11.538,12.679-3.502,2.478,3.172,5.729,1.836,8.807,1.508-.121.273-.269.793-.359.784-10.595-1.165-18.77,5.286-27.865,8.819.632-1.265,1.263-2.531,1.895-3.796Z"/><path class="cls-29" d="m126.648,159.562c-.095-1.132-.19-2.264-.282-3.396.2-1.155.397-2.308.594-3.462,1.94-3.032,1.651-7.25,5.063-9.5.153,3.063,2.087,3.078,4.346,2.535-.846,2.259-1.693,4.518-2.539,6.778-1.159,3.094-2.318,6.189-3.477,9.284-2.48,1.31-3.55.292-3.704-2.238Z"/><path class="cls-96" d="m202.947,165.391c-6.773-8.035-8.914.665-12.679,3.502-2.51-7.442,1.083-22.686,6.478-26.635,1.576-1.153,2.694-2.262,2.703-4.251.003-1.142.005-2.286.006-3.429.026-1.829.051-3.659.077-5.488,18.473,2.128,4.871-43.027,9.162-54.6.631.616,1.262,1.233,1.892,1.849-.206,11.677,3.185,23.003,3.76,34.62.374,7.566-6.006,26.059-.297,32.603,2.139,4.945,5.457,9.842.614,15.072.42.387.84.774,1.26,1.16-.362,1.279,2.357,2.569-.014,3.841-.594-.098-1.188-.196-1.784-.292-2.426-.978-1.444-5.765-5.49-4.917-3.76.788-5.753,3.043-5.686,6.964Z"/><path class="cls-98" d="m202.947,165.391c-.067-3.921,1.926-6.176,5.686-6.964,4.046-.848,3.065,3.94,5.49,4.917-.788,1.183-1.577,2.368-2.368,3.554-3.079.33-6.33,1.665-8.808-1.506Z"/><path class="cls-60" d="m215.922,159.795c-.42-.387-.84-.774-1.26-1.16,4.843-5.229,1.524-10.127-.614-15.072,6.417-11.574,2.691-24.199,3.773-36.326,1.995,2.592,6.163,23.976,6.238,26.988.097,3.895-1.194,15.548-2.573,20.068-2.309,1.373-2.411,4.978-5.564,5.501Z"/><path class="cls-23" d="m14.099,77.979c.762-2.303,1.525-4.606,2.287-6.91,2.844-.114,5.688-.228,8.532-.342-4.997,14.915-9.516,11.716-3.877,26.814,3.207,8.587,3.462,19.432,15.08,17.041-5.174,6.389-10.978,12.618-5.501,21.703,1.021,2.488,3.652,4.15,3.671,7.152.019,5.168,8.174,5.084,5.956,9.714-2.702,5.64-6.572-.574-9.573,2.783-.54.061-1.082.084-1.626.071-.605-.579-1.21-1.158-1.814-1.738-1.436-6.964-7.049-10.839-11.547-15.521-4.315-4.491-9.446-8.38-10.677-15.047,8.9-.971,12.285-5.6,11.161-14.692-1.271-10.271-1.429-20.679-2.072-31.027Z"/><path class="cls-79" d="m29.048,156.004c.544.014,1.086-.01,1.624-.068,5.517,2.252,8.66,7.192,12.658,11.163,1.971,4.512,5.329,7.88,9.046,10.952,1.556,4.551,7.089,5.007,9.23,8.954,0,0-.195.196-.195.196-2.404-.622-4.808-1.244-7.212-1.866,0,0,0-.004,0-.004-5.959-6.781-11.238-14.298-19.81-18.245-1.838-3.666-7.067-5.701-5.341-11.082Z"/><path class="cls-87" d="m34.389,167.086c8.572,3.947,13.851,11.465,19.81,18.245-8.058-4.505-15.698-9.463-19.81-18.245Z"/><path class="cls-58" d="m76.105,12.896c1.198-.009,2.415.116,3.592-.047,9.509-1.318,18.039-.211,23.348,9.149.613,1.808,1.225,3.616,1.837,5.424-3.032.054-4.594-2.659-7.027-3.734-7.552-8.606-21.11-6.922-29.148,3.62-22.462,4.213,9.621,10.124,12.77,12.329-4.869.145-9.739.286-14.608.427-5.562,1.318-7.633-5.388-12.587-5.469-.609-6.667,2.939-10.617,8.817-12.54,2.387-.781,4.54-1.36,5.673-3.777,3.286-.686,6.778-1.105,7.18-5.53l.153.149Z"/><path class="cls-39" d="m104.88,27.423c-.611-1.808-1.222-3.617-1.836-5.425.066-4.858.133-9.717.2-14.575,8.444.72,17.141-2.015,25.354,1.86-7.496,2.72-13.598,6.428-12.722,15.959.342,3.724-2.86,3.843-5.5,4.22-1.987-.265-4.154-.041-5.497-2.038Z"/><path class="cls-49" d="m68.772,18.278c-1.134,2.417-3.286,2.996-5.673,3.777-5.878,1.923-9.426,5.873-8.818,12.541-.279,2.938-.391,5.903-.868,8.808-1.367,8.313,1.156,10.309,9.872,7.649.03,1.141.06,2.282.089,3.426.708,1.825,1.417,3.648,2.126,5.472-.207.594-.414,1.188-.622,1.783-2.503-3.91-5.722-6.367-10.696-5.262l-.047-.032c-11.122-21.52-27.814-1.271-29.219,14.288-2.844.114-5.688.228-8.532.342-.912-2.763-.069-5.144,1.603-7.345,6.161-2.984,10.445-7.338,10.698-14.635.551-.644,1.101-1.288,1.653-1.932,6.711-6.054,14.567-11.037,18.476-19.712,1.747-1.875,3.493-3.75,5.241-5.625,4.913-1.152,9.185-4.954,14.715-3.543Z"/><path class="cls-22" d="m48.816,27.446c-3.91,8.675-11.765,13.658-18.476,19.712.179-1.079.36-2.157.543-3.233,5.787-5.152,9.362-12.408,15.981-16.77.651.096,1.302.193,1.953.29Z"/><path class="cls-63" d="m68.772,18.278c-5.53-1.411-9.803,2.391-14.715,3.543,4.98-8.61,15.225-4.534,21.895-9.073-.402,4.425-3.894,4.844-7.18,5.53Z"/><path class="cls-21" d="m110.377,29.463c2.64-.378,5.842-.497,5.5-4.222-.876-9.531,5.226-13.238,12.722-15.959,1.91,2.69,3.647.687,5.425-.2,2.95-1.214,5.479-.791,7.423,1.907-.034.674-.069,1.349-.103,2.023-11.137-.119-5.601,9.822-8.77,14.511-3.34,2.312-7.156,3.181-11.101,3.659-3.644-.927-7.734,1.023-11.096-1.721Z"/><path class="cls-48" d="m141.344,13.013c.034-.674.069-1.348.103-2.023,3.947,1.143,6.489,5.066,10.815,5.457,6.668,2.454,13.336,4.909,20.005,7.364,2.125,4.049,5.338,6.936,9.466,8.85.004,0-.415.31-.414.308-9.211,1.617-16.701-4.834-25.44-5.427-.506-.187-1.028-.311-1.564-.374-2.272-2.261-4.293-4.884-6.885-6.686-2.843-1.976-6.683-2.803-6.085-7.468Z"/><path class="cls-8" d="m28.687,49.09c-.253,7.297-4.536,11.651-10.698,14.635,1.572-6.334,5.517-10.935,10.698-14.635Z"/><path class="cls-77" d="m68.756,187.118c8.772,1.685,17.376,3.733,23.6,10.919-6.053-1.185-12.106-2.371-18.16-3.555-4.261-2.427-8.522-4.855-12.784-7.282,0,0,.194-.195.192-.193,2.383.038,4.767.075,7.151.111Z"/><path class="cls-18" d="m155.878,27.543c8.74.592,16.229,7.043,25.441,5.426,4.864,2.84,6.919,8.975,12.664,10.778,3.316,5.245,6.259,10.765,10.996,14.972,1.414,14.17,3.891,40.359-4.048,52.973-8.623,13.702-26.565,5.03-33.968,13.71-5.805,2.457-12.112,3.946-16.729,8.687-2.283.579-4.232,1.659-5.561,3.679-1.779,1.879-4.76,2.554-5.498,5.477-.503.756-1.006,1.512-1.509,2.268-.44.032-.873.108-1.298.227-2.259.542-4.194.527-4.346-2.536,4.415-5.857,8.829-11.714,13.243-17.57,1.771-.839,3.542-1.677,5.313-2.516,7.422-1.095,14.889-2.084,20.064-8.484,3.602.301,5.237-1.912,6.866-4.741,2.069-3.593,3.714-7.618,7.496-9.967-.411,2.228-5.215,19.105-5.944,17.844,4.188,7.243,16.075-7.673,18.147-11.154,11.137-18.716,2.614-49.957-12.332-64.667-3.055-7.546-10.855-4.622-16.098-7.315-4.362-2.24-11.418.365-12.899-7.09Z"/><path class="cls-92" d="m150.234,134.088c4.617-4.739,10.925-6.227,16.729-8.685,4.202.082,8.404.163,12.605.242-.018.551-.027,1.105-.026,1.658-2.777,1.595-5.806,1.926-8.931,1.771-4.82-.534-8.777.719-11.106,5.349-3.115.591-6.277,2.471-9.27-.335Z"/><path class="cls-95" d="m179.542,127.304c0-.554.008-1.107.027-1.659,7-.855,13.735-.174,19.963,3.444-.026,1.83-.052,3.659-.076,5.488-5.444-.151-8.258-7.216-14.422-5.483-1.831-.597-3.662-1.194-5.492-1.79Z"/><path class="cls-14" d="m217.821,107.237c-1.082,12.127,2.644,24.752-3.773,36.326-5.71-6.544.671-25.037.296-32.603-.575-11.618-3.966-22.944-3.76-34.62,5.204,7.04,2.824,16.35,7.098,23.668.046,2.41.092,4.82.138,7.23Z"/><path class="cls-108" d="m43.329,167.1c-3.998-3.971-7.14-8.912-12.658-11.163,3.003-3.361,6.873,2.853,9.575-2.786,2.218-4.63-5.937-4.546-5.956-9.713,9.667,5.648,19.346,8.15,29.063.103,1.236.044,2.473.088,3.709.132-2.654,9.358-6.289,8.149,7.441,10.546,12.026,2.099,26.393,4.18,37.577-1.565-1.984,3.379-4.06,6.729-3.415,10.929-2.414,1.716-.936,7.861-3.805,8.813.705-.234-15.692-7.029-16.554-7.45-4.741-2.315-6.468-5.433-11.93-7.017-1.627-.472-14.346-.634-16.117-.002-7.749,2.767-7.288,9.586-16.93,9.173Z"/><path class="cls-108" d="m68.756,187.118c-2.384-.037-4.769-.073-7.151-.111-2.14-3.949-7.673-4.405-9.229-8.956,2.417-.018,1.365-6.362,4.343-3.334,4.023,4.091,15.209,1.526,12.037,12.401Z"/><path class="cls-35" d="m185.034,129.095c6.163-1.735,8.977,5.33,14.422,5.482-.003,1.144-.004,2.288-.007,3.43-15.949.505-6.087,14.684-11.241,22.642-3.708,5.725-18.007,4.727-17.621,11.923-11.084,12.74-33.259,10.697-38.304-3.527,11.192-1.224,22.433.763,33.631-4.351,7.127-3.254,11.05-7.385,13.745-13.893,4.367.356,5.506-2.055,5.396-5.927-.15-5.256-.026-10.519-.02-15.779Z"/><path class="cls-45" d="m172.394,148.997c-2.1,4.062-1.692,10.641-9.26,9.211-2.406-.044-4.814-.086-7.221-.128.036-4.871.071-9.742.106-14.613,2.845-.287,6.63,1.298,7.168-3.59,8.103-2.034,6.38,5.836,9.207,9.12Z"/><path class="cls-7" d="m155.912,158.08c2.408.042,4.815.084,7.221.128-5.305,5.915-20.467,10.022-26.401,6.642-4.984-2.839-1.525-8.291-2.901-12.335.844-2.258,1.691-4.518,2.537-6.777.425-.118.858-.194,1.299-.228,1.015,13.076,3.017,15.294,12.877,14.261,1.789-.564,3.578-1.128,5.367-1.692Z"/><path class="cls-27" d="m172.394,148.997c-2.828-3.283-1.105-11.154-9.207-9.119-1.2-1.837-3.803-2.729-3.684-5.456,2.33-4.629,6.288-5.882,11.106-5.349,2.706,4.686,8.761,7.707,7.223,14.505-2.429,1.189-1.576,5.667-5.439,5.419Z"/><path class="cls-12" d="m177.833,143.578c1.538-6.798-4.517-9.819-7.223-14.505,3.127.155,6.156-.176,8.933-1.77,1.83.598,3.661,1.194,5.492,1.791-.006,5.261-.13,10.524.02,15.78.111,3.872-1.028,6.283-5.396,5.927-.32-2.48.777-5.319-1.826-7.223Z"/><path class="cls-31" d="m114.762,147.37c-.874,1.14-1.749,2.279-2.622,3.419-12.823.868-25.521-.882-38.27-1.711-3.953-.257-5.295-1.967-5.076-5.564,4.928-4.732,6.921-12.34,14.349-14.624.268,7.602-5.81,9.744-1.725,14.668,2.75,3.314,24.19,6.473,27.387,3.107,13.924-14.661-17.511-16.761-25.668-17.773.062-1.151.124-2.301.186-3.452,7.912-2.966,15.542-4.028,21.93,3.257,1.01.152,2.02.305,3.031.457,2.104,1.681,4.207,3.362,6.311,5.043,1.886,4.368,2.115,8.757.167,13.173Z"/><path class="cls-43" d="m114.595,134.197c-2.104-1.681-4.207-3.362-6.309-5.042-1.649-13.512-.049-15.763,13.046-18.354-7.812,9.643-8.195,13.718-1.708,18.2,1.218,1.255,2.437,2.509,3.655,3.764-1.364,6.656,3.266,13.086.762,19.889-.267.727,1.881.243,2.918.048-.197,1.154-.394,2.307-.594,3.462-9.619,7.267-5.547-2.594-6.977-5.564.48-2.545,1.099-5.075,1.406-7.643.562-4.706-.62-8.326-6.2-8.762Z"/><path class="cls-71" d="m68.795,143.512c-.219,3.597,1.122,5.308,5.075,5.565,12.749.829,25.447,2.58,38.27,1.711-.019.621-.037,1.242-.058,1.863-11.187,5.746-25.554,3.665-37.58,1.566-13.73-2.397-10.095-1.188-7.442-10.547.576-.063,1.155-.116,1.734-.158Z"/><path class="cls-103" d="m114.595,134.197c5.58.436,6.762,4.056,6.2,8.762-.307,2.568-.926,5.099-1.406,7.643-1.546-1.08-3.089-2.157-4.63-3.233,1.95-4.416,1.722-8.804-.165-13.172Z"/><path class="cls-86" d="m126.96,152.703c-1.037.195-3.185.679-2.918-.048,2.504-6.803-2.127-13.234-.763-19.891,1.684,2.609,12.455-1.295,13.698-4.009,5.218-11.395-7.026-7.718-10.011-14.214,3.592-.038,7.184-.076,10.776-.115,2.879,3.487,3.828,8.267,7.524,11.207-4.414,5.857-8.828,11.713-13.243,17.57-3.412,2.249-3.124,6.468-5.063,9.5Z"/><path class="cls-82" d="m24.919,70.727c1.405-15.56,18.096-35.808,29.219-14.289-3.775.087-22.547-11.172-17.707,5.543,2.746,9.484,16.967,1.419,17.753-5.511,4.974-1.105,8.193,1.352,10.697,5.264-.672,5.436-5.975,3.811-8.891,5.826-3.228-.606-4.74,2.491-7.281,3.367-7.925-.81-13.668,4.25-14.495,10.378-.994,7.367-3.418,16.685,5.434,22.326-.688,4.829,8.955,4.51,5.378,10.778-.546.088-1.092.175-1.638.259-2.422-.029-4.844-.059-7.265-.088-11.618,2.391-11.873-8.455-15.08-17.041-5.639-15.098-1.12-11.899,3.877-26.814Z"/><path class="cls-64" d="m43.388,114.67c.546-.085,1.093-.171,1.639-.259,1.831.098,3.66.196,5.492.293-32.304,33.979,32.053,26.786,21.94,3.454,3.312,1.198,7.833.399,8.87,5.358-5.992,6.675-11.984,13.349-17.975,20.024-9.716,8.047-19.395,5.544-29.063-.103-.019-3.002-2.649-4.665-3.671-7.153-2.673-11.292,6.444-15.629,12.768-21.614Z"/><path class="cls-72" d="m43.388,114.67c-6.324,5.985-15.441,10.322-12.768,21.614-5.477-9.085.328-15.314,5.502-21.703,2.423.03,4.844.06,7.266.089Z"/><path class="cls-105" d="m68.706,27.309c8.038-10.542,21.596-12.226,29.148-3.619-.124,10.98-1.893,13.073-11.703,13.844-8.394.66-16.614-4.158-17.445-10.224Z"/><path class="cls-41" d="m68.706,27.309c.831,6.067,9.051,10.884,17.445,10.224,9.81-.771,11.579-2.864,11.703-13.844,2.433,1.075,3.995,3.787,7.027,3.734,1.342,1.997,3.509,1.774,5.496,2.039,3.362,2.745,7.452.795,11.096,1.721-.794,3.765-3.422,8.269,3.585,8.898.046.528.1,1.055.162,1.582-.68.094-1.36.189-2.04.283-1.217.021-2.434.041-3.652.062-.52-.14-1.047-.251-1.58-.333-1.197-4.603-5.02-3.295-8.074-3.479-9.514-.575-18.813,3.266-28.399,1.44-3.148-2.201-35.232-8.112-12.77-12.326Z"/><path class="cls-24" d="m63.285,51.054c-8.716,2.659-11.239.663-9.872-7.65.478-2.905.589-5.87.868-8.808,4.954.081,7.025,6.787,12.588,5.469.029.584.043,1.168.044,1.753-3.214,2.293-3.063,5.905-3.628,9.236Z"/><path class="cls-34" d="m66.913,41.818c-.001-.585-.016-1.169-.044-1.753,4.869-.141,9.738-.282,14.607-.427,9.586,1.823,18.885-2.018,28.399-1.443,3.054.184,6.877-1.123,8.074,3.479-3.066.129-6.131.258-9.197.387-13.946-.081-27.893-.163-41.839-.244Z"/><path class="cls-68" d="m66.913,41.818c13.946.081,27.893.163,41.839.243-.086,1.445-.467,2.728-1.892,3.437-8.47,2.813-17.482,2.912-25.77,1.281-8.658-1.704-13.592,1.028-17.715,7.698-.03-1.142-.06-2.283-.09-3.424.565-3.33.414-6.943,3.628-9.235Z"/><path class="cls-55" d="m55.99,67.561c2.916-2.014,8.219-.39,8.891-5.826.206-.596.413-1.191.619-1.786.45-.065.903-.107,1.359-.125.213,1.339.426,2.675.638,4.011-.796,1.222-1.593,2.444-2.389,3.666-8.947,2.944-1.929,8.237-1.843,12.51-2.885,2.571-1.425,5.982-1.75,9.048-.026,1.226-.052,2.452-.079,3.678-2.745-.032-6.462-.136-6.491-3.258-.07-7.292-4.671-14.913,1.046-21.919Z"/><path class="cls-9" d="m66.857,59.823c-.455.02-.908.062-1.358.127-.707-1.822-1.416-3.646-2.125-5.471,4.123-6.672,9.057-9.404,17.715-7.7,8.288,1.632,17.301,1.533,25.771-1.28.493,5.578.165,11.062-1.885,16.347-1.182-.021-2.366-.041-3.549-.062,6.475-19.174-32.47-15.118-34.329-5.401-.08,1.147-.16,2.294-.24,3.44Z"/><path class="cls-91" d="m141.344,13.013c-.598,4.665,3.242,5.492,6.085,7.468,2.592,1.802,4.613,4.425,6.884,6.687-3.666.977-5.129-1.983-7.461-3.803-5.911-4.61-9.076-3.325-10.956,3.909-1.107.083-2.214.166-3.322.249,3.169-4.689-2.367-14.63,8.77-14.511Z"/><path class="cls-16" d="m132.574,27.524c1.107-.083,2.214-.166,3.322-.249l.129.11c.229,4.546-1.642,6.947-6.456,7.463-2.489.267-6.441.574-4.51,5.232-7.007-.628-4.379-5.133-3.585-8.898,3.945-.478,7.761-1.346,11.101-3.658Z"/><path class="cls-16" d="m135.896,27.275c1.88-7.234,5.045-8.519,10.956-3.909,2.333,1.819,3.796,4.78,7.461,3.803.537.061,1.059.186,1.565.373,1.48,7.456,8.537,4.851,12.898,7.091,5.243,2.693,13.043-.231,16.1,7.314-11.495.66-44.443-19.337-48.852-14.561l-.129-.11Z"/><path class="cls-70" d="m136.025,27.386c4.409-4.776,37.357,15.221,48.852,14.561,14.944,14.711,23.468,45.952,12.331,64.667-2.072,3.482-13.959,18.397-18.147,11.154.729,1.262,5.534-15.615,5.945-17.843-1.625-4.914,4.359-12.586-5.296-14.591-.669-1.748-1.338-3.497-2.006-5.246-2.142-5.988-11.93-6.987-12.782-11.672-.674-3.7,5.654-5.309,5.836-8.997.432-8.749-8.756-16.698-16.484-9.939-6.186,5.41,1.769,19.504-3.947,25.41-5.215,5.389-16.781,3.292-23.349,3.253-.288-1.519-.746-2.852-2.445-3.438-7.759-2.678-7.337-6.383-1.816-11.474,6.833-6.301,4.967-13.99,2.506-21.571-.063-.527-.117-1.054-.162-1.582-1.931-4.658,2.021-4.965,4.51-5.232,4.814-.516,6.685-2.917,6.456-7.463Z"/><path class="cls-78" d="m145.266,125.633c-3.696-2.939-4.645-7.72-7.523-11.206.255-5.974,5.527-16.201-5.184-10.825,3.263-5.439,10.858-6.553,12.933-13.379,1.47-4.834,5.457-6.778,10.466-6.531-11.777,14.869-8.357,19.188,9.099,20.084-1.74,2.231-4.393,1.221-6.564,1.885-5.268,1.611-10.25,3.649-9.662,10.64-1.091,2.7,3.912,3.84,1.748,6.815-1.771.839-3.542,1.677-5.313,2.516Z"/><path class="cls-30" d="m150.579,123.117c2.164-2.975-2.839-4.115-1.75-6.814,9.403-3.785,11.94-.878,18.71-8.219,6.13-6.648,11.3-16.317,3.071-24.541-.074-.581-.113-1.164-.117-1.75,3.538-.916,5.203,1.837,7.309,3.726,5.792,7.348,1.502,13.66-1.94,20.161-1.622,3.063-5.654,4.717-5.219,8.953-5.175,6.4-12.642,7.389-20.064,8.484Z"/><path class="cls-102" d="m150.545,159.772c-9.86,1.033-11.863-1.185-12.877-14.261.502-.754,1.005-1.51,1.507-2.265,9.527-1.368,12.861,3.041,11.385,12.078-.236,1.445-.022,2.964-.015,4.448Z"/><path class="cls-104" d="m150.545,159.772c-.006-1.485-.221-3.003.015-4.448,1.476-9.037-1.859-13.446-11.385-12.078.739-2.923,3.719-3.599,5.499-5.477,3.381,2.697,10.569-2.176,11.345,5.699-.035,4.871-.07,9.742-.106,14.613-1.79.564-3.579,1.128-5.368,1.691Z"/><path class="cls-10" d="m170.643,114.633c-.435-4.236,3.597-5.889,5.219-8.953,3.443-6.502,7.732-12.814,1.94-20.162.636-.062,1.272-.123,1.908-.185,9.654,2.006,3.67,9.678,5.295,14.592-3.782,2.349-5.427,6.374-7.496,9.967-1.629,2.828-3.264,5.042-6.866,4.741Z"/><path class="cls-94" d="m156.019,143.467c-.776-7.874-7.964-3.001-11.345-5.699,1.328-2.02,3.278-3.1,5.56-3.679,2.993,2.804,6.155.924,9.27.333-.121,2.727,2.482,3.619,3.683,5.456-.538,4.887-4.323,3.302-7.168,3.589Z"/><path class="cls-88" d="m63.353,143.54c5.992-6.675,11.984-13.349,17.977-20.023.635.019,1.269.038,1.902.057.03.622.061,1.244.091,1.866-.062,1.151-.124,2.301-.186,3.452l.005-.004c-7.427,2.285-9.42,9.893-14.348,14.625-.579.042-1.157.094-1.734.158-1.235-.043-2.471-.087-3.707-.131Z"/><path class="cls-52" d="m83.137,128.892c8.156,1.012,39.591,3.112,25.668,17.773-3.197,3.366-24.637.207-27.387-3.107-4.085-4.924,1.992-7.066,1.725-14.668,0,0-.006.003-.006.003Z"/><path class="cls-11" d="m121.331,110.801c-13.094,2.591-14.694,4.842-13.045,18.354-1.013-.154-2.023-.306-3.034-.456-1.296-4.72-7.388-8.147-3.836-14.178,2.118-4.195,5.533-5.947,10.175-5.411,5.528.638,10.524-.898,15.197-3.738.062.656.124,1.312.186,1.968-1.881,1.154-3.762,2.307-5.643,3.461Z"/><path class="cls-84" d="m101.416,114.521c-3.551,6.031,2.54,9.458,3.837,14.178-6.387-7.287-14.017-6.226-21.929-3.259-.03-.622-.06-1.244-.09-1.866.406-1.857,6.883-1.538,1.912-5.324,5.667-.184,11.606.82,16.271-3.729Z"/><path class="cls-69" d="m126.966,114.541c2.985,6.496,15.228,2.82,10.011,14.214-1.243,2.714-12.013,6.618-13.698,4.009-1.218-1.253-2.436-2.508-3.655-3.763.256-5.931-.965-12.61,7.341-14.461Z"/><path class="cls-54" d="m126.966,114.541c-8.306,1.851-7.085,8.53-7.341,14.461-6.487-4.483-6.105-8.558,1.708-18.201,1.88-1.154,3.761-2.308,5.642-3.462,2.662-.052,4.331-1.587,5.587-3.737,10.709-5.376,5.437,4.851,5.182,10.825-3.593.037-7.185.076-10.777.114Z"/><path class="cls-85" d="m55.99,67.561c-5.717,7.005-1.115,14.626-1.046,21.919.03,3.122,3.746,3.226,6.492,3.258-.043,3.029,2.561,4.747,3.595,7.244q-14.09-4.057-16.292,7.16c-2.44-3.104-3.192-8.322-9.015-7.192-3.281-11.614-2.444-21.955,8.984-29.022,2.542-.875,4.054-3.973,7.281-3.367Z"/><path class="cls-1" d="m39.724,99.95c5.823-1.13,6.575,4.087,9.015,7.193,13.697,3.54,27.449,6.671,41.766,5.528-3.461,4.078-9.175.041-13.094,3.213,2.209,3.089,5.208,1.862,7.734,2.367,4.971,3.785-1.506,3.466-1.912,5.323-.634-.019-1.268-.038-1.903-.057-1.039-4.96-5.559-4.161-8.872-5.359-2.832-1.432-5.807-2.186-9-1.914l-.106-.093c-4.014-2.824-8.52-1.284-12.834-1.445-1.83-.098-3.66-.196-5.49-.294,3.576-6.269-6.067-5.95-5.379-10.779.026-1.228.051-2.455.076-3.683Z"/><path class="cls-6" d="m54.184,56.471c-.786,6.93-15.007,14.995-17.753,5.511-4.84-16.715,13.932-5.456,17.707-5.543,0,0,.046.033.046.033Z"/><path class="cls-101" d="m39.724,99.95c-.025,1.228-.051,2.455-.076,3.683-8.852-5.641-6.428-14.959-5.434-22.326.827-6.129,6.571-11.189,14.495-10.378-11.429,7.067-12.266,17.408-8.985,29.022Z"/><path class="cls-76" d="m63.457,116.244c3.194-.272,6.168.482,9,1.914,10.113,23.332-54.243,30.526-21.939-3.454,4.313.163,8.819-1.378,12.833,1.448-4.285.574-22.212,5.687-12.705,14.335,6.983,6.352,24.183-4.583,12.811-14.243Z"/><path class="cls-93" d="m125.221,41.662c2.461,7.581,4.327,15.27-2.506,21.571-5.521,5.091-5.943,8.796,1.816,11.474,1.699.586,2.157,1.919,2.444,3.439-1.254,1.221-2.508,2.441-3.761,3.662-4.189-.613-7.602,1.023-10.663,3.677l-.47-.062c-.876-3.915,3.256-5.259,4.726-8.836-8.926.213-8.946-3.606-4.511-9.237,9.439-5.982,15.612-13.362,10.885-25.405.68-.094,1.36-.189,2.04-.283Z"/><path class="cls-19" d="m123.181,41.946c4.727,12.043-1.445,19.422-10.884,25.404-4.103.477-7.86,2.979-6.655,6.771,2.173,6.839-1.858,11.406-3.966,16.774-1.837-5.385,4.623-10.839-.133-16.2-1.137-3.399-5.641-7.439,1.759-9.21,16.086-6.707,16.37-7.117,16.227-23.478,1.217-.021,2.434-.041,3.652-.062Z"/><path class="cls-51" d="m119.529,42.007c.143,16.36-.141,16.771-16.227,23.478.557-1.213,1.114-2.426,1.672-3.64,2.052-5.285,2.38-10.769,1.887-16.347,1.424-.71,1.806-1.993,1.892-3.438,3.066-.128,6.131-.257,9.197-.387.533.082,1.059.193,1.58.333Z"/><path class="cls-42" d="m65.106,67.502c.797-1.222,1.593-2.444,2.388-3.667,3.514,8.769,13.098,9.336,19.406,14.332.544,3.221,1.191,6.429,1.607,9.666.537,4.179.267,7.997-5.248,8.512-3.773-11.046-12.821-18.777-18.153-28.843Z"/><path class="cls-2" d="m86.9,78.167c-6.308-4.996-15.892-5.562-19.406-14.332-.21-1.335-.423-2.671-.636-4.01.079-1.149.159-2.296.238-3.442,8.245-2.016,12.799,2.506,16.172,9.12-.531,4.72,5.359,7.602,3.632,12.664Z"/><path class="cls-90" d="m65.106,67.502c5.332,10.066,14.38,17.797,18.153,28.843-.014,1.768-.028,3.536-.042,5.303-1.126-.565-2.251-1.13-3.377-1.696-2.566-9.103-6.179-17.339-16.577-19.941-.086-4.273-7.104-9.566,1.843-12.51Z"/><path class="cls-99" d="m65.03,99.982c-1.033-2.497-3.637-4.215-3.594-7.244.026-1.226.052-2.452.078-3.677,7.396-3.488,12.301.151,14.843,11.014-3.81,3.965-7.554.148-11.326-.093Z"/><path class="cls-46" d="m76.36,100.075c-2.546-10.864-7.451-14.503-14.847-11.015.325-3.066-1.135-6.477,1.75-9.048,10.399,2.602,14.011,10.837,16.577,19.941,0,0-.398.283-.397.28-1.027-.055-2.055-.106-3.084-.158Z"/><path class="cls-107" d="m79.841,99.953c1.126.565,2.251,1.13,3.378,1.697,17.343,6.163,14.083-35.838.213-38.06-.484-5.454,2.02-7.163,5.965-3.462,3.993,3.746,7.727,3.285,12.029,1.655,1.183.021,2.367.041,3.549.062-.559,1.213-1.116,2.426-1.673,3.64-7.399,1.77-2.895,5.811-1.76,9.208-1.819,8.115-3.499,16.266-5.52,24.332-.844,3.368-1.329,6.013,3.251,6.369-1.431,3.041-5.039,3.185-7.129,5.348-8.124,1.194-11.141-3.777-12.703-10.506l.398-.283Z"/><path class="cls-26" d="m101.426,61.784c-4.302,1.629-8.036,2.091-12.029-1.655-3.945-3.701-6.45-1.993-5.967,3.462-.055.638-.109,1.275-.162,1.912-3.373-6.614-7.928-11.136-16.172-9.12,1.86-9.717,40.806-13.773,34.331,5.401Z"/><path class="cls-62" d="m123.214,81.808c1.253-1.22,2.507-2.441,3.761-3.662,6.569.038,18.134,2.135,23.35-3.254,5.717-5.907-2.238-20,3.947-25.41,7.728-6.759,16.916,1.19,16.484,9.939-.182,3.687-6.509,5.297-5.836,8.997.853,4.684,10.64,5.684,12.783,11.671-4.599-1.602-9.364-1.711-14.183-2.039-12.458-.848-24.077,5.715-36.588,3.793-1.24-.011-2.48-.022-3.719-.034Z"/><path class="cls-93" d="m126.933,81.842c12.511,1.921,24.129-4.641,36.588-3.793,4.819.328,9.584.437,14.183,2.039.668,1.75,1.336,3.498,2.005,5.246-.635.061-1.271.122-1.907.184-2.106-1.888-3.771-4.641-7.308-3.725-10.097-1.985-19.849-1.401-28.973,3.875-1.24-.035-2.479-.069-3.719-.104-6.773-1.535-8.547,6.998-14.471,7.175,2.306-3.268,4.399-6.606,3.601-10.898Z"/><path class="cls-37" d="m170.611,83.542c8.229,8.224,3.059,17.894-3.071,24.541-6.77,7.341-9.307,4.434-18.71,8.219-.586-6.992,4.395-9.03,9.664-10.64,2.171-.664,4.824.346,6.564-1.887,1.58-.856,2.882-1.958,3.385-3.776,4.53-4.865,1.156-9.698-.059-14.54.119-.53.163-1.067.13-1.61l2.097-.308Z"/><path class="cls-44" d="m170.611,83.542c-.699.103-1.398.205-2.096.306-4.185-.053-8.37-.104-12.556-.155-5.009-.247-8.996,1.697-10.466,6.531-2.076,6.827-9.67,7.94-12.933,13.379-1.254,2.15-2.923,3.685-5.585,3.737-.062-.656-.124-1.312-.185-1.968,0,0,.001-.008.001-.008,3.906-7.315,9.085-13.679,14.731-19.694,9.124-5.277,18.876-5.862,28.973-3.876.003.585.042,1.169.117,1.749Z"/><path class="cls-81" d="m155.959,83.693c4.186.051,8.372.102,12.556.155.031.545-.012,1.081-.128,1.612-15.644-.169-16.505,15.818.056,14.54-.504,1.818-1.806,2.92-3.385,3.776-17.456-.894-20.876-5.213-9.099-20.082Z"/><path class="cls-74" d="m123.332,92.739c5.923-.177,7.697-8.71,14.471-7.176-2.914,2.569-5.661,5.368-8.783,7.656-4.723,3.463-5.779,7.307-2.23,12.144,0,0,0,.009-.001.008-4.674,2.84-9.67,4.376-15.198,3.738-4.642-.536-8.057,1.216-10.175,5.411-4.666,4.549-10.605,3.546-16.272,3.729-2.525-.503-5.524.724-7.733-2.366,3.919-3.173,9.633.864,13.094-3.213.547-.643,1.093-1.286,1.639-1.929,2.09-2.164,5.698-2.308,7.129-5.347.644-.686,1.288-1.373,1.932-2.06,5.956-4.557,7.52-11.777,10.875-17.911,0,0,.47.062.468.062,1.705,9.588,4.832,11.691,10.782,7.254Z"/><path class="cls-75" d="m92.145,110.742c-.546.643-1.093,1.286-1.639,1.929-14.318,1.142-28.069-1.989-41.766-5.529q2.202-11.217,16.292-7.161c3.772.241,7.515,4.057,11.325.093,1.032.052,2.061.104,3.088.159,1.56,6.732,4.577,11.703,12.701,10.509Z"/><path class="cls-47" d="m63.457,116.244c11.372,9.661-5.829,20.596-12.811,14.243-9.506-8.648,8.42-13.762,12.705-14.335,0-.001.106.092.106.092Z"/><path class="cls-57" d="m112.082,85.423c-3.355,6.134-4.919,13.354-10.874,17.914.157-4.146.313-8.294.468-12.442,2.109-5.368,6.139-9.935,3.966-16.774-1.205-3.792,2.553-6.294,6.655-6.771-4.435,5.632-4.415,9.451,4.51,9.238-1.47,3.577-5.602,4.921-4.726,8.836Z"/><path class="cls-4" d="m123.332,92.739c-5.95,4.437-9.077,2.334-10.782-7.254,3.063-2.654,6.476-4.29,10.665-3.677,1.239.011,2.479.022,3.719.033.798,4.292-1.295,7.63-3.601,10.898Z"/><path class="cls-50" d="m101.676,90.895c-.156,4.148-.311,8.296-.468,12.442-.645.685-1.289,1.372-1.934,2.058-4.581-.358-4.096-3.002-3.252-6.37,2.021-8.066,3.701-16.217,5.52-24.332,4.757,5.363-1.703,10.817.134,16.202Z"/><path class="cls-15" d="m83.268,65.502c.054-.637.107-1.274.162-1.912,13.872,2.222,17.131,44.223-.212,38.06.013-1.769.027-3.537.041-5.305,5.515-.515,5.785-4.333,5.248-8.512-.416-3.237-1.063-6.445-1.607-9.666,1.727-5.063-4.164-7.944-3.632-12.665Z"/><path class="cls-11" d="m126.79,105.364c-3.549-4.837-2.493-8.681,2.23-12.144,3.121-2.289,5.868-5.087,8.783-7.656,1.239.035,2.479.069,3.718.105-5.646,6.017-10.825,12.38-14.731,19.696Z"/><path class="cls-89" d="m168.443,100c-16.561,1.279-15.7-14.709-.056-14.54,1.212,4.842,4.586,9.675.056,14.54Z"/></svg>