<?xml version="1.0" encoding="UTF-8"?><svg id="Layer_1" xmlns="http://www.w3.org/2000/svg" viewBox="0 0 228.411 233.868"><defs><style>.cls-1{fill:#60628d;}.cls-2{fill:#707fbe;}.cls-3{fill:#434885;}.cls-4{fill:#7790c9;}.cls-5{fill:#5063ad;}.cls-6{fill:#4e65af;}.cls-7{fill:#2c3891;}.cls-8{fill:#1b1a4d;}.cls-9{fill:#6579bb;}.cls-10{fill:#2a2d71;}.cls-11{fill:#6d86c3;}.cls-12{fill:#2c479b;}.cls-13{fill:#5b63a7;}.cls-14{fill:#3a4da0;}.cls-15{fill:#7987c2;}.cls-16{fill:#494e92;}.cls-17{fill:#535da6;}.cls-18{fill:#4052a3;}.cls-19{fill:#7389c5;}.cls-20{fill:#7377b4;}.cls-21{fill:#d8e1f1;}.cls-22{fill:#c8dcf1;}.cls-23{fill:#8da6d5;}.cls-24{fill:#98afda;}.cls-25{fill:#565d9b;}.cls-26{fill:#3e50a2;}.cls-27{fill:#7d91c9;}.cls-28{fill:#4b61ad;}.cls-29{fill:#5266af;}.cls-30{fill:#5b79bb;}.cls-31{fill:#89a1d3;}.cls-32{fill:#262763;}.cls-33{fill:#8389bc;}.cls-34{fill:#2b3a94;}.cls-35{fill:#2a4395;}.cls-36{fill:#8091c8;}.cls-37{fill:#787799;}.cls-38{fill:#6d8ac6;}.cls-39{fill:#8293ca;}.cls-40{fill:#6b83c1;}.cls-41{fill:#8d98cc;}.cls-42{fill:#2b2d73;}.cls-43{fill:#2b327f;}.cls-44{fill:#212058;}.cls-45{fill:#636eb2;}.cls-46{fill:#aec0e3;}.cls-47{fill:#7089c5;}.cls-48{fill:#7482bf;}.cls-49{fill:#84a8d8;}.cls-50{fill:#7e8cc4;}.cls-51{fill:#98aad7;}.cls-52{fill:#5863a3;}.cls-53{fill:#293273;}.cls-54{fill:#5a71b6;}.cls-55{fill:#33449a;}.cls-56{fill:#2b3380;}.cls-57{fill:#374b9f;}.cls-58{fill:#2f4099;}.cls-59{fill:#5d619c;}.cls-60{fill:#8f9acd;}.cls-61{fill:#5963a3;}.cls-62{fill:#2a2d72;}.cls-63{fill:#8a91c4;}.cls-64{fill:#559;}.cls-65{fill:#647dbd;}.cls-66{fill:#5870b5;}.cls-67{fill:#7285c1;}.cls-68{fill:#4b5fab;}.cls-69{fill:#4157a6;}.cls-70{fill:#849acf;}.cls-71{fill:#5068b1;}.cls-72{fill:#708dc8;}.cls-73{fill:#97b5df;}.cls-74{fill:#6c74b1;}.cls-75{fill:#94afdb;}.cls-76{fill:#5872b7;}.cls-77{fill:#4a5198;}.cls-78{fill:#97b2dd;}.cls-79{fill:#6b88c5;}.cls-80{fill:#5f67ab;}.cls-81{fill:#5a6cb2;}.cls-82{fill:#cbd1ea;}.cls-83{fill:#6c77b5;}.cls-84{fill:#54619d;}.cls-85{fill:#b3c1e3;}.cls-86{fill:#a2bce2;}.cls-87{fill:#7b9dd2;}.cls-88{fill:#2a3a94;}.cls-89{fill:#656fb0;}.cls-90{fill:#a8c7e8;}</style></defs><path class="cls-1" d="m228.409,172.595c.09,2.5-2.266,3.352-3.392,5.029-1.18.127-2.363.256-3.546.384-.582-.133-1.163-.265-1.744-.396-.039-.517-.126-1.027-.257-1.529-5.796-4.047-11.693-7.133-18.439-1.873-.257-6.811,6.974-3.517,9.55-6.57-1.724-1.9-3.179-3.502-4.633-5.105.122-2.065,1.026-3.402,3.261-3.502,1.585,6.304,7.304,6.738,12.087,8.502,1.757,1.057,3.514,2.114,5.272,3.171.614.63,1.228,1.259,1.841,1.889Z"/><path class="cls-74" d="m205.947,162.536c1.454,1.602,2.909,3.205,4.633,5.105-2.576,3.053-9.807-.241-9.551,6.573-.594.702-1.186,1.402-1.779,2.101.933-4.057-4.426-6.116-3.258-10.248.875-1.822,4.178.077,4.35-2.888.977-16.863,8.339-33.02,5.57-50.298,3.256,2.659,2.244,7.418,5.069,10.289-.82,5.572-2.37,11.005-3.486,16.475-1.515,7.427-4.744,15.041-1.547,22.891Z"/><path class="cls-25" d="m205.947,162.536c-3.197-7.85.032-15.464,1.547-22.891,1.116-5.47,2.667-10.903,3.488-16.476.002,0,.272-.195.272-.195,1.681,1.745,3.362,3.489,5.042,5.234.518,1.671,1.035,3.342,1.553,5.013-8.801,6.625-6.35,17.012-8.641,25.813-2.235.1-3.14,1.437-3.261,3.502Z"/><path class="cls-82" d="m142.365,12.047c1.923,2.048,1.901,5.562,5.05,6.688.185.528.195,1.059.032,1.593-3.235,4.894,3.615,10.722-1.433,15.448-1.37.189-3.487-.117-3.994.646-4.775,7.173-10.662,9.129-18.285,4.582-1.063-.087-2.125-.174-3.188-.262-1.234-1.579,11.732-32.212-.136-25.465-3.48-3.389-1.405-6.781-.004-10.172,1.684-1.394,3.368-2.789,5.052-4.183.604.161,1.208.322,1.813.482,5.323,3.135,10.986,5.786,15.094,10.641Z"/><path class="cls-37" d="m142.365,12.047c-4.107-4.855-9.771-7.506-15.094-10.641,1.12-.469,2.241-.938,3.362-1.406,3.903,4.024,12.442,3.539,11.732,12.047Z"/><path class="cls-59" d="m159.602,227.291c-1.093,1.151-2.187,2.302-3.28,3.452-2.309.617-4.618,1.234-6.925,1.851-10.789-.621-21.579-1.243-32.37-1.863,1.13-1.729,2.261-3.459,3.393-5.19,1.206-.004,2.413-.007,3.619-.011,1.918,1.523,4.206,1.847,6.542,2.02,11.826,6.842,24.268,2.903,29.127-9.235,1.016-2.539,1.157-5.796,5.035-5.873,4.99,2.831,10.368.738,15.543,1.224-1.419,2.776-5.324.788-6.763,3.526,0,0-.045.042-.045.041-9.481-3.335-12.145,2.719-13.876,10.058Z"/><path class="cls-50" d="m205.911,112.88c2.769,17.279-4.593,33.436-5.57,50.298-.172,2.965-3.475,1.067-4.352,2.886-.003-.002-.429-.337-.428-.336-.566-5.238,1.349-10.171,1.889-15.273,7.37-9.998,5.383-21.337,4.265-32.377-.76-7.498-3.263-14.861-.8-22.454,1.664,2.327,3.328,4.653,4.992,6.98l.013-.006c-1.608,3.425-3.02,6.851-.01,10.281Z"/><path class="cls-25" d="m205.911,112.88c-3.01-3.43-1.598-6.855.01-10.281,3.173,6.427,5.314,13.124,5.333,20.375,0,0-.271.194-.272.195-2.827-2.87-1.815-7.629-5.071-10.288Z"/><path class="cls-50" d="m199.25,176.315c-.063,1.539-.126,3.077-.19,4.619-2.058.516-3.55-.805-5.203-1.602-.431-4.659-.911-9.324,1.703-13.603,0,0,.427.335.429.337-1.166,4.133,4.194,6.193,3.261,10.25Z"/><path class="cls-64" d="m193.857,179.331c1.654.797,3.146,2.118,5.204,1.602,1.485,5.457-4.812,7.576-5.252,12.211-1.79,1.082-3.578,2.164-5.364,3.247.744-3.96-3.004-4.632-4.889-6.668,1.858-2.209,3.715-4.419,5.571-6.629,1.748-1.038,1.94-4.031,4.729-3.763Z"/><path class="cls-86" d="m122.037,20.425c.813-2.144-.9-3.491-1.628-5.148,11.868-6.747-1.097,23.887.135,25.467-1.785.081-3.57.16-5.353.239-3.378-.074-6.757-.147-10.135-.22-1.088-6.24-29.427,1.932-31.988,4.31-8.732,8.104,1.054,3.048-.481,11.406-1.362,1.812-3.388,1.474-5.264,1.624-3.566-1.267-6.962-.759-10.635.122-9.68,2.322-14.247,10.418-20.285,16.898-5.554,2.567-8.018,13.649-10.185,1.768,1.244-2.893,2.763-5.581,5.119-7.766,3.713-3.443,5.984-7.516,5.143-12.81,10.972-6.593,22.375-12.323,34.257-17.095,12.186-3.794,24.074-9.158,37.375-3.695,4.148,1.704,8.402-.253,10.512-4.898,1.633-1.873,3.325-3.699,4.883-5.632,1.54-1.91,2.723-3.884-.951-4.829l-.518.26Z"/><path class="cls-85" d="m123.734,41.005c7.623,4.547,13.51,2.591,18.285-4.582.508-.763,2.624-.456,3.995-.645-1.85,2.542.998,7.456-3.361,8.374-9.297,1.959-.886,3.63-.085,5.412,1.124,2.318,2.94,3.935,5.194,5.106,3.15,2.899,5.678,5.908,1.781,10.054-.574.116-1.148.232-1.722.348-6.662-3.673-8.959-11.749-15.602-15.441-.517-.057-1.036-.108-1.554-.153-2.869-2.367-6.656-3.986-6.93-8.473Z"/><path class="cls-41" d="m142.567,49.564c-.8-1.782-9.211-3.454.086-5.412,4.359-.918,1.511-5.833,3.361-8.374,5.048-4.726-1.803-10.554,1.433-15.449,1.246,2.318,2.492,4.636,3.738,6.953-2.308,1.707.922,3.406.009,5.111-6.224,6.31.011,11.015,2.511,16.312-4.044,1.71-10.123-4.979-11.137.859Z"/><path class="cls-23" d="m123.734,41.005c.274,4.487,4.061,6.105,6.93,8.473-7.138.586-14.727-3.379-21.379,2.113-.34-.712-.68-1.423-1.02-2.135l1.643-1.942c2.866-1.552,5.589-3.383,9.74-3.685-2.212-1.412-3.335-2.128-4.457-2.844,1.784-.079,3.568-.159,5.354-.239,1.064.086,2.127.173,3.19.26Z"/><path class="cls-80" d="m7.474,85.547c1.078-.091,2.155-.182,3.233-.272,2.147,4.397,3.894,8.897,3.629,13.92-.127,1.601-.253,3.202-.38,4.803-3.978,1.969-2.957,6.196-4.172,9.392-1.186,3.121,1.674,7.287-2.439,9.721-2.478-9.322-1.697-18.741-.56-27.797-2.178-2.615-5.342,4.137-6.786-1.283.065-4.962,5.576-5.134,7.474-8.484Z"/><path class="cls-3" d="m9.094,158.978c-.557-.008-1.115-.014-1.671-.016-4.841-8.589-3.111-18.057-3.646-27.221-.001.001.427-.314.424-.312.813,9.329,5.871,17.903,4.893,27.549Z"/><path class="cls-36" d="m7.184,126.385c.054-1.092.108-2.184.162-3.275,4.112-2.433,1.252-6.599,2.439-9.72,1.215-3.196.194-7.423,4.173-9.391,3.149,9.274,1.061,18.965,1.511,28.363,1.082,22.585,9.168,41.739,22.712,59.169.242,3.857,3.119,7.424,5.816,7.488,10.605.249,17.058,9.354,26.629,11.39,2.617,4.132,7.052,4.357,11.181,5.003,4.953.776,10.016.976,14.527,3.529-9.157.092-18.308.084-27.339-1.767-3.655-.282-5.683-3.618-8.83-4.745-3.873-1.386-6.71-6.075-11.758-3.794-1.204-.528-2.409-1.056-3.613-1.584.278-3.238-1.751-5.57-4.084-6.754-5.943-3.015-8.312-8.512-10.962-13.932-4.416-11.032-11.706-20.179-14.625-31.973-2.137-8.636-.496-21.681-7.939-28.007Z"/><path class="cls-61" d="m7.184,126.385c7.443,6.326,5.802,19.371,7.939,28.007,2.918,11.793,10.209,20.94,14.624,31.972-1.245-.536-2.489-1.072-3.734-1.607-8.163-6.94-11.241-17.212-16.92-25.78.978-9.646-4.08-18.22-4.893-27.549-.228-2.405,1.094-3.892,2.984-5.043Z"/><path class="cls-16" d="m104.916,230.969c-9.353.743-18.227-2.173-27.3-3.565-9.839-5.451-20.765-9.061-29.067-17.12,4.72.937,8.862,2.857,12.522,6.147,3.615,3.249,7.999,4.993,13.058,4.173,0,0,.013-.008.013-.008,2.437,4.233,6.938,4.104,10.886,5.144,6.629,1.745,13.813,1.381,19.888,5.229Z"/><path class="cls-84" d="m26.013,184.757c1.244.536,2.488,1.071,3.734,1.607,2.65,5.42,5.02,10.917,10.963,13.932,2.333,1.184,4.363,3.516,4.084,6.754-9.459-4.741-15.931-11.993-18.781-22.293Z"/><path class="cls-52" d="m74.129,220.605c-5.059.82-9.443-.924-13.058-4.173-3.66-3.29-7.802-5.21-12.522-6.147-.113-.545-.16-1.095-.142-1.65,5.048-2.281,7.885,2.408,11.758,3.794,3.146,1.126,5.175,4.463,8.83,4.745,1.711,1.144,3.423,2.287,5.134,3.431Z"/><path class="cls-22" d="m130.58,227.55c-2.335-.173-4.624-.497-6.542-2.019-1.852-1.583-3.704-3.167-5.555-4.752-4.292-19.926,51.886-11.831,15.555,6.533-1.153.079-2.305.159-3.458.238Z"/><path class="cls-2" d="m118.482,220.78c1.852,1.584,3.704,3.168,5.556,4.751-1.206.003-2.413.007-3.619.012-15.681.736-31.257.49-46.277-4.946,0,0-.013.008-.013.008-1.711-1.144-3.423-2.287-5.134-3.431,9.031,1.851,18.182,1.859,27.34,1.767,7.133,3.614,14.815.632,22.147,1.839Z"/><path class="cls-13" d="m74.142,220.597c15.02,5.436,30.596,5.682,46.277,4.946-1.131,1.729-2.262,3.459-3.392,5.188-4.057.539-8.661-.962-11.767,3.137-.114-.968-.228-1.934-.343-2.899-6.075-3.847-13.259-3.483-19.888-5.228-3.948-1.039-8.45-.91-10.886-5.144Z"/><path class="cls-63" d="m130.58,227.55c1.153-.079,2.305-.159,3.458-.237,14.857,1.404,16.891.155,22.436-14.459.958-2.525,3.136-3.073,5.016-4.224,1.219.988,2.438,1.975,3.656,2.963-.139.281-.274.565-.404.851-3.878.075-4.018,3.332-5.035,5.871-4.859,12.138-17.301,16.077-29.127,9.235Z"/><path class="cls-33" d="m183.555,189.723c1.885,2.036,5.634,2.708,4.89,6.668-2.128,2.796-3.004,5.979-2.939,9.455.072,3.815-1.623,6.452-5.22,7.821-5.175-.487-10.553,1.607-15.543-1.225.13-.284.264-.568.403-.847,6.088.259,29.935-3.425,15.031-14.871-1.843-3.764.683-5.423,3.379-7Z"/><path class="cls-78" d="m200.915,95.625c-2.463,7.593.041,14.956.8,22.454,1.118,11.04,3.105,22.378-4.265,32.376-.054-3.021-1.365-21.858-6.759-11.687-1.431,2.698,1.545,10.921,1.223,14.558-.634,7.162-3.43,13.94-8.054,19.463,0,0-.232-.179-.231-.179-2.122-5.795-4.479,2.404-6.657-.11-1.069-3.319,5.169-2.969,3.351-6.664,3.882-10.854,6.468-22.656,10.317-32.996.542-1.455,5.36.273,6.351-3.017.87-2.886-1.424-17.825-3.039-20.409-1.627-3.148-5.339-5.69-4.816-9.377,1.219-8.598-2.702-12.849-10.56-14.556.644-2.912.016-8.829.924-8.408,6.511,3.017,5.439-3.433,7.745-5.409,1.229,1.202,2.458,2.404,3.688,3.607,5.238,5.848,4.047,14.845,9.982,20.353Z"/><path class="cls-17" d="m200.915,95.625c-5.935-5.507-4.744-14.504-9.983-20.353,6.111-5.908-40.475-31.332-39.739-42.88.914-1.705-2.317-3.404-.009-5.111.542-.019,1.079.026,1.611.134,2.811,10.175,19.467,23.706,29.341,23.199-4.263,8.193,12.18,19.035,17.03,26.26,1.179,8.856,7.793,16.29,6.741,25.73-1.664-2.326-3.328-4.653-4.992-6.979Z"/><path class="cls-90" d="m183.861,172.791c4.624-5.523,7.42-12.301,8.054-19.463.322-3.638-2.654-11.86-1.223-14.558,5.394-10.171,6.705,8.665,6.759,11.687-.54,5.103-2.454,10.035-1.889,15.273-2.615,4.278-2.136,8.943-1.705,13.602-2.79-.268-2.981,2.724-4.73,3.763-8.437-.025-2.418-7.427-5.266-10.304Z"/><path class="cls-78" d="m183.861,172.791c2.848,2.877-3.17,10.278,5.266,10.304-1.856,2.21-3.713,4.42-5.571,6.629-2.697,1.577-5.223,3.235-3.378,6.999-7.491-3.109-13.695.907-20.132,3.633,0,0-.449-.467-.447-.466,9.064-8.166,21.167-13.659,24.031-27.278l.232.179Z"/><path class="cls-77" d="m75.675,27.037c.644-1.64,1.288-3.28,1.933-4.92,7.88-.096,15.759-.191,23.638-.287,0,0,.463.405.461.404-.109,1.019-.216,2.04-.323,3.06-8.249,3.483-17.195-1.585-25.43,2.071l-.279-.328Z"/><path class="cls-77" d="m101.246,21.829c1.455-4.942,4.598-2.557,7.288-1.592,4.505,1.616,8.957,3.201,13.504.188,0,0,.518-.26.517-.26-4.521,8.741-7.042,9.243-14.805,2.846-1.9-1.565-3.784-2.396-6.041-.778l-.463-.405Z"/><path class="cls-89" d="m70.737,39.22c-11.882,4.772-23.285,10.503-34.257,17.095-5.34-.074-6.661,6.979-12.064,6.793.827-5.293,9.979-6.346,6.939-13.607.574.004,1.148.008,1.722.011,2.401-.089,4.742,2.445,7.176.263,9.309-8.347,21.801-10.847,32.05-17.464.62.023,1.239.045,1.857.068-.984,2.359-3.624,3.89-3.424,6.841Z"/><path class="cls-60" d="m24.416,63.108c5.403.186,6.724-6.868,12.064-6.793.841,5.294-1.43,9.367-5.143,12.81-2.356,2.185-3.876,4.873-5.12,7.765-2.397,5.915-3.062,12.702-8.588,17.042.235-1.867-1.91-3.956-.145-5.51,4.539-3.995.573-5.891-1.749-8.263.041-.525.204-1.01.486-1.455,4.991-1.933,9.967-3.733,6.837-10.944-.485-1.116.907-3.046,1.432-4.599l-.074-.053Z"/><path class="cls-15" d="m15.736,80.159c2.322,2.372,6.288,4.268,1.749,8.263-1.765,1.554.38,3.643.145,5.51-.133,2.357-1.076,4.208-3.293,5.262.265-5.024-1.482-9.524-3.629-13.921.344-3.013,3.094-3.664,5.028-5.115Z"/><path class="cls-20" d="m24.49,63.161c-.524,1.553-1.916,3.483-1.432,4.599,3.13,7.211-1.846,9.011-6.837,10.944-.151-6.725-.655-13.638,8.269-15.543Z"/><path class="cls-77" d="m72.302,32.31c-10.247,6.617-22.74,9.117-32.049,17.465-2.434,2.182-4.775-.351-7.176-.263,13.054-9.66,27.131-17.385,42.599-22.474-.002-.002.277.326.276.324-1.217,1.648-2.434,3.298-3.65,4.948Z"/><path class="cls-73" d="m14.336,99.195c2.217-1.054,3.16-2.905,3.293-5.262,5.527-4.341,6.191-11.128,8.588-17.043,2.167,11.882,4.63.799,10.186-1.767.523.575,1.044,1.15,1.568,1.725.088.538.132,1.079.133,1.623-4.739,2.171-7.435,6.452-10.197,10.456-3.127,4.534-2.433,8.387,3.491,10.12,1.066-.031,2.131-.062,3.197-.093,2.991,3.552-.388,6.751-.653,10.107-.598,7.562-5.149,14.914-1.054,22.701.151,6.184,5.473,13.891-4.993,16.953-3.783,3.568-3.696,7.649-2.503,12.454,2.569,10.348,8.955,18.007,16.309,25.141-3.42.229-3.545,2.675-3.521,5.223-13.544-17.431-21.63-36.584-22.712-59.169-.45-9.398,1.638-19.089-1.511-28.363.125-1.602.252-3.203.378-4.804Z"/><path class="cls-49" d="m72.588,56.48c1.533-8.359-8.252-3.303.479-11.407,2.562-2.377,30.9-10.55,31.988-4.308-5.494.579-12.365-1.54-13.778,7.027-7.542.077-12.35,6.027-18.689,8.688Z"/><path class="cls-31" d="m37.969,76.847c-.522-.575-1.044-1.15-1.566-1.725,6.038-6.48,10.605-14.576,20.285-16.898,3.673-.881,7.069-1.389,10.635-.122-4.35,3.686-11.479,3.669-13.663,10.241-.105.986-.209,1.973-.313,2.961-2.193,1.299-4.387,2.598-6.581,3.897-3.133-.523-6.07,0-8.797,1.647Z"/><path class="cls-39" d="m70.737,39.22c-.199-2.95,2.44-4.482,3.424-6.841,4.886-2.294,9.391-4.298,15.372-2.105,3.596,1.319,9.099,2.15,12.004-3.05.893-.59,1.785-1.18,2.678-1.77,2.013,9.482,8.793,5.71,14.409,5.173-2.11,4.645-6.364,6.601-10.512,4.898-13.301-5.463-25.188-.099-37.375,3.695Z"/><path class="cls-79" d="m91.277,47.792c1.413-8.567,8.284-6.448,13.778-7.027,3.379.072,6.758.145,10.136.219,1.122.717,2.244,1.433,4.457,2.845-4.151.303-6.874,2.133-9.738,3.687-.205-2.914-2.144-1.784-3.953-2.224-5.943-1.445-8.708,6.872-14.681,4.251,0-.584,0-1.167.002-1.751Z"/><path class="cls-38" d="m91.277,47.792c0,.584,0,1.167-.002,1.75-10.417,10.504-25.927,10.835-37.615,18.8,2.184-6.572,9.313-6.555,13.663-10.241,1.875-.149,3.901.188,5.264-1.623,6.341-2.659,11.148-8.609,18.69-8.687Z"/><path class="cls-83" d="m118.623,30.627c-5.616.537-12.395,4.309-14.409-5.173-.893.59-1.785,1.18-2.678,1.77-.051-.643-.103-1.287-.154-1.931.107-1.02.214-2.041.323-3.06,2.259-1.617,4.143-.786,6.043.779,7.763,6.397,10.284,5.895,14.805-2.846,3.676.945,2.493,2.919.953,4.829-1.559,1.933-3.25,3.759-4.883,5.632Z"/><path class="cls-48" d="m151.193,32.393c-.736,11.547,45.849,36.971,39.739,42.88-1.228-1.202-2.457-2.404-3.687-3.606-4.331-4.337-10.253-3.894-15.893-6.932-8.537-4.598-12.169-13.094-23.591-10.065-2.254-1.171-4.069-2.788-5.194-5.106,1.013-5.837,7.092.852,11.136-.858-2.5-5.297-8.734-10.002-2.511-16.312Z"/><path class="cls-51" d="m147.761,54.669c11.422-3.029,15.054,5.468,23.591,10.065,5.64,3.037,11.562,2.595,15.893,6.932-2.306,1.975-1.234,8.426-7.745,5.409-.908-.421-.281,5.496-.924,8.407-.619.052-1.238.104-1.856.155-1.25-.888-1.462-2.16-1.325-3.562,3.257-4.554.244-12.908-5.655-12.955-1.319-.01-3.337,4.175-6.359,4.153-5.045-2.03-8.174-7.428-14.058-7.984l.218-.565c3.897-4.146,1.369-7.155-1.781-10.054Z"/><path class="cls-26" d="m147.821,65.072c.574-.116,1.148-.232,1.722-.348,0,0-.218.565-.218.565.053,1.008.107,2.017.16,3.025.247,3.172-5.287,4.673-2.132,8.907,9.363,12.568,10.19,28.406,15.83,42.419-1.135-.573-2.271-1.147-3.406-1.72.143-4.371-4.733-6.021-5.273-10.307-1.479-11.738-9.759-21.067-12.068-32.574.554-2.315,1.107-4.631,1.661-6.946.124-.465.256-.927.397-1.387,1.312-.132,2.727-.056,3.328-1.634Z"/><path class="cls-67" d="m144.493,66.706c-.141.46-.273.922-.395,1.389-3.877.614-7.756,1.226-11.635,1.84,0,0-.012.001-.012.001,2.086-12.841-1.786-17.198-14.597-17.118-4.738.03-8.097,2.08-11.132,5.255-1.738.468-1.531,6.841-5.121,1.684-.468-1.792,1.965-3.552.058-5.359,2.202-1.647,4.405-3.294,6.607-4.941.34.712.68,1.423,1.02,2.135,6.652-5.492,14.241-1.527,21.379-2.113.519.045,1.037.096,1.556.152,2.713,6.681,5.1,13.595,12.273,17.076Z"/><path class="cls-23" d="m144.493,66.706c-7.173-3.481-9.56-10.395-12.273-17.076,6.642,3.693,8.939,11.769,15.601,15.442-.601,1.578-2.016,1.503-3.328,1.634Z"/><path class="cls-54" d="m108.265,49.456c-2.202,1.647-4.405,3.294-6.608,4.942-.606.08-1.211.158-1.817.236-7.626,1.245-14.568,3.468-17.129,11.957-11.131,3.131-21.929,16.421-22.25,27.384-.018,1.711-.037,3.422-.055,5.133-1.714-.591-3.427-1.181-5.141-1.772,2.439-3.754,1.705-7.946,1.665-12.042-1.819-4.505,5.044-11.229-3.584-13.992.104-.987.208-1.973.313-2.96,11.689-7.966,27.199-8.296,37.616-18.8,5.973,2.622,8.738-5.695,14.681-4.25,1.809.44,3.748-.69,3.953,2.224-.549.645-1.097,1.293-1.644,1.94Z"/><path class="cls-24" d="m161.49,208.63c-1.88,1.151-4.058,1.699-5.016,4.224-5.545,14.614-7.579,15.863-22.436,14.459,36.331-18.365-19.847-26.46-15.555-6.534-7.334-1.206-15.015,1.775-22.149-1.838-4.511-2.552-9.575-2.752-14.528-3.528-4.129-.647-8.565-.871-11.18-5.004,2.671,1.088,26.457,5.408,23.929-.487-1.002-2.336-12.708-3.348-16.16-4.709-7.147-2.818-13.874-7.316-19.833-12.098.089-.482.22-.952.394-1.41.511-.113,1.029-.172,1.553-.176,10.498,8.183,27.989,14.079,38.978,18.379,1.781.697,1.27,3.212,5.301,3.788,8.828,1.261,16.181-8,20.777-13.94,1.057.211,2.113.423,3.17.634,2.108,1.708,3.245,1.513,3.604-1.481.539-4.504,2.956-7.95,6.71-10.469-.08,2.892.346,5.664,1.946,8.156-.075,1.435.152,2.748,1.47,3.618,1.229,5.338,4.639,5.839,8.958,3.882,2.787-1.263,5.453-2.796,8.173-4.207,0,0,.449.467.447.465-.071,2.82-3.594,3.132-4.179,5.61,1.613,1.559,4.496.275,5.625,2.667Z"/><path class="cls-46" d="m58.562,193.114c5.96,4.782,12.687,9.281,19.834,12.098,3.452,1.361,15.158,2.373,16.16,4.709,2.528,5.895-21.258,1.575-23.929.487-9.572-2.035-16.025-11.14-26.63-11.389-2.696-.063-5.574-3.63-5.816-7.488-.024-2.547.101-4.993,3.52-5.222,3.917-.012,5.27,4.014,8.361,5.303,2.138,4.435,5.665,1.013,8.501,1.501Z"/><path class="cls-21" d="m161.49,208.63c-1.129-2.393-4.012-1.108-5.625-2.667.585-2.478,4.108-2.79,4.179-5.61,6.439-2.724,12.644-6.739,20.134-3.63,14.903,11.447-8.945,15.131-15.032,14.872-1.218-.989-2.437-1.977-3.656-2.964Z"/><path class="cls-40" d="m176.72,85.638c.619-.052,1.238-.105,1.857-.156,7.857,1.708,11.778,5.959,10.56,14.557-.523,3.687,3.189,6.23,4.817,9.377-.495,9.126-2.577,32.558-11.935,37.597-.592-.018-1.184-.035-1.776-.052,4.527-9.284,1.575-16.976-5.094-23.876-2.8-8.075-2.569-16.948-6.508-24.754-.268-.53.939-1.804,1.46-2.731.506.111,1.017.196,1.532.255,2.994,2.682,7.13,4.256,8.382,8.629-8.112-1.56-4.726,14.069-1.508,18.246,6.29,8.165,5.246-10.07,3.391-14.938,1.465.718,2.93,1.437,5.203,2.551-2.088-9.787-8.8-15.007-10.381-24.704Z"/><path class="cls-47" d="m180.241,146.96c.592.018,1.184.035,1.777.053-9.054,9.718-12.957,17.498-1.693,18.826,1.818,3.695-4.42,3.345-3.352,6.666-.046.646-.091,1.291-.136,1.935-3.397-2.475-6.775-9.431-10.221-.042-2.797,2.976-7.09,2.949-10.291,5.114-2.066,1.318-4.256,2.104-6.753,1.574-.743-3.484,2.318-4.548,3.933-6.69,4.346-5.764,12.977-7.324,14.872-15.354l.004.008c3.423.05,6.379-.707,6.728-4.796.299-3.51,2.273-5.67,5.133-7.293Z"/><path class="cls-72" d="m176.836,174.439c.045-.644.091-1.289.137-1.935,2.179,2.512,4.536-5.687,6.658.108-2.865,13.619-14.969,19.111-24.032,27.277-2.722,1.41-5.387,2.943-8.174,4.206-4.319,1.957-7.729,1.456-8.956-3.884,11.23.151,32.123-14.872,34.368-25.772Z"/><path class="cls-87" d="m180.324,165.838c-11.264-1.328-7.36-9.107,1.693-18.826,9.358-5.039,11.44-28.471,11.935-37.597,1.615,2.585,3.909,17.524,3.039,20.409-.991,3.29-5.809,1.562-6.351,3.017-3.849,10.34-6.435,22.143-10.317,32.996Z"/><path class="cls-45" d="m101.383,25.293c.051.644.103,1.287.154,1.931-2.905,5.2-8.408,4.368-12.004,3.05-5.981-2.193-10.486-.19-15.372,2.105-.619-.022-1.237-.045-1.857-.068,1.215-1.65,2.431-3.3,3.649-4.948,8.236-3.655,17.182,1.414,25.431-2.069Z"/><path class="cls-70" d="m32.886,131.762c-4.094-7.789.458-15.141,1.056-22.703.265-3.357,3.644-6.556.654-10.106,4.271-3.601,9.27-.468,13.82-1.493,2.493,1.678,4.767,3.305,6.441,6.141,3.516,5.96,2.604,8.914-4.606,9.076-4.306-2.477-8.612-4.956-14.531-8.363,3.013,10.63-4.799,18.185-2.569,27.235l-.266.213Z"/><path class="cls-29" d="m48.416,97.461c-4.549,1.024-9.549-2.109-13.82,1.492-1.067.03-2.132.061-3.198.093-.12-7.625,5.636-13.338,6.706-20.576-.002-.544-.046-1.085-.133-1.623,2.725-1.646,5.662-2.17,8.796-1.647-4.431,3.452-5.069,15.238.574,18.249,9.601,5.123,5.066-4.417,9.591-8.154.04,4.096.773,8.288-1.665,12.042-2.283.042-4.567.083-6.85.123Z"/><path class="cls-4" d="m50.061,191.613c-3.09-1.29-4.443-5.315-8.36-5.304-7.353-7.134-13.739-14.793-16.308-25.141-1.193-4.805-1.28-8.886,2.503-12.454.637.041,1.273.083,1.908.123-.127.517-.206,1.042-.239,1.573-4.851,7.618-1.609,18.201,6.845,22.339,5.096,5.654,6.323-4.874,10.767-2.175.243.148,2.099,18.663,2.884,21.039Z"/><path class="cls-11" d="m38.104,78.47c-1.07,7.238-6.826,12.951-6.706,20.576-5.924-1.733-6.618-5.587-3.491-10.12,2.762-4.004,5.458-8.285,10.197-10.456Z"/><path class="cls-70" d="m29.805,148.838c-.637-.041-1.273-.082-1.91-.124,10.466-3.063,5.144-10.77,4.993-16.954-.002.002.264-.211.263-.211,3.996,4.069,2.479,10.14,5.494,14.812,1.614,2.501-2.333,1.906-3.917,2.477-1.641,0-3.282,0-4.922,0Z"/><path class="cls-55" d="m56.931,85.295c-4.525,3.737.009,13.277-9.591,8.154-5.643-3.011-5.005-14.797-.574-18.249,2.194-1.299,4.387-2.597,6.581-3.897,8.628,2.762,1.765,9.487,3.584,13.992Z"/><path class="cls-28" d="m149.484,68.313c-.053-1.008-.107-2.017-.16-3.025,5.883.557,9.013,5.954,14.056,7.986,1.102,1.128,2.205,2.255,3.309,3.382.394,4.694,9.351,3.873,6.765,10.486-10.238-3.419-18.38-9.502-23.97-18.829Z"/><path class="cls-6" d="m173.454,87.143c2.586-6.614-6.371-5.792-6.766-10.484,5.04-1.626,9.186-1.819,8.707,5.416-.137,1.402.076,2.675,1.325,3.562,1.579,9.699,8.292,14.919,10.38,24.706-2.273-1.115-3.738-1.833-5.202-2.552-.627-1.103-1.255-2.205-1.884-3.307-1.252-4.372-5.388-5.947-8.382-8.629,5.451-1.074,3.074-4.158,1.791-6.961.01-.583.02-1.167.03-1.75Z"/><path class="cls-19" d="m175.395,82.074c.479-7.236-3.667-7.043-8.707-5.416-1.103-1.129-2.206-2.256-3.308-3.384,3.023.021,5.041-4.164,6.361-4.154,5.899.047,8.911,8.401,5.655,12.955Z"/><path class="cls-69" d="m173.454,87.143c-.01.583-.02,1.167-.029,1.75-2.767,1.805-10.401-4.587-8.52,5.05,2.634,14.701,7.942,32.32,4.36,47.363-1.937,8.134-19.522,35.428-30.03,34.819,0-1.145,0-2.291-.001-3.436,6.379-5.266,10.757-12.167,15.415-18.839,2.532-3.627,6.311-6.724,5.132-11.944,3.826-2.156,6.266-5.089,4.472-9.685-1.617-4.143-.796-8.384-1.07-12.581-5.64-14.013-6.466-29.852-15.83-42.419-3.155-4.234,2.379-5.735,2.132-8.907,5.59,9.327,13.732,15.41,23.97,18.829Z"/><path class="cls-57" d="m142.435,75.038c2.308,11.507,10.589,20.836,12.068,32.574.54,4.286,5.415,5.936,5.273,10.307-.01,1.155-.02,2.309-.03,3.463-4.964-2.377-5.927-7.204-6.716-11.81-.735-4.289-3.093-5.573-6.959-5.339,0-1.71,0-3.42.001-5.13-1.019-6.739-6.274-11.936-6.862-18.832.545-1.203,1.091-2.406,1.636-3.61.529-.541,1.059-1.082,1.588-1.624Z"/><path class="cls-14" d="m159.745,121.383c.01-1.155.02-2.309.03-3.464,1.136.573,2.271,1.147,3.406,1.72.274,4.196-.547,8.438,1.07,12.581,1.793,4.596-.646,7.53-4.472,9.685-.016-1.735-.031-3.47-.046-5.206.004-5.105.008-10.211.012-15.316Z"/><path class="cls-81" d="m142.435,75.038c-.529.541-1.059,1.082-1.588,1.626-3.941.234-3.643-6.648-8.422-5.009.013-.574.026-1.148.038-1.722,3.879-.612,7.758-1.225,11.634-1.839-.555,2.314-1.109,4.629-1.663,6.944Z"/><path class="cls-26" d="m132.425,71.655c4.78-1.639,4.482,5.243,8.422,5.009-.546,1.201-1.092,2.404-1.637,3.608-7.124,2.934-1.696-2.395-4.594-3.896-3.196-1.656-7.919-3.47-14.031-3.236-15.116.579-24.445,8.985-36.167,17.407-.547-3.863,3.176-5.872,4.009-8.695,1.41-4.782,7.636-9.781,1.114-15.251-.724-3.56-.418-6.418,4.13-6.955,3.016-.356,4.796-2.498,6.17-5.011.605-.078,1.211-.157,1.817-.236,1.908,1.806-.525,3.566-.058,5.358-10.424,10.233,2.654,4.677,3.435,4.981,7.955,3.091,19.063,5.354,27.391,6.918Z"/><path class="cls-68" d="m132.425,71.655c-8.328-1.564-19.436-3.828-27.391-6.918-.781-.303-13.859,5.253-3.435-4.981,3.591,5.157,3.384-1.216,5.122-1.684,5.072,1.18,14.57-2.549,18.784.328,4.59,3.135,1.205,10.999,6.946,11.535,0,0,.011,0,.012-.001-.012.573-.025,1.147-.037,1.721Z"/><path class="cls-81" d="m132.451,69.935c-5.741-.536-2.356-8.401-6.946-11.535-4.214-2.877-13.712.852-18.784-.328,3.036-3.175,6.394-5.225,11.133-5.255,12.812-.08,16.683,4.277,14.597,17.118Z"/><path class="cls-68" d="m99.84,54.635c-1.374,2.513-3.154,4.654-6.17,5.011-4.548.537-4.854,3.395-4.13,6.955-.008,17.48-17.372,24.98-28.808,34.224-.109-.572-.217-1.144-.326-1.716.018-1.711.037-3.422.055-5.133,3.736-4.388,22.329-27.368,22.25-27.384,2.561-8.49,9.503-10.713,17.129-11.957Z"/><path class="cls-29" d="m82.712,66.592c.079.015-18.514,22.996-22.25,27.384.321-10.963,11.119-24.252,22.25-27.384Z"/><path class="cls-9" d="m60.407,99.108c.109.572.217,1.144.324,1.717.452.594.907,1.187,1.362,1.78-1.96,10.019-4.766,12.431-12.01,10.324l.17-.253c7.209-.161,8.121-3.115,4.605-9.075-1.673-2.836-3.947-4.464-6.441-6.141,2.283-.04,4.567-.081,6.85-.123,1.713.59,3.427,1.18,5.141,1.771Z"/><path class="cls-14" d="m139.233,172.689c0,1.145,0,2.291.001,3.436-.029.538-.07,1.075-.121,1.611-.554.575-1.108,1.15-1.663,1.725-4.194,4.408-10.261,7.788-8.509,15.463.672,1.85,2.561,3.745-.205,5.466-1.057-.211-2.113-.423-3.17-.633-1.717-1.081-3.434-2.162-5.152-3.242-6.187-8.634-18.783,1.876-27.381-.902-5.936-1.917-16.462-19.714-22.379-11.294-1.085.219-2.169.439-3.254.658,4.614-12.826-15.461-.389-6.63,5.174-.096.458-.182.918-.261,1.379-.524.004-1.041.063-1.553.175-5.576-.842-5.831-23.484-10.39-28.552-5.731,3.476-5.168,5.905-10.619.914-3.984-3.648-5.302-8.715.192-11.841.768,1.343,2.088,1.545,3.449,1.662,9.208,11.863,6.102-6.321,5.717-10.918-1.383-16.523-3.078-23.504,13.102-28.547.516.048,1.032.081,1.55.1-.011,1.136-.022,2.271-.032,3.407-15.348,4.092-9.588,39.394-.788,48.57,11.435,11.923,29.661,7.839,43.823,6.185.007.568,0,1.136-.02,1.704-11.036.874-21.774,10.021-5.175,14.446,17.263,4.602,25.216-13.255,39.467-16.144Z"/><path class="cls-27" d="m60.509,191.528c.078-.461.165-.921.26-1.38,2.21-1.725,4.42-3.449,6.631-5.173,1.085-.219,2.169-.439,3.254-.656,5.22,2.744-1.797,4.505,2.026,8.606,5.043,5.41,23.098,10.803,30.559,12.299,1.385,3.072,6.435,8.65,8.868,2.674.808-1.985-3.289-4.319-3.633-7.764,3.32-3.381,7.481-3.991,11.94-3.622,1.717,1.081,3.434,2.163,5.151,3.243-4.596,5.939-11.949,15.2-20.777,13.939-4.031-.576-3.521-3.091-5.301-3.788-10.99-4.3-28.48-10.196-38.978-18.379Z"/><path class="cls-71" d="m38.14,152.225c-5.494,3.127-4.176,8.194-.192,11.841,5.451,4.991,4.888,2.562,10.619-.914,4.558,5.068,4.813,27.71,10.39,28.552-.174.459-.305.929-.394,1.411-2.836-.488-6.364,2.934-8.501-1.501-.785-2.375-2.641-20.891-2.884-21.039-4.444-2.699-5.671,7.829-10.767,2.174-5.86-6.351-5.339-14.655-6.845-22.338.032-.532.111-1.057.239-1.573,1.642.001,3.283.001,4.924,0,1.137,1.128,2.275,2.257,3.412,3.387Z"/><path class="cls-6" d="m156.324,179.511c3.201-2.166,7.493-2.138,10.291-5.114,3.549.338,3.652,2.605,1.86,4.574-7.555,8.301-14.838,17.186-27.479,17.624-1.6-2.492-2.026-5.264-1.945-8.159.339-1.928-.153-4.126,1.815-5.515.483,2.864-.875,5.929.863,8.842,2.325-1.202,19.734-11.113,14.596-12.252Z"/><path class="cls-30" d="m140.996,196.595c12.641-.438,19.925-9.324,27.479-17.624,1.792-1.969,1.689-4.236-1.86-4.574,3.446-9.389,6.825-2.433,10.221.042-2.246,10.901-23.139,25.924-34.369,25.773-1.319-.869-1.546-2.182-1.471-3.617Z"/><path class="cls-66" d="m140.866,182.921c-1.968,1.39-1.476,3.588-1.815,5.515-3.755,2.522-6.172,5.967-6.711,10.471-.358,2.995-1.496,3.189-3.604,1.481,2.766-1.72.877-3.615.205-5.465,4.467-4.258,7.12-9.513,8.509-15.463.554-.575,1.108-1.15,1.664-1.724,5.217,1.093,8.382-2.028,11.626-5.372,5.175-5.334,10.158-11.003,17.636-13.324-1.895,8.03-10.526,9.59-14.872,15.354-1.615,2.142-4.675,3.206-3.933,6.691-2.862.801-6.279-1.028-8.705,1.836Z"/><path class="cls-6" d="m168.377,159.04c-7.479,2.322-12.461,7.991-17.636,13.324-3.245,3.344-6.41,6.465-11.626,5.372.051-.537.091-1.074.12-1.612,10.508.608,28.093-26.685,30.03-34.819,3.582-15.044-1.725-32.662-4.36-47.363,1.897.035,3.935-.371,5.196,1.656-.521.928-1.728,2.201-1.46,2.731,3.939,7.806,3.708,16.679,6.508,24.753,3.571,14.747,1.435,20.684-6.768,35.965l-.004-.008Z"/><path class="cls-76" d="m168.381,159.049c8.203-15.281,10.339-21.218,6.768-35.965,6.668,6.9,9.62,14.592,5.093,23.877-2.861,1.622-4.834,3.782-5.134,7.292-.348,4.089-3.304,4.846-6.728,4.796Z"/><path class="cls-75" d="m180.015,104.483c.628,1.102,1.256,2.204,1.884,3.307,1.855,4.869,2.898,23.104-3.391,14.939-3.218-4.177-6.604-19.807,1.508-18.246Z"/><path class="cls-35" d="m170.101,95.599c-1.261-2.027-3.299-1.621-5.196-1.656-1.882-9.637,5.753-3.245,8.52-5.05,1.282,2.803,3.659,5.887-1.792,6.961-.515-.059-1.026-.144-1.532-.254Z"/><path class="cls-12" d="m140.866,182.921c2.426-2.864,5.843-1.035,8.705-1.836,2.497.53,4.687-.257,6.753-1.574,5.138,1.139-12.271,11.05-14.596,12.252-1.738-2.912-.38-5.977-.863-8.842Z"/><path class="cls-9" d="m38.14,152.225c-1.137-1.129-2.275-2.258-3.412-3.387,1.584-.569,5.531.025,3.917-2.476-3.015-4.672-1.498-10.743-5.494-14.812-2.229-9.051,5.583-16.606,2.57-27.236,5.919,3.407,10.225,5.886,14.531,8.363,0-.001-.169.252-.168.25-23.911-7.599-.326,39.154-8.495,40.959-1.36-.117-2.68-.319-3.448-1.662Z"/><path class="cls-9" d="m29.565,150.411c1.506,7.683.986,15.986,6.845,22.338-8.454-4.136-11.697-14.72-6.845-22.338Z"/><path class="cls-57" d="m139.233,172.689c-14.251,2.889-22.204,20.746-39.467,16.144-16.599-4.425-5.861-13.572,5.175-14.446-1.48,4.936-6.412.038-1.84,6.025,2.927,3.832,18.713-2.565,21.891-4.227,16.473-8.619,28.3-22.258,34.741-39.485.015,1.735.031,3.47.046,5.206,1.179,5.221-2.599,8.318-5.131,11.945-4.658,6.672-9.036,13.574-15.415,18.839Z"/><path class="cls-88" d="m159.733,136.699c-6.441,17.228-18.267,30.866-34.741,39.485-3.178,1.663-18.964,8.06-21.891,4.227-4.573-5.987.36-1.089,1.84-6.025.02-.568.026-1.136.019-1.704,1.969,1.498,3.732,3.554,5.952,4.371,3.931,1.446,7.964,1.843,7.711-4.472.035-2.227.071-4.454.106-6.682,6.468-.385,12.391-2.113,17.061-6.924,8.315-6.427,17.913-13.713,19.288-25.097,1.378-11.4-7.967-18.874-9.063-29.601l.055-.044c3.865-.233,6.223,1.05,6.958,5.339.789,4.606,1.752,9.433,6.716,11.81-.004,5.106-.008,10.211-.012,15.316Z"/><path class="cls-7" d="m146.072,99.104c0,1.71-.001,3.421-.001,5.13,0,0-.055.043-.054.043-2.279.233-32.273-28.49-34.256-13.755-6.808.03-13.616.061-20.424.091,3.571-5.238,21.158-13.332,27.318-12.942,13.155.833,16.822,15.524,27.417,21.433Z"/><path class="cls-58" d="m146.072,99.104c-10.595-5.908-14.262-20.6-27.417-21.433-6.16-.39-23.747,7.703-27.318,12.941,0,0-.007-.01-.008-.01-3.518-.078-4.103,3.349-6.046,5.128-4.693,4.299-9.063,9.09-16.288,8.496,1.555-3.33,4.455-4.626,7.775-5.763,3.721-1.275,7.285-3.182,7.649-7.917,11.721-8.422,21.05-16.829,36.167-17.407,6.112-.234,10.835,1.581,14.031,3.236,2.898,1.501-2.53,6.83,4.594,3.896.587,6.896,5.842,12.093,6.861,18.832Z"/><path class="cls-18" d="m62.092,102.605c-.455-.593-.909-1.186-1.362-1.78,11.438-9.245,28.802-16.744,28.81-34.224,6.522,5.47.296,10.468-1.114,15.251-.833,2.824-4.555,4.833-4.009,8.695-6.138,5.226-14.846,6.052-20.569,11.991-.586.022-1.171.045-1.757.067Z"/><path class="cls-29" d="m62.092,102.605c.586-.022,1.171-.045,1.757-.067.595,4.465-.255,8.512-3.442,11.883-16.18,5.044-14.485,12.025-13.102,28.548.385,4.598,3.491,22.782-5.717,10.918,8.169-1.805-15.416-48.558,8.495-40.959,7.243,2.109,10.049-.304,12.009-10.323Z"/><path class="cls-34" d="m118.624,172.581c.253,6.315-3.78,5.919-7.711,4.472-2.22-.817-3.983-2.873-5.952-4.371-14.162,1.654-32.389,5.739-43.823-6.185-8.8-9.176-14.561-44.477.79-48.57-.685,2.133-1.777,4.227-1.987,6.406-.685,7.13-4.659,14.668,2.135,21.054,2.658,8.155,6.054,15.709,15.546,17.893,13.657,3.142,27.333,6.204,41.001,9.3Z"/><path class="cls-43" d="m62.076,145.389c-6.794-6.386-2.819-13.925-2.134-21.055.209-2.179,1.301-4.273,1.987-6.406.008-1.135.019-2.271.032-3.407,1.777-.596,3.551-1.191,5.326-1.786,3.24-1.771,6.724-3.212,9.67-5.382,6.039-4.446,13.391-7.92,14.373-16.751,0,0,.007.009.007.01,6.809-.03,13.617-.06,20.426-.09,7.778,3.972,17.792,2.74,24.024,10.308-9.468-3.562-23.405-7.417-33.593-5.175-9.158,2.015-15.273,10.046-23.061,14.732-16.878,10.156-17.134,14.339-16.902,34.825l-.153.177Z"/><path class="cls-5" d="m103.239,205.225c-7.462-1.496-25.516-6.889-30.559-12.299-3.823-4.101,3.195-5.862-2.026-8.606,5.917-8.422,16.443,9.375,22.379,11.292,8.598,2.777,21.194-7.732,27.381.902-4.459-.37-8.62.24-11.941,3.62-1.745,1.697-3.49,3.394-5.235,5.091Z"/><path class="cls-26" d="m67.286,112.735c-1.775.595-3.549,1.191-5.326,1.786-.52-.019-1.036-.052-1.552-.1,3.187-3.372,4.037-7.419,3.442-11.884,5.723-5.938,14.43-6.764,20.569-11.991-.364,4.735-3.928,6.641-7.649,7.917-3.319,1.138-6.22,2.434-7.774,5.764-2.74,2.401-1.282,5.644-1.709,8.509Z"/><path class="cls-53" d="m67.401,184.976c-2.21,1.724-4.421,3.448-6.631,5.173-8.83-5.562,11.245-17.999,6.631-5.173Z"/><path class="cls-6" d="m137.451,179.461c-1.389,5.95-4.042,11.205-8.509,15.463-1.751-7.675,4.315-11.054,8.509-15.463Z"/><path class="cls-65" d="m103.239,205.225c1.745-1.697,3.489-3.395,5.235-5.091.345,3.446,4.442,5.78,3.634,7.765-2.433,5.976-7.484.398-8.868-2.674Z"/><path class="cls-56" d="m135.786,100.83c-6.232-7.568-16.246-6.336-24.024-10.308,1.982-14.736,31.976,13.987,34.255,13.754,1.095,10.728,10.44,18.202,9.063,29.602-1.376,11.384-10.974,18.669-19.288,25.097.96-6.404,7.807-8.377,10.284-13.639-.063-3.533,3.059-5.161,4.629-7.717,4.422-7.201,2.668-14.109-4.597-18.012-.012-.546-.045-1.09-.1-1.634-.971-7.165-8.984-10.137-10.221-17.143Z"/><path class="cls-43" d="m118.624,172.581c-13.668-3.096-27.344-6.158-41.001-9.3-9.492-2.184-12.888-9.738-15.546-17.893-.001.001.152-.176.151-.175,1.712-.999,3.408-.933,5.088.084,3.829,6.9,6.742,14.94,17.101,13.704,0,0-.005-.003-.004-.003,3.394,5.745,9.035,2.577,13.66,3.44,5.917,6.799,13.726,1.937,20.522,3.325l.136.136c-.035,2.227-.071,4.454-.106,6.681Z"/><path class="cls-43" d="m146.076,145.336c-2.477,5.262-9.324,7.235-10.285,13.639-4.67,4.811-10.593,6.539-17.061,6.924,0,0-.135-.135-.134-.134-.287-4.095,1.036-5.681,5.56-7.229,6.68-2.285,14.559-4.615,16.792-13.209v-.004c1.709.005,3.418.009,5.128.014Z"/><path class="cls-7" d="m67.286,112.735c.427-2.865-1.031-6.108,1.709-8.509,7.225.594,11.594-4.197,16.287-8.497,1.942-1.779,2.528-5.206,6.046-5.128-.981,8.831-8.334,12.306-14.372,16.752-2.947,2.169-6.43,3.611-9.67,5.382Z"/><path class="cls-10" d="m67.316,145.298c-1.68-1.018-3.376-1.083-5.088-.084-.23-20.487.025-24.67,16.903-34.826,7.788-4.686,13.903-12.717,23.061-14.732,10.188-2.242,24.125,1.613,33.593,5.175,1.237,7.006,9.25,9.978,10.222,17.143-9.06.63-39.538-33.687-46.187-13.746-3.816-.349-6.565,1.425-8.28,4.623-3.021,5.633-11.236,3.123-13.963,9.084-9.34,3.14-12.655,16.14-7.613,23.86,5.43,8.314,13.65,12.171,21.289,17.204-2.28,0-4.56,0-6.841,0,0,0,.005.003.005.003-5.7-4.568-11.401-9.136-17.101-13.704Z"/><path class="cls-32" d="m99.82,104.227c6.65-19.941,37.127,14.375,46.188,13.746.054.544.088,1.088.099,1.634,6.711,9.912,1.835,17.602-4.785,24.964-.18.201-.252.499-.375.752,0,0,0,.004,0,.004-10.9,7.433-24.091,8.858-35.978,13.702-4.572-.01-9.144-.02-13.717-.03-7.639-5.033-15.859-8.89-21.289-17.204-5.042-7.72-1.726-20.72,7.613-23.86-1.04,10.757-5.452,16.919,1.225,25.465,7.004,8.964,18.95,9.751,29.366,8.512,10.68-1.271,26.827-6.021,31.707-16.955,4.783-10.715-2.992-17.657-14.372-17.013-1.135-.007-2.271-.014-3.406-.022-4.449-9.4-13.706-10.99-22.277-13.695Z"/><path class="cls-42" d="m140.947,145.322c.122-.253.194-.551.375-.752,6.621-7.362,11.496-15.051,4.785-24.964,7.266,3.902,9.02,10.811,4.598,18.011-1.57,2.556-4.692,4.184-4.629,7.717-1.71-.004-3.419-.009-5.129-.013Z"/><path class="cls-42" d="m104.97,159.028c11.887-4.844,25.078-6.269,35.978-13.702-2.233,8.594-10.112,10.924-16.792,13.209-4.524,1.548-5.847,3.134-5.56,7.229-6.796-1.389-14.605,3.473-20.522-3.326,2.687-.353,6.274,1.111,6.896-3.41Z"/><path class="cls-62" d="m104.97,159.028c-.622,4.521-4.209,3.057-6.896,3.41-4.626-.863-10.267,2.305-13.661-3.44,2.28,0,4.56,0,6.841,0,4.572.01,9.144.02,13.716.03Z"/><path class="cls-62" d="m67.316,145.298c5.7,4.568,11.401,9.136,17.101,13.704-10.359,1.237-13.272-6.804-17.101-13.704Z"/><path class="cls-44" d="m125.503,117.944c11.381-.644,19.155,6.298,14.372,17.013-4.88,10.933-21.027,15.684-31.707,16.955-10.416,1.239-22.362.453-29.366-8.512-6.677-8.546-2.265-14.708-1.225-25.465,2.727-5.961,10.941-3.451,13.963-9.084,1.716-3.198,4.464-4.972,8.28-4.623,8.571,2.705,17.828,4.295,22.277,13.695-16.048-5.496-18.423-7.957-28.741,4.788-1.364,2.619-2.563,5.314-3.598,8.083-2.066.873-4.219,1.207-6.459,1.003-1.461,6.468.612,3.985,5.173,8.066,11.495,10.286,20.678,6.27,33.267.324,3.047-1.439,13.703-4.854,14.576-7.48,2.965-8.922-10.183-7.896-10.811-14.763Z"/><path class="cls-8" d="m125.503,117.944c.628,6.867,13.776,5.841,10.811,14.763-.873,2.626-11.528,6.041-14.576,7.48-12.588,5.946-21.772,9.961-33.267-.324-4.561-4.081-6.634-1.597-5.173-8.066,2.239.204,4.392-.13,6.459-1.003,1.034-2.77,2.234-5.464,3.598-8.083,10.319-12.744,12.694-10.284,28.741-4.788,1.136.007,2.271.014,3.406.022Z"/></svg>