<?xml version="1.0" encoding="UTF-8"?><svg id="Layer_1" xmlns="http://www.w3.org/2000/svg" viewBox="0 0 196.972 190.134"><defs><style>.cls-1{fill:#658138;}.cls-2{fill:#e9e750;}.cls-3{fill:#bdb539;}.cls-4{fill:#a1762b;}.cls-5{fill:#faf181;}.cls-6{fill:#3f5124;}.cls-7{fill:#6a6c2d;}.cls-8{fill:#d3c836;}.cls-9{fill:#998b32;}.cls-10{fill:#617031;}.cls-11{fill:#7a9a3d;}.cls-12{fill:#c8bc35;}.cls-13{fill:#61642a;}.cls-14{fill:#7c6e2d;}.cls-15{fill:#979134;}.cls-16{fill:#cece3a;}.cls-17{fill:#7f762e;}.cls-18{fill:#9b9936;}.cls-19{fill:#b69b34;}.cls-20{fill:#d8d04d;}.cls-21{fill:#d4da41;}.cls-22{fill:#796d2c;}.cls-23{fill:#7c8937;}.cls-24{fill:#eae552;}.cls-25{fill:#9cb53b;}.cls-26{fill:#e9e34c;}.cls-27{fill:#c1d641;}.cls-28{fill:#b8ba36;}.cls-29{fill:#3b471e;}.cls-30{fill:#c2ab32;}.cls-31{fill:#bfb337;}.cls-32{fill:#6a9b40;}.cls-33{fill:#d9e24e;}.cls-34{fill:#9ca438;}.cls-35{fill:#c2d642;}.cls-36{fill:#2f3e1a;}.cls-37{fill:#bfd741;}.cls-38{fill:#a5a035;}.cls-39{fill:#686229;}.cls-40{fill:#92a13a;}.cls-41{fill:#7c913a;}.cls-42{fill:#7e923a;}.cls-43{fill:#8f9138;}.cls-44{fill:#54602a;}.cls-45{fill:#93bb3d;}.cls-46{fill:#6b973f;}.cls-47{fill:#5e873b;}.cls-48{fill:#755421;}.cls-49{fill:#44602c;}.cls-50{fill:#bcbb33;}.cls-51{fill:#618239;}.cls-52{fill:#ada134;}.cls-53{fill:#f8ed6e;}.cls-54{fill:#e5d556;}.cls-55{fill:#555c28;}.cls-56{fill:#8fc43f;}.cls-57{fill:#949035;}.cls-58{fill:#879839;}.cls-59{fill:#f4ed5e;}.cls-60{fill:#868031;}.cls-61{fill:#4d7436;}.cls-62{fill:#70953d;}.cls-63{fill:#89a93d;}.cls-64{fill:#67a342;}.cls-65{fill:#abba37;}.cls-66{fill:#e9e64c;}.cls-67{fill:#e8d14a;}.cls-68{fill:#a09a35;}.cls-69{fill:#bed336;}.cls-70{fill:#7a722e;}.cls-71{fill:#a7a134;}.cls-72{fill:#4a622d;}.cls-73{fill:#807d32;}.cls-74{fill:#95a63a;}.cls-75{fill:#929c38;}.cls-76{fill:#bfb535;}.cls-77{fill:#aea634;}.cls-78{fill:#a3b93a;}.cls-79{fill:#768436;}.cls-80{fill:#9c9535;}.cls-81{fill:#a7ba53;}.cls-82{fill:#d5c54d;}.cls-83{fill:#697c35;}.cls-84{fill:#cbbf46;}.cls-85{fill:#b9b933;}.cls-86{fill:#acbe3a;}.cls-87{fill:#66642a;}</style></defs><path class="cls-57" d="m180.291,59.713c-.997-.019-1.994-.038-2.991-.057-3.178-2.78-6.357-5.561-11.021-9.642,2.666,8.262,4.601,14.257,6.536,20.252-5.26-8.417-10.519-16.835-15.648-25.042,2.822-1.524,4.633-2.501,6.443-3.479,4.019,3,8.038,6,12.057,9,1.541,2.99,3.082,5.979,4.624,8.968Z"/><path class="cls-55" d="m196.911,92.967c.02,5.544.04,11.088.061,16.632-.068.493-.13.986-.187,1.48-4.426,8.921-8.769,17.885-13.331,26.736-1.22,2.367-3.109,4.391-4.691,6.572.501-2.025,1.003-4.049,1.504-6.073,3.753-7.521,8.128-14.81,11.04-22.643,1.93-5.192,1.765-11.163,2.538-16.785,1.022-1.973,2.044-3.946,3.066-5.919Z"/><path class="cls-80" d="m72.84,188.521c-1.558.432-3.116.864-4.672,1.295.582-1.534,1.163-3.067,1.742-4.6,2.079-.792,4.158-1.584,6.238-2.376-.911-.829-1.823-1.658-2.734-2.487-6.243-1.333-12.486-2.667-18.729-4,2.511-.055,5.023-.109,7.534-.164,4.826.691,9.833.791,14.439,2.199,9.519,2.911,18.685.804,27.958-.804,7.554-2.045,15.107-4.09,22.661-6.135,1.034.035,2.067.07,3.101.105,2.56.045,5.121.089,7.681.134-3.101,1.428-6.202,2.856-9.302,4.285-9.801,1.619-19.649,3.001-29.388,4.928-7.921,1.568-15.712,3.789-23.56,5.721-.989.633-1.978,1.266-2.968,1.898Z"/><path class="cls-13" d="m128.756,175.973c3.101-1.428,6.202-2.856,9.302-4.285,7.399-3.441,16.845-3.294,21.203-12.071,2.022-1.354,4.397-2.383,6.002-4.122,5.155-5.586,10.025-11.435,15.005-17.182-.501,2.024-1.003,4.049-1.504,6.073-11.131,11.805-21.892,23.887-32.661,36.025.175-2.84.321-5.209.466-7.558-6.588,2.183-12.889,4.271-19.191,6.358,0,0-.089-.117-.089-.117.489-1.04.978-2.081,1.467-3.121Z"/><path class="cls-44" d="m69.911,185.217c-.581,1.533-1.161,3.066-1.743,4.6-.475.032-.933.136-1.373.317-6.77-10.208-17.98-10.856-28.355-12.342-12.024-1.722-24.508-12.649-24.501-22.965,2.026,2.509,4.051,5.017,6.077,7.526,3.599,7.609,11.381,8.243,18.018,10.786,9.178,3.002,18.38,5.933,27.51,9.073,1.61.554,2.919,1.981,4.367,3.004Z"/><path class="cls-13" d="m72.84,188.521c.989-.633,1.978-1.265,2.968-1.898,17.161-2.509,34.321-5.019,51.481-7.529,0,0,.088.116.089.117-.45.594-.835,1.638-1.361,1.715-17.717,2.589-35.448,5.085-53.177,7.595Z"/><path class="cls-21" d="m20.015,162.353c-2.026-2.509-4.052-5.017-6.077-7.526-.06-.464-.001-.912.175-1.346.866-.48,1.732-.959,2.6-1.44,4.106,2.91,8.211,5.821,12.315,8.731.957.604,1.913,1.208,2.87,1.811,7.869,5.377,16.65,7.706,25.726,9.05.306-.707.612-1.413.918-2.12-4.842-2.808-9.685-5.616-14.527-8.424-1.502-1.15-3.003-2.301-4.505-3.451,1.016-.896,2.033-1.792,3.049-2.688,7.072,3.526,14.143,7.053,21.215,10.579,3.946,1.023,8.007,1.744,11.797,3.179,2.349.89,4.287,2.864,6.409,4.352-1.32-.116-2.641-.233-3.961-.349.287,1.145.575,2.289.862,3.434-5.554.014-11.108.029-16.662.043-2.511.055-5.023.109-7.534.163-4.092-1.047-8.183-2.094-12.274-3.14-7.465-3.62-14.929-7.24-22.394-10.86Z"/><path class="cls-86" d="m13.527,151.906c.077-2.489.154-4.978.232-7.467.936,1.525,1.872,3.05,2.807,4.576.049,1.009.097,2.018.146,3.028-.866.479-1.732.959-2.599,1.439-.195-.525-.391-1.05-.586-1.575Z"/><path class="cls-43" d="m89.433,2.206c5.598-2.977,10.62-2.294,15.058-1.64-3.489,1.572-6.979,3.142-10.469,4.712-3.001,1.745-6.002,3.489-10.003,5.815,10.849,1.85,19.5,3.325,28.152,4.801-10.05-.716-20.1-1.431-29.642-2.111-.736-1.85-1.473-3.708-2.211-5.564,3.039-2.004,6.076-4.008,9.114-6.013Z"/><path class="cls-15" d="m163.61,41.744c-1.811.978-3.621,1.955-6.443,3.479,5.128,8.207,10.388,16.625,15.647,25.042,1.975,13.218,4.241,26.402,5.796,39.668.691,5.896,2.05,8.259,7.64,4.237-2.133,3.114-4.267,6.228-6.619,9.661-2.982-2.254-4.927-3.724-6.872-5.194.491-9.627,1.158-19.25,1.328-28.883.035-1.957-1.801-3.948-2.775-5.923-3.585-9.052-7.171-18.104-10.756-27.157-3.529-5.006-7.058-10.013-10.586-15.019,2.07-1.589,4.14-3.178,6.21-4.767,2.477,1.618,4.953,3.237,7.43,4.855Z"/><path class="cls-38" d="m156.18,36.889c-2.07,1.589-4.14,3.178-6.21,4.767-17.288-15.193-37.43-23.276-60.435-24.23h-12.275c.37-.841.741-1.681,1.111-2.522l-4.147-3.678c2.031-1.003,4.063-2.005,6.094-3.008.738,1.857,1.476,3.715,2.212,5.565,9.543.68,19.592,1.395,29.642,2.111,4.756,1.943,9.589,3.718,14.251,5.863,9.861,4.538,19.634,9.269,29.443,13.921.097.406.202.809.314,1.211Z"/><path class="cls-73" d="m155.865,35.678c-9.809-4.652-19.581-9.383-29.443-13.921-4.662-2.145-9.495-3.921-14.251-5.863-8.652-1.475-17.304-2.95-28.152-4.8,4.001-2.326,7.002-4.071,10.003-5.815,5.436,5.373,17.414,4.642,25.106,8.476,11.572,5.767,22.709,12.287,33.885,18.769.95,1.052,1.901,2.103,2.851,3.155Z"/><path class="cls-87" d="m153.014,32.523c-11.176-6.481-22.313-13.002-33.885-18.769-7.692-3.833-19.67-3.103-25.106-8.476,3.49-1.57,6.979-3.141,10.468-4.713-1.192,6.646,3.137,1.724,5.306,3.101,3.147,1.997,5.692,3.994,8.836,6.084,11.377,7.564,22.95,15.166,34.38,22.772Z"/><path class="cls-7" d="m186.248,114.172c-5.589,4.021-6.948,1.658-7.639-4.238-1.556-13.267-3.821-26.451-5.796-39.668-1.934-5.995-3.869-11.99-6.535-20.252,4.665,4.081,7.843,6.862,11.021,9.642-6.004,3.355,6.032,40.978,7.665,48.554,1.472-1.059,2.918-2.099,4.363-3.139-.012,1.448-.025,2.896-.037,4.345-1.014,1.586-2.029,3.171-3.043,4.756Z"/><path class="cls-79" d="m189.291,109.414c.012-1.448.025-2.896.037-4.343,1.506-2.061,3.011-4.121,4.517-6.183-.773,5.621-.608,11.591-2.538,16.783-2.912,7.833-7.287,15.122-11.04,22.643-4.98,5.747-9.85,11.595-15.005,17.182-1.605,1.739-3.979,2.768-6.003,4.121,2.107-2.45,4.379-4.779,6.283-7.377,2.565-3.499,4.846-7.206,7.249-10.823,1.017-1.988,2.033-3.976,3.05-5.963,4.901-7.585,9.857-15.136,14.6-22.819.374-.606-.731-2.125-1.149-3.219Z"/><path class="cls-24" d="m78.88,176.147c-.287-1.145-.574-2.289-.862-3.434,1.32.116,2.641.233,3.96.349,4.509-1.044,9.018-2.089,13.527-3.134,15.14-3.522,27.641-5.869,39.98-14.067,12.249-8.137,17.91-15.042,25.038-28.237.949-1.963,1.899-3.926,2.848-5.889,1.053-3.56,2.107-7.121,3.16-10.681,5.925-.531,1.845,4.141,3.136,6.021-.538,2.045-1.076,4.09-1.615,6.135-6.01,14.277-15.252,26.225-26.668,36.535-4.531,4.092-9.396,7.813-14.109,11.703-7.554,2.045-15.107,4.09-22.661,6.135-8.578-.479-17.157-.959-25.735-1.438Z"/><path class="cls-35" d="m127.276,171.45c4.713-3.89,9.579-7.611,14.109-11.703,11.416-10.31,20.658-22.259,26.67-36.536.535,1.018,1.068,2.036,1.601,3.055-.837,1.981-1.675,3.961-3.228,7.634,4.61-1.475,8.083-2.585,12.149-3.885-1.071,2.127-1.904,3.783-2.737,5.438-1.017,1.988-2.033,3.976-3.051,5.963-13.848,11.836-25.941,22.27-42.413,30.14-1.034-.035-2.067-.07-3.101-.105Z"/><path class="cls-74" d="m130.377,171.555c16.472-7.871,28.565-18.305,42.413-30.14-2.402,3.618-4.683,7.325-7.248,10.824-1.904,2.598-4.176,4.927-6.283,7.377-4.356,8.778-13.802,8.631-21.201,12.072-2.56-.044-5.12-.088-7.681-.133Z"/><path class="cls-70" d="m127.289,179.094c-17.16,2.51-34.32,5.02-51.481,7.529,7.848-1.932,15.639-4.154,23.56-5.721,9.74-1.927,19.588-3.309,29.388-4.928-.489,1.039-.978,2.08-1.467,3.12Z"/><path class="cls-17" d="m42.41,173.213c4.091,1.046,8.183,2.093,12.274,3.14,6.243,1.334,12.487,2.668,18.73,4.001.911.829,1.822,1.658,2.734,2.487-2.079.792-4.159,1.584-6.238,2.376-1.447-1.023-2.757-2.45-4.366-3.004-9.13-3.14-18.332-6.071-27.51-9.073,1.459.024,2.917.049,4.376.073Z"/><path class="cls-3" d="m78.88,176.147c8.578.479,17.157.959,25.735,1.438-9.273,1.607-18.439,3.714-27.958.803-4.606-1.408-9.613-1.508-14.439-2.199,5.554-.014,11.108-.028,16.662-.043Z"/><path class="cls-58" d="m42.41,173.213c-1.459-.025-2.917-.049-4.376-.073-6.637-2.542-14.419-3.176-18.018-10.786,7.465,3.619,14.93,7.239,22.394,10.859Z"/><path class="cls-22" d="m3.025,111.233c-.254-6.57-.02-14.771,1.536-24.049,1.533-9.141,3.937-16.869,6.279-22.942,1.46-2.581,2.67-5.361,4.494-7.653.803-1.009,2.856-1.025,4.342-1.492-.484,1.502-.967,3.003-1.452,4.505-11.587,13.917-9.717,36.427-11.047,53.77-.546-.425-1.092-.85-1.638-1.274-1.765,1.684-3.531,3.368-5.296,5.052-.958-.051,1.104-6.839,2.781-5.917Z"/><path class="cls-77" d="m63.774,165.531c-7.072-3.526-14.143-7.053-21.214-10.579-6.377-7.647-14.532-14.239-15.073-25.35,5.001,1.451,10.003,2.903,15.004,4.354,2.054.569,4.108,1.137,6.162,1.706,1.592,4.947,3.158,9.242,9.473,10.783,8.125,1.982,15.868,5.528,23.775,8.4-1.012.045-2.023.09-3.035.135-10.236-2.556-20.472-5.113-30.709-7.669-.319.357-.637.713-.956,1.07,6.534,4.201,13.068,8.403,19.602,12.604.675,1.237,1.351,2.474,2.311,4.232-2.101.124-3.721.219-5.342.315Z"/><path class="cls-67" d="m27.486,129.601c.542,11.112,8.697,17.703,15.073,25.35-1.017.896-2.033,1.792-3.049,2.69-5.998-7.976-11.997-15.956-17.997-23.935-3.04-9.536-6.079-19.074-9.118-28.611.976-.012,1.952-.024,2.928-.036,1.482,5.066,2.963,10.133,4.445,15.199,1.027,1.533,2.054,3.065,3.081,4.598,1.545,1.581,3.091,3.163,4.636,4.744Z"/><path class="cls-34" d="m21.514,133.706c5.999,7.98,11.998,15.959,17.996,23.936,1.501,1.147,3.003,2.298,4.506,3.447-3.348,6.085-8.143.468-12.118,1.495-.957-.604-1.913-1.208-2.871-1.81,4.866-5.315-6.454-18.521-9.721-24.287-1.303,5.957-2.022,9.242-2.74,12.528-.936-1.525-1.871-3.05-2.808-4.576.112-2.538.225-5.075.337-7.612,1.935-1.025,3.87-2.051,5.806-3.077.538-.014,1.075-.029,1.613-.044Z"/><path class="cls-42" d="m16.566,149.015c.719-3.285,1.437-6.571,2.74-12.528,3.266,5.766,14.587,18.973,9.721,24.287-4.104-2.912-8.209-5.823-12.314-8.733-.049-1.009-.098-2.018-.147-3.027Z"/><path class="cls-50" d="m63.774,165.531c1.62-.096,3.241-.191,5.342-.315-.96-1.759-1.635-2.995-2.311-4.232,0,0,.109-.443.109-.443,5.013,1.652,10.026,3.304,15.039,4.956,3.751.524,7.536.887,11.227,1.685.93.201,1.558,1.794,2.326,2.747-4.509,1.045-9.018,2.089-13.527,3.134-2.122-1.488-4.059-3.462-6.408-4.352-3.79-1.436-7.85-2.157-11.797-3.179Z"/><path class="cls-86" d="m31.898,162.585c3.974-1.027,8.77,4.59,12.118-1.495,4.841,2.809,9.684,5.617,14.526,8.425-.306.707-.612,1.413-.918,2.12-9.076-1.344-17.857-3.673-25.726-9.05Z"/><path class="cls-9" d="m19.902,133.75c-1.935,1.026-3.871,2.051-5.806,3.077-4.617-6.559-9.235-13.118-13.852-19.677,1.765-1.684,3.531-3.368,5.296-5.053.546.425,1.092.85,1.639,1.274,1.33-17.342-.541-39.853,11.047-53.769-1.963,11.619-3.928,23.237-5.892,34.855-2.628,14.088-4.76,28.08,7.568,39.293Z"/><path class="cls-39" d="m19.676,55.097c-1.485.467-3.538.483-4.342,1.492-1.824,2.292-3.034,5.071-4.494,7.653-.005-1.512-.009-3.024-.014-4.536.953-1.509,1.906-3.018,2.856-4.527,6.452-14.442,17.474-25.185,29.068-35.369,13.298-11.679,30.718-12.794,46.684-17.603-3.038,2.004-6.076,4.009-9.115,6.012-2.032,1.002-4.064,2.004-6.095,3.007-.925.09-1.85.179-2.775.269-21.537,1.665-44.314,22.451-51.539,42.172l.099,1.587s-.334-.158-.334-.158Z"/><path class="cls-20" d="m89.535,17.425c23.005.955,43.148,9.038,60.435,24.23,3.529,5.007,7.057,10.013,10.586,15.02-1.005.027-2.01.053-3.015.079-1.428-1.048-2.856-2.095-4.284-3.143-1.001-1.062-2.001-2.123-3.003-3.184-3.822-4.062-7.363-8.448-11.56-12.076-2.85-2.464-6.62-3.865-9.978-5.742-1.965-.057-3.929-.114-5.894-.17-2.314,1.392-4.628,2.784-6.983,4.201v9.365h-6.736c.499-.933.998-1.865,1.496-2.798.041-.526.081-1.052.121-1.578.945-1.921,2.282-3.756,2.727-5.786.45-2.054.016-4.302-.031-6.465.83-3.477.206-5.493-4.047-6.112-24.243-3.524-46.266,1.011-65.3,17.13-2.463,2.928-5.395,5.588-7.262,8.856-2.019,3.535-3.042,7.637-4.5,11.492-.415-1.744-.83-3.488-1.562-6.563-2.736,3.102-4.497,5.099-6.258,7.096-.5-1.975-.999-3.95-1.499-5.926,10.867-13.024,22.557-25.123,37.152-34.13,1.704-1.052,2.592-3.426,3.858-5.187.865-.419,1.731-.838,2.596-1.257,1.287,1.724,2.575,3.448,4.839,6.48,4.661-.987,11.381-2.411,18.101-3.834Z"/><path class="cls-54" d="m157.542,56.756c1.005-.027,2.01-.053,3.015-.08,3.585,9.052,7.17,18.104,10.755,27.157,1.635,11.189,3.365,22.383-1.643,33.244-1.292-1.879,2.789-6.551-3.135-6.02.492-3.111,1.154-6.207,1.426-9.338.299-3.442.237-6.916.331-10.375-3.583-11.529-7.166-23.058-10.748-34.588Z"/><path class="cls-25" d="m175.84,135.452c.833-1.655,1.666-3.311,2.737-5.438-4.066,1.3-7.538,2.411-12.149,3.885,1.553-3.673,2.39-5.653,3.228-7.634,1.034-2.543,2.068-5.085,3.102-7.628,1.945,1.47,3.89,2.941,6.872,5.194,2.352-3.433,4.485-6.547,6.619-9.661,1.014-1.584,2.028-3.169,3.042-4.756.418,1.093,1.523,2.612,1.149,3.218-4.743,7.683-9.698,15.234-14.6,22.819Z"/><path class="cls-76" d="m172.758,118.638c-1.034,2.542-2.068,5.085-3.102,7.628-.534-1.018-1.067-2.036-1.602-3.054.537-2.044,1.075-4.089,1.613-6.134,5.008-10.862,3.278-22.055,1.643-33.245.974,1.975,2.81,3.965,2.775,5.923-.17,9.632-.837,19.256-1.328,28.883Z"/><path class="cls-85" d="m89.535,17.425c-6.72,1.423-13.44,2.847-18.101,3.834-2.264-3.032-3.551-4.756-4.837-6.482,1.619-1.095,3.236-2.189,4.853-3.282.925-.089,1.85-.179,2.775-.269,1.382,1.225,2.764,2.451,4.146,3.677-.37.841-.741,1.681-1.111,2.522,4.092,0,8.183,0,12.275,0Z"/><path class="cls-8" d="m95.506,169.929c-.767-.953-1.396-2.546-2.325-2.747-3.691-.798-7.477-1.161-11.228-1.685,10.64.676,20.917-.059,31.654-8.475-4.391-.296-6.685-.451-8.979-.606,6.697-1.935,13.394-3.87,20.47-5.914v7.205c14.697-5.52,32.429-22.259,29.37-45.095-.355-3.241-.711-6.482-1.067-9.723.702-.076,1.404-.152,2.106-.228,5.348,8.067,3.79,17.025,1.419,26.602,1.829-.833,2.713-1.236,3.597-1.638-7.128,13.195-12.789,20.1-25.038,28.236-12.339,8.197-24.84,10.544-39.98,14.066Z"/><path class="cls-68" d="m160.524,127.626c-.884.403-1.769.805-3.597,1.638,2.371-9.577,3.929-18.535-1.419-26.602-.702.076-1.404.152-2.106.228.355,3.241.711,6.482,1.067,9.723-1.473-.474-2.947-.948-4.421-1.423-.016-1.024-.032-2.048-.048-3.071.166-2.391.331-4.782.497-7.173.474.332.948.664,1.422.996,1.905-2.864,3.81-5.727,5.815-8.742.79,3.109,1.636,6.439,2.482,9.769l1.832-.079c.538-2.818,1.076-5.637,1.613-8.455.234,4.062.704,8.128.641,12.186-.079,5.043-.6,10.078-.929,15.117-.949,1.963-1.899,3.926-2.848,5.889Z"/><path class="cls-31" d="m163.372,121.737c.33-5.039.85-10.074.929-15.117.064-4.058-.407-8.123-.641-12.185-1.676-2.763-3.352-5.526-5.619-9.264,2.538.827,4.046,1.318,5.554,1.809,1.262,2.496,2.524,4.993,4.19,8.287.263-2.039.384-2.982.506-3.924-.095,3.46-.033,6.934-.332,10.376-.271,3.13-.934,6.227-1.426,9.338-1.054,3.56-2.108,7.12-3.161,10.68Z"/><path class="cls-84" d="m22.99,55.355c.5,1.975.999,3.95,1.499,5.924-2.558,9.022-5.115,18.045-7.673,27.067-.497,5.572-.995,11.143-1.492,16.715-.976.012-1.952.024-2.929.036-.021-3.546-.041-7.092-.061-10.638,1.964-11.618,3.928-23.236,5.892-34.855.483-1.502.967-3.004,1.451-4.506,0,0,.333.158.333.157.993.033,1.987.067,2.981.101Z"/><path class="cls-28" d="m150.048,111.191c1.474.474,2.948.948,4.421,1.422,3.059,22.835-14.674,39.575-29.37,45.095v-7.205c-7.076,2.044-13.773,3.979-20.47,5.914-4.02.039-8.04.079-12.06.118-4.567-.519-9.134-1.037-13.701-1.556,1.012-.045,2.023-.09,3.036-.134,13.489.892,26.685-.776,39.049-6.196,7.422-3.253,15.348-6.754,16.948-16.372l.013-.017c4.046-7.023,8.091-14.046,12.137-21.069Z"/><path class="cls-75" d="m137.899,132.278c-1.599,9.618-9.526,13.118-16.948,16.372-12.363,5.42-25.56,7.088-39.049,6.196-7.908-2.873-15.651-6.419-23.776-8.401-6.315-1.541-7.881-5.835-9.474-10.786,4.529,2.423,9.058,4.849,13.588,7.274,1.195,1.253,2.162,3.133,3.621,3.666,18.524,6.765,37.031,7.682,55.375-.762,5.554-4.52,11.109-9.039,16.663-13.559Z"/><path class="cls-48" d="m27.486,129.601c-1.545-1.581-3.091-3.163-4.636-4.745,1.083-.703,2.216-2.051,3.238-1.972,2.028.156,3.995,1.1,5.987,1.719,3.05.971,6.101,1.941,9.151,2.912.968-.969,1.935-1.937,2.903-2.906,1.504.505,3.009,1.009,4.513,1.514,6.583.567,13.166,1.135,19.749,1.702-8.096,4.309-16.471,7.444-25.9,6.13-5.001-1.451-10.003-2.903-15.004-4.354Z"/><path class="cls-14" d="m42.49,133.955c9.429,1.314,17.804-1.821,25.899-6.131,3.407-.571,6.815-1.142,10.224-1.712,2.067.525,4.134,1.049,6.201,1.573-5.512,2.518-11.025,5.036-16.537,7.554-2.007.538-4.014,1.076-6.022,1.613-.005,2.027-.01,4.053-.015,6.08-4.529-2.426-9.059-4.852-13.587-7.275-2.054-.565-4.108-1.134-6.162-1.703Z"/><path class="cls-16" d="m78.867,154.979c4.567.519,9.134,1.037,13.701,1.555-9.263,0-18.526,0-27.919,0,.632,1.118,1.449,2.562,2.266,4.007,0,0-.109.443-.109.443-6.534-4.201-13.068-8.403-19.602-12.604.319-.357.637-.713.956-1.07,10.236,2.556,20.472,5.113,30.709,7.669Z"/><path class="cls-30" d="m12.334,94.458c.02,3.546.041,7.092.061,10.638,3.04,9.538,6.078,19.075,9.118,28.611-.537.014-1.074.029-1.612.043-12.327-11.212-10.196-25.205-7.568-39.293Z"/><path class="cls-19" d="m15.324,105.06c.497-5.572.995-11.143,1.493-16.714-3.309,8.996,4.721,14.952,6.091,22.693-1.046,3.073-2.092,6.146-3.138,9.219-1.482-5.066-2.964-10.132-4.445-15.199Z"/><path class="cls-4" d="m19.769,120.259c1.046-3.073,2.092-6.146,3.138-9.219.997,1.079,1.994,2.158,2.991,3.235,2.059,3.441,4.118,6.884,6.177,10.327-1.992-.618-3.959-1.562-5.987-1.718-1.023-.079-2.155,1.269-3.238,1.972-1.027-1.532-2.054-3.065-3.081-4.598Z"/><path class="cls-26" d="m66.914,160.541c-.817-1.445-1.634-2.889-2.266-4.007,9.393,0,18.656,0,27.919,0,4.02-.038,8.04-.077,12.06-.117,2.294.154,4.588.309,8.979.605-10.737,8.415-21.015,9.151-31.654,8.475-5.013-1.652-10.026-3.304-15.039-4.957Z"/><path class="cls-60" d="m71.449,11.495c-1.617,1.093-3.234,2.187-4.853,3.282-.867.421-1.732.84-2.599,1.258-7.862,4.942-16.441,9.053-23.39,15.05-7.678,6.626-13.863,14.981-20.698,22.582,7.226-19.721,30.002-40.507,51.539-42.172Z"/><path class="cls-71" d="m19.91,53.668c6.835-7.602,13.02-15.956,20.698-22.582,6.949-5.997,15.528-10.108,23.39-15.05-1.265,1.762-2.152,4.136-3.856,5.188-14.595,9.007-26.286,21.106-37.152,34.13-.993-.032-1.987-.066-2.98-.099-.033-.529-.066-1.058-.099-1.586Z"/><path class="cls-23" d="m137.899,132.278c-5.554,4.52-11.109,9.039-16.663,13.559,9.435-11.739,27.476-30.23,22.774-46.811,1.967,0,3.934,0,5.156,0,4.309-8.472,5.769-14.707,6.904-24.202-1.473-4.742-2.161-9.952-4.633-14.1-2.617-4.391-6.93-7.771-10.502-11.593.467-1.499.933-2.997,1.4-4.496,2.641,1.931,5.282,3.862,7.923,5.793,1,1.062,2.001,2.123,3,3.185,1.214,3.081,2.145,6.314,3.699,9.214,4.06,7.577,8.621,14.945,6.639,24.153-1.508-.491-3.016-.982-5.554-1.809,2.267,3.738,3.943,6.501,5.619,9.264-.537,2.818-1.075,5.636-1.613,8.455l-1.832.079c-.846-3.33-1.692-6.66-2.482-9.769-2.005,3.015-3.91,5.879-5.815,8.742-.474-.332-.948-.664-1.422-.996-.166,2.391-.331,4.782-.497,7.173-4.029,8.047-8.059,16.094-12.088,24.141l-.013.017Z"/><path class="cls-40" d="m44.07,40.399c19.033-16.119,41.057-20.654,65.3-17.13,4.254.618,4.878,2.634,4.05,6.112-3.294-.662-6.577-1.672-9.893-1.793-1.115-.041-2.313,2.18-3.474,3.367-14.485-5.745-27.61-.467-40.379,5.551-2.407,1.135-3.39,5.288-5.03,8.048-4.015,1.015-8.029,2.029-12.044,3.044.49-2.4.981-4.799,1.471-7.199Z"/><path class="cls-18" d="m25.897,114.276c-.997-1.078-1.993-2.157-2.99-3.236-1.37-7.742-9.4-13.698-6.091-22.694,2.557-9.024,5.114-18.046,7.672-27.068,1.761-1.996,3.522-3.993,6.258-7.095.732,3.075,1.147,4.819,1.561,6.567-.127.225-.273.431-.438.622-9.808,7.291-13.221,21.388-10.625,32.776,2.431-1.417,4.03-2.35,5.266-3.07,4.406,11.478,8.654,22.544,12.902,33.61-3.613-3.427-7.18-6.904-10.89-10.223-.517-.462-1.733-.145-2.625-.188Z"/><path class="cls-52" d="m109.103,46.007h6.736v-9.365c2.355-1.417,4.669-2.809,6.982-4.201.521,2.994,1.043,5.988,1.564,8.984.536,1.845.998,3.714,1.63,5.524.821,2.354,1.776,4.661,2.674,6.988-6.693-2.25-6.936,3.48-8.851,7.142-.527-.48-1.054-.961-1.58-1.441-3.49-3.128-6.979-6.256-10.469-9.385-.522-1.328-1.045-2.656-1.567-3.984.96-.087,1.92-.175,2.88-.262Z"/><path class="cls-53" d="m109.103,46.007c-.96.087-1.92.175-2.88.261-6.59,2.968-13.18,5.937-19.77,8.906-3.509,2.024-7.018,4.047-10.527,6.071-.297-19.817,19.636-18.158,34.673-18.035-.499.933-.997,1.865-1.496,2.798Z"/><path class="cls-18" d="m44.07,40.399c-.49,2.4-.981,4.799-1.471,7.199-.489,1.016-.978,2.032-1.468,3.048-.036.499-.036.997-.001,1.496-2.84,10.771-1.579,13.559,7.548,16.689.007.467.017.934.027,1.401-.024,1.064-.046,2.128-.069,3.191-4.034-2.064-8.068-4.128-12.102-6.192-1.556-1.953-3.111-3.906-4.667-5.859.167-.192.313-.399.44-.623,1.459-3.858,2.483-7.961,4.501-11.495,1.866-3.268,4.799-5.928,7.262-8.856Z"/><path class="cls-2" d="m110.599,43.209c-15.038-.123-34.97-1.782-34.674,18.035-.493.512-.985,1.023-1.478,1.535-7.531-2.73-7.807-3.585-2.34-9.07,3.654-3.667,7.549-7.095,11.336-10.63,8.878-4.216,17.955-5.06,27.285-1.605l-.007.158c-.041.526-.081,1.052-.122,1.577Z"/><path class="cls-41" d="m124.387,41.423c-.522-2.994-1.044-5.988-1.565-8.982,1.965.056,3.93.113,5.896.169.938,1.505,1.564,3.399,2.872,4.44,3.423,2.727,7.143,5.081,10.744,7.584-.467,1.499-.933,2.997-1.4,4.496-1.006-.51-2.013-1.021-3.019-1.531-4.509-2.059-9.018-4.118-13.527-6.177Z"/><path class="cls-18" d="m163.595,86.98c1.982-9.209-2.579-16.577-6.639-24.153-1.554-2.9-2.485-6.132-3.699-9.214,1.429,1.047,2.857,2.095,4.285,3.143,3.582,11.53,7.165,23.06,10.748,34.588-.12.942-.242,1.884-.505,3.923-1.665-3.294-2.928-5.791-4.19-8.287Z"/><path class="cls-65" d="m100.053,30.955c1.16-1.187,2.358-3.408,3.474-3.367,3.316.121,6.599,1.131,9.893,1.793.044,2.162.478,4.41.028,6.464-.444,2.03-1.782,3.865-2.727,5.786,0,0,.008-.158.007-.157-1.526-1.971-3.052-3.943-4.577-5.915-2.033-1.535-4.065-3.07-6.098-4.604Z"/><path class="cls-52" d="m142.333,44.635c-3.601-2.503-7.321-4.858-10.744-7.584-1.307-1.041-1.934-2.935-2.872-4.44,3.358,1.877,7.127,3.278,9.977,5.742,4.197,3.628,7.738,8.014,11.56,12.076-2.64-1.932-5.281-3.863-7.922-5.794Z"/><path class="cls-75" d="m137.911,132.26c4.029-8.047,8.059-16.094,12.088-24.141.016,1.024.032,2.047.048,3.072-4.045,7.024-8.091,14.047-12.136,21.07Z"/><path class="cls-10" d="m144.01,99.026c4.701,16.581-13.339,35.072-22.774,46.811-18.344,8.443-36.851,7.526-55.375.761-1.459-.533-2.425-2.413-3.621-3.666.005-2.026.01-4.053.015-6.08,1.595,1.531,2.939,3.545,4.822,4.518,18.309,9.462,36.461,10.555,54.186-1.561,9.707-4.336,16.841-18.126,15.375-29.377-2.647-.295-5.226-.582-7.804-.869,3.814-8.482,9.07-12.133,15.176-10.539Z"/><path class="cls-49" d="m36.534,67.232c4.034,2.064,8.068,4.128,12.102,6.191.098.469.116.941.052,1.416-1.758.623-3.515,1.246-5.272,1.869.736.886,1.473,1.771,2.21,2.657-2.044,8.664.854,15.995,7.346,21.367,10.669,8.827,21.169,18.564,36.784,16.91.359-.038.785.558,1.179.858-2.498,1.498-4.996,2.996-7.495,4.493-5.835-1.34-11.795-2.908-17.256-5.43-3.835-1.771-11.292-9.691-15.025-10.183-12.626-1.664-5.359,11.258-2.517,18.742-1.504-.505-3.009-1.009-4.513-1.513-6.766-17.986-13.915-35.555-16.059-54.779,4.199-1.289,6.332-1.944,8.464-2.599Z"/><path class="cls-29" d="m48.642,126.123c-2.842-7.484-10.108-20.406,2.517-18.742,3.733.492,11.189,8.412,15.025,10.183,5.461,2.522,11.421,4.09,17.255,5.43-1.609,1.04-3.218,2.079-4.826,3.118-3.408.57-6.816,1.141-10.223,1.712-6.582-.566-13.165-1.134-19.748-1.701Z"/><path class="cls-83" d="m36.534,67.232c-2.132.655-4.265,1.31-8.464,2.599,2.144,19.224,9.293,36.793,16.059,54.779-.968.967-1.935,1.936-2.905,2.906-.605-.942-1.208-1.886-1.812-2.83-4.248-11.066-8.496-22.132-12.902-33.61-1.236.721-2.835,1.653-5.266,3.07-2.596-11.388.817-25.484,10.625-32.776,1.554,1.955,3.11,3.908,4.665,5.861Z"/><path class="cls-19" d="m39.412,124.687c.603.944,1.207,1.888,1.812,2.83-3.049-.972-6.099-1.943-9.15-2.914-2.058-3.444-4.117-6.887-6.176-10.328.892.045,2.107-.273,2.624.19,3.709,3.319,7.277,6.796,10.89,10.223Z"/><path class="cls-36" d="m68.277,135.24c5.512-2.518,11.025-5.036,16.538-7.554,1.069-.48,2.137-.961,3.205-1.441,10.829,1.277,22.079.714,31.171,6.988-12.373,14.579-37.222,16.803-50.914,2.007Z"/><path class="cls-6" d="m68.277,135.24c13.692,14.796,38.541,12.571,50.914-2.007-9.092-6.273-20.342-5.711-31.171-6.988,1.577-.983,3.154-1.966,4.731-2.949,5.946-.517,24.243-5.322,29.315-2.177,7.458,4.625,1.671,12.085-.802,18.691-17.725,12.115-35.877,11.023-54.186,1.561-1.883-.973-3.228-2.988-4.822-4.518,2.007-.537,4.014-1.075,6.021-1.613Z"/><path class="cls-81" d="m92.751,123.296c-1.577.983-3.154,1.966-4.732,2.949-1.068.48-2.136.96-3.205,1.441-2.068-.524-4.135-1.049-6.202-1.573,1.608-1.039,3.217-2.079,4.826-3.118,2.499-1.498,4.997-2.996,7.495-4.493,1.62-.881,3.24-1.762,4.859-2.644,1.443-1.071,2.887-2.142,4.33-3.213,1.376-1.056,2.752-2.113,4.128-3.169.707.114,1.414.228,2.122.343-1.661,2.397-3.322,4.793-4.983,7.19-2.88,2.096-5.76,4.192-8.639,6.289Z"/><path class="cls-51" d="m101.391,117.008c1.661-2.397,3.322-4.793,4.982-7.191,0-.002.602-.083.602-.083l.608.027c4.655,10.219,20.722-7.467,24.707-11.613,9.208-9.579,9.43-20.565,23.779-23.324-1.135,9.494-2.595,15.73-6.904,24.202-1.221,0-3.189,0-5.156,0-6.105-1.594-11.361,2.057-15.175,10.54-3.104,1.879-6.223,3.732-9.307,5.641-5.759,3.566-11.718,4.95-18.137,1.801Z"/><path class="cls-46" d="m156.069,74.824c-14.348,2.759-14.571,13.745-23.779,23.324-3.985,4.146-20.052,21.832-24.707,11.612.456-.175.928-.272,1.416-.292,11.669-.48,29.565-17.79,31.945-30.819.789-4.318,2.94-8.915-3.066-11.366-.478-1.005-.955-2.011-1.433-3.016,1.163-1.205,3.362-2.461,3.305-3.604-.219-4.374-1.163-8.712-1.837-13.063,1.006.51,2.013,1.021,3.019,1.531,3.572,3.822,7.886,7.203,10.502,11.593,2.472,4.148,3.16,9.357,4.633,14.1Z"/><path class="cls-45" d="m100.053,30.955c2.033,1.535,4.065,3.07,6.098,4.604-10.099-.3-19.216,2.032-28.759,6.133-10.947,4.704-15.148,12.603-18.14,22.552-.999.501-1.998,1.002-2.996,1.503.76-2.578,2.419-5.278,2.087-7.707-.627-4.578-2.401-9-3.698-13.486,1.64-2.76,2.623-6.913,5.03-8.048,12.769-6.019,25.894-11.296,40.379-5.551Z"/><path class="cls-11" d="m54.644,44.554c1.297,4.487,3.071,8.908,3.698,13.486.333,2.428-1.326,5.129-2.087,7.707.216,6.086-4.318,4.191-7.549,4.485-.011-.467-.021-.934-.028-1.401.975-.038,1.95-.075,2.926-.113,3.472-12.173,6.504-25.305-10.471-18.072.489-1.016.978-2.032,1.467-3.048,4.015-1.015,8.029-2.029,12.044-3.044Z"/><path class="cls-59" d="m118.258,59.638c.527.48,1.054.961,1.58,1.442.48,4.078.961,8.155,1.442,12.231.146,12.605-18.244,9.724-26.717,9.208-11.634-.709-16.434-3.937-23.06-13.493,4.508-3.05,9.015-6.1,13.523-9.151,4.685,8.55,27.194,10.443,32.798,2.697.515-.711.307-1.945.435-2.936Z"/><path class="cls-5" d="m118.258,59.638c-.128.991.08,2.224-.435,2.936-5.603,7.746-28.113,5.852-32.798-2.699,1.039-1.006,2.079-2.011,3.118-3.016,6.549-2.202,13.098-4.404,19.646-6.606,3.49,3.128,6.979,6.256,10.468,9.385Z"/><path class="cls-27" d="m121.281,73.311c-.481-4.077-.962-8.153-1.442-12.231,1.915-3.663,2.159-9.393,8.853-7.145,1.089,1.905,2.176,3.813,3.262,5.721-.536,2.376-1.726,4.817-1.494,7.115,1.163,11.499-1.909,20.441-13.651,24.725-1.045-.024-2.089-.048-3.132-.072,4.278-5.307,10.67-9.727,7.605-18.112Z"/><path class="cls-63" d="m131.954,59.655c-1.087-1.908-2.174-3.815-3.263-5.72-.899-2.325-1.854-4.632-2.675-6.986-.631-1.81-1.093-3.68-1.63-5.524,4.51,2.057,9.019,4.116,13.528,6.175.674,4.351,1.618,8.689,1.837,13.063.057,1.144-2.142,2.4-3.306,3.604-1.497-1.537-2.994-3.075-4.491-4.612Z"/><path class="cls-82" d="m107.79,50.253c-6.549,2.202-13.098,4.404-19.648,6.605-.564-.562-1.126-1.123-1.689-1.685,6.59-2.969,13.18-5.938,19.77-8.906.523,1.329,1.045,2.657,1.567,3.985Z"/><path class="cls-12" d="m86.453,55.173c.562.561,1.125,1.122,1.689,1.685-1.038,1.006-2.077,2.011-3.116,3.017-4.507,3.051-9.015,6.102-13.524,9.15-1.04.451-2.078.903-3.116,1.356-.564-.562-1.129-1.125-1.693-1.687.082-.483.134-.97.154-1.459,2.534-1.485,5.068-2.97,7.601-4.455.492-.512.985-1.023,1.478-1.535,3.509-2.023,7.018-4.047,10.527-6.071Z"/><path class="cls-1" d="m51.603,68.718c-.975.037-1.951.075-2.926.113-9.126-3.13-10.387-5.918-7.548-16.689,6.643.573,14.118.281,9.267,10.886-.648,1.417.754,3.77,1.207,5.69Z"/><path class="cls-78" d="m66.693,68.693c.564.562,1.129,1.125,1.693,1.686-.514.502-1.027,1.004-1.54,1.507-1.505.987-3.01,1.975-4.515,2.962-1.52.494-3.041.989-4.561,1.483-2.512-.566-5.024-1.133-7.536-1.699-.515.069-1.031.138-1.546.207.064-.475.046-.948-.052-1.416.023-1.063.046-2.126.07-3.191,3.232-.294,7.765,1.6,7.549-4.486.999-.501,1.998-1.002,2.997-1.503,2.48,1.483,4.961,2.966,7.441,4.449Z"/><path class="cls-62" d="m51.603,68.718c-.453-1.92-1.855-4.273-1.207-5.69,4.851-10.606-2.624-10.313-9.267-10.886-.034-.499-.034-.997.002-1.496,16.976-7.233,13.944,5.899,10.472,18.072Z"/><path class="cls-69" d="m66.693,68.693c-2.48-1.483-4.961-2.966-7.441-4.449,2.993-9.949,7.194-17.848,18.141-22.552,9.543-4.101,18.66-6.433,28.759-6.133,1.526,1.972,3.052,3.944,4.578,5.915-9.33-3.455-18.407-2.612-27.285,1.605-15.308,5.096-21.777,11.349-16.597,24.155-.021.49-.072.976-.154,1.459Z"/><path class="cls-66" d="m66.847,67.234c-5.181-12.807,1.288-19.059,16.597-24.155-3.787,3.535-7.682,6.963-11.336,10.63-5.466,5.485-5.191,6.34,2.34,9.07-2.533,1.485-5.067,2.97-7.601,4.455Z"/><path class="cls-72" d="m101.391,117.008c6.419,3.149,12.378,1.765,18.137-1.801,3.084-1.91,6.203-3.763,9.307-5.641,2.578.287,5.157.574,7.804.868,1.466,11.251-5.668,25.041-15.375,29.377,2.473-6.606,8.26-14.066.802-18.691-5.073-3.146-23.369,1.66-29.315,2.177,2.88-2.096,5.76-4.192,8.64-6.288Z"/><path class="cls-61" d="m95.794,115.858c-1.62.881-3.239,1.763-4.859,2.644-.395-.301-.821-.897-1.18-.859-15.614,1.654-26.115-8.084-36.784-16.91-6.493-5.371-9.391-12.703-7.346-21.367,7.397,7.695,9.13,18.067,18.302,24.87,9.344,6.93,20.523,10.711,31.866,11.623Z"/><path class="cls-47" d="m95.794,115.858c-11.343-.912-22.522-4.692-31.866-11.623-9.172-6.803-10.906-17.175-18.302-24.87-.736-.886-1.473-1.771-2.21-2.657,1.757-.623,3.514-1.246,5.272-1.869.515-.069,1.031-.138,1.545-.205,4.154,28.42,27.124,31.676,49.892,38.01-1.443,1.071-2.887,2.142-4.33,3.213Z"/><path class="cls-56" d="m57.769,76.332c1.52-.494,3.041-.989,4.56-1.483,9.391,21.411,33.705,25.808,49.186,22.242.473,1.175.941,2.349,2.05,5.132,1.402-4.638,2.322-7.682,3.242-10.727,11.741-4.285,14.813-13.226,13.65-24.725-.232-2.298.958-4.739,1.494-7.115,1.498,1.537,2.995,3.074,4.492,4.611.478,1.005.956,2.011,1.434,3.016.302,13.041-4.789,23.179-15.659,30.681-4.778,3.297-8.835,7.638-13.22,11.504-.488.02-.959.117-1.416.292,0,.001-.608-.025-.608-.025,0,0-.603.081-.602.083-.707-.113-1.414-.227-2.117-.34-8.869-5.637-19.516-3.846-29.108-8.736-11.22-5.721-14.43-13.066-17.378-24.408Z"/><path class="cls-32" d="m57.769,76.332c2.948,11.342,6.158,18.687,17.378,24.408,9.592,4.891,20.239,3.1,29.108,8.736-1.38,1.056-2.756,2.112-4.132,3.168-22.768-6.334-45.738-9.59-49.892-38.01,2.513.564,5.025,1.131,7.537,1.697Z"/><path class="cls-64" d="m109,109.467c4.384-3.867,8.442-8.207,13.22-11.504,10.87-7.502,15.961-17.64,15.659-30.681,6.006,2.451,3.855,7.048,3.066,11.366-2.379,13.029-20.276,30.338-31.945,30.819Z"/><path class="cls-33" d="m66.845,71.887c.513-.503,1.026-1.005,1.54-1.507,1.039-.452,2.077-.904,3.116-1.355,6.628,9.558,11.428,12.786,23.062,13.495,8.473.516,26.863,3.397,26.717-9.208,3.064,8.385-3.328,12.806-7.605,18.113-6.058-.423-12.132-1.354-18.171-1.166-13.932.432-22.601-6.809-28.659-18.371Z"/><path class="cls-37" d="m66.845,71.887c6.057,11.562,14.727,18.803,28.659,18.371,6.039-.187,12.113.744,18.171,1.166,1.044.024,2.088.047,3.132.072-.919,3.045-1.839,6.09-3.241,10.727-1.11-2.783-1.578-3.957-2.05-5.132-15.481,3.566-39.795-.831-49.186-22.242,1.506-.987,3.011-1.975,4.516-2.962Z"/></svg>