<?xml version="1.0" encoding="UTF-8"?><svg id="Layer_1" xmlns="http://www.w3.org/2000/svg" viewBox="0 0 185.525 180.946"><defs><style>.cls-1{fill:#355aa9;}.cls-2{fill:#2a4d9e;}.cls-3{fill:#0e549c;}.cls-4{fill:#071834;}.cls-5{fill:#4ca2d9;}.cls-6{fill:#65b0e1;}.cls-7{fill:#13264c;}.cls-8{fill:#416bb4;}.cls-9{fill:#1e4489;}.cls-10{fill:#4191cd;}.cls-11{fill:#182b54;}.cls-12{fill:#4673b8;}.cls-13{fill:#204895;}.cls-14{fill:#4375ba;}.cls-15{fill:#2e7bbf;}.cls-16{fill:#21386f;}.cls-17{fill:#3482c4;}.cls-18{fill:#4177bc;}.cls-19{fill:#2958a7;}.cls-20{fill:#224b9b;}.cls-21{fill:#244596;}.cls-22{fill:#328ccb;}.cls-23{fill:#233d7f;}.cls-24{fill:#69b9e7;}.cls-25{fill:#5598d2;}.cls-26{fill:#2b5aa7;}.cls-27{fill:#3157a7;}.cls-28{fill:#5c9ed6;}.cls-29{fill:#3259a7;}.cls-30{fill:#1b3866;}.cls-31{fill:#233974;}.cls-32{fill:#2453a0;}.cls-33{fill:#1b4c80;}.cls-34{fill:#629ad2;}.cls-35{fill:#3970b7;}.cls-36{fill:#214082;}.cls-37{fill:#4f93cc;}.cls-38{fill:#396bb4;}.cls-39{fill:#2e5f98;}.cls-40{fill:#0d1f42;}.cls-41{fill:#2268b1;}.cls-42{fill:#6bb8e6;}.cls-43{fill:#214282;}.cls-44{fill:#203467;}.cls-45{fill:#5284ae;}.cls-46{fill:#243a79;}.cls-47{fill:#3a73b9;}.cls-48{fill:#3f7abe;}.cls-49{fill:#4161ad;}.cls-50{fill:#203264;}.cls-51{fill:#3ca8dd;}.cls-52{fill:#1d447a;}.cls-53{fill:#214188;}.cls-54{fill:#1d3261;}.cls-55{fill:#3560ac;}.cls-56{fill:#2e57a6;}.cls-57{fill:#4bbae9;}.cls-58{fill:#5286c5;}.cls-59{fill:#4996d1;}.cls-60{fill:#2060aa;}.cls-61{fill:#1e4792;}.cls-62{fill:#4f84c4;}.cls-63{fill:#192553;}.cls-64{fill:#3868b2;}.cls-65{fill:#2b567b;}.cls-66{fill:#3b79bd;}.cls-67{fill:#071c37;}</style></defs><path class="cls-51" d="m143.528,168.805c-10.924,4.047-21.848,8.094-32.771,12.142-13.437-.61-27.251.545-40.23-2.216-23.532-5.006-42.635-17.799-55.056-39.177,1.732-.019,3.463-.038,5.194-.057,14.673,15.092,35.755,39.526,59.14,31.214,1.152-1.183,2.303-2.366,3.455-3.548,1.676-2.489,3.351-4.978,5.264-7.819,1.68.239,4.113.585,6.545.931l.156-.063c-.902,2.926-1.804,5.852-3.382,10.969,5.899.954,11.567,1.87,17.235,2.786,3.42-1.152,6.841-2.305,10.262-3.457,3.761-1.714,7.458-3.587,11.298-5.101,4.832-1.907,9.78-3.521,14.677-5.261-2.756,2.28-5.511,4.559-8.267,6.839.474.455.948.909,1.422,1.364,1.619-.44,3.239-.88,4.858-1.32.067.592.135,1.184.202,1.776Z"/><path class="cls-25" d="m20.664,139.496c-1.731.019-3.462.038-5.194.057-2.785-4.709-5.569-9.418-8.352-14.129-2.372-10.299-4.745-20.598-7.118-30.897.819-8.523,1.137-17.131,2.561-25.552,2.96-17.515,14.066-31.021,23.388-45.365.481-.105.967-.144,1.46-.116,2.613-.089,6.259-1.801,5.452,3.471-3.405,6.41-6.81,12.82-10.214,19.229,3.207,7.33,8.172,9.357,15.238,5.041,1.906-2.799,3.811-5.598,5.717-8.397,1.887-.817,3.774-1.633,6.185-2.677-.562,2.289-.999,4.073-1.437,5.857-4.879,5.983.438,8.645,3.888,11.916-1.333.768-2.666,1.536-3.999,2.304-4.435-3.417-8.997-3.846-14.313-1.703-2.156.869-5.136-.304-7.741-.548-6.768-3.625-11.103-.881-14.097,5.375-2.772,6.826-5.543,13.653-8.315,20.479.989.024,1.978.048,2.967.073,2.318,1.728,4.637,3.456,6.957,5.186-6.983.448-9.515,4.634-8.309,10.937,1.314,6.868,3.352,13.597,5.074,20.387,3.401,6.357,6.802,12.714,10.203,19.071Z"/><path class="cls-59" d="m32.861,26.966c.808-5.271-2.838-3.559-5.451-3.47,6.425-4.585,12.852-9.17,19.278-13.755,41.393-14.184,85.445-17.138,116.01,20.782-2.972-2.576-5.945-5.151-8.917-7.727-.539.901-1.078,1.801-1.616,2.7-3.278-1.509-6.533-3.074-9.845-4.506-2.328-1.006-4.735-1.831-7.107-2.736-7.961-11.083-20.535-7.971-31.379-10.181-4.32-15.736-62.537,5.423-53.833,13.911,1.236,2.261,2.471,4.522,3.707,6.784-1.726-.013-3.452-.027-5.178-.04-.588-.546-1.177-1.092-1.765-1.639-4.635-.041-9.269-.082-13.904-.123Z"/><path class="cls-5" d="m152.164,25.497c.539-.901,1.078-1.801,1.617-2.702,2.972,2.576,5.944,5.151,8.917,7.727,5.159,6.968,10.317,13.935,15.475,20.904,5.654,17.972,10.135,36.061,5.289,55.029-.332,1.301-1.113,2.488-1.685,3.728-.582-2.325-1.163-4.649-1.745-6.974-.599-9.82-1.198-19.64-1.796-29.459-1.235-3.742-1.87-7.837-3.824-11.157-4.769-8.103-10.149-15.847-15.283-23.735-.581-.489-1.162-.978-1.743-1.467-1.74-3.964-3.481-7.929-5.221-11.893Z"/><path class="cls-57" d="m180.033,103.21c.581,2.324,1.163,4.649,1.744,6.974-.023,1.698-.047,3.396-.07,5.093-4.682,9.328-8.196,19.533-14.362,27.75-6.725,8.961-15.908,16.081-24.019,24.003-1.619.44-3.239.88-4.858,1.32-.474-.455-.948-.909-1.422-1.364,2.756-2.28,5.511-4.559,8.267-6.838,2.847-2.893,5.693-5.787,8.539-8.68,2.01-2.671,3.883-5.46,6.06-7.988,3.727-4.327,7.982-8.393,4.283-14.819,5.72-4.945,10.341-10.519,10.63-18.569,1.735-2.294,3.471-4.588,5.207-6.881Z"/><path class="cls-64" d="m174.826,110.091c-.289,8.05-4.91,13.623-10.629,18.571-6.55,5.863-8.906,14.722-19.403,11.063,1.153,3.089,1.804,4.833,2.455,6.576-2.521,3.347-4.512,7.349-7.673,9.904-6.411,5.182-13.455,9.581-20.238,14.302-3.42,1.152-6.841,2.305-10.262,3.457-2.217-2.53-4.309-5.185-6.687-7.554-2.232-2.224-4.765-4.147-7.165-6.202,0,0-.156.063-.155.063-.006-.561-.033-1.121-.078-1.681,10.234,1.46,20.023-1.006,28.419-6.149,6.916-4.237,12.328-10.924,18.406-16.525,1.215-1.677,2.429-3.353,3.644-5.03,8.151-8.47.834-25.404,11.624-31.87,9.258-5.548,7.455,3.157,15.942,4.833v-21.426c.6,9.222,1.2,18.444,1.8,27.665Z"/><path class="cls-66" d="m20.664,139.496c-3.401-6.357-6.802-12.714-10.204-19.071.575-.001,1.151-.006,1.727-.015,6.895,7.385,7.465,21.375,22.292,20.784-.767,9.471,5.241,14.582,12.202,19.059,10.355,5.654,20.904,10.698,33.123,10.456-23.385,8.312-44.467-16.122-59.14-31.214Z"/><path class="cls-38" d="m79.804,170.71c-12.219.241-22.768-4.802-33.122-10.457,14.19.216,23.262,1.448,36.411-3.557.055,3.488.111,6.977.166,10.465-1.152,1.183-2.303,2.366-3.455,3.548Z"/><path class="cls-22" d="m119.337,170.509c6.783-4.722,13.828-9.121,20.238-14.302,3.162-2.555,5.153-6.557,7.672-9.904,2.201,1.722,4.402,3.443,6.604,5.164-2.846,2.894-5.693,5.787-8.539,8.68-4.898,1.74-9.846,3.354-14.678,5.26-3.839,1.515-7.537,3.387-11.298,5.101Z"/><path class="cls-37" d="m83.259,167.162c-.055-3.488-.111-6.977-.167-10.465-1.2-2.193-2.4-4.387-3.6-6.58-.995-1.361-1.991-2.721-2.987-4.082-.682-1.048-1.362-2.096-2.042-3.144-.098-1.043-.196-2.086-.294-3.129,1.184-.667,2.368-1.334,3.551-2.002,1.198,1.745,2.396,3.49,3.594,5.236,1.107,2.315,2.214,4.629,3.321,6.944.699,1.087,1.398,2.175,2.097,3.262,2.752,1.797,5.504,3.594,8.256,5.39.047.559.074,1.119.08,1.68-2.433-.345-4.866-.691-6.546-.93-1.913,2.841-3.588,5.33-5.264,7.819Z"/><path class="cls-17" d="m95.223,160.21c2.4,2.055,4.934,3.978,7.165,6.202,2.377,2.369,4.47,5.025,6.687,7.554-5.667-.917-11.335-1.833-17.234-2.787,1.578-5.117,2.48-8.043,3.382-10.969Z"/><path class="cls-33" d="m26.184,57.989c2.605.244,5.585,1.417,7.741.548,5.315-2.143,9.877-1.714,14.313,1.702.577,1.1,1.154,2.201,1.73,3.3-4.655.214-12.727-.84-13.363.868-2.493,6.7-2.641,14.272-3.661,21.518-1.751,1.714-3.502,3.428-5.253,5.143-.616.016-1.231.031-1.847.047-1.701-1.169-3.402-2.339-5.103-3.508.578-1.182,1.157-2.364,1.735-3.546,1.541-.309,3.082-.617,4.725-.946-4.928-12.53-16.394-14.856-1.019-25.126Z"/><path class="cls-19" d="m52.237,57.935c-3.449-3.271-8.767-5.932-3.887-11.915,2.993-1.779,5.985-3.559,8.976-5.337,2.78.129,5.561.256,8.342.384v21.606c-2.398-.355-4.6-.681-6.802-1.006-2.21-1.244-4.42-2.487-6.629-3.731Z"/><path class="cls-29" d="m26.184,57.989c-15.374,10.27-3.908,12.596,1.019,25.126-1.643.329-3.184.637-4.725.946v-6.634c-3.73,2.746-6.284,4.627-10.391,7.651v-21.715c2.994-6.256,7.329-9,14.097-5.375Z"/><path class="cls-48" d="m12.087,63.364v21.715c4.106-3.024,6.661-4.905,10.391-7.651v6.634c-.578,1.181-1.157,2.363-1.735,3.545.449,2.574.898,5.149,1.717,9.845-4.238-3.937-6.362-5.91-8.486-7.883l-.278-.469c-2.318-1.728-4.637-3.456-6.955-5.185-.989-.024-1.978-.048-2.967-.073,2.772-6.826,5.543-13.653,8.315-20.479Z"/><path class="cls-9" d="m46.765,27.088c.588.546,1.177,1.092,1.765,1.639-.616,2.901-1.232,5.802-1.847,8.703-.817-12.376-15.896,9.746-17.498,11.834.682.658,1.364,1.315,2.047,1.972h6.653c-7.066,4.316-12.031,2.289-15.238-5.042,1.99-1.298,5.114-2.176,5.777-3.965,3.249-8.755,9.864-12.962,18.341-15.142Z"/><path class="cls-43" d="m37.885,51.236h-6.653c-.682-.657-1.365-1.315-2.047-1.972,1.602-2.088,16.681-24.21,17.498-11.834-1.027,1.803-2.054,3.606-3.081,5.41-1.906,2.799-3.811,5.598-5.717,8.397Z"/><path class="cls-42" d="m52.237,57.935c2.21,1.244,4.42,2.487,6.629,3.731,2.289,1.222,4.578,2.445,6.867,3.667,1.185,1.692,2.37,3.385,3.555,5.078-.638,2.857-1.277,5.715-1.915,8.572-.558.084-1.108.044-1.648-.119-1.649-8.497-7.661-11.512-15.459-12.283-.099-1.014-.198-2.028-.297-3.042-.577-1.101-1.154-2.201-1.731-3.301,1.333-.767,2.666-1.535,3.999-2.303Z"/><path class="cls-60" d="m46.765,27.088c-8.477,2.18-15.092,6.387-18.341,15.142-.664,1.789-3.788,2.667-5.777,3.965,3.405-6.409,6.81-12.819,10.215-19.229,4.634.04,9.269.081,13.904.122Z"/><path class="cls-35" d="m43.601,42.839c1.027-1.803,2.055-3.606,3.081-5.41.615-2.901,1.231-5.801,1.847-8.703,1.726.013,3.452.027,5.178.04,6.311,1.15,12.622,2.301,18.933,3.451-.003.514-.054,1.024-.155,1.528-3.154.122-6.659-.564-9.358.606-2.398,1.04-3.902,4.138-5.8,6.328-2.992,1.78-5.985,3.559-8.978,5.339.437-1.784.875-3.568,1.436-5.857-2.411,1.043-4.298,1.86-6.185,2.677Z"/><path class="cls-18" d="m12.187,120.411c-.576.009-1.152.014-1.727.015-1.721-6.79-3.759-13.519-5.073-20.387-1.206-6.303,1.326-10.488,8.309-10.937-.001-.002.277.467.276.464-1.198,3.584-3.333,7.157-3.39,10.762-.106,6.684,1.002,13.387,1.605,20.083Z"/><path class="cls-27" d="m72.64,32.218c-6.311-1.15-12.622-2.301-18.933-3.451-1.235-2.261-2.471-4.522-3.705-6.784,8.461-7.037,18.229-10.482,29.197-10.173,5.976.169,11.938.853,17.907,1.305.452.587.904,1.174,1.357,1.761-4.113,2.7-8.221,5.408-12.342,8.097-3.874,2.528-7.76,5.037-11.641,7.555-.613.564-1.227,1.127-1.84,1.691Z"/><path class="cls-6" d="m98.462,14.876c-.452-.587-.904-1.174-1.357-1.76,2.242-1.681,4.486-3.361,6.729-5.042,10.844,2.21,23.418-.903,31.377,10.182,2.059,2.998,4.013,6.075,6.205,8.973,4.041,5.345,7.699,11.409,15.97,10.162.581.489,1.162.978,1.744,1.469-1.11.697-2.221,1.393-3.332,2.089-2.67,1.308-5.339,2.616-7.895,3.869-1.719-1.364-3.563-2.828-5.408-4.291-4.662-6.865-9.323-13.729-13.985-20.594-2.45-1.596-4.9-3.193-7.35-4.789-6.278.631-12.555,1.261-18.833,1.892-1.288-.719-2.577-1.439-3.865-2.158Z"/><path class="cls-47" d="m103.834,8.073c-2.243,1.681-4.487,3.362-6.729,5.042-5.967-.452-11.929-1.136-17.905-1.305-10.969-.309-20.736,3.136-29.198,10.173-8.705-8.488,49.512-29.647,53.832-13.91Z"/><path class="cls-15" d="m157.385,37.39c-8.271,1.246-11.929-4.817-15.97-10.162-2.191-2.898-4.146-5.975-6.205-8.973,2.374.904,4.781,1.729,7.109,2.735,3.312,1.431,6.567,2.996,9.845,4.506,1.739,3.966,3.48,7.93,5.22,11.894Z"/><path class="cls-41" d="m155.797,40.948c1.111-.696,2.221-1.392,3.332-2.089,5.134,7.887,10.513,15.631,15.283,23.734,1.954,3.32,2.589,7.415,3.824,11.157-.249,2.086-.497,4.171-.781,6.552-2.494-.552-4.354-.964-6.214-1.375,0,0,.087.095.087.095-1.125-2.948-2.25-5.896-3.375-8.844-1.367-6.012-2.819-12.006-4.076-18.041-1.155-5.545-3.968-8.779-10.077-7.958.665-1.077,1.331-2.154,1.996-3.23Z"/><path class="cls-10" d="m171.241,78.926c1.86.412,3.72.823,6.214,1.375.284-2.381.532-4.466.78-6.552.599,9.82,1.197,19.639,1.796,29.459-1.735,2.294-3.471,4.588-5.206,6.882-.6-9.222-1.2-18.443-1.799-27.665-.595-1.167-1.19-2.333-1.784-3.499Z"/><path class="cls-51" d="m153.852,151.467c-2.202-1.721-4.404-3.442-6.605-5.164-.65-1.744-1.301-3.488-2.454-6.577,10.497,3.658,12.853-5.2,19.403-11.063,3.698,6.424-.557,10.489-4.284,14.816-2.177,2.528-4.05,5.317-6.06,7.988Z"/><path class="cls-26" d="m171.241,78.926c.595,1.166,1.19,2.333,1.784,3.499,0,6.993,0,13.986,0,21.426-8.487-1.676-6.684-10.381-15.942-4.833-10.79,6.466-3.473,23.4-11.625,31.869-.018-6.89-.034-13.779-.051-20.668,1.726-3.545,3.452-7.089,5.178-10.634,5.174-8.036,10.349-16.072,15.523-24.108,1.74,1.181,3.48,2.362,5.219,3.543,0,0-.087-.095-.087-.095Z"/><path class="cls-21" d="m145.408,110.22c.016,6.889.033,13.778.051,20.668-1.214,1.677-2.428,3.354-3.642,5.031-1.748.978-3.637,1.767-5.222,2.96-14.802,11.142-30.492,19.093-49.86,14.323-.699-1.087-1.398-2.175-2.097-3.263,19.24,1.931,46.879-4.133,55.439-24.386,1.258-5.725,2.516-11.45,3.774-17.175.52.614,1.04,1.227,1.559,1.841Z"/><path class="cls-1" d="m86.733,153.202c19.369,4.77,35.059-3.181,49.86-14.323,1.585-1.193,3.475-1.983,5.222-2.96-6.079,5.6-11.491,12.287-18.407,16.524-8.396,5.144-18.185,7.609-28.419,6.149-2.753-1.796-5.505-3.593-8.257-5.389Z"/><path class="cls-29" d="m12.187,120.411c-.603-6.695-1.711-13.399-1.605-20.083.057-3.605,2.192-7.178,3.39-10.762,2.125,1.976,4.249,3.949,8.487,7.885-.819-4.697-1.268-7.271-1.717-9.845,1.701,1.169,3.402,2.339,5.104,3.507-3.835,10.126,7.679,31.678,14.55,35.423.61.333,1.897-.574,2.87-.905.596.574,1.192,1.148,1.788,1.721.09,17.763,17.019,30.692,34.438,22.764,1.2,2.193,2.4,4.387,3.6,6.58-13.149,5.005-22.221,3.773-36.411,3.556-6.962-4.476-12.969-9.587-12.203-19.058-14.827.591-15.397-13.399-22.292-20.784Z"/><path class="cls-63" d="m81.315,142.996c-1.198-1.745-2.396-3.49-3.594-5.236-.982-1.21-1.965-2.42-2.947-3.629,1.609-1.107,3.218-2.214,4.826-3.321.555.012,1.109.027,1.664.045,1.088,17.711,30.421,3.874,39.605-1.218,14.691-8.145,13.193-18.192,19.272-31.681-.259,12.294.609,25.008-12.42,32.452-.646.369-.923,1.384-1.372,2.098-2.248,1.619-4.869,2.903-6.679,4.916-8.024,8.924-27.82,11.923-38.357,5.573Z"/><path class="cls-46" d="m81.315,142.996c10.537,6.35,30.333,3.35,38.357-5.573,1.81-2.013,4.431-3.296,6.678-4.915,4.574-2.318,9.149-4.636,13.724-6.955-8.559,20.253-36.198,26.318-55.438,24.387-1.107-2.314-2.214-4.629-3.321-6.943Z"/><path class="cls-13" d="m79.492,150.116c-17.419,7.928-34.348-5.001-34.439-22.764,1.792.009,3.585.019,5.378.029,1.697.729,3.394,1.458,5.09,2.187-.03,2.141-.06,4.281-.091,6.422,1.021,9.628,13.29,15.475,21.075,10.044.995,1.361,1.991,2.721,2.986,4.082Z"/><path class="cls-45" d="m55.522,129.569c-1.697-.729-3.394-1.458-5.092-2.188,1.177-1.117,2.355-2.234,3.534-3.35,1.648-2.083,3.607-3.997,4.862-6.295,1.382-2.532,2.118-5.417,3.136-8.148,1.579.387,3.157.774,4.194,1.028-.711,3.134-1.295,5.709-1.879,8.284,3.5,5.077,6.999,10.154,10.499,15.231.982,1.21,1.965,2.42,2.947,3.63-1.184.667-2.368,1.334-3.551,2.001-3.032-2.943-5.693-6.506-9.222-8.621-2.542-1.523-6.243-1.117-9.426-1.572Z"/><path class="cls-54" d="m55.522,129.569c3.184.455,6.884.049,9.426,1.572,3.529,2.115,6.19,5.678,9.222,8.621.097,1.043.195,2.086.293,3.129-2.494-.068-5.281.554-7.419-.352-4.066-1.722-7.762-4.316-11.612-6.549.03-2.141.06-4.281.091-6.422Z"/><path class="cls-31" d="m55.431,135.991c3.85,2.232,7.546,4.827,11.612,6.549,2.139.905,4.925.284,7.419.352.68,1.048,1.36,2.096,2.042,3.144-7.784,5.431-20.053-.417-21.074-10.044Z"/><path class="cls-7" d="m61.96,109.587c-1.017,2.731-1.753,5.616-3.135,8.148-1.255,2.298-3.213,4.212-4.863,6.295-3.711-1.449-9.538-1.91-10.757-4.52-4.958-10.611-13.987-20.278-10.259-33.585,1.019-7.248,1.167-14.819,3.66-21.519.635-1.708,8.707-.654,13.363-.868.099,1.015.198,2.029.298,3.043-1.483,2.707-2.966,5.414-5.076,9.265,9.015-1.86,13.592,1.149,18.556,10.49.042,1.465.082,2.934.123,4.403-6.937,5.645-2.053,12.486-1.908,18.847Zm-17.934-35.654c-12.171,3.574-1.26,15.037-8.015,19.982-1.257.92,6.551,25.829,17.856,17.292,14.662-11.072.393-24.79-10.582-27.103.143-1.961.405-5.556.741-10.171Z"/><path class="cls-36" d="m43.266,125.632c-.973.331-2.259,1.237-2.87.905-6.871-3.745-18.385-25.297-14.55-35.423.614-.015,1.23-.03,1.845-.046,5.191,11.521,10.383,23.043,15.574,34.565Z"/><path class="cls-44" d="m43.266,125.632c-5.191-11.522-10.383-23.043-15.574-34.565,1.751-1.714,3.502-3.429,5.253-5.143-3.728,13.308,5.301,22.975,10.259,33.586,1.22,2.61,7.047,3.071,10.757,4.52-1.177,1.117-2.355,2.234-3.532,3.351-1.791-.009-3.584-.019-5.376-.028-.595-.574-1.191-1.147-1.788-1.721Z"/><path class="cls-8" d="m65.733,65.334c-2.289-1.223-4.578-2.446-6.867-3.668,2.202.326,4.404.652,6.803,1.007,0-7.107,0-14.356,0-21.607,2.887-.097,5.774-.194,8.662-.289,7.243,1.69,6.868,6.62,5.164,12.116-4.736,3.983-4.618,13.326-13.761,12.441Z"/><path class="cls-34" d="m74.33,40.775c-2.887.096-5.774.193-8.661.29-2.782-.127-5.563-.254-8.342-.383,1.9-2.191,3.404-5.289,5.802-6.329,2.699-1.17,6.203-.485,9.359-.605.615,2.343,1.229,4.685,1.843,7.027Z"/><path class="cls-2" d="m67.372,78.983c.638-2.857,1.277-5.715,1.915-8.572.465-.164.939-.292,1.424-.381,13.725,11.702,28.57,15.8,45.407,6.772,2.156-1.156,4.468-2.021,6.708-3.021,2.24,1.052,4.481,2.104,6.721,3.155-10.077,4.42-14.849,11.404-26.232,13.435-13.605,2.428-26.459-1.159-35.943-11.388Z"/><path class="cls-28" d="m70.711,70.028c-.484.091-.959.218-1.423.383-1.185-1.693-2.37-3.386-3.555-5.078,9.144.886,9.026-8.457,13.762-12.439,9.596-4.286,10.044-17.89,25.378-13.746,25.854,6.987.865,18.264-9.743,22.587-1.727-.674-3.454-1.348-5.181-2.022,5.833-3.66,11.667-7.319,18.904-11.859-12.856-7.856-21.298-1.81-23.977,12.136-4.59,2.883-9.18,5.766-13.77,8.649-.228.436-.36.9-.394,1.391Z"/><path class="cls-23" d="m67.372,78.983c9.484,10.229,22.338,13.816,35.943,11.388,11.383-2.031,16.156-9.015,26.236-13.433,1.21.25,2.417.499,3.623.747-10.837,5.38-13.412,15.658-27.409,17.67-14.54,2.089-26.713-4.889-40.006-9.404-.012-2.362-.023-4.724-.034-7.087.54.164,1.09.203,1.648.119Z"/><path class="cls-52" d="m65.724,78.863c.012,2.362.023,4.724.034,7.085-.672.13-1.343.261-2.015.392-4.961-9.345-9.539-12.354-18.554-10.494,2.11-3.851,3.593-6.558,5.076-9.265,7.797.77,13.81,3.784,15.459,12.282Z"/><path class="cls-58" d="m95.13,61.734c10.608-4.323,35.597-15.601,9.743-22.587-15.334-4.144-15.782,9.46-25.378,13.746,1.704-5.497,2.079-10.427-5.165-12.117-.614-2.343-1.228-4.684-1.843-7.028.099-.506.151-1.015.154-1.53.613-.564,1.226-1.128,1.839-1.691,1.135.587,2.272,1.175,3.408,1.762,3.897,10.976,15.243,1.702,22.422,2.364,8.003.738,15.463,7.648,22.535,11.475,4.315,9.582-14.969,16.659-20.725,19.983-1.76-1.102-4.375-2.739-6.99-4.376Z"/><path class="cls-62" d="m77.887,32.289c-1.136-.587-2.272-1.175-3.408-1.762,3.882-2.517,7.768-5.026,11.642-7.555,4.12-2.689,8.229-5.397,12.342-8.097,1.287.719,2.576,1.439,3.863,2.157-.069.475-.144.95-.226,1.424-.6,2.283-1.2,4.566-1.8,6.85-8.131.212-16.107.922-22.413,6.983Z"/><path class="cls-55" d="m102.1,18.457c.082-.474.157-.95.226-1.424,6.278-.629,12.556-1.26,18.834-1.891-.539,3.48-2.504,7.578-1.318,10.312,2.402,5.539,6.511,10.339,9.916,15.444.603,1.771,1.207,3.542,1.81,5.312-1.971-.089-4.842.637-5.773-.391-8.096-8.942-15.843-18.199-23.694-27.362Z"/><path class="cls-20" d="m131.567,46.211c-.603-1.771-1.207-3.542-1.81-5.313-1.481-4.085-2.265-8.633-4.606-12.147-3.476-5.218-2.379-7.627,3.358-8.82,4.662,6.865,9.323,13.729,13.984,20.595-.063.701-.125,1.401-.189,2.099-3.581,1.194-7.159,2.39-10.737,3.585Z"/><path class="cls-10" d="m142.307,42.627c.062-.7.124-1.4.187-2.1,1.845,1.463,3.69,2.926,5.409,4.29,2.556-1.253,5.225-2.561,7.895-3.869-.665,1.077-1.33,2.154-1.994,3.232.049,3.417-1.195,7.699.401,10.075,3.881,5.778,9.081,10.672,13.75,15.922,1.125,2.948,2.25,5.896,3.374,8.844-1.74-1.181-3.48-2.362-5.219-3.543-1.711-1.781-3.422-3.561-5.133-5.341-4.661-6.245-9.322-12.491-13.982-18.738-1.562-2.924-3.124-5.848-4.687-8.773Z"/><path class="cls-32" d="m128.51,19.932c-5.737,1.193-6.834,3.602-3.358,8.82,2.341,3.513,3.125,8.062,4.606,12.147-3.405-5.105-7.514-9.905-9.916-15.444-1.186-2.734.779-6.832,1.318-10.312,2.45,1.597,4.9,3.193,7.35,4.79Z"/><path class="cls-3" d="m167.954,70.177c-4.669-5.25-9.869-10.144-13.75-15.922-1.596-2.377-.352-6.659-.401-10.075,6.107-.822,8.92,2.412,10.075,7.957,1.257,6.035,2.709,12.029,4.076,18.041Z"/><path class="cls-39" d="m145.408,110.22c-.52-.614-1.04-1.227-1.561-1.842,1.32-8.311,2.642-16.621,3.964-24.931-.856-.191-1.712-.381-2.567-.572-1.18,1.102-2.36,2.204-3.538,3.304-1.687-2.333-3.376-4.663-5.065-6.994-.6-.725-1.199-1.45-1.799-2.175-1.117-1.623-2.234-3.246-3.352-4.87,3.456-.526,6.913-1.05,10.369-1.575,2.131,1.684,4.262,3.369,6.467,5.111.401-.345,1.685-1.449,3.512-3.02.296,2.127.446,3.208.596,4.288-.616,7.547-1.232,15.093-1.847,22.64-1.726,3.545-3.452,7.089-5.178,10.634Z"/><path class="cls-61" d="m150.586,99.586c.616-7.547,1.232-15.093,1.846-22.638,2.847-2.269,5.696-4.541,8.544-6.812,1.711,1.781,3.422,3.561,5.133,5.342-5.174,8.036-10.349,16.072-15.523,24.108Z"/><path class="cls-30" d="m141.704,86.183c1.18-1.102,2.36-2.204,3.54-3.306.856.191,1.712.381,2.567.572-1.322,8.31-2.644,16.62-3.964,24.931-1.256,5.726-2.514,11.451-3.772,17.175-4.575,2.318-9.15,4.636-13.724,6.954.449-.715.726-1.729,1.373-2.099,13.029-7.444,12.161-20.158,12.42-32.452-.013-1.723-.026-3.445-.039-5.168.534-2.202,1.067-4.404,1.6-6.606Z"/><path class="cls-40" d="m140.103,92.789c.013,1.723.027,3.445.04,5.168-6.08,13.489-4.582,23.536-19.273,31.681-9.184,5.092-38.517,18.929-39.605,1.217,10.793,4.744,50.623-3.442,30.65-17.92-4.575-3.317-27.075-5.736-31.311-4.419-12.574,3.91-5.804,11.142-1.004,22.295-1.609,1.107-3.218,2.214-4.826,3.321-3.5-5.077-6.999-10.154-10.499-15.232,6.554-.553,5.598-5.169,4.822-9.347-.828-4.453-2.117-8.82-3.206-13.225,12.546,9.399,24.09,8.113,39.575,8.27,17.016.173,20.378-5.975,31.628-17.929,1.148,2.336,2.079,4.227,3.009,6.119Z"/><path class="cls-4" d="m79.601,130.811c-4.8-11.153-11.571-18.385,1.004-22.295,4.236-1.317,26.735,1.102,31.311,4.419,19.973,14.478-19.857,22.664-30.65,17.92-.555-.017-1.11-.032-1.664-.044Z"/><path class="cls-65" d="m65.892,96.329c1.088,4.404,2.377,8.771,3.205,13.224.776,4.178,1.732,8.793-4.822,9.347.584-2.575,1.169-5.15,1.88-8.284-1.037-.254-2.615-.641-4.194-1.028-.146-6.362-5.029-13.202,1.909-18.845.704.667,1.406,1.332,2.109,1.997-.029,1.196-.058,2.393-.086,3.589Z"/><path class="cls-67" d="m44.026,73.933c-.336,4.616-.598,8.21-.741,10.171,10.975,2.313,25.244,16.031,10.582,27.103-11.305,8.537-19.113-16.372-17.856-17.292,6.755-4.945-4.156-16.408,8.015-19.982Z"/><path class="cls-50" d="m65.979,92.74c-.702-.665-1.405-1.329-2.109-1.997-.042-1.472-.082-2.941-.124-4.406.67-.127,1.341-.258,2.013-.388,13.293,4.516,25.467,11.495,40.007,9.405,13.997-2.011,16.572-12.29,27.411-17.672.556-.225,1.11-.448,1.665-.671.6.725,1.199,1.45,1.799,2.173-8.455,13.177-20.125,20.003-35.457,21.309-5.421.462-35.373-7.597-35.205-7.754Z"/><path class="cls-12" d="m134.841,77.012c-.554.223-1.108.446-1.665.671-1.208-.246-2.415-.495-3.625-.745-2.244-1.054-4.484-2.106-6.724-3.158-6.523-.651-13.272-.464-19.52-2.141-10.654-2.86-20.934-7.48-32.201-3.002,4.59-2.883,9.18-5.766,13.77-8.65,1.691-.092,3.382-.184,5.074-.276,1.727.674,3.454,1.347,5.181,2.022,2.615,1.638,5.23,3.275,6.989,4.377,5.756-3.324,25.04-10.401,20.725-19.983-7.515-6.941-15.029-13.881-22.544-20.821.6-2.283,1.2-4.567,1.8-6.85,7.851,9.164,15.599,18.42,23.694,27.362.93,1.028,3.801.302,5.773.391,3.579-1.194,7.157-2.39,10.738-3.584,1.564,2.925,3.127,5.849,4.689,8.773-1.685-.064-3.37-.128-5.055-.191-1.168.018-2.336.036-3.503.054-10.491-.586-13.878,8.423-21.349,15.139,5.667,2.243,10.002,3.958,14.337,5.674l.065.068c1.117,1.623,2.234,3.246,3.352,4.869Z"/><path class="cls-49" d="m71.105,68.637c11.268-4.478,21.548.142,32.201,3.002,6.248,1.677,12.997,1.489,19.52,2.141-2.24,1-4.552,1.865-6.708,3.021-16.837,9.028-31.682,4.93-45.407-6.772.034-.493.165-.956.394-1.392Z"/><path class="cls-24" d="m89.949,59.712c-1.691.092-3.383.183-5.074.276,2.68-13.946,11.122-19.992,23.978-12.135-7.237,4.54-13.071,8.2-18.904,11.859Z"/><path class="cls-14" d="m100.3,25.306c7.515,6.94,15.029,13.88,22.544,20.821-7.072-3.826-14.532-10.737-22.535-11.474-7.179-.662-18.524,8.612-22.422-2.364,6.306-6.06,14.282-6.77,22.413-6.983Z"/><path class="cls-16" d="m141.939,51.208c1.685.064,3.37.127,5.055.191,4.661,6.246,9.321,12.492,13.982,18.738-2.849,2.271-5.697,4.542-8.544,6.811-.149-1.083-.299-2.163-.595-4.29-1.826,1.571-3.111,2.675-3.512,3.02-2.204-1.742-4.335-3.427-6.465-5.113-1.733-2.018-5.17-4.337-4.875-5.991.822-4.603,3.194-8.93,4.954-13.366Z"/><path class="cls-11" d="m65.979,92.74c-.168.157,29.783,8.215,35.205,7.754,15.332-1.306,27.002-8.131,35.457-21.309,1.688,2.332,3.377,4.662,5.065,6.995-.535,2.205-1.068,4.407-1.602,6.609-.931-1.892-1.861-3.784-3.009-6.119-11.25,11.954-14.612,18.102-31.628,17.929-15.485-.157-27.029,1.129-39.575-8.27.03-1.195.059-2.392.087-3.588Z"/><path class="cls-53" d="m141.939,51.208c-1.76,4.436-4.132,8.763-4.954,13.366-.295,1.653,3.142,3.973,4.875,5.991-3.458.527-6.914,1.052-10.371,1.577,0,.001-.065-.067-.064-.067-1.365-8.183.751-15.195,7.011-20.813,1.168-.018,2.336-.036,3.503-.054Z"/><path class="cls-56" d="m138.436,51.261c-6.26,5.618-8.376,12.63-7.011,20.813-4.336-1.715-8.671-3.431-14.338-5.673,7.47-6.716,10.858-15.726,21.349-15.139Z"/></svg>