<?xml version="1.0" encoding="UTF-8"?><svg id="Layer_1" xmlns="http://www.w3.org/2000/svg" viewBox="0 0 199.717 204.977"><defs><style>.cls-1{fill:#e1b3d3;}.cls-2{fill:#ce88bb;}.cls-3{fill:#d89dc6;}.cls-4{fill:#c291bf;}.cls-5{fill:#d2a3c9;}.cls-6{fill:#c7afd2;}.cls-7{fill:#8f4f8e;}.cls-8{fill:#c87fb5;}.cls-9{fill:#a860a2;}.cls-10{fill:#acc7d1;}.cls-11{fill:#cbcae1;}.cls-12{fill:#bc85ba;}.cls-13{fill:#bcaac9;}.cls-14{fill:#e1abcf;}.cls-15{fill:#f1e6f1;}.cls-16{fill:#ddbfdb;}.cls-17{fill:#782c76;}.cls-18{fill:#a6d7d4;}.cls-19{fill:#efd7e8;}.cls-20{fill:#d099c5;}.cls-21{fill:#ab559f;}.cls-22{fill:#f8ebf3;}.cls-23{fill:#d08cbd;}.cls-24{fill:#e3b0d1;}.cls-25{fill:#b990be;}.cls-26{fill:#a64e9d;}.cls-27{fill:#a35fa0;}.cls-28{fill:#cc7ab2;}.cls-29{fill:#d698c3;}.cls-30{fill:#f7e1ed;}.cls-31{fill:#eac4dd;}.cls-32{fill:#bb6fad;}.cls-33{fill:#dce2ec;}.cls-34{fill:#bc71ae;}.cls-35{fill:#b770ae;}.cls-36{fill:#8c4a8a;}.cls-37{fill:#cfd0e2;}.cls-38{fill:#d2a2ca;}.cls-39{fill:#ab509e;}.cls-40{fill:#e6b6d4;}.cls-41{fill:#ca8abc;}.cls-42{fill:#d091c0;}.cls-43{fill:#bc7db5;}.cls-44{fill:#b9bed1;}.cls-45{fill:#d797c3;}.cls-46{fill:#ecc6de;}.cls-47{fill:#f2d6e7;}.cls-48{fill:#d4a1ca;}.cls-49{fill:#b86aab;}.cls-50{fill:#d195c2;}.cls-51{fill:#edcce1;}.cls-52{fill:#bc74b0;}.cls-53{fill:#a05ea1;}.cls-54{fill:#c7dfe7;}.cls-55{fill:#b968aa;}.cls-56{fill:#ab6ba8;}.cls-57{fill:#e2aed0;}.cls-58{fill:#8d3189;}.cls-59{fill:#804084;}.cls-60{fill:#d494c1;}.cls-61{fill:#ce84b8;}.cls-62{fill:#a54b9b;}.cls-63{fill:#9c3f97;}.cls-64{fill:#e7cbe1;}</style></defs><path class="cls-8" d="m51.932,14.441c-.984.513-1.969,1.026-2.953,1.54-.088.939-.177,1.878-.264,2.818,4.313,14.301,8.803,24.376-10.495,24.641,2.924,1.487,5.848,2.975,8.786,4.469-1.391,2.298-2.585,4.271-3.779,6.245.462.411.923.822,1.385,1.234,2.932-3.624,6.422-6.603,10.469-8.936,3.007-2.06,6.014-4.12,9.021-6.18-2.945-3.411-1.386-2.952-7.455.123-.433-.617-.866-1.234-1.298-1.851,2.335-1.833,4.669-3.665,8.408-6.6-4.034-3.126-16.092-8.334-11.883-14.539.02-.987.04-1.975.06-2.962Z"/><path class="cls-5" d="m51.932,14.441c-.02.987-.04,1.975-.059,2.963,6.813,5.703,22.774,3.939,19.862-7.257-4.077-.156-8.153-.313-12.23-.469-2.495,1.133-4.99,2.266-7.485,3.398-.048.454-.077.909-.087,1.365Z"/><path class="cls-27" d="m1.701,169.525c.995,1.479,1.991,2.957,2.988,4.437-.279-1.618-.559-3.237-.934-5.406,4.15.347,7.943.665,11.734.982,1.968-.957,3.936-1.914,5.904-2.87-5.005-6.237-10.102-12.397-15.182-18.572l-1.417,1.666c.818,6.144,3.457,12.58-2.973,17.547-.383.296-.096,1.457-.121,2.216Z"/><path class="cls-4" d="m15.49,169.538c-3.792-.317-7.584-.635-11.735-.982.375,2.169.655,3.789.934,5.406,2.583,2.105,5.168,4.212,7.755,6.32,5.033-.091,10.066-.183,15.098-.274-.963-2.025-1.418-4.716-3.004-5.929-2.633-2.014-5.994-3.078-9.048-4.542Z"/><path class="cls-7" d="m1.701,169.525c.025-.759-.262-1.92.121-2.216,6.43-4.967,3.791-11.404,2.973-17.547-.478.013-.955.032-1.433.055-1.12,5.593-2.24,11.187-3.361,16.78.566.976,1.134,1.952,1.701,2.928Z"/><path class="cls-62" d="m166.165,22.263c-1.982.501-3.965,1.001-5.949,1.501-1.089.963-2.176,1.928-3.263,2.892-2.491,1.28-5.27,4.023-7.428,3.602-13.619-2.66-27.78-4.62-36.604-17.453-.494,2.565-.988,5.129-1.481,7.694-5.035.498-9.646.245-10.816-6.1-1.504-1.512-3.007-3.024-4.511-4.536-3.097,8.178-7.605,8.601-16.771,1.575-1.6-.444-3.2-.888-4.799-1.331.064.444.151.884.261,1.319,7.532,7.188,8.765,12.319,19.284,13.676,14.729,1.901,28.514,1.551,43.091,6.089,17.162,4.962,29.728,9.672,45.623,18.068-2.385-5.789-4.497-11.459,1.46-16.651,1.125-.98,1.221-3.138,1.792-4.752-.504-.518-1.009-1.035-1.513-1.552-8.361,8.918-14.187,7.637-18.376-4.04Z"/><path class="cls-36" d="m188.874,50.96c.013-6.598.026-13.196.039-19.794-.954-1.103-1.907-2.207-2.86-3.311-.571,1.613-.667,3.771-1.792,4.751-5.957,5.193-3.846,10.862-1.46,16.653,6.417,3.084-1.534,6.182.011,9.27.98-.481,1.96-.962,2.94-1.443,1.04-2.042,2.081-4.085,3.121-6.127Z"/><path class="cls-12" d="m166.165,22.263c4.189,11.677,10.015,12.958,18.376,4.04-1.555-1.453-3.11-2.904-4.664-4.356-4.57.105-9.141.211-13.712.316Z"/><path class="cls-14" d="m64.1,40.27c-3.007,2.06-6.014,4.12-9.022,6.18.986.482,1.973.965,2.96,1.448,1.039-.476,2.079-.951,3.118-1.427,11.835-1.029,33.854-6.229,25.236,12.448-7.413,16.065-18.132,21.473-16.958,40.319,5.711,7.757,2.818,16.098-6.797,9.479-.012.515-.025,1.03-.037,1.545,23.511,15.234,11.001-20.39,22.842-22.765,4.357-1.612,8.97-2.766,12.975-5.006,2.46-1.376,4-4.416-.792-5.689-19.22,4.261-14.914-13.667-1.121-18.983,16.734-6.448,30.473,19.593,36.205-6.71-1.05.958-2.099,1.917-3.148,2.876-2.074,2.502-4.147,5.004-6.221,7.506-.126-.857-.252-1.713-.378-2.57-7.856-2.938-32.198-5.369-29.744-16.374,2.682-12.031,13.077,7.468,18.195-9.183,8.186,3.87,16.228,7.672,24.271,11.474,1.983.547,3.965,1.094,5.948,1.64,1.919-6.344,4.184.213,6.263-.168.493-2.012.986-4.023,1.478-6.035-4.069-2.513-8.138-5.025-12.208-7.537-3.044-.518-6.088-1.036-9.132-1.555-24.182-2.867-41.497.154-63.934,9.085Z"/><path class="cls-3" d="m58.038,47.897c-.987-.483-1.974-.965-2.96-1.448-4.046,2.334-7.536,5.313-10.468,8.937-.462-.411-.923-.822-1.385-1.234,1.194-1.973,2.388-3.946,3.779-6.245-2.937-1.494-5.862-2.982-8.785-4.47-1.509-.005-3.019-.008-4.529-.013-.007.471.01.942.049,1.413,5.966,2.078,6.785,6.873,6.454,12.758,2.615.123,5.228.246,5.808.274,3.057,6.969,11.665,19.068,12.588,26.399.902,7.161-4.582,13.34-7.867,19.659,6.648-2.677,9.44.652,11.915,4.788,9.615,6.619,12.508-1.722,6.797-9.479-1.174-18.846,9.545-24.253,16.958-40.319,8.618-18.678-13.401-13.478-25.236-12.449,2.961.167,20.715-.981,22.222,2.729,1.4,3.445-10.072,16.199-12.144,18.518-16.458,18.417-24.373-8.655-13.195-19.818Z"/><path class="cls-3" d="m64.1,40.27c22.437-8.931,39.752-11.953,63.934-9.085-12.65-3.015-22.454-2.273-34.873-3.085-12.528-.819-14.713-4.865-18.358-16.674-.11-.435-.197-.875-.261-1.319-.936.013-1.872.027-2.807.04,2.912,11.196-13.05,12.961-19.862,7.258-4.21,6.204,7.848,11.413,11.882,14.538-3.739,2.935-6.073,4.767-8.408,6.6.433.617.866,1.234,1.298,1.851,6.069-3.076,4.511-3.534,7.455-.123Z"/><path class="cls-9" d="m33.69,43.426c1.51.004,3.02.008,4.529.012,19.297-.265,14.808-10.339,10.495-24.641-.5,1.04-1,2.081-1.498,3.123.037,1.997.322,4.026.067,5.985-1.461,11.235-3.905,13.923-12.019,13.542-3.035.012-6.07.024-9.104.035-1.62.631-3.242,1.263-4.866,1.896.151.494.304.988.456,1.483.929-.038,1.859-.077,2.79-.116,3.05-.439,6.1-.88,9.151-1.32Z"/><path class="cls-17" d="m156.953,26.656c1.087-.965,2.175-1.929,3.263-2.893-12.515,1.583-21.479-5.644-30.653-12.346-5.062-3.014-10.123-6.029-15.185-9.044,2.016,3.511,4.032,7.022,6.048,10.534,2.993,1.736,5.954,3.528,8.984,5.197,8.59,4.732,16.675,11.13,27.543,8.552Z"/><path class="cls-59" d="m120.426,12.907c-2.016-3.512-4.032-7.023-6.048-10.534-10.007-2.717-13.092-4.169-20.733,1.678-6.113,4.678-4.84,7.332-14.304,7.386,9.166,7.026,13.674,6.603,16.771-1.574.279-8.454,1.265-9.107,8.638-5.586,2.737,1.307,5.411,2.745,8.114,4.123,2.52,1.502,5.041,3.005,7.561,4.508Z"/><path class="cls-26" d="m85.85,201.956s8.204,2.329,20.927,2.47c20.352.225,39.632-13.611,50.822-21.642,8.725-6.261,20.851-16.317,32.749-31.487.547-.487,1.093-.975,1.64-1.462,0,0-.132-.219-.132-.218-3.532-.437-7.065-.875-10.598-1.313-1.5-1.019-3.001-2.037-4.501-3.056-6.876,9.282-11.643,20.403-22.718,26.025-1.002.999-2.004,1.999-3.008,2.997-4.107,2.985-8.213,5.971-12.319,8.958-16.707,18.14-50.588,9.714-69.998,3.023-7.155-5.04-14.309-10.081-21.464-15.121-1.983-1.539-3.965-3.078-5.948-4.617-3.525,4.077-7.05,8.154-10.575,12.232,10.434.015,11.517,1.768,7.05,10.691-.831,1.66-.556,3.873-.793,5.833,9.49-10.967,14.058-6.411,18.054,4.523,1.921-1.992,3.854-3.16,5.873-3.674,3.643-.927,6.663.407,10.479,1.776,4.712,1.69,9.642,2.696,14.458,4.063Z"/><path class="cls-49" d="m30.729,178.744c3.525-4.077,7.05-8.154,10.575-12.232-3.432-7.193-10.651-5.987-16.657-7.66-6.914-1.926-12.68-5.746-16.636-11.936-.524-.042-1.048-.084-1.572-.126-.113.429-.188.865-.226,1.306,5.079,6.174,10.176,12.334,15.181,18.571-1.968.957-3.936,1.914-5.904,2.87,3.054,1.464,6.415,2.528,9.048,4.542,1.586,1.213,2.041,3.903,3.004,5.929,1.062-.422,2.124-.843,3.187-1.264Z"/><path class="cls-56" d="m55.04,199.791c-3.997-10.934-8.564-15.491-18.054-4.523,3.876,11.189,9.991,12.722,18.054,4.523Z"/><path class="cls-34" d="m137.166,32.739c4.069,2.512,8.138,5.025,12.208,7.538,13.525-3.257,18.848,9.942,29.055,13.765-2.84,3.876-5.299,7.231-7.758,10.587,1.502,2.046,3.005,4.092,4.507,6.138-2.081-6.865-.908-11.764,7.455-12.317l.181.08c-1.545-3.088,6.406-6.186-.011-9.27-15.896-8.398-28.461-13.108-45.624-18.07-.004.516-.008,1.033-.012,1.549Z"/><path class="cls-58" d="m120.426,12.907c-2.52-1.503-5.041-3.005-7.562-4.508.019,1.468.038,2.936.057,4.404,8.823,12.834,22.985,14.794,36.604,17.454,2.159.422,4.937-2.322,7.428-3.602-10.868,2.578-18.953-3.82-27.543-8.552-3.03-1.669-5.992-3.461-8.984-5.197Z"/><path class="cls-52" d="m137.166,32.739c.004-.516.008-1.033.012-1.549-14.577-4.537-28.363-4.187-43.091-6.088-10.519-1.358-11.752-6.489-19.284-13.676,3.645,11.808,5.83,15.855,18.358,16.674,12.419.812,22.223.07,34.873,3.085,3.044.518,6.088,1.036,9.132,1.555Z"/><path class="cls-43" d="m100.624,14.398c1.169,6.345,5.781,6.598,10.814,6.101-.375-8.476-3.829-12.946-12.267-14.745.527,3.136.989,5.89,1.452,8.644Z"/><path class="cls-53" d="m100.624,14.398c-.463-2.754-.925-5.508-1.452-8.644,8.437,1.799,11.892,6.268,12.267,14.745.495-2.565.988-5.129,1.482-7.694-.018-1.47-.037-2.938-.056-4.406-2.702-1.378-5.377-2.815-8.114-4.122-7.374-3.521-8.36-2.868-8.638,5.586,1.504,1.511,3.008,3.023,4.511,4.535Z"/><path class="cls-63" d="m181.282,60.089c-7.939,6.142,6.426,54.122,13.712,60.732.519.024,1.037.047,1.555.071-.43-8.043-1.528-17.508-3.921-27.923-3.032-13.198-7.296-24.244-11.346-32.88Z"/><path class="cls-20" d="m19.948,47.793c-.993.592-1.985,1.183-2.977,1.774-2.398,10.433-4.669,20.791-1.118,31.557.548,1.663-2.056,4.364-3.202,6.585-.047.413-.136.817-.269,1.211,1.559,2.512,3.118,5.024,4.676,7.537,1.979.062,3.96.124,5.94.185,1.005-4.021,2.303-8,2.886-12.081.28-1.958-.794-4.109-1.256-6.172-6.854,3.292-6.144-2.803-7.646-6.152.988-8.148,1.977-16.295,2.965-24.443Z"/><path class="cls-27" d="m9.404,128.485c-1.015,1.006-2.03,2.011-3.044,3.017.026,5.095.051,10.191.078,15.288.525.042,1.049.084,1.572.125.474-.552.95-1.103,1.426-1.653.948-9.064,4.182-12.62,6.92-20.86,2.66-8.009.659-19.691.704-27.945-1.559-2.512-3.118-5.024-4.677-7.536-.478.009-.955.03-1.432.061,5.294,14.247,8.023,26.941-1.546,39.505Z"/><path class="cls-1" d="m19.947,47.793c-.988,8.148-1.977,16.295-2.965,24.443,4.349-5.687,7.227-9.092,8.417-15.957,1.009-5.817-5.568-4.194-.86-11.533-.93.039-1.861.079-2.79.116-.6.976-1.201,1.954-1.803,2.931Z"/><path class="cls-1" d="m24.628,78.388c.461,2.064,1.535,4.215,1.256,6.172-.583,4.081-1.882,8.06-2.886,12.08-.005,5.026-.011,10.053-.017,15.08.011,14.43-.314,28.894.483,43.306,5.447-1.146,8.929-1.046,12.242-5.474,3.285,1.681,6.142,3.143,7.732,3.957,2.086,6.522,3.841,12.008,5.596,17.495.971.036,1.942.073,2.912.109-1.127-2.5-2.254-5-4.2-9.317,9.906,5.411,14.308,1.858,7.302-7.857-5.746-7.967-20.112-12.039-29.303-18.009,3.222-3.087-3.849-11.546,4.932-15.057,5.653-4.068,9.018-11.008,18.542-9.903,3.612.419,8.449-4.443,13.381-.71.012-.515.025-1.03.037-1.545-2.475-4.136-5.267-7.465-11.915-4.788,3.285-6.319,8.769-12.499,7.867-19.659-.923-7.331-9.531-19.43-12.588-26.399-.58-.027-3.193-.15-5.808-.274.331-5.885-.488-10.68-6.454-12.758.645,18.825,31.906,37.265,15.538,51.618-7.429-8.621-10.451-27.138-24.649-18.068Z"/><path class="cls-46" d="m141.634,46.478c1.918-6.343,4.183.214,6.262-.167.471.067.944.121,1.418.164.255.426.412.978.778,1.259,9.643,7.405,15.545,16.262,11.432,29.064-9.347-3.187-16.679,4.738-25.69,3.07-5.965-1.104-10.922-6.212-16.84-8.148-.03,2.71-.061,5.419-.091,8.129,2.035,4.059,4.069,8.118,6.104,12.177-6.222,6.675-9.785,16.736-21.287,16.685,11.45-5.9,17.707-22.312,11.769-34.486-7.077-14.51-20.151-10.73-25.95,2.099,3.328.197,5.707.338,8.087.478-19.22,4.261-14.914-13.667-1.121-18.983,16.734-6.448,30.473,19.593,36.206-6.708,2.975-1.544,5.95-3.088,8.924-4.632Zm.037,29.665c6.02-2.238,10.4-6.083,10.549-15.211-13.288-22.946-29.56,22.278-10.549,15.211Z"/><path class="cls-47" d="m103.719,108.71c11.45-5.9,17.707-22.312,11.769-34.486-7.077-14.51-20.151-10.73-25.95,2.099,3.328.197,5.707.338,8.087.478,4.792,1.273,3.252,4.313.792,5.689-4.005,2.24-8.618,3.394-12.975,5.005-7.308,14.738,4.981,24.692,18.277,21.215Z"/><path class="cls-16" d="m103.719,108.71c-13.296,3.477-25.585-6.476-18.277-21.215-11.841,2.376.669,37.999-22.842,22.766-4.933-3.733-9.769,1.129-13.382.71-9.524-1.105-12.889,5.835-18.542,9.903,3.028.001,6.057.002,9.086.003,3.156-.822,6.694-.997,9.395-2.589,7.606-4.483,13.268-2.431,18.093,4.17,7.587.133,15.181.129,22.756.512,1.563.079,3.053,1.597,4.576,2.452,3.976-7.366,9.812-12.244,18.258-13.633,4.254-4.803,8.677-9.474,12.618-14.521.791-1.013-.254-3.457-.453-5.241-6.222,6.675-9.785,16.735-21.287,16.684Z"/><path class="cls-28" d="m58.038,47.897c-11.178,11.163-3.263,38.235,13.195,19.818,2.072-2.319,13.544-15.073,12.144-18.518-1.507-3.709-19.261-2.562-22.222-2.729-1.039.477-2.078.952-3.117,1.428Z"/><path class="cls-29" d="m135.684,44.838c-8.042-3.802-16.085-7.604-24.271-11.474-5.118,16.651-15.512-2.848-18.195,9.183-2.453,11.005,21.888,13.436,29.744,16.374.126.857.252,1.713.378,2.57,2.074-2.502,4.147-5.004,6.221-7.506-2.017.933-4.035,1.866-5.907,2.732-4.119-3.853-7.985-7.808-11.81-11.954,10.069-4.72,13.112-2.865,23.84.076Z"/><path class="cls-61" d="m135.684,44.839c-10.728-2.941-13.771-4.796-23.84-.076,3.825,4.146,7.691,8.101,11.81,11.954,1.872-.866,3.89-1.799,5.907-2.732,1.049-.959,2.098-1.919,3.148-2.876,2.976-1.543,5.95-3.087,8.924-4.631-1.984-.546-3.966-1.093-5.949-1.64Z"/><path class="cls-60" d="m147.895,46.311c.471.067.944.121,1.418.163,8.592-2.4,11.603,1.948,18.718,7.266,1.179,4.864,1.908,7.877,2.638,10.89,2.459-3.356,4.918-6.712,7.758-10.587-10.207-3.823-15.529-17.022-29.055-13.765-.493,2.011-.985,4.023-1.478,6.034Z"/><path class="cls-31" d="m24.628,78.388c14.198-9.07,17.22,9.448,24.648,18.068,16.368-14.353-14.893-32.792-15.538-51.618-.039-.471-.055-.942-.049-1.413-3.05.441-6.1.881-9.151,1.32-4.708,7.338,1.869,5.715.86,11.533-1.191,6.865-4.068,10.27-8.417,15.957,1.502,3.349.792,9.444,7.646,6.152Z"/><path class="cls-21" d="m191.988,149.835c2.577-2.063,5.154-4.126,7.729-6.189-.029-2.769-.057-5.538-.085-8.308-.038-3.783-.077-7.567-.115-11.35-4.463,4.622-8.926,9.244-13.751,14.242,2.963,2.676,5.675,5.125,8.549,7.72-.822,1.225-1.641,2.445-2.459,3.665,0,0,.132.219.132.219Z"/><path class="cls-57" d="m151.033,174.27c1.002-.999,2.004-1.999,3.006-2.999-1.99-.678-4.007-1.284-5.961-2.05-2.145-.841-4.232-1.828-6.344-2.751-4.785,7.632-10.195,13.263-20.729,11.741-8.707-1.258-10.643-3.539-6.624-11.691-.528-.015-1.056-.03-1.583-.044-1.026,1.521-2.053,3.042-3.079,4.563.526,5.539.54,10.767-6.832,11.725-8.856,1.151-17.709,2.327-26.564,3.493.024.472.054.944.09,1.415.463.075.929.132,1.396.169,11.489-2.539,22.225,3.314,33.515,3.002,8.156-2.47,16.312-4.94,24.468-7.409,1.667-1.737,4.103-3.19,4.868-5.26,3.204-8.668,3.02-8.735,10.373-3.902Z"/><path class="cls-23" d="m49.033,171.004c-1.755-5.487-3.51-10.974-5.596-17.495-1.59-.814-4.446-2.275-7.732-3.957-3.313,4.429-6.795,4.328-12.242,5.474-.797-14.412-.473-28.875-.482-43.305-1.5.206-3,.411-4.477.614,0,9.076,1.502,28.255-9.069,32.926-.476.551-.951,1.101-1.426,1.653,3.957,6.192,9.723,10.011,16.637,11.938,6.006,1.673,13.225.467,16.657,7.66,1.982,1.539,3.965,3.078,5.949,4.617.594-.042,1.188-.083,1.781-.125Z"/><path class="cls-24" d="m141.733,166.47c2.112.923,4.2,1.911,6.344,2.751,1.955.766,3.971,1.373,5.961,2.051,11.076-5.621,15.843-16.742,22.719-26.024.007-1.521.014-3.043.02-4.564-7.833,8.287-15.538,16.623-23.077,25.177-.404-4.938-.642-7.839-.935-11.418-7.595,3.558-13.78,8.341-21.476,3.057,1.036-1.741,1.912-3.215,2.789-4.689-3.352,1.057-6.717,2.071-10.05,3.183-2.733.912-5.427,1.941-8.138,2.918-1.031,2.521-2.063,5.042-3.094,7.563.528.015,1.056.03,1.583.044,7.544-2.679,23.923-12.091,27.353-.049Z"/><path class="cls-32" d="m199.517,123.988c-.989-1.032-1.979-2.064-2.968-3.097-.518-.024-1.036-.047-1.555-.07-2.864,0-5.729,0-7.976,0-1.104-3.944-1.825-6.522-2.547-9.1-.204,6.547-3.819,15.735-2.858,21.881.718,4.593,6.87,11.071,6.252,14.307-2.142.128-4.375.262-6.607.395,3.533.438,7.066.876,10.598,1.313.818-1.221,1.637-2.441,2.459-3.667-2.874-2.596-5.586-5.044-8.549-7.72,4.825-4.997,9.288-9.62,13.751-14.242Z"/><path class="cls-42" d="m181.258,148.304c2.233-.133,4.466-.267,6.607-.395.618-3.235-5.534-9.713-6.252-14.307-.961-6.146,2.654-15.334,2.857-21.881-.516-4.578-1.032-9.156-1.548-13.733,0,5.441,0,10.881,0,15.618-7.332,2.105-4.119,6.597-3.231,10.387-.97,5.563-1.941,11.127-2.912,16.691-.007,1.521-.014,3.042-.021,4.564,1.5,1.019,3,2.037,4.5,3.056Z"/><path class="cls-2" d="m49.033,171.005c-.593.041-1.186.083-1.781.125,7.154,5.041,14.308,10.081,21.463,15.121,2.566.474,5.132.947,7.698,1.42-.035-.471-.065-.943-.09-1.415-3.686-6.796-10.191-9.363-17.037-11.58-2.563-.83-4.9-2.354-7.34-3.562-.971-.036-1.942-.073-2.913-.109Z"/><path class="cls-55" d="m76.413,187.671c-2.566-.473-5.132-.947-7.698-1.42,19.41,6.691,53.291,15.117,69.998-3.024-.974.069-1.948.137-2.921.206-8.156,2.47-16.312,4.94-24.468,7.409-11.643,4.252-22.474-.545-33.514-3.002-.468-.037-.933-.094-1.396-.169Z"/><path class="cls-50" d="m135.791,183.433c.974-.069,1.948-.137,2.921-.206,4.106-2.986,8.212-5.973,12.319-8.958-7.352-4.832-7.168-4.764-10.372,3.903-.765,2.07-3.201,3.523-4.868,5.26Z"/><path class="cls-14" d="m170.67,64.629c-.73-3.013-1.46-6.025-2.638-10.89-7.115-5.317-10.126-9.666-18.718-7.266.254.427.412.979.777,1.26,9.643,7.405,15.545,16.262,11.432,29.064,12.124,8.076,4.88-6.408,9.535-7.973.913,6.316,1.799,12.447,2.685,18.579.507-4.575,1.014-9.15,1.52-13.725-.029-.971-.058-1.941-.087-2.912-1.502-2.046-3.005-4.092-4.507-6.138Z"/><path class="cls-39" d="m175.177,70.767c.029.971.058,1.941.087,2.912,2.541,8.126,5.083,16.252,7.625,24.377l.035-.069c.516,4.578,1.031,9.156,1.548,13.734.722,2.578,1.444,5.156,2.548,9.1,2.247,0,5.112,0,7.976,0-7.287-6.61-21.652-54.591-13.712-60.733.451-.546.902-1.091,1.352-1.638-8.365.553-9.537,5.452-7.457,12.317Z"/><path class="cls-35" d="m9.435,145.261c10.571-4.671,9.069-23.85,9.069-32.926,1.477-.202,2.978-.408,4.477-.614.005-5.027.011-10.054.016-15.081-1.981-.061-3.961-.122-5.94-.185-.044,8.253,1.957,19.936-.703,27.944-2.737,8.24-5.971,11.797-6.92,20.86Z"/><path class="cls-51" d="m51.946,171.114c2.44,1.208,4.777,2.732,7.34,3.562,6.846,2.217,13.351,4.784,17.037,11.58,8.854-1.165,17.707-2.342,26.564-3.493,7.372-.958,7.358-6.187,6.833-11.725-5.04,1.019-10.081,2.038-15.122,3.057,3.283.459,6.566.918,12.163,1.701-13.845,8.814-25.639,11.349-38.06-1.666-3.362-.856-6.724-1.712-10.656-2.712,15.084-20.484-15.404-29.54-28.634-41.872,2.273-4.115,5.726-5.999,10.358-5.652-.002-1.006-.005-2.012-.007-3.018-3.028,0-6.057-.002-9.085-.003-8.781,3.511-1.71,11.97-4.932,15.057,9.192,5.969,23.557,10.041,29.303,18.009,7.006,9.714,2.604,13.268-7.302,7.857,1.946,4.317,3.073,6.817,4.2,9.317Z"/><path class="cls-40" d="m173.744,87.404c-.886-6.132-1.772-12.263-2.685-18.579-4.655,1.565,2.589,16.048-9.535,7.973-9.347-3.187-16.679,4.738-25.69,3.07-5.965-1.104-10.922-6.212-16.84-8.148-.03,2.71-.061,5.419-.091,8.129.028-9.744,7.356-.99,10.588-.151,3.786.983,13.913,1.364,16.324,3.095-.258,2.996-.497,5.78-.757,8.801,13.387-1.779,14.139-1.305,16.518,9.582,1.426-6.5,1.964-9.427,5.918-15.092,3.933,7.624,3.993,34.237,12.197,37.911-.887-3.79-4.101-8.283,3.231-10.387,0-4.737,0-10.177,0-15.618,0,0-.034.069-.034.069-2.236-4.247-2.9-9.841-9.144-10.653Z"/><path class="cls-48" d="m161.575,101.175c-2.378-10.886-3.13-11.36-16.518-9.582.26-3.021.499-5.806.757-8.801-2.411-1.731-12.539-2.113-16.324-3.095-3.232-.839-10.559-9.593-10.588.151,2.034,4.059,4.069,8.118,6.104,12.177.199,1.785,1.244,4.229.453,5.242-3.941,5.047-8.364,9.718-12.618,14.521.531,5.101,1.061,10.203,1.592,15.305,3.986-4.618,1.953-7.435,4.908-11.705,2.802-4.05,8.34-6.193,10.173-10.936,5.905-15.273-10.494-19.989,13.786-19.989-1.289,5.21-2.2,8.892-3.605,14.569,2.631-1.468,18.122-10.388,17.786-.145-.199,6.08-14.052,2.192-14.215,11.351.005,2.032.01,4.064.015,6.096,5.549-3.53,11.099-7.059,16.648-10.589.549-1.523,1.098-3.046,1.647-4.57Z"/><path class="cls-30" d="m152.22,60.932c-13.288-22.946-29.56,22.278-10.549,15.211,6.02-2.238,10.4-6.083,10.549-15.211Z"/><path class="cls-13" d="m94.583,125.421c-1.523-.855-3.013-2.373-4.576-2.452-7.575-.383-15.169-.379-22.757-.512-.052.492-.085.985-.1,1.48,1.447,5.701,2.641,12.03,10.902,9.666,11.391-3.26,27.846,4.914,31.791,16.159,5.43.346,9.153-1.347,9.077-7.582-10.12-.494-12.902-10.517-19.788-15.212-1.516-.516-3.033-1.031-4.549-1.547Z"/><path class="cls-37" d="m67.149,123.937c.016-.495.049-.988.101-1.48-4.825-6.6-10.487-8.652-18.093-4.169-2.701,1.592-6.239,1.767-9.395,2.589.002,1.006.004,2.012.007,3.019,3.048,2.526,6.096,5.052,9.144,7.579,4.196-5.482,9.454-5.535,15.223-2.972,1.004-1.522,2.009-3.044,3.013-4.565Z"/><path class="cls-38" d="m94.583,125.421c1.516.516,3.033,1.031,4.549,1.547,1.968-.027,3.958-.253,5.898-.036,3.113.348,6.193.988,9.287,1.505.027-.449.065-.897.115-1.345-.531-5.102-1.061-10.203-1.592-15.305-8.446,1.389-14.282,6.268-18.258,13.634Z"/><path class="cls-50" d="m141.733,166.47c-3.43-12.042-19.809-2.631-27.353.049-4.019,8.153-2.083,10.434,6.624,11.692,10.534,1.522,15.944-4.108,20.729-11.741Z"/><path class="cls-64" d="m94.597,174.095c5.041-1.019,10.082-2.038,15.122-3.057,1.026-1.521,2.052-3.042,3.078-4.563,1.031-2.521,2.062-5.042,3.094-7.563-2.532-2.024-5.064-4.048-7.596-6.071-3.543,1.029-7.087,2.058-10.63,3.087-.535,1.004-1.07,2.007-1.605,3.011-1.505,4.041-3.01,8.081-4.515,12.122,1.017,1.012,2.034,2.024,3.051,3.036Z"/><path class="cls-2" d="m77.809,187.84c11.041,2.457,21.872,7.254,33.514,3.002-11.289.312-22.025-5.541-33.514-3.002Z"/><path class="cls-19" d="m161.575,101.175c-.549,1.523-1.098,3.046-1.647,4.569-1.509,3.032-3.019,6.066-4.528,9.098,1.027,1.007,2.054,2.014,3.08,3.021,20.796-3.643,9.86,39.315-13.702,27.361-2.525,1.501-5.049,3.002-7.574,4.503-1.042,1.028-2.084,2.056-3.125,3.084-.877,1.474-1.753,2.948-2.789,4.689,7.696,5.283,13.881.501,21.476-3.057.293,3.578.53,6.48.935,11.418,7.538-8.553,15.244-16.889,23.077-25.177.971-5.563,1.943-11.127,2.913-16.691-8.205-3.673-8.265-30.287-12.198-37.91-3.954,5.666-4.492,8.592-5.918,15.092Z"/><path class="cls-6" d="m134.079,152.811c1.042-1.028,2.084-2.056,3.125-3.083-1.675-9.517,8.955-29.898,18.196-34.885,1.51-3.033,3.02-6.067,4.528-9.099-5.55,3.531-11.1,7.06-16.649,10.59-3.202,5.458-6.663,14.963-11.462,19.205-4.171,3.686-9.905,2.969-12.898,6.642.076,6.235-3.648,7.928-9.078,7.582-.516,1.026-1.031,2.052-1.546,3.078,2.532,2.024,5.064,4.047,7.596,6.071,2.711-.977,5.405-2.006,8.138-2.918,3.333-1.112,6.699-2.126,10.05-3.183Z"/><path class="cls-45" d="m173.744,87.404c6.244.812,6.908,6.406,9.144,10.653-2.541-8.126-5.083-16.251-7.624-24.377-.506,4.574-1.013,9.149-1.52,13.724Z"/><path class="cls-15" d="m91.546,171.06c1.505-4.041,3.01-8.081,4.515-12.123-26.115,12.152-34.476-8.485-47.149-27.462-3.048-2.526-6.096-5.052-9.144-7.578-4.633-.348-8.086,1.536-10.359,5.651,13.23,12.332,43.718,21.387,28.634,41.872,3.932,1.001,7.294,1.857,10.656,2.712-1.357-2.002-2.714-4.005-4.071-6.007,9.422-2.142,17.496.804,26.917,2.936Z"/><path class="cls-22" d="m91.546,171.06c-9.421-2.132-17.495-5.077-26.917-2.936,1.357,2.002,2.714,4.004,4.071,6.007,12.421,13.015,24.215,10.48,38.06,1.666-5.597-.783-8.88-1.242-12.163-1.701-1.017-1.012-2.034-2.024-3.051-3.036Z"/><path class="cls-41" d="m114.432,127.092c-.049.447-.088.895-.114,1.345,2.805,5.102,6.955,4.633,11.865-.746,5.485-6.009,11.37-11.652,17.081-17.454.164-9.159,14.016-5.271,14.215-11.351.336-10.244-15.155-1.323-17.786.145,1.405-5.677,2.316-9.359,3.605-14.569-24.28,0-7.881,4.715-13.786,19.989-1.834,4.743-7.372,6.886-10.173,10.936-2.955,4.27-.922,7.087-4.908,11.705Z"/><path class="cls-25" d="m143.265,110.238c-5.711,5.802-11.597,11.446-17.081,17.454-4.91,5.379-9.06,5.848-11.865.746-3.095-.517-6.175-1.158-9.288-1.506-1.94-.217-3.931.009-5.898.036,6.885,4.695,9.668,14.718,19.788,15.212,2.992-3.673,8.727-2.956,12.898-6.642,4.799-4.241,8.26-13.747,11.462-19.205-.005-2.032-.01-4.064-.015-6.096Z"/><path class="cls-44" d="m108.296,152.84c.515-1.026,1.03-2.052,1.546-3.078-3.943-11.245-20.399-19.419-31.79-16.159-8.261,2.364-9.455-3.965-10.902-9.666-1.005,1.522-2.009,3.044-3.014,4.565,1.358,3.411,2.716,6.822,3.646,9.159,3.508,0,5.986,0,8.464,0,13.141-4.462,23.225,2.662,21.364,15.092.018,1.058.037,2.115.055,3.173,3.543-1.029,7.087-2.058,10.63-3.087Z"/><path class="cls-54" d="m97.665,155.927c-.018-1.058-.037-2.115-.055-3.172-2.024.516-4.048,1.03-6.071,1.545-6.048,1.375-18.365,7.239-23.143,1.536-4.418-5.274-.332-14.353,6.391-13.671.486-1.501.972-3.002,1.458-4.502-2.478,0-4.955,0-8.463,0-.93-2.337-2.288-5.748-3.646-9.159-5.77-2.563-11.027-2.509-15.223,2.973,12.673,18.977,21.034,39.614,47.149,27.462.535-1.003,1.069-2.007,1.604-3.01Z"/><path class="cls-33" d="m144.779,145.224c23.561,11.954,34.498-31.004,13.702-27.361-4.567,9.12-9.134,18.241-13.702,27.361Z"/><path class="cls-11" d="m144.779,145.224c4.567-9.12,9.134-18.241,13.702-27.361-1.026-1.007-2.053-2.014-3.08-3.021-9.241,4.988-19.871,25.368-18.196,34.885,2.525-1.502,5.05-3.003,7.574-4.504Z"/><path class="cls-10" d="m91.539,154.299c2.024-.515,4.048-1.03,6.071-1.545,1.861-12.431-8.223-19.555-21.364-15.093-.487,1.501-.973,3.002-1.459,4.503,2.252.006,4.505-.046,6.755.029,7.604.252,10.885,4.247,9.996,12.106Z"/><path class="cls-18" d="m91.539,154.299c.889-7.859-2.393-11.854-9.996-12.106-2.249-.075-4.503-.023-6.755-.029-6.724-.683-10.809,8.397-6.391,13.671,4.778,5.704,17.094-.161,23.143-1.536Z"/></svg>