<?xml version="1.0" encoding="UTF-8"?><svg id="Layer_1" xmlns="http://www.w3.org/2000/svg" viewBox="0 0 160.037 154.809"><defs><style>.cls-1{fill:#c4d1de;}.cls-2{fill:#98a8b8;}.cls-3{fill:#697888;}.cls-4{fill:#7b8b9a;}.cls-5{fill:#a7b6c3;}.cls-6{fill:#5b6a7b;}.cls-7{fill:#8d97a3;}.cls-8{fill:#b8c8d2;}.cls-9{fill:#bdcedb;}.cls-10{fill:#b9cbd4;}.cls-11{fill:#566676;}.cls-12{fill:#758491;}.cls-13{fill:#c8d5df;}.cls-14{fill:#6d7d8d;}.cls-15{fill:#adbccb;}.cls-16{fill:#c6d7e0;}.cls-17{fill:#acbeca;}.cls-18{fill:#6e808e;}.cls-19{fill:#6e7f8f;}.cls-20{fill:#576875;}.cls-21{fill:#8596a4;}.cls-22{fill:#8291a0;}.cls-23{fill:#a3b2c0;}.cls-24{fill:#7c8c9b;}.cls-25{fill:#b9c6cf;}.cls-26{fill:#8999a6;}.cls-27{fill:#94a1ad;}.cls-28{fill:#8e9ead;}.cls-29{fill:#8fa0ad;}.cls-30{fill:#909ead;}.cls-31{fill:#b4c4d0;}.cls-32{fill:#687a87;}.cls-33{fill:#a7b5c0;}.cls-34{fill:#627483;}.cls-35{fill:#c1d2de;}.cls-36{fill:#c2d1dd;}.cls-37{fill:#6f808e;}.cls-38{fill:#8192a1;}.cls-39{fill:#b4c1ca;}.cls-40{fill:#c6d6e0;}.cls-41{fill:#acbbc9;}.cls-42{fill:#bdcad7;}.cls-43{fill:#9eb0bc;}.cls-44{fill:#88939f;}.cls-45{fill:#96a4b3;}.cls-46{fill:#8f9eac;}.cls-47{fill:#aabac8;}.cls-48{fill:#f4f4f7;}.cls-49{fill:#b8cad4;}.cls-50{fill:#a2b2c0;}.cls-51{fill:#e7edf3;}.cls-52{fill:#7c8e9b;}.cls-53{fill:#bac7d0;}.cls-54{fill:#6a7a89;}.cls-55{fill:#5e6f7e;}.cls-56{fill:#7b8c9a;}.cls-57{fill:#a4b3be;}.cls-58{fill:#9cadb9;}.cls-59{fill:#a6b8c1;}</style></defs><path class="cls-15" d="m39.492,145.446c-1.862-.916-3.723-1.831-5.585-2.747-2.861-2.55-5.94-4.898-8.531-7.697-3.903-4.216-7.465-8.748-11.172-13.146,2.992-1.308,6.06-2.47,8.932-4.001,1-.533,1.514-1.978,2.25-3.006,6.141,7.897,16.9,19.874,26.589,9.718,5.021,1.685,11.394,5.871,16.444,6.613,2.695.396,13.005-.999,12.99-1.011-1.594,5.274,2.685,1.916,4.091,2.779,1.406.492,2.812.983,4.218,1.475-14.129,12.101-15.845,7.975-29.288-4.676-3.451,1.409-6.46,2.638-9.59,3.917.923,8.513,13.621,10.318,19.325,16.115-1.317.817-3.724,2.432-3.795,2.335-3.868-5.266-9.624-2.805-14.512-3.68-4.122-.996-8.245-1.993-12.367-2.989Z"/><path class="cls-31" d="m142.995,126.116c-1.039,1.75-2.079,3.5-3.117,5.251-4.571,2.887-9.142,5.773-13.714,8.659-.966-.03-1.932-.059-2.898-.088-1.197-13.358.879-11.57,13.066-11.57-2.944-2.389-4.398-3.568-5.952-4.83,1.897-3.202,3.583-6.047,5.767-9.733-3.341.754-14.822.461-17.159,2.729-2.087,2.026-1.917,10.95-3.658,14.519-6.217-3.384-10.463,2.57-15.805,3.33.939-2.316,1.878-4.632,2.817-6.948,10.07-7.654,16.45-14.377,27.909-19.624,2.338-1.857,4.675-3.715,7.013-5.572-.211,2.152-.421,4.305-.632,6.457.607.173,1.213.345,1.82.518,1.831-6.095,2.317-11.834,3.005-18.155v16.004c.758.084,1.516.169,2.274.253,2.651-6.423,5.301-12.847,8.508-20.617-3.998.812-5.966,1.212-7.934,1.611,3.866-3.319,7.662-6.669,5.567-12.614.975,1.243,1.95,2.486,3.045,3.882,1.008-2.106,1.752-3.659,2.495-5.211,6.397,8.821-.282,17.083-4.039,25.329-3.946,8.663-6.049,17.282-8.379,26.418Z"/><path class="cls-35" d="m141.457,91.06c-.688,6.321-1.174,12.06-3.005,18.155-.607-.173-1.213-.346-1.82-.518.211-2.152.421-4.305.632-6.457-.468-5.125-.935-10.251-1.403-15.376-.473-1.844-.946-3.688-1.419-5.533-.214-1.632-.428-3.263-.643-4.904,3.083,2.44,5.848,4.629,9.003,7.126-1.608-7.892-2.882-14.145-4.155-20.397.472-1.882.945-3.763,1.417-5.645.97-2.954,1.472-6.193,3.05-8.775,1.365-2.232-1.563-7.36,4.232-6.701.429.87.858,1.739,1.287,2.609,2.565,8.976.343,20.683,1.24,31.055,2.094,5.945-1.701,9.295-5.568,12.614-.949.916-1.898,1.832-2.847,2.748Z"/><path class="cls-59" d="m147.345,42.035c-5.795-.659-2.867,4.468-4.232,6.701-1.579,2.582-2.081,5.821-3.05,8.776-6.329-4.34-12.659-8.681-19.923-13.662-.566-1.081-1.941-3.708-2.841-5.429-5.794,2.908-16.618,4.777-13.609,13.454-.488.964-.976,1.927-1.464,2.89-1.729-4.617-3.459-9.234-5.055-13.496,3.636-1.002,6.404-1.765,10.498-2.893-2.652-2.274-3.995-3.425-5.338-4.576,3.029-6.542,13.495-4.63,18.455-1.183,4.927,3.423,3.951,8.669,8.065,10.971,9.231,3.187,12.065,1.157,11.171-8.133-.15-1.558-.836-3.064-1.274-4.594.852.095,1.703.191,2.555.286,1.008.852,2.017,1.704,3.025,2.556,1.053,1.867,2.106,3.734,3.159,5.6-.047.911-.095,1.822-.142,2.733Z"/><path class="cls-7" d="m142.994,126.116c2.33-9.136,4.433-17.755,8.379-26.418,3.757-8.246,10.436-16.507,4.039-25.33.038-4.694.075-9.388.112-14.082,1.367,8.631,5.709,20.494,4.196,29.149-1.344,7.69-5.569,12.247-5.643,21.192-3.694,5.163-7.389,10.326-11.084,15.489Z"/><path class="cls-50" d="m155.525,60.286c-.037,4.694-.075,9.387-.112,14.082-.744,1.554-1.488,3.107-2.496,5.212-1.095-1.396-2.07-2.639-3.045-3.882-.897-10.372,1.325-22.08-1.24-31.055,2.245,3.836,4.489,7.673,6.734,11.51.054,1.378.106,2.755.159,4.133Z"/><path class="cls-8" d="m15.319,32.447c2.384-2.452,4.768-4.904,7.151-7.355.631,2.159.574,5.347,2.008,6.306,7.862,5.254,2.794,10.827.943,16.371-1.054-4.474-2.107-8.947-3.161-13.42-.827.156-1.654.313-2.481.469v11.579c-.791-2.6-1.582-5.201-2.374-7.802-.6.03-1.199.059-1.799.088v6.287c-.967-2.883-1.934-5.767-2.9-8.65.871-1.291,1.741-2.581,2.612-3.872Z"/><path class="cls-17" d="m12.707,36.318c.967,2.883,1.933,5.767,2.9,8.65,1.604,6.154,5.867,16.011-4.197,16.444,0-2.614,2.128-16.038-4.078-12.121-.378-.484-.756-.968-1.134-1.452-.181-.518-.362-1.036-.543-1.554,2.35-3.322,4.701-6.644,7.051-9.966Z"/><path class="cls-44" d="m105.034,3.133c.929-.013,1.859-.027,2.787-.04,13.763,6.248,25.276,15.18,33.483,28.051-.853-.094-1.705-.19-2.557-.284-7.481-5.529-14.961-11.059-22.441-16.589-.505-.464-1.01-.927-1.515-1.391.702-.83,1.404-1.66,2.266-2.679-4.106-2.414-8.065-4.74-12.024-7.067Z"/><path class="cls-16" d="m52.147,4.695c3.209-.57,6.418-1.139,9.627-1.708,0,0,.06.293.059.291,5.744.858,11.488,1.717,17.233,2.576-6.381,3.857-11.68,4.163-17.533,8.712-5.399,4.196-6.766,6.972-13.756,9.431-.468.46-.935.92-1.403,1.38-3.249-.444-6.497-.887-9.746-1.331,4.647-5.071,9.266-10.16,10.946-17.125,1.524-.742,3.049-1.484,4.573-2.226Z"/><path class="cls-58" d="m47.574,6.921c-1.68,6.965-6.299,12.053-10.946,17.124-2.312.887-4.624,1.774-6.936,2.661-1.983-.981-3.967-1.962-5.95-2.942,5.476-9.101,14.334-13.425,23.833-16.843Z"/><path class="cls-40" d="m23.741,23.764c1.983.981,3.967,1.961,5.949,2.943-.218,3.049-.374,6.052,4.126,5.675-.028,4.386.066,8.778-.147,13.155-.081,1.674-.865,3.313-1.329,4.969-2.306-.913-4.612-1.825-6.918-2.738,1.851-5.544,6.919-11.117-.943-16.371-1.434-.959-1.377-4.146-2.008-6.306.424-.442.847-.885,1.271-1.327Z"/><path class="cls-1" d="m99.525,134.384c5.342-.76,9.588-6.714,15.805-3.33,1.741-3.57,1.571-12.494,3.658-14.519,2.337-2.268,13.818-1.975,17.159-2.729-2.184,3.686-3.869,6.53-5.767,9.733,1.555,1.262,3.008,2.441,5.952,4.83-12.187,0-14.263-1.787-13.066,11.571-7.307,3.295-14.615,6.59-20.507,9.247-11.77-7.226-20.041-1.83-32.593.595-5.704-5.797-18.403-7.602-19.325-16.115,3.13-1.279,6.139-2.507,9.59-3.917,13.443,12.652,15.159,16.777,29.288,4.676,3.295,6.274,6.539.384,9.806-.041Z"/><path class="cls-23" d="m99.525,134.384c-3.267.425-6.511,6.315-9.806.041-1.406-.491-2.812-.983-4.218-1.474,8.337-3.527,9.367-7.212,4.3-15.385-1.439-2.286-2.878-4.572-4.316-6.858-1.341-1.45-2.683-2.9-4.024-4.35-5.177-5.073-10.354-10.147-15.531-15.22-1.88-1.405-3.761-2.811-5.641-4.217-5.075-.586-7.284-3.928-8.198-8.514-.025-.437-.063-.872-.116-1.306,3.513-6.117-2.649-9.374-4.148-14.009-.026-.909-.051-1.817-.077-2.726,2.344-.941,4.687-1.882,7.031-2.823,1.098.62,2.134,1.565,3.308,1.791,2.567.494,5.204.622,7.812.9l.091.132c-5.68,4.178-9.551,9.115-7.023,16.733-1.3-1.746-2.6-3.493-4.197-5.637,0,3.647-.744,16.15,6.85,11.48,3.748,2.279,7.496,4.558,11.244,6.837,9.544,2.623,18.878-1.173,26.735-6.939.877-1.006,1.753-2.013,2.63-3.019,7.714-7.899-2.171-12.159-4.425-18.004,2.439-.651,4.221-1.126,6.002-1.602.419.069.835.152,1.249.248-.196,1.336-.927,2.89-.488,3.969,1.358,3.343-.816,9.513,6.351,8.561-2.573,4.816-5.145,9.632-8.012,14.998,1.267,1.206,3.057,2.91,4.846,4.613v7.031c-2.028-1.511-3.812-2.839-5.596-4.167-9.281-8.133-20.134-4.132-18.011,8.175,2.595,2.852,5.19,5.704,7.815,8.589,3.283-2.351,5.892-4.218,7.746-5.546-.776,8.079-3.455,14.947,2.635,20.749-.939,2.316-1.878,4.632-2.817,6.948Z"/><path class="cls-2" d="m60.289,86.922c1.88,1.405,3.761,2.811,5.642,4.216-1.892,1.303-3.784,2.606-5.676,3.909-1.351.559-2.702,1.119-4.053,1.679-.959.89-1.918,1.78-2.876,2.67-5.117-1.063-9.656-1.273-9.3,6.46,8.239,1.048,6.689,7.907,7.967,13.148-.006,1.855-.011,3.71-.017,5.565-9.689,10.156-20.448-1.822-26.589-9.719-.458-.475-.916-.949-1.374-1.424.354-3.314-1.404-7.679,4.18-8.392-5.658,9.066,8.959,24.412,16.926,15.096,9.081-10.619-9.738-15.067-16.919-15.096.921-1.376,1.842-2.752,2.763-4.128.943-.014,1.885-.027,2.828-.041,3.872,1.216,6.474.256,7.083-4.123.902-.961,1.805-1.923,2.707-2.884,6.709.429,12.667-.95,16.708-6.937Z"/><path class="cls-33" d="m70.167,149.78c12.552-2.424,20.822-7.821,32.593-.595,5.892-2.657,13.199-5.952,20.507-9.247.965.029,1.931.058,2.898.087-12.274,8.035-25.445,14.928-40.201,14.732-11.421-.152-23.839,1.511-34.102-6.324,4.887.876,10.643-1.585,14.511,3.681.071.097,2.478-1.519,3.795-2.335Z"/><path class="cls-36" d="m24.013,113.426c.458.475.916.949,1.374,1.424-.736,1.028-1.25,2.473-2.25,3.006-2.872,1.531-5.941,2.694-8.932,4.001-1.898-2.749-3.795-5.498-5.692-8.248-.223-2.006-.447-4.01-.705-6.323,1.312.71,2.463,1.334,3.615,1.958,4.197,1.394,8.394,2.788,12.591,4.182Z"/><path class="cls-30" d="m51.976,124.569c.006-1.855.011-3.71.017-5.565,4.829,2.428,9.478,5.383,14.546,7.109,3.713,1.264,7.976.915,11.994,1.285.959.924,1.918,1.849,2.877,2.773.015.012-10.295,1.407-12.99,1.011-5.05-.743-11.423-4.928-16.444-6.613Z"/><path class="cls-28" d="m81.41,130.171c-.959-.924-1.918-1.849-2.877-2.773.763-.433,1.649-1.374,2.269-1.223,7.6,1.847,8.856-2.771,9-8.61,5.067,8.173,4.037,11.858-4.301,15.385-1.407-.864-5.686,2.494-4.091-2.78Z"/><path class="cls-21" d="m102.158,95.469c1.784,1.328,3.567,2.657,5.596,4.167,0-2.476,0-4.754.001-7.032.964,2.776,1.927,5.552,2.89,8.329.45,1.406.899,2.812,1.349,4.218,5.22,3.993,14.976,3.312,16.821-1.909,2.831-8.011,7.568-16.495-.065-24.66.501-.024,1.001-.047,1.501-.07,1.397.94,2.794,1.88,4.191,2.82.473,1.844.946,3.688,1.419,5.532-.451,2.432-.725,4.915-1.392,7.287-1.289,4.587-2.8,9.111-4.218,13.662-11.458,5.247-17.839,11.969-27.909,19.624-6.09-5.802-3.411-12.67-2.635-20.749-1.854,1.327-4.462,3.195-7.746,5.546-2.625-2.885-5.22-5.737-7.815-8.589,6.86,1.316,13.78,3.678,20.502-1.579-.752-1.992-1.622-4.294-2.491-6.596Zm-5.121,20.745c3.163,3.249,4.944,5.078,6.725,6.907,10.273-12.929,5.834-18.422-6.725-6.907Z"/><path class="cls-43" d="m141.457,91.06c.949-.916,1.898-1.832,2.847-2.748,1.969-.399,3.937-.799,7.935-1.611-3.206,7.77-5.857,14.193-8.508,20.617-.758-.084-1.516-.169-2.274-.253v-16.004Z"/><path class="cls-5" d="m130.25,107.812c1.419-4.55,2.929-9.075,4.218-13.662.667-2.372.941-4.854,1.392-7.287.467,5.125.935,10.251,1.403,15.376-2.338,1.857-4.676,3.715-7.013,5.572Z"/><path class="cls-25" d="m103.69,51.873c-3.009-8.677,7.815-10.546,13.609-13.453.901,1.721,2.276,4.348,2.841,5.429,7.264,4.981,13.593,9.322,19.923,13.662-.472,1.881-.945,3.763-1.416,5.644-.479.005-.958.01-1.436.014-3.461-4.947-5.953-11.201-11.249-10.736-3.534,4.665-5.846,7.717-8.157,10.768,2.876-11.569-3.483-23.082-14.114-11.329Z"/><path class="cls-5" d="m137.21,63.17c.479-.005.958-.01,1.437-.015,1.273,6.253,2.547,12.505,4.155,20.397-3.155-2.497-5.92-4.685-9.003-7.126.215,1.641.43,3.272.643,4.904-1.397-.939-2.794-1.879-4.191-2.819-1.795-6.417,4.673-2.888,6.959-6.338v-9.004Z"/><path class="cls-46" d="m47.75,60.366c.026.909.051,1.817.076,2.726-.49.02-.98.04-1.469.06-1.792-2.146-3.583-4.292-5.374-6.438,5.636-3.981,10.953-6.38,15.694-11.171-.497-.548-.994-1.095-1.491-1.642-2.438.376-4.877.752-7.315,1.128.015-.466.03-.932.044-1.398.889-.527,1.779-1.053,2.67-1.579,4.656-1.015,9.312-2.029,13.968-3.044l.133.651c-5.038,12.791-7.043,22.501,9.671,12.305,8.401-1.921,15.256,2.345,22.369,5.581,1.214-.305,2.428-.609,3.641-.914-2.521-7.903-7.977-13.97-6.484-22.823.947-.009,1.894-.018,2.841-.027,1.869.006,3.737.012,5.606.019,1.343,1.151,2.686,2.302,5.338,4.576-4.094,1.128-6.862,1.891-10.498,2.893,1.597,4.262,3.326,8.879,5.056,13.496.527,1.817,1.054,3.635,1.58,5.452-1.781.475-3.563.951-6.002,1.602,2.254,5.845,12.139,10.105,4.426,18.005.248-8.556-6.878-19.966-13.906-22.265-6.931-1.935-13.529-1.459-19.621,2.698-.934-.007-1.868-.013-2.802-.02-2.608-.278-5.245-.406-7.812-.9-1.174-.226-2.21-1.172-3.308-1.791.243-3.63-1.231-6.285-5.06-5.235-4.621,1.267-4.033,4.689-1.971,8.057Z"/><path class="cls-10" d="m102.331,33.798c-1.869-.006-3.737-.012-5.606-.019,2.405-2.631,4.81-5.262,7.069-7.733-3.21-1.099-6.558-2.245-9.907-3.391,7.041-.632,15.482,2.292,19.152-6.339-3.112-2.45-5.539-4.359-7.965-6.269,2.374.914,4.749,1.829,7.123,2.743.865.03,1.729.06,2.594.09.505.464,1.01.927,1.515,1.39,0,13.914,1.633,15.524,13.286,11.232.491,5.156.943,9.898,1.395,14.639.739.141,1.479.281,2.218.422,1.031-1.971,2.061-3.941,3.092-5.912,2.317,7.737,1.206,8.706-7.447,8.935-4.114-2.303-3.138-7.548-8.065-10.971-4.96-3.446-15.426-5.359-18.455,1.183Z"/><path class="cls-49" d="m128.85,43.587c8.654-.229,9.764-1.199,7.447-8.935-1.031,1.97-2.061,3.941-3.092,5.912-.739-.141-1.479-.281-2.218-.422-.452-4.742-.904-9.483-1.395-14.639-11.653,4.293-13.285,2.683-13.286-11.232,7.48,5.531,14.96,11.061,22.441,16.59.439,1.529,1.125,3.035,1.275,4.593.894,9.29-1.94,11.32-11.171,8.133Z"/><path class="cls-48" d="m103.807,60.216c-.527-1.817-1.053-3.635-1.58-5.452.488-.963.976-1.927,1.464-2.891,10.631-11.753,16.99-.24,14.113,11.328-.949.472-1.897.944-2.846,1.417-3.301-1.384-6.601-2.769-9.902-4.153-.414-.097-.83-.18-1.249-.249Z"/><path class="cls-45" d="m5.736,107.961C.035,94.329-1.514,80.283,1.528,65.781c1.207,8.27-2.616,17.476,4.712,25.661,1.553-2.931,2.705-5.107,3.858-7.283,6.385,3.245,7.054,9.246,3.2,14.754-2.309,3.3-8.813,3.047-7.562,9.047Z"/><path class="cls-41" d="m5.736,107.961c-1.251-6,5.253-5.747,7.562-9.047,3.854-5.509,3.186-11.51-3.2-14.754l-.114-.12c1.737-.838,3.473-1.677,5.505-2.657-1.847-2.35-2.958-5.039-3.332-8.067,14.649-4.235,7.631,23.968,2.059,27.542-.932,2.796-1.863,5.592-2.795,8.388-1.152-.624-2.303-1.247-3.615-1.958.258,2.313.482,4.317.705,6.323-.926-1.882-1.851-3.765-2.776-5.649Z"/><path class="cls-41" d="m10.098,84.159c-1.153,2.176-2.305,4.352-3.858,7.283-7.329-8.186-3.506-17.392-4.712-25.661,1.556-5.982,3.112-11.963,4.669-17.943.379.485.757.969,1.134,1.452-2.301,12.667-3.646,23.919.081,35.679.857-.31,1.715-.62,2.572-.93l.114.12Z"/><path class="cls-40" d="m9.985,84.039c-.857.31-1.715.62-2.572.93-3.726-11.76-2.382-23.012-.081-35.679,6.207-3.916,4.079,9.508,4.079,12.123,10.064-.433,5.801-10.289,4.197-16.444,0-2.096,0-4.191,0-6.287.6-.03,1.199-.059,1.799-.088.791,2.6,1.582,5.201,2.374,7.801,1.823,2.341,3.646,4.682,5.47,7.022,2.423,4.55,4.923,8.913-.827,13.228-1.042.782-.24,4.015-.29,6.117,1.369,1.467,2.739,2.935,4.108,4.402-.093.39-.189.78-.289,1.168-.451.43-.901.859-1.351,1.29-1.759,2.912-3.519,5.822-5.279,8.732-5.243,6.247,2.137,9.624,3.68,14.337-5.535,1.136-8.008,3.276-10.788-1.834,5.571-3.574,12.59-31.777-2.059-27.542.374,3.028,1.485,5.717,3.332,8.067-2.032.981-3.768,1.819-5.505,2.657Z"/><path class="cls-17" d="m25.25,53.416c-1.823-2.341-3.646-4.682-5.469-7.023,0-3.859,0-7.719,0-11.578.827-.156,1.654-.313,2.481-.469,1.054,4.473,2.107,8.947,3.161,13.42,2.306.913,4.612,1.825,6.919,2.738,2.335.011,4.67.021,7.005.032-.463.456-.925.912-1.388,1.368-4.236.504-8.472,1.008-12.708,1.512Z"/><path class="cls-57" d="m114.791,12.88c-.865-.03-1.729-.06-2.595-.089-2.142-5.316-17.761-7.719-22.591-3.184-2.42,2.271-6.804,4.091-4.201,8.913-6.572,3.972,3.731,6.847,6.515,8.042-1.366,2.188-2.486,3.983-3.606,5.778-3.599,1.185-8.289-5.72-11.075,1.491-.523.896-1.047,1.791-1.57,2.687-3.66,1.047-7.32,2.093-10.98,3.14,0,0-.133-.651-.133-.649,2.797-1.746,5.594-3.494,8.392-5.242,1.264-3.341,2.529-6.682,3.943-10.421-2.867-.551-5.235-1.006-7.404-1.422-3.321-10.22,8.982-13.042,15.879-17.379l-.759-2.569c-7.59.435-15.181.87-22.772,1.305,0,0-.06-.292-.06-.293,12.533-4.882,25.178-2.804,37.828-.621,1.801.311,3.622.513,5.433.766,3.958,2.328,7.917,4.654,12.023,7.068-.862,1.019-1.564,1.849-2.266,2.679Z"/><path class="cls-39" d="m39.345,50.537c-2.335-.01-4.67-.021-7.005-.032.463-1.656,1.247-3.295,1.329-4.969.213-4.377.119-8.769.147-13.155,2.56-1.399,5.127-2.785,7.677-4.202,1.64-.911,3.255-1.867,4.881-2.803.468-.46.935-.92,1.403-1.38,2.048,1.15,7.948-2.842,5.594,4.184-.931.47-1.862.94-2.793,1.41-6.427,3.597-7.218,7.772-2.66,14.039-.015.466-.03.932-.046,1.397-2.842,1.836-5.684,3.673-8.526,5.51Z"/><path class="cls-8" d="m53.371,28.181c2.355-7.026-3.546-3.034-5.594-4.184,6.99-2.46,8.357-5.235,13.756-9.431,5.853-4.548,11.151-4.854,17.533-8.712-5.745-.859-11.489-1.718-17.233-2.576,7.592-.433,15.182-.868,22.773-1.303l.759,2.569c-6.897,4.338-19.2,7.159-15.879,17.379,2.168.417,4.537.872,7.404,1.422-1.415,3.739-2.679,7.08-3.943,10.422-.284-3.041-.567-6.082-.931-9.982-6.46,1.523-12.552,2.96-18.644,4.396Z"/><path class="cls-8" d="m46.374,25.377c-1.626.936-3.241,1.892-4.881,2.803-2.55,1.417-5.117,2.803-7.677,4.202-4.5.377-4.344-2.626-4.126-5.675,2.313-.888,4.625-1.775,6.937-2.662,3.249.444,6.498.888,9.747,1.332Z"/><path class="cls-37" d="m128.749,78.583c7.634,8.164,2.897,16.648.066,24.659-1.845,5.221-11.601,5.902-16.82,1.908,4.745-3.429,12.695-1.468,15.323-9.067-5.645-5.239-9.062-11.086-3.753-19.51-4.11-.64-7.207-1.123-10.304-1.606-.15.647-.3,1.295-.45,1.942,1.638,1.028,3.275,2.056,7.079,4.444-4.865,1.902-7.947,3.107-10.795,4.22.477,4.728,1.013,10.044,1.549,15.36-.963-2.777-1.926-5.553-2.89-8.329-1.791-1.702-3.58-3.406-4.847-4.612,2.867-5.366,5.439-10.182,8.011-14.999.432-.471.866-.942,1.3-1.413,5.496-3.736,10.992-7.473,17.045-11.588,1.602,6.762,2.778,12.478-4.841,16.518,2.034.974,3.18,1.523,4.326,2.072Z"/><path class="cls-3" d="m53.326,99.395c.959-.89,1.918-1.78,2.876-2.671,5.013,14.27,10.511,22.838,22.242,8.407,1.006.409,2.011.818,3.017,1.226,1.341,1.45,2.683,2.9,4.024,4.349-2.041,26.708-31.565,7.392-32.16-11.312Z"/><path class="cls-4" d="m53.326,99.395c.595,18.703,30.119,38.02,32.16,11.312,1.438,2.287,2.876,4.573,4.316,6.859-.144,5.838-1.4,10.457-8.999,8.609-.62-.151-1.506.789-2.269,1.223-4.018-.37-8.281-.021-11.994-1.285-5.068-1.726-9.718-4.681-14.546-7.109-1.278-5.242.271-12.1-7.967-13.148-.356-7.733,4.183-7.523,9.3-6.46Z"/><path class="cls-32" d="m102.158,95.469c.869,2.302,1.739,4.604,2.491,6.596-6.722,5.256-13.642,2.894-20.502,1.579-2.123-12.307,8.73-16.308,18.011-8.175Z"/><path class="cls-54" d="m65.901,60.235c.934.007,1.868.013,2.803.02-2.296,8.728-6.844,16.322.819,22.196,6.678,5.119,23.848,3.065,29.965-1.224.037.538.075,1.075.112,1.613-7.856,5.766-17.19,9.562-26.734,6.938-2.904-4.936-7.229-5.484-9.57-11.169-3.346-8.125,2.08-10.885,2.696-18.242l-.091-.132Z"/><path class="cls-18" d="m26.602,79.62c.451-.429.901-.859,1.354-1.288,1.921-.557,3.849-1.091,5.759-1.678,6.14-1.89,12.292-4.536,18.261.447.053.434.092.869.115,1.307-2.837,5.151-5.674,10.301-8.51,15.451-.902.961-1.805,1.923-2.707,2.883,0,0-.263-.253-.263-.253-.618-7.148,6.501-11.734,9.215-17.745-6.366-1.277-8.996.027-14.981,2.802-3.15.478-5.551.843-7.951,1.207l-.128-.092c-.054-1.014-.109-2.027-.163-3.041Z"/><path class="cls-22" d="m51.976,77.101c-5.969-4.982-12.121-2.336-18.261-.447-1.911.588-3.838,1.121-5.759,1.678.098-.39.194-.779.287-1.17,5.829-1.973,11.658-3.946,17.487-5.918.075-.473.15-.946.225-1.419-2.648-.365-5.296-.73-7.944-1.095-.926-.485-1.853-.969-2.779-1.454,3.709-1.375,7.418-2.75,11.127-4.126.49-.02.979-.04,1.469-.06,1.5,4.635,7.662,7.892,4.149,14.009Z"/><path class="cls-56" d="m65.992,60.367c-.616,7.357-6.042,10.118-2.696,18.242,2.342,5.685,6.666,6.234,9.57,11.169-3.749-2.278-7.497-4.557-11.243-6.838-.884-1.948-1.769-3.895-2.654-5.841-2.528-7.618,1.343-12.555,7.023-16.733Z"/><path class="cls-22" d="m43.581,93.859c2.836-5.15,5.673-10.3,8.51-15.451.915,4.586,3.124,7.928,8.199,8.514-4.042,5.987-10,7.366-16.709,6.937Z"/><path class="cls-19" d="m99.6,82.84c-.038-.538-.075-1.075-.112-1.612.263-1.706,1.332-3.883.655-5.043-3.703-6.347-7.835-12.445-11.819-18.628,7.028,2.299,14.155,13.709,13.906,22.265-.877,1.006-1.754,2.012-2.631,3.018Z"/><path class="cls-52" d="m81.461,106.358c-1.006-.409-2.011-.818-3.016-1.227-3.674-7.665-11.402-8.028-18.19-10.084,1.892-1.303,3.784-2.607,5.676-3.909,5.176,5.074,10.353,10.147,15.53,15.221Z"/><path class="cls-25" d="m112.218,71.581c-.434.471-.868.941-1.3,1.413-7.165.952-4.991-5.217-6.35-8.561-.439-1.079.293-2.633.488-3.969,3.3,1.385,6.601,2.77,9.901,4.154-.913,2.321-1.826,4.642-2.739,6.963Z"/><path class="cls-42" d="m47.75,60.366c-2.062-3.368-2.65-6.79,1.971-8.057,3.829-1.05,5.302,1.605,5.06,5.235-2.344.941-4.687,1.882-7.031,2.823Z"/><path class="cls-9" d="m58.969,77.1c.885,1.946,1.77,3.893,2.654,5.841-7.595,4.672-6.851-7.831-6.851-11.478,1.597,2.144,2.897,3.891,4.197,5.637Z"/><path class="cls-38" d="m28.2,105.034c7.18.029,26,4.478,16.919,15.097-7.967,9.316-22.583-6.03-16.925-15.096,0,0,.007,0,.007,0Z"/><path class="cls-20" d="m60.255,95.047c6.788,2.056,14.516,2.419,18.19,10.084-11.733,14.432-17.231,5.865-22.243-8.406,1.351-.559,2.702-1.119,4.053-1.678Z"/><path class="cls-41" d="m14.217,100.857c2.78,5.11,5.253,2.97,10.788,1.834-1.543-4.713-8.924-8.091-3.681-14.338-.575,7.088,2.481,11.394,9.64,12.553-.921,1.376-1.842,2.752-2.763,4.128,0,0-.007,0-.007,0-5.585.712-3.826,5.077-4.181,8.391-4.197-1.394-8.394-2.788-12.591-4.182.932-2.796,1.863-5.592,2.795-8.388Z"/><path class="cls-22" d="m30.963,100.906c-7.159-1.16-10.215-5.465-9.64-12.553,1.761-2.909,3.521-5.82,5.28-8.731.053,1.012.108,2.026.162,3.039-4.865,8.845,1.449,13.383,7.026,18.205-.943.013-1.885.027-2.828.041Z"/><path class="cls-18" d="m33.791,100.866c-5.577-4.821-11.891-9.359-7.026-18.205,0,0,.128.092.127.091-.279,12.082,4.282,16.649,13.718,13.737,0,0,.263.252.263.253-.608,4.38-3.211,5.34-7.082,4.124Z"/><path class="cls-34" d="m110.644,100.933c-.536-5.316-1.072-10.632-1.549-15.36,2.847-1.113,5.93-2.318,10.795-4.22-3.804-2.388-5.442-3.416-7.079-4.444.15-.647.3-1.294.45-1.942,3.097.483,6.194.965,10.304,1.606-5.309,8.424-1.893,14.272,3.753,19.51-2.628,7.599-10.578,5.638-15.323,9.067-.451-1.405-.9-2.811-1.35-4.217Z"/><path class="cls-26" d="m112.218,71.581c.913-2.321,1.826-4.643,2.739-6.963.948-.472,1.897-.944,2.846-1.416,2.312-3.051,4.624-6.103,8.158-10.768,5.296-.465,7.788,5.788,11.249,10.736,0,3.386,0,6.771,0,9.005-2.285,3.45-8.753-.079-6.959,6.338-.5.023-1,.046-1.501.07-1.147-.548-2.293-1.097-4.328-2.071,7.619-4.04,6.443-9.756,4.841-16.518-6.053,4.115-11.549,7.852-17.045,11.588Z"/><path class="cls-18" d="m97.037,116.214c12.559-11.515,16.998-6.022,6.725,6.907-1.781-1.829-3.562-3.659-6.725-6.907Z"/><path class="cls-11" d="m88.325,57.557c3.984,6.183,8.116,12.281,11.819,18.628.677,1.16-.392,3.336-.655,5.043-6.117,4.289-23.287,6.343-29.965,1.224-7.663-5.874-3.115-13.468-.819-22.196,6.091-4.157,12.69-4.633,19.621-2.698Z"/><path class="cls-13" d="m53.371,28.181c6.092-1.436,12.184-2.873,18.644-4.396.364,3.9.647,6.941.931,9.982-2.798,1.748-5.595,3.496-8.392,5.242-4.656,1.013-9.312,2.027-13.968,3.043-.003-4.153-.005-8.307-.008-12.46.931-.47,1.862-.94,2.793-1.41Z"/><path class="cls-6" d="m64.687,39.658c3.66-1.047,7.32-2.093,10.981-3.14,1.522.13,3.043.259,6.446.548-2.941,5.648-5.348,10.272-7.756,14.897-16.714,10.197-14.709.486-9.671-12.305Z"/><path class="cls-14" d="m74.358,51.963c2.408-4.624,4.815-9.248,7.756-14.897-3.403-.289-4.925-.418-6.446-.548.523-.896,1.047-1.791,1.569-2.687,7.745-.762,6.208,6.609,9.562,11.046,4.739,6.268,8.362,4.837,9.927,12.667-7.112-3.236-13.967-7.503-22.369-5.581Z"/><path class="cls-12" d="m46.358,63.152c-3.709,1.375-7.418,2.75-11.127,4.126.909-5.124,1.817-10.248,2.726-15.373.463-.456.926-.912,1.388-1.368,2.841-1.837,5.683-3.673,8.525-5.51,2.439-.376,4.877-.752,7.316-1.128.497.548.994,1.095,1.491,1.642-4.741,4.792-10.058,7.19-15.694,11.171,1.791,2.146,3.583,4.292,5.374,6.438Z"/><path class="cls-24" d="m96.727,57.544c-1.565-7.83-5.188-6.4-9.927-12.667-3.355-4.437-1.817-11.808-9.562-11.046,2.787-7.211,7.477-.306,11.076-1.49,1.857.489,3.714.978,5.571,1.467-1.493,8.853,3.963,14.92,6.484,22.823-1.214.305-2.428.609-3.641.914Z"/><path class="cls-27" d="m93.884,33.807c-1.857-.489-3.714-.977-5.571-1.466,1.12-1.795,2.24-3.591,3.606-5.779-2.784-1.195-13.088-4.07-6.514-8.043.556.382,1.112.765,1.667,1.148,2.272.996,4.544,1.993,6.816,2.989,3.348,1.146,6.697,2.292,9.907,3.391-2.259,2.471-4.664,5.102-7.069,7.733-.947.009-1.894.018-2.841.027Z"/><path class="cls-8" d="m50.577,29.591c.003,4.154.006,8.308.008,12.46-.89.525-1.781,1.051-2.67,1.578-4.557-6.267-3.766-10.441,2.661-14.038Z"/><path class="cls-51" d="m93.887,22.656c-2.272-.996-4.544-1.993-6.816-2.988.458-7.52,4.583-10.992,11.875-10.075,2.03.255,4.085.309,6.128.455,2.426,1.91,4.853,3.819,7.965,6.269-3.669,8.631-12.111,5.708-19.152,6.339Z"/><path class="cls-53" d="m105.074,10.048c-2.044-.146-4.099-.2-6.128-.455-7.291-.917-11.417,2.555-11.875,10.075-.554-.384-1.109-.767-1.666-1.148-2.604-4.821,1.78-6.641,4.2-8.912,4.83-4.534,20.449-2.132,22.591,3.184-2.373-.915-4.748-1.829-7.122-2.743Z"/><path class="cls-29" d="m37.957,51.905c-.909,5.124-1.818,10.249-2.726,15.373.927.484,1.853.969,2.78,1.453-1.858-.241-3.715-.482-3.803-.493-4.054,1.82-7.063,3.172-10.072,4.523.049-2.102-.752-5.335.29-6.117,5.75-4.315,3.249-8.678.827-13.228,4.235-.503,8.471-1.007,12.706-1.511Z"/><path class="cls-47" d="m24.135,72.761c3.009-1.351,6.018-2.703,10.072-4.523.088.011,1.946.252,3.803.493,2.648.365,5.296.73,7.945,1.095-.075.473-.15.946-.225,1.419-5.829,1.972-11.658,3.945-17.487,5.918-1.369-1.467-2.739-2.934-4.108-4.402Z"/><path class="cls-55" d="m40.61,96.489c-9.436,2.913-13.997-1.654-13.718-13.737,2.401-.364,4.802-.728,7.952-1.207,5.986-2.775,8.615-4.078,14.981-2.802-2.714,6.011-9.834,10.597-9.215,17.745Z"/></svg>