<?xml version="1.0" encoding="UTF-8"?><svg id="Layer_1" xmlns="http://www.w3.org/2000/svg" viewBox="0 0 245.029 312.673"><defs><style>.cls-1{fill:#572a7f;}.cls-2{fill:#522878;}.cls-3{fill:#7a3f98;}.cls-4{fill:#723590;}.cls-5{fill:#642d8c;}.cls-6{fill:#834d9e;}.cls-7{fill:#71489d;}.cls-8{fill:#ae68ab;}.cls-9{fill:#572878;}.cls-10{fill:#9153a1;}.cls-11{fill:#bc79b3;}.cls-12{fill:#8e51a0;}.cls-13{fill:#a560a6;}.cls-14{fill:#ac63a8;}.cls-15{fill:#562979;}.cls-16{fill:#d399c5;}.cls-17{fill:#be80b7;}.cls-18{fill:#7d439a;}.cls-19{fill:#e2b1d2;}.cls-20{fill:#ba76b2;}.cls-21{fill:#834e9f;}.cls-22{fill:#57297a;}.cls-23{fill:#703392;}.cls-24{fill:#53297c;}.cls-25{fill:#aa61a7;}.cls-26{fill:#c37bb4;}.cls-27{fill:#d395c2;}.cls-28{fill:#502878;}.cls-29{fill:#a55ca4;}.cls-30{fill:#9a57a2;}.cls-31{fill:#e3b4d4;}.cls-32{fill:#7a3d97;}.cls-33{fill:#ad67aa;}.cls-34{fill:#c283b8;}.cls-35{fill:#794b9e;}.cls-36{fill:#8f51a0;}.cls-37{fill:#68449b;}.cls-38{fill:#ad62a7;}.cls-39{fill:#562878;}.cls-40{fill:#592a7e;}.cls-41{fill:#7c439a;}.cls-42{fill:#b769aa;}.cls-43{fill:#bd73b0;}.cls-44{fill:#6b2e8e;}.cls-45{fill:#dea9cd;}.cls-46{fill:#bd74b0;}.cls-47{fill:#864b9d;}.cls-48{fill:#bf77b2;}.cls-49{fill:#d091c0;}.cls-50{fill:#b974b0;}.cls-51{fill:#9f58a3;}.cls-52{fill:#5f2b82;}.cls-53{fill:#57297d;}.cls-54{fill:#a960a6;}.cls-55{fill:#703491;}.cls-56{fill:#c688bb;}.cls-57{fill:#72489d;}.cls-58{fill:#692f8f;}.cls-59{fill:#7d469b;}.cls-60{fill:#ca88bb;}.cls-61{fill:#c47fb6;}.cls-62{fill:#894d9e;}.cls-63{fill:#743f98;}.cls-64{fill:#522772;}.cls-65{fill:#a967aa;}.cls-66{fill:#682f8f;}.cls-67{fill:#794098;}.cls-68{fill:#9a54a1;}.cls-69{fill:#78439a;}.cls-70{fill:#ddafd1;}.cls-71{fill:#884f9f;}.cls-72{fill:#ecc5dd;}.cls-73{fill:#9d57a2;}.cls-74{fill:#d18fbf;}.cls-75{fill:#6d4a9e;}.cls-76{fill:#734b9e;}</style></defs><path class="cls-2" d="m107.755,40.768c-.431-.529-.863-1.058-1.293-1.587.426-1.605.851-3.211,1.275-4.816.16-.468.264-.949.309-1.443.441-.083.883-.163,1.325-.242.122,6.461.244,12.921.367,19.382.465,3.199.93,6.398,1.395,9.598-2.151,3.777-4.301,7.553-6.451,11.329-1.163-.464-2.481-1.542-3.465-1.294-7.485,1.887-14.905,4.032-22.345,6.097,5.981-6.57,13.896-5.489,21.04-9.597,11.162-6.42,7.951-14.59,7.843-27.427Z"/><path class="cls-4" d="m43.706,89.056c.011-3.134.023-6.269.035-9.402,1.037-1.634,2.072-3.268,3.107-4.904,4.149-4.805,8.298-9.608,12.447-14.412.917.411,1.835.821,2.752,1.232-1.373,3.807-2.746,7.614-4.119,11.421.293-2.28.586-4.559.879-6.839-.667-.318-1.333-.635-2-.953-3.357,6.901-6.715,13.803-10.072,20.704-.533,1.058-1.067,2.116-1.6,3.174-.477-.004-.953-.011-1.43-.021Z"/><path class="cls-6" d="m143.413,307.77c-.06-.486-.174-.96-.339-1.421.072-.553.144-1.106.215-1.659,0,0,.177-.106.176-.105,1.711-20.558,2.243-26.904-19.729-21.977-13.12,2.942-22.157,17.03-35.18,13.998-10.408-22.199-25.673-35.375-40.408-54.659-16.202-21.202-14.142-41.213-19.172-65.982l.794-.004.794.009c3.417,17.475,5.011,38.172,12.277,54.634,4.618,10.464,29.204,38.24,40.363,39.844,6.992-10.265,14.195.215,21.942,2.607,8.089,2.498,14.776.199,23.115.581,9.766.446,15.203,1.662,18.813,9.339,2.836,6.032-5.078,14.342,2.652,18.46.019.556.037,1.112.056,1.668-2.123,1.556-4.245,3.111-6.368,4.667Z"/><path class="cls-44" d="m43.706,89.056c.477.011.953.018,1.429.021.031,8.065.062,16.13.093,24.195-.51,3.748-1.019,7.496-1.528,11.243-1.164,4.262-2.328,8.523-3.491,12.785-11.395,17.585-14.919,24.621-13.709,46.008.816,14.417.707,31.353,6.106,44.916,10.916,27.422,45.85,39.118,52.802,68.308,0,0-.173.147-.172.146-5.356-6.988-10.714-13.975-16.071-20.962-8.706-7.389-17.242-14.992-26.177-22.093-6.016-4.782-12.596-8.855-18.924-13.246-1.078-1.074-2.156-2.148-3.233-3.222,9.138-9.726.857-22.262-.065-33.616-.968-11.914.441-24.063,1.694-35.922,2.279-21.559,23.075-39.09,20.934-60.895.104-5.889.207-11.777.311-17.666Z"/><path class="cls-44" d="m143.413,307.77c2.123-1.556,4.245-3.111,6.367-4.667,4.28-4.85,8.562-9.699,12.843-14.548,30.235-9.207,59.278-42.161,67.603-72.396-.536,5.884-1.073,11.769-1.609,17.654-10.836,12.887-14.025,31.733-31.062,39.821-.578.274-.772,1.354-1.145,2.058-11.645,3.687-20.683,10.765-27.31,20.976l-.006.008c-9.753,1.234-15.335,5.868-17.493,14.525-.11.49-.215.982-.317,1.474-2.623-1.634-5.247-3.269-7.87-4.903Z"/><path class="cls-44" d="m94.884,307.817c-4.635,3.283-7.369.916-9.517-3.195-.044-2.648-.088-5.295-.132-7.943,0,0,.173-.147.172-.145.513.034,1.027.059,1.541.074.946,3.043,1.891,6.086,3.445,11.083,11.559-15.907,52.35-33.993,53.072-3.106,0,0-.177.106-.177.105-.542-.544-1.085-1.088-1.627-1.632-.875-7.791-4.617-12.613-13.058-11.171-6.962,1.189-13.785,3.185-20.67,4.824-4.35,3.702-8.699,7.404-13.049,11.106Z"/><path class="cls-40" d="m24.065,240.377c6.328,4.39,12.907,8.464,18.924,13.246,8.935,7.101,17.471,14.704,26.178,22.093-1.064,0-2.128,0-3.193-.001-5.203-3.355-10.905-6.144-15.504-10.186-9.123-8.018-17.638-16.728-26.405-25.151Z"/><path class="cls-64" d="m94.884,307.817c4.35-3.702,8.699-7.404,13.048-11.107,6.803-.025,13.646.389,20.4-.203,6.081-.532,10.283,1.524,13.329,6.55.542.544,1.085,1.088,1.627,1.632-.071.553-.143,1.106-.215,1.659-12.096-9.502-25.77-6.841-39.146-4.549-3.263.559-6.042,3.936-9.044,6.017Z"/><path class="cls-22" d="m65.973,275.714c1.065,0,2.129,0,3.193.001,5.357,6.987,10.714,13.974,16.07,20.962.043,2.649.087,5.296.131,7.944-6.465-9.636-12.929-19.272-19.394-28.908Z"/><path class="cls-41" d="m109.372,32.681c1.088-3.179,2.175-6.358,3.264-9.538.518-.021,1.035-.053,1.551-.096,2.1-4.659,4.199-9.319,6.914-15.343,2.442,9.907,4.533,18.393,6.624,26.878.978-.139,1.955-.277,2.933-.416,1.85-5.163,9.98-11.08,13.715-5.914,2.291,3.17-1.097,11.676-1.174,15.4-.141,6.739,1.366,13.275,3.273,19.703,3.154,6.104,29.485,34.293,35.457,22.497,1.077-1.068,2.154-2.136,3.23-3.204.006,1.074.012,2.148.018,3.222-.555,1.062-1.11,2.123-1.665,3.185-5.912,4.82-12.784,5.114-17.004-.713-4.49-6.199-9.883-9.086-16.77-10.533-12.507-5.411-4.615-17.716-9.821-26.708-4.078-7.044-18.706-12.135-25.472-18.014-1.853,7.471-3.28,13.224-4.706,18.977-.122-6.461-.244-12.921-.367-19.382Z"/><path class="cls-36" d="m109.738,52.062c1.427-5.753,2.853-11.506,4.706-18.977,6.766,5.878,21.394,10.97,25.472,18.014,5.206,8.992-2.686,21.296,9.82,26.708,3.116,2.102,7.642,3.52,9.063,6.445,3.257,6.703,8.997,8.957,15.087,11.254-3.217,0-6.435,0-9.652-.001-7.908-9.497-14.865-9.589-23.501-17.344-8.171-7.338-24.723-30.391-24.811-5.174-.563-.022-1.125-.044-1.688-.067-1.033-3.753-2.067-7.507-3.1-11.26-.465-3.199-.93-6.398-1.395-9.597Z"/><path class="cls-66" d="m56.106,79.415c.094,1.6.188,3.2.282,4.8,8.718,18.133,14.615,11.61,20.855-4.813.543-.536,1.087-1.073,1.63-1.61,7.44-2.065,14.86-4.211,22.345-6.097.984-.248,2.302.83,3.465,1.294-1.609,1.094-3.218,2.189-4.828,3.282-5.48,2.715-12.631,2.901-17.308,6.792-5.486,4.564-4.438,12.589-9.525,17.112-13.513,12.014-23.918-11.283-16.915-20.76Z"/><path class="cls-32" d="m99.855,76.272c1.609-1.094,3.218-2.189,4.828-3.283,2.151-3.776,4.301-7.552,6.451-11.329,1.034,3.753,2.067,7.506,3.101,11.26-1.031,1.649-2.064,3.297-3.096,4.945-1.083-.015-2.165-.031-3.248-.046-2.679-.516-5.357-1.032-8.036-1.548Z"/><path class="cls-62" d="m107.891,77.82c1.083.015,2.165.031,3.248.045-1.734,12.495-22.556,13.455-29.636,23.233-10.852,14.989-17.756,23.985-31.474,5.052-1.886,2.799-3.343,4.96-4.8,7.122-.031-8.065-.063-16.13-.094-24.195.534-1.058,1.067-2.116,1.6-3.174,7.715-2.562,7.9,21.17,16.506,25.609,3.301-3.716,8.859-4.746,12.028-8.315,3.215-3.62,3.366-7.387,6.044-10.851,6.626-8.571,16.453-9.776,26.577-14.526Z"/><path class="cls-67" d="m107.891,77.82c-10.124,4.75-19.951,5.955-26.577,14.526-2.678,3.464-2.829,7.23-6.044,10.851-3.169,3.569-8.727,4.6-12.028,8.315-8.606-4.439-8.791-28.17-16.506-25.609,3.358-6.901,6.715-13.802,10.072-20.704.667.318,1.333.635,2,.953-.293,2.28-.586,4.559-.879,6.839-.431,1.096-.863,2.192-1.293,3.288-.175,1.045-.352,2.091-.529,3.136-7.004,9.477,3.401,32.774,16.914,20.76,5.087-4.523,4.039-12.548,9.525-17.112,4.677-3.891,11.828-4.077,17.308-6.792,2.679.517,5.358,1.033,8.037,1.549Z"/><path class="cls-58" d="m146.471,63.354c-1.907-6.428-3.414-12.964-3.274-19.703.078-3.724,3.466-12.23,1.175-15.4-3.734-5.166-11.865.751-13.715,5.914-.978.139-1.955.277-2.933.416-2.091-8.486-4.183-16.971-6.624-26.878-2.715,6.024-4.815,10.684-6.913,15.344,1.62-7.323.944-15.632,9.114-21.592,1.967,4.557,3.744,8.958,5.451,13.643,4.6,9.975,8.205,10.479,14.329,1.983,1.193-1.655,2.434-2.983,3.519-5.173,1.35-2.724,1.456-4.34,2.869-5.067,1.414-.727,3.202-.085,4.487.567.499,1.084,1.022,2.529,1.289,4.281.543,3.56-.258,6.474-.825,8.038-2.137,6.459-4.275,12.919-6.412,19.378-6.808,3.382-1.738,8.422-1.359,12.446,1.275,13.538,12.509,21.308,25.537,18.308,0,0-.002-.013-.002-.013,1.337,3.499,2.674,6.998,4.01,10.497,4.624-1.888,9.243-3.779,13.895-5.597-1.645,2.633-3.289,5.267-4.932,7.901-1.077,1.068-2.154,2.136-3.23,3.204-2.172-.298-4.849.115-6.432-1.01-9.812-6.97-19.377-14.286-29.025-21.487Z"/><path class="cls-15" d="m172.187,69.859c-13.029,3-24.262-4.77-25.537-18.308-.379-4.024-5.45-9.063,1.359-12.446-.002,2.203-.003,4.406-.005,6.61.555,13.236,3.574,16.813,16.21,20.159,2.813.745,5.324,2.627,7.974,3.985Z"/><path class="cls-24" d="m128.752,15.098c-1.707-4.686-3.484-9.086-5.451-13.643-8.17,5.961-7.494,14.27-9.114,21.592-.517.043-1.034.074-1.552.096,1.135-5.096,2.008-22.377,8.793-23.105,7.008-.752,6.643,9.944,7.323,15.06Z"/><path class="cls-39" d="m190.091,74.746c-4.653,1.816-9.271,3.708-13.895,5.596-1.337-3.499-2.673-6.998-4.01-10.497,9.999,7.415,10.181,7.414,16.169-.096,1.893-2.14,3.787-4.28,6.172-6.976,1.981,2.17,3.495,3.828,5.008,5.487.002,1.628.006,3.254.01,4.88-1.066.512-2.133,1.025-3.2,1.538-2.084.023-4.168.046-6.252.069Z"/><path class="cls-5" d="m228.616,233.812c.536-5.884,1.073-11.769,1.609-17.653.955-14.226,15.686-46.832,1.71-57.964-.564-1.06-1.128-2.12-1.692-3.18-3.653-11.611-3.4-24.27-13.324-34.08-5.827-5.759-8.334-14.871-12.334-22.475,1.627,1.638,3.254,3.276,4.879,4.916,10.51,17.1,22.326,30.716,27.34,50.668,5.75,22.882,3.842,44.372-1.827,66.911-2.12,4.286-4.24,8.571-6.36,12.857Z"/><path class="cls-1" d="m234.976,220.955c5.67-22.539,7.577-44.029,1.827-66.911-5.014-19.952-16.829-33.569-27.34-50.668,9.942,9.657,22.389,17.314,24.629,32.922.559,3.899.321,9.878,7.402,9.136.52,2.106,1.039,4.212,1.56,6.318-4.718,14.953,10.855,59.66-6.357,69.25-.574-.016-1.147-.032-1.721-.048Z"/><path class="cls-69" d="m204.585,98.46c4,7.604,6.507,16.716,12.334,22.475,9.925,9.81,9.671,22.469,13.324,34.08-7.492,1.349-7.763-5.418-9.63-9.372-6.291-13.318-11.888-26.963-17.751-40.483-.038-3.22-.077-6.441-.115-9.661.613.987,1.226,1.974,1.838,2.961Z"/><path class="cls-47" d="m202.746,95.499c.038,3.22.077,6.441.115,9.661-3.709-7.857-7.419-15.714-11.298-23.93-2.166,1.573-4.277,3.106-6.387,4.639-.006-1.074-.012-2.148-.019-3.222,1.644-2.634,3.288-5.268,4.933-7.901,2.085-.022,4.169-.045,6.254-.069,1.079,2.673,2.158,5.346,3.237,8.019,1.055,4.268,2.11,8.536,3.165,12.804Z"/><path class="cls-55" d="m199.581,82.696c-1.079-2.673-2.157-5.347-3.237-8.019,1.066-.512,2.133-1.025,3.199-1.537.14,1.555.282,3.109.425,4.663-.128,1.631-.258,3.262-.388,4.893Z"/><path class="cls-10" d="m149.724,301.435c-7.73-4.118.185-12.428-2.652-18.46-3.61-7.678-9.048-8.893-18.813-9.339-8.339-.381-15.026,1.917-23.115-.581-7.747-2.393-14.95-12.872-21.942-2.607-11.158-1.604-35.745-29.38-40.363-39.844-7.265-16.462-8.859-37.158-12.276-54.634,0,0,.042-.036.042-.036,6.694,19.14,10.392,46.069,23.706,61.942,4.897,5.838,17.05,18.593,24.058,21.789,5.774,2.633,10.432,1.568,16.632,3.149,4.823,1.363,9.884,2.188,14.426,4.189,13.433,5.917,26.813,4.352,40.311.671,2.283-.154,4.566-.308,8.785-.593-2.677,7.467-4.952,13.812-7.227,20.158.778.382,1.556.764,2.334,1.146,10.482-11.775,20.963-23.55,31.445-35.324,4.428-4.9,9.496-9.376,13.109-14.816,3.869-5.827,6.368-12.562,9.465-18.9,1.675-4.737,3.35-9.474,5.025-14.211,1-1.712,2-3.425,3.001-5.137,2.085-3.164,5.112-6.073,6.055-9.547,1.848-6.807,2.535-13.928,3.703-20.92.515-.007,1.031-.025,1.545-.055l.09.073c-3.034,28.392-5.97,52.113-24.545,75.343-15.937,19.932-35.791,37.365-52.799,56.544Z"/><path class="cls-59" d="m149.724,301.435c17.009-19.179,36.862-36.612,52.799-56.544,18.574-23.23,21.511-46.951,24.544-75.343,1.572-2.71,3.144-5.42,4.716-8.13.051,27.445-2.06,49.711-15.642,74.291-12.626,22.85-33.785,36.577-53.52,52.845-4.281,4.849-8.562,9.698-12.843,14.548-.018-.555-.037-1.111-.055-1.667Z"/><path class="cls-18" d="m86.949,296.607c-.515-.015-1.029-.04-1.541-.074-6.951-29.191-41.885-40.886-52.801-68.309-5.399-13.564-5.29-30.5-6.106-44.916-1.21-21.386,2.314-28.423,13.709-46.007-1.436,2.762-2.521,5.788-4.372,8.237-6.921,9.159-11.105,18.81-6.861,30.427,5.03,24.77,2.97,44.78,19.172,65.982,14.736,19.283,30.001,32.46,40.408,54.659-.536.002-1.072.003-1.607,0Z"/><path class="cls-3" d="m86.949,296.607c.536.002,1.071.002,1.607,0,13.023,3.032,22.06-11.056,35.18-13.998,21.972-4.927,21.44,1.419,19.729,21.977-.721-30.887-41.512-12.801-53.071,3.105-1.553-4.998-2.499-8.041-3.445-11.083Z"/><path class="cls-10" d="m28.976,175.965c-4.243-11.617-.06-21.268,6.861-30.427,1.851-2.449,2.936-5.476,4.372-8.237,1.163-4.262,2.327-8.523,3.489-12.786,4.35,20.737,2.276,23.755-14.102,34.695,3.828,1.685,7.119,3.134,10.411,4.582-2.548,2.343-5.096,4.685-7.644,7.028-.586-.417-1.172-.833-1.757-1.25v6.365s-.042.036-.042.036-.794-.009-.794-.009l-.794.004Z"/><path class="cls-51" d="m30.605,175.935v-6.365c.586.417,1.172.833,1.757,1.25,2.548-2.343,5.096-4.685,7.644-7.028-3.291-1.449-6.583-2.897-10.411-4.582,16.378-10.94,18.452-13.959,14.102-34.695.511-3.747,1.02-7.495,1.53-11.242,1.458-2.161,2.915-4.323,4.801-7.121,13.717,18.933,20.622,9.937,31.474-5.052,7.08-9.779,27.901-10.739,29.636-23.233,1.033-1.648,2.065-3.296,3.096-4.945.562.022,1.125.044,1.687.066.019.561.038,1.121.057,1.681,2.483,17.387-32.37,34.974-43.121,45.158-16.948,16.055-29.743,27.524-29.268,53.082-.01,2.613-.019,5.227-.028,7.841.368,1.675.735,3.349,1.103,5.024.676,3.16,1.351,6.319,2.026,9.479.514,5.535.551,11.169,1.686,16.574,1,4.764,3.226,9.272,4.911,13.893.968,1.142,1.937,2.284,2.906,3.426,10.138,14.483,22.206,21.456,37.156,30.529.552.504,1.103,1.008,1.655,1.512-.001.543-.002,1.087-.003,1.63-6.2-1.581-10.859-.516-16.632-3.149-7.007-3.196-19.161-15.95-24.058-21.789-13.314-15.873-17.012-42.802-23.706-61.942Z"/><path class="cls-63" d="m162.622,288.554c19.735-16.268,40.895-29.996,53.52-52.845,13.582-24.58,15.692-46.845,15.642-74.29.05-1.075.1-2.149.15-3.224,13.977,11.132-.755,43.739-1.71,57.964-8.325,30.234-37.368,63.189-67.603,72.396Z"/><path class="cls-53" d="m234.976,220.955c.574.016,1.147.032,1.721.048-3.234,9.111-6.467,18.223-9.701,27.334-5.926,10.641-12.855,20.25-24.897,24.795-1.441.544-2.634,1.743-3.943,2.638-.583-.027-1.165-.053-1.747-.079.373-.704.568-1.784,1.145-2.058,17.037-8.088,20.226-26.934,31.062-39.821,2.12-4.286,4.24-8.572,6.36-12.857Z"/><path class="cls-9" d="m196.409,275.691c.582.026,1.164.052,1.747.079-9.182,8.154-17.074,17.57-29.058,20.896,6.628-10.21,15.665-17.288,27.311-20.975Z"/><path class="cls-9" d="m169.092,296.675c-5.832,4.841-11.664,9.682-17.495,14.524,2.16-8.656,7.741-13.29,17.495-14.524Z"/><path class="cls-52" d="m141.661,303.057c-3.046-5.026-7.248-7.083-13.329-6.55-6.754.591-13.596.178-20.4.203,6.885-1.638,13.709-3.634,20.67-4.823,8.442-1.442,12.184,3.379,13.058,11.171Z"/><path class="cls-28" d="m77.243,79.402c-6.239,16.423-12.137,22.946-20.855,4.813,10.254,10.564,10.707,10.483,17.686-3.157,1.056-.552,2.113-1.104,3.169-1.656Z"/><path class="cls-10" d="m231.935,158.194c-.05,1.075-.1,2.15-.15,3.224-1.573,2.709-3.145,5.419-4.717,8.129,0,0-.09-.073-.089-.072,0-2.106,0-4.212,0-4.826-10.782-4.926-8.596-11.903-15.207-20.995-4.844-6.662-13.804-9.337-17.273-16.848-3.531-7.647,2.676-18.958-2.544-25.371-4.761-5.848-20.895-4.733-27.721-5.932,3.217,0,6.435,0,9.652.001,4.827.259,8.845-.685,9.624-6.453.555-1.062,1.11-2.123,1.665-3.185,2.111-1.533,4.221-3.065,6.387-4.638,3.879,8.217,7.589,16.073,11.298,23.93,5.862,13.52,11.459,27.165,17.75,40.483,1.868,3.954,2.138,10.721,9.63,9.372.564,1.06,1.128,2.12,1.692,3.179Z"/><path class="cls-23" d="m146.47,63.354c9.648,7.201,19.213,14.516,29.025,21.487,1.583,1.125,4.26.712,6.432,1.01-5.972,11.796-32.303-16.393-35.457-22.497Z"/><path class="cls-47" d="m183.511,89.053c-.779,5.768-4.798,6.712-9.624,6.453-6.09-2.298-11.829-4.551-15.087-11.254-1.421-2.924-5.947-4.343-9.063-6.445,6.887,1.447,12.28,4.334,16.77,10.533,4.22,5.827,11.093,5.533,17.004.713Z"/><path class="cls-29" d="m164.234,95.505c6.826,1.199,22.96.084,27.721,5.932,5.22,6.412-.987,17.723,2.544,25.371,3.469,7.511,12.429,10.186,17.273,16.848,6.611,9.092,4.425,16.068,15.207,20.995,0,.614,0,2.72,0,4.826-.515.029-1.03.048-1.546.054-5.472-5.826-10.944-11.653-16.413-17.481-9.051-10.785-15.683-23.803-28.639-30.985-1.931-3.065-3.862-6.129-5.793-9.194,8.648-14.55-12.947-9.745-20.564-10.614-9.242-1.053-13.626-.053-17.179-10.574,2.381-9.439-1.025-15.574-9.602-20.432-6.84-3.875-7.917-4.096-9.718,4.331-.516.015-1.031.044-1.545.087-.019-.561-.038-1.121-.057-1.682.088-25.217,16.641-2.164,24.811,5.174,8.636,7.756,15.594,7.848,23.501,17.344Z"/><path class="cls-49" d="m215.675,199.998c-1,1.712-2,3.425-3.001,5.136-.273-1.324-.546-2.647-.919-4.454-3.388,2.847-6.133,5.154-8.878,7.46q-.042-14.592-9.605-12.578-1.757-5.608,5.672-8.005c-1.165-7.999-.318-17.963-7.124-22.866-1.154-1.071-2.306-2.142-3.458-3.213-.525-1.616-1.051-3.233-1.576-4.849-.059-1.592-.117-3.183-.176-4.775.275-6.616-5.502-11.627-9.953-16.465-8.394-9.124-10.096-6.593-21.377-8.385.468-.446.936-.892,1.404-1.339-2.324-3.601-4.649-7.202-6.973-10.803.013-.572.026-1.145.039-1.717,6.748.519,10.457,4.202,10.692,10.806,18.94-1.73,28.011,7.128,28.648,25.823,2.088-2.321,3.446-3.831,5.835-6.487.654,3.151,1.049,5.057,1.445,6.963-1.991.935-3.983,1.871-5.974,2.806,1.377,2.925,2.754,5.85,4.131,8.775,1.194-.676,2.388-1.352,3.582-2.028,2.115,1.099,4.231,2.198,6.346,3.296-5.827,9.145-1.056,24.831,4.892,7.981,1.073,1.945,2.146,3.889,3.219,5.834.819-.566,1.638-1.133,2.458-1.699.223-1.881.447-3.762.67-5.644.388,7.05-3.307,8.313-3.379,13.703-.072,5.403,2.22,11.473,3.362,16.723Zm-4.165-4.057c.682-.746,1.364-1.493,2.046-2.239-3.283-3.373-6.566-6.746-9.848-10.119-.677.53-1.353,1.06-2.03,1.591-.279,2.216-.558,4.431-.851,6.762,3.872,1.452,7.278,2.729,10.684,4.006Z"/><path class="cls-31" d="m202.876,208.141c2.745-2.307,5.491-4.614,8.878-7.461.373,1.807.646,3.13.919,4.454-1.674,4.738-3.349,9.475-5.024,14.212-2.607,2.923-7.187,5.694-7.426,8.798-.565,7.349-4.197,9.056-10.367,8.773-3.741,3.79-7.483,7.579-11.224,11.369-.442,4.937-2.69,6.954-8.042,6.521-5.433-.44-10.993.403-11.281,7.942-1.58.497-3.16.994-4.74,1.492-2.516-1.693-5.033-3.388-8.124-5.469,4.645-2.275,8.005-3.921,11.366-5.567,14.439-10.84,39.59-27.516,45.065-45.065Z"/><path class="cls-13" d="m154.569,264.24c1.58-.497,3.16-.994,4.741-1.49,8.932-3.866,16.211-7.35,25.765-9.687-10.482,11.775-20.963,23.55-31.445,35.324-.778-.382-1.556-.764-2.334-1.146,2.275-6.346,4.55-12.691,7.227-20.158-4.219.285-6.502.439-8.785.592-.007-.558-.014-1.116-.02-1.673,1.617-.587,3.234-1.175,4.851-1.762Z"/><path class="cls-20" d="m215.675,199.998c-1.141-5.25-3.433-11.321-3.362-16.723.072-5.391,3.767-6.654,3.38-13.704-2.225-5.84-4.45-11.679-6.675-17.519,5.472,5.826,10.943,11.653,16.415,17.479-1.167,6.991-1.854,14.113-3.703,20.92-.943,3.474-3.97,6.383-6.055,9.547Z"/><path class="cls-34" d="m185.074,253.062c-9.554,2.337-16.833,5.821-25.765,9.687.288-7.539,5.847-8.382,11.28-7.942,5.353.433,7.6-1.584,8.043-6.521,5.193,4.066,6.971-1.547,9.235-3.839,1.583-1.603,1.389-4.958,1.989-7.53,6.169.284,9.801-1.423,10.367-8.773.239-3.104,4.819-5.875,7.426-8.798-3.097,6.338-5.596,13.074-9.466,18.9-3.613,5.44-8.682,9.916-13.109,14.816Z"/><path class="cls-65" d="m149.717,266.001c.007.558.014,1.116.021,1.674-13.498,3.681-26.878,5.246-40.311-.671-4.542-2.001-9.603-2.826-14.426-4.189.001-.543.002-1.087.003-1.63,2.098.259,4.277.239,6.28.822,15.883,4.627,31.869,7.729,48.433,3.994Z"/><path class="cls-42" d="m136.844,90.683c3.553,10.521,7.937,9.521,17.179,10.574,7.617.868,29.212-3.937,20.564,10.614,1.931,3.065,3.862,6.129,5.792,9.195-8.049-6.268-15.698-11.771-26.705-14.09-11.488-2.421-22.626-5.29-34.424-4.884-8.102,2.593-16.204,5.187-24.306,7.78-2.14,1.099-4.279,2.199-6.418,3.299-4.805,3.779-9.611,7.558-14.416,11.337-6.049,5.527-13.768,9.768-14.779,19.172-3.405,7.013-6.692,14.087-10.272,21.01-1.502,2.905-3.626,5.489-5.468,8.219-.475-25.558,12.32-37.027,29.268-53.083,10.75-10.184,45.603-27.771,43.121-45.158.515-.043,1.03-.072,1.546-.086,2.433.018,5.011-.484,7.272.147,7.943,2.214,10.351,8.877,12.047,15.954Z"/><path class="cls-70" d="m56.192,229.145c-.968-1.142-1.937-2.284-2.906-3.426-.349-2.252-.696-4.505-1.043-6.757.847.199,1.694.398,2.541.597.514-1.665,1.028-3.329,1.542-4.994.191-2.46.381-4.92.72-9.292,8.81,8.191,14.913,17.098,21.767,27.031.534,1.089,1.068,2.178,1.601,3.267.603.986,1.205,1.973,1.808,2.959,5.866,4.883,11.731,9.767,17.597,14.65.496,5.155-3.086,4.89-6.484,4.87-6.23-3.903-12.46-7.807-19.526-12.235,2.416-1.995,3.637-3.003,3.209-2.649-4.061-5.061-7.89-9.832-11.718-14.602-.358.259-.717.518-1.075.777,1.208,2.859,2.416,5.717,4.245,10.044-4.984-4.157-8.63-7.199-12.277-10.24Z"/><path class="cls-16" d="m93.335,258.051c3.397.019,6.979.285,6.484-4.87,3.94,5.494,8.976,6.812,16.203,4.832-2.487-2.652-4.45-5.658-5.888-9.017,4.224.061,8.27.941,12.138,2.641.58.499,1.16.997,1.739,1.496,2.866,1.075,5.796,3.197,8.587,3.029,8.433-.508,16.812-1.905,25.213-2.956-3.36,1.646-6.721,3.292-11.366,5.567,3.091,2.081,5.607,3.775,8.124,5.469-1.617.586-3.234,1.174-4.852,1.761-16.565,3.735-32.551.633-48.433-3.994-2.003-.584-4.182-.563-6.28-.822-.552-.504-1.103-1.008-1.655-1.513-.005-.541-.01-1.081-.015-1.622Z"/><path class="cls-45" d="m59.33,143.68c1.011-9.404,8.73-13.645,14.779-19.173,2.475.772,4.95,1.544,9.111,2.842-4.76,5.376-12.006,8-15.009,13.78-3.087,5.941.424,18.621.969,25.102-.892,2.946-1.785,5.892-2.196,7.251-10.951,4.781-9.484,6-8.481,18.059q-7.199,2.293-13.838-5.768c-.368-1.675-.735-3.349-1.103-5.024,3.075,3.103,6.151,6.207,9.38,9.465,2.947-3.619,5.951-20.227,7.344-25.886,1.041-4.228.362-10.102,1.321-14.629,2-9.437,4.003-1.226,4.003-11.477-2.937,2.553-4.608,4.005-6.279,5.457Z"/><path class="cls-72" d="m59.33,143.68c1.671-1.452,3.342-2.904,6.279-5.457,0,10.251-2.004,2.04-4.003,11.477-.959,4.527-.28,10.401-1.321,14.629-1.393,5.659-4.397,22.267-7.344,25.886-3.229-3.258-6.305-6.362-9.38-9.465.01-2.614.019-5.228.028-7.841,1.842-2.729,3.966-5.313,5.468-8.218,3.58-6.923,6.867-13.997,10.272-21.01Z"/><path class="cls-27" d="m44.664,185.773q6.639,8.061,13.838,5.768c-1.003-12.059-2.47-13.278,8.481-18.059.412-1.359,1.304-4.305,2.197-7.25.021.566.041,1.131.061,1.696.489,4.334.977,8.667,1.467,13-.656,1.077-1.313,2.157-1.969,3.236-1.732-1.472-3.464-2.943-5.196-4.415-.781.365-1.562.73-2.343,1.096,1.22,4.78,3.381,9.068,6.483,12.865-.57,1.044-1.14,2.088-1.71,3.132h-7.742c3.209,12.882,13.805,24.006,20.581,35.464-6.853-9.934-12.956-18.84-21.766-27.032-.339,4.372-.529,6.832-.72,9.292-.529-2.475-1.73-5.027-1.458-7.412.75-6.578-1.576-10.588-8.178-11.901-.675-3.16-1.351-6.319-2.027-9.479Z"/><path class="cls-56" d="m93.335,258.051c.005.54.01,1.081.015,1.622-14.95-9.072-27.018-16.046-37.156-30.529,3.645,3.042,7.291,6.083,12.276,10.241-1.829-4.326-3.037-7.185-4.245-10.044.358-.259.717-.518,1.075-.777,3.828,4.771,7.657,9.542,11.718,14.602.428-.353-.793.654-3.209,2.649,7.067,4.428,13.296,8.331,19.526,12.235Z"/><path class="cls-11" d="m46.691,195.252c6.601,1.313,8.928,5.323,8.178,11.901-.272,2.384.929,4.936,1.458,7.412-.514,1.665-1.028,3.329-1.542,4.994-.847-.199-1.694-.398-2.541-.597.347,2.253.695,4.505,1.043,6.757-1.684-4.621-3.909-9.129-4.91-13.893-1.135-5.405-1.172-11.039-1.686-16.574Z"/><path class="cls-19" d="m119.25,102.092c11.798-.406,22.936,2.463,34.424,4.884,11.008,2.319,18.657,7.823,26.705,14.09,12.956,7.18,19.589,20.198,28.64,30.984,2.223,5.841,4.449,11.681,6.673,17.52-.224,1.882-.447,3.763-.671,5.644-.819.566-1.638,1.133-2.458,1.699-1.073-1.945-2.146-3.889-3.219-5.833-1.631-2.66-3.261-5.321-4.891-7.982-2.115-1.099-4.231-2.198-6.347-3.296-.58-3.184-1.159-6.369-1.739-9.554-.395-1.906-.791-3.812-1.445-6.963-2.389,2.656-3.747,4.165-5.835,6.487-.637-18.695-9.708-27.552-28.648-25.823-.235-6.604-3.943-10.287-10.692-10.805-8.258-5.287-21.256-5.133-30.206-2.03-12.16,4.215-19.58,6.227-33.236,6.227.794-1.493,1.507-2.832,2.219-4.171,2.139-1.099,4.279-2.199,6.419-3.297,10.465,4.776,17.291-1.798,24.306-7.781Z"/><path class="cls-54" d="m136.844,90.683c-1.697-7.077-4.104-13.74-12.047-15.954-2.262-.631-4.839-.129-7.272-.147,1.801-8.427,2.878-8.206,9.718-4.331,8.577,4.859,11.983,10.993,9.602,20.432Z"/><path class="cls-46" d="m186.786,156.629c.525,1.616,1.051,3.233,1.576,4.849-3.086-1.223-6.342-2.141-9.216-3.742-4.043-2.253-7.803-5.013-11.684-7.556-2.046-1.005-4.092-2.01-6.539-3.212,4.596-9.902-4.959-11.312-11.228-16.039,6.763-25.985-39.571-13.238-32.185,1.564-11.462.261-13.577,2.09-11.138,9.626-7.493,5.537-3.854-8.699-3.324-11.521-8.485.358-16.258.623-20.908,8.402-.013-.557-.025-1.114-.038-1.672,3.696-8.777,21.891-19.604,29.729-14.476,8.678-9.978,24.933-13.296,37.878-7.992,2.324,3.601,4.649,7.202,6.973,10.803-.468.446-.936.892-1.404,1.339,11.282,1.792,12.984-.738,21.377,8.385,4.451,4.838,10.228,9.849,9.955,16.465-27.617-24.084-15.745,5.051.174,4.775Z"/><path class="cls-61" d="m157.811,253.205c-8.4,1.05-16.78,2.448-25.213,2.956-2.791.168-5.721-1.954-8.588-3.028,22.669.056,33.044-3.801,50.051-19.413,17.569-16.128,18.291-27.4,13.533-49.589,1.962-1.759,3.759-3.37,5.555-4.981,2.774-5.244,2.553-10.112-1.819-14.459h.49c6.804,4.904,5.956,14.868,7.122,22.867q-7.43,2.397-5.672,8.005,9.563-2.014,9.605,12.578c-5.475,17.549-30.626,34.225-45.065,45.065Z"/><path class="cls-74" d="m149.71,114.862c-12.945-5.304-29.2-1.986-37.878,7.992-7.838-5.128-26.032,5.699-29.729,14.476-1.066,1.76-2.132,3.519-3.187,5.261-14.313-4.452-9.687,16.981-9.674,25.337-.02-.565-.04-1.13-.061-1.696-.546-6.483-4.056-19.163-.97-25.103,3.003-5.779,10.249-8.403,15.009-13.78-4.161-1.298-6.636-2.07-9.111-2.842,4.806-3.778,9.611-7.557,14.417-11.336-.713,1.339-1.425,2.678-2.219,4.171,13.656,0,21.076-2.012,33.236-6.227,8.95-3.102,21.949-3.256,30.206,2.03-.013.572-.026,1.144-.039,1.717Z"/><path class="cls-14" d="m186.786,156.629c-15.919.276-27.791-28.859-.174-4.775.057,1.592.116,3.183.174,4.775Z"/><path class="cls-26" d="m204.454,163.098c1.63,2.661,3.261,5.322,4.891,7.982-5.948,16.849-10.718,1.163-4.891-7.982Z"/><path class="cls-14" d="m167.462,150.179c3.881,2.543,7.641,5.303,11.684,7.556,2.874,1.602,6.131,2.519,9.216,3.742,1.152,1.071,2.303,2.142,3.458,3.213.002,0-.488,0-.485,0-3.679.011-7.361.022-11.043.032-2.679-2.151-5.359-4.301-8.038-6.452-1.597-2.697-3.195-5.394-4.792-8.091Z"/><path class="cls-31" d="m211.509,195.941c-3.406-1.277-6.812-2.554-10.684-4.006.293-2.33.572-4.546.851-6.762.677-.53,1.353-1.06,2.03-1.591,3.283,3.373,6.566,6.746,9.848,10.119-.682.746-1.364,1.493-2.046,2.239Z"/><path class="cls-43" d="m196.368,150.249c.579,3.185,1.158,6.37,1.739,9.554-1.193.675-2.387,1.351-3.582,2.027-1.377-2.925-2.754-5.85-4.131-8.775,1.991-.935,3.983-1.871,5.974-2.806Z"/><path class="cls-33" d="m189.856,236.917c-.6,2.572-.406,5.927-1.989,7.53-2.264,2.293-4.042,7.905-9.235,3.839,3.741-3.79,7.482-7.58,11.223-11.37Z"/><path class="cls-60" d="m119.25,102.092c-7.015,5.983-13.841,12.557-24.306,7.781,8.102-2.594,16.204-5.188,24.306-7.781Z"/><path class="cls-30" d="m167.462,150.179c1.597,2.697,3.195,5.394,4.792,8.091-10.658.403-7.429,8.481-8.001,14.458.267,2.592.535,5.184.778,7.551,4.244-1.098,7.355-1.902,10.467-2.707,5.72,14.843,16.856,31.831-4.845,41.807,11.586-15.475,17.246-35.352-9.68-32.185.647-7.091,1.293-14.182,1.94-21.273-.762-.293-1.524-.587-2.286-.88-6.349,8.26-5.405,13.977-5.405,24.54.612-.121,2.372-.467,4.131-.814.012.553.024,1.105.036,1.658-.633,2.818-1.962,5.704-1.698,8.436.254,2.632,2.155,5.106,3.333,7.649,2.677,4.289,5.354,8.579,8.031,12.868-.536,1.075-1.072,2.15-1.609,3.225-12.938-9.321-13.216-3.838-15.204,10.14,8.362-2.407,12.128-2.099,15.204-10.139.54,1.08,1.081,2.161,1.621,3.241-2.625,9.824-12.089,9.336-19.382,13.293-10.065,5.46-14.95,10.904-27.435,10.919-1.059-.56-2.119-1.12-3.178-1.681,6.77-2.729,18.816-5.248,23.458-10.827,3.929-4.721,5.341-17.031,7.211-22.966,2.567-1.217,5.135-2.434,7.621-3.613-3.214-9.958-5.299-11.007-20.431-10.802-5.418,1.019-12.009,4.453-15.992,2.521-6.844-3.321-12.031-2.231-17.899.607-1.589,1.082-3.179,2.165-4.768,3.247-5.49,2.92-1.586,12.371-9.483,13.617,1.543,8.367,6.232,8.211,10.805,2.74,4.714,7.148,9.709,14.722,14.704,22.296-12.939-7.914-16.477-8.924-32.076-6.667-.603-.986-1.205-1.973-1.807-2.959,3.79-8.704,1.409-17.251-4.175-23.339-4.396-4.793-8.879-8.854-10.267-15.391.57-1.044,1.14-2.088,1.709-3.133,1.042-1.111,2.085-2.221,3.127-3.331,1.134,9.222,16.228,29.245,21.037,9.784,5.154-.488,10.309-.974,15.355-1.451-3.12-5.565-5.239-9.345-7.358-13.124.605-12.766,7.374-32.799-11.287-30.545,2.859-1.747,5.589-3.775,8.613-5.16,2.87-1.314,6.048-1.956,9.091-2.893-5.065,6.013-3.793,12.373,3.218,16.091l.002.002c1.611,1.61,3.223,3.22,4.834,4.829-1.097,1.595-2.194,3.19-3.291,4.786-5.861,7.326-.863,22.162,9.818,23.868,8.704,1.391,18.14-1.796,27.252-2.953,0,0-.008.002-.008.002,1.626-6.173,3.797-12.278,4.575-18.556.266-2.143-2.97-4.719-4.606-7.098-2.12-1.635-4.24-3.27-6.36-4.905-5.415-.965-10.844-1.857-16.234-2.942-1.597-.321-3.086-1.186-4.624-1.801,11.529-4.352,22.344-5.33,30.46,6.44,4.448,7.546,10.604-18.292,1.621-25.358-10.156-7.989-37.402-5.344-45.098,2.803-.482-.015-.964-.041-1.445-.079-2.441-7.536-.325-9.365,11.137-9.626,5.392-1.809,5.869-10.154,14.595-11.959,7.89-1.633,14.3-1.393,10.864,8.367,2.249.678,4.488,1.353,6.726,2.027,6.268,4.727,15.824,6.137,11.228,16.039,2.447,1.202,4.493,2.207,6.539,3.212Z"/><path class="cls-17" d="m82.222,238.53c15.599-2.257,19.136-1.246,32.076,6.667,1.591,1.06,3.183,2.12,4.774,3.18,1.059.56,2.119,1.12,3.179,1.679.052.525.059,1.052.021,1.58-3.867-1.699-7.913-2.58-12.138-2.641,1.438,3.359,3.401,6.364,5.888,9.017-7.227,1.981-12.263.663-16.203-4.832-5.866-4.883-11.731-9.767-17.597-14.65Z"/><path class="cls-50" d="m65.972,196.841c1.388,6.537,5.871,10.597,10.267,15.391,5.584,6.088,7.965,14.634,4.175,23.339-.534-1.088-1.068-2.177-1.602-3.266-6.777-11.457-17.373-22.582-20.582-35.464h7.742Z"/><path class="cls-38" d="m122.271,251.636c.038-.528.031-1.054-.021-1.58,12.484-.014,17.369-5.458,27.434-10.918,7.293-3.956,16.757-3.468,19.382-13.293,16.837-15.59,19.588-21.974,12.375-44.256,3.99-.832,7.849-1.636,11.709-2.441-1.797,1.611-3.594,3.222-5.555,4.981,4.758,22.189,4.036,33.461-13.533,49.589-17.007,15.612-27.382,19.469-50.051,19.413-.579-.499-1.159-.998-1.739-1.496Z"/><path class="cls-48" d="m69.241,167.928c-.013-8.356-4.639-29.789,9.674-25.337,1.055-1.741,2.121-3.501,3.187-5.261.013.557.025,1.114.037,1.671-.292,4.595-.584,9.19-.896,14.118-.824.403-2.386,1.168-3.948,1.932-7.411,7.217-5.739,16.67-6.306,25.571,0,0-.284.306-.284.306-.489-4.334-.977-8.667-1.466-13.001Z"/><path class="cls-48" d="m70.809,190.377c-1.043,1.11-2.085,2.22-3.127,3.331-3.101-3.797-5.262-8.085-6.482-12.865.781-.365,1.562-.73,2.343-1.096,1.732,1.472,3.464,2.943,5.196,4.415.657-1.079,1.314-2.158,1.969-3.236-.001.002.282-.305.281-.303,3.312-.802,6.626-1.607,10.472-2.54-1.082,1.683-1.889,2.938-2.696,4.193-2.652,2.7-5.303,5.4-7.955,8.1Z"/><path class="cls-25" d="m77.296,155.051c1.562-.765,3.124-1.529,3.947-1.933.313-4.928.604-9.523.896-14.118,4.65-7.778,12.423-8.043,20.908-8.402-.53,2.821-4.169,17.057,3.324,11.521.482.038.964.064,1.447.078-.52,1.597-1.04,3.194-1.56,4.791-3.043.937-6.221,1.579-9.091,2.893-3.025,1.385-5.755,3.413-8.613,5.16,0,0,0,.002,0,.002-3.753.002-7.506.004-11.259.006Z"/><path class="cls-25" d="m149.695,130.929c-2.239-.675-4.477-1.35-6.726-2.027,3.437-9.76-2.973-10-10.864-8.367-8.726,1.806-9.203,10.151-14.595,11.959-7.387-14.803,38.947-27.55,32.185-1.565Z"/><path class="cls-73" d="m193.15,179.149c-3.86.804-7.719,1.609-11.709,2.441,7.213,22.282,4.462,28.666-12.375,44.256-.54-1.08-1.081-2.161-1.621-3.241h0c.536-1.076,1.073-2.151,1.609-3.226,0,0,.799,0,.799,0h.799c21.701-9.977,10.565-26.964,4.845-41.808,3.418.493,6.836.987,11.791,1.702-1.698-3.702-2.719-5.929-3.741-8.156-1.085-2.132-2.171-4.264-3.256-6.396,3.682-.011,7.364-.022,11.043-.032,4.369,4.347,4.59,9.215,1.816,14.459Z"/><path class="cls-71" d="m180.292,164.723c1.085,2.132,2.171,4.264,3.256,6.396-1.983,5.806-12.81,6.709-19.296,1.609.572-5.977-2.657-14.054,8.001-14.458,2.679,2.151,5.359,4.302,8.038,6.452Z"/><path class="cls-37" d="m141.694,163.056c2.12,1.635,4.24,3.27,6.361,4.905.01,8.551.02,17.102.03,25.654,0,0,.008-.002.009-.002-5.467.015-10.937.124-16.402.025-11.983-.216-20.475-8.872-20.668-20.941,1.097-1.595,2.194-3.19,3.291-4.786,8.536-4.946,17.847-5.522,27.38-4.855Z"/><path class="cls-75" d="m98.272,206.544c1.589-1.082,3.179-2.165,4.768-3.247,10.825-1.472,40.014,11.479,35.036,26.372-5.398,16.15-33.769,7.935-32.764-8.985-8.867-1.246-8.603-7.384-7.041-14.14Z"/><path class="cls-12" d="m98.272,206.544c-1.562,6.756-1.826,12.894,7.041,14.14-1.005,16.919,27.366,25.134,32.764,8.985,4.978-14.893-24.211-27.843-35.036-26.372,5.868-2.838,11.055-3.928,17.899-.607,3.983,1.933,10.574-1.502,15.991-2.522-5.027,5.244-3.338,9.897.952,14.681,4.243,4.731,7.974,2.603,11.859-.265-1.869,5.934-3.282,18.244-7.211,22.966-4.643,5.579-16.688,8.098-23.458,10.827-1.592-1.06-3.184-2.12-4.775-3.18-4.995-7.573-9.99-15.147-14.704-22.295-4.572,5.471-9.261,5.627-10.805-2.74,7.897-1.246,3.994-10.697,9.483-13.617Z"/><path class="cls-7" d="m151.295,164.753c-8.115-11.77-18.93-10.793-30.461-6.441-3.786,1.589-7.571,3.179-11.355,4.769,0,0-.002-.002-.002-.002,2.049-19.603,1.107-29.538,21.989-18.612,14.331-6.676,34.391,6.8,19.829,20.285Z"/><path class="cls-21" d="m70.809,190.377c2.652-2.7,5.303-5.4,7.956-8.099,5.258-1.19,10.514-2.381,15.771-3.572.012-.844.024-1.688.037-2.532-3.479-1.056-6.959-2.112-12.681-3.85,2.335-6.055,4.5-11.667,6.664-17.28,0,0,0-.002,0-.002,18.661-2.254,11.893,17.779,11.287,30.545l-.083.058c-8.813-1.343-19.382-5.265-22.714,5.688-3.744,12.308,6.06,10.403,14.715,8.739l.086.089c-4.809,19.459-19.903-.563-21.037-9.785Z"/><path class="cls-21" d="m151.295,164.753c14.563-13.485-5.498-26.962-19.829-20.285-20.882-10.926-19.94-.991-21.989,18.612-7.011-3.718-8.283-10.078-3.218-16.091.52-1.597,1.04-3.194,1.56-4.791,7.696-8.147,34.941-10.791,45.098-2.803,8.983,7.066,2.827,32.904-1.621,25.358Z"/><path class="cls-35" d="m161.023,206.51c-1.178-2.543-3.078-5.017-3.333-7.649-.264-2.732,1.066-5.617,1.698-8.436,29.082-9.951,16.078,28.558,1.634,16.085Z"/><path class="cls-76" d="m149.741,214.584c-3.885,2.868-7.615,4.996-11.859.265-4.29-4.784-5.98-9.436-.952-14.681,15.133-.204,17.218.845,20.432,10.803-2.487,1.179-5.054,2.396-7.621,3.613Z"/><path class="cls-36" d="m161.023,206.51c14.443,12.473,27.448-26.036-1.634-16.085-.012-.553-.024-1.105-.035-1.657.54-.524,1.08-1.049,1.619-1.573,26.926-3.167,21.265,16.709,9.68,32.185,0,0-.8,0-.8,0,0,0-.799,0-.799,0-2.677-4.29-5.354-8.579-8.031-12.868Z"/><path class="cls-36" d="m167.445,222.605c-3.076,8.04-6.842,7.731-15.204,10.139,1.988-13.978,2.266-19.461,15.204-10.14,0,0,0,0,0,0Z"/><path class="cls-21" d="m111.023,172.697c.193,12.069,8.684,20.725,20.668,20.941,5.466.099,10.935-.01,16.402-.025-9.112,1.157-18.548,4.343-27.252,2.952-10.681-1.707-15.678-16.542-9.818-23.868Z"/><path class="cls-8" d="m160.973,187.195c-.54.525-1.079,1.049-1.619,1.573-1.76.346-3.52.693-4.132.814,0-10.563-.944-16.28,5.405-24.54.762.293,1.524.587,2.286.88-.647,7.091-1.293,14.182-1.94,21.273Z"/><path class="cls-21" d="m109.48,163.082c3.785-1.59,7.57-3.18,11.355-4.769,1.539.616,3.027,1.48,4.625,1.802,5.39,1.085,10.82,1.977,16.234,2.942-9.533-.667-18.844-.091-27.38,4.855-1.611-1.61-3.223-3.22-4.834-4.829Z"/><path class="cls-21" d="m148.084,193.614c-.01-8.551-.019-17.103-.03-25.654,1.635,2.379,4.87,4.955,4.605,7.098-.778,6.278-2.949,12.383-4.575,18.556Z"/><path class="cls-21" d="m99.842,185.587c2.119,3.779,4.238,7.559,7.358,13.124-5.045.476-10.201.963-15.355,1.451,0,0-.085-.088-.085-.088,4.752-3.655,9.674-7.215,7.999-14.428l.083-.058Z"/><path class="cls-36" d="m164.253,172.728c6.486,5.1,17.313,4.197,19.296-1.609,1.021,2.227,2.043,4.454,3.741,8.156-4.955-.716-8.373-1.209-11.791-1.702-3.111.805-6.223,1.609-10.467,2.707-.244-2.366-.511-4.958-.778-7.551Z"/><path class="cls-68" d="m88.555,155.045c-2.165,5.612-4.329,11.225-6.664,17.28,5.722,1.737,9.202,2.793,12.681,3.85-.012.844-.024,1.688-.037,2.532-5.256,1.191-10.513,2.382-15.771,3.572.806-1.256,1.613-2.511,2.695-4.194-3.845.933-7.159,1.737-10.472,2.54.569-8.904-1.103-18.357,6.307-25.573,3.753-.002,7.506-.004,11.259-.006Z"/><path class="cls-57" d="m99.759,185.646c1.675,7.213-3.247,10.773-7.999,14.428-8.654,1.663-18.459,3.569-14.715-8.739,3.332-10.953,13.901-7.031,22.714-5.688Z"/></svg>