<?xml version="1.0" encoding="UTF-8"?><svg id="Layer_1" xmlns="http://www.w3.org/2000/svg" viewBox="0 0 212.756 225.013"><defs><style>.cls-1{fill:#aaaecd;}.cls-2{fill:#656470;}.cls-3{fill:#badecc;}.cls-4{fill:#a8a4b9;}.cls-5{fill:#a4bec6;}.cls-6{fill:#838293;}.cls-7{fill:#d9d9e9;}.cls-8{fill:#b3a7c3;}.cls-9{fill:#bcc8e2;}.cls-10{fill:#6f6c7b;}.cls-11{fill:#7f7f99;}.cls-12{fill:#5e5e7a;}.cls-13{fill:#b0c9d0;}.cls-14{fill:#d0e6e1;}.cls-15{fill:#90aaae;}.cls-16{fill:#c3c3c0;}.cls-17{fill:#71718b;}.cls-18{fill:#b3c7cd;}.cls-19{fill:#6b6c82;}.cls-20{fill:#a1a0b9;}.cls-21{fill:#87889e;}.cls-22{fill:#949495;}.cls-23{fill:#716f82;}.cls-24{fill:#b8b4ce;}.cls-25{fill:#d2d2e3;}.cls-26{fill:#727283;}.cls-27{fill:#747282;}.cls-28{fill:#878498;}.cls-29{fill:#6f6e78;}.cls-30{fill:#b5b6c9;}.cls-31{fill:#d5deec;}.cls-32{fill:#8589a4;}.cls-33{fill:#998ea6;}.cls-34{fill:#6c6d8a;}.cls-35{fill:#bfbcd3;}.cls-36{fill:#9998b5;}.cls-37{fill:#8c8ba2;}.cls-38{fill:#9796ae;}.cls-39{fill:#616078;}.cls-40{fill:#a3b2be;}.cls-41{fill:#767686;}.cls-42{fill:#acb4c7;}.cls-43{fill:#f5f5f0;}.cls-44{fill:#a6c7ba;}.cls-45{fill:#827e92;}.cls-46{fill:#94a8a6;}.cls-47{fill:#807d95;}.cls-48{fill:#b5b4cc;}.cls-49{fill:#6c6568;}.cls-50{fill:#d5d5e4;}.cls-51{fill:#708991;}.cls-52{fill:#8b869e;}.cls-53{fill:#bbc0d6;}.cls-54{fill:#716e7b;}.cls-55{fill:#dcd9e8;}.cls-56{fill:#f3f7f9;}.cls-57{fill:#a0caba;}.cls-58{fill:#9396ad;}.cls-59{fill:#6c6d7d;}.cls-60{fill:#707185;}.cls-61{fill:#8b8ca0;}.cls-62{fill:#847a88;}</style></defs><path class="cls-10" d="m60.896,216.373c-1.421-3.023-3.533-5.05-7.091-5.283-6.54-.429-9.961-4.588-12.038-10.28,7.152,4.298,13.91,9.454,22.617,10.365,2.092,4.469,8.033,2.931,10.545,6.744-.018.637-.036,1.274-.054,1.912-2.31-.026-4.62-.052-6.93-.079-2.121-1.259-4.379-1.996-6.879-1.816-.061-.521-.118-1.042-.171-1.563Z"/><path class="cls-59" d="m74.876,219.831c.018-.637.036-1.274.053-1.911,13.772,1.025,53.064,13.129,62.702-1.557,2.219-.118,4.437-.235,6.656-.353l.286.486c-4.109,6.405-11.349,6.373-17.531,8.517-8.296-.023-16.593-.08-24.89-.058-9.425.025-18.751-.405-27.277-5.124Z"/><path class="cls-26" d="m187.882,186.734c-2.669,8.451-11.783,11.659-15.614,19.166-7.794-.663-13.45,4.488-19.861,7.473-2.576,1.199-4.767,3.189-7.835,3.122.001.002-.285-.484-.283-.481.678-3.773,4.245-4.088,6.775-5.637,4.262-2.61,9.54-3.558,12.788-7.824,3.968.266,7.056-1.219,9.837-4.118,3.934-4.101,8.239-7.847,12.385-11.744.603.015,1.205.029,1.808.044Z"/><path class="cls-60" d="m5.341,150.267c-.04-4.034-.081-8.067-.12-12.102.001,0,.234-.149.234-.149,3.387,9.889,5.311,20.285,10.297,29.618,1.301,3.154,2.759,6.253,3.87,9.472,2.165,6.275,9.671,9.291,10.041,16.615-8.726-6.793-13.747-16.086-17.602-26.146-2.028-5.292-3.495-10.818-6.676-15.616-.005-.565-.02-1.13-.046-1.694Z"/><path class="cls-23" d="m29.71,44.311c3.413-1.886,4.602-5.146,5.364-8.67,1.104-.021,2.209-.04,3.315-.06,2.878-.577,5.756-1.154,8.635-1.732.028.592.056,1.185.084,1.777-5.148,2.659-7.826,8.248-13.139,10.811-7.249,3.497-12.002,9.375-14.785,16.878-1.098.066-2.196.133-3.294.199l-.217-.254c1.699-8.522,8.326-13.398,14.039-18.95Z"/><path class="cls-2" d="m29.71,44.311c-5.713,5.552-12.34,10.428-14.038,18.951-1.091.073-2.183.145-3.275.217,0,0-.133-.138-.134-.138.027-2.778,5.712-16.517,7.403-17.886,6.514-5.275-3.411-.876,10.043-1.143Z"/><path class="cls-49" d="m38.388,35.581c-1.106.02-2.211.04-3.315.06-1.459-.734-1.836-2.052-1.909-3.535,5.414.062,6.766-6.987,12.171-6.941-2.315,3.472-4.631,6.944-6.946,10.416Z"/><path class="cls-54" d="m206.983,77.353c.021,4.608.041,9.215.062,13.823-2.645-2.332-2.29-5.847-3.043-8.772-1.485-5.764-3.03-11.148-8.909-13.973-.907-5.8-10.386-12.312,1.415-17.059.583-.654,1.166-1.308,1.749-1.961,1.767-.508,1.587-2.063,1.828-3.392.509-.114,1.024-.2,1.542-.258.051.852.463,1.922.1,2.525-6.803,11.263,2.398,19.59,5.256,29.068Z"/><path class="cls-16" d="m201.627,45.76c-.519.058-1.033.144-1.542.258.058-4.137.115-8.274.173-12.411,4.119,1.879,3.028,5.579,3.107,8.87-1.516.6-1.415,2.053-1.737,3.284Z"/><path class="cls-29" d="m151.364,21.714c6.324-.051,12.496.41,17.404,5.142,6.849,5.749,7.025,7.507,14.402,5.969,5.791-1.207,8.246-12.343,15.198-2.803-2.282.174-4.566.348-6.849.521-5.693.066-5.886,4.722-7.116,8.512-3.194,2.254-.286,6.621-3.944,10.42-5.433-11.658-12.289-21.145-25.612-22.556-1.044-1.813-3.654-2.58-3.483-5.204Z"/><path class="cls-43" d="m200.258,33.606c-.058,4.137-.115,8.274-.173,12.411-.242,1.329-.062,2.884-1.829,3.392-4.049-.6-10.658,2.044-9.838-5.537.662-6.124,2.583-12.79,11.47-11.667.216.442.339.908.37,1.399Z"/><path class="cls-16" d="m199.888,32.207c-8.887-1.123-10.808,5.542-11.47,11.667-.819,7.58,5.79,4.937,9.838,5.537-.583.654-1.166,1.308-1.747,1.96-3.503-.114-7.111.323-10.219-1.912-.499-6.924.386-13.466,5.229-18.915,2.283-.174,4.567-.347,6.849-.522.932.432,1.77.93,1.52,2.184Z"/><path class="cls-45" d="m195.094,68.429c5.877,2.827,7.421,8.211,8.907,13.975.754,2.924.399,6.44,3.044,8.772,0,0,.006.008.005.008,1.147,13.893,2.293,27.787,3.44,41.68-2.407,9.681-4.542,19.462-10.272,27.922-.598-.017-1.194-.033-1.791-.049-.145-6.89,5.551-12.234,5.089-19.207,4.266-20.969,1.8-41.537-3.697-61.924-.447-1.659-1.736-2.125-3.25-2.26-.654-.614-1.307-1.229-1.961-1.843.061-1.13.122-2.261.182-3.391-.031-1.129-.062-2.257-.093-3.386l.398-.298Z"/><path class="cls-54" d="m210.49,132.864c-1.147-13.893-2.293-27.787-3.44-41.68,6.071,3.217,3.209,9.373,4.077,14.014,1.702,9.1,2.843,18.532-.637,27.666Z"/><path class="cls-41" d="m198.427,160.738c.596.016,1.193.032,1.79.048-1.818,9.739-2.5,20.016-12.336,25.948-.603-.015-1.206-.029-1.807-.043,4.118-8.651,8.235-17.302,12.353-25.953Z"/><path class="cls-38" d="m39.94,199.062c-2.249-1.227-3.701-3.768-6.57-3.971.376-3.467-2.028-5.726-3.645-8.319-2.362-3.788-5.731-7.13-5.301-12.134,1.181,1.173,2.445,2.274,3.53,3.53,7.615,8.822,15.219,17.647,26.115,22.697-.603.539-1.205,1.078-1.808,1.617-4.196-.817-7.45-5.026-12.32-3.42Z"/><path class="cls-47" d="m24.423,174.638c-.43,5.004,2.939,8.346,5.302,12.134,1.617,2.593,4.022,4.852,3.645,8.319-1.487.227-2.825.049-3.706-1.368-.371-7.324-7.877-10.34-10.042-16.615-1.111-3.219-2.569-6.319-3.87-9.472,1.148.585,2.295,1.171,3.444,1.756,1.355,2.126,1.834,5.119,5.208,5.241l.018.006Z"/><path class="cls-28" d="m39.94,199.062c4.87-1.606,8.124,2.602,12.32,3.418,2.17,5.576,9.218,4.177,12.235,8.543l-.112.153c-8.706-.913-15.464-6.069-22.616-10.366-.61-.582-1.218-1.165-1.827-1.748Z"/><path class="cls-28" d="m137.632,216.364c-9.638,14.686-48.93,2.582-62.702,1.557-2.512-3.814-8.453-2.276-10.545-6.745,0,.001.111-.152.111-.151,3.471.589,6.943,1.178,10.414,1.766,4.212,2.845,9.595,1.065,13.907,3.518,10.865,6.536,22.812,2.289,34.224,3.358,2.909.272,5.561-1.014,7.499-3.388l.798-.095.803.006c1.831.058,3.661.116,5.492.174Z"/><path class="cls-61" d="m137.632,216.364c-1.831-.058-3.661-.116-5.491-.173,9.046-6.331,19.198-10.311,29.542-13.885.723.082,1.446.164,2.169.247-3.247,4.266-8.526,5.214-12.788,7.824-2.53,1.549-6.098,1.865-6.775,5.637-2.22.115-4.439.232-6.657.35Z"/><path class="cls-37" d="m163.852,202.552c-.723-.082-1.446-.164-2.168-.246,17.204-12.232,29.489-27.979,34.845-48.678,3.129-3.572,1.827-9.698,6.986-12.099.463,6.974-5.233,12.318-5.088,19.208-4.116,8.652-8.234,17.303-12.352,25.954-4.147,3.897-8.452,7.643-12.386,11.744-2.781,2.899-5.869,4.384-9.837,4.118Z"/><path class="cls-27" d="m12.397,63.479c1.092-.072,2.184-.143,3.275-.217-.001-.001.216.253.215.251-.14,7.944-5.791,13.929-7.339,21.613-3.541,17.575-3.181,35.201-3.092,52.89,0,0-.233.148-.234.149-13.254-7.983,2.331-63.987,7.176-74.686Z"/><path class="cls-21" d="m5.455,138.017c-.088-17.689-.449-35.315,3.092-52.89,1.548-7.684,7.199-13.669,7.339-21.613,1.1-.065,2.198-.131,3.296-.196,0,0,.286.254.286.254.23,4.45-.998,8.34-3.576,12.086-2.435,3.537-4.352,7.517-3.508,12.139-.037,2.288-.075,4.575-.112,6.863-.991.995-2.74,1.906-2.86,2.997-1.615,14.678-3.704,29.402,1.157,43.916.347,2.951-.994,6.235,1.721,8.72-.199,7.269,4.914,12.621,6.905,19.099-1.148-.585-2.295-1.171-3.443-1.756-4.986-9.333-6.911-19.73-10.298-29.618Z"/><path class="cls-62" d="m151.364,21.714c-.171,2.625,2.439,3.392,3.483,5.204-1.164.003-2.329.007-3.494.011-6.773-2.796-13.167-6.715-20.786-7.004-6.123-7.32-31.607-4.312-40.305-3.399-10.309,1.082-26.705,6.283-32.769,15.547-2.375,1.04-3.905,3.701-6.883,3.585-1.168-.01-2.335-.021-3.503-.031-.028-.592-.056-1.185-.084-1.777.599-1.156,1.198-2.312,1.797-3.469.579-.034,1.159-.067,1.738-.102,8.699-4.701,15.778-14.362,24.471-17.81,5.228-2.074,16.001,1.496,18.911-4.68C97.359,3.451,91.724-.1,100.04.002c-1.941-.024,11.858,10.412,9.089,8.943,5.633,2.987,14.163,2.586,20.243,4.221,7.349,1.976,14.781,8.163,21.993,8.548Z"/><path class="cls-52" d="m47.107,35.627c1.168.01,2.335.021,3.502.03-7.96,11.169-21.537,16.324-29.525,27.48-.251.35-1.065.299-1.616.435,0,0-.285-.253-.286-.254,2.783-7.504,7.535-13.382,14.785-16.879,5.314-2.563,7.992-8.153,13.139-10.811Z"/><path class="cls-6" d="m151.353,26.93c1.165-.004,2.329-.007,3.494-.011,13.323,1.411,20.179,10.899,25.612,22.556,3.658-3.799.75-8.166,3.944-10.42.659,3.462-1.502,7.436,1.887,10.404,3.108,2.234,6.716,1.798,10.219,1.912-11.803,4.748-2.324,11.26-1.417,17.06.002-.002-.396.296-.393.295-10.835-5.813-16.024-16.551-22.709-25.986-1.062-1.367-2.125-2.733-3.187-4.097-2.937-7.043-9.812-6.692-15.638-8.312-.604-1.134-1.207-2.267-1.811-3.401Z"/><path class="cls-22" d="m186.29,49.459c-3.389-2.968-1.228-6.941-1.887-10.404,1.23-3.79,1.422-8.446,7.115-8.512-4.842,5.45-5.727,11.992-5.228,18.916Z"/><path class="cls-25" d="m168.802,38.64c1.062,1.367,2.125,2.733,3.19,4.099-.981,8.864,11.48,24.922,22.797,29.374-.06,1.13-.121,2.261-.181,3.391-3.925.841-2.91,2.872-1.896,5.719,6.553,18.395,10.538,37.177,7.34,56.853-1.154,1.747-2.307,3.495-3.46,5.242-4.126,3.473-4.512,8.786-4.815,13.238-.677,9.941-6.156,16.696-12.562,23.224,0-1.16-.002-2.32-.003-3.481,14.148-17.834,21.42-49.392,17.337-71.314-2.292-12.309-6.917-24.161-13.501-34.809-5.096-8.243-18.1-18.29-14.259-29.337.004-.733.008-1.465.012-2.198Z"/><path class="cls-20" d="m196.592,143.317c1.153-1.747,2.307-3.495,3.46-5.242,13.446-6.021-3.635-50.165-3.484-60.729,1.514.135,2.803.601,3.25,2.26,5.497,20.387,7.963,40.955,3.697,61.924-5.16,2.401-3.858,8.527-6.986,12.1.021-3.437.042-6.875.063-10.313Z"/><path class="cls-24" d="m196.568,77.346c-.15,10.564,16.93,54.708,3.484,60.729,3.198-19.676-.787-38.458-7.34-56.853-1.014-2.846-2.029-4.878,1.896-5.719.652.615,1.306,1.229,1.96,1.843Z"/><path class="cls-20" d="m194.789,72.112c-11.317-4.452-23.779-20.511-22.797-29.374,6.682,9.436,11.872,20.174,22.707,25.987.029,1.13.059,2.259.09,3.387Z"/><path class="cls-48" d="m54.068,200.865c-10.896-5.05-18.5-13.874-26.115-22.697-1.084-1.256-2.348-2.358-3.53-3.53,0,0-.018-.005-.018-.006.038-1.185.076-2.37.114-3.554.574-.591,1.148-1.182,1.722-1.773,8.6,12.396,18.293,23.575,32.757,29.466,2.371.966,3.619,2.761,3.733,5.327-3.373.22-5.692-2.38-8.663-3.234Z"/><path class="cls-61" d="m54.068,200.865c2.971.854,5.29,3.454,8.663,3.234,1.121.626,2.242,1.251,3.363,1.877,1.305,4.381,7.539,2.396,8.815,6.815-3.471-.589-6.943-1.177-10.414-1.766-3.017-4.366-10.065-2.967-12.235-8.543.602-.538,1.205-1.077,1.808-1.616Z"/><path class="cls-38" d="m24.52,171.078c-.038,1.185-.076,2.369-.114,3.554-3.375-.122-3.854-3.115-5.209-5.241-1.992-6.478-7.105-11.83-6.906-19.099,4.076,6.928,8.153,13.857,12.229,20.786Z"/><path class="cls-48" d="m74.909,212.79c-1.276-4.419-7.51-2.434-8.814-6.816,22.133-.591,43.223,12.524,65.79,5.252,14.675-4.729,40.173-17.354,47.33-31.448,6.407-6.528,11.885-13.282,12.562-23.224.303-4.451.689-9.764,4.815-13.237-.021,3.438-.041,6.876-.063,10.313-5.357,20.698-17.642,36.445-34.846,48.677-10.344,3.573-20.497,7.553-29.543,13.884-.001,0-.804-.007-.804-.007l-.798.095c-13.905,3.718-27.816-1.74-41.723.03-4.311-2.453-9.695-.673-13.907-3.518Z"/><path class="cls-61" d="m88.816,216.308c13.906-1.77,27.818,3.688,41.723-.03-1.938,2.374-4.59,3.66-7.499,3.388-11.412-1.069-23.359,3.178-34.224-3.358Z"/><path class="cls-36" d="m19.469,63.572c.551-.136,1.365-.084,1.616-.435,7.988-11.156,21.565-16.311,29.525-27.48,2.979.116,4.509-2.544,6.884-3.584,2.325-.552,4.65-1.105,6.975-1.659-1.172,1.711-2.345,3.423-3.517,5.135-4.531.972-5.773,5.905-9.939,7.765-19.322,8.626-29.782,24.587-35.293,44.343-1.111.046-2.223.092-3.334.138-.844-4.622,1.073-8.601,3.508-12.139,2.578-3.746,3.806-7.636,3.576-12.086Z"/><path class="cls-30" d="m12.385,87.796c1.111-.046,2.223-.092,3.335-.138.008,2.863.016,5.726.023,8.589-2.642,2.545-1.324,5.851-1.701,8.831-3.25,10.979-2.28,22.121-.647,33.13.807,5.441.262,11.774,5.825,15.598.653,5.929,5.772,9.839,7.021,15.498-.574.591-1.148,1.183-1.722,1.774-4.076-6.929-8.152-13.858-12.228-20.786-2.716-2.484-1.374-5.768-1.722-8.719-.008-15.659-.75-31.344,1.703-46.913.037-2.288.075-4.575.112-6.863Z"/><path class="cls-38" d="m12.273,94.659c-2.453,15.569-1.712,31.255-1.703,46.913-4.861-14.515-2.772-29.238-1.157-43.916.12-1.091,1.869-2.002,2.86-2.997Z"/><path class="cls-33" d="m151.353,26.929c.604,1.134,1.207,2.267,1.811,3.401-1.824.091-3.648.182-5.47.271-.499-.057-.994-.027-1.484.089-3.721-2.165-7.693-3.568-12.006-3.931-.508-2.814-1.805-4.845-5.018-4.768-15.774.381-31.533-1.784-47.313-.269,2.89-3.592,6.948-3.302,10.992-3.574,12.648-.849,25.125,1.451,37.702,1.775,7.619.289,14.013,4.208,20.786,7.004Z"/><path class="cls-52" d="m130.567,19.925c-12.577-.324-25.054-2.624-37.702-1.775-4.043.271-8.102-.019-10.992,3.573-6.151,2.198-10.806,7.388-17.405,8.692-2.325.553-4.65,1.106-6.975,1.658,6.064-9.264,22.46-14.465,32.769-15.547,8.698-.913,34.182-3.921,40.305,3.399Z"/><path class="cls-4" d="m147.693,30.604c1.824-.091,3.647-.182,5.471-.273,5.826,1.619,12.701,1.269,15.638,8.311-.004.73-.008,1.463-.012,2.195-1.072-.647-2.144-1.294-3.217-1.939-1.765-4.634-6.091-4.484-9.83-4.857-3.176-.317-6.214-.272-8.05-3.437Z"/><path class="cls-56" d="m165.574,38.896c1.072.647,2.144,1.293,3.216,1.94-3.841,11.048,9.163,21.095,14.259,29.338,6.584,10.649,11.209,22.5,13.501,34.809,4.082,21.922-3.189,53.479-17.337,71.314-22.709,23.98-56.158,37.797-88.537,29.87-14.721-3.604-28.582-8.933-41.301-17.303-14.632-9.628-17.348-26.779-30.058-36.96-4.789-15.268-6.137-30.923-5.274-46.827.377-2.98-.941-6.287,1.701-8.83,2.439-1.966,2.613-5.015,3.467-7.661,6.987-21.663,21.487-36.464,41.762-46.067,19.284-7.661,35.515-16.132,56.66-13.023,14.502,2.132,34.541,3.777,47.942,9.4Zm-127.153,59.218c-10.592.972-4.983,34.329-6.599,42.03-3.524,16.795-2.091,17.629,10.674,29.881,20.326,19.509,63.594,40.188,89.888,18.849,8.008,1.067,23.786-10.828,30.366-15.35,11.368-7.812,16.477-19.538,18.086-32.973,1.733-14.473-3.515-26.556-4.543-40.424-.506-6.822,5.64-21.494-5.759-22.873-3.406-3.909-6.153-1.115-10.621-4.532-3.406-2.605-6.659-8.111-9.929-11.412-.235-.237-10.845-9.296-10.229-8.942-4.334-2.497-7.263-3.371-12.364-4.413-18.796-3.839-43.002,2.111-58.353,13.174-13.489,9.721-20.063,24.612-30.616,36.986Z"/><path class="cls-7" d="m19.317,151.905c12.71,10.181,15.426,27.332,30.058,36.96,12.719,8.369,26.58,13.699,41.301,17.303,32.38,7.926,65.829-5.89,88.537-29.87,0,1.16.001,2.32.002,3.48-7.156,14.094-32.654,26.719-47.33,31.448-22.567,7.272-43.658-5.842-65.79-5.252-1.122-.625-2.243-1.25-3.364-1.876-.114-2.567-1.362-4.362-3.733-5.327-14.463-5.891-24.156-17.07-32.757-29.466-1.249-5.66-6.368-9.57-7.021-15.5.032-.634.064-1.267.096-1.9Z"/><path class="cls-35" d="m60.972,42.52c-20.275,9.604-34.775,24.404-41.762,46.067-.854,2.647-1.028,5.695-3.467,7.661-.008-2.864-.015-5.727-.024-8.59,5.51-19.757,15.97-35.718,35.292-44.344,4.166-1.86,5.408-6.793,9.939-7.765,1.335-.463,2.816-.694,3.982-1.426,21.902-13.74,45.511-11.229,69.272-7.364,4.313.363,8.284,1.765,12.006,3.929-7.462,4.993-16.119-2.493-23.673-3.728-5.354-.875-13.026-.484-18.501-.566-17.344-.261-29.946,4.119-43.065,16.126Z"/><path class="cls-8" d="m134.205,26.76c-23.761-3.865-47.37-6.376-69.272,7.364-1.166.732-2.647.962-3.982,1.426,1.172-1.712,2.345-3.424,3.517-5.135,6.599-1.303,11.253-6.493,17.405-8.691,15.78-1.514,31.539.651,47.313.27,3.214-.078,4.511,1.953,5.018,4.768Z"/><path class="cls-50" d="m19.317,151.905c-.032.633-.064,1.266-.096,1.9-5.564-3.823-5.018-10.156-5.825-15.597-1.633-11.009-2.603-22.151.647-33.13-.863,15.904.485,31.559,5.274,46.827Z"/><path class="cls-55" d="m60.972,42.52c13.119-12.007,25.721-16.387,43.065-16.126,5.475.082,13.147-.309,18.501.566,7.554,1.235,16.21,8.721,23.673,3.728.489-.113.984-.144,1.483-.087,1.835,3.167,4.873,3.122,8.049,3.438,3.739.373,8.065.223,9.83,4.857-13.4-5.623-33.439-7.269-47.941-9.401-21.145-3.108-37.376,5.362-56.66,13.023Z"/><path class="cls-14" d="m170.534,77.252c11.4,1.38,5.253,16.051,5.759,22.874,1.028,13.868,6.276,25.951,4.543,40.424-1.608,13.435-6.717,25.161-18.086,32.973-6.58,4.522-22.358,16.417-30.366,15.35-26.294,21.339-69.562.66-89.888-18.849-12.765-12.252-14.198-13.086-10.674-29.881,1.616-7.701-3.993-41.057,6.599-42.029,2.287-.008,4.575-.015,6.863-.023.025.594.05,1.188.075,1.782-1.967,10.633-8.019,21.067-1.436,32.108,1.606,2.693-1.483,4.008-2.09,6.068-.575.586-1.149,1.172-1.724,1.757-12.831,9.194-2.69,18.655,6.286,27.311,1.654,1.595,8.569,6.426,10.408,7.805,5.017,3.764,3.76,7.283,11.149,8.328,3.169,2.175,5.926,5.555,10.511,3.591,17.912,2.972,29.616,9.298,47.035.248,8.588-4.462,18.669-20.637,29.4-19.473,17.199-4.746,24.931-18.417,19.072-33.913-2.528,1.163-3.563,4.754-7.002,4.364-.982-.788-1.471-1.832-.861-2.965,6.866-12.744,2.764-25.737.94-38.68.626-4.582-3.161-7.89-3.523-12.187,3.012-1.652,2.509-6.826,7.011-6.985Z"/><path class="cls-31" d="m45.284,98.091c-2.288.008-4.575.016-6.862.023,10.554-12.374,17.128-27.265,30.617-36.986,15.351-11.063,39.557-17.013,58.353-13.174,5.101,1.042,8.03,1.916,12.364,4.413-.616-.355,9.994,8.705,10.229,8.942,3.27,3.301,6.523,8.807,9.929,11.412,4.467,3.417,7.215.623,10.621,4.532-4.502.159-3.999,5.333-7.01,6.985-4.66-.097-8.068-10.656-11.529-14.044-3.674-3.597-11.738-10.061-15.959-12.432-15.989-8.983-44.004-6.651-59.396,5.629-12.12,6.045-20.839,15.286-26.123,27.755-1.744,2.315-3.489,4.63-5.233,6.945Z"/><path class="cls-53" d="m76.64,63.391c15.392-12.28,43.407-14.612,59.396-5.629,4.221,2.371,12.285,8.836,15.959,12.432,3.461,3.388,6.869,13.946,11.529,14.044.362,4.297,4.149,7.605,3.523,12.187-.59-.005-1.181-.01-1.771-.014-4.606-11.315-21.201-29.292-31.081-35.667-9.607-6.198-43.915-11.204-45.45,6.061-6.521.146-12.638,1.265-17.692,6-1.028.963-3.203.706-4.848,1.011,3.135-3.818,8.838-5.069,10.436-10.424Z"/><path class="cls-13" d="m154.897,167.618c-10.731-1.164-20.812,15.011-29.4,19.473-17.419,9.05-29.123,2.724-47.036-.249,2.31-.618,4.621-1.235,6.931-1.852,5.971-.919,12.91,3.833,19.543,3.54,7.376-.327,13.947-3.198,20.109-6.97,3.985-2.44,29.331-24.409,28.74-24.743.7,1.19,1.054,2.482,1.062,3.874.017,2.309.034,4.618.051,6.926Z"/><path class="cls-57" d="m154.897,167.618c-.017-2.309-.034-4.618-.051-6.927,5.683-5.142,9.413-11.164,8.669-19.203,1.15-1.14,2.301-2.28,3.451-3.419,3.44.389,4.474-3.202,7.002-4.364,5.859,15.496-1.873,29.167-19.072,33.913Z"/><path class="cls-44" d="m85.394,184.989c-2.311.617-4.622,1.234-6.932,1.852-4.584,1.964-7.341-1.415-10.51-3.59-6.18-5.66-15.999-17.344-20.831-23.951-3.782-5.172,1.635-12.61-8.703-6.662.658-4.987,1.175-8.908,1.692-12.83.575-.586,1.149-1.171,1.724-1.757.596.009,1.192.018,1.788.027,1.064,11.094,9.629,16.51,17.194,22.685.667,10.923,5.27,17.16,14.086,19.085,3.498,1.714,6.995,3.429,10.493,5.143Z"/><path class="cls-3" d="m40.11,139.807c-.517,3.922-1.034,7.843-1.692,12.83,10.338-5.948,4.921,1.491,8.703,6.662,4.832,6.607,14.651,18.292,20.831,23.951-7.389-1.045-6.131-4.564-11.149-8.328-1.838-1.379-8.754-6.209-10.408-7.805-8.976-8.656-19.116-18.117-6.286-27.311Z"/><path class="cls-5" d="m43.621,138.077c-.596-.009-1.192-.017-1.788-.027.607-2.061,3.696-3.376,2.09-6.069-6.583-11.041-.531-21.475,1.435-32.108,2.323,1.719,1.232,7.973,6.93,5.209.01.603.02,1.205.03,1.807-4.926,9.549-8.477,19.185-1.838,29.456-2.493-.239-4.727.549-6.861,1.732Z"/><path class="cls-18" d="m166.967,138.069c-1.15,1.14-2.301,2.28-3.451,3.421-2.956-3.183-2.398-7.364-1.15-10.434,3.454-8.5,2.943-17.212,2.938-25.968-.01-2.893-.019-5.785-.029-8.678.59.005,1.181.009,1.771.014,1.825,12.943,5.926,25.936-.94,38.68-.61,1.133-.122,2.176.861,2.965Z"/><path class="cls-9" d="m52.289,105.082c-5.698,2.764-4.607-3.49-6.93-5.209-.025-.594-.049-1.187-.075-1.782,1.744-2.315,3.488-4.63,5.233-6.945,0,0,.178.13.178.13,3.884,4.215,7.72,8.436,1.595,13.805Z"/><path class="cls-9" d="m76.64,63.391c-1.598,5.355-7.301,6.606-10.436,10.424-1.525,9.052-8.368,13.389-15.509,17.462,0,0-.177-.13-.178-.13,5.284-12.47,14.003-21.71,26.122-27.756Z"/><path class="cls-42" d="m165.275,96.41c.01,2.893.02,5.785.029,8.678-1.156-2.307-2.313-4.615-3.469-6.922-6.387-4.336-15.61-29.946-24.534-19.906-5.047-10.345-7.475-16.971-20.378-18.685-11.049-1.468-18.728,8.339-28.028,7.37l-.151-.141c1.536-17.264,35.844-12.258,45.451-6.06,9.88,6.374,26.475,24.351,31.081,35.667Z"/><path class="cls-1" d="m50.695,91.277c7.14-4.073,13.983-8.41,15.509-17.462,1.646-.305,3.82-.047,4.848-1.011,5.054-4.736,11.171-5.854,17.692-6,0,0,.15.141.149.139-2.827,5.063-5.652,10.127-8.592,15.396-12.098-11.101-12.808,3.451-15.962,15.678-.325,5.014-2.363,8.151-8.031,7.786-1.301-.084-2.657.701-3.988,1.086-.01-.603-.02-1.205-.031-1.808,6.125-5.369,2.29-9.59-1.595-13.805Z"/><path class="cls-40" d="m161.835,98.166c1.156,2.307,2.313,4.614,3.469,6.922.006,8.756.516,17.468-2.938,25.968-1.248,3.07-1.806,7.251,1.15,10.434.743,8.038-2.987,14.06-8.67,19.202-.008-1.393-.362-2.684-1.062-3.874.591.334-24.755,22.303-28.74,24.743-6.161,3.772-12.732,6.643-20.109,6.97-6.633.294-13.572-4.459-19.543-3.54-3.497-1.715-6.994-3.429-10.492-5.144.031-.609.062-1.217.092-1.826,16.928-.481,27.026,10.945,43.804,1.216,7.782-4.512,18.346-13.012,25.214-18.55,17.272-13.927,17.4-41.19,17.824-62.52Z"/><path class="cls-15" d="m43.621,138.077c2.134-1.183,4.367-1.971,6.861-1.732.623.58,1.244,1.16,1.865,1.741,0,0,.039.187.039.187-11.172-.141-4.436,10.629,6.797,5.024,3.514,5.261,2.804,11.811,5.308,17.38-1.226.028-2.452.057-3.677.085-7.564-6.174-16.13-11.591-17.194-22.685Z"/><path class="cls-46" d="m60.815,160.761c1.226-.028,2.452-.057,3.677-.085,1.154,1.763,2.308,3.526,3.463,5.288.277,5.225,5.888,7.34,7.039,12.055-.031.608-.062,1.217-.092,1.826-8.816-1.924-13.419-8.161-14.086-19.084Z"/><path class="cls-58" d="m52.349,138.085c-.622-.58-1.244-1.16-1.866-1.74-6.64-10.271-3.089-19.906,1.837-29.456,1.331-.384,2.688-1.169,3.989-1.085,5.669.364,7.706-2.773,8.033-7.785.001.001.309.246.307.244,7.634,9.97-9.296,11.814-11.946,20.188-2.038,6.44,8.94,19.557-.353,19.634Z"/><path class="cls-58" d="m74.993,178.02c-1.151-4.715-6.762-6.83-7.039-12.056,7.856.684,12.357,9.432,20.824,8.647,6.216,6.236,20.621,4.42,27.725.785,5.58-2.855,24.904-17.536,28.128-22.027,10.738-14.956,14.663-55.441-.172-67.402-3.046-6.12-9.059-3.158-12.596-6.797-3.039-3.126-2.369-7.473-5.549-10.273-6.374-5.613-18.673-4.701-25.684-1.036-5.66,2.959-18.211,15.786-17.773,22.866.436,7.048,9.945,7.297,5.536,16.246-1.025-1.204-2.05-2.408-3.075-3.612-.605-1.138-1.209-2.276-1.814-3.414-3.501-6.947-7.376-8.073-12.533-3.323-1.978,1.822-4.177,1.278-6.322,1.641,0,0-.308-.245-.309-.246,3.152-12.229,3.863-26.781,15.961-15.68,2.94-5.268,5.765-10.333,8.592-15.396,9.301.969,16.98-8.837,28.03-7.369,12.903,1.714,15.331,8.339,20.378,18.685,8.924-10.04,18.147,15.57,24.534,19.906-.423,21.33-.552,48.593-17.824,62.52-6.868,5.538-17.432,14.038-25.214,18.55-16.779,9.729-26.877-1.697-43.804-1.216Z"/><path class="cls-11" d="m88.778,174.611c-8.467.785-12.968-7.964-20.824-8.647-1.154-1.762-2.308-3.525-3.463-5.287-2.503-5.569-1.793-12.119-5.306-17.38.054-4.808-5.243-2.389-6.798-5.024,0,0-.04-.186-.039-.187,9.294-.077-1.685-13.194.353-19.634,2.65-8.374,19.58-10.218,11.946-20.188,2.147-.361,4.347.183,6.325-1.639,5.158-4.75,9.032-3.624,12.534,3.322-8.347.592-21.839,10.397-24.867,19.173-3.518,10.192,2.334,27.351,14.514,17.227,6.144-3.602,8.647-10.017,12.131-15.675,4.089-5.762-2.006-11.544.035-17.31,1.025,1.204,2.05,2.408,3.075,3.612,4.409-8.949-5.1-9.198-5.536-16.246-.438-7.08,12.113-19.907,17.773-22.866,7.011-3.664,19.31-4.577,25.684,1.036,3.18,2.8,2.51,7.147,5.549,10.273,3.537,3.638,9.55.676,12.596,6.797,6.03,15.975,6.237,20.155,3.094,36.926-1.088,5.807-.058,25.165-10.073,23.875,1.425-6.703,1.741-13.255,5.464-19.89,3.368-6.002,3.216-14.925-1.967-21.802.006-4.953-13.425-13.359-16.054-17.683-4.935-8.115,2.634-14.628-12.756-14.882-7.985-.132-23.976,7.978-22.198,18.448,1.605,9.455,11.637,4.766,17.129,8.183-.466,3.103-3.596,2.221-4.476,4.106-8.168,2.384-10.986,8.821-12.023,16.338-.687,4.975,1.006,10.245-1.854,14.965-48.288,24.216,20.481,45.478,27.875,26.124l.003-.006c5.972-.957,8.722-6.121,12.212-9.977,2.567-2.836,4.925-4.429,8.647-3.924.673,6.909-13.246,14.808-18.242,18.744-10.712,8.441-16.225,9.056-30.462,9.099Z"/><path class="cls-51" d="m52.388,138.272c1.555,2.636,6.852.216,6.798,5.024-11.234,5.605-17.97-5.166-6.798-5.024Z"/><path class="cls-32" d="m137.482,146.768c10.014,1.29,8.984-18.068,10.073-23.875,3.142-16.772,2.936-20.952-3.094-36.926,14.835,11.96,10.91,52.446.172,67.402-3.225,4.492-22.549,19.172-28.128,22.027-7.104,3.635-21.509,5.451-27.725-.785,14.236-.043,19.749-.658,30.461-9.099,4.996-3.936,18.914-11.835,18.242-18.744,0,0,0,0,0,0Z"/><path class="cls-34" d="m73.154,136.346c-12.18,10.124-18.032-7.035-14.514-17.227,3.029-8.776,16.521-18.581,24.867-19.173.604,1.139,1.209,2.277,1.813,3.415-2.041,5.766,4.054,11.549-.034,17.311-3.09-9.292-.316-21.807-13.395-12.083-8.093,6.016-11.19,24.774,1.264,27.757Z"/><path class="cls-19" d="m102.622,103.246c.881-1.883,4.012-1.002,4.477-4.105-5.492-3.417-15.524,1.272-17.129-8.183-1.778-10.47,14.213-18.58,22.198-18.448,15.391.254,7.821,6.766,12.756,14.882,2.63,4.324,16.061,12.73,16.054,17.684-.003.859-.008,1.718-.009,2.577q-.011,11.719-10.403,9.622c8.084-7.372.698-26.594-10.818-24.801-12.251,1.908-1.129,9.87-4.799,15.785-3.925-2.104-7.086-6.234-12.206-4.879l-.124-.135Z"/><path class="cls-19" d="m88.746,134.55c2.86-4.72,1.167-9.99,1.854-14.965,1.038-7.517,3.855-13.954,12.023-16.338-.001-.001.123.134.122.133-6.469,10.443-8.39,13.983-10.224,25.874-.974,6.317-7.356,19.364-2.943,25.349,14.477,19.635,31.08-16.057,40.934-14.801-6.225,5.895-10.596,13.023-13.89,20.866,0,0-.003.006-.003.006-9.811.749-24.036,8.922-32.121-.869-9.595-11.621,6.898-17.29,4.246-25.255Z"/><path class="cls-12" d="m73.154,136.346c-12.454-2.983-9.356-21.741-1.264-27.757,13.08-9.724,10.305,2.791,13.395,12.083-3.484,5.657-5.988,12.072-12.132,15.674Z"/><path class="cls-17" d="m116.623,160.669c3.294-7.843,7.665-14.971,13.89-20.866-.18-7.51,1.501-15.015.054-22.528q10.391,2.097,10.403-9.622c0-.859.006-1.718.009-2.577,5.183,6.878,5.335,15.8,1.967,21.802-3.723,6.635-4.039,13.186-5.464,19.89,0,0,0,0,0,0-3.722-.505-6.08,1.088-8.647,3.924-3.489,3.855-6.24,9.02-12.212,9.977Z"/><path class="cls-17" d="m88.746,134.55c2.652,7.965-13.842,13.635-4.246,25.255,8.085,9.791,22.31,1.618,32.121.869-7.394,19.354-76.163-1.909-27.875-26.125Z"/><path class="cls-39" d="m130.568,117.275c1.446,7.513-.234,15.018-.054,22.528-9.854-1.257-26.457,34.435-40.934,14.8-4.413-5.985,1.968-19.032,2.943-25.349,1.834-11.89,3.755-15.431,10.224-25.874,5.12-1.355,8.281,2.775,12.206,4.879,3.669-5.916-7.452-13.878,4.799-15.785,11.515-1.793,18.901,17.429,10.818,24.801Z"/></svg>