<?xml version="1.0" encoding="UTF-8"?><svg id="Layer_1" xmlns="http://www.w3.org/2000/svg" viewBox="0 0 228.428 232.877"><defs><style>.cls-1{fill:#7e92a1;}.cls-2{fill:#9dafbd;}.cls-3{fill:#84979e;}.cls-4{fill:#a5bec2;}.cls-5{fill:#8b9fa4;}.cls-6{fill:#a8bfc9;}.cls-7{fill:#89a1b1;}.cls-8{fill:#96abb8;}.cls-9{fill:#dbeef1;}.cls-10{fill:#a7c4d1;}.cls-11{fill:#697b85;}.cls-12{fill:#8ba0a5;}.cls-13{fill:#d6edf5;}.cls-14{fill:#7c8d94;}.cls-15{fill:#c6dbe2;}.cls-16{fill:#b9cfdc;}.cls-17{fill:#aabbca;}.cls-18{fill:#6f818a;}.cls-19{fill:#d9ecf2;}.cls-20{fill:#7a949b;}.cls-21{fill:#9db5c3;}.cls-22{fill:#2b313d;}.cls-23{fill:#607481;}.cls-24{fill:#38404b;}.cls-25{fill:#4b5560;}.cls-26{fill:#667a8b;}.cls-27{fill:#bddbe5;}.cls-28{fill:#859da4;}.cls-29{fill:#94a8b3;}.cls-30{fill:#4d5d6c;}.cls-31{fill:#6c757b;}.cls-32{fill:#839dac;}.cls-33{fill:#97b7c5;}.cls-34{fill:#c2dee7;}.cls-35{fill:#93a3ad;}.cls-36{fill:#72808d;}.cls-37{fill:#809099;}.cls-38{fill:#8797a5;}.cls-39{fill:#7f9298;}.cls-40{fill:#627685;}.cls-41{fill:#80919f;}.cls-42{fill:#eef4f7;}.cls-43{fill:#8b9ba8;}.cls-44{fill:#c9dde6;}.cls-45{fill:#b9d0db;}.cls-46{fill:#a3bac8;}.cls-47{fill:#728191;}.cls-48{fill:#899ba1;}.cls-49{fill:#8394a2;}.cls-50{fill:#879aa8;}.cls-51{fill:#c8e3ec;}.cls-52{fill:#a9c1cd;}.cls-53{fill:#74828f;}.cls-54{fill:#49515d;}.cls-55{fill:#a4bac7;}.cls-56{fill:#626e78;}.cls-57{fill:#4f5c69;}.cls-58{fill:#7b8e9b;}.cls-59{fill:#9eb3b8;}.cls-60{fill:#546270;}.cls-61{fill:#8ba6b5;}.cls-62{fill:#cbe0ec;}.cls-63{fill:#596e80;}.cls-64{fill:#363f4b;}.cls-65{fill:#cfe5ef;}.cls-66{fill:#9fb3bc;}.cls-67{fill:#698186;}.cls-68{fill:#98aab4;}.cls-69{fill:#a6bdc3;}.cls-70{fill:#dceff5;}.cls-71{fill:#6e7e89;}.cls-72{fill:#aec3c8;}.cls-73{fill:#657687;}.cls-74{fill:#bbd7dc;}.cls-75{fill:#e2f2f6;}.cls-76{fill:#a1bec6;}.cls-77{fill:#8c9ea8;}.cls-78{fill:#4d5862;}.cls-79{fill:#acc0c8;}.cls-80{fill:#90a8ad;}.cls-81{fill:#5f6c7a;}.cls-82{fill:#b1c5ce;}</style></defs><path class="cls-20" d="m189.988,29.584c.606.635,1.212,1.269,1.819,1.902,1.161,4.825,3.627,8.79,7.02,12.488,8.149,8.882,13.368,19.662,18.669,30.348.631,3.96,1.263,7.92,1.894,11.88-3.425-3.937-5.553-8.633-8.14-13.088-2.57-4.424-2.175-11.355-9.087-12.747-.82-1.22-1.641-2.441-2.461-3.662-.451-5.288-5.123-7.85-7.638-11.805-9.306-12.525-23.207-17.19-37.192-21.713-2.952-5.791-9.819-2.234-13.728-5.74-.019-.647-.026-1.293-.023-1.94,2.59.031,5.18.063,7.77.094l-.004.003c10.932,7.252,24.575,8.919,35.117,16.87,4.529,3.416,4.399-1.124,5.984-2.891Z"/><path class="cls-67" d="m189.988,29.584c-1.585,1.767-1.455,6.307-5.984,2.891-10.542-7.951-24.185-9.618-35.117-16.87,8.519-1.225,15.109,4.929,23.039,6.03,2.618.364,5.784,3.121,6.368-2.174,5.921,1.041,8.593,5.83,11.694,10.123Z"/><path class="cls-14" d="m6.07,74.203c-.622-1.952-1.245-3.904-1.867-5.856,1.855.038,3.711.076,5.566.114,5.974.971,5.697-3.554,5.732-7.068.031-3.09-1.073-6.209,1.677-8.716,4.526-6.052,6.085-15.12,15.985-15.715,3.839,2.524,7.944,4.883,1.872,9.52-1.065.813-1.179,2.869-1.733,4.351-7.662,4.147-9.12,12.152-12,19.272-4.935.899-6.159,10.058-13.33,5.977-.634-.626-1.268-1.253-1.902-1.879Z"/><path class="cls-42" d="m54.812,13.359c1.934.114,3.867.227,5.801.341,1.301,1.4,2.602,2.801,3.903,4.2-.319,4.99,6.317,9.949-3.124,12.621-8.951,2.534-8.976-5.14-11.573-10.932l-.414-.357-.476.27c-.393-4.298,3.972-4.048,5.883-6.143Z"/><path class="cls-35" d="m33.301,50.832c.553-1.482.668-3.538,1.733-4.351,6.072-4.637,1.968-6.995-1.872-9.52,1.991-1.915,3.982-3.83,5.973-5.745q7.598,1.831,8.034-7.488c.061-1.302.104-2.605.156-3.907.512-.218,1.047-.324,1.604-.319l.476-.27s.414.357.411.357c-1.687,6.789,4.749,11.646,2.734,16.463-1.359,3.25-13.801,12.59-17.091,14.877-.719-.033-1.439-.065-2.158-.098Z"/><path class="cls-31" d="m47.325,19.821c-.052,1.302-.095,2.605-.156,3.907q-.435,9.32-8.034,7.488c.985-5.051,2.983-9.374,8.19-11.395Z"/><path class="cls-5" d="m215.482,176.122c-7.43,7.645-20.645,19.232-25.741,27.906-5.052,8.6-3.779,13.06-3.821,24.197-.554.341-1.154.558-1.8.647-.151-3.725-.303-7.452-.454-11.178-3.091-3.502-3.964-7.614-3.338-12.137,11.63-7.938,21.933-17.208,29.416-29.303,2.194-4.251,4.415-8.475,9.465-10.038.29,3.868-5.13,5.596-3.708,9.888l-.018.019Z"/><path class="cls-69" d="m180.329,205.557c-.627,4.523.246,8.635,3.339,12.136-5.376-.465-10.942-2.24-15.391,2.772-4.525,5.099,2.216,7.963,2.266,12.131-.681.093-1.362.187-2.043.28-1.327-1.282-2.654-2.564-3.981-3.846.431-5.789-2.428-8.144-8.035-7.943-5.749.206-11.505.198-17.258.284-.029-.654-.058-1.307-.088-1.961.62-.106,1.242-.191,1.868-.254,11.044,2.147,19.532-6.102,29.639-7.252,4.855-.552,7.35-2.878,9.682-6.349Z"/><path class="cls-34" d="m192.064,44.901c2.515,3.955,7.187,6.516,7.639,11.805-1.556-.909-3.113-1.819-5.08-2.967.128,4.863,4.139,8.199,3.301,12.739-1.981.01-3.962.02-5.943.03-9.133-4.413-12.25-16.603-23.572-18.241-.47-.068-.822-.955-1.23-1.46-.274-1.235-.548-2.47-.821-3.705,3.366-2.543.654-4.27-.884-6.046-2.856-3.297-5.81-6.51-8.722-9.758,8.558,1.025,14.797,6.819,22.412,9.997-2.01,3.145-6.108.217-8.875,6.654,9.074-5.111,14.837,1.024,21.775.953Z"/><path class="cls-13" d="m202.164,60.368c2.533,10.744,6.787,20.718,13.314,29.673-1.138,3.549,3.423,7.023-.077,11.775-5.251-9.864-8.696-4.027-12.002,2.024-3.823-13.164-4.485-25.286-5.473-37.361.838-4.54-3.173-7.876-3.301-12.739,1.967,1.148,3.524,2.058,5.08,2.967.82,1.22,1.64,2.441,2.46,3.662Z"/><path class="cls-39" d="m221.629,160.624c-.556-12.012,2.537-23.754,2.11-35.861-.46-13.032-1.425-25.871-4.347-38.562-.632-3.959-1.263-7.919-1.894-11.879,5.29,4.706,4.079,12.257,7.745,17.673,3.186,20.942,5.136,41.867.136,62.855-.616,2.585-.387,5.191-3.75,5.773Z"/><path class="cls-28" d="m125.336,3.807c1.506-3.444,4.425-3.992,7.723-3.761.719,1.262,1.439,2.524,2.159,3.785.274,4.747,3.493,8.009,5.905,11.677-.003.647.004,1.293.022,1.941-2.544-1.169-5.122-2.18-8.013-1.803-4.783-.486-9.601-1.603-14.343-1.34-16.09.891-32.153,2.271-48.227,3.464-1.376-.212-2.752-.424-4.127-.636,17.013-2.162,33.72-6.968,51.151-5.566,5.144.414,10.459.083,7.751-7.762Z"/><path class="cls-76" d="m192.064,44.901c-6.938.07-12.701-6.065-21.775-.953,2.767-6.437,6.865-3.509,8.875-6.654-7.615-3.178-13.853-8.971-22.412-9.996-1.678-.143-3.294-.394-3.953-2.291.691-.606,1.382-1.212,2.073-1.818,13.985,4.523,27.887,9.187,37.192,21.713Z"/><path class="cls-80" d="m154.872,23.189c-.691.606-1.382,1.212-2.073,1.82-7.217-.722-13.882-2.922-19.701-7.375.011-.663.021-1.325.032-1.987,2.892-.377,5.47.634,8.014,1.803,3.91,3.505,10.777-.052,13.729,5.739Z"/><path class="cls-67" d="m141.122,15.509c-2.411-3.669-5.63-6.93-5.905-11.677,4.558,3.924,9.116,7.847,13.674,11.771-2.59-.031-5.18-.062-7.77-.094Z"/><path class="cls-3" d="m82.282,221.162c-8.316.021-14.657-7.725-23.419-5.946,0,0-.016-.003-.017-.002.563-4.129-2.427-5.149-5.322-6.844-4.818-2.821-11.02-3.477-14.303-8.779-3.15-7.323-10.898-10.013-15.759-15.612.076-.646.141-1.293.193-1.941,2.573,1.183,4.258,4.083,7.539,3.902,3.916,3.951,9.347,6.363,11.897,11.7,13.349,6.677,24.605,17.149,39.19,21.586.004.645.004,1.291,0,1.937Z"/><path class="cls-4" d="m6.07,74.203c.634.626,1.268,1.253,1.901,1.881.295,3.579-1.433,7.545,2.101,10.716,1.908-1.567,3.768-3.095,5.628-4.623.001,1.943.003,3.887.004,5.831-.423,7.373-7.347,12.938-7.252,19.594.13,9.161,3.353,18.278,5.251,27.414-1.267,6.744,2.438,13.021,1.852,19.7-6.587-18.318-9.76-37.199-8.614-56.644.212-3.591.737-6.399-3.294-7.79-1.216-1.382-2.432-2.764-3.647-4.146,9.522-.169,4.752-7.597,6.07-11.932Z"/><path class="cls-59" d="m15.7,82.177c-1.861,1.528-3.721,3.056-5.629,4.623-3.534-3.171-1.805-7.137-2.101-10.716,7.172,4.079,8.396-5.081,13.333-5.976.002.003.415.519.415.519-.564,4.6-3.902,7.757-6.019,11.55Z"/><path class="cls-68" d="m33.301,50.832c.719.033,1.439.065,2.157.097-3.095,7.6-9.155,13.135-13.739,19.697,0,0-.413-.516-.415-.519,2.877-7.123,4.336-15.128,11.998-19.275Z"/><path class="cls-16" d="m21.719,70.626c4.584-6.563,10.644-12.097,13.739-19.697,3.291-2.287,15.733-11.626,17.092-14.877,2.015-4.817-4.421-9.674-2.734-16.463,2.6,5.793,2.625,13.467,11.576,10.933,9.441-2.673,2.805-7.632,3.124-12.621.639-.254,1.279-.508,1.918-.764,1.375.21,2.751.422,4.126.632,4.887,3.51,10.461.988,15.659,1.776-4.194,5.438-11.051,2.914-15.114,11.737,3.792.625,4.437,4.562,7.614,5.797,2.789,1.085,5.513-.484,7.799.154,8.76,2.441,19.398,2.568,29.055,3.787-11.657,3.5-15.494,1.349-26.953,1.877-4.009.185-8.52-1.805-12.272,1.039-13.454,10.199,1.429,5.365-1.919,14.703-3.837,1.515-20.689,19.577-21.033,19.339-.18-1.224-.359-2.448-.538-3.672.506-4.656,3.619-7.976,5.991-11.676,2.548-2.389,2.382-4.675.135-7.488-4.755,4.15-14.791,9.693-18.368,14.018-4.095,4.952.64,9.802-5.335,13.023-2.86,1.932-1.855,6.768-5.887,7.819-1.59-8.591-4.915-14.216-13.69-1.995-.002-1.944-.003-3.888-.005-5.831,2.117-3.793,5.455-6.95,6.019-11.55Zm51.937-31.112c-.286-.451-.678-1.738-1.237-1.814-2.452-.336-23.03,6.981-17.021,11.032,5.103,3.44,17.601-3.028,18.258-9.217Z"/><path class="cls-74" d="m215.475,156.518c-.461,6.998-8.295,11.858-5.732,19.734-7.482,12.097-17.784,21.366-29.415,29.304-2.332,3.472-4.827,5.797-9.681,6.349-10.107,1.149-18.595,9.398-29.638,7.252,1.984-2.952,2.254-6.205,1.689-9.606,1.993-.799,3.421-2.183,4.319-4.123l.912.08.915-.021c-.06,3.831,1.545,7.257,5.583,5.633,7.046-2.834,14.362-5.415,20.465-10.191,1.721-1.347,1.732-3.627.975-5.432-3.433-8.192,1.827-7.999,7.168-7.421,3.059.331,6.334,2.59,7.449-2.713,2.98-14.182,12.583-22.757,24.992-28.846Z"/><path class="cls-75" d="m142.694,209.554c.569,3.4.299,6.653-1.685,9.605-.626.063-1.249.148-1.869.252-2.947-.215-5.775.653-8.634.953-21.021,2.201-41.465.67-60.025-10.899.043-1.942.086-3.884.128-5.827,11.363,1.952,52.995,11.212,58.814-2.163,1.256.034,2.511.067,3.767.101,4.223,1.405,4.15,7.918,9.503,7.979Z"/><path class="cls-72" d="m70.481,209.465c18.561,11.569,39.005,13.099,60.026,10.898,2.858-.299,5.687-1.168,8.634-.953.03.655.059,1.309.087,1.96-.05.581-.105,1.164-.167,1.746-12.43.027-24.86.055-37.29.082-6.797.149-12.935-2.928-19.488-3.973-14.585-4.437-25.841-14.908-39.19-21.585.04-.71.079-1.421.119-2.132,11.161.611,17.716,10.212,27.271,13.956Z"/><path class="cls-12" d="m139.059,223.116c.063-.582.118-1.164.168-1.745,5.754-.084,11.51-.076,17.259-.282,5.607-.202,8.466,2.154,8.035,7.943-3.739-1.596-7.082-5.496-11.694-2.006-4.574-.014-9.148-.028-13.722-.042-.009-.654-.018-1.307-.027-1.961.025-.636.018-1.272-.018-1.907Z"/><path class="cls-27" d="m197.924,66.478c.988,12.075,1.65,24.197,5.473,37.361,3.306-6.051,6.751-11.887,12.002-2.024,3.5-4.752-1.06-8.225.077-11.775,7.34,5.801,9.088,53.234,1.917,58.594-.953-9.351-1.906-18.703-3.116-30.572-4.173,7.185,2.196,12.216-5.173,15.558,2-.907-10.789-16.273-11.063-.831-.677.07-1.353.137-2.029.204-1.961-.662-3.923-1.324-5.884-1.986-1.969-3.675.034-6.445,1.695-9.645,7.347-14.148,5.457-23.776-5.425-29.65.356-5.968,10.561-2.159,9.494-9.546.308-5.622.416-11.194-3.914-15.659,1.981-.01,3.962-.02,5.943-.03Z"/><path class="cls-10" d="m191.981,66.508c4.33,4.465,4.222,10.037,3.914,15.659-2.642-1.333-2.441-10.133-8.379-3.017-2.021,2.422-2.773,7.635-7.265,6.044-3.64-1.289-1.131-5.761-2.252-8.584-.337-.849-1.057-1.546-1.601-2.313-3.574-7.183,5.24-4.035,4.826-5.507-.304-1.082-11.042-18.255-12.469-11.954-.717,3.169,3.564,6.68-1.85,5.647-3.988-5.297-1.553-10.482.275-15.677.407.505.758,1.392,1.228,1.46,11.322,1.638,14.439,13.828,23.572,18.241Z"/><path class="cls-9" d="m133.098,17.635c5.82,4.453,12.484,6.653,19.701,7.375.659,1.895,2.275,2.146,3.953,2.289,2.913,3.248,5.866,6.461,8.722,9.758,1.538,1.775,4.25,3.503.884,6.045-1.776,1.389-3.553,2.778-5.329,4.168-1.957-.842-3.481-2.138-4.354-4.123.346-4.839-.592-7.922-5.953-10.589-11.257-5.602-23.059-7.755-35.237-9.085v.02c.027-1.998.054-3.997.081-5.995,5.843.046,11.687.092,17.53.138Z"/><path class="cls-23" d="m161.03,47.269c1.776-1.389,3.553-2.778,5.329-4.168.273,1.235.546,2.47.821,3.705-1.826,5.195-4.261,10.38-.275,15.677-.213,1.637.216,3.017,1.608,4.012-.022,1.952-.043,3.905-.065,5.857-1.222-.665-2.445-1.33-3.667-1.995-.267-2.115-.045-4.395-2.001-5.943-1.203-2.497-1.766-5.834-3.732-7.329-5.484-4.171-1.755-5.985,1.437-8.225.267-.501.449-1.031.546-1.591Z"/><path class="cls-70" d="m198.044,132.787c.273-15.44,13.062-.074,11.062.833,7.369-3.342,1-8.373,5.173-15.558,1.21,11.869,2.164,21.221,3.116,30.572-2.45,2.188-1.579,5.183-1.919,7.884-12.409,6.09-22.013,14.664-24.992,28.846-1.114,5.303-4.389,3.044-7.449,2.713-5.341-.578-10.601-.772-7.168,7.421.757,1.805.746,4.085-.975,5.432-6.103,4.777-13.419,7.358-20.465,10.191-4.038,1.624-5.644-1.802-5.583-5.633.617-.726,1.233-1.453,1.849-2.179,13.32,6.557,17.65-9.559,19.736-17.768-1.455-.283-2.859-.062-4.211.661-.57-.7-1.141-1.399-1.711-2.099,9.844-7.081,53.208-39.987,37.148-50.917-1.203-.134-2.407-.267-3.612-.399Z"/><path class="cls-52" d="m133.098,17.635c-5.843-.046-11.687-.092-17.53-.137-9.796.492-19.753-1.314-29.349,2.048-5.198-.788-10.772,1.734-15.659-1.776,16.074-1.192,32.137-2.571,48.227-3.463,4.742-.263,9.561.855,14.343,1.34-.012.663-.022,1.326-.033,1.988Z"/><path class="cls-6" d="m43.21,195.508c-.039.711-.079,1.421-.119,2.132-2.55-5.338-7.982-7.75-11.896-11.7-4.633-6.469-6.036-15.159-13.54-19.653-.13-2.535-.26-5.069-.387-7.604,2.185,1.608,4.368,3.216,6.551,4.824-2.773-6.158,2.137-13.031-2.201-18.676-.038-.652-.077-1.304-.115-1.956-.504-6.184,3.694-6.049,7.916-5.881,1.537,3.082-4.883,7.709,1.899,9.773,3.213,4.065,4.112,9.101,5.799,13.807-1.353-.336-3.494-1.88-3.498.88-.011,6.931,14.418,23.271,21.171,24.416.047,1.296.094,2.592.141,3.889-9.655,3.067-13.926-7.791-22.774-9.534,2.835,6.699,10.868,8.143,11.054,15.284Z"/><path class="cls-48" d="m17.655,166.286c7.504,4.494,8.908,13.185,13.54,19.653-3.283.181-4.968-2.719-7.541-3.902-2.073-4.479-4.147-8.959-6.223-13.436.074-.77.149-1.543.224-2.315Z"/><path class="cls-51" d="m21.502,142.874c.038.652.077,1.304.114,1.955-8.298,1.285-4.232-7.384-7.914-9.814-1.898-9.136-5.121-18.253-5.251-27.414-.095-6.655,6.829-12.22,7.252-19.594,8.776-12.221,12.101-6.596,13.69,1.995-.17,5.939-8.38,7.286-7.809,13.65,2.318,9.909,4.167,19.66-2.561,28.907-2.81,3.862-.526,7.386,2.478,10.315Z"/><path class="cls-45" d="m13.703,135.016c3.682,2.43-.384,11.099,7.914,9.814,4.338,5.646-.572,12.519,2.202,18.677-2.183-1.608-4.365-3.217-6.551-4.824-.572-1.322-1.141-2.645-1.711-3.967.585-6.679-3.121-12.956-1.853-19.7Z"/><path class="cls-52" d="m161.03,47.269c-.097.559-.279,1.09-.545,1.591-6.409-1.295-11.871,1.616-17.467,3.931-1.957-.653-3.914-1.306-5.871-1.959.635-.659,1.269-1.318,1.904-1.976,19.249-5.191-5.32-19.739-17.583-11.715-6.757,2.63-1.541,5.212.031,7.809.07,1.305.139,2.61.209,3.915-1.387.658-2.773,1.317-4.16,1.975-10.697-2.866-21.106-1.682-31.321,2.225-2.604,1.883-5.209,3.766-7.813,5.649-1.329-.025-2.658-.05-3.987-.075,3.347-9.338-11.536-4.504,1.919-14.703,3.752-2.844,8.263-.854,12.272-1.039,11.459-.528,15.296,1.624,26.954-1.876-2.011-4.674-12.778-9.721-13.047-12.114-1.071-9.505,8.906-8.259,12.96-5.415,0,0,0-.02.002-.02.25,11.505,2.248,4.862,9.629,6.752,11.813,3.024,21.527,5.052,31.559,12.923.872,1.985,2.397,3.281,4.354,4.123Z"/><path class="cls-65" d="m115.486,23.492c-4.054-2.844-14.031-4.09-12.96,5.415.27,2.393,11.036,7.44,13.047,12.114-9.657-1.219-20.295-1.346-29.056-3.787-2.286-.637-5.011.931-7.799-.154-3.177-1.236-3.822-5.172-7.614-5.797,4.063-8.824,10.92-6.299,15.114-11.737,9.596-3.362,19.553-1.556,29.349-2.047-.028,1.998-.055,3.996-.082,5.994Z"/><path class="cls-2" d="m74.428,58.639c1.329.025,2.658.05,3.986.075-5.277,10.671-14.119,18.535-21.644,27.435-1.309,1.269-2.617,2.538-3.926,3.807-.619.015-1.238.048-1.855.099-.205-2.466.76-6.105-4.011-4,.693-1.888,1.386-3.776,2.079-5.664,1.266-2.029,2.533-4.057,3.799-6.085.18,1.224.359,2.448.539,3.672.344.238,17.196-17.824,21.033-19.339Z"/><path class="cls-2" d="m35.281,82.183c5.975-3.221,1.239-8.071,5.335-13.023,3.577-4.325,13.612-9.868,18.368-14.018,2.247,2.813,2.412,5.099-.136,7.488-7.763,2.679-12.41,8.502-15.777,15.616-4.746,8.405-13.002,15.806-7.759,27.07l-.151.465c-3.88-.854-8.321,1.497-11.73-2.049,8.12-4.893,11.595-12.337,11.85-21.549Z"/><path class="cls-21" d="m73.656,39.514c-.656,6.19-13.154,12.658-18.258,9.217-6.009-4.051,14.569-11.368,17.021-11.032.559.076.951,1.363,1.237,1.814Z"/><path class="cls-17" d="m35.281,82.183c-.255,9.212-3.73,16.655-11.849,21.548-.615-.03-1.23-.056-1.846-.08-.572-6.363,7.638-7.71,7.808-13.649,4.031-1.051,3.027-5.887,5.887-7.819Z"/><path class="cls-49" d="m43.07,78.246c3.367-7.113,8.014-12.936,15.777-15.616-2.371,3.7-5.484,7.02-5.99,11.676-1.267,2.028-2.533,4.057-3.8,6.083.467-7.588-3.185-3.679-5.987-2.144Z"/><path class="cls-44" d="m201.654,133.188c16.061,10.929-27.303,43.835-37.146,50.915-.682.014-1.365.03-2.047.045-6.823-1.961-9.313,2.708-11.657,7.603-3.059,4.063-3.905,8.737-3.787,13.678-.898,1.94-2.326,3.324-4.319,4.123-5.356-.06-5.284-6.573-9.506-7.978-.632-1.937-1.264-3.875-1.896-5.813,21.617-13.518,67.238-33.836,70.359-62.574Z"/><path class="cls-29" d="m147.016,205.43c-.118-4.941.729-9.615,3.787-13.678.936,1.295-.869,5.982,2.61,3.64,3.856-2.596,9.023-5.15,9.046-11.244.683-.015,1.365-.03,2.047-.045.57.701,1.14,1.4,1.713,2.098-3.517,7.203-11.719,10.165-15.527,17.109-.616.726-1.232,1.453-1.849,2.179,0,0-.916.021-.916.021l-.912-.08Z"/><path class="cls-66" d="m131.295,195.762c.632,1.937,1.264,3.875,1.896,5.812-1.256-.034-2.512-.067-3.768-.1-.076-.583-.136-1.168-.181-1.756-3.515-4.783-7.425-5.154-11.609-.92-3.389,3.429-7.673,2.726-11.815,2.775-6.209-3.91-13.084-1.065-19.594-1.93,6.38-8.361,16.437.272,23.724-4.705-1.302-2.004-5.157-1.093-4.211-4.436,5.731-2.437,12.314,1.861,17.629-2.692.655-.649,1.309-1.298,1.964-1.947,3.354-6.486,12.449-1.248,15.806-7.728,2.604.023,5.208.045,7.812.068.39,4.186-1.973,5.184-5.672,6.184-5.738,1.551-10.85,4.589-11.982,11.376Z"/><path class="cls-15" d="m43.21,195.508c-.185-7.142-8.219-8.585-11.054-15.284,8.847,1.742,13.118,12.6,22.773,9.534,0,0-.027.015-.027.015,7.27,2.163,8.399,11.288,15.497,13.646,0,0,.211.219.211.219-.043,1.942-.086,3.884-.129,5.826-9.556-3.744-16.11-13.345-27.272-13.956Z"/><path class="cls-15" d="m129.242,199.719c.045.587.105,1.173.181,1.755-5.818,13.374-47.45,4.114-58.814,2.162.001.001-.21-.218-.208-.216.599-2.643-.887-5.63,1.779-8.709,2.67,6.432,7.538,9.069,14.024,8.831,4.876.01,9.779.354,14.622-.039,9.526-.774,19.795,3.755,28.415-3.784Z"/><path class="cls-69" d="m139.078,225.023c-12.421-.902-25.039,2.226-37.307-1.825,12.429-.027,24.859-.054,37.289-.082.036.635.042,1.271.018,1.907Z"/><path class="cls-32" d="m190.13,131.008c1.961.662,3.923,1.324,5.883,1.986.619,16.73-23.826,29.842-37.327,31.381-.039-1.341-.077-2.682-.116-4.022,3.008-15.223,6.148-2.212,14.949-6.058,14.149-6.183,4.831-25.745.73-17.524-4.327,1.988-8.537,4.313-13.018,5.853-3.296,1.133-4.074-.665-2.386-3.537,6.833-3.429,10.586-15.006,21.47-8.059.651.416,2.63-1.245,3.991-1.939,1.941.64,3.882,1.279,5.823,1.919Z"/><path class="cls-55" d="m158.686,164.375c13.5-1.538,37.945-14.65,37.327-31.381.677-.068,1.352-.135,2.029-.204,1.206.13,2.41.263,3.613.397-3.123,28.739-48.744,49.057-70.361,62.575,1.132-6.786,6.244-9.824,11.982-11.375,3.699-1,6.062-1.998,5.671-6.185,2.314-1.5,2.628-4.98,5.691-5.741,3.688,2.563,6.115,3.138,4.705-2.841-.402-1.705-2.508-3.249-.657-5.245Z"/><path class="cls-33" d="m190.13,131.008c-1.941-.64-3.882-1.279-5.824-1.918-.164-.602-.309-1.208-.435-1.819,4.056-11.55,10.082-22.977,2.203-35.271l.329-.288c10.879,5.876,12.768,15.504,5.422,29.652-1.662,3.2-3.664,5.97-1.695,9.645Z"/><path class="cls-33" d="m176.398,74.298c.544.767,1.264,1.464,1.601,2.313,1.121,2.823-1.388,7.295,2.252,8.584,4.492,1.591,5.244-3.623,7.265-6.044,5.938-7.116,5.737,1.684,8.379,3.017,1.067,7.387-9.138,3.578-9.495,9.546.003-.002-.326.286-.325.285-1.612-4.901-10.862-2.242-9.752-9.838.025-2.621.05-5.242.075-7.863Z"/><path class="cls-61" d="m176.399,74.298c-.025,2.621-.05,5.242-.075,7.863-3.318-4.866-2.82-11.633-7.812-15.665-1.392-.995-1.82-2.375-1.608-4.012,5.415,1.032,1.134-2.479,1.851-5.647,1.427-6.301,12.164,10.872,12.469,11.954.414,1.472-8.4-1.676-4.826,5.507Z"/><path class="cls-19" d="m156.676,43.146c-10.033-7.871-19.746-9.899-31.559-12.923-7.382-1.889-9.379,4.754-9.629-6.752,12.177,1.33,23.979,3.484,35.236,9.085,5.361,2.667,6.299,5.75,5.953,10.589Z"/><path class="cls-26" d="m183.872,127.27c.126.611.27,1.217.435,1.819-1.36.694-3.339,2.355-3.99,1.939-10.884-6.948-14.638,4.629-21.471,8.057,2.086-6.521,1.175-13.886,5.576-19.753,3.396-2.731,1.808-6.54,2.087-9.912.837-10.1-6.013-18.028-7.878-27.376,1.3-1.893,1.258-3.796.044-5.709.027-.703.055-1.406.082-2.11,2.996.246,5.59-.133,6.025-3.869,1.222.665,2.445,1.33,3.668,1.996-2.779,11.077-5.26,14.46,2.703,24.67,4.718,6.05,9.508,7.348,10.998,15.208,1.616,8.527-10.236,9.933,1.724,15.039Z"/><path class="cls-32" d="m183.872,127.27c-11.96-5.106-.107-6.512-1.724-15.039-1.49-7.86-6.28-9.159-10.998-15.208-7.962-10.21-5.482-13.594-2.703-24.67.021-1.953.043-3.905.064-5.857,4.992,4.033,4.493,10.799,7.812,15.665-1.11,7.596,8.139,4.937,9.752,9.838,7.878,12.295,1.852,23.722-2.204,35.272Z"/><path class="cls-1" d="m164.78,70.357c-.435,3.736-3.029,4.114-6.026,3.87-.043-4.417-4.383-6.195-5.953-9.675-8.934-6.245-37.991-11.851-48.941-8.653-7.408,2.164-14.421,5.679-21.611,8.59-.759.694-1.518,1.388-2.277,2.082-2.692-4.108.567-4.936,3.335-5.945,3.033-1.105,6.419-1.739,6.806-5.879,9.309-.149,18.509-1.071,27.434-3.908,1.387-.658,2.773-1.317,4.158-1.975,5.247-.139,10.057,3.168,15.441,1.967,1.957.653,3.914,1.306,5.871,1.959,5.414,5.67,14.356,6.678,18.523,13.996.413-.791.826-1.582,1.239-2.373,1.955,1.548,1.734,3.828,2.001,5.943Z"/><path class="cls-46" d="m162.78,64.414c-.413.791-.826,1.582-1.239,2.373-4.167-7.318-13.109-8.326-18.523-13.996,5.596-2.316,11.058-5.226,17.467-3.931-3.193,2.24-6.922,4.054-1.438,8.225,1.966,1.495,2.529,4.833,3.732,7.329Z"/><path class="cls-74" d="m150.694,203.31c3.808-6.944,12.01-9.905,15.527-17.109,1.35-.721,2.754-.941,4.209-.659-2.086,8.209-6.416,24.325-19.736,17.767Z"/><path class="cls-77" d="m123.367,187.81c-5.315,4.552-11.897.255-17.629,2.692-.946,3.343,2.909,2.433,4.211,4.436-7.287,4.978-17.344-3.656-23.724,4.705-6.015.851-9.923-6.744-13.307-10.336-5.811,7.643-12.051-1.298-18.015.467,0,0,.026-.014.027-.015-.046-1.297-.093-2.593-.139-3.889.68-.622,1.36-1.245,2.039-1.868,3.426.301,5.033-2.882,7.709-4.018,1.039,9.433,3.355,4.103,6.733,6.481-1.51-1.063,12.592,5.332,11.156,5.552,16.629-2.546-3.867-12.677-6.057-19.758,5.996-3.915,14.998,10.552,20.757,12.877,9.69,3.912,18.305-1.98,26.239,2.673Z"/><path class="cls-8" d="m37.117,160.573c-1.687-4.705-2.585-9.741-5.798-13.807,4.221-6.775,2.484-16.929,5.943-24.341,5.168-11.076,12.368-17.496,13.635-30.502.251,6.695-1.319,13.683,3.909,19.91-3.466,1.258-9.205-1.011-7.87,5.516-7.821,18.015-1.837,30.971-5.969,49.272-1.284-2.016-2.567-4.032-3.851-6.049Z"/><path class="cls-17" d="m50.896,91.923c-1.267,13.006-8.467,19.426-13.635,30.502-3.458,7.412-1.722,17.566-5.943,24.341-6.783-2.065-.362-6.691-1.9-9.773-.45-3.048,3.057-5.592.433-9.141-8.063-10.905-6.382-17.307,5.309-22.071,0,0,.151-.465.151-.462,9.177-3.221,6.437-13.652,11.667-19.263,4.771-2.105,3.805,1.533,4.01,3.999-.032.623-.062,1.246-.093,1.869Zm-20.786,30.694c1.464-6.071,7.415-6.944,5.493-12.229-1.935-5.32-7.094,7.46-5.493,12.229Z"/><path class="cls-62" d="m37.117,160.573c1.284,2.016,2.567,4.032,3.852,6.047.697.686,1.392,1.375,2.088,2.063,3.21,2.071,7.211,4.307,10.231,4.706,10.098,1.333,7.405,5.432,3.542,10.613-.68.623-1.359,1.246-2.039,1.868-6.754-1.146-21.183-17.485-21.172-24.416.004-2.76,2.146-1.216,3.498-.88Z"/><path class="cls-45" d="m35.16,105.781c-11.691,4.765-13.372,11.166-5.309,22.071,2.624,3.549-.883,6.093-.433,9.141-4.222-.168-8.42-.303-7.916,5.881-3.004-2.929-5.288-6.453-2.478-10.315,6.728-9.248,4.878-18.999,2.561-28.907.616.023,1.232.05,1.846.079,3.408,3.547,7.849,1.196,11.729,2.049Z"/><path class="cls-38" d="m90.115,54.748c-.387,4.139-3.773,4.773-6.806,5.879-2.769,1.009-6.027,1.837-3.335,5.945l.439-.091c-.734,1.27-1.468,2.54-2.203,3.811-6.582,2.392-7.769,9.557-12.202,13.934-3.065,3.027-5.209,5.618-9.238,1.924,7.525-8.901,16.367-16.764,21.644-27.435,2.605-1.882,5.209-3.765,7.813-5.651,1.295.56,2.591,1.123,3.887,1.685Z"/><path class="cls-46" d="m121.469,37.141c12.263-8.024,36.832,6.524,17.583,11.715.161-.61.298-1.225.413-1.845,4.231-5.426,4.749-7.906-3.944-7.45-4.4.231-10.361,3.553-14.052-2.419Z"/><path class="cls-7" d="m121.469,37.141c3.691,5.973,9.652,2.65,14.052,2.419,8.693-.455,8.175,2.025,3.943,7.45-5.74-2.853-11.638-4.316-17.964-2.061-1.572-2.597-6.787-5.179-.031-7.809Z"/><path class="cls-7" d="m90.115,54.748c-1.296-.563-2.592-1.125-3.887-1.685,10.216-3.905,20.625-5.088,31.322-2.223-8.926,2.838-18.125,3.759-27.435,3.908Z"/><path class="cls-63" d="m121.5,44.95c6.326-2.255,12.224-.792,17.964,2.061-.113.62-.251,1.235-.412,1.845-.635.659-1.27,1.318-1.904,1.976-5.384,1.201-10.194-2.106-15.441-1.967-.068-1.305-.138-2.61-.207-3.915Z"/><path class="cls-53" d="m56.77,86.149c4.029,3.694,6.173,1.103,9.238-1.924,4.433-4.377,5.62-11.542,12.203-13.933-2.513,9.068-10.184,16.633-7.972,27.114.01.047-1.137.337-1.744.514-.659-.655-1.317-1.31-1.976-1.965-4.253-11.551-12.139,2.537-7.199,10.505,2.62,4.225,16.905,6.504,15.051,10.854-.668-.026-1.336-.051-2.004-.077-6.927-2.444-16.417-1.114-17.376-12.221-.435-5.045-1.415-10.042-2.147-15.061,1.309-1.269,2.617-2.538,3.926-3.807Z"/><path class="cls-43" d="m52.844,89.956c.733,5.019,1.712,10.017,2.147,15.061.959,11.106,10.448,9.776,17.377,12.222,0,.001.012.057.012.057-10.751,1.888-4.532,19.143-11.173,18.841-9.716-.441,1.541-27.763-14.04-18.62l-.232-.168c-1.334-6.526,4.405-4.256,7.87-5.515-5.229-6.227-3.658-13.215-3.909-19.91.03-.623.061-1.247.092-1.869.618-.05,1.236-.083,1.856-.098Z"/><path class="cls-41" d="m46.979,86.055c-5.23,5.611-2.49,16.042-11.667,19.263-5.244-11.267,3.013-18.668,7.759-27.073,2.801-1.536,6.453-5.445,5.987,2.144-.692,1.89-1.385,3.778-2.078,5.666Z"/><path class="cls-11" d="m162.46,184.148c-.023,6.094-5.19,8.648-9.046,11.244-3.479,2.342-1.674-2.346-2.61-3.64,2.343-4.896,4.834-9.565,11.656-7.604Z"/><path class="cls-37" d="m123.367,187.81c-7.934-4.653-16.549,1.239-26.239-2.673-5.759-2.325-14.761-16.792-20.757-12.877-2.156.537-4.313,1.074-6.47,1.611-5.697-1.938-11.393-3.877-17.09-5.814.043-.526.096-1.054.158-1.58,11.066.627,22.132,1.253,33.198,1.88,2.168,2.778,4.193,5.683,6.53,8.312,8.561,9.634,23.317,7.288,28.891-4.519,3.076,4.073,3.976,8.738,3.742,13.713-.655.649-1.309,1.298-1.964,1.947Z"/><path class="cls-79" d="m54.903,189.773c5.963-1.764,12.204,7.176,18.015-.467,3.384,3.592,7.292,11.187,13.307,10.336,6.51.865,13.385-1.98,19.594,1.931-6.512.92-13.409-2.006-19.613,1.969-6.486.239-11.355-2.399-14.024-8.831-2.666,3.08-1.18,6.067-1.779,8.709-7.099-2.36-8.229-11.486-15.499-13.648Z"/><path class="cls-82" d="m86.205,203.543c6.204-3.975,13.102-1.05,19.613-1.969,4.143-.049,8.427.655,11.815-2.775,4.184-4.234,8.095-3.863,11.609.92-8.621,7.54-18.89,3.011-28.416,3.785-4.843.393-9.746.05-14.622.039Z"/><path class="cls-77" d="m125.33,185.863c.234-4.975-.666-9.64-3.743-13.712,3.8-3.853,5.018,1.711,7.656,2.099,2.036,4.432,6.04,3.79,9.794,3.792l2.099.093c-3.357,6.48-12.452,1.242-15.806,7.728Z"/><path class="cls-32" d="m141.137,178.134c-.7-.031-1.399-.062-2.098-.093,6.142-2.04,11.954-4.416,12.847-12.351.918,2.258,1.836,4.515,2.753,6.772-3.062.759-3.376,4.238-5.69,5.738-2.604-.022-5.208-.044-7.812-.067Z"/><path class="cls-30" d="m164.42,119.332c-4.4,5.868-3.489,13.233-5.575,19.753-1.687,2.873-.91,4.671,2.387,3.538,4.481-1.54,8.692-3.865,13.019-5.852,6.428,5.333-10.708,13.524-14.548,14.027-6.017.788-6.688-4.75-10.742-3.933,1.278-2.005,2.557-4.009,3.835-6.013.038-.62.056-1.241.054-1.862,5.162-8.298-.739-10.345-1.521-17.295-.548-4.866,2.108-12.449,1.552-18.35-.611-6.479-4.586-12.475-4.142-19.135,4.196.989,4,6.582,8.077,7.696,7.733,7.702,3.978,18.586,7.605,27.425Z"/><path class="cls-40" d="m148.96,146.867c4.054-.818,4.725,4.719,10.742,3.932,3.84-.503,20.976-8.694,14.548-14.027,4.1-8.223,13.418,11.34-.73,17.523-8.801,3.846-11.94-9.165-14.947,6.059-2.078-.124-12.017,4.32-13.535,6.053-3.013-2.057-7.601,3.819-9.873-1.96,10.888-.411,12.821-2.629,13.687-15.706.066-.623.102-1.248.109-1.874Z"/><path class="cls-58" d="m145.038,166.407c1.517-1.733,11.456-6.177,13.534-6.053.037,1.34.076,2.681.114,4.021-1.851,1.997.255,3.54.657,5.245,1.41,5.979-1.017,5.404-4.705,2.841-.919-2.255-1.836-4.513-2.754-6.77-.892,7.935-6.705,10.311-12.847,12.351-3.755-.002-7.758.64-9.794-3.793,7,.875,11.388-3.502,15.794-7.842Z"/><path class="cls-73" d="m79.973,66.572c.759-.694,1.518-1.388,2.277-2.082,10.136,1.349,19.611-2.224,29.399-3.604,13.791-1.944,27.591.59,41.152,3.666,1.57,3.479,5.91,5.258,5.953,9.675-.027.702-.054,1.405-.081,2.108-6.428-1.362-8.974-8.892-15.66-9.844-7.557-2.029-15.068-4.056-23.042-3.983-5.592.051-8.668,1.967-8.308,7.895-3.258-.001-6.516-.003-9.774-.005-6.029-7.493-14.363-2.366-21.477-3.917,0,0-.439.091-.439.091Z"/><path class="cls-60" d="m143.014,66.491c6.686.952,9.231,8.482,15.66,9.844,1.214,1.913,1.256,3.816-.043,5.71-5.83,2.327.111,6.818-1.816,9.862-4.077-1.114-3.881-6.707-8.076-7.697-1.245-.011-2.492-.021-3.74-.032-2.108-4.897-2.676-10.671-7.883-13.799,1.124-2.57,3.118-3.824,5.897-3.889Z"/><path class="cls-73" d="m156.815,91.907c1.927-3.044-4.014-7.535,1.816-9.862,1.865,9.347,8.714,17.275,7.878,27.375-.279,3.372,1.309,7.181-2.087,9.912-3.628-8.839.127-19.723-7.606-27.425Z"/><path class="cls-47" d="m152.802,64.552c-13.561-3.076-27.361-5.609-41.152-3.666-9.788,1.379-19.264,4.952-29.399,3.604,7.19-2.911,14.202-6.427,21.611-8.591,10.95-3.198,40.007,2.407,48.941,8.653Z"/><path class="cls-18" d="m69.902,173.87c2.157-.537,4.313-1.075,6.47-1.611,2.189,7.082,22.685,17.212,6.056,19.758,1.436-.22-12.667-6.615-11.156-5.552-3.378-2.378-5.693,2.952-6.732-6.48,1.788-2.038,3.575-4.076,5.362-6.114Z"/><path class="cls-6" d="m69.902,173.87c-1.787,2.038-3.574,4.076-5.362,6.114-2.677,1.135-4.284,4.318-7.71,4.017,3.863-5.181,6.556-9.28-3.542-10.613-3.019-.398-7.021-2.635-10.231-4.706,0,0,.113-.955.113-.952,3.214.11,6.428.217,9.642.325,5.697,1.938,11.393,3.877,17.09,5.815Z"/><path class="cls-43" d="m43.057,168.683c-.696-.688-1.391-1.376-2.088-2.063,4.13-18.299-1.854-31.256,5.967-49.27,0,0,.231.167.229.166-3.102,16.075,9.099,28.016,10.994,42.514-3.864,4.203-13.395-2.125-14.989,7.699l-.113.955Z"/><path class="cls-50" d="m30.11,122.617c-1.601-4.768,3.558-17.548,5.493-12.229,1.921,5.284-4.029,6.157-5.493,12.229Z"/><path class="cls-81" d="m80.413,66.48c7.114,1.551,15.448-3.576,21.477,3.917,0,0-.143.143-.141.141-14.659-.362-23.111,6.266-27.305,21.41.021,1.311.041,2.622.062,3.933-.25,1.805.664,4.248-1.698,5.032-2.332.774-3.281-1.383-4.313-2.993.607-.177,1.754-.467,1.744-.514-2.212-10.482,5.459-18.047,7.972-27.114.733-1.271,1.467-2.542,2.201-3.812Z"/><path class="cls-56" d="m86.168,168.357c-11.066-.627-22.132-1.253-33.198-1.881-1.269.132-1.976-.321-2.122-1.361,22.786-6.87,12.484-4.947,10.979-23.532,9.648.519,9.967,11.404,11.294-2.269.669-6.899-7.737-16.998-.74-22.017,0,0-.012-.055-.012-.057.667.024,1.335.05,2.004.076,0,0,.197.209.195.207.243,7.655,7.224,14.54,9.643,21.664,1.843,5.427-.476,11.712,3.096,16.815,13.47,19.242,24.023-3.334,38.098,4.435-11.289,1.449-3.954,6.665-11.652,11.155-10.509,6.13-17.592-1.098-27.584-3.235Z"/><path class="cls-25" d="m68.495,97.92c1.032,1.61,1.981,3.768,4.313,2.994,2.362-.784,1.448-3.228,1.697-5.033,1.291,1.953,2.583,3.906,3.874,5.859,1.991,1.942,3.981,3.884,5.972,5.826-.695.019-1.39.037-2.085.055-6.827-.356-8.998,7.121-16.268,1.468-4.272-3.322-5.929-10.866.521-13.134.659.655,1.317,1.31,1.976,1.965Z"/><path class="cls-56" d="m66.519,95.956c-6.45,2.268-4.793,9.812-.521,13.134,7.27,5.653,9.441-1.824,16.269-1.468,3.057,5.013-3.066,6.317-3.942,9.74-1.252.054-2.504.108-3.756.163,0,0-.196-.208-.197-.209,1.854-4.351-12.432-6.629-15.051-10.855-4.94-7.969,2.946-22.057,7.199-10.505Z"/><path class="cls-36" d="m72.38,117.296c-6.997,5.019,1.409,15.118.74,22.017-1.327,13.674-1.646,2.789-11.294,2.269,1.505,18.585,11.806,16.662-10.979,23.532.146,1.04.853,1.494,2.122,1.361-.062.527-.114,1.055-.157,1.581-3.214-.109-6.428-.216-9.642-.326,1.595-9.826,11.125-3.498,14.989-7.701-1.895-14.498-14.097-26.439-10.994-42.514,15.583-9.141,4.326,18.181,14.042,18.622,6.641.301.422-16.954,11.173-18.841Z"/><path class="cls-71" d="m86.168,168.357c9.993,2.137,17.076,9.365,27.584,3.235,7.698-4.49.363-9.706,11.652-11.155,3.253,1.337,6.507,2.674,9.76,4.01,2.273,5.778,6.861-.098,9.874,1.959-4.406,4.34-8.794,8.717-15.794,7.842-2.639-.387-3.857-5.95-7.657-2.098-5.573,11.806-20.329,14.152-28.89,4.518-2.336-2.629-4.361-5.534-6.53-8.312Z"/><path class="cls-64" d="m145,84.18c1.247.01,2.494.02,3.74.031-.445,6.661,3.53,12.657,4.141,19.136.556,5.901-2.1,13.483-1.552,18.35.782,6.95,6.683,8.997,1.521,17.294-10.516-12.102-7.553-.795-15.959.056-1.655,2.937-3.445,3.529-5.37,1.778-2.127-1.126-4.116-2.468-5.966-4.026-12.308,1.75-19.692,15.178-19.759-9.579,11.129,1.931,35.357,6.539,33.046-8.638-1.214-7.97-11.226-9.828-13.614-16.136-4.834-12.768,4.57-2.016,3.412-12.357-2.923-1.612-5.966-2.952-9.128-4.018,1.501-3.536,4.494-4.087,7.847-3.916,3.267,0,6.535.002,9.802.002,1.365,5.502,4.408,4.516,7.84,2.024Z"/><path class="cls-24" d="m127.358,82.154c-3.353-.17-6.347.38-7.848,3.916-4.68,8.629-13.634.719-17.336,4.804-4.935,5.446-1.45,2.517-3.664,8.653-2.867,7.949-.877,23.436,7.284,27.692.067,24.756,7.451,11.329,19.759,9.579,1.851,1.558,3.84,2.9,5.966,4.026,1.925,1.751,3.715,1.159,5.37-1.778,8.406-.852,5.443-12.159,15.959-.056.003.622-.015,1.242-.053,1.863-8.752,5.41-37.698,13.152-47.109,5.507-3.805-3.091-3.853-8.638-6.571-11.681-1.791-2.005-5.256,2.239-6.875-.264-5.429-8.393-5.296-17.484-7.888-26.848-1.991-1.942-3.981-3.884-5.972-5.826-.703-6.9,14.184-18.431,19.784-20.063-4.698,1.369,16.331,1.607,13.388,1.543,8.818.19,5.457-8.76,15.806-1.066Z"/><path class="cls-78" d="m84.352,107.566c2.592,9.364,2.459,18.454,7.888,26.848,1.619,2.503,5.085-1.741,6.875.264,2.718,3.044,2.766,8.59,6.571,11.681,9.411,7.646,38.357-.097,47.109-5.507-1.279,2.004-2.557,4.008-3.835,6.013-.007.627-.043,1.252-.108,1.875-5.815,9.054-48.549,14.061-56.637,7.665-5.993-4.74-1.407-8.733-2.545-15.495-1.428-8.48-8.871-15.391-11.345-23.548.877-3.424,7-4.727,3.942-9.74.695-.018,1.39-.037,2.085-.055Z"/><path class="cls-57" d="m78.325,117.362c2.474,8.158,9.917,15.069,11.345,23.548,1.139,6.762-3.448,10.755,2.545,15.495,8.088,6.397,50.822,1.389,56.637-7.665-.867,13.077-2.799,15.295-13.687,15.706-3.254-1.336-6.507-2.673-9.76-4.01-14.075-7.77-24.628,14.807-38.098-4.435-3.572-5.103-1.253-11.388-3.096-16.815-2.419-7.123-9.4-14.009-9.643-21.664,1.254-.053,2.506-.107,3.758-.161Z"/><path class="cls-81" d="m143.014,66.491c-2.779.064-4.773,1.318-5.897,3.889-8.454.038-16.909.076-25.363.113l-.091-.091c-.359-5.928,2.717-7.844,8.308-7.895,7.974-.072,15.485,1.954,23.042,3.983Z"/><path class="cls-81" d="m101.89,70.398c3.258.002,6.516.004,9.774.005,0,0,.09.091.089.09-.038.621-.051,1.244-.042,1.868-4.43.937-5.541,5.12-7.112,8.624-3.073-2.068-2.462-4.506-2.743-6.66-.036-1.261-.073-2.522-.109-3.783l.143-.143Z"/><path class="cls-30" d="m111.711,72.36c-.01-.623.004-1.246.042-1.868,8.456-.037,16.91-.074,25.364-.112,5.206,3.128,5.775,8.902,7.882,13.799-3.432,2.493-6.474,3.479-7.84-2.023,4.828-2.932,4.449-5.387-1.001-6.346-8.101-1.424-16.294-2.326-24.448-3.451Z"/><path class="cls-54" d="m111.711,72.36c8.154,1.124,16.347,2.026,24.448,3.451,5.45.958,5.829,3.413,1.001,6.346-3.267,0-6.535-.002-9.802-.002-10.349-7.693-6.988,1.256-15.806,1.066,2.943.063-18.086-.174-13.388-1.543-5.6,1.632-20.488,13.163-19.784,20.063-1.291-1.953-2.583-3.906-3.874-5.859-.02-1.311-.041-2.622-.062-3.932,6.583.44,9.316-4.337,12.402-8.884,3.554-5.236,7.416-10.281,15.01-8.741.281,2.154-.33,4.592,2.743,6.66,1.571-3.504,2.682-7.687,7.112-8.624Z"/><path class="cls-25" d="m101.856,74.324c-7.593-1.54-11.456,3.505-15.01,8.741-3.086,4.547-5.819,9.324-12.402,8.884,4.193-15.144,12.646-21.772,27.305-21.41.034,1.263.071,2.524.107,3.785Z"/><path class="cls-22" d="m105.795,127.22c-8.16-4.256-10.151-19.744-7.284-27.692,2.214-6.136-1.272-3.207,3.664-8.653,3.702-4.085,12.656,3.824,17.336-4.804,3.163,1.067,6.205,2.406,9.128,4.018,1.158,10.341-8.246-.411-3.412,12.357,2.388,6.308,12.4,8.166,13.614,16.136,2.311,15.178-21.917,10.569-33.046,8.638Z"/></svg>