<?xml version="1.0" encoding="UTF-8"?><svg id="Layer_1" xmlns="http://www.w3.org/2000/svg" viewBox="0 0 199.261 195.661"><defs><style>.cls-1{fill:#2e4096;}.cls-2{fill:#6b94cd;}.cls-3{fill:#425eab;}.cls-4{fill:#779bd1;}.cls-5{fill:#7097ce;}.cls-6{fill:#4d6ab2;}.cls-7{fill:#4462ad;}.cls-8{fill:#1f1d5a;}.cls-9{fill:#8eb1dd;}.cls-10{fill:#3b51a3;}.cls-11{fill:#627ebf;}.cls-12{fill:#3d4ea1;}.cls-13{fill:#292e74;}.cls-14{fill:#5065af;}.cls-15{fill:#7da6d8;}.cls-16{fill:#576fb5;}.cls-17{fill:#84b6e2;}.cls-18{fill:#314198;}.cls-19{fill:#2b348b;}.cls-20{fill:#3a4a9f;}.cls-21{fill:#8091c9;}.cls-22{fill:#7d97ce;}.cls-23{fill:#516bb3;}.cls-24{fill:#4156a6;}.cls-25{fill:#2b3e98;}.cls-26{fill:#2a3282;}.cls-27{fill:#7d93cb;}.cls-28{fill:#35459a;}.cls-29{fill:#3952a4;}.cls-30{fill:#2b368e;}.cls-31{fill:#495fab;}.cls-32{fill:#2d3f97;}.cls-33{fill:#2c358e;}.cls-34{fill:#6f91cb;}.cls-35{fill:#4a65af;}.cls-36{fill:#4e64ae;}.cls-37{fill:#27286f;}.cls-38{fill:#5771b6;}.cls-39{fill:#4f68b1;}.cls-40{fill:#82abdb;}.cls-41{fill:#4663ae;}.cls-42{fill:#8da7d6;}.cls-43{fill:#384a9f;}.cls-44{fill:#2e3b95;}.cls-45{fill:#3a4da1;}.cls-46{fill:#292f79;}.cls-47{fill:#22215f;}.cls-48{fill:#394a9f;}.cls-49{fill:#7a92cb;}.cls-50{fill:#5e80c0;}.cls-51{fill:#282c72;}.cls-52{fill:#384ea1;}.cls-53{fill:#2b3891;}.cls-54{fill:#708ec8;}.cls-55{fill:#4a5ba8;}.cls-56{fill:#2f4098;}.cls-57{fill:#88aad9;}.cls-58{fill:#556eb5;}.cls-59{fill:#2a2f7b;}.cls-60{fill:#26296d;}.cls-61{fill:#5677ba;}.cls-62{fill:#4359a8;}</style></defs><path class="cls-21" d="m162.242,176.427c-2.636,1.84-5.272,3.68-7.908,5.519-1.3.708-2.601,1.418-3.901,2.128-9.856,2.992-19.648,6.228-29.596,8.878-5.34,1.422-10.948,1.838-16.436,2.708-7.14-.563-14.28-1.126-21.419-1.69,5.172,0,10.343,0,14.55,0-3.559-4.019-6.976-7.877-10.395-11.735.63,0,1.261.006,1.893.02,1.471,1.824,3.187,5.377,4.376,5.209,14.6-2.064,29.123-4.673,43.666-7.141.637.024,1.27-.012,1.899-.109,7.703-5.712,15.405-11.425,23.108-17.137,3.156-10.714,12.465-16.753,18.935-24.951.345-.437.257-1.216.371-1.835,8.769-7.82,10.647-32.407,11.424-43.728,1.092-15.902-8.024-22.659-9.634-37.013-.606-4.565-1.213-9.129-1.819-13.694,3.818,5.817,7.637,11.635,11.455,17.453,8.952,26.095,8.793,51.8-1.762,77.636-6.421,15.716-16.796,28.078-28.805,39.481Z"/><path class="cls-49" d="m181.355,41.856c.606,4.565,1.213,9.129,1.819,13.694-2.567-2.575-5.134-5.151-7.701-7.726-1.245-1.472-2.996-2.749-3.655-4.448-4.653-12.002-14.959-19.843-27.125-20.33-.605-2.003-1.211-4.005-1.816-6.008-4.264-2.5-8.808-3.335-12.807-7.861-3.497-3.957-13.04-2.58-19.912-3.559,2.004-.954,4.008-1.908,6.129-2.917-.773-.916-1.525-1.808-2.278-2.7,27.987,5.055,51.57,17.184,67.346,41.856Z"/><path class="cls-57" d="m114.009,0c.752.892,1.505,1.784,2.278,2.7-2.121,1.009-4.125,1.963-6.128,2.917-.679.625-1.358,1.25-2.037,1.875-6.997.033-13.995.065-20.992.098-3.155-1.909-6.311-3.818-9.466-5.727.599-.606,1.199-1.213,1.798-1.818C90.977.03,102.493.015,114.009,0Z"/><path class="cls-42" d="m12.307,47.905c1.077-.779,2.153-1.557,3.231-2.334.816,1.414,1.631,2.826,2.445,4.238-2.603,6.35-5.206,12.701-7.808,19.051-1.044,6.808-2.211,13.6-3.109,20.427-2.265,17.213,1.754,33.3,9.03,48.768,6.406,8.301,12.813,16.602,19.219,24.903,9.726,11.278,20.246,21.202,36.487,21.381-.643,2.34-1.286,4.679-1.928,7.019-.541.3-1.119.412-1.734.336-7.846-4.404-15.817-8.602-23.512-13.253-19.427-11.743-31.892-29.166-40.114-49.944-1.239-5.806-2.479-11.612-3.718-17.418-3.153-22.33,3.551-42.866,11.511-63.174Z"/><path class="cls-9" d="m69.874,191.358c.643-2.34,1.285-4.679,1.928-7.021,3.885-.62,7.77-1.238,11.655-1.859,1.24-.099,2.481-.196,3.722-.293,0,0-.04.048-.04.048,3.417,3.858,6.834,7.717,10.393,11.736-4.207,0-9.378,0-14.55,0-4.37-.87-8.739-1.741-13.108-2.612Z"/><path class="cls-62" d="m181.385,136.291c-.114.619-.026,1.398-.371,1.835-6.47,8.198-15.779,14.237-18.936,24.951-3.746-.528-7.536-.846-11.228-1.627-8.256-1.746-10.454-6.353-6.061-13.76,3.538-1.968,7.424-3.499,10.549-5.985,9.435-7.507,11-16.456,4.798-24.72.587-.092,1.173-.189,1.758-.29,3.863-3.171,10.541-5.904,11.115-9.586,2.886-18.525,6.389-37.45-3.34-55.34,9.574,2.91,7.86,12.681,11.636,19.115,3.324,21.799,10.328,43.593.08,65.408Z"/><path class="cls-58" d="m181.385,136.291c10.248-21.815,3.244-43.609-.081-65.408-1.944-7.686-3.888-15.373-5.831-23.059,2.567,2.576,5.134,5.151,7.701,7.726,1.611,14.354,10.726,21.111,9.634,37.013-.777,11.321-2.655,35.908-11.424,43.728Z"/><path class="cls-31" d="m138.97,180.214c-.63.097-1.263.133-1.899.109-5.053-1.687-12.005,3.921-15.432-4.011,4.43-4.498,8.86-8.996,13.289-13.494,5.607.225,10.049,3.083,15.089,5.457-3.62,4.646-6.38,8.282-11.048,11.939Z"/><path class="cls-16" d="m138.97,180.214c4.668-3.657,7.428-7.293,11.048-11.939-5.04-2.374-9.482-5.233-15.088-5.456,1.737-1.31,3.474-2.621,6.503-4.909-4.678-.386-7.5-.619-10.321-.852,8.56-2.788,7.911-10.807,9.87-17.345,2.502-5.178,5.004-10.356,7.505-15.534.653.77,1.306,1.539,1.959,2.309-1.886,7.068-3.771,14.135-5.657,21.203-4.393,7.407-2.195,12.014,6.061,13.76,3.692.781,7.482,1.098,11.228,1.627-7.702,5.713-15.405,11.425-23.108,17.137Z"/><path class="cls-36" d="m121.639,176.312c3.427,7.932,10.379,2.324,15.432,4.011-14.543,2.468-29.066,5.077-43.666,7.141-1.189.168-2.905-3.385-4.376-5.209,0,0,.127-.094.126-.093,6.322.53,12.645,1.059,19.829,1.661-3.892-12.016,3.141-10.942,8.98-11.147,1.225,1.212,2.45,2.425,3.675,3.637Z"/><path class="cls-36" d="m89.029,182.254c-.632-.014-1.263-.02-1.893-.02.002,0,.042-.049.042-.049,0-7.862,0-15.724,0-25.92-3.516,3.007-4.633,3.962-5.749,4.916-.051-1.301-.102-2.601-.152-3.902-.017-4.439-.035-8.877-.052-13.316-.383-1.501-.765-3.001-1.148-4.502,1.768.101,3.536.202,5.303.306,1.254,1.384,2.509,2.767,3.764,4.149,1.304,2.434,2.608,4.868,3.913,7.302-1.815,1.043-3.631,2.085-5.514,3.167,1.105,4.505,2.306,9.404,3.507,14.303-.631,4.49-1.262,8.98-1.893,13.471l-.127.094Z"/><path class="cls-22" d="m17.984,49.809c-.815-1.412-1.629-2.825-2.445-4.239C29.587,21.55,50.7,7.556,77.662,1.862c3.156,1.909,6.311,3.818,9.467,5.727-.057.561-.124,1.122-.198,1.683-10.759-1.906-20.681-.604-28.822,7.519-5.253,2.632-11.449,4.259-15.56,8.109-8.166,7.648-15.184,16.521-22.677,24.887-.63,0-1.259.008-1.889.022Z"/><path class="cls-35" d="m142.878,17.037c.605,2.003,1.211,4.005,1.817,6.007-.621,1.882-1.243,3.764-1.865,5.646-.658-.639-1.316-1.278-1.974-1.917-4.486-1.443-8.972-2.886-13.458-4.33-1.227,5.22-3.73,11.917-3.615,17.427-5.284-8.807-14.094-10.315-23.208-11.193-1.406-1.909-2.812-3.818-4.218-5.727l.804-.03c10.454,6.866,20.176,5.378,25.49-4.901-6.907-1.619-13.545-3.174-20.184-4.73,3.246-1.87,6.491-3.741,9.737-5.611,15.496.975,17.028,2.054,15.664,11.083,5.012-.576,10.012-1.151,15.011-1.725Z"/><path class="cls-7" d="m142.829,28.691c.622-1.883,1.244-3.765,1.865-5.647,12.165.488,22.471,8.329,27.124,20.331.659,1.699,2.41,2.976,3.655,4.448,1.943,7.686,3.887,15.373,5.831,23.059-3.775-6.434-2.061-16.205-11.635-19.115,0,0,.03,0,.031,0-1.471-1.058-2.941-2.115-4.147-2.981,1.038-2.078,2.053-4.11,3.068-6.141-4.117,1.058-8.183.881-12.198-.533-4.524-3.867-9.048-7.733-13.571-11.6,0-.607-.008-1.215-.023-1.822Z"/><path class="cls-11" d="m142.878,17.037c-5,.575-9.999,1.149-15.011,1.725,1.364-9.029-.168-10.108-15.665-11.084-1.361-.063-2.72-.125-4.08-.187.679-.625,1.358-1.25,2.037-1.875,6.872.979,16.415-.398,19.912,3.559,3.999,4.526,8.543,5.361,12.807,7.861Z"/><path class="cls-61" d="m108.121,7.491c1.36.062,2.719.124,4.08.187-3.245,1.871-6.49,3.742-9.735,5.612-6.112.821-6.021,5.054-5.306,9.631,0,0-.804.03-.802.03-1.691.093-3.383.186-5.076.278.856-3.73,1.712-7.459,2.802-12.213-2.284-.436-4.532-.865-6.781-1.294l-.374-.453c.076-.559.142-1.12.2-1.681,6.997-.032,13.995-.065,20.992-.097Z"/><path class="cls-2" d="m16.096,138.055c-7.276-15.468-11.295-31.554-9.03-48.768.898-6.827,2.065-13.619,3.11-20.426.063.74.125,1.478.186,2.215-.257,7.358.164,14.325,5.853,15.48,4.978,6.497,8.233,10.743,11.487,14.99,1.276,1.886,2.553,3.773,3.829,5.659-.687.707-1.373,1.414-2.06,2.121-2.742-3.021-6.156-4.669-10.24-4.945.362,3.062.71,5.946,1.579,7.106-7.491,9.731-6.061,14.079-4.714,26.568Z"/><path class="cls-23" d="m16.097,138.055c-1.347-12.489-2.777-16.837,4.714-26.568-.869-1.16-1.217-4.045-1.579-7.106,4.084.276,7.498,1.925,10.241,4.945.634,1.864,1.268,3.728,1.902,5.592-.601,1.347-1.202,2.695-1.803,4.042-3.237,1.364-6.474,2.729-9.711,4.093-1.07-.162-2.141-.325-3.211-.487,2.385,7.474,4.771,14.948,7.156,22.422,1.053-.234,2.106-.467,3.159-.701.423-2.846.845-5.693,1.171-7.887,5.159.283,9.443.517,14.85.813-15.647,9.981-10.699,14.541-2.056,27.867-1.871-.707-3.743-1.414-5.614-2.121-6.406-8.301-12.812-16.602-19.219-24.903Z"/><path class="cls-27" d="m35.315,162.959c1.871.707,3.743,1.414,5.615,2.12,0,0,.004-.015.004-.015,4.029,1.916,8.058,3.832,12.701,6.04,3.059,13.669,18.951,11.141,29.396,10.97l.426.406c-3.885.618-7.771,1.237-11.656,1.857-16.24-.177-26.761-10.101-36.486-21.379Z"/><path class="cls-54" d="m10.363,71.078c-.062-.738-.124-1.477-.187-2.216,2.602-6.352,5.204-12.702,7.807-19.053.63-.014,1.259-.022,1.889-.022.598,3.268,1.196,6.535,1.795,9.801.001,2.472.001,4.946.001,7.654-2.294-1.326-4.22-2.44-6.122-3.539-1.983,2.821-3.584,5.098-5.184,7.375Z"/><path class="cls-5" d="m81.429,161.182c1.116-.955,2.232-1.909,5.749-4.916,0,10.196,0,18.058,0,25.92-1.241.097-2.482.194-3.722.293.001.002-.425-.404-.423-.403.123-.588.158-1.183.109-1.783-.58-6.375-1.16-12.749-1.74-19.124,0,0,.027.013.027.013Z"/><path class="cls-32" d="m169.669,51.768c9.729,17.89,6.226,36.815,3.34,55.34-.574,3.682-7.252,6.415-11.114,9.588.728-1.991,1.084-4.24,2.249-5.931,3.595-5.217,1.349-15.039-4.085-16.863,9.436-8.66,9.094-18.585,4.257-29.432-1.475-3.308-1.589-7.222-2.326-10.859,2.57-.614,5.14-1.228,7.709-1.842h-.03Z"/><path class="cls-26" d="m160.058,93.901c5.435,1.825,7.68,11.646,4.086,16.864-1.165,1.692-1.522,3.94-2.249,5.931-.586.099-1.172.196-1.759.288-1.353.642-2.707,1.284-4.059,1.926-4.356-6.499-8.713-12.999-13.07-19.498,5.684-1.837,11.368-3.674,17.052-5.511Z"/><path class="cls-28" d="m156.076,118.91c1.353-.642,2.706-1.284,4.06-1.926,6.202,8.265,4.637,17.214-4.798,24.721-3.125,2.486-7.011,4.017-10.549,5.985,1.886-7.068,3.771-14.135,5.657-21.203,1.877-2.526,3.753-5.051,5.63-7.577Z"/><path class="cls-4" d="m121.639,176.312c-1.225-1.212-2.45-2.425-3.676-3.637.704-1.891,1.409-3.782,2.112-5.673,2.418-2.617,4.837-5.234,7.257-7.85,1.26-.698,2.52-1.396,3.78-2.094,2.822.233,5.643.466,10.321.852-3.03,2.288-4.766,3.599-6.503,4.909-4.431,4.497-8.861,8.995-13.291,13.493Z"/><path class="cls-30" d="m131.112,157.058c-1.26.698-2.52,1.396-3.779,2.094-10.888,8.625-22.155.48-33.515,1.561.375-3.616.664-6.41.954-9.204,12.115.609,51.217,1.979,36.613-23.113.064-4.088.066-8.128-5.863-7.599,2.554-1.28,5.109-2.56,7.663-3.839,2.599,7.585,5.197,15.17,7.796,22.755-1.959,6.538-1.31,14.557-9.87,17.345Z"/><path class="cls-60" d="m140.982,139.713c-2.599-7.585-5.197-15.17-7.796-22.754,1.846-1.595,3.691-3.191,4.057-3.507h9.204c.68,3.576,1.36,7.152,2.04,10.728-2.502,5.178-5.003,10.356-7.505,15.534Z"/><path class="cls-40" d="m148.487,124.178c-.68-3.576-1.36-7.152-2.04-10.73-4.336-5.271-8.673-10.54-13.009-15.808,1.157-1.769,2.314-3.538,3.471-5.307,2.033,2.359,4.065,4.719,6.098,7.078,4.357,6.5,8.714,12.999,13.07,19.498-1.878,2.525-3.754,5.051-5.631,7.577-.653-.77-1.306-1.539-1.959-2.309Z"/><path class="cls-31" d="m120.077,167.002c-.705,1.891-1.409,3.782-2.113,5.673-5.838.205-12.871-.87-8.979,11.147-7.183-.601-13.507-1.131-19.829-1.661.632-4.491,1.263-8.981,1.893-13.47,7.581.657,15.156,1.605,22.748,1.777,2.066.047,4.185-2.246,6.28-3.465Z"/><path class="cls-13" d="m85.38,139.766c-1.768-.101-3.536-.202-5.292-.296-1.434-1.111-2.879-2.23-4.326-3.347-.899-2.491-1.745-5.003-2.703-7.471-2.235-5.755-4.524-11.489-6.791-17.232.681-1.924,1.362-3.848,2.043-5.772,1.627,1.413,3.254,2.825,5.213,4.526,4.637-11.71,46.94-1.532,57.708-.843-8.981,5.045-17.962,10.09-26.943,15.136.275-17.63-15.959-9.728-24.884-15.418-2.961,12.684,1.611,16.705,9.842,25.416-1.289,1.767-2.578,3.534-3.867,5.302Z"/><path class="cls-18" d="m104.289,124.467c8.981-5.045,17.962-10.09,26.944-15.136,2.919-8.573.559-9.774-11.579-10.089-16.012-.416-31.988-2.237-47.979-3.453,1.24-1.455,2.481-2.909,3.721-4.364,6.261,6.097,26.673,6.928,35.154,4.646,9.37-2.522,9.351-9.192,16.756-11.63,2.044,4.4,4.088,8.8,6.132,13.2,4.336,5.269,8.673,10.537,13.009,15.808-2.549.002-5.099.002-9.204.002-.366.316-2.211,1.912-4.057,3.507-2.555,1.28-5.109,2.559-7.663,3.839-4.965,1.973-10.145,3.54-14.842,6.02-6.216,3.281-12.054,7.276-18.054,10.965-1.161,2.045-2.322,4.09-3.484,6.136-1.255-1.382-2.51-2.765-3.764-4.149,1.29-1.769,2.579-3.536,3.867-5.305,5.013-3.333,10.028-6.665,15.043-9.996Z"/><path class="cls-56" d="m29.571,118.96c.601-1.347,1.202-2.695,1.803-4.041,8.928.103,17.856.205,26.784.307.051.635.1,1.271.15,1.906-4.132,2.24-11.269-.742-11.693,7.958-.527,10.823,6.753,15.045,14.101,20.7,1.29-6.752,2.337-12.238,3.385-17.723.666.235,1.332.471,1.998.706-.017,4.349-.033,8.699-.05,13.048-1.462,11.583,6.279,14.114,15.227,15.458.051,1.301.101,2.601.152,3.902,0,0-.026-.013-.027-.013-2.585-.649-5.169-1.297-7.753-1.945-14.039-6.288-26.367-14.223-29.42-29.362-10.544,4.428-14.816,2.428-14.658-10.901Z"/><path class="cls-37" d="m89.143,143.917c1.161-2.045,2.323-4.09,3.485-6.134,10.863,13.279,37.988,11.919,38.757-9.387,14.604,25.092-24.498,23.722-36.613,23.113-.575-.082-1.147-.179-1.717-.29-1.304-2.434-2.608-4.868-3.913-7.302Z"/><path class="cls-43" d="m93.056,151.219c.57.111,1.143.208,1.717.29-.29,2.794-.58,5.588-.955,9.203,11.36-1.081,22.627,7.063,33.515-1.561-2.42,2.617-4.839,5.233-7.257,7.85-2.093,1.219-4.212,3.512-6.279,3.465-7.593-.172-15.168-1.12-22.748-1.777-1.2-4.9-2.402-9.799-3.507-14.305,1.883-1.082,3.698-2.124,5.514-3.167Z"/><path class="cls-51" d="m66.05,141.822c.017-4.349.033-8.699.049-13.048,3.221,2.45,6.443,4.899,9.665,7.348,1.445,1.119,2.89,2.237,4.324,3.348.371,1.493.754,2.994,1.138,4.494-.258,2.293-.517,4.587-.776,6.88-.848.566-1.696,1.132-2.543,1.698-3.952-3.573-7.905-7.147-11.857-10.72Z"/><path class="cls-1" d="m66.05,141.822c3.952,3.573,7.905,7.147,11.857,10.72.848-.566,1.696-1.132,2.543-1.698.259-2.294.518-4.587.775-6.88.017,4.439.035,8.878.052,13.316-8.949-1.345-16.69-3.876-15.227-15.459Z"/><path class="cls-38" d="m21.666,59.59c-.598-3.268-1.196-6.535-1.794-9.803,7.492-8.367,14.51-17.239,22.676-24.887,4.111-3.85,10.307-5.477,15.561-8.106.001.003.319.614.319.614-1.261,8.108,4.395,7.442,9.499,7.478-.638,1.881-1.277,3.763-1.915,5.645-.658.035-1.317.068-1.974.102-11.902-8.257-13.889-8.182-24.041,2.011-5.547,5.569-10.763,11.466-16.129,17.215-.734,3.244-1.469,6.488-2.203,9.731Z"/><path class="cls-61" d="m66.013,30.53c.638-1.881,1.277-3.763,1.915-5.644,2.854-3.489,5.708-6.977,10.336-12.633-8.441,2.194-14.138,3.674-19.835,5.155,0,0-.318-.611-.319-.614,8.139-8.126,18.062-9.428,28.821-7.522-.002-.002.372.451.37.449-3.545,10.563-13.301,14.782-21.288,20.81Z"/><path class="cls-45" d="m143.007,99.412c-2.033-2.359-4.066-4.719-6.098-7.08-7.435-10.06-10.148-20.656-3.544-32.524,4.531-.205,9.059-.446,13.586-.725.17-.571.341-1.141.511-1.712-2.298-1.167-4.595-2.334-6.893-3.5-3.099-1.963-6.197-3.926-9.296-5.889.064-8.481.241-16.911,9.582-21.208.658.639,1.316,1.278,1.974,1.917.015.607.023,1.215.023,1.823-1.841,2.509-3.683,5.016-5.328,7.258,3.755,5.605,7.247,17.034,14.957,15.84,3.17,2.188,6.34,5.224,9.509-.002.738,3.637.852,7.55,2.327,10.859,4.837,10.847,5.179,20.772-4.257,29.432-5.685,1.837-11.368,3.674-17.052,5.511Zm-1.805-10.149c20.837,4.114,25.713-6.587,20.448-21.346-8.962-25.125-19.491,16.692-20.448,21.346Z"/><path class="cls-52" d="m97.16,22.921c-.714-4.576-.806-8.81,5.306-9.631,6.638,1.555,13.277,3.111,20.184,4.73-5.314,10.279-15.036,11.767-25.49,4.901Z"/><path class="cls-15" d="m91.281,23.23c1.693-.093,3.385-.185,5.076-.278,1.404,1.909,2.81,3.818,4.216,5.727-.03,1.212-.059,2.423-.088,3.636-6.448,5.134-12.896,10.267-19.345,15.399-3.77,1.331-7.541,2.663-11.311,3.994,3.586-3.485,6.922-7.282,10.814-10.384,5.949-4.74,11.092-9.705,10.638-18.094Z"/><path class="cls-10" d="m140.855,26.774c-9.341,4.296-9.518,12.727-9.581,21.207-2.497-2.704-4.994-5.407-7.492-8.11-.115-5.511,2.389-12.207,3.615-17.427,4.486,1.443,8.972,2.887,13.458,4.33Z"/><path class="cls-34" d="m123.781,39.871c2.497,2.703,4.995,5.406,7.492,8.11,3.099,1.963,6.197,3.926,9.298,5.888-4.912,5.076-7.108,4.835-12.323-.795-5.866-6.333-11.929-12.485-17.907-18.715-3.286-.682-6.572-1.363-9.857-2.045.029-1.212.059-2.423.089-3.635,9.114.878,17.924,2.386,23.208,11.193Z"/><path class="cls-25" d="m152.481,53.612c-7.71,1.194-11.203-10.235-14.957-15.84,1.646-2.242,3.487-4.75,5.328-7.258,4.524,3.866,9.048,7.732,13.57,11.599-1.315,3.833-2.628,7.666-3.941,11.5Z"/><path class="cls-62" d="m152.481,53.612c1.313-3.833,2.626-7.667,3.941-11.5,4.017,1.414,8.083,1.591,12.2.533-1.015,2.032-2.03,4.063-3.068,6.141,1.205.866,2.676,1.923,4.147,2.981-2.57.615-5.139,1.229-7.709,1.843-3.169,5.226-6.339,2.19-9.509.002Z"/><path class="cls-3" d="m91.281,23.23c.454,8.389-4.689,13.354-10.638,18.094-3.892,3.101-7.229,6.899-10.814,10.384-1.272.007-2.544.014-3.815.021-.658-7.032-1.317-14.064-1.975-21.096.658-.034,1.316-.068,1.975-.102,7.987-6.028,17.744-10.248,21.288-20.81,2.25.432,4.499.861,6.783,1.296-1.091,4.754-1.947,8.484-2.802,12.213Z"/><path class="cls-53" d="m31.531,107.205c-1.276-1.886-2.553-3.773-3.83-5.659,1.87-8.308,3.741-16.616,5.612-24.924,6.409-5.743,12.819-11.486,19.228-17.229,1.296,1.928,2.804,3.749,3.85,5.805,3.895,7.651,7.639,15.379,11.439,23.078-1.264,5.058-2.527,10.115-3.791,15.172-1.873,1.367-3.746,2.733-5.619,4.1,1.336-5.247,2.672-10.493,4.04-15.867-7.379-4.614-24.658-16.605-25.455,1.117-.554,12.31,12.145,13.306,21.524,14.702-.705.635-1.409,1.269-2.114,1.904-8.295-.733-16.589-1.466-24.884-2.199Z"/><path class="cls-6" d="m33.314,76.622c-1.871,8.308-3.742,16.616-5.612,24.924-3.254-4.247-6.508-8.494-11.486-14.99-5.689-1.155-6.11-8.122-5.853-15.48,1.601-2.276,3.202-4.553,5.185-7.373,1.902,1.1,3.828,2.213,6.122,3.539,0-2.708,0-5.182-.001-7.654.733-3.242,1.467-6.486,2.2-9.73.552,6.433,1.105,12.866,1.658,19.3,2.575,1.112,5.151,2.224,7.726,3.337.021,1.376.041,2.752.062,4.128Z"/><path class="cls-50" d="m31.531,107.205c8.295.733,16.589,1.466,24.884,2.198-1.34,1.013-2.681,2.025-3.793,2.865,1.898,1.014,3.716,1.986,5.535,2.958-8.928-.102-17.855-.204-26.783-.307-.634-1.865-1.268-3.729-1.902-5.593.687-.707,1.373-1.414,2.06-2.121Z"/><path class="cls-24" d="m29.571,118.96c-.158,13.329,4.114,15.33,14.657,10.901,3.053,15.139,15.381,23.075,29.421,29.362-2.922.21-5.845.419-8.768.629-.213.813-.425,1.627-.638,2.44,6.892,4.07,18.563,8.05,17.065,17.979-14.367-8.558-23.563-14.758-40.374-15.208,0,0-.004.014-.004.015-8.644-13.324-13.592-17.885,2.055-27.866-5.407-.296-9.691-.531-14.85-.813-.326,2.195-.748,5.041-1.171,7.887-1.053.234-2.106.467-3.159.701-2.385-7.474-4.771-14.948-7.156-22.422,1.07.162,2.141.325,3.211.487,3.237-1.364,6.474-2.729,9.711-4.093Z"/><path class="cls-23" d="m40.934,165.065c16.811.45,26.007,6.65,40.375,15.208,0,0,.917.025.917.025l.917-.005c.049.6.014,1.194-.109,1.783-10.447.17-26.339,2.698-29.398-10.971-4.642-2.208-8.672-4.124-12.701-6.04Z"/><path class="cls-41" d="m83.142,180.293l-.917.005s-.916-.024-.917-.025c1.498-9.93-10.174-13.91-17.066-17.98.213-.813.425-1.627.638-2.44,2.923-.21,5.845-.419,8.768-.629,2.584.649,5.168,1.297,7.753,1.946.58,6.375,1.16,12.749,1.74,19.124Z"/><path class="cls-8" d="m131.385,128.397c-.769,21.306-27.894,22.666-38.757,9.387,5.999-3.69,11.837-7.685,18.053-10.967,4.697-2.48,9.877-4.047,14.842-6.02,5.928-.528,5.926,3.512,5.863,7.599Z"/><path class="cls-14" d="m33.314,76.622c-.021-1.376-.041-2.752-.061-4.125,6.421-6.315,12.842-12.632,19.263-18.949,4.5-.606,8.999-1.213,13.499-1.819,1.272-.007,2.544-.014,3.815-.021,3.77-1.331,7.541-2.663,11.312-3.993,5.289,7.965,16.951,18.521,27.126,10.489,10.036-7.923-.913-16.764-8-23.201,4.443-.284,7.258-.464,10.073-.644,5.978,6.231,12.04,12.382,17.907,18.715,5.215,5.63,7.411,5.871,12.323.795,2.295,1.168,4.593,2.335,6.891,3.502-.17.571-.341,1.141-.511,1.712-4.527.279-9.055.521-13.586.725-6.604,11.868-3.891,22.464,3.544,32.524-1.158,1.771-2.315,3.54-3.471,5.309-2.043-4.4-4.087-8.8-6.13-13.202-.606-2.573-1.213-5.144-1.82-7.716-.764-3.469-1.528-6.938-2.006-9.111-18.904,3.965-34.159-.656-49.766-14.791v20.068c-.862,5.082-1.724,10.164-2.586,15.246-.917-.344-1.371-.967-1.364-1.869-.005-3.834-.009-7.668-.014-11.502-.147-7.429,2.091-16.171-9.531-17.282-2.56.637-5.12,1.274-7.68,1.91-6.409,5.743-12.819,11.486-19.228,17.229Z"/><path class="cls-12" d="m69.767,86.268c-.008.902.446,1.525,1.364,1.869.862-5.082,1.724-10.164,2.585-15.247,16.479,11.764,33.356,18.175,51.772,3.834.607,2.572,1.214,5.143,1.82,7.716-7.407,2.44-7.388,9.11-16.758,11.631-8.481,2.282-28.893,1.451-35.154-4.646-1.24,1.455-2.481,2.909-3.72,4.364-1.121,3.287-2.243,6.573-3.365,9.859-.681,1.924-1.362,3.848-2.043,5.77-.743-2.658-1.485-5.314-2.228-7.97,1.264-5.058,2.527-10.115,3.792-15.173.645-.67,1.29-1.338,1.935-2.007Z"/><path class="cls-19" d="m68.311,105.648c1.122-3.286,2.244-6.572,3.365-9.859,15.991,1.216,31.966,3.037,47.978,3.453,12.138.315,14.498,1.516,11.579,10.089-10.769-.689-53.071-10.867-57.709.843-1.959-1.701-3.586-3.113-5.213-4.526Z"/><path class="cls-47" d="m104.289,124.467c-5.015,3.332-10.03,6.663-15.043,9.996-8.23-8.71-12.802-12.73-9.841-25.415,8.925,5.691,25.159-2.212,24.884,15.418Z"/><path class="cls-17" d="m64.04,103.448c.743,2.656,1.485,5.313,2.228,7.97,2.267,5.744,4.556,11.478,6.791,17.233.958,2.468,1.804,4.98,2.703,7.471-3.22-2.45-6.442-4.9-9.663-7.349-.665-.235-1.331-.471-1.996-.704-1.931-3.644-3.863-7.291-5.794-10.938-.05-.635-.1-1.271-.15-1.906-1.819-.972-3.638-1.944-5.535-2.958,1.111-.84,2.452-1.852,3.793-2.865.705-.634,1.409-1.269,2.114-1.904,0,0-.108.048-.108.048,1.873-1.367,3.746-2.733,5.619-4.1Z"/><path class="cls-46" d="m58.309,117.132c1.932,3.647,3.864,7.293,5.794,10.938-1.049,5.483-2.097,10.969-3.386,17.721-7.349-5.655-14.629-9.877-14.101-20.7.424-8.701,7.561-5.719,11.693-7.958Z"/><path class="cls-20" d="m66.014,51.729c-4.5.606-8.999,1.213-13.499,1.82-9.196-22.275-22.596,3.906-26.99,15.609-.553-6.434-1.106-12.867-1.658-19.3,5.367-5.749,10.583-11.646,16.13-17.215,10.152-10.192,12.139-10.268,24.041-2.011.658,7.032,1.317,14.064,1.975,21.096Z"/><path class="cls-29" d="m58.429,17.408c5.697-1.481,11.394-2.961,19.835-5.155-4.628,5.656-7.482,9.144-10.336,12.633-5.104-.035-10.76.63-9.499-7.478Z"/><path class="cls-33" d="m141.201,89.263c.957-4.654,11.486-46.471,20.448-21.346,5.265,14.759.389,25.46-20.448,21.346Z"/><path class="cls-39" d="m110.342,34.358c-2.815.18-5.631.36-10.073.644,7.086,6.437,18.036,15.279,8,23.201-10.175,8.032-21.838-2.524-27.126-10.489,6.447-5.134,12.896-10.266,19.343-15.4,3.285.68,6.571,1.362,9.857,2.043Z"/><path class="cls-59" d="m58.529,107.5c-9.379-1.396-22.078-2.392-21.524-14.702.798-17.722,18.077-5.731,25.455-1.117-1.368,5.373-2.705,10.62-4.04,15.867,0,0,.108-.048.108-.048Z"/><path class="cls-48" d="m69.767,86.268c-.645.669-1.289,1.338-1.935,2.007-3.801-7.698-7.545-15.426-11.44-23.077-1.046-2.055-2.554-3.876-3.85-5.805,2.56-.637,5.12-1.274,7.68-1.911,2.242,6.275.474,14.759,9.531,17.282.005,3.834.009,7.668.014,11.502Z"/><path class="cls-44" d="m25.526,69.158c4.394-11.703,17.793-37.884,26.99-15.609-6.421,6.317-12.842,12.634-19.263,18.948-2.576-1.115-5.151-2.227-7.727-3.339Z"/><path class="cls-55" d="m125.488,76.723c-18.416,14.342-35.293,7.931-51.772-3.834,0-5.541,0-11.083,0-20.068,15.607,14.135,30.861,18.756,49.766,14.791.479,2.173,1.242,5.642,2.006,9.111Z"/><path class="cls-12" d="m69.753,74.765c-9.057-2.523-7.289-11.007-9.531-17.282,11.622,1.111,9.383,9.853,9.531,17.282Z"/></svg>