<?xml version="1.0" encoding="UTF-8"?><svg id="Layer_1" xmlns="http://www.w3.org/2000/svg" viewBox="0 0 309.998 240.176"><defs><style>.cls-1{fill:#f39044;}.cls-2{fill:#c75e2a;}.cls-3{fill:#963838;}.cls-4{fill:#edb071;}.cls-5{fill:#ae4425;}.cls-6{fill:#ca5e28;}.cls-7{fill:#aa8582;}.cls-8{fill:#47211c;}.cls-9{fill:#783c39;}.cls-10{fill:#ac8287;}.cls-11{fill:#471214;}.cls-12{fill:#f2ab57;}.cls-13{fill:#ba5627;}.cls-14{fill:#967889;}.cls-15{fill:#9b696f;}.cls-16{fill:#f18d3c;}.cls-17{fill:#ba5027;}.cls-18{fill:#af4a2a;}.cls-19{fill:#d36928;}.cls-20{fill:#7d5963;}.cls-21{fill:#9e7364;}.cls-22{fill:#2a0f10;}.cls-23{fill:#804044;}.cls-24{fill:#8c301d;}.cls-25{fill:#d56228;}.cls-26{fill:#efb072;}.cls-27{fill:#a78281;}.cls-28{fill:#ee9571;}.cls-29{fill:#965962;}.cls-30{fill:#d96829;}.cls-31{fill:#832626;}.cls-32{fill:#986e6f;}.cls-33{fill:#974f57;}.cls-34{fill:#e97f32;}.cls-35{fill:#ee8c32;}.cls-36{fill:#f1893f;}.cls-37{fill:#f3d27e;}.cls-38{fill:#431b15;}.cls-39{fill:#ac7d75;}.cls-40{fill:#82393d;}.cls-41{fill:#7e3438;}.cls-42{fill:#3f1f19;}.cls-43{fill:#8d6271;}.cls-44{fill:#631d10;}.cls-45{fill:#7a4649;}.cls-46{fill:#792917;}.cls-47{fill:#eda06a;}.cls-48{fill:#7f331e;}.cls-49{fill:#bf5529;}.cls-50{fill:#de9a75;}.cls-51{fill:#f59d46;}.cls-52{fill:#592216;}.cls-53{fill:#e77532;}.cls-54{fill:#da7145;}.cls-55{fill:#5a1c0f;}.cls-56{fill:#71211f;}.cls-57{fill:#e98e59;}.cls-58{fill:#af4826;}.cls-59{fill:#cc9478;}.cls-60{fill:#b99793;}.cls-61{fill:#ec9c6b;}.cls-62{fill:#956e7c;}.cls-63{fill:#bc8f73;}.cls-64{fill:#874e57;}.cls-65{fill:#824239;}.cls-66{fill:#ab3839;}.cls-67{fill:#9c3821;}.cls-68{fill:#895259;}.cls-69{fill:#41180e;}.cls-70{fill:#591c0e;}.cls-71{fill:#f1a66d;}.cls-72{fill:#4f190f;}.cls-73{fill:#e68c42;}.cls-74{fill:#a74527;}.cls-75{fill:#ea803c;}.cls-76{fill:#903736;}.cls-77{fill:#b58a8f;}.cls-78{fill:#b34f52;}.cls-79{fill:#9f4c49;}.cls-80{fill:#9b3722;}.cls-81{fill:#ee893c;}.cls-82{fill:#f7de7a;}.cls-83{fill:#661515;}.cls-84{fill:#bb9b73;}.cls-85{fill:#f1a258;}.cls-86{fill:#874245;}.cls-87{fill:#87585b;}.cls-88{fill:#832222;}.cls-89{fill:#ed8c40;}.cls-90{fill:#6b1d12;}.cls-91{fill:#c07e6a;}.cls-92{fill:#774a50;}.cls-93{fill:#ebbf80;}.cls-94{fill:#f09044;}.cls-95{fill:#602215;}.cls-96{fill:#ba4726;}.cls-97{fill:#eca664;}.cls-98{fill:#c75529;}.cls-99{fill:#df782d;}.cls-100{fill:#522014;}.cls-101{fill:#86646c;}.cls-102{fill:#f5be77;}.cls-103{fill:#d96529;}.cls-104{fill:#986b70;}.cls-105{fill:#f49f47;}.cls-106{fill:#6f3532;}.cls-107{fill:#ba4e27;}.cls-108{fill:#46170d;}.cls-109{fill:#82231f;}.cls-110{fill:#5d3730;}.cls-111{fill:#a6787d;}.cls-112{fill:#6f3134;}.cls-113{fill:#eca560;}.cls-114{fill:#bb4f28;}.cls-115{fill:#b3785a;}.cls-116{fill:#e9812b;}.cls-117{fill:#8f321e;}.cls-118{fill:#ee8b59;}.cls-119{fill:#622214;}.cls-120{fill:#a07380;}.cls-121{fill:#be8978;}.cls-122{fill:#6f2113;}.cls-123{fill:#87351e;}.cls-124{fill:#d66930;}.cls-125{fill:#752a17;}.cls-126{fill:#431a13;}.cls-127{fill:#d8894a;}.cls-128{fill:#933028;}</style></defs><path class="cls-52" d="m282.302,138.361c-.365,4.648-3.406,11.047-1.246,15.575,2.269,4.755,12.032,5.096,12.655,10.302-.124,3.739,3.329,5.337,4.909,8.065,2.097,3.622,5.93,6.432,4.788,11.396-3.851-1.483-4.611-8.575-7.815-8.475-1.492.047-7.094,11.128-6.783,13.324-6.156-5.104-14.404-4.869-21.206-8.286-8.996-4.518-17.648-5.292-25.783,1.821-3.99,1.222-4.121,5.574-6.55,8.062-.245-16.452,12.349-10.692,18.902-19.888,2.528-3.548-.005-9.422,2.314-12.946,2.921-4.437,8.245-3.658,10.655-6.699,7.426-9.368,2.244-12.216-3.021-19.236-7.391-9.854-13.757-21.995-12.631-35.163-.073-20.107-11.99-37.203-14.436-56.707,1.355-.028,2.515-.423,3.205-1.702,2.222,5.138,1.866,11.678,8,14.689-1.122,17.132,4.132,37.039,10.113,53.063,5.853,15.683,11.618,21.922,23.932,32.805Zm-12.566,35.616c12.883.384,5.981-17.815-4.483-16.259-11.765,1.75-5.002,16.57,4.483,16.259Z"/><path class="cls-119" d="m16.433,88.186c-1.319-.087-2.515-.41-3.222-1.673,1.247-7.018-9.45-8.879-9.042-15.805.667-11.314,16.193-9.27,23.646-10.14,2.143.02,4.287.041,6.431.061.67,3.773,3.639,3.159,6.2,3.176,6.598.043,13.196.014,19.794.014-3.11,3.578-9.107.076-10.896,3.912-2.415,5.176,1.928,3.935,2.477,7.945,1.869,13.641,3.145,19.579-11.039,18.942-15.01-8.512-1.589-22.036-9.039-28.394-2.881-2.459-14.426-1.19-16.825,1.573-5.601,6.451,1.994,13.122,1.514,20.389Z"/><path class="cls-46" d="m237.053,39.505c2.446,19.504,14.364,36.6,14.437,56.707-2.91-1.346-2.661-4.064-3.344-6.647-1.394-5.273-.226-11.047-3.233-15.954-.542-.542-1.085-1.084-1.628-1.625-1.917-3.656-5.25-6.719-4.765-11.379-1.398-6.505-8.817-9.421-9.692-16.238-.819-7.794-6.503-10.823-12.902-13.151,1.328-14.224-18.433-11.823-26.533-11.869-7.453-.042-30.218,1.65-30.346-10.479,5.245,5.971,26.738,7.94,30.927-.06,1.073-.002,2.146-.004,3.218-.007,1.336,4.514,4.003,6.002,8.996,6.836,5.574.931,13.713-1.782,16.282,6.738,2.847,9.441,11.219,12.693,18.584,17.129Z"/><path class="cls-72" d="m76.448,37.898c8.345-14.013,22.832-16.545,36.32-22.741,6.9-3.169,22.713-21.395,26.945-12.939-8.197-.933-7.252,4.538-11.791,8.697-4.589,4.205-10.332,7.319-15.825,10.78-13.536-2.328-36.053,20.209-42.139,30.788-2.719,2.678-4.38,6.413-8.102,8.089,3.857-8.204,7.652-16.449,14.59-22.674Z"/><path class="cls-55" d="m189.973,8.81c-4.189,8-25.682,6.031-30.926.059-10.657-1.528-13.99,12.057-17.767-3.353v-3.218c9.042,5.779,18.315,4.558,27.711,1.003.869-.329,2.71-.333,2.874.044,3.92,9.009,11.862,4.427,18.107,5.465Z"/><path class="cls-70" d="m237.053,39.505c-7.365-4.436-15.737-7.688-18.584-17.129-2.569-8.521-10.707-5.808-16.282-6.738-4.993-.834-7.66-2.322-8.996-6.836,10.829,2.53,16.681-1.499,25.379,6.975,3.351,3.264,4.041,8.615,8.126,12.233,4.267,3.78,10.253,4.601,13.561,9.794-.689,1.278-1.849,1.673-3.204,1.7Z"/><path class="cls-126" d="m27.816,60.568c-7.453.87-22.98-1.174-23.646,10.14-.408,6.927,10.288,8.787,9.042,15.805-1.611-.008-3.222-.016-4.832-.024C8.068,79.582.185,79.284.005,70.872c-.206-9.656,6.035-10.254,13.22-13.532,5.125-.103,10.094.495,14.591,3.228Z"/><path class="cls-108" d="m76.448,37.898c-6.938,6.225-10.733,14.469-14.59,22.674-1.266.721-1.581,1.915-1.617,3.247h0c-6.598,0-13.197.029-19.794-.014-2.561-.017-5.53.597-6.2-3.176,11.509.41,18.562,2.885,26.902-5.56,6.023-6.099,5.381-14.314,15.299-17.171Z"/><path class="cls-90" d="m141.281,2.298c0,1.073,0,2.145,0,3.218-2.361.004-3.961,1.201-5.041,3.213-6.226,7.708-14.286,12.008-24.143,12.966,5.493-3.46,11.236-6.575,15.825-10.779,4.539-4.159,3.594-9.631,11.791-8.697.523.025,1.045.052,1.568.08Z"/><path class="cls-100" d="m235.271,190.145c2.429-2.488,2.56-6.84,6.55-8.062-.003,2.158-.005,4.316-.008,6.475-2.206,10.379-19.238,18.887-27.089,24.213-14.85,10.074-25.722,13.006-43.638,11.228-13.976-1.387-23.652-2.911-32.875,6.358-4.186,4.206.629,6.101-7.333,8.464-4.638,1.377-9.273,3.275-10.702-3.294.396-8.428,4.398-10.866-1.438-17.13-4.822-5.175-16.603-10.725-22.847-15.241,10.098.952,19.241,8.614,28.801,11.812,10.777,3.604,18.05,2.257,28.569,2.646,19.508.721,34.764,6.46,52.826-4.847,5.026-4.536,8.207-11.368,13.04-15.264,3.604-2.905,13.304-2.048,14.601-7.297.515-.027,1.029-.047,1.544-.061Zm-103.524,46.485c1.82-.493,3.041-1.665,2.461-3.427-4.039-12.269-9.431,2.484-2.461,3.427Z"/><path class="cls-125" d="m16.433,88.186c.48-7.267-7.115-13.939-1.514-20.389,2.399-2.763,13.944-4.032,16.825-1.573,7.45,6.359-5.971,19.882,9.039,28.394.546,1.61,1.091,3.221,1.637,4.831-2.896.646-7.053-1.853-8.155,3.266-5.958-2.372-7.634-10.271-14.624-11.312-1.069-1.072-2.138-2.145-3.208-3.217Z"/><path class="cls-95" d="m19.641,91.403c6.989,1.041,8.666,8.94,14.624,11.312,7.905,6.689,10.277,16.162,13.271,25.459,1.191,3.698,4.046,6.861,6.144,10.268,1.329,7.137,8.7,11.752,8.212,19.647.526,1.525,1.051,3.05,1.577,4.575-6.088-1.716-7.757-7.317-9.339-12.116-1.915-5.808-5.011-10.664-8.493-15.455-2.113-2.895-3.916-5.893-3.225-9.718.304-4.376.224-9.084-2.79-12.24-5.722-5.99-12.156-11.3-18.295-16.893-1.848-1.166-1.559-3.075-1.685-4.84Z"/><path class="cls-38" d="m241.812,188.557c.003-2.158.005-4.317.008-6.475,8.135-7.112,16.787-6.338,25.783-1.82,6.803,3.416,15.051,3.182,21.207,8.286-.524,1.608-1.049,3.216-1.574,4.824-1.091-1.066-2.183-2.132-3.274-3.198-9.731-8.477-32.368-9.346-42.15-1.617Z"/><path class="cls-126" d="m21.326,96.243c6.138,5.593,12.573,10.903,18.295,16.893,3.015,3.156,3.094,7.864,2.79,12.24-3.33-7.867-8.937-14.083-14.587-20.297-2.457-2.703-6.215-4.517-6.498-8.836Z"/><path class="cls-110" d="m287.236,193.372c.525-1.608,1.049-3.216,1.574-4.824-.312-2.196,5.291-13.277,6.783-13.324,3.204-.1,3.964,6.992,7.815,8.475-.533,4.315-1.065,8.631-1.598,12.946-6.46,6.03-10.809,2.678-14.574-3.273Z"/><path class="cls-42" d="m301.81,196.645c.533-4.315,1.065-8.631,1.598-12.946,1.142-4.964-2.69-7.774-4.788-11.396-1.58-2.728-5.033-4.326-4.909-8.065,12.594,3.167,21.479,18.213,12.861,30.342-1.374,1.934-2.924,1.969-4.763,2.065Z"/><path class="cls-48" d="m235.271,190.145c-.515.014-1.03.035-1.544.061-2.205-6.966,2.331-12.1,4.84-17.785,8.719-.392,5.374-14.148,10.538-19.654,4.478-4.774,24.904-4.317,15.438-16.007-1.627-1.643-3.255-3.285-4.882-4.927-12.572-17.47-12.657-38.1-14.748-58.221,3.009,4.907,1.841,10.681,3.234,15.954.683,2.583.434,5.302,3.344,6.647-1.127,13.168,5.239,25.308,12.63,35.163,5.265,7.02,10.447,9.869,3.021,19.236-2.41,3.041-7.735,2.262-10.655,6.699-2.319,3.523.213,9.398-2.314,12.946-6.552,9.196-19.146,3.436-18.902,19.888Z"/><path class="cls-69" d="m269.722,173.963c-9.47.326-16.233-14.495-4.468-16.244,10.464-1.556,17.366,16.643,4.468,16.244Z"/><path class="cls-122" d="m42.419,99.449c-.546-1.61-1.091-3.221-1.637-4.831,14.184.636,12.908-5.301,11.039-18.942-.549-4.01-4.892-2.769-2.477-7.945,1.79-3.836,7.786-.333,10.896-3.912,0,0,0,0,0,0,8.342.588,8.756-5.609,9.719-11.337,6.085-10.578,28.603-33.115,42.139-30.788,9.857-.958,17.916-5.258,24.145-12.966-1.17,8.405-5.592,12.298-14.328,14.291-6.781,1.547-15.448-.654-20.441,6.91-3.691,5.592-8.4,9.963-15.361,11.14-4.681.091-10.933,11.538-12.928,14.177-2.206,2.919-3.504,7.089-6.154,10.277-1.861,2.239-5.825,1.738-7.789,4.196-8.745,10.945,6.216,33.469-16.821,29.73Z"/><path class="cls-67" d="m86.112,41.069c6.961-1.177,11.67-5.548,15.361-11.14,4.993-7.565,13.66-5.363,20.441-6.91,8.737-1.993,13.159-5.886,14.328-14.291,1.078-2.012,2.677-3.209,5.039-3.213,3.777,15.41,7.109,1.825,17.766,3.353.128,12.13,22.892,10.438,30.345,10.48,8.1.046,27.861-2.356,26.533,11.871-.019.595-.037,1.187-.055,1.78-1.31-.044-2.546-.248-3.277-1.531-3.098-6.867-10.763-11.868-18.078-10.372-7.944,1.625-2.794,11.769-12.625,5.371-6.925-8.32-18.404-1.89-26.005-8.018-4.606-.889-8.37.154-12.711,2.592-7.932,4.456-17.256,5.415-26.176,7.16l-.003-.003c-5.285.209-11.504-1.498-13.062,6.357-1.645,1.609-3.29,3.218-4.935,4.827-4.107,1.696-7.924,4.459-12.763,3.454-.042-.589-.083-1.178-.125-1.768Z"/><path class="cls-74" d="m215.871,32.999c.018-.592.036-1.185.055-1.779,6.4,2.326,12.083,5.355,12.902,13.149-3.339,1.416-2.479,3.648-1.048,5.858,2.772,4.279,5.448,8.692,10.741,10.38-.485,4.66,2.848,7.724,4.766,11.378-.962.509-1.926,1.019-2.89,1.529-.554-1.113-1.107-2.226-1.661-3.339-5.301-9.023-12.802-16.29-19.407-24.272-.162-4.566.167-9.264-3.458-12.903Z"/><path class="cls-58" d="m240.397,73.514c.964-.51,1.928-1.02,2.89-1.529.542.542,1.085,1.084,1.627,1.626,2.09,20.122,2.174,40.751,14.746,58.222-7.947-.65-7.804-8.401-11.352-12.912-1.89-7.486-.125-15.756-4.867-22.629-2.84-2.876-.975-6.586-1.745-9.828.047-4.364.669-8.787-1.299-12.949Z"/><path class="cls-117" d="m238.52,60.607c-5.293-1.689-7.969-6.101-10.741-10.38-1.431-2.209-2.29-4.442,1.048-5.858.875,6.817,8.294,9.733,9.692,16.238Z"/><path class="cls-119" d="m69.959,52.482c-.963,5.728-1.377,11.925-9.719,11.337.036-1.333.352-2.526,1.617-3.247,3.721-1.676,5.382-5.412,8.101-8.089Z"/><path class="cls-44" d="m63.47,162.664c-.526-1.525-1.051-3.05-1.577-4.578,5.675-1.083,15.045,20.775,19.657,25.26,1.699,1.653,6.491,2.176,9.025,4.375,2.276,1.975,2.531,6.54,4.756,8.747,4.528,4.493,11.233,6.762,16.756,9.944,6.908,9.055,35.932,9.6,45.949,9.418,16.554-.3,31.771-1.674,48.051-3.063-18.062,11.307-33.318,5.568-52.826,4.847-10.519-.389-17.791.958-28.569-2.646-9.56-3.197-18.703-10.859-28.801-11.812-9.692-5.376-35.07-27.288-32.42-40.492Z"/><path class="cls-123" d="m206.085,212.766c-16.279,1.389-31.497,2.763-48.051,3.063-10.017.182-39.041-.363-45.949-9.419,7.839-.777,15.105,2.481,22.729,3.217.71,1.273,1.921,1.557,3.235,1.639,16.357,2.558,32.646,3.307,48.717-1.814,2.224.9,3.343,4.067,6.456,3.139,5.228,1.049,9.109-1.425,12.637-4.823,1.992-6.643,4.9-12.769,9.982-17.669,6.337-1.741,9.569-7.002,13.253-11.727,2.452-3.144,4.673-6.57,9.47-5.954-2.509,5.685-7.045,10.819-4.84,17.785-1.297,5.25-10.997,4.393-14.601,7.297-4.833,3.895-8.014,10.728-13.04,15.264Z"/><path class="cls-65" d="m131.747,236.629c-6.97-.942-1.578-15.696,2.461-3.427.58,1.762-.642,2.933-2.461,3.427Z"/><path class="cls-24" d="m86.111,41.069c.042.589.083,1.179.124,1.767-.233,2.795.614,7.209-2.893,7.304-7.947.216-6.876,5.445-7.058,10.325-1.052,1.098-2.104,2.197-3.155,3.295-2.675,2.179-5.35,4.358-8.026,6.537-3.093,6.984-1.429,14.648-3.177,21.879-1.579,6.529-3.931,11.701-11.528,12.309-.526-.049-1.05-.115-1.572-.197-3.122-3.769-4.945-.033-5.78,2.408-.443,1.297,8.805,11.773,9.113,12.177-.379,6.591,5.807,12.673,1.52,19.567-2.097-3.407-4.952-6.57-6.144-10.268-2.995-9.297-5.367-18.77-13.271-25.459,1.101-5.119,5.258-2.619,8.154-3.266,23.038,3.739,8.076-18.786,16.821-29.73,1.964-2.458,5.927-1.957,7.789-4.196,2.65-3.188,3.948-7.358,6.154-10.277,1.994-2.639,8.247-14.085,12.928-14.177Z"/><path class="cls-80" d="m53.68,138.442c4.287-6.894-1.899-12.976-1.52-19.566.62-.04,1.24-.081,1.859-.122.522.563,1.045,1.126,1.566,1.689,1.136,6.624,4.125,12.434,7.876,17.909-.916,7.648,5.739,21.055,9.471,27.634,3.817,6.729,10.764,3.507,6.417,15.069,8.064-8.469,18.781,10.939,24.779,15.452,5.584,4.2,20.867,10.898,28.988,9.934.566,1.063,1.133,2.125,1.7,3.188-7.624-.736-14.89-3.994-22.729-3.217-5.523-3.181-12.228-5.45-16.756-9.943-2.225-2.208-2.48-6.773-4.756-8.747-2.535-2.199-7.326-2.722-9.025-4.375-4.612-4.485-13.982-26.342-19.657-25.26.488-7.893-6.884-12.507-8.212-19.644Z"/><path class="cls-18" d="m238.566,172.42c-4.797-.616-7.018,2.81-9.47,5.954-3.685,4.724-6.916,9.986-13.253,11.727-.005-.515-.013-1.03-.022-1.546,3.426-3.655,9.007-5.488,9.701-11.453,1.11-1.588,2.221-3.175,3.332-4.763,1.591-1.097,3.182-2.195,4.773-3.292,8.633.49,8.538-5.303,8.151-11.306.628-2.556.959-5.233,1.945-7.643,2.202-5.386,5.434-8.508,11.164-3.732,3.554.942,5.526-1.912,8.083-3.363,2.326-1.628,1.186-4.127,1.573-6.243,9.466,11.689-10.96,11.233-15.438,16.007-5.165,5.506-1.819,19.262-10.538,19.654Z"/><path class="cls-124" d="m233.626,169.047c-1.591,1.097-3.182,2.195-4.773,3.293.008-1.058.016-2.116.024-3.174,5.175-4.93,9.287-10.433,9.694-17.936,4.183-3.866,5.589-10.365,12.169-12.186,1.19-.33-.745-3.054-2.426-3.975-2.886-5.153-1.149-10.758-1.582-16.151l.788-.002.788.006c3.548,4.511,3.405,12.262,11.352,12.912,1.627,1.642,3.254,3.284,4.882,4.927-.387,2.116.752,4.616-1.574,6.245-.277-14.891-6.852-5.147-8.081,3.361-5.73-4.777-8.962-1.654-11.164,3.732-.985,2.41-1.316,5.087-1.944,7.644-2.717,3.769-5.434,7.537-8.152,11.306Z"/><path class="cls-25" d="m155.886,18.45c7.601,6.128,19.081-.302,26.005,8.019-.081.665-.162,1.329-.241,1.991-1-.633-2.001-1.265-3.002-1.896-3.932-.511-7.672.268-11.315,1.69-3.839,2.972-7.125,3.078-12.151,1.109-5.144-2.015-11.997-2.784-17.282,1.927-3.154.099-6.307.198-9.46.298l-.237-.308c3.906-1.537,8.16-2.528,11.636-4.741,5.116-3.256,13.677.376,16.047-8.089Z"/><path class="cls-96" d="m155.886,18.45c-2.37,8.465-10.931,4.832-16.047,8.089-3.476,2.212-7.73,3.203-11.635,4.742-4.399,1.39-7.348-2.492-11.205-3.079,8.92-1.746,18.244-2.704,26.176-7.16,4.341-2.438,8.104-3.481,12.711-2.592Z"/><path class="cls-25" d="m116.999,28.202c3.856.587,6.806,4.469,11.205,3.079-.001-.002.235.307.234.305-4.648,4.152-8.31.7-13.307,2.856-2.862,1.235-5.494,4.755-9.465,6.596-3.399-3.176-5.033,2.711-8.038,1.563.457-1.073.914-2.145,1.37-3.218,1.645-1.609,3.29-3.218,4.936-4.826,3.319-4.241,10.263-1.049,13.061-6.358l.003.003Z"/><path class="cls-2" d="m181.649,28.461c.081-.664.161-1.328.242-1.993,9.831,6.398,4.681-3.747,12.625-5.372,7.315-1.496,14.98,3.505,18.078,10.371-.562.023-1.124.047-1.685.07-2.07-1.616-4.014-3.436-6.236-4.809-7.891-4.876-9.392-4.265-12.814,4.805-5.331,5.37-8.081,2.179-10.211-3.072Z"/><path class="cls-114" d="m98.999,39.383c-.457,1.073-.914,2.145-1.371,3.22-.584,1.153-1.166,2.303-1.749,3.454-8.048,2.744-14.176,8.094-19.594,14.409.182-4.88-.89-10.11,7.058-10.325,3.507-.095,2.66-4.509,2.893-7.304,4.839,1.005,8.657-1.758,12.763-3.453Z"/><path class="cls-53" d="m210.908,31.539c.562-.024,1.125-.048,1.686-.071.731,1.283,1.966,1.487,3.277,1.531,3.626,3.639,3.296,8.337,3.456,12.904-.07,1.639-.139,3.278-.208,4.918-3.013-2.026-2.779-6.642-6.482-8.118-2.27-3.459-1.395-7.405-1.73-11.163Z"/><path class="cls-96" d="m116.996,28.199c-2.798,5.309-9.742,2.117-13.061,6.358,1.557-7.856,7.776-6.149,13.061-6.358Z"/><path class="cls-6" d="m219.119,50.82c.069-1.639.137-3.278.208-4.917,6.606,7.982,14.108,15.249,19.408,24.272-.001,0-.44.398-.439.396-1.58-.097-3.161-.192-4.742-.287-6.49.034-4.814-8.034-9.616-9.675.881-4.485-3.23-6.518-4.819-9.789Z"/><path class="cls-6" d="m240.397,73.514c1.968,4.163,1.346,8.585,1.301,12.95-2.804-1.967-2.445-5.638-4.363-8.086.998-2.518,1.748-5.067.96-7.805,0,0,.439-.397.44-.398.555,1.112,1.108,2.225,1.662,3.338Z"/><path class="cls-124" d="m237.337,78.379c1.915,2.447,1.557,6.118,4.36,8.085.769,3.242-1.096,6.952,1.744,9.826-1.014,5.534,1.962,10.694,1.524,16.175-1.013-1.638-2.028-3.276-3.042-4.914-.141-.475-.223-.96-.249-1.455.58-9.084-2.905-17.425-4.78-26.059.147-.553.294-1.105.442-1.658Z"/><path class="cls-6" d="m244.965,112.466c.439-5.481-2.537-10.641-1.523-16.176,4.742,6.874,2.976,15.144,4.867,22.63,0,0-.788-.006-.788-.006,0,0-.788.002-.789.002-.534-.595-1.067-1.189-1.601-1.783-.055-1.555-.11-3.112-.165-4.669Z"/><path class="cls-51" d="m193.224,212.592c-3.114.928-4.233-2.239-6.457-3.139-.011-.478-.077-.949-.198-1.412.029-1.098.056-2.197.084-3.296.93-1.701,4.449-2.737,2.579-5.021-1.942-2.372-4.86,1.04-7.415.155,2.695-3.227,9.072-3.338,8.155-9.622,1.035-.059,2.07-.118,3.106-.175,3.943.981,6.909-1.178,9.953-3.087-.686,1.678-.886,4.108-2.136,4.914-8.676,5.599-4.153,8.528,2.022,11.29-.166,1.435-.303,2.173-2.374,1.726-6.248-1.347-8.881,1.292-7.319,7.665Z"/><path class="cls-17" d="m134.815,209.628c-.566-1.063-1.133-2.125-1.699-3.189,1.142-.04,2.282-.08,3.423-.119.522.029,1.042.074,1.56.136,2.117,2.394,4.947,1.37,7.502,1.498,12.093.609,24.188,2.165,36.291.123-1.196.506-2.349,1.194-3.595,1.491-13.301,3.163-26.834,1.011-40.246,1.699-1.314-.082-2.526-.366-3.235-1.639Z"/><path class="cls-80" d="m138.05,211.267c13.412-.688,26.946,1.464,40.246-1.699,1.246-.296,2.399-.985,3.595-1.492,1.559-.012,3.118-.024,4.677-.036.122.463.188.934.199,1.413-16.071,5.12-32.36,4.371-48.717,1.814Z"/><path class="cls-26" d="m193.224,212.592c-1.562-6.373,1.071-9.012,7.319-7.665,2.071.446,2.208-.291,2.374-1.727.482-.081.963-.17,1.442-.266.5,1.612,1.001,3.223,1.501,4.835-3.528,3.398-7.409,5.872-12.637,4.823Z"/><path class="cls-13" d="m205.86,207.77c-.5-1.612-1.001-3.223-1.499-4.832-3.243-5.936,2.735-7.7,5.046-11.124,1.011-.571,2.023-1.142,3.034-1.713,1.126-.515,2.252-1.029,3.379-1.544.01.515.018,1.031.023,1.546-5.083,4.899-7.991,11.025-9.983,17.668Z"/><path class="cls-103" d="m76.285,60.466c5.418-6.315,11.546-11.665,19.595-14.41-3.355,7.108-8.181,13.31-14.093,18.21-10.045,8.325-11.991,12.181-8.679,22.322.081.484.116.971.105,1.461-.764,5.481-7.316,8.399-6.47,14.592-.037,4.651-.26,9.257-3.209,13.201-2.909.228-6.478,1.734-6.614-3.41,2.595.031,4.712-.391,4.97-3.699.451-5.774,1.104-11.533,1.672-17.298,1.722-1.002,3.336-2.44,3.013-4.436-1.429-8.817,2.208-16.106,6.554-23.24,1.052-1.098,2.104-2.197,3.156-3.295Z"/><path class="cls-5" d="m63.562,91.437c-.568,5.765-1.221,11.523-1.672,17.298-.258,3.308-2.375,3.73-4.969,3.699-2.173-2.649-4.347-5.298-6.521-7.948,7.597-.608,9.949-5.78,11.528-12.309,1.748-7.23.083-14.895,3.177-21.879-.148,7.073.695,14.218-1.542,21.139Z"/><path class="cls-54" d="m50.399,104.486c2.174,2.649,4.348,5.298,6.521,7.948.135,5.143,3.704,3.638,6.613,3.407-.699,3.142-2.228,6.133-1.756,9.493-2.782-.723-2.882-4.836-6.192-4.893-.522-.563-1.045-1.126-1.569-1.688-1.414-2.542-2.718-5.153-4.27-7.608-1.393-2.204-3.923-4.116-.921-6.857.522.082,1.046.147,1.572.197Z"/><path class="cls-107" d="m63.562,91.437c2.237-6.921,1.394-14.066,1.542-21.139,2.676-2.179,5.351-4.358,8.026-6.537-4.347,7.133-7.984,14.422-6.555,23.24.324,1.997-1.29,3.434-3.013,4.436Z"/><path class="cls-5" d="m48.827,104.29c-3.002,2.741-.472,4.653.921,6.857,1.552,2.455,2.856,5.066,4.27,7.608-.618.04-1.238.08-1.858.121-.308-.404-9.557-10.881-9.113-12.178.835-2.441,2.658-6.177,5.78-2.408Z"/><path class="cls-98" d="m136.539,206.32c-1.141.039-2.281.079-3.423.119-8.122.965-23.405-5.733-28.989-9.933-5.998-4.512-16.715-23.921-24.779-15.452,4.348-11.562-2.599-8.34-6.417-15.069-3.732-6.579-10.387-19.986-9.471-27.634,2.345,1.699,2.399,4.624,3.692,6.837,4.819,8.248,5.199,19.464,15.753,23.931,4.302,4.786,9.715,8.988,12.617,14.508,3.468,6.595,7.883,9.659,14.981,9.601,5.146,1.586,8.954,6.109,14.583,6.637,3.456,2.791,9.142,1.631,11.452,6.454Z"/><path class="cls-30" d="m82.906,169.12c-10.554-4.467-10.934-15.683-15.753-23.931-1.293-2.212-1.347-5.138-3.692-6.837-3.751-5.475-6.74-11.285-7.876-17.909,3.311.056,3.411,4.169,6.194,4.892,4.424,5.849,8.735,11.574,9.188,19.498.266,4.65,1.768,9.381,5.432,12.899,2.228,3.224,4.455,6.448,6.683,9.671-.059.572-.117,1.144-.176,1.716Z"/><path class="cls-99" d="m212.442,190.1c-1.011.571-2.023,1.142-3.034,1.713-1.158-6.319,6.84-8.546,6.492-14.503,4.326-2.715,8.652-5.429,12.977-8.144-.008,1.058-.016,2.116-.024,3.174-1.11,1.588-2.221,3.175-3.331,4.764-4.848,3.842-11.125,6.248-13.081,12.996Z"/><path class="cls-118" d="m254.886,146.366c1.229-8.508,7.804-18.252,8.081-3.361-2.555,1.449-4.527,4.303-8.081,3.361Z"/><path class="cls-49" d="m212.442,190.1c1.956-6.748,8.232-9.154,13.081-12.996-.695,5.964-6.276,7.797-9.702,11.452-1.127.515-2.253,1.029-3.379,1.544Z"/><path class="cls-49" d="m233.626,169.047c2.717-3.768,5.435-7.537,8.152-11.306.386,6.003.481,11.796-8.152,11.306Z"/><path class="cls-16" d="m228.877,169.166c-4.326,2.715-8.652,5.429-12.977,8.144l-.124-.363c.065-1.497.13-2.993.194-4.491,2.043-.276,4.613.602,5.928-1.482,5.512-8.731,13.848-16.138,13.389-27.75-.173-2.905.612-5.328,3.4-6.743,7.684-4.608,6.051-12.315,6.444-19.348.533.594,1.067,1.189,1.601,1.784.434,5.393-1.304,10.998,1.583,16.152-5.305,4.149-10.251,8.514-9.743,16.161-.407,7.503-4.519,13.006-9.694,17.936Z"/><path class="cls-1" d="m238.571,151.23c-.508-7.648,4.437-12.013,9.743-16.161,1.681.921,3.617,3.645,2.426,3.975-6.579,1.822-7.986,8.321-12.169,12.186Z"/><path class="cls-4" d="m167.334,28.253c3.643-1.423,7.382-2.201,11.314-1.691.398,3.936-6.552,6.687-1.829,11.321-2.815.27-5.237,1.966-8.496.785-14.958-5.421-29.233-1.777-43.244,3.985-3.481,1.206-7.616,1.111-9.793,4.914-1.041.052-2.083.103-3.124.155-3.169-.056-5.47,2.152-8.236,3.148-.125-2.843.157-5.598,1.745-8.071l.006.012c10.259.935,18.046-6.453,27.519-8.163,4.019,0,8.075.35,12.048-.079,6.744-.727,13.806,2.234,20.257-1.719.611-1.532,1.222-3.064,1.833-4.596Z"/><path class="cls-85" d="m176.819,37.884c-4.723-4.633,2.227-7.385,1.829-11.321,1.002.632,2.003,1.263,3.002,1.896,2.128,5.253,4.879,8.444,10.207,3.074,6.899,1.25,3.11-5.778,11.178-.298,5.715,3.882,3.519,11.784,9.547,14.774.038,1.58.076,3.159.114,4.74-1.059-.479-2.118-.959-3.177-1.438-.544-.459-1.087-.917-1.63-1.376-8.101-13.792-8.588-16.705-24.37-8.553-2.432.385-4.588-.46-6.7-1.498Z"/><path class="cls-89" d="m133.196,34.647c-9.473,1.71-17.26,9.098-27.519,8.162-.004-.591-.007-1.181-.01-1.771,3.971-1.842,6.604-5.361,9.465-6.596,4.996-2.157,8.658,1.296,13.307-2.856,3.155-.097,6.308-.197,9.463-.295.596.067,1.191.132,1.786.197-2.164,1.053-4.328,2.106-6.491,3.159Z"/><path class="cls-75" d="m139.687,31.488c-.595-.065-1.19-.131-1.786-.197,5.284-4.712,12.136-3.944,17.281-1.929,5.026,1.969,8.312,1.863,12.151-1.109-.611,1.532-1.222,3.064-1.832,4.598-8.686,1.096-17.097-3.027-25.814-1.363Z"/><path class="cls-36" d="m105.666,41.038c.003.59.007,1.18.01,1.771,0,0-.006-.011-.006-.011-6.493.363-6.972,4.728-6.488,9.734-6.642,4.959-12.64,10.347-12.997,19.491-.048.509-.087,1.019-.116,1.529-.491.026-.982.059-1.473.098-7.478,1.078-9.353,7.124-11.489,12.938-3.312-10.142-1.366-13.998,8.679-22.322,5.912-4.9,10.738-11.103,14.093-18.21.582-1.15,1.165-2.3,1.748-3.453,3.005,1.147,4.64-4.741,8.039-1.565Z"/><path class="cls-94" d="m212.582,46.009c-6.028-2.99-3.832-10.893-9.547-14.774-8.068-5.479-4.279,1.548-11.178.298,3.424-9.069,4.925-9.68,12.816-4.804,2.221,1.373,4.165,3.193,6.236,4.809.334,3.76-.541,7.705,1.729,11.165-.019,1.103-.037,2.204-.056,3.306Z"/><path class="cls-35" d="m212.582,46.009c.019-1.102.037-2.204.056-3.306,3.703,1.476,3.469,6.091,6.482,8.118,1.589,3.271,5.7,5.303,4.82,9.788-.59.048-1.18.097-1.768.144-1.004-.067-2.009-.133-3.014-.199l-.01-.002c.186-4.803-2.078-7.996-6.451-9.805-.038-1.58-.076-3.159-.114-4.739Z"/><path class="cls-127" d="m222.17,60.754c.59-.049,1.18-.097,1.769-.146,4.801,1.641,3.126,9.71,9.617,9.675-2.526,5.287-1.09,10.937-1.507,16.416-.374.065-.745.141-1.117.222-.347-.613-.692-1.221-1.036-1.83.026-5.688-5.453-9.183-5.865-14.697,2.935-3.899-2.193-6.244-1.861-9.642Z"/><path class="cls-12" d="m232.049,86.702c.417-5.481-1.019-11.131,1.507-16.418,1.579.095,3.16.191,4.74.287.787,2.739.037,5.288-.961,7.807-.145.553-.292,1.106-.439,1.658-3.264,1.689.591,7.294-4.422,8.023-.234-.425-.374-.877-.424-1.358Z"/><path class="cls-37" d="m238.686,136.481c-2.788,1.415-3.572,3.838-3.399,6.743-3.885-4.757.442-9.681-.292-14.505.194-9.674.384-19.346.575-29.017,4.401-.124,3.474,4.831,6.105,6.394.025.495.108.98.248,1.455.165,9.782,1.331,19.676-3.237,28.93Z"/><path class="cls-73" d="m241.675,106.096c-2.631-1.563-1.705-6.518-6.107-6.396-.566-.053-1.13-.105-1.694-.156-.466-3.828-.932-7.656-1.398-11.484,5.01-.73,1.155-6.335,4.419-8.024,1.875,8.635,5.359,16.975,4.779,26.06Z"/><path class="cls-1" d="m238.686,136.481c4.568-9.254,3.402-19.148,3.237-28.93,1.015,1.638,2.029,3.276,3.042,4.915.054,1.557.109,3.113.164,4.669-.392,7.032,1.24,14.738-6.443,19.346Z"/><path class="cls-59" d="m193.077,190.082c-1.035.059-2.07.118-3.105.176-5.826-.125-11.591,4.745-17.256,6.368-10.131,2.902-24.325,3.99-34.638,1.713-4.926-.555-9.252-1.86-9.82-7.855,4.17.446,6.654,4.018,11.025,5.094,9.782,2.408,18.425-1.136,27.538-2.171,1.785,1.855,3.561,2.238,5.32-.034,1.908.035,3.397-.602,5.078-1.742,9.416-6.387,20.118-10.15,30.592-14.357-2.618,6.903-11.814,6.251-14.733,12.809Z"/><path class="cls-34" d="m136.539,206.32c-2.31-4.822-7.996-3.662-11.452-6.453,4.317-2.058,8.56,1.128,12.861.182,6.243,2.788,12.838,3.312,19.558,3.037,8.527,2.124,16.209-2.151,24.316-3.207l-.005.002c2.555.885,5.473-2.526,7.415-.155,1.87,2.284-1.649,3.32-2.578,5.021-6.083-3.788-16.459,1.54-22.981,1.916-8.367.482-17.404-2.844-25.573-.205-.519-.062-1.039-.108-1.56-.136Z"/><path class="cls-47" d="m157.506,203.085c-6.72.276-13.315-.249-19.557-3.038.043-.571.086-1.14.128-1.709,10.313,2.277,24.507,1.189,34.638-1.713,5.666-1.623,11.431-6.492,17.256-6.368.918,6.285-5.46,6.395-8.155,9.622,0,0,.005-.002.005-.002-4.529,0-9.065-.159-13.584.052-3.782.177-8.223-1.481-10.732,3.155Z"/><path class="cls-116" d="m215.899,177.31c.348,5.957-7.65,8.184-6.492,14.503-2.311,3.424-8.289,5.188-5.046,11.124-.481.093-.962.181-1.444.263-6.176-2.762-10.699-5.691-2.022-11.29,1.249-.806,1.45-3.236,2.135-4.915,6.692-.254,7.756-7.638,12.745-10.049l.124.363Z"/><path class="cls-19" d="m138.099,206.456c8.169-2.639,17.206.687,25.573.205,6.523-.376,16.898-5.703,22.981-1.916-.028,1.098-.056,2.197-.085,3.296-1.56.011-3.119.023-4.678.035-12.103,2.043-24.197.487-36.29-.122-2.554-.129-5.384.896-7.502-1.498Z"/><path class="cls-97" d="m215.775,176.947c-4.99,2.411-6.053,9.795-12.745,10.049-3.043,1.909-6.009,4.068-9.952,3.087,2.918-6.559,12.114-5.907,14.732-12.81,0,0,.016-.016.016-.016,3.7.003,4.044-5.335,7.957-4.992l.188.192c-.065,1.497-.13,2.993-.195,4.49Z"/><path class="cls-105" d="m76.399,157.732c-3.663-3.517-5.165-8.248-5.431-12.898-.453-7.924-4.764-13.649-9.188-19.498-.473-3.361,1.055-6.352,1.755-9.494,2.949-3.942,3.172-8.548,3.209-13.198.539.033,1.078.052,1.618.057-.024,6.081,1.323,12.599-.442,18.125-1.905,5.966.441,9.065,3.767,12.648,1.571,8.086,3.142,16.172,4.713,24.258Z"/><path class="cls-28" d="m73.108,86.589c2.136-5.814,4.011-11.86,11.489-12.939-3.758,7.524-7.515,15.048-11.273,22.573-.037-2.724-.074-5.448-.111-8.172.011-.49-.024-.977-.105-1.461Z"/><path class="cls-36" d="m73.213,88.05c.037,2.724.074,5.448.111,8.173-.077.986-.153,1.971-.229,2.957-2.417.047-4.558.465-4.733,3.521-.54-.005-1.079-.024-1.618-.057-.845-6.194,5.706-9.112,6.47-14.593Z"/><path class="cls-57" d="m138.077,198.338c-.042.569-.085,1.138-.128,1.709-4.302.948-8.545-2.239-12.862-.18-5.628-.528-9.436-5.051-14.582-6.636.569-2.134,1.139-4.269,1.707-6.404,3.543.217,5.77,4.412,9.777,3.229,2.09.142,4.18.285,6.27.427.568,5.995,4.894,7.3,9.82,7.855Z"/><path class="cls-81" d="m112.212,186.826c-.569,2.135-1.138,4.271-1.708,6.405-7.097.056-11.513-3.008-14.981-9.603-2.903-5.52-8.315-9.722-12.617-14.508.058-.572.117-1.144.174-1.716,2.106,1.638,4.213,3.275,6.321,4.912,3.188,5.262,9.27,7.625,12.623,12.965,1.607,2.56,5.565,2.924,8.377-.022.604.522,1.207,1.045,1.811,1.567Z"/><path class="cls-61" d="m89.401,172.316c-2.107-1.637-4.214-3.274-6.321-4.912-2.226-3.224-4.453-6.447-6.681-9.672-1.572-8.087-3.143-16.173-4.715-24.259.966-.554,1.933-1.109,2.901-1.664.997,10.43,4.114,19.963,11.704,27.602-.919,4.402,4.134,6.043,4.55,9.828-.48,1.026-.959,2.051-1.439,3.077Z"/><path class="cls-97" d="m234.992,128.721c.737,4.821-3.591,9.745.295,14.502.459,11.612-7.877,19.019-13.389,27.75-1.315,2.084-3.886,1.205-5.928,1.482,0,.001-.187-.191-.186-.19,2.153-3.772,4.306-7.545,6.459-11.317,4.303-8.192,10.826-15.536,9.843-25.745.276-2.47,1.112-4.691,2.906-6.481Z"/><path class="cls-77" d="m112.162,47.722c1.041-.052,2.083-.103,3.125-.154,8.057,2.456,15.028-2.803,22.686-3.188.04.55.079,1.101.118,1.651,0,0-.013.003-.013.003-7.646,2.637-15.043,5.738-21.116,11.307-1.619,1.094-3.239,2.189-4.858,3.283-3.152-.414-5.436.976-8,2.799-4.032,2.865-7.479,7.27-13.28,6.814,2.951-6.442,7.314-11.404,13.645-14.962,3.012-1.693,6.674-3.49,7.692-7.553Z"/><path class="cls-63" d="m176.819,37.884c2.113,1.038,4.269,1.883,6.7,1.499,4.309,1.271,8.497,2.748,11.32,6.574-1.646-.482-3.292-.964-4.938-1.445-4.291-3.194-8.635-1.165-12.969-.131-.257-1.886-.478-4.158-2.938-1.593-1.36,1.418-2.261,3.274-3.369,4.933.155-4.524-1.91-6.869-6.562-6.673-5.178-3.18-10.887-.911-16.309-1.59-7.88-1.214-14.91,3.587-22.673,3.195,14.011-5.762,28.286-9.406,43.244-3.985,3.259,1.181,5.681-.515,8.496-.785Z"/><path class="cls-50" d="m112.162,47.722c-1.018,4.063-4.68,5.86-7.692,7.553-6.331,3.558-10.694,8.52-13.643,14.962-1.546.596-3.093,1.191-4.641,1.786.357-9.144,6.355-14.532,12.997-19.491,1.581-.554,3.162-1.108,4.743-1.662,2.766-.995,5.068-3.204,8.236-3.148Z"/><path class="cls-60" d="m125.079,42.653c7.763.391,14.794-4.41,22.674-3.195-2.176,3.793-7.048,2.233-9.78,4.921-7.657.385-14.628,5.643-22.685,3.188,2.176-3.803,6.311-3.709,9.792-4.914Z"/><path class="cls-85" d="m139.687,31.488c8.717-1.664,17.128,2.459,25.814,1.363-6.452,3.952-13.514.99-20.258,1.717-3.973.428-8.029.079-12.048.079,2.164-1.053,4.328-2.106,6.491-3.159Z"/><path class="cls-89" d="m103.926,50.869c-1.581.554-3.162,1.108-4.743,1.662-.484-5.006-.005-9.371,6.488-9.734-1.588,2.473-1.87,5.229-1.745,8.071Z"/><path class="cls-82" d="m194.838,45.957c-2.822-3.826-7.011-5.304-11.32-6.574,15.782-8.154,16.269-5.24,24.369,8.548-.486,3.007-2.86,2.881-5.062,3.04-2.663-1.672-5.325-3.343-7.987-5.014Z"/><path class="cls-93" d="m202.826,50.972c2.202-.159,4.576-.033,5.062-3.041.545.462,1.088.921,1.63,1.379,2.844,4.059,5.409,8.359,9.629,11.243,0,0,.01.002.01.002-1.086.661-2.171,1.322-3.257,1.983-4.358-3.855-8.716-7.71-13.074-11.566Z"/><path class="cls-113" d="m219.147,60.553c-4.22-2.884-6.785-7.184-9.629-11.243,1.06.481,2.119.961,3.178,1.439,4.373,1.807,6.637,5.001,6.451,9.804Z"/><path class="cls-111" d="m86.186,72.023c1.548-.595,3.096-1.191,4.641-1.786,5.798.456,9.245-3.949,13.277-6.814,2.564-1.822,4.848-3.212,8-2.799-1.087,2.641-2.175,5.283-3.263,7.927-2.164,1.666-4.329,3.331-6.493,4.996-5.273-.657-2.436,4.978-4.995,6.427-3.199-2.843-6.357-5.773-11.151-5.202-.003-.411-.048-.818-.133-1.22.029-.511.068-1.02.116-1.529Z"/><path class="cls-121" d="m86.07,73.553c.085.402.129.809.132,1.223.025,1.206.051,2.409.077,3.613-6.38,10.454-8.433,22.162-9.882,34.045-1.046-.002-2.093-.004-3.139-.006-.054-4.416-.109-8.832-.163-13.247.076-.985.152-1.971.229-2.957,3.758-7.525,7.516-15.05,11.273-22.573.491-.038.982-.071,1.473-.097Z"/><path class="cls-113" d="m215.9,62.537c1.086-.661,2.171-1.322,3.257-1.983,1.006.065,2.011.131,3.015.198-.333,3.399,4.795,5.744,1.859,9.642-2.963-1.24-4.284-5.082-8.039-5.064-.031-.931-.061-1.862-.091-2.793Z"/><path class="cls-104" d="m172.14,193.372c-1.759,2.272-3.534,1.89-5.316.035.004,0,.566-.068.566-.067,4.814-.439,2.62-4.018,2.909-6.485,1.482-8.128,5.613-14.288,13.27-17.826,16.275,4.673,27.385-17.03,33.881-28.702,5.459-9.808,10.072-34.88,3.269-45.721.05-.466.112-.931.189-1.394,4.132-.838,8.491-1.314,10.027-6.286.369-.086.741-.162,1.114-.227.05.482.19.935.424,1.359.469,3.828.935,7.656,1.399,11.483-.146,4.201-.291,8.404-.436,12.606-1.033-.65-1.616-1.601-1.747-2.855,2.041,1.953-13.471,24.99-2.803,25.782,0,0,.212.147.209.146-.982,3.789,1.512,8.65-3.461,11.211-.575-4.238-23.092,25.925-27.875,29.56-7.973,6.061-22.606,3.756-25.62,17.379Z"/><path class="cls-21" d="m215.992,65.33c3.755-.016,5.075,3.825,8.038,5.065.412,5.515,5.891,9.01,5.869,14.7-1.444.461-2.891.92-4.338,1.379-2.13-.084-4.261-.168-6.392-.252.404-1.801.404-3.835,1.286-5.36,3.172-5.48.666-7.072-4.498-7.146,1.958-2.766.437-5.438-.221-8.133l.255-.254Z"/><path class="cls-8" d="m225.561,86.474c1.447-.459,2.894-.918,4.338-1.379.342.606.686,1.215,1.033,1.828-1.533,4.977-5.892,5.453-10.025,6.289-12.85-2.603,3.248-4.855,4.653-6.738Z"/><path class="cls-84" d="m233.436,112.149c.145-4.202.29-8.405.436-12.606.566.053,1.13.104,1.696.157-.189,9.674-.38,19.345-.573,29.019-1.797,1.793-2.633,4.013-2.909,6.482-.996.007-1.992.014-2.987.022,0,0-.212-.147-.212-.147,1.937-7.559,6.469-14.604,4.55-22.928Z"/><path class="cls-7" d="m172.14,193.372c3.014-13.624,17.647-11.319,25.62-17.379,4.782-3.635,27.3-33.798,27.874-29.56-.409,4.796-3.663,8.488-5.021,12.915-4.886,5.525-11.339,9.933-12.788,17.908,0,0-.017.016-.016.016-10.473,4.207-21.175,7.97-30.591,14.357-1.681,1.14-3.169,1.777-5.078,1.742Z"/><path class="cls-10" d="m128.257,190.484c-2.09-.142-4.18-.285-6.271-.426-.046-1.052-.091-2.104-.137-3.157,3.157.3,4.933-3.884,8.131-2.81,11.029,3.702,22.87,2.767,33.941,6.123,1.156,1.042,2.312,2.084,3.468,3.126,0,0-.562.068-.566.068-9.116,1.035-17.759,4.579-27.542,2.17-4.371-1.076-6.855-4.647-11.025-5.094Z"/><path class="cls-51" d="m157.506,203.085c2.51-4.636,6.95-2.978,10.732-3.155,4.519-.211,9.055-.051,13.584-.052-8.107,1.056-15.789,5.331-24.316,3.207Z"/><path class="cls-59" d="m207.825,177.257c1.449-7.975,7.902-12.383,12.789-17.908.544.533,1.086,1.066,1.628,1.599-2.153,3.773-4.305,7.545-6.459,11.317-3.915-.344-4.258,4.995-7.958,4.991Z"/><path class="cls-102" d="m73.094,99.179c.055,4.416.109,8.832.163,13.247.129,6.483-1.042,13.054,1.327,19.383-.967.555-1.934,1.109-2.9,1.664-3.325-3.583-5.671-6.683-3.766-12.648,1.765-5.526.418-12.044.442-18.125.175-3.056,2.316-3.474,4.733-3.521Z"/><path class="cls-91" d="m121.85,186.9c.045,1.053.09,2.105.137,3.157-4.005,1.182-6.233-3.013-9.775-3.23-.603-.523-1.206-1.045-1.809-1.567-4.17-1.023-3.599-7.376-7.429-7.654-6.061-.44-8.768-4.631-12.134-8.367-.416-3.785-5.47-5.426-4.551-9.828,5.773,2.077,5.94,10.548,12.889,11.287,1.992,4.653,9.167,2.886,12.546,5.64,3.746,3.054,4.312,7.289,10.127,10.562Z"/><path class="cls-71" d="m90.84,169.239c3.365,3.736,6.072,7.927,12.134,8.367,3.83.278,3.258,6.631,7.429,7.654-2.813,2.945-6.771,2.581-8.378.021-3.352-5.34-9.435-7.703-12.623-12.965.479-1.026.959-2.052,1.439-3.077Z"/><path class="cls-39" d="m99.178,170.697c-6.949-.738-7.116-9.21-12.889-11.286-7.589-7.638-10.706-17.171-11.703-27.601-2.371-6.329-1.2-12.901-1.329-19.383,1.047.002,2.093.004,3.14.006,1.315,4.68-1.611,11.391,6.215,12.954,1.277,7.016-2.631,14.92,3.619,21.084,2.447,9.072,8.228,16.366,12.946,24.226Z"/><path class="cls-115" d="m222.242,160.948c-.542-.533-1.084-1.066-1.628-1.599,1.357-4.428,4.611-8.119,5.02-12.915,4.973-2.562,2.479-7.422,3.461-11.211.999-.006,1.994-.014,2.99-.021.983,10.211-5.54,17.555-9.843,25.747Z"/><path class="cls-43" d="m108.841,68.549c1.088-2.642,2.176-5.284,3.263-7.925,1.619-1.094,3.239-2.188,4.858-3.282,8.247-1.516,15.797-4.331,21.116-11.307,0,0,.013-.003.013-.003,4.315.537,8.631,1.074,12.946,1.611-.276,3.442-3.09,2.649-5.226,3.421-7.176,2.593-15.602,2.579-20.788,9.515-6.467.48-10.773,5.343-16.181,7.971Z"/><path class="cls-14" d="m151.037,47.642c-4.315-.537-8.631-1.074-12.946-1.611-.039-.55-.078-1.1-.118-1.651,2.731-2.688,7.604-1.128,9.78-4.921,5.422.678,11.131-1.591,16.308,1.59.104,3.198-1.077,4.944-4.642,5.002-2.808.046-5.975-1.116-8.343,1.543l-.038.048Z"/><path class="cls-14" d="m138.078,46.034c-5.318,6.977-12.868,9.791-21.116,11.307,6.073-5.57,13.47-8.671,21.116-11.307Z"/><path class="cls-64" d="m125.022,60.578c5.187-6.936,13.614-6.922,20.789-9.515,2.136-.772,4.95.022,5.226-3.421,0,0,.038-.047.037-.047,5.924.782,12.322-1.811,17.751,2.493.599-.789,1.199-1.578,1.798-2.366,1.108-1.659,2.01-3.515,3.369-4.933,2.46-2.565,2.68-.294,2.938,1.593.805,2.177-7.153,4.321-.024,6.521.027,1.044.053,2.089.079,3.133-2.151.544-4.302,1.088-6.453,1.632-.178-1.455-.385-1.913-2.408-1.768-14.514,1.044-28.579,4.74-42.898,6.879l-.206-.2Z"/><path class="cls-21" d="m215.9,62.537c.03.931.06,1.863.091,2.794,0,0-.254.253-.253.252-3.311.11-5.312-1.529-7.003-4.355-2.327-3.888-5.794-6.276-10.701-5.498-.542-.558-1.084-1.117-1.626-1.675-.761-4.14-5.315-5.697-6.508-9.543,1.646.482,3.292.964,4.938,1.445,2.662,1.671,5.325,3.342,7.988,5.014,4.358,3.856,8.716,7.711,13.074,11.566Z"/><path class="cls-32" d="m189.9,44.512c1.192,3.846,5.746,5.403,6.508,9.544-3.237.051-5.382-2.314-7.594-3.982-4.459-3.361-8.187-3.042-11.907.829-7.128-2.201.829-4.345.025-6.522,4.334-1.034,8.678-3.063,12.969.131Z"/><path class="cls-32" d="m170.624,47.721c-.599.789-1.199,1.578-1.798,2.366-5.429-4.303-11.828-1.711-17.751-2.493,2.369-2.66,5.536-1.498,8.344-1.544,3.565-.058,4.747-1.804,4.642-5.002,4.653-.197,6.718,2.148,6.563,6.672Z"/><path class="cls-78" d="m97.354,79.974c2.559-1.449-.279-7.085,4.995-6.427,3.206-.037,6.411-.074,9.618-.11-3.493,6.353-6.956,12.723-10.548,19.019-.262.46-1.463.386-2.227.56-.108-2.766-.215-5.533-.323-8.299-.505-1.581-1.011-3.161-1.516-4.742Z"/><path class="cls-33" d="m111.965,73.436c-3.205.037-6.411.074-9.616.111,2.164-1.665,4.328-3.33,6.493-4.996,5.408-2.63,9.714-7.493,16.181-7.973,0,0,.205.2.203.198-.07,1.321.301,2.421,1.556,3.075-1.414,4.269-4.605,5.233-8.676,4.807-3.49-.366-6.42.205-6.141,4.779Z"/><path class="cls-23" d="m97.353,79.974c.505,1.581,1.011,3.161,1.519,4.744-2.716.299-4.026-2.374-6.313-2.987-2.143-1.021-3.571-3.385-6.281-3.343-.026-1.203-.052-2.406-.077-3.613,4.795-.575,7.953,2.355,11.152,5.199Z"/><path class="cls-120" d="m86.278,78.388c2.71-.042,4.138,2.322,6.282,3.342-.581,3.356-1.466,6.363-3.326,9.52-4.642,7.878-9.825,16.033-6.24,26.04-.015,2.694-.031,5.388-.046,8.082l-.337.013c-7.824-1.563-4.898-8.274-6.213-12.954,1.448-11.883,3.502-23.59,9.881-34.044Z"/><path class="cls-45" d="m170.533,55.667c2.151-.544,4.302-1.088,6.453-1.631,16.295,3.793,13.859,8.589,22.64,18.423,3.684,4.126,14.154,13.398,19.544,13.764,2.131.084,4.261.168,6.392.252-1.406,1.883-17.504,4.134-4.654,6.738-.076.464-.139.928-.188,1.394-4.217,5.55-1.734,11.677-.701,17.252.855,4.614.091,7.069-4.07,8.666-1.215-8.046-4.367-14.061-5.7-22.393-.883-5.52,1.64-12.342-7.391-11.562-1.581-.063-3.162-.126-4.742-.189-4.075-11.705-7.932-23.603-22.852-25.667-2.253-.13-3.832-1.284-4.897-3.219.055-.609.111-1.219.166-1.828Z"/><path class="cls-68" d="m215.949,120.525c4.16-1.597,4.925-4.052,4.069-8.666-1.034-5.575-3.516-11.702.701-17.252,6.803,10.841,2.19,35.914-3.269,45.721-6.496,11.671-17.606,33.375-33.883,28.702,4.856-3.743,5.331-10.383,9.603-14.513,10.279,4.516,9.603-3.184,13.884-9.107,2.549-3.526,8.744-7.46,8.713-11.933,2.324-4.286-.301-8.641.181-12.952Z"/><path class="cls-79" d="m193.171,154.517c-4.273,4.13-4.747,10.77-9.603,14.513-7.656,3.537-11.787,9.696-13.267,17.826-6.119-7.827-8.165-8.326-12.792-3.115-2.161-.03-4.322-.06-6.482-.089-.024-.553-.048-1.106-.072-1.659.026-1.08.051-2.161.077-3.241,4.468-1.084,13.062-.918,16.861-2.898,7.617-3.969,16.047-17.849,21.913-24.553,0,0,.096-.054.097-.054,1.09,1.09,2.179,2.179,3.268,3.269Z"/><path class="cls-27" d="m233.436,112.149c1.918,8.323-2.613,15.369-4.55,22.928-10.667-.793,4.845-23.829,2.804-25.782.131,1.254.713,2.205,1.747,2.855Z"/><path class="cls-106" d="m157.509,183.742c4.626-5.211,6.673-4.713,12.792,3.115-.291,2.465,1.903,6.044-2.911,6.483-1.155-1.042-2.311-2.084-3.467-3.127-1.378-2.909-3.9-4.686-6.414-6.472Z"/><path class="cls-20" d="m219.169,86.223c-5.39-.367-15.86-9.638-19.544-13.764-8.78-9.833-6.344-14.63-22.64-18.423-.026-1.045-.052-2.09-.079-3.134,3.719-3.87,7.447-4.19,11.906-.829,2.213,1.668,4.357,4.033,7.594,3.982.542.558,1.084,1.116,1.626,1.674,1.978,9.973,8.441,15.482,17.924,17.987,5.164.074,7.669,1.666,4.498,7.146-.882,1.525-.882,3.559-1.286,5.36Z"/><path class="cls-62" d="m215.958,73.717c-9.484-2.504-15.946-8.014-17.924-17.987,4.908-.778,8.374,1.61,10.701,5.498,1.691,2.825,3.691,4.465,7.003,4.355.658,2.696,2.178,5.368.22,8.134Z"/><path class="cls-15" d="m157.509,183.742c2.514,1.785,5.036,3.562,6.414,6.472-11.072-3.356-22.913-2.421-33.942-6.123-3.199-1.074-4.974,3.11-8.131,2.81-5.815-3.274-6.381-7.509-10.127-10.563-3.379-2.754-10.554-.987-12.546-5.64-4.718-7.861-10.499-15.154-12.947-24.227,4.04,3.698,7.294,7.987,9.69,12.918-.002,5.903,21.298,16.469,25.282,18.208,6.944,3.03,20.256,8.304,29.824,6.056,2.161.03,4.322.06,6.482.089Z"/><path class="cls-101" d="m95.921,159.388c-2.396-4.931-5.65-9.219-9.69-12.918-6.25-6.163-2.341-14.067-3.618-21.084-.002,0,.335-.014.335-.014,1.07,1.649,2.14,3.298,3.21,4.946,3.555,7.61,6.295,15.634,12.089,22.081,1.016,1.131.611,3.537.862,5.354-1.062.544-2.125,1.089-3.187,1.633Z"/><path class="cls-40" d="m170.533,55.667c-.055.609-.11,1.219-.165,1.827-1.039,1.587-2.08,3.176-3.12,4.764-2.002-1.196-4.121-1.925-6.498-1.634-6.584.545-13.88-2.245-19.595,1.573-4.243,2.835-8.223,3.238-12.73,3.277-.548-.541-1.095-1.082-1.643-1.623-1.255-.654-1.626-1.754-1.556-3.075,14.321-2.137,28.386-5.833,42.9-6.877,2.022-.145,2.229.312,2.408,1.768Z"/><path class="cls-66" d="m126.782,63.85c.548.541,1.095,1.082,1.642,1.623,1.929,3.029,6.21.13,8.119,3.214-6.46,6.676-13.249,12.836-22.851,14.602-3.981.466-6.003,2.843-6.45,6.69-.562,4.84-3.285,6.846-8.053,6.243,0-1.069.002-2.138.003-3.207.764-.174,1.964-.1,2.227-.56,3.592-6.296,7.055-12.666,10.548-19.019-.281-4.575,2.649-5.145,6.139-4.78,4.071.426,7.262-.538,8.676-4.807Z"/><path class="cls-29" d="m99.192,93.016c-.001,1.069-.002,2.138-.003,3.207-6.098-1.776-6.054,2.753-5.567,6.208.36,2.557.167,4.586-.972,6.712-3.641,2.217-7.194,4.537-9.656,8.149-3.584-10.007,1.599-18.162,6.24-26.04,1.86-3.158,2.745-6.164,3.326-9.52,2.286.613,3.597,3.287,6.312,2.987.105,2.765.212,5.531.32,8.297Z"/><path class="cls-9" d="m82.994,117.291c2.462-3.612,6.015-5.932,9.656-8.149,1.086.002,2.172.004,3.258.006.036,1.35.339,2.564,1.659,3.263.359,5.193-7.678,8.512-3.266,14.609,1.068,1.635,2.136,3.271,3.204,4.906-3.715-1.012-7.393-2.281-11.348-1.607-1.07-1.649-2.14-3.298-3.21-4.947.015-2.694.031-5.388.046-8.082Z"/><path class="cls-83" d="m167.248,62.258c1.04-1.589,2.081-3.177,3.12-4.764,1.063,1.937,2.642,3.091,4.896,3.22.708,3.835,4.71,6.719,3.239,11.186-2.961,3.009,9.302,21.403,12.04,26.214,8.288,14.566,8.668,22.025,5.9,40.229-.338,5.234-9.414,6.047-6.541,12.906,0,0-.096.054-.095.054-2.249-.205-4.13.502-5.975,1.862-11.204,8.261-23.24,13.825-37.7,11.082-4.628.267-9.092.33-8.074-6.455.001-1.629.003-3.257.004-4.886,17.463,4.731,35.401-1.809,46.228-16.958,10.788-15.095,3.322-29.488-4.306-44.727-7.935-15.853-17.323-19.69-33.399-12.896-10.389,4.39-12.653,4.919-16.632,15.728-4.118,11.185-6.251,24.28-4.815,36.163-7.035-4.442-4.332-11.577-4.932-17.799,6.364-14.672,3.309-29.52,18.86-39.4,3.797-2.412,29.766-7.347,28.182-10.759Z"/><path class="cls-109" d="m196.444,138.342c2.768-18.204,2.389-25.664-5.9-40.229-2.738-4.811-15.001-23.205-12.039-26.214,6.914,1.846,12.665,5.037,14.903,12.495.72,2.4,2.846,2.006,4.708,1.988,1.581.063,3.162.126,4.743.188-5.221,14.33,2.841,26.975,3.261,41.572-2.74,1.279-6.647,4.283-6.452,10.257-1.075-.019-2.149-.037-3.224-.056Z"/><path class="cls-76" d="m199.668,138.398c-.196-5.974,3.712-8.978,6.452-10.257-.42-14.596-8.482-27.242-3.261-41.572,9.03-.779,6.507,6.042,7.39,11.562,1.333,8.332,4.484,14.347,5.7,22.393-.482,4.312,2.144,8.666-.179,12.952-5.396-.452-8.187,4.386-12.443,6.316-2.547,1.155-3.196,1.164-3.658-1.396Z"/><path class="cls-40" d="m198.116,86.381c-1.861.018-3.988.412-4.708-1.988-2.238-7.457-7.989-10.649-14.903-12.495,1.469-4.466-2.532-7.351-3.24-11.186,14.919,2.065,18.777,13.963,22.851,25.668Z"/><path class="cls-41" d="m199.668,138.398c.462,2.56,1.111,2.551,3.658,1.396,4.256-1.93,7.047-6.769,12.443-6.316.03,4.473-6.165,8.407-8.714,11.934-4.281,5.923-3.605,13.622-13.884,9.107-1.089-1.09-2.179-2.179-3.268-3.269-2.874-6.86,6.202-7.672,6.54-12.906,1.075.019,2.15.037,3.224.056Z"/><path class="cls-128" d="m146.133,164.246c14.46,2.743,26.496-2.82,37.7-11.081,1.845-1.36,3.726-2.067,5.975-1.862-5.867,6.704-14.298,20.584-21.915,24.553-3.8,1.98-12.394,1.814-16.861,2.899-1.473-3.816,3.69-10.522-4.9-11.241,0-1.089,0-2.178.001-3.267Z"/><path class="cls-87" d="m95.921,159.388c1.062-.544,2.125-1.089,3.188-1.633.317,2.511,1.201,4.584,3.899,5.249,2.236-1.476-.386-4.963,3.174-6.198,1.802,5.046,5.796,7.698,10.771,9.105,3.139,2.252,2.055,8.795,8.167,8.026,8.612,2.686,17.224,5.371,25.835,8.057.024.553.048,1.107.072,1.659-9.567,2.247-22.879-3.026-29.824-6.057-3.984-1.739-25.285-12.305-25.282-18.208Z"/><path class="cls-86" d="m150.955,181.994c-8.612-2.686-17.224-5.371-25.836-8.056,2.229-4.037,5.286-5.964,9.931-3.927,4.3,1.887,7.772.036,11.082-2.498,8.591.719,3.427,7.425,4.901,11.241-.026,1.079-.051,2.16-.077,3.24Z"/><path class="cls-92" d="m116.952,165.911c-4.975-1.407-8.969-4.059-10.77-9.105-3.56,1.235-.938,4.723-3.174,6.198-2.697-.666-3.582-2.738-3.899-5.249-.252-1.817.154-4.224-.862-5.355-5.794-6.447-8.534-14.47-12.089-22.081,3.954-.674,7.632.596,11.348,1.607,3.102,11.076,7.475,21.361,17.424,28.226,2.031,1.401,2.125,3.566,2.023,5.759Z"/><path class="cls-88" d="m167.248,62.257c1.584,3.412-24.385,8.347-28.182,10.759-15.55,9.879-12.495,24.728-18.859,39.4-5.29,3.883-10.431,7.66-16.587,1.011-1.1-1.188-3.99-.72-6.054-1.016-1.319-.698-1.623-1.913-1.659-3.262,9.747-5.997,14.941-15.121,17.785-25.86,9.602-1.766,16.391-7.927,22.85-14.602,6.991-1.265,13.199-5.608,20.673-5.126,1.634.105,2.779-1.435,3.536-2.937,2.376-.291,4.496.438,6.498,1.634Z"/><path class="cls-31" d="m160.751,60.624c-.757,1.502-1.902,3.042-3.536,2.937-7.474-.481-13.683,3.861-20.673,5.126-1.907-3.084-6.188-.185-8.117-3.214,4.508-.038,8.488-.442,12.731-3.277,5.715-3.818,13.011-1.028,19.595-1.573Z"/><path class="cls-3" d="m113.692,83.29c-2.843,10.738-8.038,19.862-17.785,25.86-1.086-.002-2.172-.004-3.258-.007,1.139-2.127,1.332-4.155.972-6.713-.487-3.455-.53-7.984,5.567-6.208,4.768.603,7.492-1.403,8.053-6.243.446-3.847,2.469-6.223,6.45-6.69Z"/><path class="cls-56" d="m97.566,112.412c2.064.296,4.954-.172,6.054,1.016,6.156,6.649,11.297,2.871,16.587-1.011.6,6.222-2.103,13.357,4.931,17.799,4.312,6.176,7.208,13.294,12.632,18.763.703.709.224,2.589.293,3.926-.001,1.629-.003,3.257-.004,4.886-3.637-.987-2.697-7.351-8.087-6.535-15.534,2.351-22.716-8.154-29.179-19.464-1.526-2.67-2.728-5.34-6.493-4.77-4.412-6.097,3.625-9.416,3.266-14.609Z"/><path class="cls-112" d="m94.301,127.021c3.765-.57,4.967,2.1,6.493,4.77,6.463,11.311,13.645,21.815,29.179,19.464,5.39-.816,4.45,5.548,8.087,6.535-1.018,6.785,3.447,6.723,8.074,6.455,0,1.089,0,2.178-.002,3.267-3.31,2.534-6.782,4.385-11.082,2.498-4.645-2.038-7.701-.11-9.931,3.927-6.112.769-5.028-5.774-8.167-8.026.102-2.193.008-4.357-2.023-5.759-9.949-6.865-14.322-17.15-17.424-28.226-1.068-1.635-2.137-3.27-3.205-4.906Z"/><path class="cls-11" d="m138.063,152.905c-.069-1.337.41-3.217-.293-3.926-5.424-5.469-8.32-12.587-12.632-18.763-1.435-11.883.698-24.979,4.816-36.163,3.979-10.809,6.243-11.338,16.632-15.728,16.077-6.794,25.464-2.957,33.399,12.896,7.628,15.238,15.094,29.632,4.306,44.727-10.827,15.148-28.765,21.689-46.228,16.958Zm40.469-40.563c-.066-.32-.214-1.384-.507-2.407-3.31-11.536-22.118-26.239-34.458-22.287-10.37,3.321-15.44,22.484-13.872,31.729,5.368,31.647,49.384,22.588,48.837-7.035Z"/><path class="cls-22" d="m178.532,112.342c.547,29.623-43.47,38.682-48.837,7.035-1.568-9.246,3.502-28.408,13.872-31.729,12.34-3.952,31.148,10.751,34.458,22.287.294,1.023.441,2.087.507,2.407Z"/></svg>