<?xml version="1.0" encoding="UTF-8"?><svg id="Layer_1" xmlns="http://www.w3.org/2000/svg" viewBox="0 0 231.06 248.132"><defs><style>.cls-1{fill:#2a783c;}.cls-2{fill:#4e7b6b;}.cls-3{fill:#6b9089;}.cls-4{fill:#80c394;}.cls-5{fill:#8bc89e;}.cls-6{fill:#4f6e67;}.cls-7{fill:#69a389;}.cls-8{fill:#72a091;}.cls-9{fill:#7dbc8b;}.cls-10{fill:#c8e5d5;}.cls-11{fill:#2a6e37;}.cls-12{fill:#3a5e56;}.cls-13{fill:#286f37;}.cls-14{fill:#8bbead;}.cls-15{fill:#6ab48b;}.cls-16{fill:#76ad93;}.cls-17{fill:#2f6a4b;}.cls-18{fill:#435d58;}.cls-19{fill:#435e58;}.cls-20{fill:#5c7872;}.cls-21{fill:#2b5049;}.cls-22{fill:#476761;}.cls-23{fill:#71988c;}.cls-24{fill:#609c81;}.cls-25{fill:#327e3d;}.cls-26{fill:#5c8176;}.cls-27{fill:#5f8179;}.cls-28{fill:#60997f;}.cls-29{fill:#2e4642;}.cls-30{fill:#52786d;}.cls-31{fill:#386359;}.cls-32{fill:#81c19b;}.cls-33{fill:#7fc586;}.cls-34{fill:#215429;}.cls-35{fill:#4c7766;}.cls-36{fill:#405d56;}.cls-37{fill:#b7dccc;}.cls-38{fill:#b8dbcd;}.cls-39{fill:#334b46;}.cls-40{fill:#3d695d;}.cls-41{fill:#398342;}.cls-42{fill:#5c827a;}.cls-43{fill:#84c78b;}.cls-44{fill:#2b7138;}.cls-45{fill:#8db9a6;}.cls-46{fill:#61917f;}.cls-47{fill:#a3ccba;}.cls-48{fill:#76a894;}.cls-49{fill:#2b6834;}.cls-50{fill:#68b281;}.cls-51{fill:#7daf9a;}.cls-52{fill:#598473;}.cls-53{fill:#328440;}.cls-54{fill:#609081;}.cls-55{fill:#558d73;}.cls-56{fill:#84b5a6;}.cls-57{fill:#aed7c1;}.cls-58{fill:#4c7063;}.cls-59{fill:#3c5a53;}.cls-60{fill:#4a7665;}.cls-61{fill:#92b9a7;}.cls-62{fill:#68ac7d;}.cls-63{fill:#80c78f;}.cls-64{fill:#84c795;}.cls-65{fill:#7ab295;}.cls-66{fill:#6a9b8a;}.cls-67{fill:#7ca293;}.cls-68{fill:#62ac76;}.cls-69{fill:#4d6d66;}</style></defs><path class="cls-49" d="m152.832,240.971c2.038-1.358,4.076-2.715,6.114-4.073-3.395.003-6.789.007-10.184.01-11.831,2.912-23.782,5.419-35.444,8.898-6.258,1.867-10.451.881-13.497-4.815-11.094,2.487-21.507,1.562-30.574-6.099-25.526-8.061-42.006-35.205-59.037-55.048l-.061.042c4.396,21.989,35.202,48.969,54.097,58.909,29.038,15.276,58.204,8.683,88.585,2.177Z"/><path class="cls-49" d="m93.721,8.802c-6.414,1.546-16.19,5.902-22.823,3.872-5.315-1.626-8.251-10.737-12.348-11.317-14.432-2.043-11.198,37.051-23.908,44.133,0,0,.002-.004.002-.004-8.158,9.501-16.316,19.002-24.474,28.503-1.36,4.749-2.721,9.497-4.081,14.245,12.254-14.919,24.509-29.838,36.762-44.758.662-.68,1.325-1.359,1.988-2.039,2.749-10.363,5.498-20.726,8.247-31.089,1.023-.05,2.046-.1,3.069-.15,8.22,13.855,26.064,3.973,37.572.649-.002-.682-.004-1.364-.007-2.046Z"/><path class="cls-13" d="m42.852,43.477c-12.254,14.919-24.509,29.838-36.763,44.757C4.059,97.058,2.03,105.881,0,114.704c1.352,3.776,3.347,7.457,3.919,11.348,1.132,7.702,1.477,15.52,2.148,23.29,1.367-18.825,1.45-37.858,4.471-56.414,2.883-17.711,17.659-28.057,30.198-39.315.705-3.379,1.41-6.758,2.115-10.137Z"/><path class="cls-49" d="m6.067,149.342c-.67-7.77-1.016-15.588-2.148-23.29-.572-3.89-2.568-7.572-3.919-11.348.73,17.408,1.459,34.816,2.137,50.997,2.924,5.175,5.469,9.68,8.013,14.184,0,0,.06-.042.06-.041-.015-4.741-.03-9.481-.045-14.222-1.366-5.426-2.732-10.853-4.098-16.279Z"/><path class="cls-34" d="m10.17,73.989c8.158-9.501,16.316-19.002,24.474-28.503-11.767,6.407-21.209,14.808-24.474,28.503Z"/><path class="cls-11" d="m93.721,8.802c.002.682.004,1.364.007,2.046,13.841-10.107,17.393-1.125,29.346,4.821,11.984,5.962,31.012,6.638,44.011,9.453l.029-.034c-4.762-3.407-9.524-6.814-14.287-10.221-13.914-1.186-20.59-2.355-32.271-9.01-11.398-6.494-16.392-10.101-26.836,2.945Z"/><path class="cls-11" d="m197.688,43.415c-10.191-6.109-20.383-12.217-30.574-18.326,0,0-.029.033-.029.033,2.722,2.712,5.444,5.425,8.167,8.138,9.508,6.111,19.016,12.222,28.524,18.334-2.029-2.726-4.058-5.452-6.087-8.178Z"/><path class="cls-1" d="m148.762,236.908c3.395-.003,6.789-.007,10.184-.01,10.075-4.365,39.656-18.747,57.901-52.477,2.305-4.261,24.354-46.548,8.547-92.072-2.458-7.078-5.278-12.644-7.348-16.339-.676,2.72-1.352,5.44-2.028,8.16,2.086,4.494,4.621,8.853,6.039,13.549.574,1.9-1.29,4.534-2.044,6.834.683,1.301,1.366,2.602,2.049,3.903,1.368,6.808,2.735,13.617,4.103,20.425-1.959,12.311-3.919,24.622-5.878,36.932-7.092,16.868-15.752,33.044-30.324,44.385-10.87,8.461-20.473,20.84-37.006,18.559-4.89,2.673-9.78,5.345-14.671,8.018,3.492.044,6.984.088,10.476.132Z"/><path class="cls-44" d="m10.165,165.621c.015,4.741.03,9.482.045,14.222,17.032,19.843,33.512,46.987,59.038,55.048l.029-.04c-8.563-7.532-17.934-14.339-25.509-22.758-12.806-14.233-28.253-26.784-33.603-46.472Z"/><path class="cls-44" d="m148.762,236.908c-3.492-.044-6.984-.088-10.475-.132-.587-.008-1.152.101-1.694.327-12.246,1.282-24.492,2.564-36.738,3.845l-.033.042c3.046,5.696,7.239,6.682,13.497,4.815,11.661-3.479,23.613-5.986,35.444-8.898Z"/><path class="cls-44" d="m69.248,234.892c9.067,7.661,19.48,8.586,30.574,6.099,0,0,.033-.042.033-.042-10.193-2.032-20.386-4.065-30.578-6.098l-.029.04Z"/><path class="cls-13" d="m175.251,33.26c-2.722-2.713-5.444-5.425-8.166-8.138-13-2.814-32.028-3.491-44.011-9.453-11.954-5.947-15.505-14.929-29.346-4.821-11.509,3.324-29.353,13.206-37.572-.649-1.023.05-2.046.1-3.069.15-2.749,10.363-5.498,20.726-8.247,31.089,13.074-6.954,42.067-29.797,56.455-29.668,10.098.091,21.49,9.741,31.249,13.069,6.08,1.527,12.16,3.054,18.24,4.581,3.259.664,6.517,1.327,9.776,1.991,4.898.616,9.796,1.233,14.693,1.849Z"/><path class="cls-53" d="m132.543,24.839c-9.759-3.328-21.151-12.978-31.249-13.069-14.388-.129-43.381,22.714-56.455,29.668-.663.68-1.326,1.359-1.988,2.039-.704,3.379-1.409,6.758-2.114,10.137-.661,2.101-1.323,4.202-1.984,6.304,1.427-.963,2.853-1.925,4.28-2.888,1.102-1.049,2.204-2.098,3.306-3.147,11.684-7.611,23.367-15.222,35.05-22.833,8.242-1.888,16.485-3.777,24.727-5.665,8.809-.182,17.618-.364,26.427-.546Z"/><path class="cls-25" d="m38.752,59.917c.661-2.101,1.323-4.202,1.984-6.304-12.539,11.258-27.315,21.604-30.198,39.315-3.021,18.556-3.104,37.589-4.471,56.414,1.366,5.426,2.732,10.853,4.098,16.279,5.35,19.689,20.797,32.239,33.603,46.472,7.575,8.419,16.946,15.226,25.509,22.758,10.193,2.033,20.385,4.065,30.578,6.097,12.246-1.282,24.492-2.564,36.738-3.846-15.99-1.145-31.979-2.29-47.969-3.434.539-1.032,1.078-2.064,1.618-3.097-.154-3.393-.307-6.786-.462-10.178-2.747,1.414-5.492,2.828-8.237,4.241.088,1.463.175,2.926.263,4.389-9.682,10.957-47.814-32.448-49.235-41.003C-4.32,148.046,13.894,100.639,38.752,59.917Z"/><path class="cls-41" d="m175.251,33.26c-4.898-.616-9.796-1.233-14.69-1.85,1.679,1.05,3.426,2.005,5.022,3.167,10.593,7.712,21.154,15.469,31.726,23.211,6.237,8.794,12.473,17.589,18.71,26.383.676-2.72,1.352-5.44,2.028-8.16-4.724-7.485-9.447-14.971-14.169-22.456-.048-.653-.082-1.307-.102-1.961-9.508-6.111-19.016-12.222-28.524-18.333Z"/><path class="cls-4" d="m152.957,228.758c16.533,2.281,26.136-10.098,37.006-18.559,14.572-11.342,23.233-27.518,30.324-44.386-.795-5.357-1.59-10.713-2.384-16.069-12.108,11.441-15.605,26.217-24.849,39.49-7.366,10.577-24.632,23.651-36.708,28.684-.948-2.172-1.795-4.113-2.773-6.352-3.358,1.941-6.218,3.593-9.076,5.244,2.071,2.574,4.141,5.15,6.212,7.725.75,1.408,1.499,2.816,2.249,4.224Z"/><path class="cls-7" d="m144.496,216.811c2.859-1.652,5.718-3.304,9.077-5.245.978,2.24,1.825,4.181,2.773,6.352,12.075-5.033,29.342-18.107,36.708-28.684,9.244-13.274,12.741-28.049,24.85-39.495.712-2.972,1.422-5.94,2.133-8.908-4.945-4.436-5.679-27.919-.898-31.979.631-.536,1.932-.283,2.923-.396-.683-1.301-1.366-2.602-2.049-3.904-1.335-.692-2.67-1.383-4.005-2.074-4.862,13.611-1.938,27.338-7.211,40.829-5.04,12.894-14.255,24.522-21.257,36.42-.015,2.103-.03,4.205-.045,6.306-9.38,7.5-18.76,15-28.748,22.987-6.768-2.091-13.786.018-20.108,5.216,1.952.858,3.905,1.716,5.857,2.574Z"/><path class="cls-33" d="m152.957,228.758c-.75-1.408-1.499-2.816-2.248-4.223-13.552-1.36-27.104-2.72-40.657-4.08-2.228-.349-4.811-.096-6.616-1.161-4.986-2.939-9.44-3.56-13.655,1.099.154,3.393.307,6.786.461,10.179-.539,1.032-1.078,2.064-1.618,3.097,15.989,1.145,31.979,2.289,47.969,3.434.543-.226,1.108-.335,1.695-.327,4.889-2.673,9.78-5.346,14.67-8.018Z"/><path class="cls-65" d="m216.009,102.479c1.335.691,2.671,1.382,4.005,2.074.754-2.3,2.618-4.934,2.044-6.834-1.418-4.696-3.953-9.055-6.039-13.549-6.237-8.794-12.473-17.588-18.708-26.384-.636.036-1.27.107-1.901.21-.023,1.972-.045,3.946-.067,5.92.697,11.568,5.022,21.638,12.569,30.375,2.699,2.729,5.398,5.458,8.097,8.186Z"/><path class="cls-32" d="m222.062,108.456c-.991.113-2.292-.14-2.923.396-4.781,4.06-4.047,27.543.897,31.982,2.043-3.982,4.086-7.967,6.129-11.953-1.368-6.808-2.735-13.617-4.103-20.425Z"/><path class="cls-68" d="m226.166,128.882c-2.043,3.985-4.086,7.971-6.129,11.953-.71,2.965-1.421,5.933-2.132,8.905.793,5.36,1.588,10.717,2.383,16.074,1.96-12.31,3.919-24.621,5.879-36.932Z"/><path class="cls-5" d="m132.543,24.839c-8.809.182-17.618.364-26.427.545,1.311,2.58,2.623,5.16,3.934,7.741,4.033.033,8.069-.012,12.1.113,10.36.319,21.271-3.459,30.683,4.048-.683-2.622-1.366-5.244-2.05-7.866-6.08-1.527-12.16-3.054-18.24-4.581Z"/><path class="cls-9" d="m150.783,29.42c.683,2.622,1.367,5.244,2.05,7.866.667.045,1.334.084,2.002.119,12.302,7.53,24.604,15.059,36.906,22.589,1.223-.665,2.447-1.33,3.67-1.995.63-.105,1.263-.176,1.9-.212-10.573-7.741-21.134-15.498-31.727-23.21-1.596-1.162-3.342-2.117-5.022-3.167-3.261-.663-6.52-1.327-9.779-1.99Z"/><path class="cls-43" d="m38.752,59.917c-24.858,40.722-43.072,88.129-6.183,128.103,1.357-1.359,2.714-2.717,4.071-4.076.701-3.405,1.402-6.809,2.104-10.214-.742-1.969-1.485-3.938-2.227-5.907-14.694,3.363-9.023-14.672-8.227-23.123-1.02-.054-2.039-.108-3.059-.161-.507,3.745-1.014,7.489-1.521,11.234-7.878-27.645-4.82-53.625,10.999-77.687,5.03-6.128,13.642-10.843,8.323-21.055-1.427.963-2.853,1.925-4.28,2.888Z"/><path class="cls-55" d="m43.032,57.03c5.318,10.213-3.293,14.927-8.324,21.055-1.626,15.119-7.928,25.64-6.403,42.18,1.057,11.465,14.009,37.619,8.212,47.559.742,1.969,1.485,3.938,2.226,5.908,1.365.702,2.731,1.403,4.096,2.105,1.348-1.339,2.698-2.678,4.047-4.017-.004-.684-.008-1.367-.011-2.051-1.563-.224-3.126-.448-4.688-.672-.06-.526-.119-1.052-.179-1.578,3.448-1.136,6.895-2.271,7.885-2.597-11.447-26.845-30.71-53.231-7.114-78.758,1.424-8.378,6.206-13.833,14.302-16.401,2.562-1.963,4.915-4.344,7.75-5.767,2.526-1.268,5.586-1.477,8.41-2.152-8.001-.725-16.001-1.449-24.002-2.174-.967-1.929-1.934-3.857-2.902-5.786-1.102,1.049-2.204,2.098-3.306,3.147Z"/><path class="cls-64" d="m46.338,53.883c.967,1.929,1.934,3.857,2.898,5.786,2.604-1.363,5.211-2.727,7.819-4.091,6.09-4.044,12.18-8.089,18.27-12.133,3.834-3.517,7.668-7.034,12.609-11.567-3.308-.419-4.927-.624-6.546-.829-11.684,7.611-23.367,15.222-35.05,22.833Z"/><path class="cls-62" d="m81.389,31.05c1.619.205,3.238.41,6.546.829-4.942,4.533-8.776,8.05-12.609,11.567,6.1-3.069,13.862-4.735,17.915-9.531,6.336-7.498,8.977-3.26,12.724,1.377,1.38-.036,2.76-.072,4.14-.108-.019-.686-.037-1.372-.056-2.058-1.312-2.581-2.623-5.161-3.934-7.741-8.242,1.889-16.485,3.777-24.727,5.665Z"/><path class="cls-63" d="m36.64,183.945c-1.357,1.359-2.714,2.717-4.071,4.076,1.421,8.555,39.553,51.961,49.235,41.003-.088-1.463-.175-2.926-.263-4.388,0-3.028,0-6.057,0-10.222-14.005-11.039-27.726-25.223-44.902-30.469Z"/><path class="cls-15" d="m36.64,183.945c17.176,5.246,30.897,19.429,44.902,30.469,0,4.166,0,7.194,0,10.222,2.745-1.414,5.491-2.827,8.237-4.242,4.216-4.66,8.67-4.039,13.656-1.1,1.805,1.064,4.388.812,6.616,1.161-.654-1.274-1.308-2.549-1.962-3.824-9.453-5.552-19.879-7.198-29.284-12.425-12.957-7.202-24.463-19.163-35.966-28.371-1.366-.702-2.732-1.403-4.097-2.105-.701,3.404-1.402,6.809-2.103,10.213Z"/><path class="cls-17" d="m108.09,216.632c.654,1.275,1.308,2.549,1.962,3.824,13.552,1.359,27.105,2.719,40.657,4.079-2.071-2.575-4.141-5.15-6.212-7.725-1.953-.857-3.906-1.715-5.859-2.572-2.008-1.292-4.016-2.585-6.025-3.877-1.093-1.431-2.184-2.862-3.273-4.301-.974.818-1.951,1.645-2.928,2.472-6.107,2.7-12.214,5.4-18.321,8.1Z"/><path class="cls-54" d="m216.009,102.479c-2.699-2.729-5.398-5.458-8.098-8.186-.037.714-.073,1.428-.11,2.141-1.768,28.104-2.88,59.705-24.219,81.191.693.67,1.385,1.339,2.078,2.009.624.086,1.251.117,1.88.092,7.002-11.897,16.217-23.524,21.257-36.419,5.273-13.491,2.349-27.218,7.211-40.829Z"/><path class="cls-24" d="m132.614,210.361c2.008,1.293,4.016,2.586,6.024,3.877,6.323-5.199,13.341-7.308,20.109-5.217,9.988-7.986,19.368-15.487,28.748-22.987-6.055,2.785-12.111,5.57-18.167,8.353-2.743,2.006-5.484,4.013-8.225,6.021-8.233,1.58-16.522,2.934-24.651,4.933-1.594.392-2.574,3.282-3.836,5.02Z"/><path class="cls-35" d="m169.329,194.389c6.055-2.785,12.111-5.57,18.166-8.355.015-2.101.03-4.203.046-6.306-.629.023-1.256-.007-1.881-.092-6.199,8.55-5.672-6.174-11.97-1.233-2.099,2.242-5.816,6.214-8.301,8.868,1.773,3.203,2.857,5.16,3.941,7.117Z"/><path class="cls-42" d="m207.801,96.434c.036-.714.073-1.427.11-2.141-7.547-8.738-11.872-18.808-12.568-30.379-.993,2.883-1.987,5.769-3.04,8.824-9.199-7.036-18.983-7.245-25.5-.909,4.17,4.142,8.339,8.284,12.509,12.426,11.631-2.059,18.816,5.585,26.505,12.126.662.003,1.323.021,1.983.054Z"/><path class="cls-12" d="m166.804,71.828c6.517-6.336,16.3-6.127,25.5.909,1.053-3.055,2.047-5.941,3.04-8.824.021-1.971.043-3.945.066-5.918-1.222.667-2.446,1.332-3.67,1.996,0-.001-.11-.062-.11-.062-13.265,2.801-26.538,5.669-38.211-4.633-.9.872-1.8,1.744-2.7,2.615.61,1.294,1.219,2.589,1.829,3.884,6.074,4.605,9.468,9.249.208,14.08.669,2.854,1.339,5.709,2.008,8.564.076.497.162.993.258,1.486.75,1.285,1.5,2.569,2.25,3.854,1.281,2.797,2.561,5.594,3.842,8.391,2.017,1.462,4.034,2.923,6.05,4.385-1.934-7.434-3.868-14.868-5.802-22.302-8.559-6.381,4.119-7.777,2.889-12.408.851,1.327,1.703,2.655,2.555,3.982Z"/><path class="cls-51" d="m110.05,33.125c.019.686.037,1.372.055,2.059,6.086.714,12.173,1.427,18.26,2.14,4.707.719,9.414,1.438,14.354,2.192.498,1.621,1.171,3.81,1.844,5.999,1.396-.018,2.793-.036,4.189-.055,2.027-2.685,4.055-5.371,6.082-8.056-.668-.035-1.335-.074-2.002-.119-9.411-7.507-20.323-3.729-30.683-4.048-4.03-.124-8.066-.08-12.1-.113Z"/><path class="cls-48" d="m154.834,37.404c-2.027,2.685-4.055,5.371-6.082,8.056,1.199.73,2.397,1.46,3.596,2.191,3.53-6.98,30.832,11.749,39.281,12.279,0,0,.109.061.11.062-12.301-7.528-24.603-15.058-36.905-22.588Z"/><path class="cls-50" d="m36.517,167.824c5.798-9.94-7.154-36.094-8.212-47.559-1.525-16.539,4.776-27.061,6.403-42.18-15.819,24.062-18.877,50.042-10.999,77.687.507-3.745,1.014-7.489,1.521-11.234,1.02.054,2.039.108,3.059.161-.796,8.451-6.467,26.487,8.227,23.123Z"/><path class="cls-60" d="m42.78,86.163c-23.595,25.527-4.332,51.913,7.114,78.758-.989.326-4.437,1.461-7.885,2.597.059.526.119,1.052.179,1.578,1.563.224,3.125.448,4.688.671,3.392-1.377,6.785-2.754,10.177-4.131-3.524-7.741-7.175-15.428-10.543-23.236-5.281-12.246-4.205-17.138,4.393-21.571-.692-4.282-1.024-8.663-2.163-12.823-1.596-5.828.558-7.964,6.199-7.554-1.062-3.468-2.014-6.975-3.215-10.394-1.546-4.404-4.08-6.919-8.944-3.896Z"/><path class="cls-26" d="m42.78,86.163c4.864-3.023,7.398-.508,8.944,3.896,1.2,3.42,2.152,6.926,3.215,10.394,3.18,18.816,7.996,22.978,26.019,22.799,1.55-.015,3.111,1.095,4.667,1.682.665-.661,1.33-1.322,1.996-1.984-11.01-5.765-41.864-32.997-22.389-46.799-2.717-2.13-5.433-4.26-8.15-6.391-8.097,2.569-12.878,8.024-14.303,16.402Z"/><path class="cls-28" d="m108.09,216.632c6.107-2.7,12.214-5.4,18.32-8.102-1.963-.46-3.973-1.461-5.879-1.292-17.412,1.546-33.179-2.559-47.162-13.164-8.827-7.418-17.655-14.836-26.482-22.255-1.349,1.339-2.699,2.677-4.047,4.017,11.503,9.208,23.009,21.169,35.967,28.371,9.405,5.227,19.831,6.873,29.284,12.425Z"/><path class="cls-66" d="m57.056,55.578c-2.607,1.364-5.215,2.727-7.819,4.091,8.004.725,16.005,1.449,24.007,2.173,2.717-.059,5.433-.118,8.149-.176,5.523-1.304,11.046-2.609,16.569-3.914-5.582,0-11.165,0-18.791,0,3.756-4.015,5.899-6.308,8.043-8.6-.318-.794-.636-1.587-.954-2.381-9.815,2.686-19.489,5.782-29.204,8.807Z"/><path class="cls-21" d="m81.393,61.666c-2.716.058-5.431.117-8.149.176-2.826.677-5.886.885-8.412,2.153-2.835,1.423-5.188,3.804-7.75,5.767,2.717,2.129,5.433,4.259,8.15,6.389.713.054,1.426.109,2.138.163,6.698-2.928,13.397-5.855,20.096-8.782,2.064-.644,4.128-1.289,6.192-1.933-4.089-1.311-8.178-2.623-12.266-3.934Z"/><path class="cls-52" d="m46.887,171.819c8.827,7.418,17.655,14.836,26.482,22.255-.005-1.344-.01-2.689-.015-4.034-2.07-3.835-3.849-7.867-6.283-11.454-3.059-4.507-6.654-8.649-10.018-12.949-3.393,1.376-6.785,2.753-10.177,4.13.004.685.008,1.368.012,2.052Z"/><path class="cls-16" d="m57.056,55.578c9.716-3.025,19.389-6.121,29.204-8.807.318.794.636,1.587.954,2.381-2.144,2.292-4.288,4.585-8.043,8.6,7.627,0,13.209,0,18.79,0,1.413-2.623,2.827-5.246,4.241-7.869,1.255-4.864,2.509-9.728,3.764-14.592-3.747-4.637-6.388-8.875-12.724-1.377-4.053,4.796-11.815,6.462-17.915,9.531-6.091,4.045-12.181,8.089-18.271,12.133Z"/><path class="cls-46" d="m105.966,35.291c-1.255,4.864-2.509,9.728-3.766,14.59,1.814,1.997,3.629,3.997,5.445,5.996,2.952-3.733,5.905-7.466,8.857-11.2.736-7.635,6.306-7.484,11.863-7.353-6.087-.713-12.174-1.426-18.26-2.14-1.379.035-2.759.071-4.14.107Z"/><path class="cls-2" d="m73.354,190.041c.005,1.345.01,2.69.015,4.034,13.983,10.604,29.75,14.71,47.162,13.163,1.906-.169,3.917.832,5.879,1.292.978-.825,1.954-1.652,2.929-2.47,1.089,1.439,2.18,2.87,3.273,4.301,1.264-1.738,2.244-4.628,3.838-5.02,8.13-1.999,16.418-3.353,24.65-4.935-2.763-2.102-5.525-4.202-8.287-6.303-13.695,11.181-50.155,5.791-65.218.061-4.747-1.374-9.494-2.749-14.241-4.124Z"/><path class="cls-30" d="m207.801,96.434c-.661-.033-1.322-.051-1.983-.054-2.328.602-4.655,1.204-6.445,1.667,1.723,8.749,3.305,16.78,5.244,26.625-3.511-2.198-4.811-3.012-4.83-3.024-4.91,18.642-10.2,34.806-18.488,52.119.761,1.286,1.522,2.571,2.282,3.857,21.339-21.487,22.451-53.087,24.219-81.191Z"/><path class="cls-36" d="m183.583,177.625c-.761-1.285-1.522-2.571-2.282-3.856.029-2.71.058-5.419.086-8.129,0,0-.065-.062-.064-.062-2.012.034-4.024.066-6.036.1,2.172,8.516-4.632,5.151-8.145,6.142-.881,3.434-.907,7.481-2.834,10.167-3.208,4.471-7.634,8.069-11.548,12.035l.053.081c2.762,2.101,5.524,4.201,8.287,6.303,2.742-2.006,5.484-4.014,8.226-6.019-1.082-1.955-2.166-3.913-3.939-7.115,2.485-2.655,6.202-6.626,8.301-8.868,6.298-4.941,5.772,9.783,11.97,1.233-.691-.671-1.383-1.341-2.076-2.011Z"/><path class="cls-36" d="m166.804,71.828c-.852-1.327-1.703-2.655-2.555-3.982,1.23,4.631-11.448,6.027-2.892,12.407,11.248-2.011,11.789,8.187,16.092,14.095,9.531,10.094,9.529,19.048-.008,24.352,2.98,4.457,8.423,8.587,1.906,14.307,2.526.359,5.053.718,7.775,1.105-2.044,11.088-3.922,21.277-5.8,31.465,0,0,.065.062.065.062,9.143-11.61,12.598-29.392,12.731-44.042.141-15.507-8.844-23.497-14.805-37.343-4.17-4.142-8.339-8.284-12.509-12.426Z"/><path class="cls-22" d="m179.313,84.254c5.962,13.846,14.946,21.836,14.805,37.343-.133,14.65-3.588,32.432-12.731,44.042-.028,2.71-.057,5.42-.086,8.129,8.287-17.313,13.576-33.477,18.487-52.12.019.012,1.319.826,4.83,3.024-1.939-9.845-3.521-17.876-5.244-26.625,1.789-.463,4.117-1.065,6.445-1.667-7.69-6.542-14.874-14.186-26.505-12.126Z"/><path class="cls-23" d="m67.371,76.315c-.713-.055-1.426-.11-2.139-.164-19.476,13.803,11.379,41.035,22.389,46.8,1.97.57,3.939,1.141,5.91,1.712,4.449,2.112,8.752,5.625,13.368,6.1,24.114,2.478,43.167-8.448,60.12-24.199.011-1.365.022-2.729.032-4.094l.112.087c-2.017-1.462-4.034-2.923-6.051-4.384-9.279,14.086-17.469,21.573-34.195,25.777-7.172,1.803-33.274,7.174-29.108-9.242,0,0,.12-.174.118-.173-5.262-2.098-12.828-2.713-15.328-6.589-6.294-9.759-10.303-20.99-15.228-31.631Z"/><path class="cls-67" d="m97.808,114.708c-4.166,16.415,21.935,11.044,29.108,9.242,16.726-4.203,24.916-11.691,34.195-25.777-1.28-2.798-2.561-5.595-3.842-8.391-2.152,11.161-19.147,26.202-32.051,29.104-9.834,2.211-19.206,3.382-27.409-4.178Z"/><path class="cls-47" d="m155.02,85.926c-.096-.494-.182-.989-.257-1.487-4.034,0-8.067,0-12.101-.001,2.024.923,4.047,1.845,4.819,2.197-7.755,6.136-23.894,24.964-35.327,20.416-1.356-.872-2.712-1.744-4.069-2.616-2.062,1.977-4.124,3.953-6.187,5.93,20.48,15.596,41.03-11.902,53.122-24.438Z"/><path class="cls-61" d="m155.02,85.926c-12.091,12.536-32.642,40.035-53.122,24.442,0,.003-.042.177-.042.177-1.309,1.329-2.618,2.659-3.927,3.988,0,0-.12.174-.12.174,8.203,7.559,17.576,6.389,27.409,4.178,12.904-2.902,29.899-17.942,32.051-29.104-.749-1.286-1.499-2.571-2.249-3.855Z"/><path class="cls-58" d="m108.085,104.435c1.356.872,2.712,1.744,4.069,2.616,2.971-3.856,6.843-7.319,8.732-11.646,4.383-10.04,11.394-13.498,21.776-10.967,4.034,0,8.067,0,12.101.001-.669-2.854-1.339-5.709-2.008-8.563-6.092.707-12.185,1.414-18.278,2.121-4.1-1.271-8.201-2.543-12.301-3.815-1.356-.055-2.713-.11-4.069-.165,0,0,.111-.109.111-.109,5.69,6.601,4.054,12.943-.783,19.076-3.084,3.91-6.328,7.695-9.499,11.536l.15-.085Z"/><path class="cls-8" d="m191.629,59.93c-8.449-.529-35.752-19.258-39.281-12.279-1.199-.73-2.397-1.46-3.596-2.191-1.396.018-2.793.037-4.189.055,2.952,3.26,5.903,6.521,8.855,9.782,11.673,10.302,24.946,7.434,38.211,4.633Z"/><path class="cls-31" d="m153.418,55.297c-2.951-3.261-5.903-6.521-8.855-9.782-.673-2.188-1.346-4.377-1.844-5.998-4.94-.755-9.647-1.474-14.354-2.192-5.558-.131-11.127-.282-11.864,7.357,5.406,1.593,10.813,3.183,16.22,4.773,5.999,2.82,11.998,5.639,17.996,8.459.9-.872,1.8-1.744,2.7-2.615Z"/><path class="cls-14" d="m134.478,77.997c6.093-.707,12.185-1.414,18.278-2.121,9.259-4.831,5.865-9.476-.208-14.08-5.331-1.265-10.628-3.264-16.008-3.523-3.31-.159-6.748,2.342-10.129,3.646,6.374,2.907,12.748,5.816,20.495,9.352-5.154,2.79-8.79,4.758-12.427,6.726Z"/><path class="cls-3" d="m177.45,94.349c-4.304-5.908-4.845-16.107-16.093-14.096,1.936,7.435,3.87,14.869,5.805,22.303,0,0-.112-.087-.112-.087,7.811,2.849,6.77-5.623,10.4-8.12Z"/><path class="cls-56" d="m126.411,61.921c3.38-1.306,6.818-3.807,10.128-3.648,5.38.259,10.677,2.258,16.008,3.523-.61-1.295-1.219-2.59-1.829-3.884-5.999-2.819-11.998-5.639-17.997-8.458-3.705,3.219-7.515,6.334-10.946,9.822-.336.342,1.658,2.972,2.57,4.54.689-.632,1.377-1.263,2.066-1.895Z"/><path class="cls-59" d="m73.354,190.041c4.747,1.375,9.494,2.749,14.241,4.123,6.64.274,13.306,1.047,19.913.698,8.338-.44,16.628-1.795,24.939-2.756-18.115-.264-40.382,2.308-51.175-13.341,1.338,1.939-5.131-22.404-5.127-19.603-.013-8.355,4.998-17.245,5.546-26.184-.438,1.801-.875,3.603-1.976,8.132-7.465-7.228-13.471-13.043-19.448-18.829-4.451,8.056-6.7,1.96-9.366-1.45-8.598,4.433-9.674,9.325-4.393,21.571,3.368,7.808,7.019,15.495,10.543,23.236,3.364,4.3,6.959,8.443,10.018,12.949,2.435,3.588,4.213,7.62,6.283,11.454Z"/><path class="cls-69" d="m50.902,120.83c2.666,3.41,4.915,9.506,9.366,1.45,5.976,5.786,11.983,11.602,19.448,18.829,1.1-4.529,1.538-6.33,1.974-8.131,1.311-2.681,2.623-5.362,3.935-8.043-1.556-.587-3.117-1.698-4.667-1.682-18.023.179-22.839-3.982-26.019-22.799-5.641-.41-7.796,1.726-6.2,7.554,1.139,4.16,1.471,8.54,2.163,12.823Z"/><path class="cls-29" d="m85.625,124.934c-1.312,2.681-2.625,5.362-3.935,8.043-.546,8.939-5.557,17.829-5.544,26.184-.004-2.8,6.464,21.542,5.127,19.603,10.794,15.65,33.061,13.077,51.175,13.341,2.047-.7,4.093-1.399,6.139-2.098,2.437-2.29,6.751-4.4,6.992-6.901,1.128-11.709,9.177-11.433,17.469-11.359,1.365.024,2.73.049,4.095.074,3.512-.992,10.316,2.373,8.144-6.144,1.354-10.89,2.708-21.78,4.062-32.67,6.516-5.721,1.074-9.85-1.908-14.306-2.699-2.629-5.396-5.258-8.094-7.888-.142.587-.187,1.182-.136,1.785,1.944,3.381,3.889,6.761,5.833,10.141.046,3.439.093,6.877.14,10.315-.663,3.376-1.327,6.752-1.99,10.128-3.814,15.003-19.405,10.484-28.499,16.924-5.257,3.723-12.176,5.104-18.346,7.539,1.891,2.091,3.781,4.181,5.672,6.272-.667.623-1.334,1.247-2,1.871-12.103-10.844-34.399-9.841-36.267-32.582-1.371-2.709-2.741-5.418-4.112-8.128,1.297-3.472,2.593-6.943,3.89-10.415-1.97-.571-3.939-1.141-5.909-1.711-.665.662-1.33,1.323-1.996,1.984Z"/><path class="cls-40" d="m107.645,55.877c-1.816-1.999-3.631-3.999-5.445-5.996-1.412,2.625-2.826,5.248-4.239,7.871-5.522,1.305-11.045,2.61-16.568,3.914,4.088,1.311,8.177,2.622,12.266,3.933,4.092.194,8.184.388,12.276.581,4.094,2.576,8.189,5.152,12.283,7.728l-.111.109c-1.656-3.438-3.138-6.975-5.022-10.285-1.569-2.757-3.609-5.247-5.441-7.856Z"/><path class="cls-57" d="m105.935,66.181c-4.092-.194-8.184-.388-12.276-.581-2.064.644-4.128,1.288-6.193,1.933-3.71,7.873-8.111,16.534-3.261,24.504,4.329,7.114,11.65,12.41,17.65,18.509,0,0,.042-.174.042-.177,2.063-1.98,4.125-3.956,6.187-5.933,0,0-.15.085-.15.085-12.154-9.473-9.999-23.489-12.112-35.733,3.813-.983,6.962-1.794,10.111-2.606Z"/><path class="cls-45" d="m101.856,110.545c-6-6.098-13.321-11.395-17.65-18.509-4.85-7.97-.449-16.63,3.261-24.504-6.699,2.927-13.398,5.854-20.096,8.782,4.925,10.641,8.934,21.872,15.228,31.632,2.5,3.876,10.067,4.491,15.328,6.589,1.311-1.331,2.62-2.661,3.929-3.99Z"/><path class="cls-14" d="m107.645,55.877c1.832,2.608,3.872,5.098,5.441,7.856,1.883,3.309,3.366,6.846,5.022,10.285,1.356.055,2.713.11,4.069.165.723-3.456,1.445-6.911,2.168-10.366-.912-1.568-2.906-4.199-2.57-4.54,3.431-3.487,7.242-6.602,10.946-9.822-5.406-1.59-10.813-3.18-16.219-4.773-2.952,3.73-5.905,7.463-8.857,11.196Z"/><path class="cls-36" d="m138.587,190.007c-2.046.7-4.093,1.399-6.14,2.099-8.311.961-16.601,2.316-24.939,2.756-6.607.349-13.273-.423-19.913-.698,15.063,5.731,51.523,11.12,65.218-.061,0,0-.053-.082-.053-.08-4.724-.658-9.448-1.318-14.173-1.977,0-.68,0-1.359,0-2.039Z"/><path class="cls-39" d="m179.348,133.007c-1.354,10.89-2.708,21.779-4.062,32.67,2.013-.032,4.025-.065,6.037-.099,1.878-10.189,3.756-20.378,5.8-31.466-2.722-.387-5.249-.746-7.775-1.105Z"/><path class="cls-59" d="m138.588,192.046c4.724.659,9.449,1.319,14.173,1.977,3.913-3.967,8.339-7.565,11.547-12.036,1.927-2.686,1.953-6.733,2.834-10.167-1.364-.023-2.729-.048-4.094-.073-3.743,12.071-11.951,18.771-24.459,20.299Z"/><path class="cls-22" d="m169.346,110.813c2.697,2.63,5.395,5.259,8.094,7.888,9.538-5.305,9.54-14.259.009-24.353-3.629,2.498-2.588,10.969-10.399,8.12-.011,1.365-.022,2.729-.031,4.094.776,1.417,1.552,2.834,2.327,4.25Z"/><path class="cls-27" d="m169.346,110.813c-.775-1.417-1.551-2.834-2.327-4.25-16.953,15.752-36.007,26.677-60.121,24.199-4.616-.474-8.92-3.988-13.368-6.1-1.297,3.471-2.594,6.943-3.891,10.414,3.404.68,6.807,1.359,10.211,2.039,14.845-2.598,29.937-4.274,44.437-8.156,8.119-2.174,15.258-8.005,22.839-12.188.695-1.391,1.389-2.783,2.084-4.174-.051-.602-.006-1.197.136-1.784Z"/><path class="cls-38" d="m142.662,84.439c-10.381-2.531-17.393.927-21.776,10.967-1.889,4.327-5.761,7.79-8.732,11.646,11.432,4.548,27.572-14.28,35.327-20.416-.772-.352-2.795-1.274-4.819-2.197Z"/><path class="cls-10" d="m105.935,66.181c-3.149.812-6.298,1.623-10.111,2.606,2.112,12.244-.042,26.261,12.112,35.733,3.172-3.841,6.415-7.626,9.499-11.536,4.838-6.133,6.473-12.474.783-19.076-4.094-2.576-8.189-5.152-12.283-7.728Z"/><path class="cls-37" d="m124.345,63.816c-.723,3.455-1.445,6.911-2.168,10.366,4.1,1.272,8.201,2.544,12.301,3.815,3.636-1.968,7.273-3.937,12.427-6.726-7.747-3.535-14.121-6.444-20.495-9.352-.688.633-1.377,1.265-2.065,1.896Z"/><path class="cls-19" d="m175.182,133.054c-.046-3.439-.093-6.877-.137-10.315-29.395,17.726-46.902,22.605-81.294,20.464,1.869,22.741,24.164,21.738,36.267,32.582.667-.623,1.334-1.247,2-1.871-1.891-2.091-3.781-4.181-5.672-6.272-6.461-3.587-13.029-7.003-19.277-10.927-1.067-.67-.766-3.516-1.098-5.356,12.559-1.626,25.363-3.41,37.499-7.2,9.116-2.847,21.553-12.856,31.711-11.107Z"/><path class="cls-39" d="m105.972,151.361c.331,1.841.03,4.686,1.097,5.356,6.248,3.924,12.817,7.34,19.277,10.927,6.171-2.435,13.089-3.816,18.346-7.539,9.094-6.439,24.686-1.921,28.5-16.923-6.323-2.858-11.082.543-16.917,2.756-16.061,6.092-32.04,18.213-50.303,5.422Z"/><path class="cls-6" d="m93.751,143.204c34.392,2.141,51.898-2.739,81.294-20.464-1.947-3.381-3.891-6.762-5.835-10.142-.694,1.391-1.389,2.782-2.083,4.173-16.824,23.323-42.152,25.737-67.276,20.344-3.403-.68-6.807-1.359-10.211-2.039,1.37,2.709,2.741,5.418,4.112,8.128Z"/><path class="cls-18" d="m105.972,151.361c18.263,12.79,34.242.669,50.303-5.422,5.835-2.213,10.594-5.614,16.917-2.756.664-3.377,1.327-6.753,1.99-10.128-10.159-1.749-22.596,8.26-31.712,11.107-12.136,3.79-24.94,5.574-37.499,7.2Z"/><path class="cls-39" d="m138.588,192.046c12.508-1.527,20.716-8.227,24.459-20.299-8.291-.074-16.341-.349-17.468,11.359-.241,2.501-4.555,4.611-6.992,6.901,0,.679,0,1.359.001,2.039Z"/><path class="cls-20" d="m99.85,137.115c25.124,5.392,50.452,2.978,67.276-20.344-7.58,4.183-14.719,10.014-22.839,12.188-14.5,3.882-29.593,5.558-44.437,8.156Z"/></svg>