<?xml version="1.0" encoding="UTF-8"?><svg id="Layer_1" xmlns="http://www.w3.org/2000/svg" viewBox="0 0 154.959 159.309"><defs><style>.cls-1{fill:#a6605d;}.cls-2{fill:#b12925;}.cls-3{fill:#9b302d;}.cls-4{fill:#aa6255;}.cls-5{fill:#5e2e27;}.cls-6{fill:#b1463e;}.cls-7{fill:#86201d;}.cls-8{fill:#5a2d25;}.cls-9{fill:#451e1a;}.cls-10{fill:#8f1e1d;}.cls-11{fill:#721616;}.cls-12{fill:#c97d70;}.cls-13{fill:#b06a66;}.cls-14{fill:#2d1410;}.cls-15{fill:#8b4142;}.cls-16{fill:#693631;}.cls-17{fill:#b4645f;}.cls-18{fill:#d5806d;}.cls-19{fill:#a55143;}.cls-20{fill:#8e5046;}.cls-21{fill:#a05b58;}.cls-22{fill:#8b3022;}.cls-23{fill:#391f17;}.cls-24{fill:#66140f;}.cls-25{fill:#6b231d;}.cls-26{fill:#743c2f;}.cls-27{fill:#582a20;}.cls-28{fill:#85524f;}.cls-29{fill:#b56b64;}.cls-30{fill:#6b3e38;}.cls-31{fill:#743732;}.cls-32{fill:#791715;}.cls-33{fill:#874f48;}.cls-34{fill:#945b4e;}.cls-35{fill:#94403d;}.cls-36{fill:#663d32;}.cls-37{fill:#5e2318;}.cls-38{fill:#5a352c;}.cls-39{fill:#2e1612;}.cls-40{fill:#613f36;}.cls-41{fill:#945447;}.cls-42{fill:#923126;}.cls-43{fill:#b06b65;}.cls-44{fill:#92463f;}.cls-45{fill:#b56c65;}.cls-46{fill:#a05c52;}.cls-47{fill:#761915;}.cls-48{fill:#914f41;}.cls-49{fill:#97352f;}.cls-50{fill:#63201d;}.cls-51{fill:#502822;}.cls-52{fill:#733930;}.cls-53{fill:#45241e;}.cls-54{fill:#e79686;}.cls-55{fill:#7f2120;}.cls-56{fill:#bb594f;}.cls-57{fill:#7e2319;}.cls-58{fill:#b44a47;}.cls-59{fill:#ba7164;}.cls-60{fill:#6e241d;}.cls-61{fill:#a14d45;}.cls-62{fill:#9b5a51;}.cls-63{fill:#a25351;}</style></defs><path class="cls-35" d="m80.88.494c.93.44,1.86.879,2.789,1.32-1.049.261-2.098.522-3.361.835,1.928,1.772,3.402,3.127,4.875,4.485-2.739.657-5.477,1.311-8.298,1.984-.736-6.364-5.368-7.634-13.799-4.476-4.558,3.182-9.116,6.364-13.674,9.546-1.389-.459-2.779-.917-4.168-1.376C54.899,2.283,66.907-1.45,80.88.494Z"/><path class="cls-15" d="m6.91,44.36c5.478-5.468,10.956-10.937,16.434-16.405,3.611-1.842,7.222-3.685,10.835-5.528-.871,1.385-1.744,2.769-2.617,4.153-5.571,5.914-11.141,11.828-16.711,17.742-2.647.013-5.294.025-7.941.038Z"/><path class="cls-58" d="m31.562,26.58c.873-1.384,1.745-2.769,2.617-4.154,3.688-3.205,7.376-6.409,11.065-9.615,1.389.458,2.779.917,4.168,1.376-1.87,1.814-3.739,3.628-5.608,5.443-3.14,3.68-6.281,7.36-9.422,11.04-.94-1.364-1.88-2.727-2.82-4.091Z"/><path class="cls-13" d="m148.197,57.939c.903.959,1.806,1.918,2.71,2.877,2.427,17.101,7.605,34.846.286,51.374-6.077,13.725-17.116,23.423-27.709,33.523-.778-1.53-1.556-3.06-2.341-4.603,1.272-1.684,2.48-3.284,3.688-4.883,10.126-9.353,15.793-21.198,19.202-34.305.455.045.91.09,1.365.135-.521,3.933-1.042,7.867-1.563,11.8.597.287,1.195.574,1.792.862,9.209-19.788,5.195-35.288,2.57-56.78Z"/><path class="cls-1" d="m124.831,136.227c-1.208,1.6-2.417,3.2-3.688,4.883.784,1.543,1.562,3.073,2.341,4.603-.187.195-.387.392-.601.59-.59.545-1.176.994-1.726,1.363-3,1.907-6.371,3.75-10.129,5.387-17.82,7.759-34.884,6.748-45.193,5.096-6.858-1.835-13.715-3.671-20.573-5.506,15.002,1.494,32.976,6.293,47.608,2.385-.18-.806-.36-1.612-.54-2.419-2.443,0-4.886,0-7.329,0,3.23-1.34,6.46-2.68,9.69-4.02,5.012-1.403,10.024-2.805,15.037-4.208,5.035-2.718,10.07-5.437,15.105-8.155Z"/><path class="cls-29" d="m128.874,26.603c2.746,2.757,5.492,5.514,8.239,8.27-.608,1.733-1.216,3.466-1.824,5.2-1.065-2.676-2.665-3.511-4.801-2.506-1.438-1.381-2.874-2.761-4.31-4.141-10.274-10.568-23.1-15.257-37.509-16.603-3.107-.29-6.109-1.709-9.159-2.609,7.787-.497,15.573-.995,23.36-1.492,3.679,1.611,7.492,2.976,11.004,4.892,5.114,2.788,10.011,5.973,15.001,8.989Z"/><path class="cls-45" d="m148.197,57.939c2.625,21.492,6.639,36.992-2.57,56.78-.597-.287-1.195-.574-1.792-.862.521-3.933,1.042-7.867,1.563-11.802,1.381-1.324,4.058-2.776,3.941-3.95-1.06-10.625-2.609-21.202-4.014-31.792-.909-2.741-1.82-5.482-2.73-8.223-.355-3.43-.711-6.861-1.066-10.291.729-.149,1.458-.297,2.187-.446,1.473,2.663,2.946,5.326,4.419,7.989.021.866.042,1.732.062,2.597Z"/><path class="cls-21" d="m148.134,55.342c-1.473-2.663-2.946-5.326-4.419-7.989-.729.149-1.458.297-2.187.446.355,3.43.711,6.861,1.067,10.291-1.793-3.841-1.907-8.802-4.059-12.12-2.347-3.618-5.882-4.472-8.305-8.52,0,0,.257.118.257.118,2.135-1.005,3.735-.17,4.8,2.506.608-1.734,1.217-3.467,1.824-5.2,4.729,6.256,10.973,11.697,11.022,20.469Z"/><path class="cls-21" d="m128.874,26.603c-4.99-3.016-9.887-6.2-15.001-8.989-3.513-1.915-7.325-3.281-11.004-4.89-.349-4.238,2.556-4.07,5.403-3.981,6.906,5.47,13.812,10.939,20.719,16.409-.039.484-.078.968-.117,1.452Z"/><path class="cls-49" d="m6.91,44.36c2.647-.013,5.294-.025,7.944-.038-.636,2.352-1.263,4.708-1.916,7.056-1.471,5.293-5.716,10.261-1.876,16.17.869,1.431,1.738,2.86,2.607,4.29-4.669,3.639-2.028,7.286-.011,10.932-.005,1.365-.01,2.731-.015,4.096-1.708-1.369-3.416-2.737-5.124-4.106-.132-.422-.243-.849-.333-1.281v-22.883c-1.354,1.846-2.003,2.731-2.652,3.615,1.6-4.406,3.201-8.812,4.869-13.404-2.244,1.103-4.947,2.433-7.65,3.762-.009-.894-.019-1.789-.028-2.683,1.395-1.842,2.791-3.684,4.186-5.526Z"/><path class="cls-17" d="m8.185,81.479c.09.432.202.859.33,1.28,1.246,4.094,3.233,8.121,3.615,12.295,1.575,17.222,9.675,31.207,20.709,43.885,5.056,3.242,10.113,6.483,15.169,9.725,12.33,1.315,24.661,2.63,36.991,3.945h7.33c.18.806.36,1.612.539,2.419-14.632,3.908-32.606-.891-47.608-2.385-17.68-11.263-32.3-24.79-36.038-46.856-1.846-10.894-4.301-21.685-6.48-32.525,1.814,2.738,3.628,5.477,5.442,8.216Z"/><path class="cls-6" d="m8.185,81.479c-1.814-2.739-3.628-5.478-5.442-8.216-.492-1.411-.985-2.823-1.478-4.236.501-.033,1.003-.066,1.504-.098.922-2.238,1.843-4.478,2.764-6.718.649-.885,1.298-1.769,2.652-3.615v22.883Z"/><path class="cls-11" d="m5.533,62.211c-.921,2.24-1.843,4.479-2.764,6.718-3.788-5.45-3.59-10.903-.017-16.36,2.703-1.329,5.406-2.658,7.65-3.762-1.668,4.592-3.268,8.998-4.869,13.404Z"/><path class="cls-63" d="m108.272,8.742c-2.846-.088-5.752-.257-5.403,3.981-7.787.496-15.573.993-23.359,1.491-1.353.011-2.707.023-4.06.034-.513-.037-1.026-.075-1.538-.112,5.692-2.741,10.129-3.42,16.297-4.479-.046-.745-.091-1.49-.137-2.235-1.629-.097-3.258-.194-4.887-.291-1.474-1.355-2.949-2.71-4.876-4.482,1.263-.314,2.312-.574,3.361-.835,8.865-.044,17.259,1.582,24.603,6.929Z"/><path class="cls-47" d="m43.803,19.631c1.869-1.814,3.739-3.628,5.609-5.442,4.558-3.182,9.116-6.364,13.675-9.546,2.686,0,5.372,0,8.202,0v9.421c-7.23,1.909-14.46,3.818-21.689,5.726-1.932-.053-3.864-.106-5.796-.159Z"/><path class="cls-42" d="m71.289,14.062V4.642c-2.83,0-5.516,0-8.202,0,8.431-3.158,13.063-1.888,13.799,4.476,2.821-.674,5.559-1.328,8.298-1.984,1.63.094,3.259.191,4.888.288.046.745.091,1.49.137,2.235-6.168,1.059-10.605,1.738-16.295,4.48-.874-.025-1.749-.05-2.624-.075Z"/><path class="cls-43" d="m11.062,67.546c-3.84-5.907.404-10.876,1.875-16.169.653-2.348,1.28-4.703,1.916-7.056,5.568-5.915,11.138-11.829,16.709-17.742.94,1.364,1.88,2.728,2.819,4.091-.1.443-.177.889-.231,1.339-11.336,9.484-18.084,21.945-23.089,35.537Z"/><path class="cls-3" d="m34.15,32.01c.054-.45.131-.896.231-1.339,3.142-3.68,6.283-7.36,9.423-11.04,1.931.052,3.863.105,5.793.158-.047.908-.093,1.817-.14,2.725-1.401,1.799-2.801,3.599-4.201,5.399-3.602,1.86-7.205,3.719-10.807,5.579-.1-.494-.199-.988-.299-1.482Z"/><path class="cls-33" d="m124.831,136.227c-5.035,2.718-10.07,5.436-15.105,8.155.459-.903.918-1.807,1.377-2.71,11.373-6.766,20.443-15.58,24.815-28.409,2.36-6.925,4.438-13.947,6.643-20.925.497.471.995.943,1.492,1.414-.007,2.723-.013,5.446-.02,8.169-3.409,13.107-9.076,24.952-19.202,34.305Z"/><path class="cls-19" d="m144.033,101.922c.007-2.723.013-5.446.02-8.17,3.927-1.841,5.102-4.967,3.587-8.839-1.394-3.563-3.27-6.937-4.934-10.395.873-2.735,1.746-5.47,2.619-8.205,1.406,10.591,2.954,21.167,4.015,31.792.117,1.174-2.56,2.626-3.941,3.95-.455-.044-.91-.089-1.365-.134Z"/><path class="cls-26" d="m111.103,141.672c-.459.903-.918,1.807-1.377,2.71-5.012,1.402-10.024,2.805-15.037,4.207-11.899-.486-23.798-.971-35.697-1.456.456-.466.912-.932,1.368-1.397,2.284-.436,4.568-.873,6.852-1.31,1.675.453,3.404,1.438,5.016,1.275,12.052-1.219,24.081-2.664,36.117-4.039.919.003,1.839.006,2.758.01Z"/><path class="cls-41" d="m58.992,147.133c11.899.485,23.798.97,35.697,1.456-3.229,1.341-6.459,2.681-9.689,4.021-12.331-1.315-24.661-2.63-36.992-3.946,3.661-.511,7.323-1.021,10.984-1.53Z"/><path class="cls-52" d="m126.177,33.426c1.436,1.38,2.872,2.76,4.31,4.141.002,0-.255-.118-.255-.117-1.203.312-2.408.623-4.193,1.084,8.467,10.783,11.174,21.565,15.165,34.548-.914-.427-1.829-.854-2.744-1.281-6.587-5.022-12.319-11.743-21.822-10.983-.896-.464-1.791-.928-2.689-1.392,1.552-.76,3.105-1.52,4.658-2.28-1.063-.217-2.126-.433-3.188-.65-3.268-5.404-6.535-10.807-9.803-16.211,1.365-.451,2.73-.902,4.095-1.353,6.399,9.122,11.862,19.356,25.739,20.692-1.566-8.891-11.172-15.68-15.692-23.597.423-.495.847-.989,1.27-1.484-2.392-.381-4.784-.762-7.176-1.142-1.84-.454-3.68-.908-5.52-1.362-7.781-6.159-16.464-9.743-26.558-9.67-2.11.015-4.226-.837-6.339-1.289,10.069.906,20.139,1.813,30.208,2.719,4.686,2.18,9.374,4.353,14.056,6.542,2.167,1.013,4.319,2.056,6.478,3.085Z"/><path class="cls-62" d="m126.177,33.426c-2.159-1.029-4.312-2.072-6.478-3.085-4.681-2.189-9.37-4.362-14.056-6.542-.969-.533-1.881-1.352-2.914-1.556-9.075-1.791-18.171-3.473-27.261-5.188-.006-.936-.012-1.871-.018-2.807,1.354-.011,2.707-.023,4.06-.034,3.05.899,6.051,2.318,9.158,2.609,14.409,1.346,27.235,6.035,37.509,16.603Z"/><path class="cls-20" d="m141.203,73.081c-3.99-12.983-6.696-23.764-15.164-34.547,1.785-.461,2.99-.772,4.193-1.084,2.423,4.048,5.957,4.902,8.305,8.52,2.152,3.318,2.267,8.278,4.059,12.12.909,2.741,1.82,5.482,2.729,8.223-.874,2.735-1.747,5.47-2.62,8.205-.501-.479-1.001-.958-1.502-1.437Z"/><path class="cls-50" d="m13.642,86.866c.005-1.365.01-2.731.016-4.096-.493-3.772,1.828-3.277,4.172-2.747.921.453,1.842.906,2.763,1.358,4.18,5.121,2.266,9.233,8.06,12.674,5.932,3.523,16.295,1.485,20.853-2.651-.305-.552-.611-1.104-.916-1.656h-11.041c2.704-3.565,4.527-5.969,6.351-8.374,1.816.461,3.633.923,5.449,1.384,1.076,1.326,2.461,3.95,3.181,3.779,8.153-1.937,16.204-4.302,24.283-6.552,5.934-2.739,11.868-5.478,17.802-8.217,11.65-1.64,44.776-5.505,43.912,15.088-1.376-.914-2.752-1.828-4.128-2.743-1.554-1.315-3.044-2.716-4.673-3.93-6.867-5.118-14.329-7.266-22.745-4.327-5.035,1.374-10.071,2.749-15.106,4.123-1.363.473-2.725.946-4.088,1.42-4.119,2.732-8.237,5.465-12.356,8.198-1.368.458-2.736.916-4.105,1.374-12.791,4.566-25.583,9.132-38.374,13.698,2.44-5.207-.686-7.389-4.849-9.205-3.04-1.326-5.943-2.965-8.907-4.464-1.357-.913-2.713-1.826-4.07-2.74-.495-.465-.99-.93-1.484-1.395Z"/><path class="cls-44" d="m13.642,86.866c.495.465.99.93,1.484,1.394,1.461,21.65,9.257,39.438,30.091,49.277-1.699.569-3.367,1.469-5.103,1.627-2.398.218-4.847-.123-7.275-.224-11.035-12.678-19.134-26.663-20.709-43.885-.382-4.174-2.369-8.201-3.615-12.295,1.711,1.369,3.419,2.738,5.127,4.106Z"/><path class="cls-28" d="m34.15,32.01c.1.494.199.988.297,1.481-1.395,2.697-2.788,5.395-4.181,8.093-4.143,6.897-8.286,13.793-12.43,20.69-1.39,3.188-2.779,6.376-4.169,9.564-.869-1.429-1.738-2.859-2.607-4.29,5.005-13.593,11.753-26.054,23.089-35.538Z"/><path class="cls-27" d="m13.668,71.837c1.39-3.188,2.779-6.376,4.169-9.565-.003,5.916-.005,11.833-.008,17.749-2.344-.53-4.665-1.024-4.172,2.747-2.018-3.646-4.659-7.293.011-10.932Z"/><path class="cls-57" d="m32.839,138.94c2.427.101,4.876.442,7.275.224,1.736-.158,3.405-1.058,5.104-1.627.5-.02,1-.04,1.499-.061,7.293-1.775,8.985,5.688,13.643,8.259-.456.466-.912.932-1.368,1.398-3.661.51-7.323,1.019-10.984,1.53-5.056-3.241-10.112-6.482-15.169-9.724Z"/><path class="cls-46" d="m75.45,14.249c.006.936.012,1.871.017,2.806-8.67,1.819-17.339,3.64-26.008,5.46.046-.909.091-1.817.139-2.725,7.232-1.908,14.462-3.817,21.691-5.726.875.024,1.75.05,2.624.074.511.037,1.024.074,1.537.112Z"/><path class="cls-25" d="m30.267,41.584c1.393-2.698,2.786-5.396,4.181-8.093,3.604-1.859,7.206-3.719,10.809-5.578,4.391-.064,8.98.658,13.126-.381,5.856-1.468,11.384-4.238,17.053-6.452,2.113.452,4.229,1.304,6.339,1.289,10.094-.073,18.777,3.511,26.559,9.67-2.578.598-5.129,1.393-7.741,1.747-3.836.52-7.715.724-11.574,1.061-2.236.388-4.474.776-6.711,1.164-2.51-5.129.564-7.722-5.309-10.628-9.037-4.471-14.993,5.205-19.354,10.723-2.283,3.201-4.565,6.403-6.848,9.604-.034.476-.068.952-.102,1.428-3.173-3.992-6.346-7.983-8.737-10.991-4.295,1.997-7.992,3.717-11.689,5.436Z"/><path class="cls-31" d="m75.435,21.08c-5.668,2.214-11.197,4.984-17.053,6.452-4.146,1.039-8.735.317-13.126.381,1.4-1.8,2.8-3.6,4.201-5.399,8.67-1.82,17.34-3.64,26.009-5.459,9.09,1.715,18.187,3.397,27.262,5.189,1.034.204,1.945,1.023,2.914,1.556-10.069-.906-20.138-1.813-30.208-2.719Z"/><path class="cls-30" d="m111.103,141.672c-.919-.003-1.839-.006-2.758-.009,7.75-6.854,14.609-11.381,19.392-20.826,4.933-9.742,9.153-19.822,13.469-29.845.452.449.903.898,1.355,1.347-2.205,6.978-4.283,13.999-6.643,20.925-4.371,12.83-13.442,21.643-24.815,28.409Z"/><path class="cls-22" d="m142.561,92.339c-.452-.449-.903-.898-1.354-1.347.024-.462.047-.923.069-1.384-.939-5.936-1.878-11.871-2.817-17.806.915.427,1.83.855,2.745,1.281.499.478,1,.957,1.501,1.436,1.665,3.457,3.541,6.832,4.935,10.395,1.515,3.872.34,6.999-3.587,8.839-.497-.471-.994-.942-1.492-1.413Z"/><path class="cls-8" d="m141.277,89.607c-.023.461-.046.923-.069,1.384-4.317,10.023-8.537,20.103-13.47,29.845-4.783,9.445-11.642,13.972-19.392,20.826-12.036,1.374-24.065,2.82-36.117,4.038-1.613.163-3.341-.822-5.016-1.275,1.37-1.373,2.741-2.747,4.111-4.12.92,0,1.84,0,2.76-.001,2.812.109,5.815.91,8.399.197,7.342-2.025,14.514-4.668,21.752-7.068,1.197,3.578,3.376,4.84,6.445,2.147,4.827-4.235,9.436-8.718,14.137-13.096,4.721-11.507,10.745-25.804,9.581-38.372,1.376.914,2.752,1.828,4.128,2.743.917.917,1.833,1.834,2.75,2.751Z"/><path class="cls-37" d="m71.324,140.306c-1.37,1.373-2.741,2.747-4.111,4.12-2.284.437-4.568.874-6.852,1.31-4.658-2.571-6.35-10.034-13.644-8.259-.034-.884-.068-1.769-.101-2.655,1.834-.457,3.669-.913,5.503-1.37,7.741-1.462,14.531-.264,19.205,6.853Z"/><path class="cls-24" d="m141.277,89.607c-.916-.917-1.833-1.834-2.75-2.751.864-20.593-32.262-16.728-43.911-15.088,7.341-3.65,14.682-7.301,22.022-10.951,9.503-.76,15.235,5.961,21.822,10.983.938,5.936,1.877,11.871,2.816,17.807Z"/><path class="cls-5" d="m113.852,33.401c2.392.381,4.784.762,7.176,1.142-.423.495-.847.989-1.27,1.484,4.52,7.917,14.126,14.706,15.692,23.597-13.876-1.335-19.34-11.569-25.738-20.692,1.38-1.844,2.761-3.687,4.141-5.531Z"/><path class="cls-7" d="m116.638,60.817c-7.341,3.65-14.681,7.301-22.022,10.951-5.934,2.739-11.869,5.478-17.803,8.217-4.419.796-8.816,1.754-13.264,2.333-3.051.397-7.124,2.223-7.36-3.527,1.32-.526,2.64-1.053,3.96-1.579,1.424.423,2.848.845,4.273,1.269,7.192-.046,14.038-1.116,19.42-6.533,2.626-1.443,5.253-2.886,7.879-4.329,1.463-.91,2.927-1.821,4.389-2.73,2.698-.98,5.398-1.961,8.097-2.943,2.302-.85,4.604-1.7,6.906-2.549.945.009,1.891.019,2.836.028.896.464,1.791.928,2.687,1.392Z"/><path class="cls-60" d="m113.852,33.401c-1.38,1.843-2.761,3.687-4.141,5.531-1.365.451-2.73.902-4.095,1.353-2.297.885-4.595,1.77-6.892,2.655-.869.953-1.738,1.907-2.606,2.861-.942,1.81-1.883,3.62-2.825,5.43-.594-5.677.94-11.91-4.277-16.382,3.861-.338,7.739-.542,11.576-1.062,2.612-.354,5.163-1.149,7.741-1.747,1.84.454,3.679.908,5.519,1.362Z"/><path class="cls-48" d="m98.724,42.939c2.297-.885,4.595-1.77,6.892-2.655,3.268,5.404,6.535,10.807,9.803,16.211,1.063.217,2.125.433,3.188.65-1.553.76-3.106,1.52-4.658,2.28-.944-.009-1.889-.019-2.835-.028-.815-7.528-6.745-11.593-12.39-16.458Z"/><path class="cls-9" d="m71.324,140.306c-4.675-7.117-11.464-8.315-19.205-6.853-13.192-5.227-19.534-14.752-19.166-28.784,12.791-4.566,25.583-9.132,38.374-13.698-7.236,3.769-14.471,7.539-21.846,11.381.852.782,2.432,2.233,4.013,3.685-5.616,20.499-1.829,19.399,18.104,23.495-.099.668-.198,1.335-.296,2.003,12.282-5.007,27.179-6.974,39.551-10.553,14.502-4.195,12.416-13.018,13.967-27.256.509,3.8,1.481,7.607,1.418,11.397-.097,5.794-.909,11.576-1.418,17.363-4.701,4.378-9.311,8.86-14.137,13.096-3.069,2.693-5.248,1.431-6.445-2.147-3.899-.296-7.801-.56-11.697-.895-7.526-.648-12.586,4.509-18.455,7.766-.92,0-1.84,0-2.76.001Z"/><path class="cls-53" d="m53.493,106.036c-1.58-1.451-3.161-2.902-4.013-3.685,7.375-3.842,14.611-7.611,21.846-11.381,1.368-.458,2.736-.916,4.105-1.374-3.814,9.185,16.917,6.496,22.506,4.729,9.072-2.868,13.022-8.574,14.907-17.812-1.996-.224-3.93-.44-5.864-.657,8.416-2.94,15.878-.791,22.745,4.327,1.629,1.214,3.119,2.615,4.673,3.93,1.164,12.568-4.86,26.865-9.581,38.372.509-5.787,1.32-11.569,1.418-17.363.063-3.79-.909-7.597-1.418-11.397.231-1.635.462-3.269.561-3.968-15.451,2.76-27.536,13.141-43.085,13.536-9.632-3.994-18.838-3.729-27.421,2.744h-1.38Z"/><path class="cls-51" d="m30.267,41.584c3.697-1.719,7.394-3.438,11.689-5.436,2.391,3.008,5.564,7,8.738,10.991,2.893,1.364,5.705,2.951,8.697,4.042,4.67,1.702,9.414,3.113,9.217,9.46-.906-.261-1.812-.523-2.718-.785-1.85-.592-3.701-1.183-5.551-1.775-5.835-1.014-10.475-1.247-16.365-.688,1.026,5.701,8.183,18.882,5.438,23.959-.021.469-.042.937-.064,1.406-1.816-.461-3.633-.923-5.449-1.384-1.829-7.383-2.826-28.585-12.499-27.352-9.729,1.239-11.992,20.279-10.808,27.359-.921-.453-1.842-.906-2.763-1.358.003-5.917.005-11.833.008-17.749,4.143-6.896,8.287-13.792,12.43-20.689Z"/><path class="cls-9" d="m20.592,81.38c-1.184-7.079,1.079-26.119,10.808-27.359,9.672-1.232,10.67,19.97,12.499,27.352-1.824,2.405-3.648,4.81-6.351,8.374h11.041c.305.552.611,1.104.916,1.656-4.558,4.136-14.922,6.174-20.853,2.651-5.793-3.441-3.88-7.553-8.06-12.674Zm20.357-3.382c-2.084-6.629-3.59-11.787-5.367-16.851-4.395-12.525-12.917,9.989-11.952,14.954,2.483,12.775,11.599,9.72,17.319,1.897Z"/><path class="cls-27" d="m32.953,104.669c-.368,14.032,5.974,23.557,19.166,28.784-1.834.457-3.669.913-5.503,1.37-3.506-1.899-7.013-3.798-10.52-5.698l1.737-1.695c-3.172-5.825-7.722-7.82-11.653-13.023-5.057-6.693-5.51-15.451-6.984-23.408,2.964,1.499,5.868,3.138,8.907,4.464,4.162,1.816,7.289,3.998,4.849,9.205Z"/><path class="cls-38" d="m106.981,75.857c1.934.217,3.868.433,5.864.657-1.885,9.239-5.835,14.944-14.907,17.812-5.589,1.767-26.32,4.456-22.506-4.729,4.118-2.733,8.237-5.465,12.356-8.198-2.104,2.555-4.207,5.111-6.25,7.593,7.543,9.04,44.062-14.328,10.338-9.012,5.035-1.374,10.071-2.749,15.106-4.123Z"/><path class="cls-16" d="m19.196,91c1.474,7.957,1.926,16.715,6.984,23.408,3.932,5.203,8.482,7.197,11.653,13.023l-1.737,1.695c3.507,1.899,7.013,3.798,10.52,5.698.033.885.066,1.77.101,2.655-.499.019-.998.04-1.499.06-20.835-9.84-28.631-27.628-30.092-49.277,1.357.914,2.714,1.827,4.07,2.74Z"/><path class="cls-40" d="m91.875,79.98c33.724-5.316-2.795,18.052-10.338,9.012,2.043-2.482,4.146-5.037,6.25-7.593,1.363-.473,2.725-.946,4.088-1.419Z"/><path class="cls-55" d="m49.349,82.758c.021-.469.042-.937.063-1.406,2.259-.854,4.518-1.708,6.778-2.562.236,5.75,4.309,3.924,7.36,3.527,4.447-.578,8.845-1.536,13.264-2.333-8.079,2.25-16.13,4.615-24.283,6.552-.72.171-2.105-2.453-3.181-3.779Z"/><path class="cls-32" d="m68.609,60.641c.197-6.347-4.548-7.758-9.218-9.46-2.993-1.091-5.804-2.678-8.697-4.042.033-.476.067-.952.101-1.428,4.538.938,9.077,1.876,13.616,2.814,2.617.807,5.235,1.613,7.852,2.42.586-2.176,1.171-4.352,1.757-6.528-1.679-3.651,1.632-9.933-4.109-11.069-3.465-.685-5.504,6.231-8.264,6.972-1.5-1.579-2.751-2.896-4.002-4.213,4.36-5.518,10.316-15.194,19.354-10.723,5.873,2.905,2.799,5.498,5.309,10.629-.911.97-1.821,1.938-2.731,2.907,1.999,14.554,6.353,22.248-10.966,21.721Z"/><path class="cls-10" d="m57.644,36.107c1.251,1.317,2.503,2.635,4.002,4.213,2.76-.741,4.799-7.657,8.264-6.972,5.742,1.135,2.43,7.418,4.11,11.068-3.152-1.096-6.305-2.192-9.457-3.287-.051,2.465-.101,4.93-.152,7.396-4.539-.938-9.077-1.876-13.616-2.814,2.283-3.202,4.566-6.403,6.849-9.604Z"/><path class="cls-61" d="m79.575,38.92c.91-.968,1.821-1.937,2.731-2.907,2.238-.39,4.475-.778,6.711-1.166,5.215,4.473,3.681,10.706,4.275,16.383-.944,2.234-1.889,4.468-2.833,6.703-1.658-1.459-3.316-2.92-5.096-4.487q3.627-14.201-5.79-14.527Z"/><path class="cls-53" d="m74.084,140.305c5.869-3.257,10.929-8.414,18.455-7.766,3.896.336,7.798.599,11.697.895-7.239,2.4-14.41,5.043-21.753,7.068-2.585.713-5.587-.088-8.399-.197Z"/><path class="cls-36" d="m56.189,78.791c-2.259.854-4.519,1.708-6.778,2.562,2.745-5.078-4.411-18.258-5.437-23.959,5.89-.559,10.531-.326,16.366.688-2.136.135-4.272.27-8.226.52,3.007,6.964,5.521,12.787,8.036,18.611-1.32.526-2.64,1.053-3.96,1.579Z"/><path class="cls-34" d="m60.15,77.212c-2.514-5.823-5.029-11.647-8.036-18.611,3.954-.25,6.09-.385,8.226-.52,1.85.592,3.7,1.183,5.551,1.773-1.736.697-3.472,1.396-6.885,2.769,3.696,4.059,6.635,7.289,9.575,10.518-1.386,1.779-2.772,3.558-4.158,5.338-1.424-.422-2.848-.845-4.273-1.267Z"/><path class="cls-54" d="m96.112,64.888c-1.463.91-2.927,1.821-4.389,2.731-2.512.237-5.025.475-8.03.759.528-2.419.937-4.289,1.345-6.159,1.821-.943,3.641-1.886,5.461-2.829,1.779-1.86,3.559-3.72,5.56-5.813,1.866,1.69,3.945,3.571,5.092,4.61-1.822,2.423-3.431,4.562-5.04,6.701Z"/><path class="cls-4" d="m98.724,42.939c5.645,4.865,11.574,8.93,12.39,16.458-2.302.849-4.604,1.699-6.907,2.55.679-1.768,1.359-3.537,2.039-5.306-.793.587-1.586,1.173-2.378,1.76-2.516-4.272-5.034-8.446-7.75-12.601.869-.954,1.738-1.907,2.606-2.861Z"/><path class="cls-18" d="m85.038,62.219c-.408,1.87-.817,3.739-1.345,6.159,3.005-.284,5.518-.521,8.03-.759-2.627,1.443-5.254,2.886-7.881,4.329-3.727.849-7.454,1.699-11.181,2.548.94-7.298,5.826-10.626,12.377-12.277Z"/><path class="cls-12" d="m96.118,45.8c2.716,4.154,5.234,8.329,7.75,12.601.793-.587,1.586-1.173,2.378-1.76-.68,1.769-1.36,3.538-2.039,5.306-2.699.981-5.398,1.962-8.096,2.942,1.61-2.14,3.219-4.279,5.042-6.702-1.147-1.039-3.226-2.921-5.092-4.61-2.002,2.093-3.781,3.953-5.56,5.813-.013-.486-.027-.972-.04-1.458.944-2.234,1.889-4.468,2.833-6.702.942-1.81,1.884-3.62,2.825-5.43Z"/><path class="cls-56" d="m72.661,74.496c3.727-.85,7.453-1.699,11.181-2.548-5.381,5.418-12.228,6.487-19.42,6.533,1.386-1.781,2.772-3.56,4.158-5.339,1.36.452,2.721.903,4.081,1.354Z"/><path class="cls-39" d="m53.493,106.036c.46,0,.92,0,1.379,0,9.023-2.082,17.994-4.692,27.421-2.744,15.55-.394,27.634-10.776,43.085-13.536-.099.699-.33,2.334-.561,3.968-1.551,14.238.535,23.062-13.967,27.256-12.372,3.579-27.269,5.546-39.551,10.553.099-.668.198-1.335.296-2.003-19.933-4.096-23.72-2.996-18.104-23.495Zm65.864,3.314c.771-.286,1.542-.571,2.313-.857-2.591-6.465-3.473-12.302-12.057-11.345-3.641.406-17.336,10.124-17.352,14.634-.024,6.94,7.56,1.305,10.612-.417,7.343-4.144,8.846-9.173,16.484-2.015Z"/><path class="cls-9" d="m82.294,103.293c-9.427-1.948-18.398.661-27.421,2.744,8.583-6.473,17.789-6.738,27.421-2.744Z"/><path class="cls-59" d="m72.661,74.496c-1.36-.451-2.72-.903-4.081-1.354-2.94-3.229-5.879-6.458-9.575-10.518,3.413-1.374,5.149-2.072,6.885-2.769.906.264,1.812.526,2.718.787,17.318.527,12.965-7.167,10.966-21.722q9.417.326,5.79,14.527c1.78,1.567,3.438,3.028,5.096,4.487.013.485.027.971.04,1.457-1.821.942-3.641,1.885-5.462,2.828-6.551,1.652-11.437,4.979-12.377,12.277Z"/><path class="cls-23" d="m40.949,77.999c-5.72,7.823-14.836,10.879-17.319-1.897-.965-4.965,7.557-27.479,11.952-14.954,1.777,5.064,3.283,10.222,5.367,16.851Z"/><path class="cls-2" d="m64.411,48.525c.051-2.465.101-4.93.152-7.396,3.153,1.096,6.305,2.191,9.458,3.287-.586,2.176-1.172,4.353-1.757,6.529-2.618-.807-5.235-1.613-7.852-2.42Z"/><path class="cls-14" d="m119.357,109.35c-7.638-7.158-9.142-2.129-16.484,2.015-3.052,1.722-10.636,7.357-10.612.417.016-4.51,13.712-14.228,17.352-14.634,8.583-.957,9.466,4.88,12.057,11.345-.771.286-1.542.571-2.313.857Z"/></svg>