<?xml version="1.0" encoding="UTF-8"?><svg id="Layer_1" xmlns="http://www.w3.org/2000/svg" viewBox="0 0 315.123 237.613"><defs><style>.cls-1{fill:#597757;}.cls-2{fill:#266633;}.cls-3{fill:#275028;}.cls-4{fill:#204421;}.cls-5{fill:#67bd54;}.cls-6{fill:#61bb5e;}.cls-7{fill:#446850;}.cls-8{fill:#6fc061;}.cls-9{fill:#55b551;}.cls-10{fill:#408a44;}.cls-11{fill:#3f9b48;}.cls-12{fill:#53b554;}.cls-13{fill:#3fa048;}.cls-14{fill:#41a048;}.cls-15{fill:#38553d;}.cls-16{fill:#8bc86e;}.cls-17{fill:#76a179;}.cls-18{fill:#286030;}.cls-19{fill:#347c3d;}.cls-20{fill:#92cb77;}.cls-21{fill:#4db04c;}.cls-22{fill:#459e50;}.cls-23{fill:#2f763a;}.cls-24{fill:#355632;}.cls-25{fill:#58b74f;}.cls-26{fill:#9cb19a;}.cls-27{fill:#378540;}.cls-28{fill:#45a748;}.cls-29{fill:#2f6934;}.cls-30{fill:#2c803f;}.cls-31{fill:#8fca7c;}.cls-32{fill:#61bb59;}.cls-33{fill:#7ac369;}.cls-34{fill:#357138;}.cls-35{fill:#3a523e;}.cls-36{fill:#bacdba;}.cls-37{fill:#e1ece0;}.cls-38{fill:#1e3f1e;}.cls-39{fill:#48ae4b;}.cls-40{fill:#61b557;}.cls-41{fill:#84c68a;}.cls-42{fill:#327439;}.cls-43{fill:#4a6d4e;}.cls-44{fill:#264727;}.cls-45{fill:#72c16b;}.cls-46{fill:#369244;}.cls-47{fill:#327539;}.cls-48{fill:#255027;}.cls-49{fill:#275228;}.cls-50{fill:#86c660;}.cls-51{fill:#224923;}.cls-52{fill:#26592c;}.cls-53{fill:#265a2d;}.cls-54{fill:#3f9545;}.cls-55{fill:#3c8941;}.cls-56{fill:#3d713d;}.cls-57{fill:#2d7439;}.cls-58{fill:#295c2e;}.cls-59{fill:#3b5840;}.cls-60{fill:#1b3019;}.cls-61{fill:#399745;}.cls-62{fill:#398540;}.cls-63{fill:#2f7339;}.cls-64{fill:#7ec571;}.cls-65{fill:#359b47;}.cls-66{fill:#337138;}.cls-67{fill:#6fa173;}.cls-68{fill:#4ba152;}.cls-69{fill:#3f9746;}.cls-70{fill:#728671;}.cls-71{fill:#49ac4b;}.cls-72{fill:#2c5c30;}.cls-73{fill:#668466;}.cls-74{fill:#3a8741;}.cls-75{fill:#4c784d;}.cls-76{fill:#66be66;}.cls-77{fill:#47ad4a;}.cls-78{fill:#4aaf4d;}.cls-79{fill:#3d9646;}.cls-80{fill:#296130;}.cls-81{fill:#2a5d30;}.cls-82{fill:#5da266;}.cls-83{fill:#4aad50;}.cls-84{fill:#214321;}.cls-85{fill:#234623;}</style></defs><path class="cls-84" d="m212.259,227.333c-4.045,1.412-6.613,2.117-8.692,2.752-3.052.933-7.349,2.417-12.459,4.781-9.115,1.695-17.224,2.385-23.903,2.608-6.008.2-15.715.475-27.789-1.5-14.826-2.425-14.633-2.523-22.185-4.75-7.487-2.208-8.012,1.481-8.287-10.514,2.251-.186,4.456.14,6.266,1.482,8.133,6.034,17.604,6.585,27.173,6.809,29.167,4.262,53.29.186,76.637-18.399,11.152-8.877,20.303-19.265,30.129-29.481,8.635-8.978,12.84-9.929,25.307-8.798,11.057,5.583,22.634,8.958,35.168,8.272-10.49,9.338-27.518-2.161-39.468-1.317-12,.848-21.827,9.143-30.447,17.058-1.104,1.014-9.724,8.995-12.474,15.523-.176.417-1.148,2.778-2.807,5.769-1.534,2.765-2.301,4.148-3.477,5.36-1.347,1.388-2.895,2.322-8.692,4.346Z"/><path class="cls-24" d="m108.945,220.71c-1.679-.003-3.359-.007-5.037-.01-5.041-.038-10.082-.075-15.123-.113-4.71-15.823-13.822.503-1.637,1.8-2.35,2.752-5.553,1.209-8.36,1.659-6.353-14.16-2.897-31.321-13.339-43.503-.286-5.973-6.544-10.166-4.98-16.69,4.963,4.808,5.077,13.008,11.678,16.67,3.871,4.435,7.742,8.869,11.613,13.304,1.137,1.163,2.275,2.327,3.412,3.49.371,14.559,2.963,7.493,12.589,10.09,7.792,2.102,19.039,8.121,25.857,13.068.577.055,1.155.111,1.732.166-.349,4.139,1.922,5.167,5.599,5.084,3.469-.078,7.408-.994,9.436,3.276-9.569-.224-19.04-.775-27.173-6.809-1.809-1.342-4.015-1.668-6.266-1.483Z"/><path class="cls-53" d="m142.384,229.001c-2.029-4.271-5.968-3.354-9.436-3.276-3.677.083-5.949-.945-5.599-5.084,2.217-1.608,4.416.011,6.625.038,6.273,3.781,13.214,3.407,20.123,3.234,7.706.654,21.935,4.049,29.1,2.698,9.732-1.835,22.613-12.611,30.687-18.297,9.413-6.63,21.225-15.707,28.249-24.934,6.613-8.687,8.885-17.328,21.074-19.744,5.451-.63,8.622,2.675,11.427,6.612-.059.692-.118,1.383-.177,2.075-12.467-1.13-16.672-.18-25.307,8.798-9.826,10.216-18.977,20.604-30.129,29.481-23.347,18.585-47.47,22.662-76.637,18.4Z"/><path class="cls-59" d="m274.457,172.322c.059-.692.118-1.383.176-2.073,4.461.889,8.352,3.902,13.152,3.525,6.61-1.459,13.845,5.348,20.046-1.514,1.169-.603,2.339-1.207,3.508-1.81,5.448,4.397,5.129,7.821-1.715,10.144-12.534.687-24.111-2.689-35.168-8.271Z"/><path class="cls-4" d="m150.743,6.774c5.421,9.826,40.589,9.208,52.451,15.531,7.719,4.115,16.592,7.517,23.385,13.051,5.858,4.773,12.656,21.041,21.159,21.559,12.38,19.506,13.731,38.993,18.485,60.885,1.9,8.749,4.552,16.379,11.205,22.676,3.911,3.702,15.31,6.941,15.445,13.375-3.327-.034-6.654-.068-9.981-.102-2.716-5.895-12.252-10.059-15.955-16.233-5.006-8.346-5.645-17.382-6.771-26.766-2.372-19.766-8.83-32.081-19.057-48.866-6.572-8.049-10.855-17.678-20.411-23.738-4.261-2.702-10.466-2.688-13.088-7.983-6.625-6.1-13.593-11.397-23.423-10.006-1.11-.01-2.22-.02-3.33-.03-3.394-7.408-33.654-6.902-40.802-6.631,2.905-4.767,4.856-8.703,3.943-13.306,2.561,1.874,3.458,5.45,6.743,6.584Z"/><path class="cls-15" d="m282.893,153.749c3.327.034,6.654.068,9.981.102,6.494,5.157,13.468,9.78,18.465,16.599-1.169.603-2.339,1.206-3.508,1.809-6.023-4.707-12.307-8.901-20.072-10.175-1.054-2.077-3.174-1.469-4.869-1.929.08-2.411-2.45-2.946-3.353-4.652.722-1.343,1.99-1.643,3.356-1.753Z"/><path class="cls-44" d="m65.448,180.543c-11.058-.678-13.053-21.013-14.249-28.846-2.188-14.338-1.21-24.885-9.139-37.951-5.835-10.803-12.011-9.623-20.792-16.171-5.341-3.983-7.983-10.493-12.622-15.561,2.932-.332,5.119.999,7.215,2.906,2.36,2.148,5.024,3.179,7.864.633l.755-.22.785.032c-.003.478.066.944.208,1.401.828,4.769,6.225,2.395,8.261,5.275,3.224,5.929,8.839,2.801,12.45,7.034,3.464,4.06,3.744,7.931,5.101,13.045,4.444,16.749,8.141,34.395,9.183,51.734-1.564,6.524,4.694,10.717,4.98,16.69Z"/><path class="cls-85" d="m73.803,28.516c1.098,1.139,2.196,2.279,3.295,3.417-6.485,5.725-.377,6.667,3.254,8.551-6.084,15.751-8.462,34.407-29.918,38.107-7.863-4.962-16.66-7.92-25.088-11.67,13.35-.529,28.014,4.289,38.089-6.814,6.946-7.655,3.446-27.03,10.368-31.591Z"/><path class="cls-35" d="m25.346,66.921c8.428,3.75,17.225,6.708,25.088,11.67.524,1.125,1.048,2.251,1.574,3.376-4.76.512-7.873-2.926-11.622-4.842-6.69-4.091-14.146-5.713-21.784-6.75-2.971-.568-5.92-1.417-8.917-1.646-6.077-.463-9.418,1.416-5.936,8.105-5.177-.577-4.112-7.28-2.022-10.294,2.877-4.149,20.012-1.349,23.62.381Z"/><path class="cls-49" d="m144,.19c.913,4.604-1.038,8.54-3.943,13.306,7.148-.271,37.408-.777,40.802,6.631-2.793.008-5.585.016-8.378.024-16.701-1.155-31.315-2.515-45.843,4.204-13.741,6.356-26.527,8.436-41.032,12.49-.601-.591-1.202-1.182-1.803-1.773.01-.523.031-1.045.065-1.567,7.864.148,14.848-3.498,22.183-5.487,2.641-.716,7.297.361,7.911-4.519,4.838-1.856,9.283-4.116,13.695-7.125,6.13-4.181,7.351-8.377,4.716-14.617,3.532-3.069,7.747-1.081,11.628-1.568Zm-3.35,4.647c-.074-1.444-.112-2.719-1.636-2.538-1.361.746-1.777,1.797-1.248,3.151,1.14,1.043,2.101.839,2.884-.613Z"/><path class="cls-3" d="m113.962,23.5c-.614,4.88-5.27,3.803-7.911,4.519-7.335,1.989-14.319,5.634-22.183,5.487,8.93-6.641,19.47-8.449,30.093-10.006Z"/><path class="cls-7" d="m83.803,35.073c.601.591,1.202,1.182,1.802,1.773-.139,2.153-1.37,3.255-3.428,3.563-.609.025-1.217.05-1.825.075-3.631-1.883-9.739-2.826-3.254-8.551,1.681,2.228,2.899,5.446,6.705,3.14Z"/><path class="cls-63" d="m263.207,163.636c-12.189,2.416-14.461,11.057-21.074,19.744-7.025,9.227-18.836,18.304-28.249,24.934-8.074,5.687-20.955,16.462-30.687,18.297-7.165,1.351-21.394-2.044-29.1-2.697-.492-3.377-3.042-3.245-5.525-3.242-4.866.006-9.732.005-14.598.007-2.208-.027-4.407-1.646-6.625-.038-.577-.056-1.155-.111-1.731-.165-.532-1.623-1.064-3.248-1.596-4.872,2.501.077,5.34-.598,7.447.352,13.988,6.303,29.24.526,43.317,4.789,5.355,1.622,7.667-5.786,12.846-3.488,1.079.013,2.158.026,3.237.039,11.947-6.655,25.768-10.63,33.476-23.353,5.023-4.459,10.046-8.918,15.069-13.377,3.041-3.324,1.447-8.602,4.952-11.731,6.154-2.08,10.987-7.798,18.316-6.644.212.468.387.949.526,1.444Z"/><path class="cls-10" d="m87.17,197.317c-1.137-1.163-2.275-2.327-3.411-3.489,1.235-8.579-7.958-15.806-11.427-23.013-3.893-8.088-5.589-17.201-6.908-25.997-2.438-16.257.233-36.457-8.425-51.092.052-.457.097-.915.132-1.376,3.17-.217,5.537,1.791,8.206,2.961,1.838,24.064,1.931,48.335,8.551,71.83.828,3.463,1.205,7.065,4.182,9.663,5.856,5.111,11.614,10.334,17.412,15.511.572.554,1.145,1.107,1.717,1.661,1.72,3.471,4.866,5.126,8.277,6.376,3.627,1.33,7.249,2.607,8.565,6.812l-.095.207c-9.083-2.933-16.973-9.039-26.777-10.056Z"/><path class="cls-72" d="m60.468,163.853c-1.042-17.339-4.739-34.984-9.183-51.734-1.357-5.114-1.637-8.984-5.101-13.045-3.611-4.233-9.226-1.105-12.451-7.034,6.578,1.462,13.24,1.921,19.962,1.663,8.385,28.466,4.544,59.526,18.451,86.82-6.601-3.663-6.715-11.862-11.678-16.67Z"/><path class="cls-34" d="m72.146,180.523c-13.906-27.294-10.066-58.354-18.45-86.821,1.101.008,2.202.017,3.303.025,8.66,14.634,5.988,34.834,8.426,51.091,1.319,8.796,3.015,17.909,6.908,25.997,3.469,7.207,12.661,14.434,11.427,23.013-3.872-4.436-7.743-8.871-11.614-13.306Z"/><path class="cls-56" d="m87.17,197.317c9.804,1.017,17.694,7.122,26.777,10.055,2.848,3.367,7.742,4.234,10.074,8.232.532,1.625,1.064,3.25,1.596,4.872-6.818-4.949-18.065-10.968-25.857-13.07-9.627-2.597-12.218,4.469-12.589-10.09Z"/><path class="cls-1" d="m88.785,220.587c-.545.6-1.09,1.199-1.636,1.799-12.186-1.296-3.074-17.622,1.636-1.799Z"/><path class="cls-17" d="m263.207,163.636c-.139-.494-.315-.976-.525-1.444-1.098-1.987-2.986-1.73-4.799-1.684-.054-.486-.117-.97-.189-1.453,1.973-1.737,7.097,2.873,6.827-3.383,6.123,1.494,12.245,2.988,18.368,4.482,1.695.462,3.816-.146,4.871,1.932-3.251,1.566-8.734-3.083-10.024,2.555-.868,3.795,2.398,6.308,6.765,5.949h-.023c1.102,1.062,2.205,2.123,3.307,3.185-4.801.377-8.691-2.636-13.152-3.525-2.804-3.938-5.975-7.243-11.426-6.613Z"/><path class="cls-56" d="m133.973,220.68c4.866-.002,9.732,0,14.598-.007,2.483-.003,5.033-.135,5.525,3.242-6.909.173-13.85.546-20.123-3.235Z"/><path class="cls-36" d="m287.785,173.774c-1.102-1.062-2.205-2.124-3.306-3.186,3.57-.63,7.464.964,11.3-1.173-5.154-7.404-14.682-7.864-11.277,1.174-4.366.36-7.633-2.154-6.765-5.949,1.29-5.638,6.773-.989,10.024-2.555,7.764,1.273,14.047,5.467,20.071,10.174-6.201,6.862-13.436.056-20.046,1.514Z"/><path class="cls-52" d="m282.893,153.749c-1.367.111-2.634.411-3.357,1.753-3.357-.597-6.714-1.194-10.071-1.79-3.59-7.74-8.078-8.282-10.187-17.605-1.711-7.564-1.647-15.394-2.623-23.046-2.294-17.972-15.732-33.519-15.765-51.054l.22-.123c10.227,16.785,16.685,29.1,19.057,48.866,1.126,9.384,1.765,18.42,6.771,26.766,3.703,6.173,13.238,10.337,15.955,16.233Z"/><path class="cls-18" d="m172.481,20.152c2.793-.008,5.585-.016,8.378-.024,1.11.01,2.22.02,3.33.03,6.543,6.291,16.134,5.458,23.423,10.006,2.621,5.295,8.826,5.281,13.088,7.983,9.556,6.059,13.839,15.688,20.411,23.738,0,0-.219.123-.218.122-2.231-.093-4.449-.183-5.872-2.346-6.528-9.923-16.477-15.994-25.762-22.811-5.138-4.081-10.595-6.997-17.011-9.274-6.548-2.324-14.164-2.492-19.767-7.424Z"/><path class="cls-49" d="m207.611,30.164c-7.289-4.548-16.88-3.716-23.423-10.006,9.83-1.391,16.798,3.906,23.423,10.006Z"/><path class="cls-75" d="m269.465,153.711c3.357.597,6.714,1.194,10.071,1.791.903,1.706,3.433,2.241,3.353,4.652-6.124-1.495-12.246-2.989-18.37-4.485-.605-.581-1.209-1.161-1.813-1.741,2.253-.073,4.505-.145,6.758-.218Z"/><path class="cls-26" d="m25.265,85.364c4.261-1.448,11.135,2.844,12.627-2.25,1.401-4.781-6.793-4.101-9.356-7.614,4.531-.916,7.756,2.552,11.734,3.491,3.865,5.982,10.689,5.886,16.441,7.989.691.982,1.381,1.963,2.072,2.945-1.756.173-3.513.345-5.269.518-.487-.124-.977-.233-1.47-.327-7.266-5.173-15.59-2.206-23.421-3.041-1.05-.104-2.101-.207-3.151-.311-.142-.456-.211-.923-.208-1.401Z"/><path class="cls-43" d="m25.473,86.765c1.05.104,2.101.207,3.151.311,7.389,4.227,15.473,3.106,23.42,3.042.493.094.983.203,1.472.327,1.207.636,2.412,1.274,3.616,1.911-.037.458-.081.915-.133,1.373-1.102-.008-2.203-.016-3.304-.025-6.723.258-13.385-.201-19.962-1.663-2.036-2.88-7.432-.506-8.261-5.275Z"/><path class="cls-81" d="m80.352,40.484c.609-.025,1.217-.05,1.825-.077,7.267,10.095-15.136,39.474-25.128,43.243-1.849-.059-3.743.018-5.043-1.683-.524-1.125-1.048-2.25-1.572-3.376,21.456-3.7,23.835-22.356,29.919-38.107Z"/><path class="cls-73" d="m40.271,78.992c.038-.624.076-1.248.114-1.87,3.749,1.918,6.862,5.356,11.622,4.844,1.299,1.701,3.193,1.624,5.042,1.683.636.543,1.272,1.087,1.905,1.63-.085.537-.035,1.061.149,1.573l-2.391.13c-5.753-2.104-12.576-2.007-16.441-7.989Z"/><path class="cls-66" d="m58.956,85.279c-.635-.543-1.271-1.087-1.907-1.63,9.992-3.768,32.395-33.148,25.128-43.243,2.058-.306,3.29-1.408,3.428-3.56,14.506-4.054,27.292-6.134,41.033-12.49,14.528-6.72,29.142-5.359,45.843-4.204,5.603,4.932,13.219,5.1,19.767,7.424,6.416,2.277,11.873,5.193,17.012,9.274-1.133.013-2.266.027-3.398.039-18.776-7.422-36.167-13.385-56.675-11.712-18.467,1.506-33.827,14.574-51.965,15.006-1.122-.197-2.244-.395-3.366-.592,2.002-.392-12.276,20.288-13.421,21.993-5.888,8.769-8.936,22.324-21.477,23.694Z"/><path class="cls-67" d="m140.65,4.837c-.783,1.452-1.744,1.656-2.884.613-.529-1.354-.112-2.405,1.248-3.151,1.523-.181,1.562,1.094,1.636,2.538Z"/><path class="cls-13" d="m190.868,217.297c-1.079-.013-2.158-.026-3.238-.038-1.178-5.817-44.93,2.944-51.899-3.311,18.566-1.596,38.261.129,56.122-5.938,10.117-3.437,36.924-15.282,35.727-29.212.558-.581,1.115-1.162,1.673-1.742,2.565,1.692,4.83,4.108,8.363,3.472.599.013,1.197.027,1.795.04-5.023,4.459-10.046,8.918-15.069,13.377-9.446,7.057-19.623,12.957-29.752,18.947-1.563.925-2.498,2.911-3.723,4.406Z"/><path class="cls-62" d="m135.732,213.947c6.968,6.256,50.721-2.506,51.899,3.311-5.178-2.298-7.49,5.11-12.845,3.488-14.077-4.264-29.329,1.514-43.317-4.789-2.107-.949-4.947-.275-7.447-.352-2.331-3.998-7.226-4.866-10.074-8.233,0,0,.095-.206.095-.204,7.747.588,13.553,7.387,21.678,6.769l.012.011Z"/><path class="cls-62" d="m190.868,217.297c1.225-1.495,2.16-3.481,3.723-4.406,10.13-5.99,20.306-11.89,29.752-18.947-7.707,12.724-21.528,16.698-33.475,23.353Z"/><path class="cls-11" d="m239.412,180.567c-.599-.013-1.197-.027-1.794-.04,1.213-1.909,1.632-3.966,1.758-6.25.707-12.721,3.806-15.539,16.555-15.4.588.059,1.175.119,1.763.178.072.483.135.968.187,1.453-5.624.966-11.91.855-13.517,8.328-3.505,3.129-1.911,8.407-4.952,11.731Z"/><path class="cls-19" d="m244.364,168.836c1.607-7.473,7.893-7.362,13.517-8.328,1.814-.046,3.702-.303,4.8,1.684-7.33-1.153-12.163,4.564-18.317,6.644Z"/><path class="cls-6" d="m227.58,178.797c1.196,13.93-25.61,25.775-35.727,29.212-17.86,6.067-37.556,4.342-56.122,5.938,0,0-.012-.011-.012-.011-11.743-8.767-24.829-14.944-38.519-19.959-.572-.554-1.145-1.107-1.716-1.662-3.371-11-13.78-16.421-19.986-25.174-.397-3.864,3.41-7.83,1.135-11.21-5.001-7.431-4.403-15.586-4.555-23.751,10.865,32.076,19.948,55.424,53.269,70.443,20.784,9.368,63.26,10.342,80.643-6.952,8.865-3.494,15.703-9.577,21.589-16.875Z"/><path class="cls-78" d="m72.078,132.182c.152,8.164-.446,16.319,4.555,23.75,2.275,3.38-1.532,7.346-1.135,11.21-.536.021-1.073.021-1.609,0-6.619-23.495-6.713-47.766-8.549-71.83.001,0,.205-.094.204-.093,3.898,3.668-1.289,10.672,4.957,13.476.732,7.815-1.532,15.831,1.577,23.487Z"/><path class="cls-22" d="m97.201,193.978c13.689,5.015,26.776,11.192,38.519,19.959-8.125.618-13.931-6.181-21.678-6.769-1.315-4.207-4.937-5.484-8.564-6.814-3.411-1.251-6.557-2.905-8.277-6.376Z"/><path class="cls-68" d="m73.89,167.142c.536.021,1.073.021,1.609,0,6.205,8.753,16.614,14.174,19.986,25.173-5.799-5.176-11.557-10.4-17.413-15.511-2.977-2.598-3.353-6.2-4.182-9.663Z"/><path class="cls-82" d="m56.712,86.982c.797-.043,1.594-.086,2.388-.129,2.6,1.013,5.263.817,7.939.39.034,1.014.068,2.032.101,3.049-1.917,1.194-1.679,3.085-1.595,4.926,0,0-.203.095-.205.094-2.671-1.171-5.038-3.178-8.208-2.961-1.204-.634-2.409-1.271-3.616-1.907,1.754-.172,3.51-.344,5.267-.517-.691-.982-1.381-1.963-2.072-2.945Z"/><path class="cls-41" d="m257.694,159.055c-.588-.059-1.175-.119-1.761-.178-.464-1.96-4.105-1.947-3.294-4.115.723-1.935,3.435-.642,5.162-1.251,1.082.026,2.164.051,3.247.077.553.114,1.107.228,1.66.342.604.58,1.208,1.159,1.813,1.741.271,6.258-4.853,1.648-6.826,3.385Z"/><path class="cls-37" d="m284.501,170.588c-3.405-9.038,6.124-8.578,11.277-1.174-3.836,2.137-7.73.543-11.3,1.173,0,0,.022,0,.022,0Z"/><path class="cls-23" d="m262.707,153.93c-.553-.114-1.107-.228-1.659-.341-5.533-5.373-6.656-11.931-6.803-19.495-.253-13.013-.183-26.214-4.843-38.738-1.559-2.234-4.025-4.286-4.52-6.735-2.173-10.741-7.887-19.6-13.962-28.342-4.118-5.41-8.681-10.333-14.817-13.537-2.188-4.556-7.534-5.836-10.242-9.852,1.133-.013,2.266-.027,3.399-.04,9.284,6.817,19.233,12.888,25.761,22.811,1.423,2.162,3.64,2.253,5.872,2.346.031,17.536,13.469,33.083,15.763,51.055.977,7.652.912,15.481,2.623,23.046,2.109,9.323,6.596,9.865,10.187,17.605-2.253.071-4.506.144-6.758.217Z"/><path class="cls-70" d="m52.045,90.117c-7.947.064-16.031,1.185-23.42-3.042,7.83.835,16.154-2.131,23.42,3.042Z"/><path class="cls-62" d="m67.038,87.246c-2.674.424-5.338.621-7.938-.393-.181-.512-.231-1.036-.146-1.574,12.543-1.37,15.591-14.925,21.479-23.694,1.145-1.706,15.423-22.385,13.421-21.993,1.122.197,2.244.395,3.366.592,1.755,7.154-2.478,11.943-6.632,16.763-5.956,4.192-9.035,10.488-12.631,16.535-2.977,5.006-4.974,11.024-10.92,13.763Z"/><path class="cls-54" d="m90.589,56.948c4.153-4.821,8.386-9.61,6.632-16.764,18.138-.432,33.498-13.5,51.965-15.006,20.508-1.672,37.9,4.29,56.675,11.712,2.708,4.017,8.053,5.296,10.24,9.854-.002.002-.156.157-.156.157-2.762-1.145-5.524-2.29-8.286-3.434-3.451-5.839-8.915-7.071-15.123-6.597-10.135-10.124-63.029-15.021-70.27,1.537-9.02,1.127-18.057,1.608-22.526,12.048-1.273,2.974-4.889,6.02-9.15,6.493Z"/><path class="cls-16" d="m227.58,178.797c-5.887,7.299-12.725,13.381-21.59,16.875-1.333-2.048-2.46-4.986-5.406-4.252-5.504,1.37-5.439,1.629-9.668-2.554,9.186-.09,24.708-7.965,30.354-15.872,4.841-6.778,4.117-13.32,6.333-21.301,3.456-12.449,4.156-13.575,1.808-26.237,4.076-.845,4.036,4.257,7.17,5.749,1.676-5.85-5.919-44.93-13.9-35.878-3.289,1.133-5.165,3.13-7.679-.25-2.891-3.886,5.44-5.275,5.731-6.23,1.133-3.715,8.949-10.279-2.967-15.291-.844-4.905-11.372-3.559-14.823-6.536-4.403-3.8-2.399-9.219-8.664-13.474,16.774-.869.455-9.956-5.07-13.36.565-.015,1.13-.03,1.694-.045,7.723,2.866,15.219,6.083,21.237,12.013,5.66,5.577,11.474,10.998,17.22,16.488,6.701,8.56,10.146,18.854,15.117,28.336-.562,6.774.969,13.378,1.625,20.053-.305,8.014.443,16.046-1.51,24.026-.805,3.287-1.183,7.402,3.174,9.409v-.006c-6.17,8.865-12.341,17.73-18.511,26.595-.558.581-1.115,1.162-1.673,1.742Z"/><path class="cls-6" d="m229.254,177.055c6.17-8.865,12.341-17.73,18.511-26.595,2.732.5,5.464,1,8.197,1.5.613.517,1.226,1.034,1.839,1.55-1.727.609-4.439-.684-5.162,1.251-.811,2.169,2.83,2.156,3.294,4.115-12.751-.139-15.85,2.679-16.557,15.4-.127,2.283-.546,4.341-1.758,6.25-3.534.636-5.799-1.78-8.364-3.472Z"/><path class="cls-20" d="m190.916,188.865c4.229,4.183,4.164,3.924,9.668,2.554,2.946-.733,4.073,2.205,5.406,4.252-17.382,17.295-59.858,16.321-80.642,6.953-33.321-15.019-42.404-38.368-53.269-70.443-3.11-7.655-.845-15.671-1.578-23.486-.795-5.002,1.106-9.18,4.111-12.949,2.848-3.572,4.794-7.398,4.207-12.132.079-.491.152-.982.216-1.477,1.889.799,2.493.09,3.509-1.754,1.872-3.396,2.956-7.918,7.989-8.463,1.21,1.928,3.164,1.645,5.01,1.686-.552,1.114-1.104,2.227-1.657,3.341-1.637,2.586-6.117,8.86-6.183,11.84-.025,1.12,3.284,8.477,3.668,7.839-4.541,7.529-10.548,3.176-11.126,15.526,1.093,1.369,2.167,2.752,3.223,4.149-.711,3.1-1.25,6.232-1.616,9.395.808,8.015,2.605,16.441,5.472,24.014,4.17,11.013,14.144,19.3,16.89,31.839,1.678-3.139,2.837-5.308,4.005-7.494,8.242,12.974,20.127,16.03,32.499,18.19,9.809,3.36,28.983,7.699,38.674,1.523,3.103-1.977,3.614-17.788,11.523-4.903Z"/><path class="cls-6" d="m78.819,83.614c.587,4.734-1.359,8.56-4.207,12.132-3.005,3.769-4.905,7.947-4.111,12.949-6.246-2.804-1.059-9.808-4.957-13.476-.084-1.842-.321-3.733,1.596-4.927,4.817-.612,8.926-2.462,11.679-6.678Z"/><path class="cls-83" d="m78.819,83.614c-2.754,4.216-6.862,6.066-11.679,6.678-.033-1.018-.067-2.035-.101-3.049,5.945-2.737,7.941-8.754,10.919-13.761,3.597-6.047,6.675-12.343,12.631-16.535,4.261-.473,7.877-3.519,9.15-6.492,4.469-10.44,13.506-10.921,22.527-12.047.019.596.038,1.19.057,1.785-3.533.443-5.962,2.71-8.348,5.049-8.494,5.942-15.512,13.901-25.106,18.339-3.278,6.186-6.556,12.372-9.833,18.559-.066.493-.138.984-.217,1.475Z"/><path class="cls-46" d="m257.8,153.511c-.613-.517-1.226-1.034-1.837-1.548-2.008-2.094-5.285-3.332-4.854-7.087,1.202-10.484-2.262-20.712-1.706-31.16,0-6.12,0-12.24,0-18.359,4.66,12.524,4.59,25.725,4.843,38.738.147,7.564,1.27,14.122,6.803,19.495-1.084-.027-2.166-.052-3.248-.078Z"/><path class="cls-14" d="m249.403,95.356c0,6.12,0,12.24,0,18.359-2.943-3.032-1.224-6.822-1.638-10.259-.313-2.6.772-5.813-3.289-6.479-4.971-9.482-8.416-19.776-15.117-28.337-1.176-5.477-6.052-8.615-8.437-13.327l.116-.151c4.222-.084,5.655,5.209,9.881,5.117,6.075,8.742,11.789,17.601,13.962,28.342.496,2.449,2.961,4.5,4.52,6.735Z"/><path class="cls-54" d="m230.92,60.279c-4.226.092-5.66-5.2-9.882-5.116-1.325-2.983-5.131-4.44-5.093-8.262,0,0,.154-.155.156-.157,6.138,3.202,10.701,8.125,14.819,13.535Z"/><path class="cls-21" d="m122.323,40.193c-.019-.595-.038-1.189-.057-1.785,7.24-16.559,60.135-11.662,70.27-1.539.021.541.04,1.082.057,1.624-.581.027-1.162.055-1.743.082-18.94-12.74-48.954-4.312-68.528,1.617Z"/><path class="cls-14" d="m215.946,46.9c-.038,3.822,3.768,5.279,5.093,8.262,0,0-.116.15-.115.149-5.978-2.172-9.696-6.923-13.383-11.71l.12-.136c2.762,1.145,5.524,2.29,8.286,3.434Z"/><path class="cls-14" d="m192.594,38.493c-.018-.542-.037-1.083-.058-1.624,6.208-.473,11.673.758,15.123,6.598,0,0-.119.135-.118.134-4.982-1.703-9.964-3.405-14.947-5.108Z"/><path class="cls-8" d="m190.916,188.865c-7.909-12.886-8.42,2.926-11.523,4.903-9.692,6.176-28.866,1.837-38.674-1.523-.161-2.343-2.275-2.42-3.631-3.52-4.063-3.295-10.844-2.147-13.108-8.131,2.431.041,5.212-.652,7.017,1.377,5.499,6.181,12.691,5.399,19.788,5.208,13.442,5.166,24.557,4.146,23.967-10.403-.204-5.028-12.585-36.009-.722-29.56,1.589,19.712,11.948,38.616,32.448,26.616,12.269-7.182,27.385-31.473,19.521-46.774.019-.527.039-1.054.061-1.581.537-.021,1.074-.055,1.61-.104.581.028,1.161.055,1.742.083,2.347,12.661,1.648,13.788-1.808,26.236-2.216,7.981-1.492,14.522-6.333,21.301-5.646,7.906-21.167,15.781-30.354,15.872Z"/><path class="cls-31" d="m88.87,63.581c9.594-4.438,16.611-12.398,25.105-18.34,4.286-.096,7.961-2.291,11.942-3.418,20.933-5.924,41.968-9.915,63.29-1.638,5.526,3.404,21.844,12.492,5.07,13.36,0,0-.067.043-.067.042-9.496-17.007-12.625-2.607-24.337-2.963-9.573-.291-13.042-8.383-23.924-7.256-21.737,2.251-35.446,15.266-50.408,30.237-1.845-.042-3.8.241-5.009-1.686-1.571-2.577-1.801-5.422-1.663-8.34Z"/><path class="cls-71" d="m227.669,125.373c-.536.049-1.072.083-1.61.103-.029-6.045.462-12.155-.301-18.105-.393-3.059.591-9.263-6.441-7.025-.544.008-1.088.03-1.631.067-8.943-.394-10.376,11.272-21.881,6.922-5.789-2.188-11.067-5.114-6.416-11.771,6.369-9.116,21.24,11.483,23.346-8.549,6.071-4.523,2.857-8.956-.13-13.392,1.72-.023,3.44-.046,5.159-.068,11.917,5.012,4.101,11.576,2.967,15.291-.291.954-8.622,2.344-5.731,6.23,2.514,3.38,4.39,1.384,7.679.25,9.637,4.845,7.989,14.347,9.564,22.632.817,4.299-1.143,6.122-4.575,7.415Z"/><path class="cls-76" d="m189.208,40.185c-21.322-8.277-42.357-4.286-63.29,1.638-3.981,1.126-7.656,3.322-11.942,3.418,2.385-2.338,4.814-4.605,8.348-5.048,19.574-5.929,49.587-14.357,68.528-1.618.023.521.04,1.043.051,1.565-.565.015-1.13.03-1.694.045Z"/><path class="cls-5" d="m227.669,125.373c3.432-1.293,5.392-3.116,4.575-7.415-1.575-8.285.073-17.787-9.564-22.632,7.981-9.051,15.576,30.028,13.9,35.878-3.134-1.492-3.094-6.594-7.17-5.749-.58-.027-1.161-.055-1.742-.082Z"/><path class="cls-77" d="m244.476,96.977c4.061.666,2.976,3.879,3.289,6.479.414,3.437-1.305,7.228,1.638,10.259-.556,10.448,2.908,20.676,1.706,31.16-.431,3.755,2.846,4.993,4.854,7.087-2.735-.502-5.467-1.002-8.199-1.502,0,0,0,.006,0,.006-1.059-11.12,2.01-22.445-1.664-33.435-.655-6.675-2.186-13.28-1.625-20.053Z"/><path class="cls-25" d="m217.765,73.555c-1.72.023-3.44.046-5.159.068-7.707.985-12.13-2.403-13.372-10.028-3.108-8.881-10.75-9.574-18.433-10.193,4.52-3.561,8.95-.575,13.411.185,0,0,.066-.043.067-.043,6.266,4.255,4.261,9.674,8.665,13.473,3.45,2.977,13.979,1.632,14.823,6.536Z"/><path class="cls-32" d="m190.902,40.14c-.011-.522-.028-1.044-.051-1.565.58-.027,1.161-.054,1.742-.081,4.983,1.702,9.966,3.404,14.947,5.107,3.686,4.788,7.404,9.539,13.383,11.711,2.384,4.714,7.259,7.851,8.436,13.328-5.746-5.489-11.56-10.911-17.22-16.488-6.018-5.93-13.514-9.147-21.237-12.013Z"/><path class="cls-6" d="m246.101,117.03c3.673,10.99.604,22.315,1.664,33.435-4.357-2.007-3.978-6.122-3.174-9.409,1.953-7.98,1.205-16.012,1.51-24.026Z"/><path class="cls-33" d="m123.979,180.594c2.265,5.984,9.045,4.835,13.109,8.131,1.355,1.099,3.47,1.177,3.631,3.52-12.372-2.16-24.257-5.216-32.499-18.19-1.168,2.187-2.327,4.355-4.005,7.494-2.746-12.539-12.72-20.826-16.89-31.839-2.867-7.573-4.664-15.998-5.472-24.014.366-3.163.905-6.295,1.616-9.395-1.056-1.397-2.13-2.78-3.223-4.149.578-12.349,6.585-7.997,11.126-15.526-.385.638-3.693-6.719-3.668-7.839.066-2.98,4.547-9.254,6.183-11.84.008,1.679.016,3.359.024,5.038.271,7.81,3.31,20.037,1.905,27.407-1.41,7.397-9.759,10.465-10.551,19.089-.709,7.718,10.597,33.846,18.628,35.438-.072,3.113.49,6.153,3.327,7.817,5.448,3.196,10.157,7.839,16.761,8.857Z"/><path class="cls-45" d="m93.91,81.986c-.008-1.679-.016-3.359-.024-5.038.552-1.114,1.105-2.227,1.657-3.341,14.961-14.971,28.67-27.986,50.407-30.237,10.881-1.127,14.351,6.965,23.924,7.256,11.712.356,14.842-14.044,24.337,2.963-4.461-.76-8.891-3.746-13.411-.183-8.373,3.112-15.852-.503-23.463-3.117-5.316-4.614-17.612-4.705-19.907,3.046-1.919,6.481,9.913,13.391,1.716,20.201-4.886-10.705-4.792-19.512-18.483-17.237-14.813,2.461-15.443,19.088-26.754,25.688Z"/><path class="cls-33" d="m88.87,63.581c-.138,2.918.092,5.763,1.663,8.34-5.034.545-6.117,5.067-7.99,8.463-1.016,1.843-1.619,2.552-3.509,1.754,3.28-6.185,6.557-12.371,9.835-18.557Z"/><path class="cls-69" d="m219.317,100.346c7.031-2.238,6.048,3.966,6.441,7.025.763,5.95.272,12.061.301,18.105-.021.528-.042,1.055-.061,1.582-3.81,3.001-2.382,13.927-3.739,18.251-2.154,6.864-6.153,14.069-11.386,19.086-13.808,13.239-31.073,6.121-33.434-13.872,1.124.545,2.248,1.09,3.371,1.636.067.503.124,1.007.172,1.513,3.97,9.988,18.11,14.189,25.901,7.348,3.07-2.696,6.723-6.261,1.412-10.609-.984-.805-2.262-2.062-1.499-3.536,1.032-1.993,2.795-1.119,4.304-.531,5.303,2.068,7.448-.562,8.928-5.322,1.111-3.574.867-7.074.925-10.636l.037-3.305c2.126-9.079,7.248-18.345-1.672-26.735Z"/><path class="cls-71" d="m177.439,150.524c2.362,19.993,19.627,27.111,33.435,13.872,5.233-5.017,9.232-12.221,11.386-19.086,1.357-4.325-.072-15.25,3.739-18.251,7.864,15.3-7.251,39.591-19.521,46.773-20.499,12-30.859-6.904-32.448-26.616,0,0,.204-.13.203-.13,1.068,1.146,2.137,2.292,3.206,3.438Z"/><path class="cls-39" d="m174.03,147.216c-11.863-6.449.518,24.532.722,29.56.59,14.548-10.525,15.569-23.967,10.404-.011-.547-.017-1.094-.016-1.641,38.369,1.031,5.052-24.187,16.694-45.062,2.733,1.716,7.492,1.359,6.771,6.609l-.204.13Z"/><path class="cls-9" d="m150.769,185.538c-.001.547.004,1.095.016,1.641-7.097.19-14.289.972-19.788-5.209-1.805-2.029-4.586-1.336-7.017-1.377-6.604-1.017-11.313-5.66-16.761-8.856-2.837-1.664-3.398-4.705-3.326-7.818.035-.625.07-1.25.104-1.873,4.07,1.529,3.416,7.278,8.358,8.553,7.358,1.899,14.419,4.704,20.82,9.221,5.11,3.606,10.762,6.82,17.596,5.718Z"/><path class="cls-61" d="m212.736,87.015c-2.106,20.032-16.977-.567-23.346,8.549-4.652,6.657.627,9.583,6.416,11.771,11.505,4.35,12.938-7.316,21.881-6.923-1.138,1.632-2.276,3.264-3.414,4.897-3.745,1.594-3.548,6.312-6.67,8.399-8.493,1.582-14.666-3.458-20.382-8.144-8.077-6.621-8.009-7.031-14.706,1.492,0,0-.006.004-.006.004-1.681-.013-3.362-.026-5.042-.039,7.081-6.299,14.862-12.198,13.387-23.387,5.361,3.755,10.952,6.833,17.298,8.918,6.535,2.147,10.558.86,12.879-5.572.568.012,1.136.024,1.705.036Z"/><path class="cls-79" d="m212.736,87.015c-.568-.012-1.136-.024-1.706-.036-.514-3.511,1.547-8.676-3.675-9.578-8.332-1.44-8.868-7.564-9.842-13.779.573-.009,1.147-.018,1.72-.027,1.242,7.624,5.665,11.013,13.372,10.028,2.987,4.435,6.201,8.869.13,13.392Z"/><path class="cls-74" d="m214.273,105.309c1.138-1.632,2.276-3.265,3.414-4.897.543-.036,1.087-.058,1.631-.066,8.92,8.389,3.798,17.656,1.672,26.735.009-5.16-.255-10.339.103-15.475.368-5.287-2.206-6.732-6.82-6.297Z"/><path class="cls-65" d="m199.233,63.596c-.573.009-1.147.018-1.719.026-6.872-6.168-47.742-13.751-35.128,3.405-1.095-.029-2.19-.059-3.284-.088v.002c-1.47-3.461-.715-9.176-5.322-10.031-5.62-1.043-4.226,6.229-8.41,7.359-5.897-12.145.545-14.242,11.967-13.981,7.612,2.614,15.09,6.228,23.464,3.116,7.683.617,15.325,1.31,18.433,10.191Z"/><path class="cls-12" d="m103.996,162.045c-.035.624-.069,1.249-.105,1.874-8.031-1.591-19.337-27.718-18.628-35.437.792-8.625,9.141-11.692,10.551-19.089,1.405-7.369-1.634-19.597-1.905-27.407,11.311-6.6,11.941-23.227,26.754-25.688,13.691-2.275,13.598,6.533,18.482,17.238-.589.023-1.176.045-1.764.067-3.936-2.757-3.103-10.262-10.02-10.049-5.234-7.077-16.403-1.315-16.599,6.004-.16,5.969,13.443,11.757,3.158,17.39,4.616-19.697-12.504-1,.01-.013-5.211,7.173-11.782-7.669-16.826,5.741-2.588,6.881,1.588,15.514-.417,22.694-3.746,13.414-4.862,8.727-.385,21.948,2.706,7.993,2.686,17.653,7.693,24.727Z"/><path class="cls-25" d="m137.382,73.603c.588-.022,1.175-.044,1.764-.067,8.198-6.811-3.634-13.721-1.715-20.202,2.295-7.751,14.591-7.661,19.907-3.046-11.424-.26-17.866,1.837-11.969,13.982,4.184-1.13,2.79-8.402,8.41-7.359,4.607.855,3.852,6.57,5.321,10.031-5.403,1.258-7.104-4.28-7.922,4.216-.408,4.243,4.828,10.508,8.801,11.501,13.664,3.415,2.284-10.642-.878-15.72,1.095.029,2.19.059,3.285.087,2.255,2.173,4.51,4.348,6.765,6.522,5.985,8.186,13.886,34.51-6.94,29.7-3.118-.72-12.134-14.799-15.21-17.535-4.271-3.798-10.619-4.548-9.619-12.11Z"/><path class="cls-29" d="m214.273,105.309c4.614-.435,7.188,1.01,6.82,6.297-.358,5.136-.094,10.315-.103,15.475-.012,1.102-.024,2.203-.036,3.306-4.708,2.462-2.714,7.826-6.627,11.499-2.799,2.628-7.096.913-10.177,3.993-2.749,2.747.538,8.559-3.934,11.882-5.858,4.352-14.604-.539-19.233-4.088-.048-.505-.105-1.009-.171-1.513.003-1.105.006-2.211.009-3.316,1.351-8.005-1.107-11.921-9.95-14.073-13.003-3.165-14.282-12.766-8.412-21.053,4.074-1.128,7.576-3.117,10.051-6.656,0,0,.006-.004.006-.004,8.179-.41,11.369-2.358,17.325,4.694,7.341,8.692,1.373,9.556,1.931,18.507,1.601,25.735,15.859-7.279,15.832-16.548,3.122-2.087,2.925-6.806,6.67-8.399Zm-38.055,26.798c6.429.169,10.707-2.573,11.213-9.271,2.133-28.205-44.753,8.446-11.213,9.271Z"/><path class="cls-74" d="m180.983,153.672c4.628,3.549,13.374,8.441,19.233,4.088,4.472-3.322,1.185-9.134,3.934-11.882,3.081-3.079,7.378-1.365,10.177-3.993,3.912-3.673,1.919-9.037,6.627-11.499-.058,3.562.186,7.062-.925,10.636-1.48,4.76-3.625,7.39-8.928,5.322-1.509-.589-3.272-1.462-4.304.531-.763,1.474.516,2.731,1.499,3.536,5.311,4.348,1.658,7.913-1.412,10.609-7.791,6.841-21.931,2.64-25.901-7.348Z"/><path class="cls-55" d="m180.82,148.843c-.003,1.105-.006,2.211-.009,3.316-1.124-.545-2.247-1.091-3.372-1.636-1.07-1.145-2.139-2.291-3.207-3.438.722-5.25-4.037-4.893-6.77-6.61.001-1.119.003-2.237.004-3.356,9.589-1.936,9.266,7.401,13.353,11.722Z"/><path class="cls-69" d="m167.468,137.121c-.002,1.118-.003,2.237-.004,3.356-11.642,20.875,21.674,46.093-16.694,45.062-6.834,1.101-12.486-2.113-17.596-5.719-6.401-4.516-13.462-7.322-20.82-9.221-4.941-1.275-4.287-7.024-8.357-8.553-5.007-7.076-4.987-16.736-7.693-24.729-4.476-13.221-3.361-8.534.385-21.948,2.005-7.18-2.171-15.813.417-22.694,5.044-13.41,11.615,1.432,16.826-5.741l-.01.013c10.285-5.633-3.318-11.42-3.158-17.39.196-7.319,11.365-13.081,16.599-6.003,7.498,9.867,10.807,19.961,19.656,29.529,4.804,5.194,11.305,16.065,18.741,15.572-3.487,3.279-7.778,1.063-11.651,1.706h.002c.649-5.107-20.526-32.282-25.462-35.389-9.361-5.892-2.529,8.216-9.658,15.362-13.271,2.396-20.566,3.174-18.986,19.867,1.86,19.658,13.378,7.02,27.322,10.214,0,0-.002-.001-.002-.001,1.225,1.929,3.208,1.558,5.036,1.659,5.626,4.423,12.714,10.857.182,11.293.037-.001-7.671-5.631-7.004-5.829-13.812,4.101-3.873,23.313-3.213,32.952-5.159-5.605-6.506-38.539-15.594-36.499-14.803,3.323,12.815,36.783,15.609,41.418v-4.899c4.261,9.898,9.608,18.623,21.695,20.078,2.392,2.62,5.559,1.24,8.385,1.622,5.999,3.451,9.357-.541,12.3-4.678,4.853-6.822,2.634-13.646-.624-20.337-.227-4.639.668-9.312-.962-13.911-1.336-3.769.586-5.724,4.336-6.165v.005Z"/><path class="cls-30" d="m169.152,73.548c-2.255-2.174-4.51-4.348-6.765-6.522-12.614-17.155,28.255-9.572,35.128-3.404.973,6.215,1.509,12.34,9.841,13.779,5.222.902,3.161,6.067,3.675,9.578-2.319,6.432-6.342,7.719-12.878,5.572-6.347-2.085-11.937-5.164-17.298-8.918-3.29-4.07-5.982-8.832-11.702-10.086Zm8.673-13.335c-2.629,0-4.039-.165-5.396.035-16.129,2.377,1,14.548,9.732,17.085,19.951,5.796,13.44-20.344-4.336-17.12Z"/><path class="cls-27" d="m207.603,113.708c.027,9.269-14.231,42.283-15.832,16.548-.557-8.951,5.41-9.815-1.931-18.507-5.956-7.052-9.146-5.104-17.325-4.694,6.697-8.523,6.629-8.113,14.706-1.492,5.716,4.686,11.888,9.726,20.382,8.144Z"/><path class="cls-28" d="m169.152,73.548c5.72,1.254,8.412,6.016,11.702,10.086,1.475,11.189-6.306,17.088-13.387,23.387-.57.545-1.139,1.089-1.709,1.634-7.436.493-13.936-10.378-18.741-15.572-8.849-9.568-12.158-19.662-19.656-29.529,6.918-.212,6.085,7.292,10.021,10.049-1,7.562,5.348,8.312,9.619,12.11,3.076,2.736,12.092,16.815,15.21,17.535,20.827,4.81,12.925-21.514,6.94-29.7Z"/><path class="cls-27" d="m165.759,108.655c.57-.544,1.14-1.089,1.709-1.634,1.681.013,3.362.026,5.042.039-2.475,3.539-5.977,5.528-10.051,6.656-3.209-.062-6.696.566-8.352-3.356,3.873-.643,8.165,1.573,11.651-1.706Z"/><path class="cls-64" d="m113.931,86.934c-12.514-.987,4.606-19.684-.01.013,0,0,.01-.013.01-.013Z"/><path class="cls-50" d="m159.102,66.939c3.162,5.077,14.542,19.135.878,15.72-3.973-.993-9.209-7.258-8.801-11.501.817-8.497,2.518-2.958,7.922-4.216,0,0,0-.002,0-.002Z"/><path class="cls-42" d="m154.107,110.36c1.656,3.921,5.142,3.294,8.352,3.356-5.87,8.287-4.591,17.888,8.412,21.053,8.843,2.153,11.301,6.069,9.95,14.073-4.087-4.321-3.764-13.658-13.353-11.722,0,0,0-.005,0-.005-9.493-10.165-23.069-10.814-35.109-15.043-1.828-.1-3.811.27-5.035-1.659,9.031-.021,23.77,2.379,20.906-10.468-1.811-8.125-16.364-16.203-23.859-17.051-9.116-1.032-23.318,4.312-20.491,16.445,2.38,10.214,10.978,7.722,20.06,7.778,1.144.528,2.289,1.056,3.433,1.584-.016.571-.032,1.143-.048,1.714-13.944-3.195-25.462,9.444-27.322-10.215-1.58-16.694,5.715-17.472,18.986-19.868,4.414.293,7.618-1.728,8.469-3.721,12.492,4.366,16.532,17.069,26.651,23.749h-.002Z"/><path class="cls-38" d="m176.218,132.107c-33.539-.825,13.346-37.475,11.213-9.271-.506,6.698-4.785,9.44-11.213,9.271Z"/><path class="cls-55" d="m132.359,122.072c12.04,4.229,25.616,4.879,35.109,15.043-3.75.44-5.672,2.395-4.336,6.165,1.63,4.599.735,9.272.962,13.911-2.322-1.909-1.064-4.71-1.774-6.984-1.345-4.31-1.636-9.709-8.127-9.864-1.354-12.136-54.292-7.883-26.905,16.858-1.169,7.913,2.354,13.213,9.041,17.11,2.827,1.648,5.151,4.157,7.704,6.275-12.086-1.455-17.434-10.181-21.694-20.078l-.015-.02c-.659-9.639-10.599-28.85,3.213-32.951-.667.198,7.041,5.827,7.004,5.829,12.532-.436,5.444-6.869-.182-11.293Z"/><path class="cls-57" d="m154.194,140.341c6.49.157,6.782,5.556,8.126,9.866.71,2.274-.548,5.075,1.774,6.984,3.258,6.691,5.477,13.516.624,20.337-2.943,4.137-6.301,8.13-12.3,4.679-2.512-3.766-5.603-6.207-10.2-7.799-4.519-1.565-10.133-3.755-9.861-10.539,21.511,18.732,39.723-3.905,21.732-23.402l.105-.127Z"/><path class="cls-40" d="m122.338,160.507v4.899c-2.794-4.635-30.412-38.095-15.609-41.418,9.088-2.04,10.434,30.894,15.594,36.499,0,0,.015.02.015.02Z"/><path class="cls-27" d="m154.109,110.361c-10.119-6.68-14.159-19.383-26.651-23.749-.851,1.993-4.055,4.014-8.469,3.721,7.129-7.146.297-21.253,9.658-15.362,4.936,3.107,26.111,30.282,25.462,35.39Z"/><path class="cls-47" d="m132.357,163.87c-.272,6.783,5.342,8.973,9.861,10.538,4.597,1.592,7.689,4.033,10.2,7.799-2.826-.382-5.993.998-8.385-1.622-2.553-2.117-4.877-4.627-7.704-6.275-6.686-3.897-10.209-9.197-9.041-17.11l.11-.078c1.653,2.249,3.306,4.498,4.959,6.747Z"/><path class="cls-2" d="m177.825,60.213c17.776-3.225,24.288,22.915,4.336,17.12-8.732-2.537-25.861-14.708-9.732-17.085,1.357-.2,2.767-.035,5.396-.035Z"/><path class="cls-58" d="m123.94,117.117c-9.082-.055-17.681,2.436-20.06-7.778-2.827-12.133,11.375-17.477,20.491-16.445,7.495.849,22.047,8.927,23.859,17.051,2.864,12.846-11.876,10.447-20.906,10.468,0,0,.002.001.002.001.016-.571.032-1.142.048-1.713,4.728-.673,18.414.112,17.821-7.863-.393-5.28-13.194-12.337-17.717-13.271-16.33-3.374-24.11,12.527-6.834,16.154,1.106.567,2.213,1.135,3.319,1.702-.007.565-.014,1.13-.021,1.695Z"/><path class="cls-51" d="m123.94,117.117c.007-.565.014-1.13.022-1.695,10.286-.12,17.024-3.075,7.69-11.089-11.647-9.999-11.528.896-11.009,9.387-17.276-3.627-9.496-19.528,6.834-16.154,4.523.935,17.325,7.991,17.717,13.271.593,7.975-13.094,7.191-17.821,7.863-1.144-.528-2.288-1.056-3.433-1.584Z"/><path class="cls-47" d="m127.288,157.2c-27.386-24.741,25.551-28.994,26.905-16.858.001-.001-.104.126-.104.125-1.114.001-2.227.002-3.341.004-6.683-4.599-13.367-1.875-20.051-.004-7.222,4.341-1.571,11.227-3.299,16.654l-.11.078Z"/><path class="cls-80" d="m127.398,157.123c1.728-5.427-3.923-12.314,3.299-16.655-7.609,30.033,38.072,23.336,20.051.004,1.114-.001,2.227-.003,3.341-.004,17.991,19.497-.221,42.134-21.732,23.402-1.653-2.249-3.306-4.498-4.959-6.747Z"/><path class="cls-60" d="m120.643,113.72c-.519-8.491-.638-19.386,11.009-9.387,9.334,8.013,2.596,10.968-7.69,11.089-1.107-.567-2.213-1.134-3.32-1.702Z"/><path class="cls-48" d="m150.748,140.472c18.021,23.333-27.66,30.029-20.051-.004,6.684-1.872,13.368-4.595,20.051.004Z"/></svg>