<?xml version="1.0" encoding="UTF-8"?><svg id="Layer_1" xmlns="http://www.w3.org/2000/svg" viewBox="0 0 301.725 202.61"><defs><style>.cls-1{fill:#72828a;}.cls-2{fill:#a7606b;}.cls-3{fill:#9faeb5;}.cls-4{fill:#424951;}.cls-5{fill:#be4057;}.cls-6{fill:#cfd8de;}.cls-7{fill:#c8d9e2;}.cls-8{fill:#9eb2c2;}.cls-9{fill:#7b878f;}.cls-10{fill:#921f36;}.cls-11{fill:#868d96;}.cls-12{fill:#601f28;}.cls-13{fill:#d7aab8;}.cls-14{fill:#73858e;}.cls-15{fill:#66777f;}.cls-16{fill:#ab2942;}.cls-17{fill:#606e73;}.cls-18{fill:#a03245;}.cls-19{fill:#9aa6b2;}.cls-20{fill:#79293a;}.cls-21{fill:#636e77;}.cls-22{fill:#c2b5bc;}.cls-23{fill:#f7f9fb;}.cls-24{fill:#596a70;}.cls-25{fill:#c3d4df;}.cls-26{fill:#495961;}.cls-27{fill:#707e89;}.cls-28{fill:#8896a2;}.cls-29{fill:#6f747f;}.cls-30{fill:#87959c;}.cls-31{fill:#b4c4d0;}.cls-32{fill:#795161;}.cls-33{fill:#cfacb5;}.cls-34{fill:#98313f;}.cls-35{fill:#924251;}.cls-36{fill:#808e97;}.cls-37{fill:#da4a63;}.cls-38{fill:#ba99a6;}.cls-39{fill:#83949c;}.cls-40{fill:#afbec8;}.cls-41{fill:#ceb0b3;}.cls-42{fill:#b0bdca;}.cls-43{fill:#a32a40;}.cls-44{fill:#929fa7;}.cls-45{fill:#e0e9ef;}.cls-46{fill:#704a5a;}.cls-47{fill:#5b6e76;}.cls-48{fill:#a4b0b9;}.cls-49{fill:#5a6972;}.cls-50{fill:#c9d4de;}.cls-51{fill:#6c4552;}.cls-52{fill:#9d6271;}.cls-53{fill:#af949a;}.cls-54{fill:#caa2ab;}.cls-55{fill:#da8e9e;}.cls-56{fill:#a4465c;}.cls-57{fill:#2d3c42;}.cls-58{fill:#5f1a28;}.cls-59{fill:#b7c1ce;}.cls-60{fill:#39484f;}.cls-61{fill:#66737e;}.cls-62{fill:#ad4a5e;}.cls-63{fill:#9aaab6;}.cls-64{fill:#741f34;}.cls-65{fill:#5e6c73;}.cls-66{fill:#5a5c66;}.cls-67{fill:#d19aa9;}.cls-68{fill:#b7727e;}.cls-69{fill:#66767b;}.cls-70{fill:#6c353f;}.cls-71{fill:#cfd0da;}.cls-72{fill:#48575e;}.cls-73{fill:#808489;}.cls-74{fill:#737f88;}.cls-75{fill:#2d3c44;}.cls-76{fill:#995c6e;}.cls-77{fill:#b9465b;}.cls-78{fill:#c9465b;}.cls-79{fill:#8899a2;}.cls-80{fill:#a9b6c2;}.cls-81{fill:#7f7789;}.cls-82{fill:#a6b2bb;}.cls-83{fill:#b9c3ce;}.cls-84{fill:#fefefe;}.cls-85{fill:#a0a6b0;}</style></defs><path class="cls-12" d="m27.947,140.997c3.678-3.672,6.478-6.033,9.336-8.11,9.035-6.565,18.129-9.908,18.989-8.624.337.503-.3,2.147-.732,3.264-.175.451-.351.827-.498,1.115-13.318,10.313-22.891,19.387-29.239,25.873-2.117,2.163-5.181,6.159-9.312,11.292-20.767,25.809-5.958,32.329,21.925,29.536,5.565-.612,11.13-1.223,16.695-1.835-12.437,4.752-37.379,15.064-49.429,4.516-3.998-3.5-5.146-7.994-5.146-7.994-1.782-6.354,1.078-12.432,5.693-20.077,7.394-12.246,14.089-21.342,21.718-28.957Z"/><path class="cls-51" d="m55.111,193.51c-5.565.612-11.13,1.223-16.694,1.835,1.856-1.225,3.711-2.45,5.568-3.675,6.826-2.49,13.65-4.98,20.475-7.47,3.682-.611,7.364-1.221,11.046-1.832.715.009,1.43.019,2.145.028-.05.623-.099,1.247-.149,1.87-3.683,1.806-7.366,3.611-11.049,5.417-3.113,1.25-6.227,2.501-9.339,3.751-.667.025-1.335.051-2.002.076Z"/><path class="cls-58" d="m231.12,12.072c1.279-.61,2.557-1.219,3.837-1.829,13.846-3.552,79.072-26.643,64.718,11.063-.557-2.47-1.114-4.941-1.671-7.412-2.263-8.983-7.909-13.106-18.465-10.745-10.842,2.425-21.24,6.834-31.831,10.378-5.519.177-11.038.349-16.558.522-.01-.659-.02-1.319-.03-1.978Z"/><path class="cls-70" d="m298.004,13.894c.557,2.471,1.115,4.942,1.671,7.412-2.454,4.984-4.908,9.969-7.362,14.954-9.882,9.788-19.764,19.576-29.647,29.364,2.652-3.523,5.192-7.139,7.983-10.55,4.693-5.733,9.546-11.336,14.331-16.994,3.703-6.179,7.406-12.358,11.109-18.536.638-1.884,1.276-3.767,1.914-5.651Z"/><path class="cls-35" d="m284.982,38.082c-4.786,5.658-9.639,11.26-14.332,16.994-2.792,3.41-5.331,7.027-7.983,10.55-1.21,1.213-2.42,2.428-3.63,3.64.001-.003-.183.124-.182.125-.589-.043-1.176-.109-1.761-.193-.553-1.15-1.106-2.303-1.659-3.456,9.19-9.235,18.38-18.471,27.57-27.706.659.016,1.319.032,1.978.048Z"/><path class="cls-34" d="m43.983,191.669c-1.855,1.225-3.71,2.45-5.566,3.675-27.884,2.793-42.693-3.727-21.928-29.536-.083,1.183-.164,2.367-.245,3.551-4.996,5.901-8.444,13.317-4.079,19.723,2.293,3.365,9.972,3.065,15.219,4.421,5.533-.611,11.066-1.223,16.599-1.834Z"/><path class="cls-32" d="m38.628,138.861c.698-.883,1.569-1.858,2.643-2.837,1.552-1.416,3.079-2.433,4.359-3.156,6.524-3.714,10.262-5.019,11.215-3.916.461.533.271,1.629-.571,3.288-2.435,2.049-5.088,4.568-7.737,7.63-1.657,1.915-3.093,3.789-4.334,5.564-4.278,4.891-8.557,9.782-12.836,14.673-.639.713-1.279,1.426-1.92,2.136-.72-.084-1.438-.166-2.156-.248-.496-2.493-.992-4.986-1.488-7.478,4.275-5.218,8.55-10.437,12.825-15.655Z"/><path class="cls-56" d="m25.802,154.516c.496,2.493.992,4.986,1.49,7.479-2.48,3.729-4.962,7.458-7.444,11.188-.593-.008-1.184.023-1.773.094-.61-1.306-1.221-2.611-1.831-3.917.081-1.184.162-2.367.245-3.551,3.105-3.764,6.209-7.528,9.313-11.292Z"/><path class="cls-2" d="m75.505,182.367c-3.682.611-7.364,1.221-11.046,1.832,2.877-5.314,10.755-8.349,7.514-16.454,1.89-1.369,3.781-2.736,5.673-4.104.611.087,1.222.171,1.835.25,3.07,1.057,6.478,3.506,9.135,2.862,4.585-1.112,8.703-4.146,13.018-6.373,4.28-1.916,8.561-3.832,12.841-5.748,14.199-8.036,28.398-16.072,42.596-24.108,27.122-18.647,54.244-37.294,81.366-55.94-2.347,3.973-4.693,7.946-7.041,11.917-.046.473-.038.947.018,1.421-11.148,7.529-22.293,15.057-33.439,22.585-24.162,14.644-48.323,29.287-72.485,43.932-8.609,4.975-17.218,9.948-25.827,14.921-2.898,1.286-5.795,2.571-8.693,3.857-.26.571-.344,1.168-.254,1.789-5.07,2.454-10.14,4.907-15.211,7.361Z"/><path class="cls-62" d="m71.974,167.746c3.24,8.104-4.638,11.138-7.515,16.453-6.825,2.49-13.649,4.98-20.475,7.47-5.534.612-11.067,1.223-16.6,1.834,3.113-1.838,6.226-3.676,9.338-5.514,4.935-3.032,9.871-6.064,14.806-9.096,3.072-1.869,6.145-3.737,9.217-5.606.643-.693,1.286-1.386,1.929-2.078,2.467-1.317,4.934-2.635,7.401-3.953.633.163,1.265.326,1.898.49Z"/><path class="cls-10" d="m298.004,13.894c-.638,1.884-1.276,3.767-1.915,5.651-.679-2.442-1.357-4.884-2.035-7.326-5.387-1.775-10.768-4.927-16.163-4.95-5.743-.024-11.498,2.913-17.247,4.557-4.318.794-8.637,1.588-12.955,2.382,0,0,.018-.685.018-.685,10.592-3.541,20.99-7.949,31.833-10.374,10.556-2.361,16.202,1.762,18.465,10.745Z"/><path class="cls-46" d="m223.711,15.671c2.48-.541,4.96-1.082,7.439-1.623,5.519-.172,11.039-.345,16.557-.521-.001-.004-.019.682-.016.679-8.556,2.95-17.116,5.903-25.676,8.858-.663.027-1.325.053-1.987.078-.627-1.223-1.255-2.446-1.882-3.669,1.855-1.268,3.71-2.535,5.565-3.803Z"/><path class="cls-18" d="m294.054,12.219c.678,2.442,1.356,4.884,2.035,7.326-3.702,6.179-7.406,12.357-11.108,18.536-.659-.015-1.318-.031-1.977-.048,1.271-2.448,2.541-4.895,3.811-7.343,2.413-6.158,4.826-12.315,7.239-18.471Z"/><path class="cls-77" d="m286.815,30.692c-1.27,2.447-2.541,4.895-3.812,7.342-9.19,9.236-18.38,18.471-27.572,27.707-2.211.255-4.421.509-6.63.764-.392-4.171.557-7.979,2.848-11.429,5.546-3.784,11.092-7.565,16.638-11.346,4.298-4.347,8.597-8.692,12.896-13.037,1.796-.065,3.593-.13,5.389-.195,0,0,.243.194.243.194Z"/><path class="cls-52" d="m251.65,55.08c-2.291,3.445-3.241,7.254-2.849,11.425,2.209-.254,4.419-.509,6.63-.764.555,1.152,1.108,2.305,1.662,3.455-3.127,3.193-6.254,6.389-9.38,9.585-3.128,1.877-6.257,3.754-9.383,5.629-.484-.035-.954.039-1.405.222-1.842.624-3.684,1.247-5.526,1.871,2.347-3.973,4.693-7.946,7.04-11.916.769-1.063,1.537-2.129,2.303-3.195.025-2.597.052-5.193.079-7.79-.035-1.117-.069-2.234-.105-3.352,2.318-1.891,4.638-3.781,6.958-5.671,1.281-.142,2.562-.284,3.843-.427.05.308.095.617.135.927Z"/><path class="cls-78" d="m36.723,187.99c-3.113,1.838-6.225,3.675-9.338,5.513-5.247-1.355-12.927-1.055-15.22-4.42-4.365-6.406-.917-13.822,4.079-19.723.61,1.305,1.22,2.611,1.832,3.915-3.548,11.145-1.15,14.529,10.411,14.673,2.745.034,5.49.03,8.235.043Z"/><path class="cls-64" d="m53.34,172.954c2.469.11,4.938.22,7.406.332-3.073,1.87-6.145,3.738-9.217,5.605-6.67,1.765-13.255,4.055-20.033,5.164-7.939,1.299-12.13-2.576-11.648-10.873,2.482-3.729,4.963-7.458,7.444-11.188.717.082,1.435.164,2.155.248-10.11,20.883,10.443,13.297,23.893,10.712Z"/><path class="cls-16" d="m19.849,173.182c-.482,8.297,3.709,12.172,11.648,10.873,6.778-1.109,13.363-3.398,20.033-5.164-4.936,3.034-9.871,6.066-14.807,9.098-2.745-.013-5.49-.008-8.235-.042-11.562-.144-13.959-3.528-10.411-14.673.588-.069,1.179-.1,1.772-.092Z"/><path class="cls-31" d="m114.535,187.918c-7.941-4.304-15.881-8.609-23.82-12.912-.089-.62-.004-1.216.253-1.786,15.31,4.385,31.982,15.521,48.276,14.536-1.22-1.618-1.914-2.537-2.606-3.456,14.67,3.043,29.062,2.793,42.938-3.603,1.96.737,4.575,2.67,5.774,2.015,7.465-4.078,14.613-8.735,21.866-13.199,8.835-8.122,18.972-15.211,22.131-27.838,1.182-2.48,2.364-4.959,3.546-7.439,1.993-4.904,3.986-9.809,5.979-14.713,1.199,2.565,2.398,5.13,3.597,7.695-5.408,14.666-11.111,29.208-23.117,40.017-30.791,27.722-65.39,36.493-104.816,20.686Z"/><path class="cls-8" d="m242.467,127.215c-1.199-2.565-2.398-5.13-3.597-7.695-.044-1.802-.087-3.603-.131-5.405-.138-9.901-.275-19.802-.412-29.704,3.129-1.877,6.257-3.753,9.385-5.631-1.144,14.771-2.246,29.547-3.495,44.31-.12,1.414-1.146,2.751-1.751,4.124Z"/><path class="cls-80" d="m77.646,163.641c-7.501-11.021-15.002-22.043-22.503-33.064-.713-13.579-1.427-27.157-2.14-40.736.211-1.831.422-3.663.633-5.495,1.206,3.171,2.413,6.342,3.619,9.513,1.252,8.507,2.503,17.014,3.755,25.521,2.459,7.337,4.917,14.674,7.376,22.011,6.089,6.264,12.177,12.527,18.266,18.791-2.391,1.236-4.781,2.473-7.171,3.71-.612-.079-1.224-.163-1.835-.25Z"/><path class="cls-53" d="m125.489,154.439c24.162-14.644,48.324-29.287,72.485-43.933.558,1.158,1.116,2.319,1.675,3.479-1.232,1.226-2.465,2.451-3.697,3.676-3.152,1.858-6.388,3.591-9.442,5.599-12.943,8.512-25.832,17.106-38.741,25.67-6.19,4.324-12.38,8.647-18.571,12.971-.629-1.229-1.257-2.458-1.886-3.687-.608-1.258-1.216-2.516-1.824-3.775Z"/><path class="cls-55" d="m240.743,71.392c-.768,1.066-1.536,2.132-2.305,3.195-27.123,18.644-54.245,37.291-81.367,55.938-1.142-.58-2.285-1.16-3.427-1.741,9.77-6.809,19.54-13.617,29.311-20.426,11.763-8.035,23.526-16.069,35.289-24.104,7.5-4.288,15-8.575,22.499-12.863Z"/><path class="cls-30" d="m195.952,117.662c1.232-1.226,2.465-2.451,3.697-3.678,1.256-.653,2.512-1.304,3.768-1.956,16.986,2.794,24.828-2.924,27.754-20.233.081-1.291.163-2.582.244-3.873-.058-.473-.066-.948-.02-1.42,1.844-.622,3.686-1.245,5.526-1.873-1.215,5.442-2.428,10.887-3.643,16.333-5.894,17.845-8.526,19.711-26.315,18.661-2.418-.015-4.836-.03-7.254-.045-1.253-.639-2.505-1.277-3.757-1.915Z"/><path class="cls-68" d="m153.644,128.785c1.142.58,2.285,1.161,3.427,1.741-14.199,8.036-28.398,16.071-42.596,24.107-.591-2.429-1.181-4.858-1.773-7.288,2.377-1.29,4.755-2.578,7.133-3.867,8.086-4.36,16.173-8.719,24.259-13.079,1.318-.616,2.636-1.232,3.954-1.848,1.186-.014,2.373-.029,3.559-.043.679.092,1.358.185,2.038.277Z"/><path class="cls-85" d="m136.637,184.299c.693.919,1.387,1.838,2.607,3.456-16.294.985-32.966-10.151-48.276-14.536,2.9-1.287,5.798-2.572,8.695-3.857,1.85.048,3.7.095,5.55.142,6.759,3.733,13.518,7.467,20.277,11.2,3.715,1.198,7.431,2.397,11.146,3.595Z"/><path class="cls-22" d="m203.417,112.028c-1.256.652-2.511,1.304-3.768,1.956-.559-1.159-1.118-2.319-1.676-3.478,11.146-7.527,22.291-15.055,33.439-22.584-.079,1.29-.16,2.581-.242,3.871-9.251,6.744-18.503,13.489-27.754,20.234Z"/><path class="cls-41" d="m105.213,169.505c-1.85-.047-3.701-.095-5.551-.143,8.609-4.974,17.218-9.947,25.827-14.922.608,1.257,1.216,2.515,1.825,3.774-1.17.683-2.342,1.364-3.513,2.046-6.196,3.081-12.392,6.163-18.588,9.244Z"/><path class="cls-33" d="m79.48,163.891c2.391-1.236,4.781-2.473,7.172-3.709.698-.642,1.395-1.283,2.093-1.925,4.263.036,8.525.071,12.788.107.033.672.067,1.345.1,2.017-4.314,2.228-8.432,5.262-13.018,6.373-2.657.644-6.065-1.805-9.135-2.862Z"/><path class="cls-54" d="m101.633,160.38c-.033-.672-.067-1.345-.1-2.017,4.498-2.272,5.689-5.219,1.881-9.189,2.427-.494,4.854-.987,7.283-1.484.67-.117,1.338-.232,2.006-.346.591,2.429,1.181,4.858,1.772,7.287-4.281,1.916-8.561,3.832-12.841,5.748Z"/><path class="cls-5" d="m294.054,12.219c-2.413,6.157-4.826,12.314-7.239,18.471,0,0-.242-.193-.24-.192,4.371-17.864,4.704-18.802-13.371-21.325,3.977,4.399,5.905,6.533,7.834,8.666-1.76-.055-3.52-.11-5.28-.165-2.474-.692-4.947-1.385-7.421-2.077-2.564-1.257-5.129-2.514-7.693-3.771,5.75-1.644,11.505-4.582,17.247-4.557,5.395.023,10.776,3.175,16.163,4.95Z"/><path class="cls-76" d="m260.643,11.827c2.564,1.257,5.129,2.514,7.692,3.773-5.109,1.229-10.217,2.455-15.325,3.682-6.05,1.942-12.1,3.884-18.151,5.826-.66-.021-1.32-.042-1.981-.063-3.621-.661-7.242-1.322-10.864-1.983,8.559-2.953,17.118-5.906,25.675-8.856,4.316-.792,8.634-1.585,12.953-2.379Z"/><path class="cls-81" d="m211.198,23.1c2.944.015,5.887.03,8.83.044.661-.026,1.323-.052,1.986-.079,3.622.659,7.244,1.32,10.867,1.981-3.685,2.512-7.371,5.024-11.058,7.537-3.542-3.161-7.084-6.322-10.626-9.483Z"/><path class="cls-63" d="m57.255,93.859c-1.206-3.171-2.413-6.342-3.619-9.513C62.356,40.232,91.682,9.852,133.306,3.945c20.061-2.847,40.475-2.748,59,8.147-.628,1.239-1.255,2.478-1.883,3.717-2.278-.818-4.598-1.535-6.826-2.471-15.757-6.62-31.895-9.432-48.784-5.028-.628.634-1.257,1.269-1.885,1.903-10.935,4.287-22.755,7.128-32.623,13.158-21.277,13.002-34.857,32.155-39.03,57.253-1.34,4.411-2.679,8.823-4.019,13.234Z"/><path class="cls-42" d="m190.422,15.809c.628-1.239,1.255-2.478,1.883-3.717.604.024,1.208.038,1.812.041,5.692,3.656,11.384,7.312,17.078,10.967,3.544,3.161,7.086,6.322,10.628,9.482,6.298,9.223,12.595,18.445,18.892,27.668.034,1.117.069,2.234.101,3.352-3.856,2.481-7.709,4.962-11.561,7.445-1.234-2.961-2.469-5.925-3.703-8.889-.594-1.875-1.188-3.75-1.783-5.626-.251-4.739,1.002-10.28-1.025-14.072-6.995-13.09-19.379-20.357-32.314-26.645l-.009-.008Z"/><path class="cls-20" d="m253.011,19.283c5.108-1.227,10.216-2.453,15.325-3.682,2.475.69,4.948,1.383,7.42,2.075-.077,4.661.761,9.584-.483,13.91-1.252,4.357-4.572,8.121-6.986,12.145-5.547,3.78-11.093,7.56-16.639,11.345-.039-.306-.084-.615-.134-.917,1.263-2.339,2.526-4.685,3.79-7.03,9.701-6.626,11.917-12.741,16.734-23.546-5.53-1.317-11.06-2.634-16.59-3.952-.813-.116-1.625-.232-2.438-.348Z"/><path class="cls-37" d="m281.037,17.84c-1.929-2.134-3.857-4.267-7.834-8.666,18.075,2.523,17.742,3.461,13.371,21.325-1.799.064-3.595.129-5.391.193-.049-4.284-.097-8.568-.146-12.851Z"/><path class="cls-43" d="m281.037,17.84c.049,4.283.098,8.567.146,12.851-4.299,4.346-8.598,8.691-12.896,13.038,2.414-4.022,5.734-7.787,6.986-12.144,1.243-4.326.406-9.249.483-13.91,1.761.055,3.521.11,5.281.165Z"/><path class="cls-67" d="m229.255,71.045c3.853-2.48,7.707-4.961,11.562-7.442-.025,2.596-.052,5.193-.077,7.789-7.498,4.288-14.998,8.575-22.498,12.863-.013-1.217-.027-2.434-.04-3.651,3.684-3.187,7.368-6.373,11.052-9.559Z"/><path class="cls-61" d="m233.281,100.961c1.213-5.445,2.425-10.891,3.64-16.333.454-.179.923-.254,1.408-.218.135,9.903.273,19.804.41,29.705,0-7.361,0-14.722,0-22.083-.366-.015-.733-.03-1.099-.045-.842,3.026-1.683,6.051-2.525,9.077-.61-.06-1.221-.095-1.834-.104Z"/><path class="cls-26" d="m235.115,101.065c.842-3.026,1.683-6.051,2.525-9.077.366.015.733.03,1.099.045,0,7.361,0,14.721,0,22.083.044,1.802.088,3.604.131,5.405-1.993,4.904-3.986,9.809-5.978,14.713-7.823-1.218-14.573-.089-21.284,5.241-8.907,7.073-19.027,12.622-28.625,18.826,10.617-9.029,21.233-18.059,32.558-27.691-5.404-3.118-9.014-5.201-12.624-7.284.054.9.108,1.799.161,2.699-6.091,1.499-12.182,2.998-18.273,4.497,4.968-3.648,9.936-7.296,14.904-10.944,2.418.015,4.836.03,7.254.044,4.281,6.748,14.125,8.384,18.875,1.855,4.307-5.921,6.276-13.541,9.276-20.411Z"/><path class="cls-49" d="m182.983,158.3c9.599-6.204,19.718-11.753,28.625-18.826,6.711-5.329,13.46-6.459,21.284-5.241-1.182,2.48-2.364,4.959-3.546,7.439-1.515,1.436-3.03,2.872-5.468,5.184.442-3.62.707-5.789.972-7.958-.605-.254-1.211-.508-1.816-.762-1.023,1.756-2.046,3.512-3.069,5.268-4.991,1.753-10.226,3.017-14.921,5.361-9.392,4.689-18.488,9.97-27.706,15.006-1.142.09-2.284.179-3.426.268-12.112-1.358-24.774,2.708-38.575-3.68,5.088-3.844,8.789-6.639,12.49-9.435,8.616-4.953,17.232-9.905,25.848-14.858-8.903,9.273-17.01,14.918-28.068,21.458.408.994.816,1.989,1.223,2.983,12.143,2.591,24.224,2.944,36.152-2.207Z"/><path class="cls-39" d="m177.337,163.771c9.218-5.036,18.315-10.317,27.706-15.006,4.695-2.344,9.93-3.608,14.922-5.36-1.845,10.838-11.88,15.44-12.751,26.106-7.253,4.465-14.401,9.122-21.866,13.199-1.199.655-3.814-1.278-5.775-2.016,2.479-1.235,4.959-2.468,7.438-3.703,5.265-2.442,6.398-5.569,9.427-10.414-7.628-3.483-10.817-4.023-19.101-2.806Z"/><path class="cls-6" d="m187.013,176.992c-2.48,1.234-4.961,2.467-7.44,3.702-13.874,6.398-28.266,6.647-42.936,3.604-3.716-1.198-7.432-2.396-11.146-3.596-2.968-3.2-5.936-6.398-10.425-11.234h40.194c-9.011,1.557-18.022,3.115-29.123,5.034,11.483,8.62,52.546,18.558,54.869-5.12h-20.256c.015-.548.064-1.093.147-1.635,3.746-.175,7.491-.35,11.236-.525.461.075.926.117,1.393.126,4.133.276,8.267.552,12.577.84.356,3.443.634,6.123.911,8.804Z"/><path class="cls-14" d="m207.215,169.511c.871-10.666,10.906-15.268,12.751-26.106,1.022-1.757,2.045-3.514,3.068-5.27.605.254,1.211.508,1.816.762-.265,2.169-.53,4.338-.972,7.958,2.439-2.312,3.953-3.748,5.468-5.184-3.159,12.627-13.296,19.716-22.131,27.838Z"/><path class="cls-19" d="m110.695,147.694c-2.427.494-4.854.987-7.282,1.479-7.02-2.537-14.038-5.073-23.595-8.526,3.902,7.696,6.414,12.653,8.927,17.609-.697.642-1.395,1.283-2.093,1.925-6.089-6.264-12.177-12.527-18.267-18.79,2.401.996,4.803,1.991,10.166,4.212-2.828-7.252-4.714-12.088-6.6-16.923-.337-6.344-.674-12.689-1.011-19.033.916-.224,1.833-.447,2.749-.671,6.561,13.916,12.518,32.435,29.504,36.542,2.501.725,5.002,1.449,7.503,2.174Z"/><path class="cls-17" d="m57.256,93.859c1.34-4.411,2.679-8.823,4.017-13.235.713,3.645,1.428,7.29,2.415,12.328,1.139-3.675,1.913-6.172,2.686-8.669.644.66,1.288,1.32,1.932,1.981-.091,10.482-.182,20.965-.274,31.447-.105,1.95-.21,3.9-.332,6.157-2.556-1.715-4.623-3.101-6.69-4.487-1.252-8.507-2.503-17.014-3.755-25.521Z"/><path class="cls-27" d="m61.011,119.379c2.067,1.386,4.134,2.773,6.69,4.487.122-2.257.227-4.207.333-6.158,1.307,3.657,2.612,7.315,3.917,10.972,1.886,4.835,3.772,9.671,6.6,16.923-5.362-2.221-7.765-3.216-10.166-4.212-2.457-7.339-4.916-14.676-7.374-22.013Z"/><path class="cls-73" d="m173.676,136.066c-8.616,4.953-17.232,9.905-25.849,14.858-.019-.665-.038-1.329-.057-1.994,12.909-8.564,25.798-17.158,38.741-25.67,3.054-2.008,6.29-3.741,9.442-5.599,1.252.639,2.504,1.277,3.757,1.916-4.968,3.649-9.936,7.297-14.904,10.945-3.71,1.848-7.42,3.696-11.13,5.544Z"/><path class="cls-9" d="m147.77,148.93c.019.665.038,1.329.057,1.994-3.701,2.796-7.402,5.592-12.49,9.435,13.801,6.388,26.463,2.323,38.574,3.679-.129,1.103-.258,2.207-.386,3.31-.467-.009-.932-.052-1.394-.125-4.16-.439-8.329-.807-12.477-1.334-10.156-1.291-20.304-2.655-30.455-3.989,6.19-4.324,12.38-8.647,18.571-12.971Z"/><path class="cls-82" d="m129.199,161.901c10.151,1.334,20.298,2.698,30.455,3.989,4.148.527,8.317.895,12.477,1.334-3.745.173-7.49.349-11.237.522-10.596-.673-21.22-1.089-31.762-2.245-1.946-.213-3.563-3.417-5.331-5.24,1.172-.682,2.343-1.363,3.513-2.046.627,1.228,1.256,2.457,1.885,3.686Z"/><path class="cls-38" d="m153.644,128.785c-.679-.092-1.358-.185-2.039-.275,6.779-6.12,13.559-12.243,20.339-18.365,4.313-3.059,8.626-6.118,12.94-9.178,2.443-.606,4.885-1.213,7.328-1.819-3.086,3.07-6.171,6.14-9.257,9.211-9.77,6.809-19.54,13.617-29.311,20.426Z"/><path class="cls-13" d="m182.954,108.359c3.086-3.07,6.171-6.141,9.258-9.211.68-1.244,1.36-2.488,2.039-3.731,7.328-4.981,14.655-9.963,21.982-14.944.657.044,1.313.088,1.969.132.013,1.217.026,2.435.04,3.651-11.763,8.034-23.526,16.068-35.289,24.103Z"/><path class="cls-3" d="m203.417,112.028c9.252-6.745,18.503-13.49,27.754-20.234-2.926,17.311-10.769,23.028-27.754,20.234Z"/><path class="cls-69" d="m235.115,101.065c-3,6.871-4.969,14.49-9.276,20.411-4.75,6.529-14.595,4.893-18.875-1.855,17.789,1.051,20.42-.815,26.314-18.66.616.009,1.227.044,1.837.104Z"/><path class="cls-11" d="m171.944,110.144c-6.78,6.123-13.56,12.245-20.339,18.366-1.185.012-2.371.026-3.56.043,1.171-1.805,2.344-3.611,3.517-5.418,24.308-16.681-.449-18.688-18.632-23.969-5.518-4.968-11.037-9.935-16.555-14.903-1.246-4.923-2.491-9.846-3.737-14.769,1.23,1.239,2.46,2.478,3.69,3.717,13.265,23.128,33.765,31.404,60.311,27.218-2.116,4.379-3.405,7.047-4.694,9.714Z"/><path class="cls-21" d="m116.374,84.263c5.518,4.968,11.037,9.935,16.556,14.902,4.4,3.668,8.258,9.002,13.316,10.647,9.603,3.122,10.815,4.455,5.315,13.323-1.173,1.807-2.347,3.613-3.517,5.418-1.315.614-2.633,1.23-3.951,1.847.002-1.803.004-3.607.007-5.411,1.319-2.275,2.637-4.55,3.873-6.684-12.946-9.172-28.342-17.224-36.613-31.228-5.355-9.065-13.069-31.902-2.441-39.783-.481,2.991-1.135,5.967-1.412,8.977-.971,10.548-1.096,20.881,8.868,27.991Z"/><path class="cls-66" d="m144.1,124.989c-.002,1.804-.004,3.609-.007,5.411-8.086,4.358-16.173,8.718-24.257,13.078-5.014-.572-10.885.298-14.851-2.048-6.194-3.664-11.097-9.507-16.546-14.428-1.088-3.763-2.177-7.526-3.266-11.288,1.105-.586,2.211-1.173,3.317-1.759.614.612,1.228,1.224,1.842,1.836,7.445,24.999,26.654,30.556,44.544,12.887,4.688-6.52-.157-10.497-3.963-14.722-1.718-1.908-3.534-3.728-5.305-5.588,10.001,1.278,14.418,8.759,18.492,16.622Z"/><path class="cls-29" d="m88.44,127.003c5.45,4.92,10.353,10.763,16.546,14.427,3.965,2.346,9.836,1.476,14.851,2.048-2.38,1.288-4.758,2.577-7.135,3.867-.667.115-1.335.23-2.005.347-2.502-.722-5.004-1.446-7.503-2.172-2.404-2.229-5.162-4.186-7.132-6.748-2.84-3.692-5.109-7.824-7.621-11.768Z"/><path class="cls-31" d="m123.801,160.261c1.769,1.823,3.386,5.027,5.331,5.24,10.542,1.156,21.166,1.572,31.762,2.245-.082.543-.131,1.088-.145,1.637-1.83.029-3.659.057-5.489.086h-40.194c4.489,4.836,7.457,8.034,10.425,11.234-6.76-3.732-13.519-7.466-20.278-11.199,6.196-3.08,12.392-6.162,18.588-9.243Z"/><path class="cls-71" d="m88.745,158.257c-2.513-4.956-5.025-9.913-8.927-17.609,9.556,3.453,16.575,5.989,23.595,8.526,3.809,3.97,2.619,6.918-1.88,9.19-4.263-.035-8.525-.071-12.788-.107Z"/><path class="cls-72" d="m88.49,113.955c-1.105.586-2.211,1.173-3.318,1.759-.756-1.191-1.511-2.381-2.265-3.573,0-18.793,0-37.586,0-56.379-1.434-.235-2.867-.469-4.301-.704-2.912,7.244-5.825,14.487-8.738,21.731-1.165,2.498-2.33,4.995-3.495,7.493-.774,2.497-1.548,4.994-2.687,8.669-.987-5.037-1.702-8.683-2.415-12.328,4.175-25.098,17.754-44.25,39.031-57.253,9.868-6.03,21.688-8.871,32.623-13.158,5.529,1.171,11.058,2.341,16.587,3.512-1.178.14-2.357.28-3.535.42,0,0,.008-.534.008-.534-17.453-.56-38.536,15.739-42.486,34.14-5.306,24.713-1.071,46.171,22.108,60.617,1.772,1.86,3.587,3.681,5.305,5.588,3.806,4.225,8.651,8.202,3.963,14.723-11.339-19.718-28.119-28.95-37.054-51.8,0-9.414,0-18.829,0-29.165-20.795-2.452-13.137,55.445-9.333,66.242Z"/><path class="cls-79" d="m145.979,14.145c1.178-.14,2.357-.28,3.536-.419,5.52-.828,11.04-1.657,16.559-2.486.027-.663.055-1.326.082-1.989-10.448-.314-20.897-.627-31.345-.941,16.89-4.404,33.027-1.592,48.784,5.028,2.228.936,4.548,1.653,6.826,2.471,0,0,.009.008.009.008-.638,1.25-1.277,2.5-1.915,3.75-3.046-.65-6.093-1.3-9.139-1.95-7.803-1.596-15.607-3.191-23.41-4.787-.169.882-.338,1.763-.507,2.645,3.19,1.073,6.38,2.146,11.694,3.934-9.792,2.258-17.333,3.996-24.875,5.735-10.435,2.133-17.708,7.771-20.448,18.429-1.85,2.541-5.024,4.95-5.296,7.65-.731,7.263-.223,14.651-.208,21.989-1.23-1.239-2.46-2.478-3.69-3.718-3.277-33.102,16.976-47.459,37.371-50.546-1.419-1.692-2.724-3.248-4.029-4.803Z"/><path class="cls-47" d="m134.812,8.31c10.448.314,20.897.627,31.345.941-.027.663-.055,1.326-.082,1.989-5.519.829-11.039,1.658-16.559,2.486-5.53-1.172-11.059-2.342-16.588-3.513.628-.634,1.257-1.269,1.885-1.903Z"/><path class="cls-63" d="m188.516,19.567c.638-1.25,1.277-2.5,1.915-3.75,12.935,6.289,25.319,13.555,32.314,26.645,2.026,3.792.774,9.333,1.025,14.072-5.509-4.204-6.147-14.105-15.972-14.299,1.116,8.694,2.126,16.567,3.008,23.444,4.421,1.463,8.667,2.869,13.918,4.607.3-2.941.564-5.534.828-8.126,1.235,2.964,2.47,5.928,3.703,8.889-3.685,3.183-7.369,6.369-11.053,9.556-.657-.044-1.313-.088-1.968-.131-3.225-4.438-4.781-12.821-12.99-5.49-3.044,2.442-6.088,4.884-9.133,7.326-1.275-.609-2.55-1.218-3.824-1.826,1.931-2.367,3.862-4.734,5.793-7.101,2.399-1.341,4.798-2.681,7.197-4.022,6.606-5.64,4.526-12.52,2.081-18.918-2.609-6.827-6.215-13.272-9.386-19.884,3.186,1.874,6.372,3.748,10.544,6.203q-1.558-8.555-18.002-17.193Z"/><path class="cls-28" d="m225.553,62.16c-.264,2.593-.528,5.185-.828,8.126-5.251-1.738-9.497-3.143-13.918-4.607-.882-6.877-1.892-14.75-3.008-23.444,9.825.193,10.462,10.095,15.972,14.299.594,1.875,1.188,3.75,1.783,5.626Z"/><path class="cls-57" d="m173.676,136.066c3.71-1.848,7.42-3.696,11.13-5.544,6.091-1.499,12.182-2.998,18.273-4.498-.054-.9-.107-1.799-.161-2.699,3.61,2.083,7.219,4.166,12.624,7.284-11.325,9.632-21.941,18.662-32.558,27.691-11.929,5.151-24.01,4.798-36.153,2.207-.408-.995-.816-1.989-1.223-2.983,11.058-6.54,19.165-12.186,28.069-21.458Z"/><path class="cls-82" d="m173.525,167.349c.129-1.104.257-2.207.386-3.31,1.143-.088,2.285-.177,3.427-.267,8.284-1.217,11.473-.677,19.101,2.806-3.03,4.846-4.162,7.973-9.427,10.414-.276-2.68-.553-5.36-.909-8.803-4.311-.288-8.444-.564-12.577-.84Z"/><path class="cls-23" d="m155.26,169.469c1.83-.028,3.66-.057,5.489-.086,6.563,0,13.126,0,20.256,0-2.323,23.678-43.386,13.74-54.869,5.12,11.101-1.919,20.112-3.476,29.123-5.034Z"/><path class="cls-36" d="m82.907,112.141c.754,1.191,1.509,2.382,2.265,3.572,1.091,3.762,2.18,7.524,3.268,11.288,2.512,3.945,4.78,8.077,7.62,11.769,1.971,2.562,4.728,4.519,7.132,6.748-16.987-4.107-22.944-22.626-29.505-36.541-.916.224-1.833.447-2.749.671.337,6.344.674,12.689,1.011,19.033-1.305-3.658-2.61-7.316-3.917-10.973.09-10.482.181-20.964.271-31.447,1.712-.978,3.425-1.956,5.966-3.405,2.72,9.078,4.791,18.173,6.812,27.438.608.616,1.216,1.231,1.824,1.847Z"/><path class="cls-15" d="m81.083,110.295c-2.021-9.265-4.092-18.36-6.812-27.438-2.54,1.449-4.254,2.427-5.966,3.405-.643-.659-1.287-1.319-1.93-1.98,1.166-2.498,2.33-4.995,3.497-7.492,2.231-1.406,4.46-2.813,7.728-4.876,1.223,13.479,2.353,25.929,3.483,38.38Z"/><path class="cls-48" d="m121.831,43.573c2.741-10.658,10.013-16.296,20.448-18.43-7.227,6.771-15.064,12.593-19.075,22.59-4.335,10.802,2.097,31.319,13.477,34.766,12.028,10.019,25.069,15.538,40.787,9.165,5.595,1.25,11.189,2.501,16.784,3.751-.679,1.244-1.359,2.487-2.039,3.731-2.444.607-4.886,1.213-7.329,1.82-13.138-9.743-33.124-1.862-48.57-12.115-15.373-10.205-22.988-27.904-14.483-45.278Z"/><path class="cls-44" d="m121.831,43.573c-8.505,17.374-.891,35.073,14.483,45.278,15.445,10.253,35.431,2.373,48.57,12.115-4.313,3.06-8.627,6.119-12.94,9.178,1.289-2.668,2.578-5.336,4.694-9.715-26.546,4.186-47.046-4.09-60.311-27.218-.016-7.338-.524-14.726.208-21.989.272-2.7,3.446-5.108,5.296-7.65Z"/><path class="cls-59" d="m194.251,95.416c-5.595-1.25-11.189-2.501-16.784-3.75,1.234-1.822,2.468-3.644,3.702-5.466,1.834-1.256,3.667-2.513,5.501-3.769,1.206-.649,2.412-1.299,3.617-1.948,1.275.609,2.55,1.218,3.824,1.828-1.571,1.781-3.143,3.561-4.714,5.341.473.685.945,1.369,1.418,2.054,1.837-.84,26.383-10.824,12.429-14.723,8.209-7.33,9.766,1.053,12.99,5.49-7.329,4.98-14.657,9.962-21.984,14.943Z"/><path class="cls-1" d="m145.979,14.145c1.305,1.556,2.61,3.112,4.029,4.803-20.395,3.087-40.647,17.444-37.371,50.546,1.245,4.923,2.491,9.846,3.737,14.769-9.963-7.111-9.839-17.443-8.867-27.992.277-3.01.931-5.986,1.412-8.977,9.998-18.257,19.824-23.082,37.068-33.684,0,0-.008.534-.008.534Z"/><path class="cls-74" d="m151.562,123.135c5.499-8.868,4.287-10.201-5.315-13.323-5.059-1.645-8.916-6.979-13.316-10.647,18.183,5.282,42.94,7.289,18.632,23.969Z"/><path class="cls-24" d="m145.987,13.611c-17.244,10.602-27.07,15.427-37.068,33.684-10.628,7.882-2.914,30.718,2.441,39.783,8.271,14.003,23.667,22.056,36.613,31.228-1.236,2.133-2.555,4.409-3.873,6.684-4.074-7.863-8.491-15.344-18.492-16.622-23.179-14.446-27.413-35.903-22.108-60.617,3.95-18.4,25.034-34.7,42.486-34.14Z"/><path class="cls-4" d="m97.823,76.878c8.934,22.85,25.714,32.082,37.053,51.8-17.89,17.669-37.099,12.111-44.543-12.888,6.193,4.921,12.386,9.842,18.578,14.763,4.301.671,8.601,1.342,12.894,2.012,4.558-19.132-21.645-30.55-24.005-50.105.008-1.861.015-3.722.023-5.582Z"/><path class="cls-60" d="m108.911,130.553c-6.192-4.921-12.385-9.842-18.578-14.763-.614-.612-1.228-1.224-1.843-1.836-3.805-10.796-11.464-68.693,9.332-66.241,0,10.336,0,19.751,0,29.165-.007,1.861-.015,3.721-.022,5.582-2.437-3.443-4.873-6.885-7.31-10.327-.892.138-1.785.277-2.677.415,0,12.274-1.333,24.869,3.896,36.465,4.243,9.409,12.454,13.034,17.203,21.54Z"/><path class="cls-65" d="m81.083,110.295c-1.13-12.45-2.26-24.901-3.483-38.38-3.267,2.062-5.497,3.469-7.728,4.876,2.911-7.245,5.824-14.488,8.736-21.732,1.434.235,2.867.469,4.301.704,0,18.793,0,37.586,0,56.379-.609-.615-1.217-1.231-1.825-1.846Z"/><path class="cls-40" d="m136.681,82.5c-11.38-3.447-17.812-23.964-13.477-34.766,4.011-9.997,11.848-15.819,19.075-22.59,7.542-1.738,15.083-3.477,24.875-5.734-5.314-1.788-8.504-2.861-11.694-3.934.169-.882.338-1.763.507-2.645,7.803,1.596,15.607,3.191,23.41,4.787-.137,1.187-.758,3.187-.336,3.438,5.559,3.311,11.264,6.376,16.933,9.502,3.171,6.612,6.777,13.058,9.386,19.884,2.445,6.397,4.524,13.278-2.08,18.919-1.102-6.809-1.606-13.783-3.422-20.397-5.062-18.429-24.437-29.262-44.725-22.108-4.776,2.05-10.098,3.358-14.185,6.349-4.47,3.272-7.799,8.1-11.625,12.25-1.24,3.968-2.767,7.873-3.666,11.917-2.439,10.972,8.143,16.391,11.025,25.129Z"/><path class="cls-25" d="m195.974,30.557c-5.669-3.126-11.374-6.191-16.933-9.502-.422-.251.199-2.251.336-3.438,3.047.649,6.093,1.299,9.139,1.949q16.444,8.638,18.002,17.193c-4.172-2.454-7.358-4.329-10.544-6.203Z"/><path class="cls-45" d="m190.288,80.482c-1.206.649-2.412,1.299-3.617,1.948-18.533.002-40.737,2.454-48.219-19.242-5.864-17.007,5.138-30.552,20.522-36.248,2.462-.007,4.923-.03,7.384-.018,22.279.11,38.926,26.135,29.722,46.46-1.931,2.367-3.862,4.734-5.793,7.101Zm-18.737-2.404c17.143,2.13,29.426-17.767,19.165-31.682-10.351-14.037-32.095-23.765-45.677-6.285-16.588,21.349,10.681,33.486,26.513,37.967Z"/><path class="cls-50" d="m196.081,73.381c9.204-20.325-7.443-46.35-29.722-46.46-2.461-.012-4.923.011-7.385.018-1.282-.028-2.563-.056-3.844-.084,20.29-7.153,39.665,3.68,44.726,22.108,1.817,6.614,2.321,13.588,3.422,20.397-2.4,1.339-4.799,2.68-7.198,4.021Z"/><path class="cls-83" d="m203.245,74.983c13.954,3.899-10.592,13.883-12.429,14.723-.473-.685-.945-1.369-1.418-2.054,1.571-1.78,3.142-3.56,4.714-5.341,3.044-2.443,6.088-4.885,9.133-7.327Z"/><path class="cls-83" d="m136.681,82.5c-2.881-8.738-13.463-14.156-11.025-25.129.899-4.044,2.425-7.948,3.665-11.917,3.757,32.993,18.423,42.889,51.848,40.745-1.234,1.822-2.468,3.645-3.702,5.466-15.717,6.372-28.758.853-40.787-9.166Z"/><path class="cls-7" d="m181.17,86.2c-33.425,2.144-48.091-7.752-51.848-40.745,3.827-4.15,7.155-8.978,11.625-12.249,4.087-2.991,9.408-4.299,14.185-6.349,1.28.027,2.561.055,3.843.083-15.383,5.697-26.385,19.242-20.521,36.249,7.481,21.697,29.686,19.244,48.219,19.242-1.834,1.256-3.668,2.513-5.502,3.769Z"/><path class="cls-75" d="m108.911,130.553c-4.748-8.506-12.96-12.132-17.203-21.54-5.229-11.596-3.896-24.191-3.896-36.465.892-.138,1.785-.277,2.677-.415,2.437,3.442,4.874,6.885,7.31,10.327,2.36,19.555,28.564,30.973,24.005,50.105-4.293-.67-8.594-1.341-12.894-2.012Z"/><path class="cls-84" d="m171.551,78.079c-15.831-4.481-43.101-16.618-26.513-37.967,13.582-17.48,35.326-7.751,45.677,6.285,10.262,13.915-2.021,33.812-19.165,31.682Z"/></svg>