<?xml version="1.0" encoding="UTF-8"?><svg id="Layer_1" xmlns="http://www.w3.org/2000/svg" viewBox="0 0 248.568 209.546"><defs><style>.cls-1{fill:#cb80b6;}.cls-2{fill:#b056a1;}.cls-3{fill:#762d75;}.cls-4{fill:#d18ebe;}.cls-5{fill:#8d2474;}.cls-6{fill:#912478;}.cls-7{fill:#89246f;}.cls-8{fill:#ad53a0;}.cls-9{fill:#8d2473;}.cls-10{fill:#a04598;}.cls-11{fill:#7c2778;}.cls-12{fill:#d28cbd;}.cls-13{fill:#ab529f;}.cls-14{fill:#be62a6;}.cls-15{fill:#782164;}.cls-16{fill:#8d378c;}.cls-17{fill:#7e2d7f;}.cls-18{fill:#8e378f;}.cls-19{fill:#8c358d;}.cls-20{fill:#9a3b92;}.cls-21{fill:#a62d89;}.cls-22{fill:#6c246f;}.cls-23{fill:#bd4097;}.cls-24{fill:#b63991;}.cls-25{fill:#b74297;}.cls-26{fill:#94328c;}.cls-27{fill:#8d2370;}.cls-28{fill:#cc79b2;}.cls-29{fill:#b455a0;}.cls-30{fill:#601e5e;}.cls-31{fill:#a4489b;}.cls-32{fill:#c96eac;}.cls-33{fill:#682563;}.cls-34{fill:#cd7ab2;}.cls-35{fill:#a64d9d;}.cls-36{fill:#b759a2;}.cls-37{fill:#6d276d;}.cls-38{fill:#9d267e;}.cls-39{fill:#bc3e96;}.cls-40{fill:#84236b;}.cls-41{fill:#6b2769;}.cls-42{fill:#5f1f5d;}.cls-43{fill:#a42587;}.cls-44{fill:#a32380;}.cls-45{fill:#5b164d;}.cls-46{fill:#cd6baa;}.cls-47{fill:#bc3994;}.cls-48{fill:#c36eac;}.cls-49{fill:#c069aa;}.cls-50{fill:#9f4197;}.cls-51{fill:#a64298;}.cls-52{fill:#c056a0;}.cls-53{fill:#8e2f89;}.cls-54{fill:#c4539f;}.cls-55{fill:#b02489;}.cls-56{fill:#993892;}.cls-57{fill:#bc65a8;}.cls-58{fill:#9c4197;}.cls-59{fill:#853283;}.cls-60{fill:#a62488;}.cls-61{fill:#cf7ab2;}.cls-62{fill:#6f1e5e;}.cls-63{fill:#8d2472;}.cls-64{fill:#b43a94;}.cls-65{fill:#ab2388;}.cls-66{fill:#8b2675;}</style></defs><path class="cls-46" d="m70.889,209.413c-1.043.044-2.085.088-3.129.133-1.242-4.494,3.077-12.246-6.842-11.655-3.821-1.629-7.643-3.258-11.464-4.887v-19.357c5.051,5.618,8.239,9.165,11.427,12.711,2.717.234,5.93,1.487,8.037.465,3.243-1.573,5.728-4.707,8.534-7.179,4.583-2.604,7.069-5.55,1.601-9.794.579-1.123,1.158-2.246,1.737-3.368,6.58,1.102,13.16,2.203,19.74,3.305,1.584,11.175-22.028,3.83-20.395,20.345,2.93-.214,5.856-.427,8.782-.641-1.505,1.745-3.01,3.49-4.515,5.234-1.216,1.603-2.431,3.206-3.647,4.809-3.288,3.293-6.577,6.586-9.865,9.879Z"/><path class="cls-34" d="m80.789,166.481c-.579,1.123-1.158,2.246-1.736,3.368-5.782-1.637-8.493-5.434-13.851-7.466-3.781-1.434-13.261-.401-14.941-2.615,1.841-1.341,3.681-2.682,6.017-4.383-7.66-12.825-19.273-55.211-38.977-48.182.774,2.955,1.548,5.913,2.631,10.049-4.812-3.325-8.384-5.794-11.956-8.262-4.26-2.853-8.589-14.532-7.904-13.61,4.958,5.046,24.688,6.549,30.327,1.725,6.257-5.353,5.085-26.15,8.167-34.08,5.628-14.481,6.998-22.031,6.458-37.378-.351-9.994-1.056-17.871,11.109-13.657-2.461,9.158-12.578,17.207-4.788,28.703,5.512-5.761,6.729-7.63,14.565-7.513-15.895,21.79-33.521,39.893-21.262,67.53-1.115,2.698-2.23,5.397-3.346,8.095.36,4.076.013,8.371,1.198,12.192,6.346,20.463,20.858,34.239,38.29,45.483Z"/><path class="cls-23" d="m24.754,158.577c-.594-.622-1.189-1.244-1.783-1.867.458-3.738.866-7.483,1.381-11.212,1.461-10.571,1.46-20.615-9.348-26.924-2.342-3.195-4.683-6.389-7.027-9.584,3.57,2.468,7.142,4.937,11.954,8.262-1.083-4.136-1.857-7.093-2.631-10.048,19.705-7.029,31.318,35.357,38.978,48.181-2.335,1.701-4.176,3.042-6.017,4.383,1.68,2.213,11.16,1.181,14.941,2.615,5.358,2.032,8.069,5.829,13.851,7.466,5.468,4.245,2.982,7.191-1.601,9.795.35-1.802.701-3.604.747-3.844-13.182-5.117-37.874-21.331-51.954-17.436-.513-.042-1.01.029-1.491.213Zm10.288-19.956c-1.069.282-2.138.564-3.207.847-1.312,10.033.307,9.211,9.968,12.412.56-.909,1.12-1.817,1.68-2.726-2.814-3.511-5.627-7.022-8.441-10.533Z"/><path class="cls-14" d="m80.789,166.481c-17.431-11.243-31.943-25.02-38.29-45.482-1.185-3.821-.838-8.116-1.198-12.191,2.997-1.78,5.995-3.56,9.427-5.598,3.008,26.291,12.219,41.42,33.391,58.355,3.152-.169,6.322-.182,9.453-.54,7.253-.829,14.487-1.825,21.73-2.754-3.889,2.625-7.86,5.143-11.609,7.955-.892.669-1.043,2.325-1.536,3.526-.543.017-1.086.028-1.629.034-6.58-1.102-13.16-2.203-19.74-3.305Z"/><path class="cls-60" d="m26.245,158.365c14.08-3.895,38.771,12.319,51.954,17.436-.047.24-.397,2.042-.747,3.844-2.807,2.472-5.291,5.606-8.534,7.179-2.107,1.022-5.319-.231-8.036-.466-3.277-5.426-6.555-10.851-9.834-16.276-.66.292-1.321.583-1.981.875-.915,4.002-1.83,8.004-2.746,12.006-1.377-5.469-.506-12.946-4.213-17.279-3.339-3.902-11.178-4.79-15.863-7.318Z"/><path class="cls-44" d="m84.401,194.725c1.505-1.745,3.01-3.49,4.516-5.234,1.134-.508,2.267-1.017,3.399-1.526,26.373-.005,52.747-.01,79.12-.015-4.074,1.211-8.08,2.791-12.236,3.566-13.976,2.606-27.901,8.471-42.19,1.293-8.932-1.743-17.921-4.383-26.358,1.669-2.084.082-4.168.165-6.252.247Z"/><path class="cls-54" d="m92.316,187.966c-1.133.508-2.265,1.017-3.399,1.525-2.927.213-5.854.427-8.783.64-1.633-16.515,21.98-9.17,20.395-20.345.543-.006,1.086-.017,1.629-.033.56,1.656,1.12,3.312,1.68,4.968,1.268,1.637,2.234,4.177,3.868,4.725,3.467,1.163,7.282,1.29,10.954,1.841-9.212.53-19.377-2.69-26.345,6.678Z"/><path class="cls-15" d="m84.401,194.725c2.084-.083,4.168-.165,6.252-.247,2.738-.547,5.475-1.093,8.213-1.639,10.253,4.34,20.637,1.648,29.752,8.151-9.909-1.076-19.819-2.152-29.728-3.228-6.045.591-12.089,1.182-18.134,1.773,1.215-1.603,2.431-3.206,3.646-4.809Z"/><path class="cls-23" d="m49.454,193.004c-1.045-3.348-2.089-6.695-3.133-10.043.916-4.002,1.831-8.004,2.747-12.006.66-.292,1.321-.583,1.981-.875,3.278,5.425,6.556,10.85,9.834,16.276-3.189-3.545-6.377-7.092-11.428-12.71v19.357Z"/><path class="cls-62" d="m98.889,197.761c9.909,1.076,19.819,2.152,29.727,3.229,2.132-.227,4.311-.248,6.39-.715,15.926-3.58,31.833-7.247,47.745-10.887-10.944,3.337-21.888,6.675-32.832,10.012-17.651,2.491-34.168,5.6-51.031-1.639Z"/><path class="cls-63" d="m184.481,181.127c-.046,1.648-.092,3.297-.139,4.944-.53,1.105-1.059,2.213-1.588,3.318-15.914,3.639-31.821,7.306-47.747,10.886-2.079.467-4.258.488-6.39.715-9.114-6.504-19.497-3.812-29.751-8.152,6.049-.01,12.097-.019,18.145-.029,14.288,7.178,28.214,1.313,42.19-1.293,4.156-.775,8.161-2.355,12.235-3.566,3.17-1.193,6.341-2.386,9.511-3.578,1.178-1.082,2.356-2.163,3.534-3.245Z"/><path class="cls-52" d="m164.98.291c-1.132,1.353-2.471,2.583-3.36,4.081-3.934,6.626,3.45,11.315,3.1,17.359-6.595-2.767-13.13-5.69-19.807-8.241-3.702-1.414-7.642-2.207-11.475-3.279,3.454.31,6.93.471,10.358.962,6.446.923,11.07-.888,12.637-7.775.402-1.749,9.561-4.256,8.548-3.107Z"/><path class="cls-66" d="m247.066,89.089c-19.968.452-24.051,9.104-16.301,27.794-1.649-.009-3.297-.019-4.946-.027-6.34-8.669-4.223-17.391-.159-26.124,4.985-1.656,9.97-3.311,14.955-4.967,2.651-.105,5.302-.21,7.953-.315-.501,1.213-1.001,2.426-1.502,3.64Z"/><path class="cls-40" d="m212.546,51.267c8.628,19.579,11.017,22.972,32.855,23.128.634,1.006,1.269,2.012,1.903,3.017-1.155.068-2.309.136-3.463.204-4.346.061-8.692.123-13.04.183-5.958.735-14.249,5.458-12.302-7.315.117-.765-1.729-1.829-2.662-2.754-1.097-5.488-2.194-10.976-3.291-16.464Z"/><path class="cls-61" d="m243.841,77.616c1.154-.068,2.308-.136,3.463-.204.422,2.681.842,5.361,1.263,8.04-2.651.103-5.302.208-7.954.314-2.4-1.466-4.8-2.932-9.371-5.726,5.446-1.048,9.022-1.736,12.599-2.424Z"/><path class="cls-64" d="m156.432,3.398c-1.567,6.887-6.19,8.698-12.636,7.775-3.428-.491-6.904-.652-10.358-.963-18.777-.153-56.441-1.239-65.849,19.658.006.495.007.991.004,1.486-.061.634-.123,1.269-.184,1.903-.499-.035-.999-.06-1.5-.076-7.836-.117-9.052,1.752-14.565,7.513-7.789-11.497,2.327-19.545,4.788-28.703-12.165-4.214-11.46,3.662-11.109,13.657.539,15.346-.83,22.896-6.458,37.378-3.082,7.931-1.91,28.727-8.167,34.08-5.639,4.824-25.369,3.322-30.327-1.725,1.581.189,3.163.381,4.744.574,19.486,5.963,19.009-17.673,23.31-30.829,3.17-9.696,9.106-18.533,11.895-28.17,2.686-9.281,1.352-20.304,1.372-29.882,2.666-.634,5.331-1.268,7.997-1.903,20.666,6.212,28.824,2.775,49.033-2.047,19.352-4.618,38.516-1.285,58.009.273Z"/><path class="cls-31" d="m84.12,161.564c-21.172-16.935-30.384-32.063-33.391-58.355-3.432,2.038-6.43,3.819-9.427,5.598,1.116-2.699,2.231-5.398,3.345-8.097,1.568-1.134,3.138-2.267,4.709-3.399,1.911-.196,3.821-.393,6.734-.693-2.238,11.279,13.259,19.478,4.501,32.505,1.737.424,3.484.85,5.23,1.277,3.307,1.083,6.613,2.166,9.921,3.248-1.196,6.876,2.599,10.754,8.398,12.783,4.746,1.66,9.79,2.469,14.701,3.655,1.105.625,2.209,1.25,3.314,1.876-6.011,3.201-12.023,6.402-18.034,9.602Z"/><path class="cls-36" d="m49.354,97.311c-1.57,1.133-3.139,2.266-4.708,3.4-12.257-27.636,5.369-45.74,21.264-67.53.5.015,1,.041,1.501.075,4.116,4.685,2.424,7.158-3.115,8.164-8.618,12.593-21.376,22.797-20.225,40.739.354,5.512-1.15,10.058,5.495,11.953-.071,1.066-.142,2.132-.213,3.198Z"/><path class="cls-6" d="m15.004,118.575c10.809,6.309,10.809,16.353,9.348,26.924-.515,3.73-.924,7.474-1.381,11.212-.514-.928-1.557-1.915-1.461-2.775,1.394-12.46-1.379-24.119-6.507-35.361Z"/><path class="cls-65" d="m35.042,138.621c2.814,3.511,5.627,7.022,8.441,10.533-.56.909-1.12,1.817-1.68,2.726-9.661-3.2-11.28-2.379-9.968-12.412,1.069-.282,2.138-.564,3.207-.847Z"/><path class="cls-25" d="m84.119,161.564c6.011-3.201,12.023-6.402,18.035-9.604,2.164-.674,4.327-1.346,6.491-2.018,7.163-2.184,14.324-4.368,21.486-6.551,7.728-6.185,16.608-7.804,26.187-6.515,7.06.95,12.013-1.818,14.988-8.235,3.251-2.349,2.83-10.217,10.015-6.653,1.613-.529,3.226-1.058,4.839-1.588,7.327,3.706,8.311-5.335,13.189-6.553-4.473,14.083-4.546,15.119-17.972,19.633-4.444,1.494-17.997,2.594-16.548,8.309-.006.561-.013,1.122-.019,1.683-1.667,1.106-3.333,2.211-5,3.317-.535-.015-1.069-.021-1.604-.018-.54-1.645-1.081-3.29-1.621-4.935-16.645-6.051-22.108,9.01-36.412,12.75,2.459,1.811,3.723,2.742,4.987,3.674-3.286.003-6.572.006-9.859.009-7.242.928-14.476,1.924-21.729,2.753-3.131.358-6.301.37-9.453.539Z"/><path class="cls-2" d="m164.81,143.474c.006-.561.013-1.122.018-1.683,3.8.879,7.602,1.758,12.464,2.883-4.393,6.085-7.938,10.996-10.256,14.207-6.004,2.038-30.013,5.497-30.072,12.9-6.795,0-28.927-3.524-33.127,2.941-.56-1.656-1.12-3.312-1.681-4.968.492-1.202.643-2.858,1.535-3.527,3.749-2.812,7.72-5.33,11.609-7.955,3.286-.003,6.572-.006,9.859-.009,1.644,2.364,3.155,4.841,5.034,6.999.401.461,2.135-.237,3.255-.401,3.413-1.638,6.714-3.597,10.264-4.847,6.789-2.39,13.647-4.456,14.492-13.241.535-.004,1.07.002,1.604.017,1.243,3.508,2.486,7.017,3.729,10.525.991-.178,1.981-.356,2.972-.535-.567-4.436-1.134-8.872-1.701-13.307Z"/><path class="cls-47" d="m180.947,184.371c-3.171,1.193-6.341,2.385-9.511,3.578-26.373.005-52.746.01-79.119.015,6.969-9.367,17.133-6.148,26.345-6.677,12.384-.124,21.62-5.709,32.958-7,10.359-1.179,19.856,6.831,29.327,10.083Z"/><path class="cls-9" d="m117.011,192.809c-6.048.01-12.097.019-18.145.029-2.738.547-5.475,1.093-8.213,1.64,8.438-6.051,17.427-3.412,26.358-1.669Z"/><path class="cls-32" d="m180.947,184.371c-9.471-3.252-18.968-11.263-29.327-10.083-11.339,1.291-20.574,6.875-32.958,7-3.672-.552-7.488-.678-10.954-1.841-1.635-.549-2.6-3.088-3.868-4.725,4.2-6.464,26.332-2.941,33.127-2.941.059-7.403,24.067-10.862,30.072-12.9,2.317-3.21,5.863-8.122,10.256-14.207-4.862-1.125-8.664-2.004-12.464-2.883-1.448-5.715,12.105-6.815,16.549-8.31,13.426-4.514,13.499-5.55,17.972-19.634-2.271-17.968-3.103-34.862-6.586-52.68,10.348,15.766,11.629,33.456,8.737,52.032,1.494-.11,2.988-.219,4.482-.329v-25.429c.538,6.915,1.303,13.822,1.558,20.747.335,9.125,2.142,10.392,11.661,7.392,2.206.425,4.412.849,6.618,1.274,1.648.01,3.297.019,4.946.028.577,1.158,1.154,2.317,1.731,3.475-2.7,1.168-5.401,2.337-8.103,3.504-15.983,5.453-23.997,8.284-34.109,21.756-4.11,5.475-7.083,11.507-12.608,15.86-4.186,3.298-9.492,4.157-12.821,8.313,5.931,8.446,12.407,5.301,19.78,10.081-.032.421-.083.839-.154,1.255-1.178,1.081-2.356,2.162-3.534,3.244Z"/><path class="cls-47" d="m184.634,179.873c-7.373-4.78-13.849-1.635-19.78-10.081,3.328-4.155,8.635-5.015,12.821-8.313,5.525-4.353,8.498-10.385,12.608-15.86,10.113-13.472,18.127-16.304,34.109-21.756-.652.486-1.307.971-1.961,1.456-1.81,1.371-3.676,2.672-5.419,4.123-8.721,7.261-4.524,18.293-7.879,27.127-6.606,5.082-13.408,9.936-19.711,15.369-2.224,1.917-3.227,5.25-4.787,7.936Z"/><path class="cls-5" d="m209.133,156.568c3.356-8.834-.842-19.865,7.879-27.127,1.742-1.451,3.609-2.752,5.419-4.123-3.461,9.533-6.867,19.087-10.46,28.571-.414,1.094-1.867,1.795-2.838,2.678Z"/><path class="cls-39" d="m219.201,115.581c-9.518,3-11.325,1.732-11.661-7.392-.255-6.925-1.02-13.832-1.558-20.746-.269-2.687-.333-5.414-.837-8.057-4.815-25.264-19.969-43.323-40.425-57.655.349-6.045-7.034-10.733-3.1-17.359.889-1.497,2.228-2.728,3.358-4.08.15,2.263.302,4.526.449,6.708h19.027c.468,1.65.936,3.3,1.406,4.949,1.76,5.957,3.519,11.914,5.277,17.873,2.101,13.712,11.266,31.783,21.48,41.178.935.93,2.317,1.694,2.732,2.816,3.18,8.596,7.611,9.789,15.454,3.986,4.346-.061,8.692-.123,13.039-.184-3.576.688-7.152,1.376-12.598,2.424,4.571,2.793,6.971,4.26,9.371,5.726-4.984,1.655-9.969,3.311-14.954,4.967-9.891,5.267-5.291,15.713-8.29,23.447-.078.201,1.19.923,1.831,1.402Z"/><path class="cls-28" d="m164.72,21.731c20.456,14.332,35.61,32.39,40.425,57.655.504,2.643.568,5.369.837,8.057,0,8.476,0,16.952,0,25.428-1.494.11-2.988.219-4.482.329,2.892-18.576,1.611-36.267-8.737-52.032-10.377-17.054-22.414-32.453-41.141-41.176-32.825-7.582-53.076-.975-84.033,9.877,9.408-20.897,47.071-19.811,65.849-19.658,3.833,1.073,7.772,1.866,11.474,3.28,6.677,2.551,13.213,5.474,19.807,8.241Z"/><path class="cls-27" d="m191.136,29.82c-1.758-5.957-3.517-11.915-5.277-17.872.624.823,1.629,1.567,1.816,2.479,1.717,8.357,6.33,13.84,14.938,15.541-.554,1.896-1.932,5.232-1.533,5.46,3.097,1.768,3.911,9.373,9.867,4.302.49.023.979.059,1.466.108.043,3.81.088,7.62.133,11.429,1.097,5.488,2.194,10.976,3.291,16.464-4.789-10.13-7.12-21.853-18.147-27.937-2.185-3.325-4.369-6.649-6.554-9.974Z"/><path class="cls-24" d="m210.947,39.73c-5.956,5.071-6.77-2.534-9.867-4.302-.399-.228.978-3.564,1.533-5.46,2.778,3.254,5.556,6.508,8.334,9.762Z"/><path class="cls-43" d="m219.201,115.581c-.64-.479-1.909-1.201-1.831-1.402,2.999-7.733-1.602-18.179,8.29-23.447-4.064,8.733-6.181,17.454.158,26.123-2.206-.426-4.411-.85-6.617-1.275Z"/><path class="cls-38" d="m197.69,39.793c11.027,6.084,13.358,17.808,18.147,27.937.933.925,2.779,1.988,2.662,2.753-1.946,12.773,6.344,8.05,12.302,7.315-7.842,5.804-12.273,4.612-15.453-3.984-.415-1.122-1.798-1.886-2.733-2.816-3.823-8.975-4.626-19.457-13.386-26.004-1.161-.868-1.057-3.426-1.539-5.201Z"/><path class="cls-56" d="m64.296,41.421c5.539-1.007,7.231-3.479,3.115-8.164.059-.634.121-1.268.182-1.901,3.838,1.17,7.676,2.338,11.513,3.507.787.994,1.573,1.989,2.646,3.346-2.762,1.101-5.087,2.028-5.804,2.314,0,9.302.876,16.534,3.251,25.525,6.561,0,13.123.002,19.684.003-2.89,1.053-5.779,2.105-8.694,3.166,4.069,8.909,6.429,9.218,12.211,1.897-.057,3.81-.113,7.62-.17,11.431-.031,2.241-.062,4.482-.093,6.724-1.138,4.289-2.275,8.577-3.413,12.866-.521,1.11-1.043,2.22-1.565,3.33-10.254-4.874-30.042-19.521-26.089-32.522,1.96-1.327,3.922-2.652,6.516-4.405-2.829-1.599-4.868-2.752-6.908-3.905-.252-6.465,2.183-13.413-2.126-19.147-.88.111-1.759.221-2.639.332.591,6.247,1.182,12.493,1.772,18.74-4.385,7.199-8.769,14.398-13.154,21.596-5.545-7.977-1.111-16.165.478-23.775,1.527-7.313,6.069-13.998,9.286-20.958Zm32.391,53.798c.684-.165,1.368-.33,2.052-.495,0-10.193-1.644-24.569-11.176-9.255,3.367,3.598,6.246,6.674,9.124,9.75Z"/><path class="cls-36" d="m98.884,66.05c-6.561,0-13.123-.002-19.685-.002,3.002-13.062,8.489-20.081,18.079-29.032,3.233-3.017,1.745-5.488,6.03-8.127,4.34-2.673,16.631-3.441,21.252-4.468-.167-.88-.335-1.759-.502-2.639-16.545,1.211-30.554,4.666-44.951,13.08-3.838-1.168-7.676-2.336-11.513-3.507.004-.497.003-.992-.004-1.488,30.958-10.853,51.208-17.46,84.033-9.877l-.091.082c-6.029,4.347-12.058,8.693-18.087,13.041-2.68,2.828-5.36,5.655-8.04,8.482-1.52-3.476-3.04-6.952-4.499-10.288-15.921,9.812-20.967,12.921-28.452,30.246,3.316,1,6.631,1.999,9.947,2.999-1.172.5-2.344.999-3.516,1.498Z"/><path class="cls-17" d="m71.072,72.944c-3.954,12.999,15.835,27.646,26.089,32.522-9.853,4.718-18.413-4.903-27.229-10.28-11.267,18.051,15.555,27.04,10.755,38.471-1.649-.002-3.299-.005-4.948-.007-3.307-1.083-6.613-2.165-9.918-3.249,2.353-.945,4.704-1.889,5.824-2.338-5.305-12.369-9.927-24.545-14.04-37.347,4.49-5.923,8.979-11.847,13.467-17.77Z"/><path class="cls-37" d="m108.645,149.942c-2.163.672-4.326,1.344-6.49,2.018-1.105-.624-2.21-1.249-3.314-1.875-4.4-4.919-8.801-9.837-13.201-14.757.917-2.423,1.834-4.844,2.751-7.266-.65.423-1.299.846-1.949,1.269-5.472-5.936-10.945-11.873-17.454-18.934,12.537-2.983,22.128-6.024,25.044,9.615,3.172,17.01-4.541,20.319,14.67,25.022-.019,1.636-.038,3.271-.058,4.907Z"/><path class="cls-19" d="m57.604,90.714c4.115,12.803,8.737,24.979,14.041,37.348-1.12.45-3.472,1.393-5.824,2.338-1.747-.425-3.494-.852-5.231-1.276,8.758-13.027-6.739-21.226-4.501-32.505-2.913.3-4.823.496-6.734.693.07-1.066.14-2.132.21-3.199,1.091-1.134,2.184-2.268,3.276-3.401,1.588,0,3.175.001,4.763.002Z"/><path class="cls-18" d="m85.639,135.33c4.401,4.918,8.801,9.837,13.202,14.756-4.912-1.186-9.956-1.995-14.702-3.655-5.799-2.028-9.595-5.906-8.398-12.783,1.649.003,3.298.006,4.948.007,1.651.558,3.3,1.116,4.95,1.674Z"/><path class="cls-29" d="m52.841,90.712c-1.092,1.134-2.185,2.267-3.276,3.401-6.645-1.895-5.141-6.441-5.495-11.953-1.151-17.943,11.608-28.146,20.225-40.739-3.217,6.961-7.759,13.645-9.286,20.958-1.589,7.609-6.023,15.798-.478,23.772-.564,1.519-1.127,3.039-1.691,4.56Z"/><path class="cls-36" d="m151.623,19.991c18.728,8.724,30.765,24.122,41.141,41.176,3.483,17.818,4.315,34.712,6.586,52.68-4.877,1.218-5.861,10.259-13.188,6.553-.566-1.067-1.131-2.134-1.696-3.202,3.099-10.151,6.198-20.301,9.407-30.811-2.928.308-4.643.489-7.776.819,6.203-9.875,2.333-17.946-1.613-26.008,4.381-17.806-29.771-28.431-32.952-41.125l.091-.082Z"/><path class="cls-59" d="m184.465,117.199c.566,1.067,1.131,2.135,1.697,3.202-1.613.529-3.226,1.058-4.84,1.588-2.215-3.562-4.429-7.124-7.048-11.337-3.536,7.27-6.538,13.442-9.54,19.613-3.847,1.091-7.694,2.182-11.541,3.272.022-1.08.045-2.161.067-3.241,14.681-3.878,11.835-16.278,13.948-28.095-7.679,3.103-17.381,9.684-25.44,6.63-.036-2.26-.072-4.52-.108-6.78-.562-2.128-1.123-4.256-1.685-6.384.545-1.669,1.089-3.338,1.635-5.005.931,4.489,1.862,8.976,2.551,12.302,7.168-2.573,11.147-3.982,17.261-8.862,10.536-.449,9.9,10.434,13.884,13.853,1.748-4.774,3.685-10.063,5.622-15.352.631-.058,1.262-.116,1.893-.174-.291,2.682.286,5.933-1.033,7.942-4.4,6.7-1.918,11.818,2.678,16.827Z"/><path class="cls-26" d="m133.451,164.86c-1.12.164-2.854.862-3.255.401-1.879-2.158-3.39-4.636-5.034-6.999-1.265-.931-2.53-1.863-4.988-3.674,14.304-3.74,19.767-18.801,36.412-12.751-2.273,9.256-11.046,10.33-17.815,12.74-6.197,2.207-7.44,4.819-5.319,10.283Z"/><path class="cls-7" d="m153.259,130.295c-.022,1.08-.045,2.161-.067,3.242-2.887.556-5.828,1.77-8.65,1.537-6.939-.573-12.118,1.183-14.41,8.316-7.162,2.184-14.323,4.368-21.486,6.551.018-1.636.037-3.271.057-4.906,2.214-1.623,4.427-3.248,6.64-4.872,8.219-2.258,16.437-4.516,24.656-6.774l8.336.093c.564-.538,1.127-1.076,1.691-1.614,1.078-.525,2.156-1.049,3.234-1.574Z"/><path class="cls-10" d="m133.451,164.86c-2.12-5.463-.878-8.076,5.319-10.283,6.769-2.41,15.542-3.484,17.815-12.74.541,1.645,1.081,3.29,1.621,4.935-.845,8.785-7.703,10.851-14.491,13.241-3.55,1.25-6.851,3.208-10.264,4.847Z"/><path class="cls-21" d="m130.132,143.391c2.292-7.133,7.471-8.889,14.41-8.316,2.822.233,5.764-.981,8.65-1.537,3.847-1.091,7.694-2.182,11.541-3.273,2.191-.541,4.382-1.082,6.573-1.624-2.976,6.416-7.929,9.184-14.988,8.235-9.578-1.289-18.458.33-26.187,6.515Z"/><path class="cls-20" d="m171.307,128.641c-2.191.541-4.382,1.083-6.573,1.624,3.002-6.172,6.003-12.343,9.54-19.613,2.619,4.214,4.833,7.776,7.048,11.337-7.184-3.565-6.764,4.303-10.015,6.652Z"/><path class="cls-10" d="m164.81,143.474c.567,4.436,1.134,8.872,1.701,13.307-.991.178-1.981.356-2.972.535-1.243-3.509-2.486-7.017-3.729-10.525,1.666-1.105,3.333-2.211,4.999-3.317Z"/><path class="cls-55" d="m197.69,39.793c.482,1.775.378,4.333,1.539,5.201,8.76,6.547,9.563,17.029,13.386,26.004-10.213-9.395-19.378-27.467-21.479-41.178,2.185,3.324,4.369,6.648,6.554,9.973Z"/><path class="cls-3" d="m115.343,140.164c-2.213,1.624-4.426,3.249-6.64,4.872-19.211-4.704-11.499-8.013-14.671-25.023-2.916-15.639-12.507-12.598-25.044-9.615,6.509,7.061,11.982,12.997,17.454,18.934.649-.423,1.299-.846,1.949-1.269-.917,2.422-1.834,4.844-2.751,7.266-1.65-.557-3.3-1.116-4.951-1.673,4.799-11.43-22.023-20.419-10.756-38.47,8.816,5.377,17.376,14.997,27.229,10.28.521-1.111,1.042-2.221,1.565-3.33-.767,4.512-1.534,9.023-2.179,12.815,12.405,0,30.492,5.066,41.715-1.222.073.619.144,1.236.214,1.853-.027,1.056-.053,2.113-.08,3.169-11.811,7.969-29.848-5.82-39.962,2.479-14.681,12.047,9.754,17.711,16.908,18.935Z"/><path class="cls-51" d="m79.106,34.863c14.397-8.414,28.406-11.869,44.951-13.08.167.88.335,1.759.502,2.639-4.621,1.027-16.912,1.795-21.252,4.468-4.285,2.639-2.797,5.109-6.03,8.127-9.589,8.951-15.077,15.97-18.079,29.032-2.374-8.992-3.25-16.224-3.25-25.526.717-.286,3.042-1.213,5.804-2.314-1.073-1.357-1.86-2.351-2.646-3.346Z"/><path class="cls-8" d="m141.608,90.661c-.545,1.669-1.089,3.338-1.633,5.007-10.948,5.602-22.919,3.78-35.079,3.78-.995-3.229-1.839-5.969-2.683-8.709-.034-.49-.059-.98-.074-1.471.031-2.241.062-4.482.092-6.724,5.618,8.138,27.769,10.117,37.757,3.373.541,1.581,1.08,3.162,1.62,4.743Z"/><path class="cls-17" d="m102.138,89.268c.015.491.04.981.074,1.471-.003,10.671-1.069,15.293,8.836,19.394,6.367,2.636,21.88,1.425,27.352-2.935-.046,2.177-.093,4.353-.14,6.529-11.221,6.289-29.308,1.223-41.713,1.223.645-3.792,1.413-8.303,2.179-12.815,1.137-4.29,2.274-8.579,3.412-12.867Z"/><path class="cls-57" d="m139.987,85.918c-9.987,6.744-32.138,4.765-37.756-3.373.057-3.81.114-7.62.169-11.43.412-.271.865-.402,1.359-.392.684,2.715.649,7.243,2.171,7.846,9.335,3.698,18.862,8.716,29.114,2.409,1.648,1.647,3.296,3.293,4.944,4.94Z"/><path class="cls-22" d="m103.759,70.721c-.494-.009-.948.123-1.36.393-5.781,7.32-8.14,7.012-12.209-1.898,2.915-1.061,5.804-2.114,8.694-3.166,1.172-.5,2.345-.999,3.515-1.499,1.117-.563,2.235-1.126,3.351-1.688,3.584-2.285,7.169-4.571,10.754-6.857,1.175,1.243,2.35,2.486,3.525,3.727.543.561,1.086,1.123,1.628,1.685-.45,1.049-.901,2.097-1.351,3.146-7.75-3.941-11.847,1.918-16.548,6.158Z"/><path class="cls-30" d="m52.841,90.712c.563-1.521,1.127-3.042,1.691-4.56,4.385-7.197,8.77-14.395,13.154-21.595.997.025,1.995.05,2.993.076,2.04,1.153,4.079,2.306,6.908,3.905-2.594,1.753-4.555,3.079-6.516,4.405-4.488,5.925-8.977,11.849-13.466,17.772-1.588-.001-3.176-.002-4.764-.002Z"/><path class="cls-35" d="m96.687,95.22c-2.878-3.076-5.757-6.152-9.124-9.75,9.531-15.314,11.176-.939,11.176,9.255-.684.165-1.368.33-2.052.495Z"/><path class="cls-11" d="m70.679,64.633c-.998-.026-1.996-.051-2.993-.076-.59-6.246-1.181-12.492-1.772-18.739.88-.111,1.759-.221,2.639-.332,4.309,5.734,1.875,12.682,2.126,19.147Z"/><path class="cls-13" d="m151.532,20.073c3.181,12.693,37.333,23.319,32.952,41.124-9.362-8.585-18.725-17.169-27.943-25.621-1.812,3.441-3.403,6.462-5.027,9.546,7.219,8.754,17.253-4.322,16.295,13.398-.651,12.052-14.992,37.017-27.729,22.357,9.693-5.205,14.894-18.819,10.131-28.987-2.373-5.067-6.71-9.215-10.158-13.778,1.258-3.956,2.516-7.912,3.703-11.646-3.226,2.079-6.769,4.363-10.313,6.647,6.029-4.347,12.058-8.693,18.088-13.04Z"/><path class="cls-48" d="m105.752,62.863c-1.118.563-2.236,1.125-3.353,1.688-3.314-.999-6.63-1.999-9.946-2.998,7.486-17.325,12.531-20.434,28.452-30.246,1.459,3.336,2.979,6.812,4.498,10.287-.628.986-1.254,1.973-1.881,2.961-.159-1.832-.319-3.664-.481-5.531-10.257,1.685-26.926,13.158-17.289,23.839Z"/><path class="cls-53" d="m123.522,44.555c.627-.987,1.253-1.975,1.881-2.961,2.681-2.826,5.361-5.653,8.041-8.481,3.543-2.284,7.086-4.568,10.312-6.647-1.187,3.733-2.445,7.689-3.703,11.646-7.784-2.954-8.702,4.168-11.829,8.048-2.732,4.525-5.463,9.05-8.195,13.575-1.175-1.243-2.35-2.486-3.522-3.729,2.34-3.817,4.678-7.634,7.015-11.451Z"/><path class="cls-50" d="m140.081,80.877c12.737,14.66,27.078-10.305,27.729-22.357.957-17.719-9.076-4.644-16.295-13.398,1.624-3.084,3.215-6.105,5.027-9.546,9.218,8.452,18.581,17.036,27.943,25.621,3.946,8.062,7.816,16.133,1.612,26.008,3.133-.33,4.848-.51,7.776-.819-3.209,10.511-6.307,20.661-9.407,30.811-4.597-5.009-7.078-10.126-2.678-16.827,1.319-2.008.742-5.26,1.034-7.942,1.899-.41,3.797-.819,4.05-.874-2.045-5.829-4.423-17.828-12.658-16.313-6.074,1.118-7.34,13.957-15.966,15.618,1.058,1.08,2.116,2.161,3.173,3.241-6.114,4.88-10.092,6.289-17.261,8.862-.69-3.326-1.62-7.814-2.551-12.302-.541-1.582-1.081-3.164-1.621-4.745-1.649-1.646-3.297-3.293-4.944-4.94-4.912-5.472-9.825-10.943-14.737-16.414.45-1.049.901-2.097,1.353-3.146,4.489,4.303,8.976,8.607,13.463,12.91,1.653,2.183,3.306,4.366,4.959,6.549Z"/><path class="cls-58" d="m138.4,107.198c-5.472,4.361-20.984,5.571-27.351,2.936-9.905-4.1-8.84-8.723-8.836-19.394.844,2.739,1.689,5.479,2.684,8.708,12.16,0,24.131,1.822,35.079-3.78.561,2.127,1.122,4.255,1.684,6.385-1.086,1.716-2.173,3.43-3.26,5.144Z"/><path class="cls-3" d="m153.259,130.295c-1.078.525-2.156,1.049-3.235,1.575,6.682-18.882-7.907-9.519-8.257-23.039,8.059,3.054,17.761-3.527,25.44-6.63-2.113,11.816.734,24.217-13.948,28.095Z"/><path class="cls-16" d="m158.248,90.862c8.626-1.661,9.892-14.501,15.966-15.618,8.235-1.515,10.612,10.484,12.658,16.313-.253.055-2.151.464-4.05.874-.632.058-1.263.116-1.892.173-7.559-.581-15.12-1.161-22.681-1.741Z"/><path class="cls-41" d="m141.767,108.831c.351,13.52,14.939,4.158,8.257,23.039-.563.537-1.126,1.075-1.69,1.614-3.286-5.967-6.572-11.935-9.857-17.902-.071-.618-.142-1.235-.215-1.854.045-2.177.091-4.353.138-6.53,1.087-1.715,2.173-3.429,3.259-5.145.035,2.258.072,4.518.108,6.778Z"/><path class="cls-42" d="m158.248,90.862c7.561.58,15.122,1.16,22.681,1.741-1.939,5.29-3.875,10.579-5.624,15.352-3.984-3.418-3.348-14.302-13.884-13.853-1.058-1.08-2.116-2.161-3.174-3.241Z"/><path class="cls-33" d="m115.343,140.164c-7.154-1.224-31.589-6.888-16.908-18.935,10.114-8.299,28.15,5.49,39.962-2.479.534,4.88,1.068,9.76,1.602,14.64-8.219,2.258-16.437,4.516-24.656,6.774Z"/><path class="cls-45" d="m139.998,133.39c-.534-4.88-1.068-9.76-1.602-14.64.026-1.057.053-2.114.08-3.17,3.286,5.969,6.571,11.937,9.858,17.903-2.778-.032-5.557-.063-8.335-.094Z"/><path class="cls-1" d="m120.306,64.564c4.913,5.471,9.825,10.943,14.737,16.414-10.252,6.307-19.78,1.289-29.115-2.409-1.522-.603-1.487-5.131-2.171-7.846,4.701-4.242,8.798-10.1,16.548-6.159Z"/><path class="cls-12" d="m135.122,74.328c-4.487-4.303-8.974-8.607-13.463-12.91-.544-.562-1.087-1.124-1.63-1.685,2.732-4.523,5.463-9.048,8.197-13.572,2.567,1.703,6.141,2.822,7.521,5.208,5.766,9.968,5.229,18.613-.625,22.959Z"/><path class="cls-4" d="m123.522,44.555c-2.338,3.817-4.675,7.633-7.015,11.451-3.588,2.287-7.173,4.572-10.757,6.858-9.635-10.682,7.035-22.154,17.291-23.84.162,1.867.322,3.699.481,5.531Z"/><path class="cls-49" d="m135.122,74.328c5.854-4.346,6.391-12.992.625-22.959-1.38-2.386-4.954-3.505-7.521-5.208,3.125-3.881,4.044-11.003,11.827-8.049,3.448,4.563,7.785,8.712,10.158,13.778,4.763,10.168-.438,23.783-10.131,28.987-1.653-2.183-3.306-4.366-4.959-6.549Z"/></svg>