<?xml version="1.0" encoding="UTF-8"?><svg id="Layer_1" xmlns="http://www.w3.org/2000/svg" viewBox="0 0 231.473 203.894"><defs><style>.cls-1{fill:#e1b3d3;}.cls-2{fill:#af73b1;}.cls-3{fill:#f6e6f0;}.cls-4{fill:#c78cbe;}.cls-5{fill:#f0d5e7;}.cls-6{fill:#cc93c2;}.cls-7{fill:#bb76b1;}.cls-8{fill:#fdfcfc;}.cls-9{fill:#e3bad7;}.cls-10{fill:#bf8fbf;}.cls-11{fill:#d4a1c9;}.cls-12{fill:#eed3e6;}.cls-13{fill:#e4beda;}.cls-14{fill:#8959a5;}.cls-15{fill:#bc75b1;}.cls-16{fill:#c293c2;}.cls-17{fill:#ddafd2;}.cls-18{fill:#dfb0d2;}.cls-19{fill:#d59bc5;}.cls-20{fill:#efd8e9;}.cls-21{fill:#d6afd1;}.cls-22{fill:#fbf5f7;}.cls-23{fill:#f1d8e8;}.cls-24{fill:#c37cb5;}.cls-25{fill:#bb7ab4;}.cls-26{fill:#f2dae9;}.cls-27{fill:#b778b3;}.cls-28{fill:#deaace;}.cls-29{fill:#f4dfed;}.cls-30{fill:#d9a8cd;}.cls-31{fill:#c38abd;}.cls-32{fill:#daa2c9;}.cls-33{fill:#edd3e6;}.cls-34{fill:#d191c0;}.cls-35{fill:#a06daf;}.cls-36{fill:#935aa5;}.cls-37{fill:#d9a5cb;}.cls-38{fill:#dcaace;}.cls-39{fill:#e9c9e0;}.cls-40{fill:#bb77b2;}.cls-41{fill:#dfb6d5;}.cls-42{fill:#e2bcd9;}.cls-43{fill:#824e9f;}.cls-44{fill:#fcf7f8;}</style></defs><path class="cls-7" d="m18.307,197.893c-.084-1.387-.167-2.774-.25-4.16.1-1.26.199-2.521.298-3.782,1.915-1.423,3.83-2.845,5.746-4.268,9.394,1.139,19.453-2.84,28.201,2.424,11.687,7.033,23.997,10.616,37.604,9.719.038.632.07,1.263.093,1.896-5.986.68-11.973,1.36-17.959,2.04-11.258-2.326-24.155-11.773-34.344-12.991-10.512-1.256-11.945,8.428-19.39,9.121Z"/><path class="cls-12" d="m231.177,106.085c.225.573.321,1.167.29,1.781-.553.136-1.082.335-1.588.595-9.888,5.148-18.245,12.014-24.216,21.555-3.664,2.76-8.888,4.743-10.719,8.415-7.765,15.574-20.01,26.834-33.239,37.369-6.534.215-8.496,9.588-15.953,7.956.013-.648.025-1.297.035-1.945,12.568-5.049,26.064-22,35.102-32.232,8.556-9.686,22.189-20.507,28.717-31.562,6.634-4.651,13.267-9.302,19.901-13.953.557.673,1.114,1.347,1.671,2.02Z"/><path class="cls-15" d="m122.043,19.616c.766-.474,1.532-.948,2.301-1.424,11.92-4.087,22.943,11.241,31.077,8.782,6.37-1.926-5.912-12.597,4.287-12.415,1.249,2.073,2.499,4.145,3.751,6.215-5.067,2.295,1.141,12.022-7.775,11.784-1.858-.778-3.717-1.555-5.575-2.333-3.737-6.112-9.585-7.925-16.292-7.987-4.026-.246-8.168.235-11.89-1.904l.116-.718Z"/><path class="cls-28" d="m81.911,6.311c6.65.22,10.096-7.094,17.822-6.242,13.021,1.436,17.865,4.674,20.202,18.253-2.031-1.286-4.062-2.573-6.093-3.86-.617-4.776-4.869-7.344-8.14-7.419-13.9-.319-28.237-1.247-39.615,9.437-.531-1.315-1.063-2.629-1.594-3.944.584-1.346,1.169-2.691,1.755-4.037,4.859-3.324,10.422-1.601,15.663-2.188Z"/><path class="cls-32" d="m64.494,12.536c.531,1.315,1.063,2.629,1.594,3.944-.665,1.981-1.329,3.963-1.994,5.945-.742,1.285-1.483,2.57-2.223,3.855-3.311,2.605-6.622,5.209-9.934,7.813-7.176,1.317-13.158,5.478-19.717,8.265-.688-.623-1.376-1.247-2.064-1.87,3.051-5.309,9.223-5.412,13.762-8.237,5.141-4.847,11.722-8.057,15.915-13.981,1.553-1.911,3.107-3.822,4.661-5.733Z"/><path class="cls-38" d="m30.156,40.488c.688.623,1.376,1.247,2.063,1.869-8.151,5.098-7.377,15.83-13.889,21.963-.711-3.345-1.421-6.69-2.132-10.035,2.786-5.695,10.218-7.34,12.082-13.839.628-.063,1.253-.049,1.876.041Z"/><path class="cls-25" d="m16.198,54.286c.711,3.345,1.421,6.69,2.131,10.035-.102,1.932-.203,3.864-.303,5.797l.009-.04c-.602-.02-1.191.054-1.769.224-1.257-.008-2.514-.016-3.771-.023,0,0-.731-.139-.733-.139,1.784-5.199-2.513-12.098,4.436-15.853Z"/><path class="cls-40" d="m2.211,153.918c-5.177-8.879.419-22.893-.013-32.92-.591-13.697-2.933-22.638,6.011-34.829-.617,3.368-1.233,6.736-1.85,10.104-.096,7.209-.191,14.419-.287,21.628-3.488,4.039-2.159,8.905-1.41,13.145,2.968,16.797,4.27,33.648,3.416,50.674-.581.06-1.162.124-1.741.193-1.466-9.318,3.019-19.513-4.126-27.996Z"/><path class="cls-4" d="m161.704,175.8c13.23-10.535,25.475-21.794,33.24-37.369,1.831-3.672,7.056-5.655,10.719-8.415-.01,1.311-.021,2.623-.031,3.934-8.338,5.029-12.658,13.677-17.079,21.473-10.094,17.8-23.706,30.93-42.731,38.447-2.711-.086-5.422-.172-8.132-.257.071-.612.11-1.228.119-1.846,0,0,.009-.007.009-.007,8.534-4.466,18.93-6.148,23.886-15.96Z"/><path class="cls-9" d="m137.808,191.767c-.009.618-.048,1.233-.119,1.846-1.988,1.357-3.974,2.715-5.96,4.074-13.941.047-27.882.094-41.824.141-13.607.896-25.917-2.687-37.604-9.719-8.748-5.264-18.807-1.286-28.2-2.424.024-.616.046-1.234.066-1.851,3.286-.713,6.572-1.426,9.858-2.139,12.374-.281,18.359,6.653,29.067,8.691,6.487,1.235,12.698-1.672,18.447-1.426,2.846.122,14.88,4.706,18.464,5.265,12.225,1.909,26.338,3.288,37.805-2.458Z"/><path class="cls-34" d="m89.905,197.827c13.942-.047,27.883-.094,41.824-.141-.327,6.955-5.52,6.422-9.974,5.973-10.61-1.068-21.174-2.595-31.757-3.937-.023-.633-.055-1.265-.093-1.896Z"/><path class="cls-18" d="m8.078,181.721c.854-17.026-.448-33.877-3.416-50.674-.749-4.241-2.078-9.106,1.411-13.145,3.837,12.037,16.103-6.959,10.987,14.643-.087.368-7.484,2.997-8.342,5.369-1.612,4.453,1.504,15.612,1.714,21.202.323,8.641-5.118,28.655,7.925,30.835-.099,1.261-.198,2.521-.298,3.782-11.835,3.052-9.352-5.769-9.98-12.012Z"/><path class="cls-26" d="m18.356,189.952c-13.044-2.18-7.602-22.194-7.925-30.835-.209-5.59-3.325-16.749-1.714-21.202.859-2.372,8.255-5.001,8.342-5.369,5.117-21.602-7.149-2.606-10.987-14.643.095-7.21.191-14.42.285-21.63,9.399-6.335,7.675-16.907,9.908-25.972.578-.169,1.167-.244,1.77-.223-.615,4.595-.303,9.12.936,13.578,2.268,3.987,1.559,7.248-2.13,9.783.84,6.427-3.736.54-.84,8.745.142.404,9.43-.529,11.413,1.927,4.424,5.478-7.361,13.795,6.707,13.936-.049,13.281,1.092,20.117,11.433,28.235,4.27,3.352,17.072,4.52,15.608,12.662-.99,5.509-5.811,7.62-11.077,6.945,2.616-6.021,7.201.254,6.227-8.319-.865-7.609-18.754.901-6.222,8.323-5.181,4.119-9.663,10.307.394,9.224,11.467-1.235,9.385-9.242,23.001-2.562,10.775,5.286,16.489,14.503,28.804,17.784,11.721,3.122,23.599.562,35.403-.655.042.692.084,1.384.126,2.076,0,0-.008.007-.009.007-11.467,5.745-25.579,4.367-37.805,2.458-3.584-.56-15.618-5.144-18.464-5.265-5.749-.246-11.96,2.661-18.447,1.426-10.708-2.038-16.693-8.972-29.066-8.69.021-5.261.042-10.523.063-15.785,15.21,6.731,6.875-13.081-4.83-10.974-1.251,4.961,3.429,7.288,4.832,10.976-12.267,1.469-9.894-26.885-19.246-25.319-2.612.437-11.012,46.351,9.323,43.24-.021.617-.043,1.235-.066,1.851-1.915,1.422-3.831,2.844-5.746,4.267Zm58.46-9.585c-3.808-3.153-5.732-4.997-7.901-6.486-12.769-8.765-13.033,13.603,7.901,6.486Z"/><path class="cls-8" d="m209.605,118.018c-6.528,11.055-20.161,21.876-28.717,31.562-9.038,10.232-22.534,27.183-35.102,32.232-13.725.282-19.426,8.745-31.687,4.677-8.906-2.955-14.459-12.067-21.505-15.953-6.499-3.585-46.224-8.422-20.812-23.54,8.162-4.856,26.076,2.863,34.781,2.963,10.889.126,18.357-3.939,27.883-7.999,18.046-7.692,44.036-27.786,43.274-49.831-.092-7.19-18.112-53.885-18.494-53.482,3.531-3.727,13.703,11.118,18.405,11.712l.063-.041c3.641,3.57,12.263,10.935,24.604,11.855,2.681.2,5.159.067,7.378-.241,1.735.173,5.713.833,8.628,4.017.579.632,1.04,1.281,1.41,1.907.164,1.563.175,3.568-.332,5.805-1.469,6.481-6.22,10.196-7.878,11.375-11.727-6.606-32.543-4.248-21.259,14.12,8.179,13.314,28.388-.895,19.358,18.861Z"/><path class="cls-44" d="m177.721,92.129c.762,22.045-25.228,42.139-43.274,49.831-9.526,4.06-16.994,8.125-27.883,7.999-8.705-.101-26.619-7.819-34.781-2.963-25.412,15.118,14.312,19.955,20.812,23.54,7.046,3.887,12.6,12.998,21.505,15.953,12.261,4.068,17.962-4.395,31.687-4.677-.01.648-.022,1.297-.034,1.946-2.687,1.976-5.374,3.951-8.061,5.927-11.804,1.217-23.682,3.777-35.403.655-12.315-3.281-18.029-12.498-28.804-17.784-13.616-6.68-11.534,1.327-23.001,2.562-10.057,1.083-5.575-5.105-.394-9.224l-.004-.004c5.266.675,10.087-1.436,11.077-6.945,1.464-8.142-11.338-9.31-15.608-12.662-10.341-8.117-11.482-14.954-11.433-28.235,14.582-.392,12.695,32.82,15.708,4.098,1.313-12.512,3.262-25.097,2.76-37.728-.221-5.557-3.92-17.523-1.458-23.298,7.744-18.167,34.862-13.832,44.889-28.214,13.988-20.066-15.441-12.138-26.062-10.551-.777-6.97,4.547-8.009,9.316-9.353,11.658-3.284,23.263-4.137,34.568,1.46,2.031,1.287,4.062,2.574,6.093,3.86.703.433,1.406.866,2.108,1.296,0-.003-.117.715-.117.715-1.386,11.311-34.206,21.376-43.966,27.823-11.991,7.921-20.644,18.609-20,33.778.32,7.52,5.086,14.501,4.596,22.148-.477,7.455-7.586,13.916-5.616,20.619,4.276,14.545,10.094-4.505,12.381-5.619,6.861,12.23,52.562,36.356,60.6,15.005,4.655-3.716,11.157-.41,15.806-4.151,6.517-1.117,9.198-6.45,12.725-11.105,6.634-8.754,15.078-16.184,19.267-26.703Z"/><path class="cls-3" d="m209.605,118.018c9.03-19.756-11.179-5.548-19.358-18.861-11.284-18.368,9.532-20.726,21.259-14.12,6.561-4.835,3.857-18.073,16.449-16.533.515,4.126-5.023,5.444-4.455,9.594-.56.057-1.121.113-1.682.166-3.844,2.801-3.736,9.825-8.091,11.43-5.17,1.905-8.391-4.934-12.213-3.521-8.565,3.168-11.409,17.295,2.182,15.894,5.704.509,11.717,2.179,15.599-4.151.729-.44,1.459-.881,2.188-1.321,9.278,2.042,11.503-2.876,8.025,7.469-6.634,4.651-13.268,9.302-19.902,13.953Z"/><path class="cls-9" d="m137.692,189.684c2.687-1.975,5.374-3.951,8.061-5.927,7.456,1.631,9.418-7.742,15.952-7.957-4.957,9.812-15.353,11.494-23.887,15.96-.042-.692-.084-1.384-.126-2.076Z"/><path class="cls-33" d="m216.412,76.919c-.676.564,3.298-2.712,3.082-5.815-.243-3.494-3.78-5.613-4.423-5.985-3.188.261-7.844.298-13.269-.912-5.111-1.14-8.711-2.908-11.196-4.147-3.715-1.851-8.978-4.969-14.43-10.118,3.216.81,6.567,1.742,10.035,2.82,4.072,1.265,7.904,2.605,11.487,3.974,7.357,2.562,14.679,3.338,21.911-.435,3.152-.655,7.661,11.556-3.196,20.618Z"/><path class="cls-30" d="m197.697,56.736c-7.863,1.583-13.047-5.172-20.002-6.418,0,0-.064.041-.063.04-6.763-6.615-8.885-18.944-21.949-17.801,8.916.237,2.708-9.489,7.775-11.784,1.489,1.838,2.98,3.674,4.471,5.51,2.783,14.371,11.279,23.162,25.647,26.217,1.373,1.412,2.747,2.824,4.12,4.236Z"/><path class="cls-29" d="m155.684,32.558c13.064-1.143,15.186,11.186,21.949,17.801-4.703-.593-14.875-15.439-18.406-11.711.382-.403,18.402,46.292,18.494,53.482-4.19,10.518-12.633,17.948-19.267,26.702-3.527,4.655-6.209,9.988-12.724,11.106-.056-.732-.114-1.464-.171-2.196,2.7-3.257,5.4-6.513,8.101-9.769,3.028-5.036,1.348-15.084,12.44-11.77.088.026,1.009-2.735,1.542-4.195-.182-3.838,1.28-7.21,3.597-10.034,2.805-3.419,2.465-5.848-1.414-7.858-6.542-10.777-3.681-21.245-9.912-32.032-2.004-3.469-8.226-11.728-12.601-12.901-4.91-1.315-7.504,4.157-10.92,3.363-8.5-1.975-8.797-10.624-20.1-9.117-15.896,2.12-5.025,16.511-22.332,12.968-7.549-.98-12.434,4.197-18.007,7.783-3.451,2.714-7.317,5.099-7.991,10.024-15.112,1.467,2.361,44.549,6.307,51.781,8.795,16.122,36.515,26.256,55.654,18.104-8.038,21.351-53.739-2.775-60.6-15.005-2.287,1.114-8.105,20.163-12.381,5.619-1.971-6.703,5.138-13.164,5.616-20.619.49-7.647-4.277-14.628-4.596-22.148-.644-15.169,8.008-25.857,20-33.778,9.76-6.446,42.58-16.512,43.966-27.823,3.722,2.139,7.865,1.658,11.891,1.905,3.994,5.59,10.467,6.128,16.292,7.986,1.858.778,3.717,1.555,5.575,2.333Z"/><path class="cls-20" d="m150.109,30.225c-5.825-1.858-12.298-2.396-16.292-7.986,6.707.061,12.555,1.874,16.292,7.986Z"/><path class="cls-5" d="m113.843,14.462c-11.305-5.598-22.91-4.744-34.568-1.46-4.769,1.343-10.093,2.383-9.315,9.353-1.955.024-3.91.047-5.865.07.664-1.982,1.329-3.964,1.994-5.945,11.378-10.683,25.716-9.755,39.615-9.437,3.271.075,7.523,2.643,8.14,7.419Z"/><path class="cls-8" d="m64.094,22.425c1.955-.023,3.911-.047,5.865-.07,10.62-1.588,40.049-9.515,26.061,10.551-10.026,14.382-37.145,10.046-44.889,28.214-2.461,5.774,1.237,17.741,1.458,23.298.502,12.631-1.447,25.216-2.76,37.728-3.014,28.723-1.127-4.49-15.708-4.098-14.068-.141-2.283-8.459-6.707-13.936-1.983-2.455-11.271-1.523-11.413-1.927-2.896-8.205,1.68-2.319.84-8.745,3.688-2.535,4.398-5.796,2.13-9.783-1.239-4.457-1.551-8.983-.936-13.578,0,0-.01.039-.009.04,2.943.119,3.408-2.097,4.605-4.166,3.054-5.279,4.384-11.642,9.5-15.665,10.043-4.439,20.244-8.548,28.506-16.188,2.688-2.486,4.98-4.543,1.232-7.819.742-1.285,1.483-2.57,2.224-3.855Z"/><path class="cls-26" d="m32.131,50.286c-5.116,4.023-6.445,10.386-9.5,15.665-1.197,2.069-1.663,4.286-4.605,4.166.1-1.933.201-3.865.303-5.797,6.512-6.133,5.739-16.865,13.89-21.963,6.56-2.786,12.542-6.948,19.719-8.262-1.371,4.277-5.736,5.163-8.773,7.464-3.742,2.836-9.653,2.867-11.034,8.727Z"/><path class="cls-44" d="m32.131,50.286c1.381-5.861,7.292-5.892,11.034-8.727,3.036-2.301,7.402-3.186,8.773-7.464,3.311-2.606,6.622-5.21,9.933-7.815,3.746,3.275,1.455,5.332-1.233,7.818-8.262,7.64-18.463,11.749-28.506,16.188Z"/><path class="cls-11" d="m16.265,70.301c-2.233,9.065-.509,19.637-9.908,25.972.618-3.367,1.234-6.735,1.851-10.104,1.427-5.297,2.855-10.595,4.284-15.892,1.259.008,2.516.016,3.773.024Z"/><path class="cls-22" d="m24.168,183.834c-20.335,3.111-11.935-42.803-9.323-43.24,9.353-1.566,6.98,26.788,19.246,25.319l-.002-.002c-.02,5.262-.041,10.524-.062,15.785-3.287.712-6.573,1.425-9.859,2.138Z"/><path class="cls-37" d="m76.815,180.367c-20.934,7.118-20.67-15.25-7.901-6.486,2.169,1.489,4.093,3.333,7.901,6.486Z"/><path class="cls-41" d="m34.091,165.913c-1.402-3.688-6.083-6.015-4.832-10.976,11.705-2.107,20.04,17.704,4.83,10.974,0,0,.002.002.002.002Z"/><path class="cls-21" d="m50.09,165.893c-12.531-7.422,5.357-15.931,6.222-8.323.974,8.572-3.611,2.297-6.227,8.319,0,0,.004.004.004.004Z"/><path class="cls-13" d="m129.922,134.087c-19.139,8.152-46.859-1.982-55.654-18.104-3.946-7.233-21.419-50.314-6.307-51.781-2.317,4.429-2.088,9.188-1.816,13.952,4.369,7.189,5.818,14.903,4.811,23.277-.178,1.48,1.872,3.227,2.894,4.849,1.744,14.027,9.801,17.78,20.97,18.964,18.7,1.983,19.536-5.676,27.131-23.001.638-.061,1.278-.11,1.918-.146.552,5.055-1.055,9.749-3.21,14.066-3.44,6.892,1.258,5.836,5.156,5.836-2.768,3.676-8.859,4.933-8.046,13.594,8.19-9.476,18.262-7.257,27.787-7.852.057.732.115,1.465.171,2.196-4.649,3.741-11.151.435-15.807,4.151Z"/><path class="cls-39" d="m221.818,78.264c1.022,7.066.066,13.392-6.588,17.586-11.268-2.082-15.314-5.427-11.534,6.219-13.591,1.4-10.747-12.727-2.182-15.894,3.822-1.414,7.043,5.426,12.213,3.521,4.356-1.605,4.247-8.629,8.091-11.43Z"/><path class="cls-10" d="m203.695,102.068c-3.78-11.646.266-8.301,11.534-6.219.91,1.56,2.341,2.105,4.066,2.068-3.882,6.329-9.896,4.66-15.6,4.151Z"/><path class="cls-1" d="m93.96,46.396c17.307,3.542,6.436-10.849,22.332-12.969,11.302-1.507,11.6,7.142,20.1,9.117,3.416.794,6.01-4.679,10.92-3.363,4.375,1.172,10.598,9.432,12.601,12.901,6.231,10.787,3.369,21.255,9.911,32.033-7.379-.845-8.271-6.124-8.239-12.035,1.506-5.378-6.964-21.433-12.529-21.127-16.022.882-5.231,17.838,2.675,21.336-.173,4.024-3.064,3.918-5.909,3.882-2.967-5.434-8.263-4.841-11.143-9.123-1.801-2.678-3.364-14.119-5.363-17.996-7.918-15.351-10.812-11.019-19.424,1.191-.643.065-1.288.085-1.934.06-4.628-1.437-11.001,3.367-13.998-3.907Z"/><path class="cls-2" d="m107.958,50.303c.646.025,1.291.005,1.934-.06,4.8,3.219,11.953-1.124,17.34,6.561,5.224,7.452,2.685,20.676,1.817,30.842-7.781-6.991-15.916-9.868-25.166-9.502,1.335-.699,2.67-1.398,4.004-2.097,21.422.245,20.712-22.049-1.381-19.773-7.03.724-26.898,4.426-31.642,9.83-3.541,4.034-9.603,15.034,1.18,16.119-5.898,4.96-6.85-2.096-9.896-4.067-.273-4.765-.502-9.524,1.815-13.952.673-4.925,4.539-7.31,7.99-10.024,6.255.047,12.513.243,18.763.092,4.717-.114,10.155,1.737,13.242-3.967Z"/><path class="cls-16" d="m145.558,127.741c-9.525.595-19.598-1.624-27.787,7.852-.813-8.661,5.278-9.919,8.046-13.594.118-2.507,1.621-3.724,3.918-4.204,4.882-2.057,9.785-4.068,14.641-6.183,6.548-2.852,9.48-.559,9.282,6.358-2.7,3.257-5.4,6.513-8.1,9.77Z"/><path class="cls-19" d="m161.585,72.08c-.032,5.91.86,11.189,8.239,12.035,3.88,2.009,4.219,4.439,1.414,7.857-2.317,2.824-3.779,6.196-3.596,10.035-7.404-.511-14.818-1.112-21.887,2.018.304-2.769-.689-5.703,1.386-8.904,2.991,2.823,6.667,3.369,10.552,2.944,2.584-2.297,5.618-6.037,2.959-8.322-5.094-4.377-6.552-12.817-14.831-13.571,2.845.037,5.736.143,5.909-3.882,3.328,1.954,6.625,2.497,9.853-.209Z"/><path class="cls-42" d="m145.755,104.024c7.07-3.129,14.483-2.528,21.888-2.017-.533,1.459-1.455,4.22-1.543,4.194-11.092-3.313-9.412,6.734-12.44,11.77.196-6.918-2.736-9.211-9.283-6.359-4.857,2.115-9.759,4.126-14.64,6.185-.235-4.002,7.49-4.593,4.248-9.887,2.757-.023,5.761,1.048,7.885-1.778,1.295-.703,2.59-1.406,3.886-2.109Z"/><path class="cls-17" d="m107.958,50.303c-3.087,5.705-8.525,3.854-13.242,3.967-6.25.151-12.508-.045-18.763-.092,5.573-3.586,10.457-8.763,18.007-7.783,2.997,7.275,9.37,2.471,13.999,3.908Z"/><path class="cls-6" d="m141.869,106.133c-2.124,2.826-5.128,1.755-7.886,1.779-.172-12.657-4.237-21.925-10.112-5.815-.64.036-1.28.085-1.919.145-.023-1.371-.045-2.74-.067-4.109,3.556-8.033-1.547-10.465-7.851-12.121-7.96-3.514-15.85-1.844-24.001-.355-16.179,2.955-16.236,2.646-15.965,18.372-.073.751-.145,1.503-.218,2.254-1.021-1.624-3.071-3.371-2.893-4.851,1.007-8.374-.442-16.087-4.811-23.277,3.046,1.971,3.999,9.027,9.897,4.066,6.042-1.315,10.397-9.488,18.008-4.421,3.277.114,6.555.229,9.832.343,9.251-.366,17.385,2.511,25.167,9.503.868-10.166,3.407-23.39-1.817-30.842-5.387-7.685-12.54-3.342-17.34-6.561,8.611-12.21,11.505-16.542,19.423-1.191,2,3.877,3.562,15.318,5.363,17.996,2.88,4.282,8.177,3.689,11.143,9.123,8.279.754,9.736,9.195,14.831,13.571,2.659,2.284-.375,6.025-2.958,8.322-17.341-42.211-27.887,5.302-15.826,8.068Z"/><path class="cls-31" d="m121.885,98.133c.022,1.369.044,2.739.067,4.109-7.595,17.326-8.431,24.985-27.13,23.002-11.168-1.184-19.225-4.937-20.97-18.964.071-.75.144-1.501.216-2.252.62.068,1.242.117,1.865.149,5.967,12.748,14.882,16.515,26.706,12.647,9.773-3.197,14.04-11.238,19.247-18.692Z"/><path class="cls-23" d="m123.87,102.097c5.875-16.11,9.94-6.842,10.112,5.815,3.243,5.292-4.482,5.883-4.247,9.885-2.297.477-3.801,1.695-3.919,4.202-3.898,0-8.597,1.056-5.157-5.836,2.155-4.317,3.762-9.011,3.21-14.066Z"/><path class="cls-24" d="m161.585,72.08c-3.228,2.705-6.526,2.162-9.853.209-7.906-3.497-18.698-20.453-2.676-21.335,5.565-.306,14.035,15.749,12.529,21.127Z"/><path class="cls-36" d="m94.051,77.8c-7.611-5.067-11.966,3.106-18.008,4.421-10.783-1.085-4.721-12.084-1.179-16.118,4.744-5.404,24.613-9.106,31.642-9.83,22.093-2.275,22.803,20.018,1.381,19.775,20.978-23.352-18.506-21.787-13.837,1.753Z"/><path class="cls-43" d="m94.051,77.8c-4.669-23.54,34.814-25.105,13.837-1.753-1.335.698-2.669,1.397-4.004,2.096-3.278-.115-6.555-.229-9.832-.343Z"/><path class="cls-27" d="m141.869,106.133c-12.062-2.766-1.516-50.279,15.826-8.068-3.886.425-7.563-.121-10.553-2.944-2.076,3.201-1.082,6.135-1.386,8.904-1.296.702-2.591,1.405-3.886,2.108Z"/><path class="cls-14" d="m121.885,98.133c-5.207,7.454-9.474,15.495-19.247,18.692-11.824,3.868-20.739.101-26.705-12.647,1.262-5.07-3.048-12.712,6.467-13.971,10.545-1.395,21.089-2.796,31.634-4.194,6.304,1.656,11.407,4.088,7.851,12.121Z"/><path class="cls-35" d="m114.034,86.012c-10.545,1.398-21.089,2.799-31.634,4.194-9.515,1.259-5.205,8.901-6.467,13.971-.624-.031-1.246-.081-1.866-.148-.27-15.727-.214-15.417,15.966-18.372,8.15-1.489,16.041-3.159,24.001.355Z"/></svg>