<?xml version="1.0" encoding="UTF-8"?><svg id="Layer_1" xmlns="http://www.w3.org/2000/svg" viewBox="0 0 239.513 230.609"><defs><style>.cls-1{fill:#6e7493;}.cls-2{fill:#726f8c;}.cls-3{fill:#cbc8d2;}.cls-4{fill:#eeeee0;}.cls-5{fill:#67635f;}.cls-6{fill:#b1a973;}.cls-7{fill:#989eae;}.cls-8{fill:#bec5d4;}.cls-9{fill:#5a6072;}.cls-10{fill:#b9aea6;}.cls-11{fill:#ecefe1;}.cls-12{fill:#f6ed84;}.cls-13{fill:#75665d;}.cls-14{fill:#cbc6b8;}.cls-15{fill:#f0e9ad;}.cls-16{fill:#bbad99;}.cls-17{fill:#f4eacb;}.cls-18{fill:#bcb473;}.cls-19{fill:#9c907f;}.cls-20{fill:#958d81;}.cls-21{fill:#d6e1ed;}.cls-22{fill:#e9ebd7;}.cls-23{fill:#959fb5;}.cls-24{fill:#ccd4dc;}.cls-25{fill:#7e764c;}.cls-26{fill:#eee9d0;}.cls-27{fill:#b7afaf;}.cls-28{fill:#948671;}.cls-29{fill:#faf0bd;}.cls-30{fill:#adaabd;}.cls-31{fill:#c9bd9a;}.cls-32{fill:#9e9a84;}.cls-33{fill:#acb4c8;}.cls-34{fill:#b7bdc8;}.cls-35{fill:#f7f2d2;}.cls-36{fill:#8f897f;}.cls-37{fill:#6d6c85;}.cls-38{fill:#f1e1ad;}.cls-39{fill:#eff1f2;}.cls-40{fill:#abafbe;}.cls-41{fill:#7c7a7d;}.cls-42{fill:#d9d3ae;}.cls-43{fill:#bfb7ab;}.cls-44{fill:#b6bbcc;}.cls-45{fill:#86849e;}.cls-46{fill:#bdb667;}.cls-47{fill:#9b9eb6;}.cls-48{fill:#f7ec9f;}.cls-49{fill:#e3e0c8;}.cls-50{fill:#e7edef;}.cls-51{fill:#999686;}.cls-52{fill:#9399a7;}.cls-53{fill:#dfe4ea;}.cls-54{fill:#c3c9d8;}.cls-55{fill:#a7abb3;}.cls-56{fill:#e2e7f0;}.cls-57{fill:#c8bd99;}.cls-58{fill:#f3f2df;}.cls-59{fill:#a4a7c1;}.cls-60{fill:#8689a2;}.cls-61{fill:#7e8494;}.cls-62{fill:#a39daa;}.cls-63{fill:#cecfc3;}.cls-64{fill:#d1cecc;}.cls-65{fill:#cfd6db;}.cls-66{fill:#ece5c4;}.cls-67{fill:#f5edbe;}.cls-68{fill:#817959;}.cls-69{fill:#8a89a3;}.cls-70{fill:#b1b7c7;}.cls-71{fill:#ced5e1;}.cls-72{fill:#f6eda3;}.cls-73{fill:#f5eebe;}.cls-74{fill:#6f6f8b;}.cls-75{fill:#cbccc0;}.cls-76{fill:#bec2cc;}.cls-77{fill:#878c99;}.cls-78{fill:#c3c7dc;}.cls-79{fill:#dcd9c8;}.cls-80{fill:#f8f2c1;}.cls-81{fill:#fbf3aa;}.cls-82{fill:#e6e9e1;}.cls-83{fill:#686f7f;}</style></defs><path class="cls-25" d="m212.747,13.712c-.04.804-.079,1.609-.119,2.411-2.334-.688-4.667-1.375-7.001-2.061-1.849-1.494-3.607-3.121-5.563-4.459-8.672-5.932-22.822-6.545-28.696-1.33-1.639.744-3.278,1.488-4.916,2.232-.029-1.319-.058-2.639-.086-3.96,5.163-7.118,12.516-7.764,19.711-5.094,9.147,3.395,17.803,8.114,26.67,12.262Z"/><path class="cls-68" d="m14.196,160.515c-19.253-16.86,5.597-18.68-5.69-37.644-.467-2.367-.932-4.734-1.397-7.101,1.094.091,2.189.181,3.285.271,1.761,3.555,3.522,7.11,5.282,10.666.673,17.142-9.894,19.12,1.972,33.842-1.151-.011-2.301-.022-3.452-.033Z"/><path class="cls-13" d="m8.751,87.23c1.797,2.407,3.593,4.814,5.39,7.22.574,2.86,1.149,5.721,1.723,8.583-3.489-3.488-6.978-6.977-10.467-10.465-.707.404-1.413.807-2.12,1.211v13.163c-1.112-3.591-2.842-7.123-3.194-10.787-.563-5.852,1.676-9.936,8.668-8.925Z"/><path class="cls-28" d="m3.277,106.941v-13.163c.707-.404,1.413-.807,2.12-1.211,3.489,3.488,6.978,6.977,10.468,10.468.001.003.415.003.415.003-.139,1.344-.278,2.688-.417,4.032-2.355-1.816-4.71-3.632-8.964-6.913v13.937c-1.207-2.384-2.415-4.768-3.622-7.152Z"/><path class="cls-57" d="m6.899,114.093v-13.937c4.254,3.281,6.609,5.097,8.964,6.911.725,1.211,1.449,2.425,2.174,3.639.566,2.851,1.132,5.701,1.697,8.552-2.384-3.337-4.768-6.674-8.12-11.366-.577,3.85-.899,5.999-1.221,8.148-1.095-.091-2.19-.181-3.284-.272-.023-.564-.093-1.123-.21-1.676Z"/><path class="cls-5" d="m35.578,51.467c2.976-8.336,5.953-16.672,8.928-25.007.619-1.25,1.239-2.501,1.86-3.753,1.428-2.817,2.856-5.632,4.284-8.447.771.128,1.543.255,2.314.383.214,3.852.428,7.705.644,11.555-.054.721-.11,1.443-.165,2.164-6.27-3.705-5.942,1.646-7.002,5.095-2.537,8.936-5.074,17.87-7.61,26.805-.584.044-1.163.126-1.737.246-.505-3.013-1.011-6.027-1.516-9.04Z"/><path class="cls-74" d="m125.029,12.015c4.137-1.137,8.274-2.274,12.413-3.413,2.098,1.698,3.965,4.342,6.335,4.919,7.272,1.768,14.737,2.742,22.127,4.025.066,1.725.132,3.45.2,5.176-13.666-2.918-27.334-5.838-41.001-8.758-.024-.65-.049-1.3-.073-1.95Z"/><path class="cls-37" d="m125.029,12.015c.024.65.049,1.3.073,1.949-12.558,5.426-24.275,2.721-35.608-3.681-.069-1.157-.138-2.313-.207-3.469,11.275,6.125,23.652,4.677,35.743,5.201Z"/><path class="cls-36" d="m165.904,17.546c-.034-.617-.068-1.233-.107-1.85.214-1.732.432-3.464.652-5.194,1.641-.742,3.28-1.486,4.919-2.227.192.235.417.431.674.588-.024,4.247-.655,8.61.114,12.71.655,3.49,2.922,6.677,4.476,9.998-.489-.038-.98-.06-1.471-.068-1.849-1.716-3.697-3.433-5.546-5.149-1.171-1.211-2.342-2.422-3.513-3.634-.066-1.725-.132-3.45-.199-5.175Z"/><path class="cls-1" d="m76.816,19.361c.593-.146,1.186-.293,1.777-.437,1.444.944,2.89,1.885,5.628,3.667-9.501,7.004-18.279,13.475-27.057,19.946-.6-1.792-1.2-3.583-1.8-5.375,6.142-3.967,12.418-7.748,18.336-12.024,1.597-1.154,2.107-3.811,3.115-5.778Z"/><path class="cls-41" d="m55.364,37.162c.6,1.792,1.2,3.583,1.799,5.374-1.628,1.195-3.256,2.392-4.886,3.586-1.32-.703-2.638-1.404-3.955-2.105.992-3.013,1.985-6.026,2.977-9.039-1.619-.508-3.238-1.016-4.857-1.524,1.059-3.448.731-8.798,7.001-5.094.64,2.935,1.281,5.868,1.921,8.801Z"/><path class="cls-60" d="m52.28,46.124c1.628-1.196,3.255-2.392,4.884-3.588,8.778-6.47,17.556-12.941,27.057-19.945-2.738-1.782-4.184-2.724-5.628-3.667,2.819-.488,5.876-.476,8.353-1.668,1.254-.603,1.459-3.382,2.136-5.177.134-.599.271-1.198.41-1.797,11.336,6.402,23.052,9.108,35.611,3.681,13.668,2.921,27.335,5.84,41.001,8.759,1.17,1.21,2.341,2.421,3.514,3.633-37.844-4.617-76.846-12.499-107.194,17.856-2.36,1.888-4.72,3.775-7.08,5.663-1.022-1.25-2.043-2.5-3.065-3.749Z"/><path class="cls-43" d="m213.044,26.389c-2.459,2.43-4.918,4.859-7.377,7.288-1.835,1.142-3.67,2.285-5.504,3.428-.591-.008-1.179.031-1.764.115-.653-.025-1.305-.05-1.958-.076.027-.642.054-1.283.081-1.925,2.985-2.382,6.116-4.605,8.917-7.186,3.697-3.407,5.827-7.102.097-10.721.031-1.083.061-2.167.092-3.25,2.333.686,4.667,1.373,7.001,2.061.139,3.423.277,6.844.415,10.266Z"/><path class="cls-46" d="m205.628,14.062c-.031,1.083-.061,2.167-.092,3.252-.624.021-1.248.041-1.873.061-8.536-8.211-17.787-13.945-30.206-8.707-.476.037-.949.102-1.417.198-.257-.159-.481-.355-.674-.59,5.875-5.217,20.024-4.604,28.696,1.328,1.956,1.338,3.714,2.965,5.563,4.459Z"/><path class="cls-72" d="m23.002,162.422c-1.122-.745-2.244-1.489-3.366-2.234-.913-4.108-2.626-8.232-2.55-12.321.111-5.921,1.517-11.818,2.37-17.725.06-.631.12-1.263.178-1.894,6.974,12.669,21.113,25.348,7.03,35.624-1.221-.483-2.442-.966-3.663-1.449Z"/><path class="cls-18" d="m19.456,130.142c-.853,5.907-2.259,11.804-2.37,17.725-.076,4.09,1.637,8.213,2.55,12.321-.662.12-1.324.239-1.988.36-11.866-14.722-1.3-16.7-1.971-33.843,1.261,1.145,2.52,2.291,3.779,3.437Z"/><path class="cls-20" d="m23.002,162.422c1.221.483,2.442.966,3.663,1.45,5.35,5.431,10.699,10.86,16.048,16.29.052,1.108.104,2.216.156,3.323-.082,1.838-.163,3.677-.244,5.515-6.541-8.859-13.082-17.719-19.623-26.578Z"/><path class="cls-19" d="m80.353,217.64c-6.533-.592-13.067-1.184-19.599-1.776-9.595-2.956-15.827-8.694-16.053-19.398,1.728,2.881,3.458,5.766,5.188,8.651,4.866,2.911,9.485,6.416,14.667,8.563,4.961,2.055,10.507,2.698,15.797,3.961Z"/><path class="cls-6" d="m49.889,205.116c-1.73-2.885-3.459-5.769-5.187-8.65-.69-2.486-1.382-4.975-2.075-7.465.08-1.839.161-3.677.243-5.514,7.155,4.138,7.175,11.097,7.156,18.071-.046,1.186-.091,2.372-.137,3.558Z"/><path class="cls-42" d="m19.456,130.142c-1.259-1.146-2.518-2.292-3.779-3.437-1.762-3.555-3.522-7.11-5.284-10.665.321-2.148.643-4.297,1.221-8.147,3.352,4.692,5.736,8.029,8.119,11.366,1.736.637,3.473,1.274,5.209,1.91.598,1.18,1.198,2.36,1.797,3.541-.589.623-1.177,1.246-1.766,1.87-1.779.556-3.558,1.112-5.338,1.668-.06.631-.12,1.263-.18,1.894Z"/><path class="cls-2" d="m16.28,103.038c6.94-14.178,13.881-28.356,20.817-42.532.57-.118,1.149-.2,1.737-.244.03,1.816.056,3.631.082,5.446-5.275,12.929-10.442,25.904-15.921,38.746-1.007,2.36-3.273,4.183-4.958,6.253-.725-1.214-1.449-2.427-2.174-3.639.139-1.342.277-2.686.416-4.03Z"/><path class="cls-69" d="m18.038,110.707c1.685-2.071,3.952-3.894,4.958-6.253,5.478-12.842,10.646-25.817,15.923-38.746.663.119,1.324.238,1.985.353-3.666,10.115-7.791,20.099-10.853,30.398-2.388,8.034-3.455,16.46-5.108,24.712-1.737-.637-3.475-1.273-5.21-1.91-.564-2.851-1.13-5.702-1.695-8.552Z"/><path class="cls-32" d="m40.903,66.064c-.66-.119-1.321-.238-1.984-.357-.029-1.815-.055-3.63-.085-5.446,2.533-8.935,5.069-17.87,7.607-26.806,1.62.507,3.239,1.015,4.858,1.522-.992,3.013-1.985,6.026-2.979,9.04-1.956,6.135-3.911,12.268-5.866,18.401-.517,1.215-1.034,2.43-1.551,3.644Z"/><path class="cls-33" d="m55.345,49.873c2.36-1.888,4.72-3.775,7.08-5.662,18.78-5.703,33.256-18.494,53.502-20.766,20.054-2.25,39.853,3.93,59.235,8.058.491.008.981.03,1.473.069.019,1.237.035,2.473.055,3.71-35.066-5.627-69.993-16.061-101.89,7.132-5.898,4.206-11.797,8.413-17.695,12.619-.586-1.72-1.173-3.44-1.759-5.16Z"/><path class="cls-15" d="m176.686,35.282c-.017-1.236-.034-2.473-.052-3.71-1.556-3.322-3.823-6.509-4.478-9.999-.769-4.101-.138-8.463-.114-12.71.468-.093.94-.159,1.415-.197,4.227,6.742,7.398,14.588,12.976,19.922,5.727,5.476,12.909.357,17.231-11.213.624-.02,1.248-.04,1.873-.061,5.73,3.618,3.6,7.313-.097,10.72-2.801,2.581-5.933,4.804-8.916,7.187-6.035,5.455-12.717,4.255-19.513,1.894-.108-.611-.216-1.222-.323-1.832Z"/><path class="cls-23" d="m175.161,31.504c-19.382-4.128-39.181-10.309-59.235-8.058-20.246,2.272-34.722,15.062-53.502,20.766,30.348-30.355,69.35-22.474,107.193-17.856,1.846,1.716,3.695,3.432,5.543,5.149Z"/><path class="cls-49" d="m55.345,49.873c.586,1.72,1.173,3.44,1.759,5.159-4.76,4.76-9.521,9.52-14.281,14.28-.123-2.298-.245-4.596-.368-6.893,1.955-6.133,3.909-12.267,5.866-18.401,1.32.699,2.637,1.4,3.957,2.103,1.024,1.252,2.046,2.502,3.067,3.752Z"/><path class="cls-45" d="m200.162,37.105c1.835-1.143,3.67-2.286,5.505-3.428-5.869,14.507,8.075,26.075,15.448,36.955,8.688,12.821,11.742,22.696,14.688,37.726-1.099-2.325-3.309-4.75-3.116-6.966,1.011-11.583-6.093-17.753-14.498-23.27-3.029-5.641-5.323-11.87-9.26-16.786-5.821-7.267-9.579-14.796-8.767-24.232Z"/><path class="cls-10" d="m218.19,78.121c8.405,5.519,15.508,11.688,14.497,23.271-.193,2.216,2.016,4.641,3.116,6.966.117,1.15.236,2.304.356,3.454-.118,1.426-.238,2.854-.356,4.28-1.27-1.932-2.541-3.861-3.812-5.79-1.299-2.858-4.432-6.519-3.59-8.438,4.302-9.8-2.569-13.562-8.532-18.064-.644-.657-1.287-1.312-1.931-1.967-.546-1.207-1.093-2.414-1.639-3.622.63-.031,1.261-.061,1.891-.092Z"/><path class="cls-22" d="m177.01,37.114c6.795,2.361,13.478,3.561,19.513-1.894-.028.641-.055,1.282-.08,1.923-.604,2.415-1.21,4.831-1.816,7.247-3.319,1.679-8.558,5.551-9.607,4.635-3.482-3.042-5.458-7.807-8.011-11.911Z"/><path class="cls-44" d="m194.627,44.391c.606-2.416,1.212-4.832,1.816-7.247.651.026,1.303.051,1.956.075-1.251,10.257,1.165,19.294,8.128,27.235,3.689,4.208,6.542,9.149,9.772,13.759.546,1.207,1.093,2.414,1.641,3.622-1.169.021-2.339.041-3.51.062-.594-.635-1.188-1.27-1.781-1.905-1.314-2.229-2.647-4.446-3.937-6.688-5.358-9.314-14.782-16.653-14.084-28.913Z"/><path class="cls-47" d="m216.299,78.213c-3.23-4.61-6.083-9.551-9.772-13.759-6.963-7.942-9.379-16.978-8.128-27.235.585-.083,1.173-.121,1.764-.113-.813,9.436,2.946,16.965,8.766,24.232,3.937,4.915,6.231,11.145,9.26,16.786-.629.029-1.26.06-1.89.091Z"/><path class="cls-12" d="m203.664,17.374c-4.322,11.571-11.503,16.69-17.231,11.213-5.578-5.333-8.749-13.18-12.976-19.922,12.42-5.237,21.671.497,30.206,8.708Z"/><path class="cls-16" d="m216.402,185.646c-3.955,22.538-8.993,22.107-28.757,28.271-2.275-1.605-4.55-3.211-5.861-4.136,6.518-8.345,13.365-17.11,20.211-25.875-1.452,8.068-2.904,16.137-4.561,25.345,12.749-3.697,11.986-7.416,15.32-20.121.576-1.822,1.152-3.643,1.728-5.465.564-.007,1.119-.08,1.665-.219.085.733.17,1.466.256,2.199Z"/><path class="cls-27" d="m201.995,183.905c-6.846,8.765-13.693,17.53-20.211,25.875,1.311.926,3.586,2.532,5.861,4.136-2.426,1.182-4.852,2.366-7.278,3.549-3.504.534-7.007,1.07-10.511,1.607-2.025-1.968-4.048-3.938-7.408-7.209,16.726-5.186,27.851-16.769,37.758-29.778.636-.097,1.272-.192,1.908-.287-.039.702-.079,1.405-.118,2.107Z"/><path class="cls-62" d="m216.402,185.646c-.085-.733-.17-1.466-.254-2.197,3.072-14.8,6.142-29.603,9.213-44.406,1.175,1.195,2.35,2.389,3.526,3.584-4.161,14.34-8.323,28.679-12.485,43.018Z"/><path class="cls-3" d="m200.205,182.087c-9.907,13.007-21.032,24.59-37.758,29.776,3.361,3.272,5.384,5.241,7.408,7.21-.609.131-1.219.263-1.829.395-9.112-.578-18.225-1.123-27.334-1.742-9.094-.618-17.771.085-24.544,7.261-.523-.018-1.043-.07-1.56-.155.551-1.272,1.103-2.544,1.652-3.814,1.161-1.124,2.324-2.251,3.486-3.378,14.564-1.529,27.846-1.372,40.907-7.981,14.992-7.586,26.794-18.878,39.545-29.615.009.682.018,1.363.027,2.045Z"/><path class="cls-30" d="m166.287,221.316c-16.714,1.222-33.427,2.445-50.14,3.669,6.774-7.175,15.451-7.877,24.545-7.26,9.109.619,18.222,1.164,27.334,1.742-.58.616-1.16,1.233-1.739,1.849Z"/><path class="cls-80" d="m114.588,224.831c-2.469,1.926-4.938,3.852-7.407,5.778-4.269-1.905-8.539-3.81-12.807-5.716,6.06-1.291,14.052,3.231,18.345-6.946-13.17-7.105-27.923-12.151-40.631-19.832-6.785-4.1-22.352-26.227-29.374-17.953-5.349-5.43-10.699-10.859-16.048-16.29,14.082-10.277-.056-22.956-7.03-35.625,1.78-.556,3.56-1.112,5.338-1.669,1.819,1.765,3.639,3.531,5.457,5.297-.089.582-.111,1.166-.067,1.753,2.55,5.539,26.022,62.803,35.651,46.661,1.229-.646,2.458-1.292,3.687-1.938,4.715,1.779,9.862,3.061,9.235,9.965-.065.72,2.016,1.635,3.101,2.459,1.207,1.193,2.415,2.386,3.622,3.579,6.473,4.846,13.183,9.413,19.335,14.637,4.156,3.529,7.526,7.983,11.248,12.022-.551,1.272-1.103,2.544-1.654,3.817Z"/><path class="cls-81" d="m42.713,180.162c7.022-8.274,22.59,13.853,29.374,17.953,12.708,7.68,27.461,12.727,40.631,19.832-4.293,10.177-12.284,5.656-18.345,6.946-1.625-.727-3.25-1.455-4.875-2.181-1.86-6.196-6.148-8.28-12.469-8.901-10.212-1.003-20.421-2.881-27.005-12.253.019-6.974-.001-13.933-7.156-18.071-.052-1.109-.104-2.217-.155-3.325Z"/><path class="cls-31" d="m50.025,201.558c6.584,9.372,16.793,11.25,27.005,12.253,6.321.621,10.609,2.705,12.469,8.901-3.048-1.691-6.097-3.382-9.146-5.072-5.289-1.264-10.836-1.907-15.797-3.961-5.182-2.146-9.801-5.651-14.667-8.563.045-1.187.091-2.373.136-3.559Z"/><path class="cls-59" d="m42.455,62.42c.123,2.298.245,4.596.368,6.893-1.865,7.677-3.729,15.354-5.594,23.031-2.315,8.216-4.529,16.462-7.004,24.63-.813,2.684-2.304,5.163-3.485,7.736-.599-1.18-1.198-2.361-1.797-3.541,1.654-8.251,2.721-16.678,5.109-24.711,3.062-10.299,7.187-20.282,10.853-30.398.516-1.211,1.033-2.426,1.55-3.64Z"/><path class="cls-78" d="m26.739,124.71c1.181-2.573,2.672-5.052,3.485-7.736,2.475-8.168,4.689-16.414,7.006-24.628-1.152,11.263-2.173,22.54-3.582,33.769-.254,2.023-2.103,3.846-3.216,5.761-1.82-1.766-3.64-3.532-5.459-5.297.589-.622,1.178-1.245,1.767-1.869Z"/><path class="cls-21" d="m194.627,44.391c-.698,12.26,8.726,19.598,14.084,28.913,1.29,2.242,2.624,4.459,3.938,6.688-5.286-5.848-10.572-11.697-15.858-17.546,4.499,17.381,13.904,32.972,12.79,51.421-.538,8.908-3.181,40.194-18.308,30.498-.004-1.19-.007-2.379-.011-3.569,9.496-7.527,14.011-17.375,12.59-29.381-2.284-19.294-6.03-37.951-26.415-47.31-1.099-.504-1.526-2.469-2.266-3.753-1.068-13.131-50.305-34.757-39.354-3.583-13.223.291-23.279,5.239-28.127,18.451-1.515,4.128-3.9,7.938-5.886,11.894-1.787.602-3.575,1.202-5.363,1.803.958-7.3,1.628-14.652,2.959-21.883,1.189-6.457-.753-9.278-7.42-7.899-32.67,6.757-39.76,20.921-45.64,51.262-.598.6-1.196,1.2-1.793,1.8-17.003-20.55,23.022-55.535,36.422-66.464-.436-.771-.873-1.541-1.309-2.312-1.62-.336-3.24-.671-4.86-1.007,31.896-23.193,66.824-12.759,101.89-7.132.105.61.213,1.221.321,1.832,2.554,4.104,4.529,8.869,8.011,11.912,1.049.916,6.287-2.956,9.607-4.635Z"/><path class="cls-53" d="m74.799,42.414c1.62.336,3.24.671,4.86,1.007.436.771.873,1.541,1.309,2.312-13.4,10.929-53.425,45.914-36.421,66.464-.391,8.622,1.08,16.665,7.241,23.25,3.061,10.306,5.837,20.713,9.411,30.838.761,2.157,4.424,3.292,6.751,4.898-.704,1.787-1.409,3.575-2.114,5.362-14.813,3.415-25.373-34.731-35.473-42.917-.044-.587-.022-1.171.067-1.753,1.115-1.915,2.965-3.738,3.218-5.761,1.409-11.229,2.43-22.507,3.582-33.769,1.863-7.679,3.727-15.356,5.592-23.032,4.761-4.76,9.521-9.52,14.281-14.28,5.899-4.206,11.797-8.412,17.695-12.619Z"/><path class="cls-67" d="m219.869,83.803c5.963,4.5,12.834,8.262,8.532,18.062-.842,1.919,2.29,5.58,3.594,8.439-2.486-.425-4.977-.852-10.004-1.713,1.936,9.391,3.546,17.199,5.156,25.007-.636.057-1.272.113-1.908.168-.658.006-1.316.013-1.974.02-5.662-15.785-6.829-33.618-3.397-49.983Z"/><path class="cls-48" d="m227.148,133.598c-1.61-7.808-3.22-15.617-5.156-25.007,5.027.861,7.518,1.288,10.004,1.713,1.267,1.928,2.538,3.857,3.808,5.789.677,1.735,1.356,3.468,2.035,5.202-3.073,4.177-3.596,8.228-.869,13.081,1.657,2.947,1.748,6.772,2.543,10.205-4.122-3.659-8.244-7.321-12.365-10.982Z"/><path class="cls-64" d="m223.266,133.786c.658-.007,1.316-.014,1.974-.02.039,1.759.079,3.517.12,5.276-3.069,14.803-6.14,29.606-9.212,44.406-.548.137-1.103.21-1.666.217.022-5.943.043-11.887.064-17.831,1.75-6.578,3.501-13.157,5.251-19.735,1.156-4.105,2.313-8.209,3.469-12.314Z"/><path class="cls-4" d="m223.266,133.786c-1.156,4.105-2.313,8.209-3.468,12.315-8.662-16.627-5.274-45.646-5.368-64.205,1.171-.021,2.341-.041,3.51-.062.642.655,1.286,1.31,1.929,1.967-3.433,16.366-2.265,34.2,3.397,49.985Z"/><path class="cls-50" d="m214.43,81.896c.094,18.559-3.294,47.578,5.368,64.205-1.751,6.577-3.502,13.156-5.252,19.734-3.873-2.843-7.277-4.301-9.35,2.023-1.364,4.162-3.324,8.129-5.017,12.184-12.75,10.738-24.552,22.03-39.544,29.616-13.061,6.609-26.343,6.452-40.908,7.981-2.862-5.212-4.526-12.022-8.862-15.271-6.825-5.113-15.449-7.829-23.312-11.56.162-3.324.324-6.649.474-9.731,18.227,6.937,46.613,10.084,66.042,4.775,19.023-5.199,27.091-26.066,37.205-41.488,15.127,9.697,17.771-21.59,18.308-30.498,1.114-18.449-8.291-34.04-12.79-51.421,5.287,5.849,10.573,11.698,15.858,17.546.593.635,1.187,1.27,1.78,1.905Z"/><path class="cls-38" d="m201.995,183.905c.039-.702.079-1.405.117-2.106,7.291-2.986,7.661,4.065,10.642,7.33-3.334,12.705-2.571,16.424-15.32,20.121,1.657-9.209,3.109-17.277,4.561-25.345Z"/><path class="cls-17" d="m212.754,189.13c-2.981-3.265-3.351-10.316-10.642-7.33-.634.094-1.27.189-1.906.285-.009-.679-.017-1.36-.027-2.043,1.693-4.055,3.653-8.023,5.017-12.185,2.073-6.324,5.477-4.866,9.35-2.023-.021,5.944-.042,11.887-.064,17.831-.576,1.821-1.152,3.643-1.728,5.464Z"/><path class="cls-11" d="m87.553,190.808c7.862,3.731,16.486,6.447,23.311,11.56,4.336,3.248,6,10.058,8.862,15.271-1.162,1.127-2.325,2.254-3.486,3.378-3.72-4.043-7.09-8.496-11.247-12.025-6.152-5.223-12.862-9.79-19.334-14.636.04-.606.078-1.214.117-1.821.592-.576,1.184-1.151,1.776-1.727Z"/><path class="cls-58" d="m30.362,133.629c10.1,8.186,20.661,46.331,35.476,42.917.06,1.248.118,2.496.176,3.744-9.63,16.142-33.101-41.122-35.651-46.661Z"/><path class="cls-75" d="m66.014,180.289c-.058-1.248-.116-2.496-.176-3.744.702-1.787,1.407-3.575,2.11-5.362,5.338,1.218,10.678,2.436,16.018,3.653.604,5.899,1.207,11.799,1.811,17.698-.039.607-.078,1.215-.117,1.821-1.208-1.194-2.415-2.387-3.622-3.579-1.065-4.818-2.132-9.637-3.198-14.456-3.046.677-6.092,1.354-9.138,2.031-1.229.646-2.458,1.292-3.687,1.938Z"/><path class="cls-58" d="m69.701,178.351c3.046-.677,6.092-1.354,9.138-2.031,1.066,4.819,2.133,9.638,3.198,14.456-1.086-.825-3.168-1.74-3.102-2.46.627-6.905-4.52-8.186-9.235-9.965Z"/><path class="cls-39" d="m101.803,87.113c1.986-3.956,4.371-7.765,5.886-11.893,4.848-13.213,14.904-18.161,28.127-18.451,7.482.96,9.262,5.988,8.942,12.514-2.081,2.322-3.746,5.392-6.322,6.824-7.258,4.034-14.891,7.396-22.377,11.022-4.752-.005-9.504-.011-14.256-.016Z"/><path class="cls-54" d="m46.34,110.396c5.88-30.34,12.97-44.504,45.64-51.262,6.667-1.379,8.609,1.443,7.42,7.899-1.331,7.231-2.001,14.583-2.959,21.883-.632,1.803-1.263,3.605-1.895,5.407-8.191,4.542.224-26.374-14.141-25.998-14.053.367-27.854,27.564-28.809,38.43-1.752,1.214-3.504,2.427-5.256,3.641Z"/><path class="cls-65" d="m85.777,192.535c-.604-5.899-1.207-11.799-1.811-17.699,20.497,4.552,37.515,11.829,59.077,7.855,25.862-4.767,30.999-19.395,42.945-40.105,1.758-.597,3.516-1.194,5.274-1.79.004,1.19.007,2.379.011,3.569-10.113,15.422-18.181,36.289-37.205,41.488-19.428,5.31-47.814,2.163-66.042-4.775-.15,3.082-.313,6.407-.474,9.731-.591.575-1.183,1.151-1.776,1.726Z"/><path class="cls-24" d="m191.262,140.795c-1.758.597-3.516,1.194-5.275,1.79.564-1.198,1.129-2.395,1.694-3.593,2.987-7.744,6.95-15.269,8.742-23.28,3.038-13.58-3.417-25.545-8.687-37.525.299-9.982-9.014-8.927-14.331-12.46.588-1.792,1.177-3.584,1.765-5.375.74,1.285,1.168,3.249,2.266,3.753,20.385,9.358,24.131,28.016,26.415,47.31,1.421,12.005-3.094,21.853-12.59,29.381Z"/><path class="cls-82" d="m175.171,60.352c-.588,1.792-1.177,3.584-1.766,5.375-1.779-.623-3.557-1.245-5.336-1.868,2.04-6.848-.688-10.683-8.063-11.235-8.608-.643-11.714,10.472-15.249,16.658.32-6.526-1.459-11.554-8.942-12.514-10.951-31.174,38.286-9.548,39.354,3.583Z"/><path class="cls-14" d="m46.34,110.396c1.752-1.214,3.504-2.427,5.257-3.64.613.015,1.224.029,1.835.043.034.599.068,1.198.102,1.797.653,1.143,1.307,2.286,1.96,3.428-8.738,7.823-9.72,12.076,1.587,19.725.594,3.03,1.188,6.06,1.782,9.09.072,2.338.145,4.677.217,7.015-2.431-4.135-4.862-8.271-7.294-12.406-6.161-6.585-7.631-14.628-7.24-23.25.598-.6,1.196-1.2,1.793-1.8Z"/><path class="cls-79" d="m94.546,94.324c.632-1.802,1.263-3.604,1.895-5.407,1.787-.601,3.575-1.202,5.362-1.804,4.752.005,9.504.01,14.256.016,1.374.147,2.748.294,4.121.44.182.589.365,1.178.547,1.766-7.481,3.467-14.963,6.934-22.445,10.4-1.205-.038-2.41-.076-3.614-.113-.041-1.766-.082-3.532-.123-5.298Z"/><path class="cls-34" d="m51.787,135.447c2.431,4.135,4.862,8.271,7.291,12.407,4.101.018,8.205.034,12.309.051,2.096,6.984,3.396,14.584,12.517,16.122,28.018,18.726,69.859,23.794,91.28-7.17,2.863-7.491,20.338-36.924,7.281-41.984-2.772-1.074-34.233,6.347-39.486,8.044,10.135-3.578,20.27-7.156,30.406-10.734,5.585-4.989,8.336-7.094,15.581-10.409,4.367,12.024.441,24.699-1.286,37.218-.565,1.198-1.13,2.395-1.694,3.593-11.945,20.71-17.082,35.338-42.944,40.105-21.563,3.975-38.581-3.302-59.077-7.855-5.339-1.217-10.679-2.435-16.018-3.653-2.325-1.606-5.988-2.74-6.749-4.898-3.574-10.125-6.35-20.532-9.411-30.838Z"/><path class="cls-35" d="m98.284,99.736c7.481-3.467,14.963-6.934,22.444-10.4-.182-.589-.365-1.178-.547-1.766-1.373-.147-2.747-.293-4.121-.44,7.485-3.627,15.118-6.988,22.376-11.023,2.576-1.432,4.241-4.502,6.322-6.824,3.534-6.186,6.641-17.302,15.249-16.658,7.375.551,10.102,4.387,8.062,11.235-.734,3.833-1.467,7.665-2.596,13.569,6.948-2.574,11.648-4.316,17.707-6.561.523,9.043-1.872,14.51-2.802,23.323-4.683,6.136-9.425,1.722-14.151.079-21.706-15.876-52.078,9.059-71.618,19.68,1.226-4.737,2.451-9.475,3.676-14.213Z"/><path class="cls-70" d="m94.546,94.324c.041,1.766.082,3.532.123,5.299-1.832.054-3.664.107-5.496.16l-3.496-.131c-6.302-5.555.714-18.033-12.39-21.278-6.501,9.563-13.152,19.001-19.853,28.425-.611-.014-1.223-.028-1.835-.043.954-10.866,14.755-38.063,28.808-38.43,14.364-.376,5.95,30.541,14.141,25.998Z"/><path class="cls-76" d="m166.226,94.269c4.726,1.644,9.468,6.057,14.153-.078,2.453-5.334,4.905-10.669,7.357-16.004,5.27,11.98,11.724,23.945,8.687,37.525-1.792,8.011-5.755,15.536-8.742,23.28,1.726-12.52,5.653-25.194,1.286-37.218-7.246,3.315-9.997,5.42-15.582,10.409-1.436-3.562,10.293-7.151-.021-10.696-2.385-1.77-4.77-3.54-7.155-5.31-.56-.592-1.119-1.184-1.679-1.776.569,0,1.134-.044,1.696-.133Z"/><path class="cls-63" d="m187.737,78.187c-2.452,5.335-4.904,10.67-7.357,16.004.929-8.814,3.324-14.281,2.8-23.324-6.059,2.245-10.76,3.987-17.707,6.561,1.129-5.904,1.862-9.736,2.596-13.569,1.779.622,3.558,1.244,5.336,1.867,5.317,3.534,14.63,2.478,14.332,12.46Z"/><path class="cls-26" d="m166.226,94.269c-.562.089-1.127.134-1.697.132-6.56-.03-13.118-.059-19.677-.087-13.767,6.535-27.533,13.071-41.299,19.606-2.968,1.79-5.936,3.58-8.905,5.37-1.838,1.167-3.677,2.333-5.515,3.5-3.622,2.903-7.243,5.806-10.865,8.708-1.706,2.513-3.413,5.027-5.119,7.54-.588,2.956-1.175,5.912-1.763,8.867-4.104-.017-8.207-.033-12.308-.051-.07-2.339-.143-4.678-.215-7.017,4.513,3.323,8.425,5.09,9.187-3.071.296-3.172,1.041-6.302,1.582-9.451,5.36-3.586,10.721-7.171,16.082-10.756,1.192-.621,2.384-1.242,3.576-1.864,1.773-.583,3.545-1.165,5.318-1.748,19.541-10.621,49.912-35.556,71.619-19.68Z"/><path class="cls-7" d="m53.433,106.799c6.701-9.424,13.352-18.862,19.853-28.425,13.104,3.246,6.088,15.723,12.391,21.279-1.208.584-2.416,1.167-3.624,1.751-3.256-2.603-6.512-5.205-10.483-8.38-4.188,6.023-7.51,10.802-10.833,15.581-2.401-.003-4.801-.007-7.202-.01-.034-.599-.068-1.198-.102-1.797Z"/><path class="cls-29" d="m69.633,128.317c-.541,3.149-1.285,6.279-1.582,9.451-.763,8.161-4.674,6.394-9.187,3.071-.594-3.029-1.188-6.059-1.782-9.088-.922-1.786-1.602-3.76-2.81-5.327-4.201-5.447-3.857-9.665,2.908-12.478,1.148,1.17,2.296,2.34,3.445,3.511,3.003,3.62,6.005,7.24,9.008,10.86Z"/><path class="cls-51" d="m60.624,117.456c-1.148-1.17-2.296-2.34-3.445-3.51-.562-.64-1.123-1.281-1.685-1.922-.654-1.143-1.307-2.285-1.96-3.428,2.401.003,4.802.006,7.202.01,2.369-.001,5.016.681,7.054-.141,4.906-1.978,9.526-4.662,14.262-7.061,1.208-.583,2.417-1.167,3.624-1.751,1.165.043,2.33.087,3.496.129-1.307,2.278-2.614,4.558-3.921,6.838-3.426,1.944-6.852,3.887-10.278,5.831-4.783,1.668-9.566,3.337-14.349,5.005Z"/><path class="cls-66" d="m55.495,112.024c.561.641,1.123,1.281,1.685,1.922-6.765,2.812-7.109,7.031-2.908,12.477,1.209,1.567,1.888,3.541,2.81,5.327-11.307-7.65-10.325-11.903-1.587-19.726Z"/><path class="cls-73" d="m85.252,106.62c1.307-2.28,2.614-4.559,3.921-6.838,1.831-.052,3.663-.105,5.496-.159,1.205.037,2.409.074,3.614.112-1.224,4.738-2.449,9.476-3.675,14.213-1.773.582-3.546,1.165-5.318,1.749,1.974-2.641,3.948-5.283,6.383-8.542-4.041-.208-7.231-.372-10.42-.536Z"/><path class="cls-52" d="m89.133,122.789c1.838-1.167,3.677-2.333,5.515-3.499,9.344,2.657,18.844,7.031,28.349,8.8,11.184,2.082,23.076-1.888,34.223-.757,19.658,1.994,21.754,11.261,17.964,29.525-21.422,30.964-63.263,25.895-91.28,7.17-3.585-8.33-7.17-16.66-10.755-24.99,1.706-2.513,3.413-5.027,5.12-7.539-7.485,38.87,55.276,54.821,80.749,35.056,13.609-10.559,18.224-26.68-.23-31.137-10.74-2.594-23.652,1.009-34.81-.762-12.295-1.952-23.398-7.213-34.846-11.867Z"/><path class="cls-40" d="m175.185,156.858c3.79-18.264,1.694-27.531-17.964-29.525-11.147-1.131-23.039,2.839-34.223.757-9.505-1.77-19.005-6.143-28.349-8.8,2.968-1.79,5.937-3.581,8.905-5.37,3.591,1.803,7.182,3.606,10.773,5.408,9.551,1.197,19.102,2.393,28.653,3.59,5.253-1.697,36.714-9.118,39.486-8.044,13.057,5.06-4.419,34.494-7.281,41.984Z"/><path class="cls-8" d="m142.98,122.918c-9.551-1.197-19.102-2.393-28.653-3.59-2.979-3.687-4.572-7.097,1.793-8.907,20.449,14.779,38.088,2.411,57.245-8.933,10.314,3.545-1.415,7.133.021,10.695-10.135,3.578-20.27,7.156-30.406,10.734Z"/><path class="cls-55" d="m73.15,139.038c3.585,8.33,7.17,16.66,10.755,24.99-9.121-1.538-10.421-9.139-12.517-16.122.587-2.956,1.175-5.912,1.763-8.868Z"/><path class="cls-56" d="m144.853,94.313c6.558.029,13.117.058,19.676.088.561.593,1.12,1.185,1.68,1.776-6.279,4.287-12.091,10.835-18.963,12.251-7.428,1.531-16.511,5.603-23.953-1.568,7.187-4.182,14.373-8.364,21.56-12.547Z"/><path class="cls-71" d="m123.294,106.86c7.442,7.171,16.525,3.099,23.953,1.568,6.872-1.416,12.684-7.964,18.963-12.251,2.385,1.771,4.77,3.541,7.155,5.311-19.157,11.344-36.796,23.712-57.245,8.933,2.392-1.187,4.783-2.374,7.175-3.561Z"/><path class="cls-61" d="m89.133,122.789c11.447,4.654,22.55,9.915,34.846,11.867,11.158,1.771,24.071-1.832,34.81.762,18.454,4.457,13.839,20.578.23,31.137-25.473,19.765-88.235,3.814-80.749-35.056,3.62-2.904,7.242-5.807,10.864-8.71Zm44.466,48.642c9.144-3.376,20.846-6.557,28.562-16.644,2.101-2.746,2.297-6.947,3.367-10.48-14.367-2.032-27.805.97-42.438-2.13-6.229-1.32-30.662-15.18-35.63-13.249-11.967,4.65-3.031,21.338,2.685,26.992,10.568,10.453,29.464,14.02,43.455,15.511Z"/><path class="cls-29" d="m85.252,106.62c3.189.164,6.379.328,10.42.536-2.435,3.258-4.409,5.9-6.383,8.542-1.192.62-2.384,1.242-3.576,1.863-4.892,1.05-10.802,4.238-10.74-5.109,3.426-1.944,6.852-3.887,10.278-5.831Z"/><path class="cls-76" d="m123.294,106.86c-2.392,1.187-4.783,2.374-7.175,3.561-6.365,1.811-4.772,5.22-1.793,8.907-3.591-1.803-7.182-3.605-10.773-5.408,13.766-6.536,27.532-13.071,41.299-19.607-7.185,4.182-14.372,8.364-21.558,12.547Z"/><path class="cls-73" d="m74.974,112.451c-.062,9.347,5.848,6.159,10.74,5.109-5.361,3.585-10.721,7.17-16.082,10.756-3.002-3.619-6.005-7.239-9.008-10.859,4.783-1.669,9.566-3.337,14.349-5.006Z"/><path class="cls-77" d="m82.053,101.403c-4.736,2.399-9.357,5.082-14.262,7.061-2.039.822-4.685.14-7.054.141,3.323-4.779,6.646-9.558,10.834-15.582,3.971,3.174,7.227,5.777,10.483,8.38Z"/><path class="cls-83" d="m133.6,171.431c-13.991-1.491-32.887-5.058-43.455-15.511-5.716-5.654-14.652-22.342-2.685-26.992,4.969-1.931,29.401,11.929,35.63,13.249,14.633,3.1,28.071.097,42.438,2.13-1.07,3.533-1.266,7.734-3.367,10.48-7.715,10.087-19.417,13.268-28.562,16.644Zm-42.027-33.869c-.746.693-1.493,1.385-2.239,2.078,8.442,25.913,46.458,35.013,64.619,12.75-10.422-1.755-20.062,1.359-30.512-.931-11.244-2.465-21.654-8.742-31.869-13.896Z"/><path class="cls-9" d="m91.573,137.562c10.215,5.154,20.625,11.432,31.869,13.896,10.449,2.29,20.09-.824,30.512.931-18.161,22.263-56.178,13.163-64.619-12.75.746-.693,1.493-1.385,2.239-2.078Z"/></svg>