<?xml version="1.0" encoding="UTF-8"?><svg id="Layer_1" xmlns="http://www.w3.org/2000/svg" viewBox="0 0 178.47 228.352"><defs><style>.cls-1{fill:#48868f;}.cls-2{fill:#498189;}.cls-3{fill:#2f636f;}.cls-4{fill:#80abb5;}.cls-5{fill:#2d4d5a;}.cls-6{fill:#5a8b95;}.cls-7{fill:#6b909c;}.cls-8{fill:#274f59;}.cls-9{fill:#517c87;}.cls-10{fill:#8abfcb;}.cls-11{fill:#49727d;}.cls-12{fill:#71a6af;}.cls-13{fill:#699aa5;}.cls-14{fill:#437380;}.cls-15{fill:#7294a0;}.cls-16{fill:#5f929c;}.cls-17{fill:#204551;}.cls-18{fill:#335667;}.cls-19{fill:#b0dce3;}.cls-20{fill:#284d58;}.cls-21{fill:#689ca4;}.cls-22{fill:#577988;}.cls-23{fill:#345b6a;}.cls-24{fill:#7baeb5;}.cls-25{fill:#459b9e;}.cls-26{fill:#30636a;}.cls-27{fill:#427984;}.cls-28{fill:#1e3d4a;}.cls-29{fill:#639ea5;}.cls-30{fill:#6f9ead;}.cls-31{fill:#5d8993;}.cls-32{fill:#43717d;}.cls-33{fill:#486978;}.cls-34{fill:#658895;}.cls-35{fill:#2c616b;}.cls-36{fill:#325665;}.cls-37{fill:#6ea8b4;}.cls-38{fill:#4a7a88;}.cls-39{fill:#85bcc2;}.cls-40{fill:#3a8088;}.cls-41{fill:#457e88;}.cls-42{fill:#35606f;}.cls-43{fill:#203f4c;}.cls-44{fill:#418790;}.cls-45{fill:#57818b;}.cls-46{fill:#5099a0;}.cls-47{fill:#7aacb9;}.cls-48{fill:#9fd2d9;}.cls-49{fill:#4b7682;}.cls-50{fill:#3c6d78;}.cls-51{fill:#4b6e7d;}.cls-52{fill:#51808d;}.cls-53{fill:#afdee4;}.cls-54{fill:#468992;}.cls-55{fill:#6d9ba3;}.cls-56{fill:#5499a2;}.cls-57{fill:#4d6c79;}.cls-58{fill:#82bec6;}.cls-59{fill:#3e717e;}.cls-60{fill:#284e5b;}.cls-61{fill:#3b5f6c;}.cls-62{fill:#2d4f5b;}.cls-63{fill:#375461;}.cls-64{fill:#78b1bb;}.cls-65{fill:#709ea9;}.cls-66{fill:#76b0b7;}.cls-67{fill:#32737c;}.cls-68{fill:#375f6c;}.cls-69{fill:#4a7e89;}.cls-70{fill:#3f7a85;}.cls-71{fill:#32626e;}.cls-72{fill:#7ca9b4;}.cls-73{fill:#0d202a;}.cls-74{fill:#86c1ca;}.cls-75{fill:#5e8690;}.cls-76{fill:#305664;}.cls-77{fill:#6f9da8;}</style></defs><path class="cls-28" d="m69.896,15.099C68.81,13.017,63.903.332,60.436.01c-3.342-.31-5.529,6.592-7.849,8.119-6.744,4.438-15.332,4.662-23.092,6.568-.205.731-.411,1.462-.616,2.193,18.39,7.488,27.533,13.045,18.453,32.881.507.002,1.014.005,1.521.008,1.993-4.538,3.986-9.075,5.98-13.612,1.918-8.832-7.163-11.819-9.705-18.115,6.414-5.554,11.396-14.169,18.881-8.635,3.235,2.392,5.66,14.414,7.038,17.947,4.129,10.585,7.311,16.886,20.063,17.919.939.056,1.879.111,2.818.167,0,0,.158-.366.158-.368-17.66-6.946-19.537-12.257-24.188-29.983Z"/><path class="cls-60" d="m48.853,49.78c-.507-.003-1.015-.006-1.522-.008-.502.5-1.004.999-1.507,1.499-7.347,11.748-17.768,20.215-28.526,27.932-2.201-3.644-3.981-6.589-5.76-9.534-.63.14-1.259.281-1.888.421-1.042,6.265-2.085,12.53-3.127,18.796,0,0,.108.048.107.048,1.416-3.266,2.832-6.532,4.299-9.916,9.004,12.527,30.588-17.711,37.81-24.794.038-1.481.077-2.962.115-4.443Z"/><path class="cls-20" d="m36.768,224.522c8.383,6.901,16.911,2.495,26.366,1.872,10.691-.705,21.658.12,32.42-.364-13.572-.504-27.143-1.009-40.715-1.513-10.034,4.932-12.647-.351-17.874-7.244-6.391-8.428-12.14-16.38-19.88-24.327-3.489-3.039-6.979-6.079-10.468-9.118,3.694,5.305,6.257,12.525,11.321,15.513,10.219,6.029,15.003,14.979,18.829,25.182Z"/><path class="cls-23" d="m6.618,183.828c3.49,3.039,6.979,6.079,10.469,9.117-1.995-2.53-3.99-5.06-5.985-7.59C.487,168.731,2.566,139.854.599,120.591c-.022-1.026-.045-2.052-.067-3.079-.164,10.271-.862,20.568-.343,30.804.526,10.358,2.257,20.654,3.46,30.977.99,1.511,1.979,3.023,2.969,4.535Z"/><path class="cls-71" d="m54.84,224.517c13.572.504,27.143,1.009,40.715,1.513.491-.028.981-.038,1.473-.03,8.551-4.017,17.101-8.033,25.651-12.05,0,0,0-.001,0-.001,11.707-9.609,15.277-9.338,30.142-10.57-.187-16.812,10.233-22.837,18.342-35.129,8.137-12.333,6.139-30.15,7.306-44.673-.717-6.331-1.433-12.663-2.224-19.648-12.376,3.879-22.363-25.901-27.339-34.951-9.984-18.161-34.025-18.569-53.346-20.75,5.334,2.014,10.705,3.937,15.989,6.074,3.276,1.324,6.421,2.972,9.624,4.475,13.992,1.563,24.12,7.796,27.237,22.501,10.886,7.173,12.068,20.118,18.008,30.233,17.141,2.148,7.761,39.45,1.53,48.24-3.077,17.669-15.698,36.419-33.105,39.227-2.073,1.435-4.145,2.87-6.218,4.305-11.174,9.57-19.333,15.954-34.684,16.711-13.592.67-26.695-5.638-39.104,3.03-.003.497-.003.995,0,1.493Z"/><path class="cls-67" d="m121.175,58.777c-3.204-1.503-6.348-3.15-9.624-4.475-5.284-2.137-10.655-4.06-15.989-6.074-.545-.928-1.089-1.856-1.635-2.781-.94-.053-1.88-.109-2.82-.165-.581.942-1.162,1.884-1.743,2.826-10.121,16.083-24.432-17.607-26.5-23.5-.74.013-1.48.026-2.221.038-2.94,8.864-5.88,17.729-8.82,26.593,2.535-2.919,5.071-5.838,6.356-7.317,9.906,4.083,20.075,9.839,30.742,11.28,10.717,1.447,21.459,1.838,32.254,3.575Z"/><path class="cls-35" d="m51.824,51.24c2.94-8.864,5.88-17.729,8.82-26.593.74-.013,1.48-.026,2.221-.038,2.068,5.893,16.379,39.583,26.502,23.501-20.367-1.188-19.885-22.76-28.944-36.329-1.095.202-2.19.403-3.285.605-.468,8.098-.786,15.812-2.305,23.782-1.993,4.537-3.987,9.075-5.98,13.612-.038,1.481-.076,2.962-.114,4.444.5.018,1,.026,1.5.023.528-1.002,1.057-2.005,1.585-3.007Z"/><path class="cls-8" d="m54.832,36.167c1.52-7.971,1.838-15.684,2.305-23.782,1.095-.202,2.19-.403,3.285-.605,9.059,13.57,8.577,35.142,28.944,36.33.579-.943,1.16-1.886,1.741-2.827-12.751-1.033-15.933-7.333-20.062-17.918-1.378-3.532-3.803-15.554-7.038-17.947-7.484-5.534-12.467,3.081-18.881,8.635,2.542,6.297,11.624,9.283,9.705,18.115Z"/><path class="cls-3" d="m50.239,54.247c-.5.003-1-.005-1.5-.023-7.222,7.083-28.806,37.321-37.81,24.793-1.467,3.383-2.883,6.65-4.299,9.916-2.032,9.527-4.064,19.053-6.097,28.58.022,1.026.045,2.052.067,3.078,1.469-4.554,2.939-9.107,4.409-13.66.822-7.642.879-14.761,10.769-18.177,6.278-2.168,11.019-8.778,16.45-13.395,6.004-7.037,12.008-14.074,18.013-21.111Z"/><path class="cls-20" d="m122.679,213.95c-8.55,4.017-17.101,8.034-25.651,12.05,9.799-1.364,19.141-3.697,25.651-12.05Z"/><path class="cls-50" d="m54.84,224.517c-.003-.498-.003-.995,0-1.493-9.87,2.573-11.527,1.905-15.051-6.06-1.127-7.021-3.59-13.282-9.512-17.795-5.937-4.525-11.741-9.224-17.604-13.847-.524.011-1.047.022-1.571.034,1.995,2.53,3.99,5.059,5.985,7.59,7.739,7.947,13.489,15.9,19.88,24.328,5.227,6.893,7.839,12.177,17.874,7.244Z"/><path class="cls-59" d="m11.102,185.355c.524-.011,1.047-.023,1.571-.034-7.657-22.828-10.375-52.981-7.58-76.805-.029-.529-.057-1.058-.086-1.587-1.469,4.554-2.939,9.107-4.408,13.661,1.968,19.263-.112,48.141,10.504,64.765Z"/><path class="cls-44" d="m50.239,54.247c-6.004,7.037-12.008,14.074-18.013,21.111.013.503.027,1.007.04,1.51,1.993-1.004,3.986-2.009,5.979-3.013l1.559-1.49c6.324-7.717,12.647-15.434,18.015-21.985,6.714,2.762,11.655,4.794,16.596,6.826,13.082,1.03,26.165,2.061,39.247,3.091,14.944,1.79,27.56,7.012,33.209,22.5.474.052.946.123,1.414.213.042-.578.085-1.155.127-1.733-3.119-14.704-13.247-20.937-27.238-22.501-10.795-1.737-21.537-2.127-32.254-3.575-10.667-1.441-20.836-7.196-30.742-11.28-1.285,1.479-3.82,4.398-6.356,7.317-.528,1.002-1.057,2.005-1.585,3.007Z"/><path class="cls-27" d="m39.79,216.964c3.523,7.966,5.18,8.633,15.051,6.06,12.409-8.668,25.512-2.36,39.104-3.03,15.351-.756,23.51-7.14,34.685-16.71-2.609,1.352-5.215,2.712-7.829,4.053-7.993,4.101-16.067,7.646-25.225,3.603-.456-.043-.913-.064-1.371-.064-1.047.011-2.094.021-3.141.032-8.439,3.572-15.489,1.275-24.107,2.838-10.251,1.859-17.068,11.771-27.166,3.218Z"/><path class="cls-4" d="m95.574,210.94c9.158,4.044,17.233.498,25.225-3.603,2.615-1.342,5.22-2.701,7.829-4.053,2.072-1.436,4.144-2.871,6.216-4.306,1.453-1.558,2.906-3.115,4.359-4.672-.5-1.948-1-3.895-1.501-5.843-6.922.79-12.556,7.858-18.297,11.548-7.625,4.9-15.466,7.611-23.832,10.929Z"/><path class="cls-1" d="m139.205,194.306c-1.453,1.557-2.907,3.114-4.359,4.672,17.408-2.807,30.029-21.557,33.105-39.226.495-3.023.99-6.046,1.486-9.068-1.156,1.224-2.312,2.447-3.515,3.72-.949-1.489-1.728-2.712-2.508-3.936-.952.525-1.904,1.05-2.856,1.574.002.564.004,1.128.006,1.692.435.984.869,1.968,1.304,2.951.054.48.082.962.083,1.445-3.058,13.153-9.457,24.335-19.659,33.273-1.029.968-2.058,1.935-3.087,2.903Z"/><path class="cls-40" d="m169.436,150.683c-.495,3.023-.991,6.046-1.486,9.069,6.231-8.79,15.611-46.092-1.53-48.24-.977.007-1.953.013-2.931.02,9.882,15.075,8.111,21.246,5.947,39.152Z"/><path class="cls-41" d="m163.491,111.531c.977-.007,1.954-.013,2.93-.02-5.94-10.115-7.122-23.06-18.008-30.233-.042.577-.084,1.154-.126,1.731,4.594,8.984,9.189,17.968,13.783,26.953.474.523.948,1.046,1.422,1.569Z"/><path class="cls-70" d="m32.266,76.868c-.013-.503-.027-1.007-.04-1.51-5.43,4.618-10.172,11.227-16.45,13.396-9.89,3.416-9.947,10.534-10.769,18.177.028.528.056,1.058.085,1.586,2.127-7.829,5.399-14.795,13.606-18.048,4.011-1.503,8.022-3.006,12.034-4.509,4.078-.8,8.155-1.6,12.233-2.4-.007-.384-.014-.767-.021-1.151-4.68,0-9.36,0-14.663,0,1.504-2.092,2.745-3.816,3.985-5.541Z"/><path class="cls-54" d="m18.699,90.469c-8.207,3.252-11.479,10.218-13.606,18.047-2.794,23.825-.076,53.978,7.58,76.805,5.863,4.623,11.667,9.322,17.604,13.847,5.922,4.513,8.385,10.774,9.512,17.795,10.098,8.552,16.915-1.359,27.166-3.218,8.618-1.563,15.668.734,24.107-2.838-.45-.557-.9-1.114-1.351-1.671-.074.58-.147,1.16-.22,1.74-8.031-.011-16.061-.023-24.092-.034-11.503,2.925-17.553,4.791-16.513-8.887-.991-.599-1.981-1.198-2.972-1.796-8.181,2.02-18.797-9.831-24.702-15.547-8.809-8.528-10.157-17.671-12.334-29.595-2.052-11.241-4.862-23.615-3.83-35.156,1.111-12.423,11.424-18.994,13.65-29.491Z"/><path class="cls-6" d="m32.266,76.868c-1.24,1.725-2.481,3.449-3.985,5.541,5.303,0,9.983,0,14.663,0,.007.384.014.767.021,1.151-4.078.8-8.155,1.6-12.233,2.399-1,2.498-2.001,4.997-3.001,7.496,4.116-3.394,7.143-4.558,12.011-6.491,1.902,5.628,3.337,11.093,4.557,16.91,3.589.096,7.178.192,10.766.288-6.589-4.636-2.14-10.424-.287-17.575,3.412,1.675,5.373,2.638,7.334,3.601.58-.928,1.159-1.856,1.739-2.784.049-1.989.098-3.977.147-5.965-1.103-6.525,1.778-10.319,7.986-12.164,1.484-.441,2.653-1.937,3.967-2.947-2.076-1.575-4.152-3.149-6.228-4.724-11.264,6.36-22.529,12.719-33.793,19.079-.366-.68-.732-1.36-1.099-2.039,1.138-1.596,2.276-3.192,3.414-4.788-1.993,1.004-3.986,2.009-5.979,3.013Z"/><path class="cls-12" d="m38.245,73.854c-1.138,1.596-2.276,3.192-3.414,4.788.366.68.732,1.36,1.099,2.039,11.265-6.36,22.529-12.719,33.795-19.078,1.601.038,3.2.074,4.8.111,8.407.034,17.196-1.466,25.121.506,9.092,2.262,17.417,7.6,26.075,11.602.529.477,1.058.953,1.586,1.43,3.472.495,6.944.99,10.415,1.485-.87-1.912-1.219-4.745-2.697-5.579-6.951-3.921-14.211-7.294-21.361-10.863-13.082-1.03-26.165-2.061-39.247-3.09-5.518,1.263-11.416,1.693-16.459,3.995-6.414,2.928-12.134,7.372-18.154,11.163l-1.559,1.49Z"/><path class="cls-72" d="m162.069,109.962c-4.594-8.985-9.188-17.969-13.782-26.953-.469-.089-.94-.16-1.415-.212-.513.046-1.025.091-1.538.136,1.817,4.517,3.539,9.075,5.47,13.544,4.567,10.569,11.747,20.334,9.93,32.827,1.391,1.635,2.781,3.271,4.171,4.906.257-3.042,1.078-6.167.645-9.107-.752-5.107-2.279-10.1-3.482-15.142Z"/><path class="cls-25" d="m39.804,72.364c6.019-3.79,11.74-8.235,18.154-11.163,5.043-2.302,10.941-2.733,16.459-3.995-4.942-2.033-9.883-4.066-16.597-6.827-5.368,6.551-11.692,14.268-18.015,21.985Z"/><path class="cls-56" d="m145.334,82.934c.512-.045,1.025-.09,1.538-.136-5.649-15.489-18.264-20.711-33.208-22.501,7.15,3.569,14.41,6.941,21.361,10.863,1.478.834,1.828,3.667,2.698,5.579.455.444.91.887,1.365,1.331,2.082,1.621,4.165,3.243,6.247,4.864Z"/><path class="cls-15" d="m95.574,210.94c8.366-3.318,16.208-6.029,23.832-10.929,5.741-3.69,11.375-10.757,18.298-11.549,0-.001.186-.293.185-.291-.56-1.381-1.119-2.765-1.678-4.148l-.048-.068c-4.683,3.461-8.947,7.859-14.141,10.178-9.589,4.282-19.723,7.345-29.63,10.916l1.811,5.827c.458,0,.915.022,1.371.064Z"/><path class="cls-43" d="m94.203,210.876c-.604-1.942-1.208-3.885-1.811-5.827-3.636-8.567-2.278-11.034,6.656-12.322,1.41-.203,2.759-.829,4.136-1.26-.53-1.049-1.059-2.098-1.588-3.146-4.679,3.55-13.242.719-14.98,9.102-.103.397-.215.792-.336,1.184-1.931,1.09-3.861,2.179-5.792,3.269,3.074,2.454,6.149,4.908,9.223,7.362.45.557.9,1.114,1.351,1.671,1.047-.011,2.094-.021,3.141-.032Z"/><path class="cls-15" d="m139.205,194.306c1.029-.968,2.058-1.935,3.087-2.903,1.321-13.041,11.799-23.165,19.659-33.273-.001-.483-.029-.965-.083-1.445-2.631.837-6.567.864-7.676,2.646-5.828,9.368-10.941,19.18-16.302,28.838,0,0-.185.292-.186.293.5,1.949,1,3.897,1.5,5.844Z"/><path class="cls-57" d="m160.564,153.733c-.002-.564-.004-1.128-.007-1.69-2.869.002-5.736.002-10.378.002,3.37-7.494,6.082-13.526,8.793-19.556-1.531-1.973-3.062-3.947-4.593-5.921-.762,10.065-9.816,18.006-8.619,29.559-7.472,1.43-10.414,8.271-12.448,15.86.451,2.505.903,5.013,1.356,7.52.498,1.483.997,2.966,1.496,4.449,0,0,.048.068.048.066.445-11.861,11.385-18.16,14.891-28.073,3.279-.768,6.37-1.491,9.461-2.215Z"/><path class="cls-46" d="m162.069,109.962c1.202,5.041,2.73,10.034,3.482,15.142.433,2.94-.388,6.065-.645,9.106-.497,5.419-.995,10.838-1.492,16.258.78,1.223,1.559,2.447,2.508,3.936,1.203-1.273,2.359-2.497,3.515-3.72,2.164-17.906,3.936-24.077-5.947-39.152-.473-.523-.947-1.046-1.421-1.569Z"/><path class="cls-7" d="m163.414,150.468c.497-5.42.995-10.839,1.492-16.258-1.391-1.634-2.781-3.27-4.174-4.904-.002.002-.469.396-.469.396-.43.928-.861,1.857-1.291,2.786-2.712,6.032-5.424,12.063-8.794,19.557,4.642,0,7.51,0,10.378-.002.954-.526,1.905-1.051,2.857-1.576Z"/><path class="cls-4" d="m161.951,158.13c-7.86,10.107-18.339,20.232-19.659,33.273,10.202-8.938,16.601-20.12,19.659-33.273Z"/><path class="cls-22" d="m160.564,153.733c-3.091.724-6.183,1.447-9.462,2.215-3.506,9.913-14.445,16.212-14.891,28.073.559,1.385,1.118,2.769,1.678,4.15,5.362-9.66,10.475-19.472,16.303-28.84,1.109-1.782,5.045-1.809,7.676-2.646-.435-.984-.87-1.968-1.304-2.952Z"/><path class="cls-29" d="m27.731,93.455c1-2.499,2-4.998,3.001-7.496-4.012,1.504-8.023,3.006-12.034,4.51-2.226,10.498-12.539,17.068-13.65,29.491-1.032,11.541,1.778,23.915,3.83,35.156,2.177,11.924,3.524,21.067,12.334,29.595,5.905,5.716,16.521,17.568,24.701,15.548-1.038-1.462-2.075-2.925-3.113-4.388-10.545-2.429-16.376-10.608-22.258-18.566-.943-1.276-.366-3.673-.491-5.552-1.714-1.018-4.529-1.706-4.951-3.111-1.75-5.835-2.779-11.887-4.072-17.859-4.823-16.645-9.177-41.089,8.967-51.264.579.044,1.159.088,1.738.132,1.442.364,2.884.728,4.326,1.092.557-2.429,1.115-4.858,1.672-7.287Z"/><path class="cls-76" d="m42.801,195.871c1.037,1.463,2.075,2.926,3.113,4.388.991.598,1.982,1.197,2.972,1.795.431-.167.878-.246,1.341-.238l.014.011c2.096-.457,4.209-1.364,6.287-1.293,7.993.276,15.975.866,23.961,1.339,1.931-1.09,3.861-2.179,5.793-3.268-13.858,1.095-44.271,2.025-40.385-16.21-.069-.56-.138-1.119-.205-1.677-.895-.484-1.792-.969-2.688-1.454-.082,4.537-.165,9.074-.247,13.61.015.998.03,1.996.045,2.995Z"/><path class="cls-24" d="m65.4,210.942c8.031.011,16.061.023,24.092.034-3.603-1.235-7.128-2.837-10.826-3.633-9.434-2.031-18.945-3.701-28.425-5.516,0,0-.014-.011-.014-.011-.352,5.281,3.225,6.713,7.409,7.554,2.589.52,5.176,1.047,7.764,1.571Z"/><path class="cls-21" d="m50.241,201.828c9.48,1.815,18.992,3.486,28.425,5.516,3.698.796,7.222,2.398,10.826,3.633.073-.58.146-1.16.219-1.74-3.074-2.454-6.148-4.908-9.223-7.362-7.986-.473-15.968-1.063-23.961-1.339-2.078-.072-4.19.835-6.287,1.293Z"/><path class="cls-21" d="m65.4,210.942c-2.588-.524-5.175-1.051-7.764-1.571-4.184-.841-7.76-2.273-7.409-7.554-.463-.009-.91.07-1.341.237-1.04,13.679,5.011,11.813,16.514,8.888Z"/><path class="cls-43" d="m26.06,100.742c-1.442-.364-2.884-.728-4.326-1.092-.021,1.435-.042,2.871-.062,4.307.639,1.036,1.277,2.071,1.913,3.102,4.561-3.444,18.816-1.649,24.657,3.177-4.753,4.521-12.136,14.826-18.312,17.25-5.997,2.354-8.633-1.442-14.365-1.013,1.589,1.957,3.178,3.914,4.766,5.873,2.993,2.565,5.987,5.129,8.981,7.692,2.493-4.476,4.986-8.953,7.479-13.429,3.032-2.986,6.063-5.972,9.094-8.958,1.403-1.649,2.806-3.298,4.209-4.947,4.861-5.043,8.067-5.192,10.379-.385,3.229,6.712,6.352,13.476,9.52,20.218,1.077,1.955,2.155,3.91,3.232,5.866,1.886,2.124,3.773,4.249,5.659,6.373.575.955,1.15,1.911,1.725,2.866,5.04,15.667-5.747,6.681-14.246,11.635-14.007,8.164,3.957,17.634,11.128,23.02,1.985,2.036,3.971,4.072,5.956,6.108l.003.02c.51-1.53,1.019-3.06,1.529-4.59.959-5.677,16.534-3.489,21.771-3.792.114.469.532,2.198.95,3.927.505-.5,1.01-.999,1.514-1.501,3.991-5.067,7.984-10.132,11.976-15.198-7.215,1.443-10.105-4.174-14.987-8.584,22.484,2.588,25.545,1.064,25.629-12.853,2.174,1.293,3.999,2.38,5.824,3.466-.219-2.976-.438-5.953-.585-7.945-7.107,1.223-13.031,2.243-20.885,3.595,4.329,1.243,6.49,1.864,8.651,2.484-4.055,3.998-13.368,1.85-18.939,3.618-6.403,2.032-13.489,6.323-19.635,9.094-.49-.644-.981-1.288-1.471-1.932.609-2.036,1.219-4.072,1.828-6.109.406-3.518.813-7.037,1.22-10.554.004-2.073.006-4.147.009-6.22-4.951,6.362-7.641,6.394-12.112-.278-1.741-2.598-2.789-5.659-4.153-8.509-1.98-4.009-3.96-8.017-5.94-12.026-4.08-6.906-1.945-12.224,4.224-16.512-2.497-1.102-4.994-2.203-7.491-3.305.286,5.254-2.677,8.002-7.311,9.46-3.589-.096-7.178-.192-10.766-.288-6.08-1.044-12.16-2.088-18.24-3.132Z"/><path class="cls-77" d="m75.951,66.327c-1.314,1.011-2.483,2.506-3.967,2.947-6.208,1.845-9.088,5.639-7.987,12.164,3.332-.898,6.632-2.171,10.018-2.463,1.012-.087,2.261,2.572,3.402,3.973.1,2.05.2,4.1.3,6.15.422-1.03.845-2.059,1.268-3.088.512-2.475,1.023-4.949,1.535-7.424.464-1.044.927-2.088,1.391-3.131.177-2.145.354-4.291.532-6.446-2.41-.996-4.451-1.839-6.491-2.682Z"/><path class="cls-69" d="m26.06,100.742c6.08,1.044,12.159,2.088,18.24,3.132-1.22-5.817-2.655-11.282-4.557-16.91-4.868,1.933-7.895,3.096-12.011,6.491-.557,2.429-1.114,4.858-1.671,7.287Z"/><path class="cls-48" d="m77.717,89.099c-.1-2.05-.2-4.1-.3-6.151-4.522,1.485-9.044,2.97-13.566,4.456-.579.928-1.159,1.856-1.737,2.785.089,1.505.176,3.009.263,4.513,2.497,1.102,4.994,2.203,7.49,3.304,1.387-.505,2.774-1.011,4.162-1.516,1.229-2.464,2.459-4.927,3.688-7.391Z"/><path class="cls-47" d="m62.377,94.702c-.087-1.504-.174-3.008-.263-4.513-1.963-.964-3.924-1.927-7.336-3.602-1.853,7.151-6.302,12.939.287,17.575,4.634-1.458,7.597-4.206,7.312-9.46Z"/><path class="cls-38" d="m75.951,66.327c2.041.843,4.082,1.687,6.491,2.682-.178,2.155-.355,4.3-.531,6.444,2.052-1.947,4.104-3.893,7.386-7.007-5.787-2.637-10.28-4.684-14.774-6.732-1.599-.037-3.199-.073-4.8-.111,2.075,1.573,4.151,3.148,6.227,4.723Z"/><path class="cls-39" d="m63.851,87.404c4.522-1.485,9.044-2.971,13.566-4.456-1.141-1.4-2.39-4.06-3.402-3.973-3.385.291-6.686,1.565-10.018,2.463-.048,1.989-.097,3.977-.146,5.966Z"/><path class="cls-16" d="m74.525,61.716c4.493,2.047,8.987,4.095,14.774,6.732-3.283,3.114-5.334,5.06-7.386,7.007-.464,1.045-.928,2.089-1.392,3.131,6.348-3.793,11.459.586,17.527,1.959-1.707,2.178-2.897,3.697-4.087,5.216.627.612,1.254,1.224,1.88,1.835,1.402-.593,2.804-1.185,4.206-1.778,3.104-3.123,5.182-3.188,8.21.864,8.525,11.406,6.194,23.042,2.475,35.132-2.914.148-5.399.275-7.884.401,5.134-.501,10.267-1.001,15.401-1.502,1.039-11.4,4.912-38.052-11.271-42.369-.105-.727-.211-1.454-.316-2.182,6.353-.78,12.706-1.559,19.059-2.339-8.658-4.002-16.984-9.341-26.075-11.602-7.924-1.971-16.714-.472-25.121-.506Z"/><path class="cls-52" d="m125.72,73.823c-6.353.78-12.706,1.559-19.059,2.339.105.727.211,1.454.316,2.182,16.183,4.317,12.31,30.969,11.271,42.368,1.988-1.055,3.976-2.109,5.964-3.163.79-9.387,1.579-18.774,2.419-28.754,4.997,2.081,8.087,3.367,11.176,4.653.576-1.46,1.152-2.921,1.728-4.381-4.607-3.065-9.214-6.13-13.821-9.194-4.58-.407-9.16-.813-13.74-1.22.003-.732.007-1.464.011-2.196,5.108-.401,10.215-.802,15.322-1.203-.529-.477-1.058-.954-1.586-1.43Z"/><path class="cls-42" d="m127.307,75.254c-5.108.401-10.215.802-15.322,1.203-.004.732-.007,1.464-.011,2.196,4.58.407,9.16.813,13.74,1.22,4.458-.601,8.916-1.202,13.373-1.802-.455-.444-.91-.887-1.365-1.331-3.472-.495-6.944-.99-10.416-1.485Z"/><path class="cls-7" d="m139.087,78.07c-4.458.601-8.916,1.202-13.373,1.802,4.607,3.065,9.214,6.13,13.82,9.194.445-.767.737-1.959,1.378-2.191.78-.283,1.854.241,2.801.416.873,2.766,1.609,5.585,2.641,8.29,4.137,10.835,8.366,21.635,12.56,32.448.45.558.899,1.116,1.349,1.674,0,0,.467-.394.469-.396,1.819-12.495-5.36-22.26-9.928-32.829-1.931-4.468-3.653-9.027-5.47-13.544-2.082-1.621-4.165-3.242-6.247-4.864Z"/><path class="cls-22" d="m136.163,183.955c-.499-1.483-.997-2.966-1.495-4.451-8.653,2.792-14.579,7.79-21.853,13.304-2.534-2.232-4.506-3.969-6.478-5.706-1.051,1.455-2.101,2.91-3.152,4.365-1.377.431-2.727,1.057-4.137,1.26-8.934,1.288-10.292,3.755-6.656,12.322,9.906-3.57,20.041-6.633,29.629-10.915,5.194-2.319,9.458-6.718,14.141-10.178Z"/><path class="cls-34" d="m45.897,182.397c-3.886,18.234,26.527,17.305,40.384,16.209.121-.393.233-.788.335-1.185-.101-.947-.202-1.894-.302-2.84-6.92-1.468-13.973-2.496-20.722-4.53-6.724-2.026-13.142-5.061-19.695-7.654Z"/><path class="cls-18" d="m86.314,194.581c.101.947.201,1.894.302,2.84,1.739-8.383,10.301-5.551,14.98-9.101.87-1.608,1.739-3.216,2.426-4.485-6.627,0-12.835,0-19.043,0-.51,1.53-1.019,3.06-1.529,4.59.955,2.052,1.909,4.104,2.863,6.156Z"/><path class="cls-63" d="m84.98,183.836c6.208,0,12.417,0,19.043,0-.687,1.269-1.556,2.877-2.426,4.485.529,1.048,1.058,2.097,1.588,3.146,1.051-1.454,2.102-2.909,3.151-4.367.454-1.045.91-2.087,1.365-3.129-.418-1.729-.837-3.458-.95-3.927-5.238.304-20.812-1.885-21.771,3.792Z"/><path class="cls-61" d="m87.839,141.551c-.406,3.518-.813,7.037-1.22,10.556,9.692-3.075,23.189-5.542,31.619-11.836,7.784-5.811,13.208-13.473,22.064-19.129,12.406,9.727,5.182,17.188-1.092,29.639-3.518,6.022-7.785,11.815-5.966,19.47-.002.524-.004,1.049-.007,1.573l.077.164c2.033-7.591,4.975-14.432,12.447-15.862-1.197-11.552,7.857-19.494,8.619-29.558-5.014-6.435-10.028-12.871-15.073-19.346-5.194,2.809-7.59,9.891-12.726,13.598-4.28,3.089-12.867,3.792-15.959,7.321.334,2.381.669,4.763.864,6.151-8.647,4.364-14.079,6.801-23.645,7.259Z"/><path class="cls-17" d="m110.619,128.141c3.092-3.528,11.68-4.232,15.959-7.321,5.136-3.707,7.533-10.79,12.726-13.598,5.045,6.475,10.059,12.911,15.073,19.346,1.531,1.974,3.062,3.948,4.593,5.921.431-.93.861-1.858,1.291-2.787-.45-.558-.9-1.116-1.35-1.674-3.968-5.656-7.454-11.74-12.017-16.866-6.663-7.485-7.127-15.249-3.185-23.871-.947-.175-2.02-.699-2.801-.416-.64.232-.932,1.424-1.378,2.191-.575,1.461-1.151,2.922-1.727,4.382-1.744,9.603-6.266,17.643-13.595,24.101-1.988,1.054-3.976,2.108-5.964,3.163-5.133.501-10.267,1.002-15.4,1.502-.441-.487-.884-.974-1.326-1.46-3.051-1.556-6.102-3.112-9.153-4.668-.389.003-.773-.04-1.152-.128-.607.591-1.215,1.182-1.822,1.773.544,2.948,1.088,5.897,1.631,8.845,6.123-5.68,11.133.096,16.557,1.608,1.012-.014,2.025-.028,3.037-.042Z"/><path class="cls-33" d="m107.701,183.97c-.456,1.042-.912,2.084-1.365,3.129,1.973,1.74,3.945,3.477,6.479,5.709,7.274-5.514,13.2-10.513,21.853-13.304-.453-2.505-.905-5.013-1.356-7.518,0,.002-.076-.162-.076-.162-3.676,2.913-7.533,5.629-10.982,8.79-4.047,3.709-8.12,5.222-13.039,1.857-.505.5-1.01.999-1.515,1.499Z"/><path class="cls-75" d="m20.331,132.344c-1.589-1.957-3.178-3.914-4.766-5.87,2.036-7.505,4.071-15.012,6.106-22.518.021-1.436.041-2.871.062-4.307-.579-.044-1.158-.088-1.736-.132-2.976,11.038-5.953,22.075-8.929,33.113,1.374-.127,2.748-.254,4.269-.394-2.669,14.39,3.168,24.189,6.26,37.941,0,0,.186.121.184.121,1.486-1.523,2.975-3.046,4.463-4.57.002-.963.004-1.926.006-2.888-4.631-9.65-10.821-18.998-5.92-30.495Z"/><path class="cls-66" d="m11.067,132.631c2.977-11.038,5.954-22.076,8.93-33.113-18.145,10.175-13.791,34.62-8.967,51.263.535-.537,1.069-1.072,1.603-1.608-.521-5.514-1.043-11.028-1.565-16.543Z"/><path class="cls-2" d="m42.801,195.871c-.015-.998-.03-1.996-.045-2.995-.488.006-.976.009-1.464.011-9.181-5.221-17.317-11.342-19.509-22.59,0,0-.186-.121-.185-.119-.441.056-.88.125-1.317.208-.043.461-.12.917-.23,1.367.126,1.879-.452,4.276.491,5.552,5.882,7.958,11.713,16.138,22.258,18.566Z"/><path class="cls-64" d="m20.051,171.753c.11-.45.187-.905.229-1.367-2.55-7.071-5.099-14.141-7.648-21.212-.534.536-1.067,1.071-1.602,1.608,1.292,5.973,2.32,12.025,4.071,17.86.421,1.405,3.236,2.093,4.951,3.111Z"/><path class="cls-51" d="m86.314,194.581c-.954-2.052-1.908-4.104-2.863-6.156,0,0-.003-.02-.003-.02-12.045-3.023-24.09-6.046-36.136-9.068-.541.461-1.082.921-1.622,1.382.068.559.137,1.118.206,1.678,6.553,2.593,12.972,5.629,19.696,7.655,6.749,2.034,13.802,3.061,20.722,4.529Z"/><path class="cls-45" d="m41.292,192.887c.488-.002.976-.005,1.464-.011.082-4.537.165-9.074.246-13.61-1.082-1.987-2.164-3.975-3.245-5.962-1.036-1.991-2.072-3.982-3.107-5.974-.864-1.916-1.728-3.832-2.779-6.161-2.391,1.832-4.313,3.305-6.235,4.778,2.9,4.579,5.167,9.777,8.875,13.568,3.926,4.014,5.34,8.143,4.781,13.372Z"/><path class="cls-43" d="m39.757,173.304c1.081,1.987,2.162,3.975,3.245,5.962.897.485,1.794.97,2.689,1.454.54-.462,1.081-.922,1.621-1.383,5.023-.502,10.046-1.004,15.068-1.506-2.523-1.024-5.045-2.048-7.568-3.072-4.923.66-10.438,3.743-13.489-3.282-.522.609-1.045,1.218-1.567,1.827Z"/><path class="cls-68" d="m39.757,173.304c.522-.609,1.044-1.218,1.567-1.827,3.051,7.025,8.565,3.942,13.489,3.282-4.392-6.269-21.771-24.431-11.546-31.909,8.735-6.388,27.112,17.894,37.342,4.793-.575-.955-1.15-1.911-1.725-2.867-3.275,6.065-6.936,1.109-9.587-.247-11.009-5.634-21.7-11.891-32.507-17.919-2.493,4.476-4.986,8.953-7.48,13.43.467,5.561.935,11.12,1.403,16.68.761-2.527,1.522-5.055,2.329-7.734,2.077,5.877,4.137,11.707,6.197,17.538-.863.269-1.727.538-2.59.807,1.036,1.991,2.072,3.982,3.108,5.974Z"/><path class="cls-62" d="m80.609,147.643c-10.229,13.102-28.607-11.181-37.342-4.793-10.225,7.478,7.154,25.64,11.546,31.909,2.522,1.024,5.045,2.048,7.568,3.071,5.037,1.489,10.074,2.978,15.111,4.467-7.171-5.386-25.135-14.856-11.128-23.02,8.498-4.954,19.286,4.033,14.246-11.635Z"/><path class="cls-5" d="m139.209,150.781c6.275-12.45,13.498-19.911,1.092-29.639-8.856,5.655-14.28,13.317-22.064,19.129-8.43,6.294-21.927,8.762-31.619,11.836-.608,2.035-1.217,4.072-1.827,6.108.49.644.981,1.288,1.471,1.932,6.146-2.771,13.232-7.062,19.635-9.094,5.57-1.768,14.884.38,18.939-3.618-2.161-.621-4.322-1.241-8.651-2.484,7.854-1.352,13.779-2.372,20.885-3.595.147,1.992.366,4.969.586,7.944.518.493,1.034.987,1.55,1.481Z"/><path class="cls-14" d="m21.671,103.956c-2.035,7.506-4.071,15.012-6.106,22.518,5.731-.43,8.367,3.366,14.364,1.012,6.176-2.424,13.559-12.729,18.312-17.25-5.841-4.826-20.096-6.622-24.657-3.177-.636-1.031-1.274-2.067-1.913-3.102Z"/><path class="cls-19" d="m74.029,96.49c-1.387.505-2.775,1.01-4.162,1.516-6.168,4.289-8.303,9.607-4.223,16.513,6.861,1.904,13.709,3.857,20.616,5.572.373.093,1.244-1.816,1.884-2.792-4.483-7.086-7.095-15.44-14.115-20.809Z"/><path class="cls-11" d="m36.79,126.61c10.807,6.028,21.498,12.285,32.507,17.919,2.651,1.357,6.312,6.312,9.587.247-1.887-2.124-3.774-4.248-5.662-6.372-12.002-3.118-21.503-9.525-27.338-20.752-3.031,2.986-6.063,5.972-9.094,8.958Z"/><path class="cls-73" d="m139.209,150.781c-.516-.494-1.033-.988-1.55-1.481-1.826-1.085-3.652-2.171-5.825-3.465-.084,13.917-3.145,15.441-25.629,12.853,4.882,4.41,7.772,10.028,14.987,8.584,5.139-3.539,8.463.253,12.052,2.979-1.819-7.655,2.448-13.448,5.966-19.47Z"/><path class="cls-49" d="m30.713,156.719c-.468-5.56-.936-11.12-1.403-16.68-2.993-2.564-5.988-5.128-8.98-7.693-4.9,11.495,1.289,20.843,5.92,30.493,1.487-2.04,2.975-4.08,4.463-6.119Z"/><path class="cls-63" d="m133.243,170.251c-3.588-2.726-6.912-6.518-12.052-2.979-3.992,5.066-7.984,10.131-11.976,15.198,4.92,3.366,8.993,1.853,13.04-1.856,3.449-3.161,7.306-5.878,10.982-8.79.002-.524.004-1.048.006-1.573Z"/><path class="cls-9" d="m110.619,128.141c-1.012.014-2.025.028-3.037.042-1.585,4.544-12.162,4.762-16.174,5.578-.358-.551-1.147-1.768-1.937-2.984-.541,1.518-1.082,3.037-1.623,4.555-.002,2.074-.005,4.147-.008,6.221,9.564-.458,14.996-2.896,23.643-7.26-.195-1.389-.53-3.77-.864-6.151Z"/><path class="cls-10" d="m88.144,117.298c-.639.977-1.51,2.885-1.884,2.793-6.908-1.715-13.756-3.669-20.617-5.572,1.98,4.009,3.96,8.017,5.94,12.026,5.931.437,11.862.875,17.793,1.312.55-.427,1.099-.854,1.649-1.281-.544-2.948-1.088-5.897-1.631-8.846-.408-.17-.824-.313-1.25-.432Z"/><path class="cls-65" d="m69.992,132.537c-3.168-6.742-6.29-13.506-9.52-20.218-2.313-4.807-5.519-4.658-10.379.386,1.448,2.181,2.547,4.735,4.41,6.469,4.988,4.642,10.303,8.933,15.489,13.364Z"/><path class="cls-31" d="m69.992,132.537c-5.185-4.43-10.501-8.721-15.489-13.364-1.863-1.734-2.962-4.288-4.41-6.469-1.404,1.648-2.807,3.297-4.21,4.946,5.836,11.228,15.337,17.634,27.339,20.752-1.076-1.956-2.153-3.911-3.23-5.866Z"/><path class="cls-30" d="m89.377,127.856c-5.931-.437-11.862-.874-17.793-1.312,1.364,2.85,2.412,5.911,4.153,8.509,4.471,6.672,7.16,6.64,12.112.278.541-1.519,1.082-3.037,1.623-4.553-.031-.972-.064-1.947-.095-2.923Z"/><path class="cls-36" d="m77.491,182.298c-5.037-1.489-10.074-2.978-15.111-4.467-5.023.502-10.046,1.004-15.068,1.507,12.046,3.023,24.091,6.045,36.136,9.068-1.986-2.036-3.971-4.072-5.957-6.108Z"/><path class="cls-58" d="m93.96,85.759c1.19-1.519,2.38-3.038,4.087-5.216-6.068-1.372-11.178-5.752-17.527-1.959-.511,2.477-1.023,4.951-1.535,7.426,5.122,7.718,10.011,1.523,14.975-.251Z"/><path class="cls-26" d="m93.96,85.76c-4.963,1.774-9.852,7.969-14.975.251-.423,1.03-.846,2.059-1.268,3.088-1.229,2.464-2.459,4.927-3.688,7.391,7.02,5.369,9.632,13.723,14.115,20.809.426.118.842.262,1.25.431.607-.591,1.215-1.181,1.822-1.773-1.699-2.447-3.426-4.875-5.091-7.345-7.508-11.133-6.613-13.832,6.06-18.396,1.218-.874,2.437-1.748,3.655-2.622-.627-.612-1.254-1.223-1.88-1.835Z"/><path class="cls-74" d="m95.84,87.595c-1.218.874-2.437,1.748-3.655,2.622,6.211,2.769,9.419,10.335,7.2,17.88-1.053,3.582-1.25,8.356-7.017,7.989,3.051,1.556,6.102,3.112,9.153,4.668,2.035-3.539,4.507-6.901,6.02-10.65,4.021-9.966-.2-17.664-7.495-24.287-1.402.593-2.804,1.185-4.206,1.778Z"/><path class="cls-37" d="m100.047,85.817c7.295,6.623,11.516,14.32,7.495,24.287-1.513,3.749-3.985,7.111-6.02,10.65.442.486.884.973,1.326,1.46,2.484-.126,4.969-.252,7.883-.401,3.719-12.09,6.049-23.726-2.475-35.132-3.028-4.052-5.106-3.988-8.21-.864Z"/><path class="cls-32" d="m124.211,117.549c7.329-6.458,11.851-14.498,13.595-24.101-3.089-1.286-6.179-2.572-11.176-4.653-.84,9.981-1.629,19.367-2.419,28.754Z"/><path class="cls-52" d="m143.712,87.291c-3.943,8.622-3.479,16.386,3.185,23.871,4.563,5.127,8.049,11.211,12.017,16.866-4.195-10.813-8.423-21.613-12.56-32.448-1.033-2.705-1.769-5.523-2.641-8.29Z"/><path class="cls-53" d="m92.369,116.086c5.767.366,5.963-4.407,7.017-7.989,2.219-7.545-.989-15.11-7.2-17.88-12.674,4.564-13.569,7.262-6.061,18.396,1.665,2.469,3.392,4.898,5.091,7.345.379.088.764.131,1.153.128Z"/><path class="cls-13" d="m89.377,127.856c.032.975.064,1.95.095,2.923.789,1.214,1.579,2.43,1.936,2.981,4.012-.816,14.589-1.033,16.174-5.578-5.424-1.511-10.433-7.287-16.557-1.607-.55.427-1.099.854-1.649,1.281Z"/><path class="cls-55" d="m41.292,192.887c.559-5.229-.855-9.359-4.781-13.372-3.708-3.791-5.975-8.989-8.875-13.569-.458-.107-.922-.18-1.391-.219-1.488,1.523-2.977,3.046-4.463,4.57,2.193,11.248,10.33,17.369,19.511,22.59Z"/><path class="cls-29" d="m12.632,149.173c2.549,7.07,5.098,14.141,7.648,21.212.438-.082.877-.151,1.318-.207-3.093-13.753-8.931-23.552-6.262-37.942-1.521.14-2.895.267-4.269.394.521,5.515,1.043,11.029,1.564,16.543Z"/><path class="cls-43" d="m26.244,165.728c.469.039.933.112,1.391.219,1.922-1.473,3.844-2.946,6.235-4.778,1.051,2.329,1.915,4.245,2.779,6.161.863-.269,1.726-.538,2.589-.807-2.06-5.83-4.121-11.661-6.197-17.538-.807,2.68-1.568,5.207-2.329,7.734-1.488,2.04-2.975,4.079-4.463,6.119-.002.963-.004,1.926-.006,2.889Z"/></svg>