<?xml version="1.0" encoding="UTF-8"?>
<svg id="Layer_1" data-name="Layer 1" xmlns="http://www.w3.org/2000/svg" viewBox="0 0 318.21 293.56">
  <defs>
    <style>
      .cls-1 {
        fill: #60bb46;
      }

      .cls-2 {
        fill: #303330;
      }

      .cls-3 {
        fill: #05614f;
      }

      .cls-4 {
        fill: #656868;
      }

      .cls-5 {
        fill: #31aa49;
      }

      .cls-6 {
        fill: #192715;
      }

      .cls-7 {
        fill: #2d4c23;
      }

      .cls-8 {
        fill: #218d44;
      }

      .cls-9 {
        fill: #2a2b2a;
      }

      .cls-10 {
        fill: none;
      }

      .cls-11 {
        fill: #5e9641;
      }

      .cls-12 {
        fill: #63bc46;
      }

      .cls-13 {
        fill: #525454;
      }

      .cls-14 {
        fill: #bedda3;
      }

      .cls-15 {
        fill: #3d3f3f;
      }

      .cls-16 {
        fill: #8ac86e;
      }
    </style>
  </defs>
  <polygon class="cls-10" points="149.48 291.05 145.17 292.99 145.15 292.99 144.67 293.22 144.22 292.91 144.19 292.91 116.3 275.05 138.26 275.05 148.02 291.46 149.48 291.05"/>
  <path class="cls-4" d="M211.02,26.5H107.19S165.43,.12,165.43,.12c1.09,.02,2.15,.08,3.24,.14,.5,.02,1.02,.06,1.52,.1l40.83,26.14Z"/>
  <path class="cls-6" d="M165.43,.12l-58.24,26.38h-.52s-.41-5.15-.41-5.15v-.1l-.43-12.81c.2-.06,.37-.12,.57-.18C122.89,2.9,140.63,0,159.11,0c1.46,0,2.91,.02,4.37,.06h.07c.63,.02,1.26,.02,1.89,.06Z"/>
  <polygon class="cls-11" points="205.11 275.05 149.6 291.01 149.47 291.04 148.03 291.46 138.25 275.05 205.11 275.05"/>
  <g>
    <polygon class="cls-10" points="107.19 26.5 106.69 26.73 106.46 26.85 71.83 42.52 81.67 26.5 107.19 26.5"/>
    <polygon class="cls-10" points="250.02 52.07 233.52 40.91 233.35 40.79 211.02 26.5 234.32 26.5 249.41 51.09 249.43 51.09 250.02 52.07"/>
    <polygon class="cls-10" points="250.02 52.07 233.52 40.91 249.41 51.09 249.43 51.09 250.02 52.07"/>
    <path class="cls-7" d="M290.02,63.35l-4.37,10.93-36.22-23.19h-.02s-15.09-24.58-15.09-24.58h-22.13S173.93,.63,173.93,.63c3.24,.27,6.43,.63,9.61,1.08,17.24,2.45,33.59,7.46,48.54,14.61,3.59,1.7,7.09,3.54,10.5,5.48,18.43,10.48,34.35,24.36,46.78,40.66,.22,.29,.43,.57,.65,.88Z"/>
    <path class="cls-6" d="M106.43,26.5h-24.76s-9.85,16.02-9.85,16.02L29.39,61.75c1.3-1.7,2.63-3.33,4-4.97l.02-.02C51.89,34.86,76.93,17.9,105.82,8.44l.43,12.81v.1l.17,5.15Z"/>
    <polygon class="cls-16" points="106.69 26.73 106.46 26.85 71.83 42.52 81.67 26.5 106.43 26.5 106.26 21.35 106.67 26.5 106.69 26.73"/>
    <polyline class="cls-10" points="289.37 62.47 290.11 63.12 290.02 63.35"/>
    <line class="cls-10" x1="233.35" y1="40.79" x2="212.19" y2="26.5"/>
    <g>
      <polygon class="cls-10" points="253.42 243.91 240.6 264.86 234.33 275.05 184.77 275.05 253.42 243.91"/>
      <polygon class="cls-13" points="21.78 124.02 20.24 143.55 19.15 157.27 18.02 171.41 5.35 150.77 7.09 147.95 21.78 124.02"/>
      <polygon class="cls-10" points="116.3 275.05 81.67 275.05 81.65 275.01 59.22 238.49 116.3 275.05"/>
      <polygon class="cls-10" points="218.34 96.91 173.9 143.29 150.37 148.4 174.09 141.91 136.17 92.49 135.24 91.29 135.28 91.26 151.74 69.11 167.44 48.01 218.34 96.91"/>
      <polygon class="cls-10" points="308.76 147.68 292.07 153.09 290.64 171.45 289.55 185.12 273.88 210.67 273.85 210.67 269.18 213.14 258.05 218.94 239.03 228.85 242.23 213.14 207.22 200.33 249.39 169.05 248.56 166.88 261.25 135.14 276.98 95.95 294.38 124.26 292.87 143.26 308.51 147.26 308.76 147.68"/>
      <path class="cls-15" d="M59.22,238.49l-39.35-25.2-3.7-2.37-.3-.18v-.02c-.28-.53-.57-1.06-.83-1.61l2.98-37.7,12.09,19.7,14.93,24.3,14.17,23.09Z"/>
      <path class="cls-2" d="M71.83,42.52l-22.98,37.42-27.06,44.08,4.61-58.2c.78-1.1,1.57-2.19,2.39-3.25,.2-.29,.41-.55,.61-.82l42.43-19.23Z"/>
      <polygon class="cls-10" points="218.34 96.91 173.9 143.29 150.37 148.4 174.09 141.91 136.17 92.49 135.24 91.29 135.28 91.26 151.74 69.11 167.44 48.01 218.34 96.91"/>
      <polygon class="cls-10" points="277 95.86 276.98 95.94 276.95 95.9 277 95.86"/>
      <polygon class="cls-10" points="294.38 124.26 292.87 143.26 292.07 153.09 290.64 171.45 289.55 185.12 288.11 203.22 288.11 203.25 273.88 210.67 273.85 210.67 269.18 213.14 258.05 218.94 239.03 228.85 242.23 213.14 207.22 200.33 249.39 169.05 248.56 166.88 261.25 135.14 276.98 95.95 294.38 124.26"/>
      <polygon class="cls-9" points="297.71 82 277 95.86 285.65 74.28 297.71 82"/>
      <path class="cls-14" d="M7.09,147.95l-1.76,2.83,12.69,20.65,1.12-14.16,1.09-13.71,1.53-19.54-14.68,23.92ZM106.66,26.49l-.42-5.14,.19,5.14h-24.75s-9.85,16.02-9.85,16.02l34.63-15.66,.22-.12,.51-.24h-.54ZM29.38,61.75c-.19,.27-.42,.54-.61,.81-.83,1.08-1.6,2.16-2.37,3.25l-4.64,58.22,27.08-44.09,22.99-37.42L29.38,61.75Zm138.06-13.74l-15.7,21.1-16.47,22.15-.03,.03,.93,1.2,37.92,49.41-23.72,6.49,23.53-5.11,44.44-46.38-50.9-48.9Zm81.98,3.07l-15.09-24.59h-22.13S173.93,.65,173.93,.65c-1.25-.12-2.46-.21-3.74-.27-.51-.06-1.02-.09-1.53-.12-1.09-.06-2.14-.12-3.23-.12l-58.22,26.36h103.82s22.32,14.31,22.32,14.31l.19,.12,16.5,11.15-.61-.99Zm-81.98-3.07l-15.7,21.1-16.47,22.15-.03,.03,.93,1.2,37.92,49.41-23.72,6.49,23.53-5.11,44.44-46.38-50.9-48.9Zm0,0l-15.7,21.1-16.47,22.15-.03,.03,.93,1.2,37.92,49.41-23.72,6.49,23.53-5.11,44.44-46.38-50.9-48.9Zm0,0l-15.7,21.1-16.47,22.15-.03,.03,.93,1.2,37.92,49.41-23.72,6.49,23.53-5.11,44.44-46.38-50.9-48.9Zm130.1,129.54l13.75,12.14c4.06-12.29,6.46-25.25,6.84-38.65l-20.59,26.51Zm-20.59-81.66l.03,.06v-.09l-.03,.03Zm13.08-32.55l-4.38,10.94-8.66,21.58,20.72-13.86,3.1-2.07c-3.2-5.74-6.81-11.3-10.78-16.59Zm18.48,83.91l-15.64-4,1.5-18.99-17.39-28.31-15.73,39.19-12.69,31.74,.83,2.16-42.17,31.29,35.01,12.8-3.2,15.72,19.02-9.92,11.13-5.8,4.67-2.46h.03s14.23-7.42,14.23-7.42v-.03l1.44-18.09,1.09-13.68,1.44-18.36,16.69-5.41,.58-.21-.83-.21ZM167.44,48.01l-15.7,21.1-16.47,22.15-.03,.03,.93,1.2,37.92,49.41-23.72,6.49,23.53-5.11,44.44-46.38-50.9-48.9ZM45.05,215.39l-14.93-24.28-12.09-19.69-2.97,37.69c.26,.54,.54,1.08,.8,1.62,.06,.12,.13,.27,.22,.36,.32,.66,.67,1.32,1.06,1.98l2.75,.21,39.33,25.22-14.16-23.11ZM167.44,48.01l-15.7,21.1-16.47,22.15-.03,.03,.93,1.2,37.92,49.41-23.72,6.49,23.53-5.11,44.44-46.38-50.9-48.9Zm0,0l-15.7,21.1-16.47,22.15-.03,.03,.93,1.2,37.92,49.41-23.72,6.49,23.53-5.11,44.44-46.38-50.9-48.9Zm0,0l-15.7,21.1-16.47,22.15-.03,.03,.93,1.2,37.92,49.41-23.72,6.49,23.53-5.11,44.44-46.38-50.9-48.9Z"/>
      <path class="cls-11" d="M311.3,189.69v.02c-.2,.57-.39,1.14-.59,1.7v.02l-21.7,11.32-.91,.47,1.43-18.08v-.02l1.09-13.67,4.74,4.19,2.17,1.92,13.76,12.14Z"/>
      <path class="cls-6" d="M310.72,191.44c-8.82,25.58-25.07,48.09-46.39,65.46-.74,.6-1.5,1.2-2.27,1.77-27.75,21.79-63.69,34.89-102.95,34.89-4.7,0-9.34-.18-13.94-.57-.32-.03-.64-.03-.93-.09h-.03c-22.51-1.92-43.68-8.17-62.48-17.85-.03,0-.03-.03-.06-.03-27.63-14.25-50.2-35.83-64.52-61.94l2.75,.21,39.33,25.22,57.1,36.55h21.93s9.78,16.41,9.78,16.41l1.44-.42,.13-.03,55.51-15.96h-20.34s68.65-31.14,68.65-31.14l.03-.03,12.95-5.83,19.63-8.9,.03-.03,2.05-25.88v-.03l.9-.45,21.71-11.33Z"/>
      <path class="cls-1" d="M252.78,56.55c-.93,1.83-2.3,5.62-4.32,13.34l-27.75,25.16-1.18,1.08-1.02,.9-.16-.12-50.9-48.9-15.7,21.1,14.04-21.1,1.31-21.52h43.93s22.32,14.31,22.32,14.31l.19,.12,16.5,11.15,2.75,4.48Z"/>
      <path class="cls-16" d="M174.09,141.91l-23.72,6.49-.16,.03h-.03s-16.05,4.42-16.05,4.42l-.51-.42-.42-.33-88.06,17.64,60.62,50.7,.06,.06,32.42,54.55h-21.93s-57.1-36.55-57.1-36.55l-14.16-23.11-14.93-24.28-12.09-19.69,1.12-14.16,1.09-13.71,1.53-19.54,27.08-44.09,45.11,39.07,.8,.69,2.17,1.86,38.11-30.63,.19-.15-26.63-39.64-1.92-24.4,.51-.24h59.89s-1.31,21.52-1.31,21.52l-14.04,21.1-16.47,22.15-.03,.03,.93,1.2,37.92,49.41Z"/>
      <path class="cls-6" d="M7.09,147.95l-1.74,2.82,12.67,20.64-2.98,37.7C5.39,190.21,0,169.08,0,146.78c0-29.94,9.72-57.77,26.39-80.96l-4.61,58.2-14.7,23.93Z"/>
      <polygon class="cls-11" points="286.03 229.16 266.4 238.05 253.45 243.88 266.82 222.12 268.13 222.6 286.03 229.16"/>
      <path class="cls-12" d="M269.18,213.14l-.7,6.28v.03l-1.66,2.67-13.36,21.76-.03,.03-68.65,31.14h-46.52s-32.42-54.55-32.42-54.55l-.06-.06,27.85-68.01,.51,.42,16.05-4.42h.03s.16-.03,.16-.03l23.53-5.11,44.44-46.38,.16,.12,1.02-.9,28.39,72.37,.64-1.62,.83,2.16-42.17,31.29,35.01,12.8-3.2,15.72,19.02-9.92,11.13-5.8Z"/>
      <path class="cls-7" d="M168.67,.27l-1.59,26.24-1.3,21.5-14.04,21.11-15.57,23.4-.89-1.25-.24-.33-27.74-38.76-.85-25.32-.02-.35-.17-5.15,.41,5.15h.52S165.43,.12,165.43,.12c1.09,.02,2.15,.08,3.24,.14Z"/>
      <polygon class="cls-11" points="135.24 90.77 135.04 90.93 96.96 121.57 94.78 119.69 93.98 118.99 48.85 79.94 71.83 42.52 106.46 26.85 106.69 26.73 108.61 51.13 135.24 90.77"/>
      <path class="cls-7" d="M29.39,61.75l42.43-19.23-22.98,37.42-20.06-17.37c.2-.29,.41-.55,.61-.82Z"/>
      <polygon class="cls-8" points="285.65 74.28 277 95.86 276.95 95.9 252.78 56.54 250.02 52.07 249.43 51.09 285.65 74.28"/>
      <path class="cls-10" d="M133.19,152.1c-12.08-10.18-24.16-20.35-36.24-30.53"/>
      <path class="cls-11" d="M105.82,220.51l-60.78-5.11-25.17-2.1-2.74-.22c-.37-.65-.74-1.31-1.07-1.98l.11-.16,13.93-19.82c4.52-6.76,9.04-13.51,13.57-20.27,20.72,16.57,41.43,33.12,62.15,49.68Z"/>
      <path class="cls-10" d="M133.75,152.13c-9.16,22.98-18.32,45.96-27.48,68.94"/>
      <path class="cls-5" d="M318.21,146.78c0,1.37-.02,2.74-.07,4.09l-2.85-3.43-20.8-24.87,.43-5.33v-.06l2.78-35.17,3.09-2.06c.8,1.45,1.59,2.9,2.33,4.39,9.67,18.94,15.09,40.11,15.09,62.45Z"/>
      <polygon class="cls-12" points="318.15 150.87 318.15 151.03 297.54 177.56 295.37 175.64 290.63 171.45 292.08 153.1 308.76 147.68 309.34 147.48 308.5 147.25 292.87 143.25 294.37 124.26 294.5 122.57 315.3 147.44 318.15 150.87"/>
      <polygon class="cls-6" points="297.71 82 294.93 117.17 294.93 117.23 294.5 122.57 294.37 124.26 276.98 95.94 277 95.86 297.71 82"/>
      <path class="cls-5" d="M276.98,95.95l-15.73,39.19-12.69,31.74-.64,1.62-28.39-72.37,1.18-1.08,27.75-25.16c2.01-7.72,3.39-11.51,4.32-13.34l24.17,39.34,.03,.06Z"/>
      <line class="cls-10" x1="292.87" y1="143.25" x2="261.26" y2="135.15"/>
      <polyline class="cls-5" points="242.21 213.13 251.63 166.26 275.24 158.57 275.84 158.37 292.08 153.1"/>
      <line class="cls-3" x1="258.06" y1="218.94" x2="242.21" y2="213.13"/>
      <polyline class="cls-10" points="133.19 152.1 135.43 151.65 150.17 148.44"/>
      <path class="cls-11" d="M94.78,119.69c-16.54,16.67-33.09,33.37-49.63,50.04-8.67-4.15-17.33-8.32-26-12.47-4.54-2.19-9.09-4.35-13.63-6.54,.52-.92,1.04-1.86,1.57-2.78l13.15-4.39,73.74-24.56,.8,.69Z"/>
      <polygon class="cls-7" points="288.11 203.25 286.06 229.13 286.03 229.16 268.13 222.6 266.82 222.12 268.48 219.45 268.48 219.42 269.18 213.14 273.85 210.67 273.88 210.67 288.11 203.25"/>
      <polyline class="cls-11" points="290.63 171.45 275.84 158.37 275.3 157.9 275.24 158.57 269.17 213.13"/>
      <polygon class="cls-14" points="133.61 152.42 105.76 220.44 45.14 169.74 133.2 152.09 133.61 152.42"/>
      <polyline class="cls-10" points="105.61 220.8 105.73 220.5 105.76 220.44"/>
      <line class="cls-10" x1="133.74" y1="152.12" x2="133.61" y2="152.42"/>
    </g>
  </g>
</svg>