<?xml version="1.0" encoding="UTF-8"?><svg id="Layer_1" xmlns="http://www.w3.org/2000/svg" viewBox="0 0 206.775 256.252"><defs><style>.cls-1{fill:#4f9cc7;}.cls-2{fill:#4cbfe4;}.cls-3{fill:#39a3d6;}.cls-4{fill:#3e82c4;}.cls-5{fill:#6eccea;}.cls-6{fill:#4390cd;}.cls-7{fill:#020202;}.cls-8{fill:#3275a3;}.cls-9{fill:#3e6cb4;}.cls-10{fill:#3e89c8;}.cls-11{fill:#3c79bd;}.cls-12{fill:#449fd6;}.cls-13{fill:#3ea4d8;}.cls-14{fill:#3b6bb4;}.cls-15{fill:#4198d1;}.cls-16{fill:#2b6992;}.cls-17{fill:#376bb4;}.cls-18{fill:#b9e4ed;}.cls-19{fill:#3280b3;}.cls-20{fill:#53c4e4;}.cls-21{fill:#3b6eb6;}.cls-22{fill:#388cc0;}.cls-23{fill:#9bd7e7;}.cls-24{fill:#63c6eb;}.cls-25{fill:#82d2e2;}.cls-26{fill:#3f96d1;}.cls-27{fill:#7fcedd;}.cls-28{fill:#4ba9c8;}.cls-29{fill:#3d9dd5;}.cls-30{fill:#418fc1;}.cls-31{fill:#3c89c8;}.cls-32{fill:#71cddf;}.cls-33{fill:#40a4d9;}.cls-34{fill:#3f7dc0;}.cls-35{fill:#96d8e5;}.cls-36{fill:#407fc2;}.cls-37{fill:#3c8dcb;}.cls-38{fill:#47a5d1;}.cls-39{fill:#41addd;}.cls-40{fill:#7acfe0;}.cls-41{fill:#3c80c2;}.cls-42{fill:#369cd4;}.cls-43{fill:#7ed0df;}.cls-44{fill:#48a3c7;}.cls-45{fill:#3d9bd4;}.cls-46{fill:#41a9dc;}.cls-47{fill:#27679b;}.cls-48{fill:#45b8df;}.cls-49{fill:#3e97c6;}.cls-50{fill:#409cd4;}.cls-51{fill:#4084b5;}.cls-52{fill:#6ac5da;}.cls-53{fill:#3e8bb5;}.cls-54{fill:#8ed5e3;}</style></defs><path class="cls-7" d="m148.159.688c.091-.229.182-.459.273-.688.599.286.691.687.276,1.202-.183-.171-.366-.343-.55-.514Z"/><path class="cls-27" d="m31.928,46.452c1.669-.576,3.337-1.152,5.006-1.728,3.675-1.814,7.35-3.627,11.025-5.44,1.614-.514,3.229-1.027,4.843-1.541,19.077-8.436,21.955-2.045,22.435,15.52-4.913.696-9.619,1.363-14.325,2.03-1.408-.655-2.815-1.31-4.223-1.965-2.55-.433-5.099-.865-7.649-1.298-4.911.533-9.822,1.067-14.734,1.6-2.288,1.013-4.605,1.967-6.859,3.052-5.652,2.719-11.276,5.498-16.911,8.252,7.131-6.16,14.261-12.32,21.392-18.481Z"/><path class="cls-19" d="m141.46,242.076c-.954-.757-1.908-1.514-2.862-2.272,5.121-2.204,11.065-3.895,7.269-11.651l.017-.046c6.369-5.175,12.854-9.42,21.667.13,1.187-8.706,2.032-14.9,2.877-21.095,1.182-1.681,2.364-3.363,3.547-5.044,10.257-5.435,12.803-16.011,17.137-25.441.911-1.983,2.685-3.57,4.061-5.339.562,3.439,1.124,6.878,1.686,10.317-.599-1.143-1.198-2.285-1.296-2.471-5.02,9.904-11.198,17.518-17.075,26.787-5.395,8.508-6.34,17.595-13.169,24.896-1.886-.007-3.772-.014-5.658-.021-2.466,1.146-7.118,2.44-7.053,3.414.516,7.658-4.518,7.515-9.569,7.704-.524.081-1.05.125-1.58.132Z"/><path class="cls-47" d="m165.32,230.847c6.829-7.301,7.774-16.389,13.169-24.896,5.878-9.269,12.055-16.883,17.075-26.787.097.185.696,1.328,1.296,2.472,1.233,1.978,2.466,3.954,3.699,5.93-.642,1.611-1.283,3.222-1.924,4.836-1.029-.481-2.059-.963-2.727-1.277-6.575,9.575-14.238,18.894-18.94,29.575-3.473,7.889-.825,16.823-11.648,10.148Z"/><path class="cls-18" d="m0,121.915c1.267-1.751,2.535-3.502,3.801-5.253,1.093-.24,2.187-.481,3.281-.722,1.453.695,2.905,1.391,4.357,2.086,3.062-1.266,6.125-2.532,11.663-4.821-3.293,8.089-5.78,14.197-8.267,20.306-2.941,11.052-3.023,21.961,1.614,32.635-.667,3.781-2.851,5.644-5.445,2.1-2.471-3.375-3.541-7.775-5.227-11.725-1.926-11.535-3.851-23.071-5.777-34.606Z"/><path class="cls-44" d="m52.803,37.743c.011-.474.024-.949.036-1.423,4.233-4.376,7.656-5.36,14.105-5.498,10.78-.231,9.92-1.199,12.677,9.287-.329.753-.658,1.507-.988,2.26-1.686,7.344,2.326,11.38,8.734,12.032,6.175.628,12.542-.619,18.825-1.042,10.425.35,20.94.412,28.775,9.011-16.361-.454-31.172-6.481-48.018-4.056-20.193,2.907-35.315,13.512-52,24.514,6.945-7.514,25.673-17.563,25.965-27.535,4.706-.667,9.412-1.333,14.325-2.03-.48-17.564-3.358-23.956-22.435-15.52Z"/><path class="cls-51" d="m60.913,55.292c-.292,9.973-19.019,20.022-25.965,27.534-4.2,5.694-8.399,11.39-12.599,17.086-6.721-.462-.568-3.62-1.122-5.375-.551-1.744,5.67-4.833-1.063-5.353,10.106-9.478,20.262-18.904,30.281-28.472,2.318-2.213,4.172-4.912,6.242-7.386,1.41.656,2.818,1.311,4.225,1.966Z"/><path class="cls-8" d="m78.633,42.368c.329-.753.658-1.507.988-2.26.922-.915,1.843-1.83,2.765-2.745,3.12,16.07,34.193,7.709,46.446,12.214,11.077,4.073,28.592,23.644,41.085,17.332.489-.044.978-.092,1.466-.148.598,1.633,1.196,3.266,1.793,4.899.905,2.754,1.811,5.508,2.716,8.261-11.992-6.823-24.836-12.521-35.747-20.772-12.036-9.102-24.385-10.893-38.319-7.908-4.531-.405-9.055-.978-13.595-1.17-5.208-.221-8.729-2.233-9.597-7.704Z"/><path class="cls-54" d="m16.449,166.147c-4.638-10.674-4.555-21.584-1.614-32.636,1.288,2.798,2.577,5.596,4.872,10.583,1.809-13.683,3.126-26.343,18.924-27.713-5.507,8.598-31.303,37.433-12.416,44.546,3.169,9.531,6.144,11.604,14.579,17.384,5.918,11.299,13.755,15.662,24.883,13.852-5.873,11.526-15.08-.623-22.387,3.267,1.593,11.983,10.719,9.495,19.97,8.253-2.935,4.336-4.781,7.064-7.616,11.254,10.43.69,12.132,5.525,19.959,7.82,13.724,4.023,17.829-4.944,26.561-15.105,3.683,0,7.366-.001,11.05-.002-3.04.388-6.079.776-6.666.851-3.298,6.916-5.612,11.768-8.885,18.632,12.448-4.139,43.535-9.231,32.22-25.049-1.437-.53-2.874-1.061-4.795-1.77,5.768-2.239,10.824-4.202,14.135-5.488,12.862,19.036,19.837,3.693,24.936-11.456.198-1.297.396-2.594.594-3.891,7.298-13.896,15.711-10.597,3.327-28.722-2.035-6.085-4.071-12.17-6.106-18.255-1.077-1.486-2.154-2.972-3.232-4.459,7.648,4.565,10.37,6.468,19.029,5.153-1.513-8.394-5.039-10.459-11.65-16.107,3.65-1.214,6.442-2.142,9.416-3.131-2.149-6.721-3.651-13.751-13.147-12.29-.388,2.45-.716,4.525-1.223,7.723-3.634-2.707-6.364-4.739-9.094-6.772.562-6.945-.589-13.243-5.755-18.54-1.467-1.504-1.711-4.198-2.516-6.347,8.244-.992,21.368,15.544,32.12,18.824,1.985,2.409,3.97,4.817,5.955,7.226-1.756.498-3.512.995-5.268,1.493,1.635,4.019,4.39,12.757,6.505,15.751,3.386,4.794,3.219,12.531,12.927,7.637-5.998,9.608-4.162,19.204.106,28.753,1.989,4.451,4.142,8.829,6.222,13.24.205.555.41,1.111.614,1.666.259,2.948.519,5.896.778,8.844-1.068,2.134-2.136,4.268-3.204,6.401-1.233-1.977-2.465-3.954-3.698-5.931-.562-3.44-1.124-6.879-1.687-10.319-1.655-1.263-3.31-2.525-3.364-2.566-6.178,11.552-12.005,22.45-17.833,33.348-1.182,1.681-2.364,3.363-3.547,5.044-3.969,9.091-12.371,12.049-20.723,15.246-1.733.663-2.961,2.645-4.421,4.019-4.673,2.226-9.154,5.089-14.053,6.572-23.815,7.209-47.216,5.56-70.069-4.188-2.865-1.562-5.731-3.123-8.596-4.685.468-4.313.937-8.627,1.455-13.398-13.541-.95-8.466-6.257-15.131-13.452-5.238-5.654-11.39-2.979-14.144-11.767,5.755,1.334,8.514-3.999,7.124-6.513-1.575-2.849-7.148-3.491-10.983-5.092-1.479-2.579-2.959-5.157-4.439-7.736Z"/><path class="cls-35" d="m196.042,128.663c-9.708,4.895-9.542-2.843-12.927-7.637-2.115-2.994-4.87-11.732-6.505-15.751,1.756-.498,3.512-.995,5.269-1.493,2.703,3.949,5.406,7.898,8.108,11.848,1.937.509,3.873,1.018,5.81,1.527,2.764,1.023,5.529,2.045,8.293,3.068.843.365,1.686.729,2.529,1.094.052.585.104,1.17.156,1.756-1.017.492-2.034.983-3.051,1.474-1.503,1.104-3.006,2.207-4.51,3.311-1.057.268-2.115.536-3.172.804Z"/><path class="cls-23" d="m24.746,185.488c2.754,8.788,8.906,6.113,14.144,11.767,6.665,7.195,1.591,12.502,15.131,13.452-.518,4.772-.986,9.085-1.456,13.399-17.218-10.43-28.903-25.882-37.737-43.922-.677.277-1.354.555-2.031.832-.699,2.372-1.399,4.744-2.098,7.116-2.834,2.212-5.668,4.425-8.501,6.638-.368-1.047-.738-2.095-1.107-3.143,1.562-11.701,3.124-23.403,4.686-35.104,1.686,3.949,2.756,8.349,5.227,11.724,2.594,3.544,4.778,1.682,5.445-2.1,1.479,2.579,2.959,5.157,4.438,7.736,1.286,3.868,2.572,7.736,3.859,11.605Z"/><path class="cls-22" d="m10.699,188.132c.699-2.372,1.399-4.744,2.098-7.116.677-.277,1.354-.555,2.031-.832,8.835,18.04,20.519,33.492,37.737,43.922,2.867,1.561,5.732,3.122,8.598,4.683,3.283,4.412,9.209,4.915,12.33,9.527,3.449,5.095,1.413,9.27,3.237,14.536-7.009-16.328-22.409-17.17-34.556-27.217-13.042-10.788-21.212-24.355-31.476-37.503Z"/><path class="cls-38" d="m76.731,252.852c-1.824-5.266.212-9.441-3.237-14.536-3.121-4.612-9.047-5.115-12.33-9.527,22.852,9.75,46.254,11.399,70.068,4.189,4.898-1.483,9.379-4.345,14.053-6.571.2.567.4,1.133.6,1.699,0,0-.017.046-.018.046-13.228,12.296-30.516,11.557-46.498,12.914-12.081,1.026-13.391-.134-15.519,11.351-.217,1.278-.434,2.556-.651,3.834,0,0-.004-.025-.003-.025-2.155-1.125-4.31-2.25-6.466-3.375Z"/><path class="cls-22" d="m83.851,252.418c2.127-11.485,3.437-10.325,15.519-11.351,15.982-1.357,33.27-.618,46.498-12.914,3.796,7.757-2.148,9.447-7.269,11.651-1.257-.249-2.514-.497-3.771-.745-5.644.846-11.447,1.122-16.897,2.653-11.458,3.22-22.73,7.098-34.079,10.706Z"/><path class="cls-22" d="m145.885,228.107c-.2-.566-.4-1.132-.6-1.699,1.46-1.375,2.688-3.357,4.421-4.02,8.352-3.197,16.754-6.155,20.723-15.246-.844,6.195-1.689,12.39-2.876,21.095-8.813-9.551-15.298-5.306-21.667-.13Z"/><path class="cls-28" d="m173.976,202.098c5.828-10.898,11.656-21.796,17.833-33.348.054.041,1.709,1.303,3.364,2.566-1.376,1.77-3.15,3.358-4.061,5.34-4.334,9.43-6.88,20.006-17.137,25.441Z"/><path class="cls-35" d="m38.631,116.382c-15.799,1.37-17.116,14.03-18.924,27.713-2.295-4.986-3.584-7.784-4.872-10.583,2.487-6.109,4.974-12.217,8.267-20.306-5.538,2.289-8.6,3.555-11.662,4.821,3.637-6.039,7.273-12.077,10.909-18.115,4.2-5.696,8.399-11.392,12.599-17.086,16.686-11,31.807-21.605,52.001-24.512,16.846-2.425,31.657,3.602,48.017,4.055,10.308,6.983,20.617,13.967,30.926,20.951,3.344,4.412,6.687,8.824,10.031,13.236-10.753-3.28-23.876-19.816-32.12-18.824-9.392-6.907-31.918-13.589-33.226-9.797,1.497,1.032,3.006,2.072,5.468,3.769-3.471,1.367-5.833,2.298-8.196,3.229-6.336-.225-14.349.439-20.333-1.505-4.711-1.531-11.322-13.415-13.66-1.167,2.683.837,4.992,1.558,8.691,2.713-16.149,13.036-36.821,19.753-43.915,41.408Z"/><path class="cls-1" d="m22.349,99.912c-3.636,6.038-7.272,12.077-10.909,18.115-1.453-.695-2.905-1.391-4.357-2.086,4.361-8.919,8.723-17.838,13.083-26.758,6.731.52.511,3.609,1.061,5.353.554,1.755-5.6,4.914,1.122,5.375Z"/><path class="cls-53" d="m165.892,83.32c-10.309-6.984-20.617-13.968-30.926-20.951-7.835-8.598-18.35-8.66-28.775-9.01-1.455-.705-2.911-1.411-4.366-2.116,13.934-2.985,26.284-1.194,38.319,7.908,10.911,8.251,23.755,13.949,35.747,20.773,6.635,12.412,13.27,24.823,19.905,37.234-1.937-.509-3.873-1.018-5.812-1.526-1.501-2.457-3.89-4.762-4.345-7.402-2.076-12.023-10.393-18.814-19.747-24.91Z"/><path class="cls-30" d="m101.825,51.243c1.455.705,2.911,1.411,4.366,2.116-6.283.423-12.65,1.67-18.825,1.042-6.408-.652-10.419-4.689-8.734-12.032.868,5.472,4.389,7.484,9.598,7.705,4.54.192,9.064.765,13.595,1.17Z"/><path class="cls-16" d="m195.796,117.157c-6.635-12.411-13.27-24.822-19.905-37.234-.906-2.754-1.811-5.508-2.717-8.262,10.305,16.188,20.61,32.376,30.914,48.563-2.764-1.023-5.529-2.045-8.293-3.068Z"/><path class="cls-5" d="m168.079,150.758c12.385,18.124,3.971,14.825-3.327,28.721-1.159-4.262-2.424-8.492-3.795-12.691-2.623,1.838-5.245,3.675-7.868,5.513-2.591,5.151-5.182,10.301-7.774,15.452-.247,2.689-.494,5.377-.741,8.066.851.65,1.701,1.3,2.552,1.95,5.636-4.865,11.248-9.71,17.032-14.399-5.098,15.149-12.074,30.492-24.936,11.456-3.312,1.286-8.368,3.248-14.135,5.488,1.921.709,3.358,1.24,4.795,1.771-4.266,2.389-11.537-.84-12.933,6.914-1.245-.45-2.49-.899-3.735-1.349-3.683,0-7.366.001-11.049.002,1.398-1.483,2.795-2.965,4.193-4.448-12.38,1.548-23.935,6.416-36.309,8.099-.746-7.345-2.133-12.281-4.372-19.139-11.128,1.81-18.965-2.553-24.883-13.852.372-2.578.745-5.155,1.117-7.733,2.79,4.576,5.58,9.151,8.369,13.728,2.596,2.119,5.193,4.236,7.618,6.214,2.73-7.217,8.395-16.13,6.37-23.852,1.8-4.225,3.601-8.449,5.401-12.674,1.851,5.588,3.703,11.177,5.554,16.765-1.13,2.16-2.261,4.321-3.391,6.481-10.545,3.501-.414,17.134,5.367,20.963,10.034,6.647,23.131.939,34.356-.987l.019-.009c6.06,2.805,20.327,2.054,24.308-4.39,3.933-6.367-.956-14.219-3.125-21.082-1.026-2.961-2.053-5.922-3.079-8.883-9.452,4.08-16.578,10.22-26.369,14.268-.24-.716-.481-1.431-.721-2.147.981-.548,1.963-1.096,2.944-1.644,2.08-1.244,4.16-2.489,6.241-3.733,2.756-2.74,5.511-5.48,8.267-8.22,7.468-7.8,7.682-11.468,2.648-20.116-4.122-7.08-10.877-7.489-17.675-8.316-3.957-.835-7.914-1.669-12.188-2.571.273-1.892.752-5.202,1.229-8.512,7.265,6.276,14.696,1.573,22.075.321,1.722,2.996,3.443,5.992,5.165,8.988,3.835,2.451,7.671,4.902,11.506,7.352-15.71,19.889,30.045,41.27,22.625,12.759,2.12,2.668,4.241,5.336,6.713,8.447,2.277-3.439,4.109-6.205,5.942-8.971Z"/><path class="cls-25" d="m41.911,170.579c-.372,2.578-.745,5.155-1.117,7.733-8.435-5.78-11.41-7.854-14.579-17.384-18.887-7.113,6.909-35.948,12.416-44.546,7.094-21.654,27.766-28.372,43.915-41.408-3.698-1.154-6.008-1.875-8.691-2.713,2.338-12.248,8.949-.364,13.66,1.167,5.984,1.945,13.997,1.28,20.333,1.505,1.075,2.415,2.149,4.83,3.15,7.079,3.729-2.377,6.092-3.883,8.456-5.389.011,1.855.022,3.71.033,5.565-.358,2.936-.716,5.871-1.146,9.404-17.72-14.474-30.806-14.696-38.929-.903-6.614-4.372-10.397-1.396-12.5,5.299-14.233,9.508-21.882,21.214-28.019,37.63-2.832,7.575-5.37,13.205-2.883,21.504,1.939,6.469,8.069,8.877,5.901,15.456Z"/><path class="cls-20" d="m66.912,95.989c2.103-6.695,5.886-9.671,12.5-5.299,8.123-13.793,21.209-13.571,38.929.903.431-3.533.789-6.469,1.146-9.405,20.641-1.043,21.664,17.078,32.276,30.554,9.303-.579,5.772,9.765,6.98,15.302,1.077,1.486,2.154,2.972,3.232,4.458-4.429,3.292-8.858,6.584-13.287,9.876-1.561-.096-3.122-.192-5.127-.315,1.491-1.965,2.494-3.286,3.497-4.608,17.089-12.896-5.281-29.482-12.76-21.761.565-4.686,1.129-9.371,1.879-15.594-2.98,2.457-5.693,4.694-8.406,6.93-3.133-2.059-6.266-4.118-9.398-6.177-8.941-8.184-17.871-19.457-31.003-13.711-9.605,4.203-14.427,14.18-10.055,23.748-8.687-1.327-7.805-9.327-10.401-14.902Z"/><path class="cls-40" d="m158.742,128.044c-1.208-5.537,2.323-15.881-6.98-15.302-10.612-13.476-11.635-31.597-32.276-30.554-.011-1.855-.021-3.71-.032-5.565,17.951-5.603,23.384,14.914,32.619,25.997,2.73,2.033,5.459,4.065,9.094,6.772.506-3.198.835-5.273,1.223-7.723,9.496-1.461,10.998,5.569,13.147,12.29-2.974.989-5.766,1.917-9.416,3.131,6.611,5.648,10.137,7.713,11.65,16.107-8.658,1.315-11.381-.587-19.029-5.153Z"/><path class="cls-32" d="m65.678,192.164c2.239,6.858,3.625,11.794,4.372,19.139,12.374-1.683,23.929-6.551,36.309-8.099-1.398,1.483-2.795,2.965-4.193,4.448-8.733,10.161-12.837,19.128-26.561,15.105-7.827-2.295-9.529-7.129-19.959-7.82,2.835-4.19,4.682-6.917,7.616-11.254-9.252,1.241-18.377,3.73-19.97-8.253,7.307-3.89,16.514,8.26,22.387-3.267Z"/><path class="cls-32" d="m113.215,207.65c1.245.45,2.49.899,3.735,1.349,1.396-7.754,8.667-4.525,12.933-6.914,11.316,15.817-19.771,20.909-32.219,25.048,3.273-6.864,5.587-11.716,8.885-18.632.587-.075,3.627-.463,6.666-.851Z"/><path class="cls-43" d="m152.073,102.62c-9.235-11.083-14.668-31.6-32.619-25.997-2.363,1.506-4.727,3.013-8.456,5.389-1.001-2.249-2.076-4.664-3.15-7.079,2.363-.931,4.726-1.862,8.196-3.229-2.462-1.697-3.97-2.737-5.468-3.769,1.307-3.792,23.834,2.889,33.226,9.797.805,2.148,1.049,4.843,2.516,6.347,5.166,5.298,6.316,11.595,5.755,18.54Z"/><path class="cls-2" d="m148.686,142.378c4.429-3.292,8.859-6.584,13.288-9.875,2.035,6.085,4.07,12.17,6.105,18.255-1.832,2.767-3.664,5.533-5.941,8.972-2.472-3.111-4.592-5.779-6.713-8.447-2.247-2.968-4.492-5.937-6.738-8.905Z"/><path class="cls-49" d="m196.042,128.663c1.057-.268,2.115-.536,3.172-.805,1.289,11.31,2.69,22.61,3.788,33.94.282,2.905-.396,5.903-.633,8.858-2.079-4.411-4.232-8.789-6.221-13.24-4.268-9.549-6.104-19.145-.106-28.753Z"/><path class="cls-48" d="m153.089,172.301c2.623-1.838,5.245-3.675,7.868-5.513,1.371,4.199,2.636,8.429,3.795,12.691-.198,1.297-.395,2.594-.594,3.891-5.784,4.689-11.396,9.534-17.032,14.399-.851-.65-1.701-1.3-2.552-1.95.247-2.689.494-5.377.741-8.066,13.306,5.874,18.384-17.31,7.773-15.452Z"/><path class="cls-52" d="m165.892,83.32c9.354,6.096,17.672,12.887,19.747,24.91.456,2.639,2.845,4.944,4.345,7.402-2.7-3.951-5.403-7.9-8.106-11.849-1.986-2.408-3.971-4.817-5.956-7.226-3.343-4.412-6.687-8.824-10.031-13.236Z"/><path class="cls-25" d="m24.746,185.488c-1.286-3.868-2.573-7.736-3.859-11.605,3.835,1.601,9.408,2.243,10.983,5.092,1.389,2.514-1.369,7.846-7.124,6.513Z"/><path class="cls-24" d="m66.912,95.989c2.596,5.575,1.714,13.575,10.402,14.902.956.871,1.91,1.742,2.865,2.612.497-.068.991-.15,1.484-.247,4.131,2.869,8.262,5.737,12.393,8.606-.478,3.311-.957,6.621-1.23,8.513,4.274.902,8.231,1.736,12.188,2.571-8.192,3.307-16.383,6.614-24.573,9.922-6.117,10.995-5.978,15.434.75,23.854-1.989,1.346-3.978,2.691-5.966,4.037-1.851-5.588-3.703-11.177-5.555-16.765,2.08-7.38-.412-12.705-7.229-16.09l.004.017c-3.843-13.759-14.236-7.519-19.226,2.263-6.926,13.578,2.741,17.783,5.791,29.724.424,4.799.849,9.598,1.273,14.397-2.79-4.576-5.58-9.151-8.37-13.727,2.168-6.578-3.962-8.987-5.901-15.456-2.487-8.299.051-13.928,2.883-21.504,6.137-16.416,13.785-28.122,28.019-37.63Zm3.836,39.152c7.329,1.269,15.453,2.435,18.538-6.146,2.605-7.248-3.984-9.695-9.668-11.571-3.615,2.148-7.575,3.88-10.776,6.529-7.015,5.805-6.686,6.977,1.906,11.189Zm-5.767-28.298c-.96-.418-5.433-2.933-5.798-2.436-4.062,5.531-7.488,11.528-11.086,17.399,13.616,1.427,22.409.693,16.884-14.963Z"/><path class="cls-45" d="m49.008,169.909c-3.049-11.941-12.716-16.146-5.79-29.724,4.989-9.782,15.382-16.022,19.226-2.263-13.272-4.78-24.775,11.841-11.681,21.271,12.057,8.683,15.989-11.303,11.677-21.288,6.816,3.384,9.309,8.71,7.229,16.09-1.8,4.225-3.6,8.449-5.397,12.674-1.386.487-2.776.974-4.165,1.46,3.943,7.092-2.769,8.899-7.559,15.13-1.575-5.942-2.557-9.646-3.54-13.351Z"/><path class="cls-6" d="m75.224,170.76c1.989-1.346,3.978-2.691,5.966-4.037,2.044.541,4.088,1.082,6.132,1.623,2.007.607,4.014,1.213,6.021,1.82,4.063,1.055,8.126,2.11,12.189,3.165-.981.548-1.963,1.096-2.944,1.644.24.716.481,1.431.721,2.147,9.791-4.048,16.917-10.188,26.369-14.268,1.026,2.961,2.053,5.922,3.078,8.883,4.795,20.357-2.197,18.931-21.182,25.471,0,0-.019.009-.019.008-.174-.572-.348-1.144-.523-1.716,8.125-.978,19.154-2.169,20.893-11.979.922-5.202-4.065-17.99-9.85-10.194-12.89,7.221-25.784,4.906-38.679.038-7.161-2.99-7.22,4.511-10.57,7.15-.332-1.091-.663-2.182-.995-3.274,1.13-2.16,2.261-4.321,3.391-6.481Z"/><path class="cls-50" d="m134.297,115.695c7.479-7.721,29.849,8.865,12.76,21.761-3.672-.032-7.345-.063-11.017-.094,7.769-.284,17.808-3.793,12.354-13.066-4.914-8.353-16.642-3.249-23.441-1.906,4.692,6.334,7.89,10.651,11.087,14.967-1.08.389-2.159.778-3.239,1.167-3.835-2.451-7.671-4.902-11.509-7.351-3.222-11.498,6.241-12.356,13.005-15.479Z"/><path class="cls-33" d="m132.8,138.525c1.08-.389,2.159-.778,3.239-1.167,0,0,0,.003,0,.003,3.672.032,7.345.063,11.017.095-1.003,1.322-2.006,2.643-3.497,4.608,2.005.123,3.566.22,5.127.315,2.245,2.968,4.491,5.936,6.738,8.904,7.421,28.511-38.334,7.131-22.624-12.759Zm7.853,22.153c7.422.131,12.225-3.605,11.917-10.017-.54-11.214-11.495-.924-14.439-8.331-3.481,6.482.246,11.503,2.522,18.348Z"/><path class="cls-15" d="m80.438,142.868c8.192-3.307,16.383-6.614,24.575-9.921,6.798.827,13.553,1.235,17.675,8.315,5.034,8.648,4.82,12.316-2.648,20.114,4.366-14.088-1.333-23.059-15.575-24.518-8.009,2.003-16.018,4.007-24.027,6.01Z"/><path class="cls-29" d="m153.089,172.301c10.611-1.858,5.533,21.326-7.773,15.452,2.591-5.151,5.182-10.301,7.773-15.452Z"/><path class="cls-46" d="m71.832,177.241c.332,1.091.663,2.182.996,3.274,0,0,0,.021,0,.021-.172,13.455,10.277,20.489,23.828,16.042,4.792-.359,9.585-.718,14.377-1.077.174.572.349,1.144.523,1.716-11.225,1.927-24.322,7.634-34.357.988-5.781-3.829-15.912-17.463-5.367-20.963Z"/><path class="cls-24" d="m134.297,115.695c-6.763,3.123-16.227,3.981-13.005,15.479-1.719-2.998-3.441-5.993-5.163-8.991,1.444-1.192,2.887-2.381,4.332-3.57.387-.73.774-1.461,1.16-2.191,2.049-3.13,4.099-6.26,6.148-9.39,2.713-2.237,5.426-4.473,8.406-6.93-.75,6.223-1.314,10.908-1.879,15.594Z"/><path class="cls-3" d="m49.008,169.909c.982,3.704,1.964,7.409,3.54,13.351,4.79-6.232,11.502-8.038,7.559-15.13,1.389-.487,2.779-.973,4.165-1.46,2.022,7.721-3.643,16.634-6.373,23.851-2.425-1.977-5.022-4.095-7.618-6.214-.423-4.8-.848-9.599-1.272-14.398Z"/><path class="cls-17" d="m105.532,173.331c-4.063-1.055-8.126-2.11-12.189-3.166,1.244-1.97,2.243-5.369,3.779-5.632,4.17-.714,8.567-.099,12.874-.011.592,1.692,1.185,3.385,1.777,5.077-2.08,1.244-4.16,2.489-6.241,3.733Z"/><path class="cls-10" d="m111.773,169.598c-.592-1.692-1.185-3.385-1.777-5.077,11.297-8.931,11.692-16.038,1.165-23.091-1.861-1.247-4.09-1.947-6.15-2.9-.182-.558-.364-1.115-.547-1.673,14.242,1.46,19.942,10.431,15.575,24.518-2.755,2.741-5.511,5.482-8.267,8.222Z"/><path class="cls-46" d="m111.575,197.208c18.984-6.54,25.976-5.114,21.182-25.471,2.17,6.862,7.06,14.715,3.126,21.082-3.981,6.444-18.248,7.195-24.308,4.39Z"/><path class="cls-12" d="m120.46,118.612c-1.444,1.189-2.888,2.379-4.331,3.57-7.379,1.254-14.809,5.957-22.075-.319-4.13-2.869-8.261-5.738-12.391-8.608.583-.225,1.165-.449,1.747-.673,11.175,9.2,23.65,10.446,37.05,6.03Z"/><path class="cls-39" d="m80.179,113.503c-.955-.871-1.91-1.742-2.865-2.612-4.373-9.568.449-19.545,10.054-23.748,13.132-5.746,22.062,5.527,31.003,13.712-11.639-2.65-12.516-4.785-24.468-2.692-4.521.792-4.498-4.553-9.883-1.594-3.395,1.865-3.477,14.308-3.84,16.935Z"/><path class="cls-26" d="m80.179,113.503c.364-2.627.446-15.07,3.841-16.935,5.385-2.959,5.362,2.386,9.883,1.594,11.952-2.093,12.829.042,24.468,2.692,3.133,2.058,6.266,4.117,9.399,6.177-2.049,3.13-4.098,6.26-6.148,9.39,4.626-21.375-42.13-21.216-38.211-3.839-.582.224-1.164.448-1.747.673-.493.098-.988.18-1.485.248Z"/><path class="cls-42" d="m64.981,106.843c5.525,15.656-3.268,16.391-16.884,14.963,3.598-5.871,7.024-11.868,11.086-17.399.365-.497,4.838,2.018,5.798,2.436Z"/><path class="cls-37" d="m79.617,117.423c5.685,1.876,12.273,4.323,9.668,11.571-3.084,8.581-11.209,7.415-18.538,6.147-4.585-9.674,4.152-12.692,8.87-17.718Z"/><path class="cls-4" d="m104.464,136.858c.182.558.364,1.115.547,1.673-12.804,4.255-26.785,6.665-22.551,23.431,3.909-1.3,7.818-2.599,11.726-3.899.236.487.471.975.707,1.462-2.524,2.94-5.047,5.881-7.571,8.821-2.044-.541-4.088-1.082-6.132-1.623-6.728-8.42-6.868-12.86-.75-23.854,8.007-2.004,16.016-4.007,24.025-6.011Z"/><path class="cls-13" d="m79.617,117.423c-4.718,5.026-13.455,8.045-8.87,17.718-8.592-4.212-8.921-5.385-1.906-11.189,3.201-2.648,7.16-4.381,10.776-6.529Z"/><path class="cls-11" d="m62.44,137.905c4.312,9.986.379,29.972-11.677,21.288-13.094-9.43-1.591-26.051,11.681-21.271,0,0-.003-.018-.003-.018Z"/><path class="cls-14" d="m83.398,173.364c12.896,4.869,25.79,7.183,38.68-.037,7.262-2.797,7.158,4.664,5.953,8.939-1.322,4.69-12.869,8.281-16.306,9.129-6.056,1.494-15.921,2.19-22.116.133-12.833-4.26-11.188-7.859-6.212-18.164Z"/><path class="cls-9" d="m87.322,168.346c2.524-2.94,5.047-5.881,7.571-8.821-.236-.487-.471-.975-.707-1.462-3.908,1.3-7.817,2.599-11.726,3.899-4.234-16.766,9.747-19.176,22.551-23.431,2.059.952,4.288,1.652,6.15,2.899,10.527,7.053,10.132,14.16-1.165,23.091-4.307-.088-8.704-.703-12.874.011-1.536.263-2.535,3.662-3.779,5.632-2.007-.605-4.015-1.212-6.022-1.819Zm13.084-10.499c6.022-.079,11.912,3.536,15.401-4.569-6.409-2.88-11.395-4.199-15.401,4.569Z"/><path class="cls-34" d="m83.398,173.364c-4.976,10.305-6.621,13.904,6.212,18.164,6.195,2.056,16.06,1.361,22.116-.133,3.436-.848,14.984-4.439,16.306-9.129,1.205-4.275,1.308-11.735-5.953-8.939,5.784-7.796,10.772,4.992,9.85,10.194-1.739,9.81-12.768,11.001-20.893,11.979-4.792.359-9.585.718-14.377,1.078-11.685.203-20.279-4.179-23.828-16.042,0,0,0-.021,0-.021,3.349-2.64,3.408-10.14,10.57-7.151Z"/><path class="cls-41" d="m136.039,137.357c-3.198-4.317-6.395-8.633-11.087-14.967,6.799-1.343,18.528-6.448,23.441,1.906,5.454,9.273-4.585,12.782-12.354,13.066,0,0,0-.004,0-.004Z"/><path class="cls-31" d="m140.654,160.677c-2.276-6.845-6.003-11.866-2.522-18.348,2.944,7.406,13.9-2.883,14.439,8.331.308,6.412-4.495,10.148-11.917,10.017Z"/><path class="cls-6" d="m72.828,180.536c3.548,11.863,12.143,16.245,23.828,16.042-13.551,4.447-24-2.587-23.828-16.042Z"/><path class="cls-36" d="m83.411,112.582c-3.92-17.377,42.837-17.536,38.211,3.839-.387.73-.773,1.461-1.16,2.191-13.401,4.417-25.875,3.17-37.05-6.03Zm29.243-6.969c-5.625.19-10.65-.258-15.404.674-8.082,1.584,6.495,22.949,15.404-.674Z"/><path class="cls-17" d="m100.405,157.847c4.006-8.768,8.992-7.449,15.401-4.569-3.489,8.104-9.379,4.49-15.401,4.569Z"/><path class="cls-21" d="m112.653,105.613c-8.908,23.622-23.485,2.258-15.404.674,4.754-.932,9.778-.483,15.404-.674Z"/></svg>