<?xml version="1.0" encoding="UTF-8"?><svg id="Layer_1" xmlns="http://www.w3.org/2000/svg" viewBox="0 0 226.044 267.083"><defs><style>.cls-1{fill:#6a63ac;}.cls-2{fill:#e6d3e7;}.cls-3{fill:#dec3de;}.cls-4{fill:#9583bd;}.cls-5{fill:#9385bf;}.cls-6{fill:#baadd5;}.cls-7{fill:#f4e4ef;}.cls-8{fill:#c3add3;}.cls-9{fill:#d1a6cd;}.cls-10{fill:#8f80bc;}.cls-11{fill:#7d72b4;}.cls-12{fill:#dfc5df;}.cls-13{fill:#7f6db1;}.cls-14{fill:#d4c1dd;}.cls-15{fill:#ad9aca;}.cls-16{fill:#9b8fc5;}.cls-17{fill:#b280b9;}.cls-18{fill:#fbf7f9;}.cls-19{fill:#dccfe5;}.cls-20{fill:#9083be;}.cls-21{fill:#ebcfe4;}.cls-22{fill:#d2afd2;}.cls-23{fill:#f8edf4;}.cls-24{fill:#b17fb8;}.cls-25{fill:#bbabd3;}.cls-26{fill:#b6a4cf;}.cls-27{fill:#fbfafa;}.cls-28{fill:#ddcae3;}.cls-29{fill:#776db1;}.cls-30{fill:#bba7d0;}.cls-31{fill:#d1aad0;}.cls-32{fill:#cdaad0;}.cls-33{fill:#6d64ad;}.cls-34{fill:#f1daea;}.cls-35{fill:#f4e1ee;}.cls-36{fill:#9384be;}.cls-37{fill:#7167ae;}.cls-38{fill:#a28dc2;}.cls-39{fill:#9280bc;}.cls-40{fill:#ae83ba;}.cls-41{fill:#caa6ce;}.cls-42{fill:#e2c5dd;}.cls-43{fill:#f7e7f1;}.cls-44{fill:#cca5cd;}.cls-45{fill:#b79fcc;}.cls-46{fill:#b489be;}.cls-47{fill:#b288be;}.cls-48{fill:#c2abd2;}.cls-49{fill:#8b7dba;}.cls-50{fill:#ac81ba;}.cls-51{fill:#cba5cd;}.cls-52{fill:#ddbad9;}.cls-53{fill:#d6acd0;}.cls-54{fill:#aa7ab5;}.cls-55{fill:#f9f2f4;}.cls-56{fill:#ece5f1;}.cls-57{fill:#9f6fb0;}.cls-58{fill:#cba4cc;}.cls-59{fill:#8477b7;}.cls-60{fill:#ad7ab5;}.cls-61{fill:#f6e9f2;}.cls-62{fill:#beabd3;}.cls-63{fill:#ceaad0;}.cls-64{fill:#dcc4df;}.cls-65{fill:#a982ba;}.cls-66{fill:#eac6de;}.cls-67{fill:#ecd3e6;}.cls-68{fill:#e4d7e8;}.cls-69{fill:#e6d7e9;}.cls-70{fill:#c6a2cc;}</style></defs><path class="cls-34" d="m204.378,231.448c-.468-1.54-2.174-7.139-4.859-7.305-.948-.059-2.022.566-3.235,2.24-3.348,4.619-7.756,7.126-11.289,10.951l-.008-.019c-18.758,5.841-34.645,18.192-53.589,23.63-.481.138-.757.991-1.128,1.51-3.089,2.191-6.671,1.762-10.174,2.116-15.506,1.567-29.176-6.691-44.121-8.009-2.301-2.521-5.61-2.737-8.533-3.93-16.192-6.607-33.136-5.903-50.057-5.684-1.275-.023-2.551-.046-3.826-.07-.686-.731-1.373-1.462-2.059-2.192,2.617-4.26,29.825-4.352,36.097-3.861,9.359.732,17.992,11.106,27.384,7.768-11.007-7.566-15.83-7.134-3.35-12.542,4.771-2.068,4.479-4.034,9.63-3.689,7.124.477,9.851,14.637,16.081.92,1.257.7,2.514,1.399,3.771,2.099-.251,2.811.718,5.311,1.969,7.74-11.3-.134-2.368,7.747,1.382,9.763,2.996,1.61,31.89,1.721,35.263,1.126,15.958-2.816,34.959-20.585,44.108-33.191,9.801-13.505,6.038-19.76-3.924-8.677-1.19,1.324-4.723,15.782-10.737,10.895-5.468-4.443,2.241-11.524-.079-14.471-3.456-1.062-4.869,2.568-7.522,3.386-.055-.673-.109-1.346-.163-2.019,1.391-1.229,2.782-2.458,4.173-3.687,9.944-.568,15.679-4.925,16.788-15.666.465-4.506-1.089-9.76,2.477-13.826.04,2.029-1.266,11.379,1.935,12.464,3.869,1.312,3.922-5.358,5.239-5.559-4.394.671,12.098-4.535,10.235-3.526,3.125-1.693,5.464-1.149,8.005-5.188.256,10.369-4.145,19.816-6.132,29.739-1.251,6.248-.478,9.878,6.022,11.257,3.229,7.664-4.554,19.514-5.773,15.507Z"/><path class="cls-32" d="m87.557,28.869c-.755-6.533-1.51-13.067-2.265-19.6.145-1.79.289-3.581.434-5.371,2.32-.752,2.973-4.01,5.868-3.895-2.371,15.519,2.314,27.744,1.536,44.545-4.313-4.436.983-11.2-3.766-15.53-.603-.047-1.205-.096-1.807-.149Z"/><path class="cls-43" d="m97.563,5.552c.612,3.572,6.388,3.249,5.825,7.708-.064,2.586-.128,5.172-.191,7.758-.072,7.827-.144,15.654-.217,23.481-3.698,2.597.134,8.097-3.759,10.8-2.881-1.882-1.207-6.936-5.724-6.946-.123-1.269-.245-2.537-.368-3.806.78-16.801-3.905-29.026-1.534-44.545,3.766-.058,2.786,4.981,5.968,5.549Z"/><path class="cls-65" d="m140.187,34.69c.571.062,1.136.158,1.697.285,1.549,7.681,17.07,5.507,22.499,7.061,8.821,2.526,16.979,7.529,23.182,14.215,17.173,18.512,8.051,33.033,10.884,54.573-.614-.005-1.228.013-1.841.051-7.827-13.481,5.952-57.046-23.303-60.59-1.358-.588-2.717-1.177-4.075-1.765-6.198-3.895-13.49-2.645-20.169-3.572-7.155-.993-9.63-3.598-8.872-10.259Z"/><path class="cls-70" d="m140.187,34.69c-.758,6.66,1.717,9.266,8.872,10.259,6.68.927,13.971-.324,20.17,3.571-3.557-.044-7.116-.094-10.675-.129q-19.661-.19-20.725-19.282c.281-.188.565-.372.85-.554.55,1.398,1.1,2.795,1.65,4.193-.047.647-.095,1.295-.143,1.942Z"/><path class="cls-63" d="m198.774,114.44c1.696,6.685,8.286,10.709,9.592,17.607-.016,1.97-.032,3.939-.047,5.908-3.084-2.6-2.182-7.541-5.787-9.835-1.99-3.815-3.98-7.629-5.97-11.445.015-1.933.03-3.866.045-5.798.613-.04,1.228-.059,1.842-.053.162.636.325,1.271.491,1.906-.199.556-.254,1.126-.165,1.71Z"/><path class="cls-7" d="m196.562,116.677c1.99,3.815,3.98,7.629,5.97,11.445.027,6.403,2.122,9.36-.713,15.186-3.173,6.521-8.228-.823-9.482,8.261-1.468,10.633,17.484,15.486,17.929,23.374l-.004.004c-2.541,4.04-4.88,3.496-8.005,5.188,1.863-1.009-14.629,4.197-10.235,3.526-1.318.201-1.37,6.872-5.239,5.559-3.201-1.086-1.895-10.436-1.934-12.463.006-1.219.01-2.439.015-3.659,9.514-11.52,11.348-4.28.081-15.664.675-5.68-2.035-9.932-5.805-13.736-6.661-14.413-5.674-5.77-15.113-4.649-2.795.332-3.958-13.367-5.38-15.463-5.06-7.458-12.338-7.949-20.571-10.865-.114-6.007,7.483-7.395,8.438-14.422-8.14,5.99-13.759-2.985-22.365-2,16.822,15.478-12.2,9.256-13.278,14.377-1.379,4.549-2.758,9.099-4.137,13.648-1.531.164-11.56,6.053-12.567,7.335-.178.226-.538.31-.815.459-.505-11.033,8.472-17.885,7.55-29.634-.762-9.71-7.799-15.528,4.666-20.118,6.444-2.372,17.837,3.321,25.318,1.624,8.626-1.957,20.482-13.899,29.242-4.668,10.587,11.157-14.265,2.78.647,12.754,1.118.748,22.413,9.844,22.515,9.797,4.725-2.166,1.678-29.357,1.691-34.09,3.805,6.34,5.342,13.645,3.608,20.378-2.959,11.489,3.508,19.546,7.972,28.516Zm-18.226-3.124c-6.292-5.286-12.505-10.523-18.782-15.682-3.97-3.263-6.01,11.532-3.099,15.505,6.447,8.798,16.419,7.725,21.88.177Zm-61.592-19.064c.164-9.536-12.206-11.367-12.341-1.488-.115,8.378,12.098,11.012,12.341,1.488Z"/><path class="cls-27" d="m11.501,244.688c-1.221.358-1.722-.367-2.045-1.358-1.883-14.809-4.498-31.176,19.608-21.66,7.402,16.853,13.117-20.014,12.755-19.427,6.144-9.968,21.199-.277,26.233-9.728.584-.752,1.169-1.503,1.753-2.254.093-.509.207-1.013.343-1.513,1.217.649,2.435,1.299,3.653,1.948-.54,4.626,2.176,7.403,5.571,9.795,1.438,2.491,2.877,4.983,4.315,7.474.619,3.129,2.068,6.357,1.704,9.367-1.141,9.441,2.771,14.545,11.984,15.945l-.031.004c-6.23,13.718-8.958-.442-16.082-.919-5.151-.345-4.859,1.621-9.63,3.689-12.479,5.408-7.657,4.977,3.35,12.542-9.392,3.339-18.024-7.036-27.383-7.768-6.272-.49-33.48-.399-36.097,3.861Z"/><path class="cls-23" d="m161.573,211.953c2.653-.818,4.066-4.449,7.522-3.386,2.321,2.947-5.389,10.028.079,14.471,6.015,4.888,9.547-9.57,10.737-10.895,9.961-11.084,13.725-4.828,3.924,8.677-9.15,12.607-28.15,30.375-44.109,33.191-3.373.595-32.268.485-35.263-1.126-3.75-2.016-12.682-9.896-1.381-9.763,5.99,3.846,20.101,1.014,23.623-6.02.938-1.873-3.31-6.872-2.282-11.633,5.197-5.778,5.447-11.636.286-17.582,3.794-6.005,9.293-5.444,15.047-3.899-.597.645-1.193,1.29-1.79,1.935-3.533,10.182-2.338,13.209,5.448,18.62.357.248,17.022,4.702,17.443,4.476-2.082,1.117-.208-14.987.715-17.067Z"/><path class="cls-4" d="m137.968,205.923c.597-.645,1.193-1.29,1.793-1.935,2.297-.226,3.43-1.784,4.252-3.699,5.204-9.325,11.947,4.028,19.018,2.715,6.141-1.141,13.396-12.624,14.051-18.21,1.575.925,1.795,2.438,2.071,4.098,1.787,10.759-7.538,12.756-13.568,17.354-1.391,1.229-2.782,2.458-4.172,3.688-12.972,10.728-13.794,16.07-23.444-4.011Z"/><path class="cls-41" d="m226.044,146.024c-10.431,7.615-8.663,18.467-11.087,29.68-3.05,14.109-9.07,25.396-4.804,40.237-6.501-1.378-7.274-5.008-6.023-11.256,1.987-9.923,6.388-19.371,6.132-29.739,0,0,.004-.004.004-.004,0,0,.894-.031.894-.031l.894.006c4.024-12.852,3.482-25.242-3.738-36.959l.003-.003c.016-1.969.031-3.938.047-5.908,3.896,1.936,3.679,11.98,11.643,5.896-.002,1.259-.004,2.518-.006,3.777-3.417,9.045,4.336,2.437,6.041,4.304Z"/><path class="cls-8" d="m165.583,206.247c6.031-4.598,15.355-6.596,13.568-17.354-.276-1.66-.496-3.174-2.07-4.099-2.816-.124-4.987-1.188-5.925-4.054,3.122-1.116,7.223,2.804,9.526-1.147,3.901-6.693-3.058-17.569-11.42-18.381.032-2.56.064-5.121.097-7.681,11.633.884,10.501,2.123,9.781-9.835,3.77,3.804,6.48,8.056,5.805,13.736-3.296,5.204-2.806,10.428-.081,15.664-.005,1.22-.009,2.44-.015,3.659-3.566,4.065-2.013,9.319-2.478,13.825-1.108,10.741-6.844,15.098-16.788,15.666Z"/><path class="cls-45" d="m124.712,207.886c5.159,5.947,4.909,11.806-.287,17.584-4.569,1.565-9.473,2.205-12.785,6.553-2.538,3.332-6.575,3.594-10.526,3.358-1.257-.699-2.515-1.399-3.771-2.099,0,0,.031-.005.03-.004-3.405-9.063-8.395-17.269-13.687-25.313-1.438-2.491-2.877-4.983-4.313-7.475,3.661.509,4.927,4.456,8.116,5.639,2.502,6.841,7.943,11.716,11.849,17.62,6.692,10.117,7.452,10.053,15.464-.116,10.934-.294,10.148-7.781,9.379-15.258l.531-.49Z"/><path class="cls-12" d="m101.113,235.382c3.951.236,7.988-.026,10.526-3.358,3.312-4.348,8.217-4.989,12.785-6.553-1.029,4.76,3.219,9.758,2.281,11.632-3.522,7.034-17.634,9.865-23.623,6.02-1.252-2.429-2.22-4.93-1.969-7.74Z"/><path class="cls-26" d="m137.968,205.923c9.649,20.081,10.471,14.739,23.444,4.011.053.673.107,1.345.162,2.018-.923,2.08-2.797,18.184-.715,17.067-.421.226-17.086-4.228-17.443-4.476-7.786-5.411-8.981-8.438-5.448-18.62Z"/><path class="cls-58" d="m71.796,256.856c-5.773-1.473-11.258-4.171-17.401-4.063-7.599-4.118-15.776-1.21-23.66-1.874-4.791-.403-9.808.442-13.35-3.969,16.921-.22,33.865-.923,50.057,5.684,2.923,1.193,6.231,1.409,8.532,3.931-1.393.098-2.785.195-4.178.291Z"/><path class="cls-9" d="m184.986,237.316c-.895,3.028-4.282,3.375-5.973,5.549-13.603,6.58-27.207,13.158-40.81,19.736,0,0-.044-.039-.044-.039-2.63-.035-5.26-.069-7.89-.104.371-.52.647-1.372,1.128-1.51,18.943-5.439,34.831-17.789,53.589-23.63Z"/><path class="cls-17" d="m130.27,262.457c2.63.035,5.26.069,7.89.104-7.905,6.104-17.243,4.519-25.901,3.755-13.83-1.221-27.644-3.468-40.461-9.46,1.391-.096,2.784-.192,4.177-.29,14.946,1.316,28.616,9.575,44.122,8.008,3.502-.354,7.085.075,10.174-2.116Z"/><path class="cls-44" d="m204.378,231.448c-1.711-.391-4.286-2.724-5.01-.298-2.445,8.2-9.034,5.487-14.374,6.183,3.534-3.824,7.941-6.331,11.29-10.95,4.169-5.751,6.694.882,8.095,5.065Z"/><path class="cls-40" d="m17.386,246.95c3.542,4.411,8.559,3.566,13.35,3.969,7.884.664,16.061-2.244,23.66,1.874-9.392.045-18.798.414-28.17.002-4.749-.209-10.713.84-12.666-5.913,1.275.023,2.551.046,3.826.069Z"/><path class="cls-21" d="m29.063,221.67c-24.106-9.516-21.491,6.852-19.608,21.66-2.788-.155-4.541-1.78-5.812-4.089-1.12-8.203.787-15.872,4.119-23.289,0,0-.072-.02-.073-.02.653-.009,1.306-.018,1.958-.027,14.311-1.342,18.296-7.094,13.505-19.494l-.009-.01c-1.394-4.789,6.314-7.391,4.627-9.433-6.086-7.364-2.028-16.761-5.632-23.624-3.7-7.047-2.239-11.956,1.038-17.66,4.004-4.423.19-11.75,5.795-15.578,2.765,11.67-9.426,30.387-3.351,40.611,3.855,6.487,13.141,2.534,16.68,9.602,5.495,10.973-11.098,15.202-12.399,23.535-1.057,6.77,12.021,15.623-.84,17.817Z"/><path class="cls-60" d="m138.203,262.6c13.603-6.578,27.207-13.156,40.81-19.736-.609,1.315-1.217,2.632-1.825,3.948-12.26,7.072-24.688,13.733-38.985,15.788Z"/><path class="cls-50" d="m3.829,217.954c1.311-.668,2.621-1.336,3.932-2.004-3.331,7.418-5.237,15.087-4.118,23.29-7.338-7.16-1.624-14.206.185-21.287Z"/><path class="cls-52" d="m28.972,130.105c-5.606,3.828-1.792,11.155-5.795,15.579-.342-3.206,1.104-6.668-1.372-9.569-.242-.696-.485-1.392-.727-2.088,1.312-2.592,2.624-5.185,3.936-7.778.833-1.808,1.665-3.617,2.495-5.427,8.093-3.248,7.839-12.677,13.27-17.895,5.573-2.68,8.877-8.007,13.617-11.659,23.872-4.162,6.876-22.527,7.747-35.096.112-.588.198-1.18.256-1.776.579-.16,1.166-.196,1.76-.108,3.87,33.431,31.343,8.162,3.651-3.256,5.325-1.917,9.751-.294,13.637,3.458,3.01,5.806,5.996,11.674,13.782,5.472-1.259,5.238-2.519,10.476-3.78,15.713-12.158,2.925-22.573,8.976-32.194,16.903-10.157,8.369-21.232,15.775-24.448,29.754-3.543,1.394-3.995,5.104-5.835,7.775Z"/><path class="cls-55" d="m67.81,51.03c27.692,11.418.219,36.687-3.651,3.256.719-1.176,1.438-2.352,2.156-3.529.519-.026,1.018.065,1.495.272Z"/><path class="cls-47" d="m81.447,54.488c6.442-7.311,6.434-16.623,7.917-25.471,4.749,4.331-.547,11.095,3.765,15.531.121,1.269.244,2.537.366,3.806.076,3.943,2.682,7.509,1.732,11.605-7.785,6.203-10.771.335-13.781-5.471Z"/><path class="cls-57" d="m128.322,28.866c.137-1.57.491-3.027,2.013-3.879-.043,11.945.179,19.703-11.201,25.025-20.153,9.426-13.97-12.617-13.915-26.96,2.719,7.347,3.782,20.569,12.604,21.441,10.837,1.071,10.519-8.255,10.498-15.627Z"/><path class="cls-51" d="m105.219,23.052c-.055,14.343-6.238,36.386,13.915,26.96,11.38-5.322,11.158-13.08,11.201-25.025,1.279-2.514,3.666-1.554,5.667-1.804.892,1.791,1.785,3.582,2.678,5.372-.285.181-.568.366-.847.552-9.431-1.074-3.823,16.561-9.96,23.212-11.837,12.829-22.864,7.741-24.893-7.819.072-7.827.145-15.654.217-23.481.674.678,1.349,1.355,2.023,2.033Z"/><path class="cls-67" d="m102.979,44.5c2.029,15.56,13.056,20.648,24.893,7.819,6.136-6.651.528-24.286,9.96-23.212q1.061,19.094,20.723,19.283c3.559.034,7.117.085,10.675.129,1.357.589,2.716,1.178,4.074,1.767-.031.675-.061,1.35-.092,2.025-8.055-.908-18.844-3.716-26.978-1.139-10.143,3.214-6.862,9.618-12.982,13.483-10.661,6.734-5.709-2.254-17.073-.887-7.615.916-14.23,13.067-20.806,11.945-1.308-.014-2.615-.027-3.922-.04,1.26-5.237,2.52-10.475,3.78-15.713.949-4.097-1.657-7.663-1.733-11.606,4.518.01,2.844,5.064,5.725,6.946,3.892-2.703.061-8.203,3.759-10.8Z"/><path class="cls-22" d="m173.211,52.311c.03-.675.061-1.35.092-2.025,29.256,3.544,15.477,47.109,23.304,60.59-.015,1.934-.029,3.866-.045,5.8-4.465-8.968-10.931-17.025-7.972-28.515,1.734-6.733.197-14.038-3.609-20.377-1.35-7.112-6.019-11.703-11.77-15.473Z"/><path class="cls-34" d="m212.054,174.916l-.894-.006s-.894.031-.894.031c-.445-7.888-19.397-12.741-17.929-23.374,1.254-9.084,6.309-1.739,9.482-8.261,2.835-5.826.739-8.783.713-15.186,3.605,2.293,2.703,7.234,5.787,9.834,0,0-.003.003-.003.003,2.207,12.223,5.226,24.363,3.738,36.959Z"/><path class="cls-18" d="m173.211,52.311c5.751,3.77,10.42,8.361,11.77,15.473-.012,4.731,3.035,31.923-1.69,34.089-.102.047-21.397-9.05-22.515-9.797-14.911-9.974,9.94-1.598-.647-12.754-8.76-9.232-20.616,2.711-29.242,4.668-7.481,1.697-18.874-3.996-25.318-1.624-12.465,4.589-5.427,10.408-4.666,20.118.922,11.75-8.056,18.601-7.55,29.634.667,9.393,10.189,3.295,13.654,7.793-2.763,7.334-11.334,7.998-15.622,13.581-.66.027-1.32.054-1.979.081-.404-4.65-4.393-7.492-5.865-11.603-1.02-9.514-1.594-22.183-1.296-31.681,1.346-3.974,2.985-7.824,4.919-11.549.144-3.449-1.358-5.472-4.507-6.07-.029-4.289-6.531.886-4.259-5.907.64-1.913,14.589-2.197,16.976-11.047,6.575,1.122,13.191-11.03,20.806-11.946,11.365-1.367,6.413,7.622,17.073.887,6.12-3.866,2.838-10.269,12.982-13.483,8.134-2.577,18.923.23,26.978,1.139Z"/><path class="cls-62" d="m106.734,124.323c1.379-4.549,2.758-9.099,4.137-13.648,7.785.946,15.891-2.099,23.43,1.891,0,0-.191.389-.19.386-8.418-.27-16.366-2.497-21.797,4.487-7.88,10.136.384,23.656,12.34,16.791,5.559-.52,8.988,3.664,13.257,5.992.186,1.626-.321,2.913-1.817,3.716-4.812-.559-9.482-1.647-13.888-3.721-9.819-12.768-6.162,16.566-7.4,17.146-1.304-1.273-2.608-2.546-3.913-3.819-.747-1.886-2.093-3.172-3.958-3.934.682-3.228,1.362-6.456,2.043-9.684-.972-5.169-2.737-10.225-2.245-15.605Z"/><path class="cls-30" d="m179.139,143.696c.72,11.958,1.852,10.719-9.781,9.835-2.85.226-5.347-.739-7.68-2.266.688-.586,1.377-1.175,2.067-1.763,18.18-3.587.84-5.306-4.355-10.312-6.976-6.723-.333-21.717-15.348-20.726l-.045.037c-3.296-1.848-6.592-3.697-9.887-5.545,0,0,.191-.389.191-.388,1.258.051,2.517.102,3.775.152,8.233,2.916,15.511,3.408,20.571,10.865,1.422,2.096,2.584,15.795,5.38,15.463,9.439-1.12,8.451-9.763,15.113,4.649Z"/><path class="cls-42" d="m178.336,113.552c-5.462,7.548-15.434,8.621-21.88-.177-2.911-3.972-.871-18.768,3.099-15.505,6.277,5.159,12.489,10.396,18.782,15.682Z"/><path class="cls-14" d="m138.076,112.719c-1.259-.05-2.517-.101-3.775-.152-7.538-3.991-15.645-.946-23.429-1.892,1.078-5.122,30.1,1.1,13.278-14.377,8.606-.985,14.224,7.99,22.365,2-.955,7.027-8.553,8.414-8.438,14.422Z"/><path class="cls-68" d="m106.734,124.323c-.492,5.38,1.272,10.435,2.244,15.604-.658-.006-1.315-.012-1.972-.018-3.465-4.498-12.987,1.599-13.654-7.793.276-.149.637-.232.815-.459,1.007-1.282,11.036-7.171,12.567-7.335Z"/><path class="cls-66" d="m116.731,94.512c-.231,9.5-12.444,6.866-12.329-1.512.135-9.878,12.505-8.048,12.329,1.512Z"/><path class="cls-34" d="m184.863,173.097c-2.724-5.236-3.215-10.46.081-15.664,11.267,11.384,9.433,4.144-.081,15.664Z"/><path class="cls-61" d="m28.972,130.105c1.839-2.671,2.292-6.381,5.836-7.775,5.515-.971,7.575,2.083,9.451,6.8,1.718,4.321-.054,10.541,6.12,12.735,2.116,5.244-4.682,10.473-.024,15.721.764,3.915,1.529,7.83,2.293,11.745-1.18,4.871-10.97,5.843-6.101,13.453,2.408,10.525,8.117,13.108,21.505,9.73-5.034,9.45-20.089-.24-26.233,9.727.362-.587-5.353,36.279-12.755,19.427,12.861-2.194-.217-11.048.84-17.818,1.301-8.332,17.894-12.561,12.399-23.535-3.54-7.068-12.826-3.115-16.68-9.602-6.075-10.224,6.116-28.941,3.351-40.611Zm17.374,35.505c-1.615-6.453-5.765-9.79-12.316-10.016-12.504-.43,12.926,24.241,12.316,10.016Z"/><path class="cls-39" d="m87.488,206.13c-3.19-1.184-4.456-5.131-8.116-5.64-3.397-2.39-6.113-5.168-5.573-9.794,8.656-10.999,8.115-7.51,5.764-21.383,4.897,2.68,8.956,5.793,7.488,12.394-.856,3.851,2.452,2.561,4.225,3.125,2.214,6.514,7.754,2.86,11.777,3.845,1.933.659,3.865,1.319,5.798,1.978.026.595.072,1.188.14,1.78-8.127-.975-16.255-1.951-24.901-2.988,1.002,6.133,4.16,11.045,3.399,16.682Z"/><path class="cls-13" d="m79.562,169.316c2.353,13.871,2.893,10.382-5.763,21.381-1.218-.649-2.435-1.299-3.653-1.948-.724-.685-1.448-1.37-2.171-2.055-6.352-16.697-6.094-17.273,7.94-17.744,1.216.122,2.431.245,3.647.367Z"/><path class="cls-45" d="m67.974,186.694c.724.685,1.447,1.37,2.172,2.055-.135.499-.25,1.003-.341,1.515-9.009,1.413-15.432-5.213-23.258-7.477-4.869-7.61,4.922-8.582,6.1-13.455,2.57-.25,3.5-2.411,4.996-4.048,4.645-5.08,9.503-6.472,14.306-.084l-2.04.051c-12.938-5.29-9.642,8.045-11.731,12.177-2.955,5.845,3.791,8.793,9.798,9.266Z"/><path class="cls-2" d="m83.685,207.966c5.293,8.043,10.283,16.25,13.687,25.313-9.212-1.401-13.124-6.505-11.983-15.946.364-3.01-1.085-6.239-1.704-9.367Z"/><path class="cls-21" d="m46.546,182.786c7.827,2.265,14.249,8.89,23.258,7.477-.585.749-1.17,1.5-1.754,2.252-13.388,3.379-19.096.796-21.504-9.729Z"/><path class="cls-26" d="m108.99,192.437c-.067-.592-.114-1.185-.139-1.781,3.854-1.142,5.284-16.399,3.359-18.777-5.681-7.018-15.989,2.729-18.912-12.514,1.153-7.988,9.481-5.96,13.637-9.754,1.866.762,3.211,2.048,3.959,3.934-10.338-1.462-11.591,9.045-8.346,14.16,4.578,7.217,13.378.495,16.001,13.187.149,3.669-7.108,6.804-1.501,10.539,4.845,3.228,6.158,12.975,15.253,8.803,3.937-7.008,7.796,2.643,11.712.055-.822,1.915-1.955,3.473-4.252,3.699-5.757-1.546-11.256-2.107-15.05,3.898.001,0-.529.489-.527.486-2.251-2.433-1.583-6.792-5.405-8.187-1.767-4.47-4.99-7.103-9.789-7.749Z"/><path class="cls-11" d="m144.012,200.29c-3.916,2.588-7.775-7.063-11.712-.055-10.457-2.546-8.776-12.363-11.664-19.443.654-.648,1.308-1.295,1.962-1.943,1.446,2.268,3.842,1.87,6.002,2.136-1.218,6.659,13.016,4.109,16.955,2.313,7.484-3.413,13.635-12.515,19.875-18.102,1.34-.622,2.68-1.245,4.02-1.867,4.394-.142,6.976,1.285,7.779,6.271.92,5.71-1.988,8.559-6.074,11.141.938,2.866,3.109,3.93,5.925,4.054-.655,5.587-7.91,17.07-14.051,18.211-7.07,1.313-13.813-12.04-19.018-2.715Z"/><path class="cls-31" d="m212.054,174.916c1.489-12.596-1.531-24.736-3.738-36.959,7.22,11.716,7.761,24.107,3.738,36.959Z"/><path class="cls-56" d="m161.68,151.263c2.331,1.529,4.828,2.495,7.678,2.268-.032,2.56-.064,5.121-.096,7.682,0,0-.002.025-.002.026-6.679-.163-14.902,7.87-19.443-3.654-.659-10.751,6.392-7.057,11.863-6.322Z"/><path class="cls-4" d="m171.156,180.74c4.086-2.582,6.994-5.431,6.074-11.141-.803-4.986-3.384-6.413-7.78-6.271-.064-.697-.127-1.393-.191-2.089,0,0,.003-.025.002-.025,8.362.81,15.32,11.687,11.42,18.38-2.303,3.951-6.403.031-9.526,1.147Z"/><path class="cls-29" d="m108.99,192.437c4.799.646,8.022,3.279,9.788,7.75,3.024,8.552,2.751,16.546-3.976,23.448-8.013,10.169-8.772,10.232-15.464.116-3.906-5.904-9.347-10.778-11.849-17.62.761-5.636-2.398-10.548-3.399-16.681,8.646,1.038,16.773,2.013,24.901,2.988Z"/><path class="cls-20" d="m114.802,223.634c6.727-6.901,7-14.895,3.976-23.448,3.823,1.395,3.155,5.753,5.406,8.187.766,7.48,1.552,14.967-9.382,15.261Z"/><path class="cls-53" d="m17.457,174.845c-.047-9.062-.095-18.124-.143-27.186-.025-4.439,1.996-8.084,4.491-11.544,2.476,2.901,1.03,6.363,1.372,9.569-3.278,5.704-4.739,10.612-1.039,17.659,3.603,6.863-.454,16.259,5.632,23.624,1.687,2.042-6.021,4.644-4.626,9.433-5.976-6.11-1.955-14.854-5.687-21.555Z"/><path class="cls-53" d="m9.648,215.904c3.389-7.268,13.556-9.847,13.505-19.494,4.791,12.399.806,18.152-13.505,19.494Z"/><path class="cls-35" d="m50.378,141.866c-6.173-2.194-4.4-8.415-6.119-12.735-1.876-4.717-3.936-7.772-9.451-6.8,3.215-13.98,14.29-21.386,24.447-29.755,9.621-7.927,20.036-13.978,32.194-16.903,1.308.013,2.615.027,3.923.04-2.386,8.851-16.336,9.135-16.975,11.048-2.272,6.793,4.23,1.619,4.259,5.907,3.149.598,4.651,2.621,4.507,6.07-1.933,3.725-3.573,7.575-4.919,11.549-.298,9.498.277,22.168,1.297,31.68-.656-.676-1.313-1.351-1.969-2.026.205,2.41-.547-14.841-2.11-15.717-4.66-2.612-8.8.657-9.568,5.848-3.358,5.33-8.725,3.813-13.586,3.953-5.283.152-8.996,1.417-5.928,7.84Zm20.87-38.223c-3.808,2.053-7.214,5.028-8.774,9.337-11.703,32.316,24.882-7.95,8.774-9.337Z"/><path class="cls-46" d="m52.467,73.665c-3.519-5.753-2.459-9.928,3.933-12.821,2.175-.984,3.844-3.084,5.743-4.673-.871,12.57,16.125,30.934-7.747,35.096,1.529-1.976,3.287-3.816,4.544-5.951,4.426-7.519,2.508-10.877-6.473-11.651Z"/><path class="cls-54" d="m52.467,73.665c8.981.774,10.899,4.132,6.473,11.651-1.257,2.135-3.016,3.975-4.544,5.951-4.74,3.652-8.043,8.979-13.617,11.659-.742-.044-1.485-.089-2.227-.133,4.108-3.189,4.755-9.33,9.923-11.615,9.36-6.053,10.73-12.062,3.991-17.514Z"/><path class="cls-24" d="m38.553,102.793c.742.044,1.484.088,2.227.133-5.431,5.219-5.177,14.648-13.27,17.895,2.996-6.428,5.111-13.395,11.043-18.028Z"/><path class="cls-48" d="m81.571,139.942c.657.675,1.313,1.35,1.97,2.026,1.472,4.112,5.46,6.953,5.865,11.603.02,2.89-.955,6.3.235,8.58,4.586,8.786-.485,22.523,13.412,26.527-4.023-.985-9.562,2.669-11.775-3.847,2.83-6.773-5.044-11.257-3.787-17.693,1.808-12.892-13.873-42.782-29.826-28.381-2.772,2.502-4.67,10.014-3.178,13.725,2.558,6.363,5.405-2.593,7.219-2.8.863-.099,1.175,5.12,2.466,3.924-4.047,3.262-7.723,7.81-13.816,3.981-4.658-5.248,2.14-10.478.024-15.721-3.068-6.423.644-7.687,5.927-7.84,4.861-.14,10.229,1.377,13.587-3.952,2.103.07,5.358-6.355,6.186,1.297.374,3.457,2.022,6.764,5.491,8.571Z"/><path class="cls-69" d="m103.052,188.678c-13.897-4.004-8.827-17.741-13.412-26.527-1.19-2.281-.215-5.69-.235-8.58.659-.027,1.319-.054,1.979-.08.105,2.132-.274,4.42,1.913,5.874,2.922,15.243,13.231,5.496,18.912,12.514,1.925,2.378.495,17.635-3.359,18.777-1.933-.658-3.866-1.318-5.798-1.977Z"/><path class="cls-19" d="m93.297,159.365c-2.187-1.454-1.808-3.743-1.913-5.874,4.288-5.583,12.858-6.247,15.621-13.581.657.006,1.315.012,1.972.018-.681,3.228-1.362,6.456-2.043,9.684-4.157,3.794-12.485,1.766-13.638,9.754Z"/><path class="cls-37" d="m137.911,140.223c-4.269-2.328-7.698-6.513-13.257-5.993-9.842-.665-15.878-6.41-7.631-14.661,6.007-6.01,19.273-1.22,26.974-1.068,0,0,.045-.037.045-.037,6.021,4.56,7.248,10.9,5.323,17.548-1.664,5.747-7.409,3.315-11.453,4.211Z"/><path class="cls-5" d="m137.911,140.223c4.044-.896,9.79,1.536,11.453-4.211,1.925-6.648.698-12.988-5.323-17.548,15.015-.991,8.372,14.004,15.348,20.726,5.195,5.006,22.536,6.725,4.353,10.314-6.395-4.469-14.6,1.051-21.136-5.292-.206,5.789,1.791,9.396,3.466,13.094-.077.755-.153,1.508-.228,2.262-3.286-1.052-3.434-6.141-7.679-5.959-.646-1.969-1.293-3.939-1.939-5.908-.044-1.253-.089-2.507-.133-3.76,1.497-.804,2.004-2.091,1.818-3.717Z"/><path class="cls-59" d="m136.227,147.7c.646,1.969,1.293,3.939,1.939,5.908-3.124,2.704-5.846,6.83-9.448,7.848-11.043,3.122-11.025,9.167-6.119,17.393-.654.647-1.308,1.295-1.962,1.943-.696.033-1.393.067-2.089.1-2.623-12.692-11.423-5.97-16.001-13.187-3.245-5.115-1.991-15.622,8.346-14.16,1.304,1.273,2.608,2.546,3.913,3.82,3.24,5.512,7.456,4.589,12.371,2.253-1.488-3.362-7.069-1.497-6.497-6.161,6.222.885,11.043-2.008,15.547-5.757Z"/><path class="cls-10" d="m143.997,118.501c-7.701-.152-20.967-4.942-26.974,1.068-8.247,8.251-2.211,13.996,7.631,14.661-11.956,6.866-20.22-6.654-12.34-16.79,5.431-6.985,13.379-4.758,21.797-4.487,3.294,1.852,6.59,3.7,9.886,5.549Z"/><path class="cls-33" d="m136.227,147.7c-4.504,3.749-9.325,6.642-15.547,5.757,1.895-4.253-6.38-9.678,1.526-13.24,4.406,2.074,9.076,3.162,13.888,3.721.044,1.254.088,2.508.133,3.761Z"/><path class="cls-49" d="m122.206,140.218c-7.907,3.562.368,8.987-1.526,13.24-.571,4.663,5.009,2.798,6.497,6.16-4.915,2.336-9.131,3.259-12.371-2.253,1.238-.58-2.419-29.915,7.4-17.146Z"/><path class="cls-25" d="m146.074,157.305c-1.676-3.697-3.673-7.304-3.467-13.093,6.536,6.343,14.741.822,21.136,5.292-.687.587-1.377,1.176-2.065,1.762-5.469-.737-12.52-4.431-11.861,6.318-.016,1.305-.032,2.611-.048,3.918-1.232-1.399-2.463-2.798-3.695-4.196Z"/><path class="cls-28" d="m50.355,157.587c6.093,3.829,9.769-.719,13.816-3.981,5.637-.775,10.503.173,13.226,5.91.938,4.53-1.308,6.013-5.448,5.683-4.803-6.388-9.661-4.997-14.306.084-1.496,1.636-2.427,3.797-4.996,4.048-.763-3.913-1.527-7.829-2.291-11.744Z"/><path class="cls-64" d="m46.347,165.61c.611,14.225-24.82-10.446-12.316-10.016,6.551.225,10.701,3.563,12.316,10.016Z"/><path class="cls-15" d="m71.948,165.199c4.14.33,6.386-1.153,5.451-5.684,3.245,2.7,5.669,6.482,10.091,7.623-1.257,6.436,6.617,10.92,3.787,17.693-1.774-.562-5.082.727-4.226-3.124,1.468-6.601-2.591-9.714-7.488-12.394-1.217-.121-2.432-.243-3.648-.364-2.003-1.232-4.005-2.466-6.007-3.7l2.04-.051Z"/><path class="cls-39" d="m69.908,165.25c2.002,1.234,4.004,2.467,6.007,3.7-14.034.47-14.291,1.046-7.94,17.743-6.008-.473-12.753-3.421-9.798-9.266,2.089-4.132-1.207-17.466,11.731-12.177Z"/><path class="cls-36" d="m118.548,180.892c.696-.033,1.393-.067,2.089-.1,2.888,7.08,1.206,16.898,11.664,19.443-9.095,4.171-10.408-5.575-15.253-8.804-5.607-3.736,1.65-6.871,1.501-10.539Z"/><path class="cls-1" d="m122.599,178.849c-4.907-8.226-4.925-14.271,6.119-17.393,3.602-1.018,6.324-5.144,9.448-7.848,4.244-.181,4.393,4.908,7.68,5.958q.506,15.71-14.425,20.727c-.914.307-1.879.465-2.82.692-2.16-.266-4.556.132-6.002-2.136Z"/><path class="cls-16" d="m128.601,180.985c.941-.227,1.905-.385,2.82-.692q14.933-5.013,14.425-20.727c.075-.752.15-1.506.227-2.26,1.233,1.398,2.464,2.796,3.697,4.193-.595,8.433,1.695,11.674,9.401,5.229,1.823-1.524,4.038-1.572,6.259-1.533-6.24,5.588-12.392,14.69-19.875,18.102-3.939,1.796-18.173,4.347-16.955-2.313Z"/><path class="cls-6" d="m165.431,165.196c-2.222-.038-4.436.009-6.259,1.533-7.707,6.445-9.997,3.204-9.402-5.229.015-1.305.032-2.611.047-3.916,4.541,11.525,12.764,3.492,19.443,3.655.063.696.126,1.392.19,2.089-1.339.623-2.679,1.245-4.019,1.868Z"/><path class="cls-3" d="m71.247,103.643c16.108,1.386-20.477,41.653-8.774,9.337,1.56-4.308,4.965-7.283,8.774-9.337Z"/><path class="cls-3" d="m81.571,139.942c-3.469-1.806-5.117-5.113-5.491-8.571-.828-7.653-4.083-1.228-6.186-1.297.767-5.192,4.907-8.46,9.567-5.849,1.563.876,2.315,18.127,2.11,15.717Z"/><path class="cls-38" d="m87.49,167.139c-4.422-1.141-6.846-4.923-10.091-7.623-2.726-5.737-7.592-6.684-13.229-5.91-1.29,1.197-1.602-4.022-2.465-3.923-1.814.207-4.661,9.163-7.219,2.8-1.492-3.711.406-11.223,3.178-13.725,15.953-14.401,31.633,15.489,29.826,28.381Z"/></svg>