<?xml version="1.0" encoding="UTF-8"?><svg id="Layer_1" xmlns="http://www.w3.org/2000/svg" viewBox="0 0 203.176 224.477"><defs><style>.cls-1{fill:#8e6876;}.cls-2{fill:#dad6dc;}.cls-3{fill:#3a3f55;}.cls-4{fill:#767c85;}.cls-5{fill:#858c90;}.cls-6{fill:#3c3e43;}.cls-7{fill:#a9a2a2;}.cls-8{fill:#8d8489;}.cls-9{fill:#cbcfd3;}.cls-10{fill:#9da3a9;}.cls-11{fill:#747d7b;}.cls-12{fill:#c8d9de;}.cls-13{fill:#dad7e4;}.cls-14{fill:#cea1c9;}.cls-15{fill:#a9adb1;}.cls-16{fill:#9b9ba5;}.cls-17{fill:#89b7ab;}.cls-18{fill:#ebf1ec;}.cls-19{fill:#e6e8ee;}.cls-20{fill:#c1b4c7;}.cls-21{fill:#c9cfd4;}.cls-22{fill:#717583;}.cls-23{fill:#1d1b20;}.cls-24{fill:#727777;}.cls-25{fill:#e8c4dd;}.cls-26{fill:#2d322f;}.cls-27{fill:#a39ba6;}.cls-28{fill:#9f78b4;}.cls-29{fill:#82767d;}.cls-30{fill:#747277;}.cls-31{fill:#aec2c0;}.cls-32{fill:#847c89;}.cls-33{fill:#818588;}.cls-34{fill:#edebea;}.cls-35{fill:#ccced9;}.cls-36{fill:#a1a1b5;}.cls-37{fill:#757a79;}.cls-38{fill:#a4bdc8;}.cls-39{fill:#8fcdc4;}.cls-40{fill:#8975a4;}.cls-41{fill:#80788c;}.cls-42{fill:#c2d5ce;}.cls-43{fill:#555d64;}.cls-44{fill:#f6e0eb;}.cls-45{fill:#8c8a9a;}.cls-46{fill:#7d8092;}.cls-47{fill:#707d80;}.cls-48{fill:#c9c2c8;}.cls-49{fill:#92959c;}.cls-50{fill:#78aca6;}.cls-51{fill:#bfb4c3;}.cls-52{fill:#a399ab;}.cls-53{fill:#adafc1;}.cls-54{fill:#9faeb4;}.cls-55{fill:#435d5e;}.cls-56{fill:#1b1c1b;}.cls-57{fill:#6c6a69;}.cls-58{fill:#9c969d;}.cls-59{fill:#968c9f;}.cls-60{fill:#222124;}.cls-61{fill:#868b93;}.cls-62{fill:#ac7c93;}.cls-63{fill:#57676f;}.cls-64{fill:#958caa;}.cls-65{fill:#7a7594;}.cls-66{fill:#a2a2a1;}.cls-67{fill:#818592;}.cls-68{fill:#38363f;}.cls-69{fill:#58696c;}.cls-70{fill:#9e8f8f;}.cls-71{fill:#aec6cd;}.cls-72{fill:#b3babf;}.cls-73{fill:#6a7580;}.cls-74{fill:#9793a5;}.cls-75{fill:#c4c1c8;}.cls-76{fill:#aea3ae;}.cls-77{fill:#878e99;}.cls-78{fill:#a4b6b1;}.cls-79{fill:#aa85a6;}.cls-80{fill:#938e95;}.cls-81{fill:#5d595b;}.cls-82{fill:#615a60;}.cls-83{fill:#af83ba;}.cls-84{fill:#362f3a;}.cls-85{fill:#757889;}.cls-86{fill:#9896a7;}.cls-87{fill:#424047;}.cls-88{fill:#c1aed1;}.cls-89{fill:#b3aeb4;}.cls-90{fill:#b3b6c2;}</style></defs><path class="cls-58" d="m169.311,43.446c.168,1.051.336,2.102.504,3.153-2.939,2.382-5.879,4.764-8.818,7.145-2.283-.614-4.566-1.227-6.849-1.841-.621-.486-1.242-.972-1.863-1.459.777-3.352,2.427-6.292,4.953-8.821-12.017-6.896-27.559-4.713-41.242-5.2-.561-.602-1.122-1.204-1.683-1.806,6.837-.607,13.687-1.115,20.495-1.954.787-.097,1.348-2.034,2.013-3.118,11.471,3.138,23.869,4.111,32.489,13.901Z"/><path class="cls-75" d="m136.821,29.545c-.665,1.084-1.226,3.021-2.013,3.118-6.809.839-13.658,1.348-20.495,1.954-.575.032-1.149.064-1.724.096-3.462-5.35-6.924-10.699-10.386-16.049,11.539,3.626,23.079,7.253,34.618,10.88Z"/><path class="cls-45" d="m69.129,8.675c2.943-1.63,5.886-3.261,8.829-4.891,5.988,3.841,11.976,7.681,17.963,11.522.459,2.371.917,4.743,1.375,7.113-.13,1.745-.26,3.49-.389,5.235-2.329,1.699-4.658,3.399-6.988,5.099-2.814-6.229-5.627-12.459-8.441-18.688-1.596-6.031-5.46-7.353-10.963-5.273l-.719.243-.668-.36Z"/><path class="cls-84" d="m97.298,22.42c-.459-2.371-.918-4.742-1.376-7.114,3.782-2.032,6.634-2.329,6.281,3.359,3.462,5.35,6.924,10.699,10.386,16.048-.163.538-.326,1.075-.488,1.613-6.171-3.321-14.71-4.126-14.803-13.906Z"/><path class="cls-13" d="m164.963,207.409c-1.725,3.457-3.451,6.914-5.176,10.371-.25.561-.499,1.122-.748,1.682-1.637-1.394-4.787-2.944-4.662-4.157.745-7.249,2.245-14.42,3.49-21.618,4.144-3.392,8.238-6.852,12.525-10.056.38-.284,2.012,1.107,3.063,1.72-1.13,3.364-2.261,6.728-3.391,10.092-1.7,3.988-3.401,7.977-5.101,11.965Z"/><path class="cls-54" d="m157.869,193.688c-1.247,7.197-2.747,14.369-3.492,21.618-.125,1.213,3.025,2.762,4.662,4.157-1.549,1.672-3.098,3.344-4.647,5.015-2.961-1.671-5.922-3.342-8.883-5.013.001-.611.002-1.223.003-1.834,1.306-.243,2.612-.486,4.798-.893-2.294-3.844-4.447-7.452-6.6-11.06,2.368-1.015,5.417-1.43,6.955-3.175,2.764-3.137,4.622-7.071,6.858-10.673.115.619.231,1.239.346,1.858Z"/><path class="cls-24" d="m7.367,154.971v-16.955c1.642,2.415,3.283,4.83,4.924,7.245-1.767,7.498-3.535,14.995-5.302,22.493.055-3.538.152-7.116.293-10.733.027-.685.055-1.368.085-2.05Z"/><path class="cls-30" d="m7.033,96.366c9.501-16.693,16.552-26.768,31.195-39.384-2.104,10.446-15.568,23.095-20.899,32.974-5.192,9.623-7.779,23.337-16.719,29.673-.203-.739-.407-1.478-.61-2.218.07-2.288.141-4.575.211-6.863.423-1.888.965-3.903,1.663-6.014.348-1.054.713-2.063,1.087-3.026.606-.915,1.304-1.884,2.105-2.881.666-.828,1.327-1.58,1.967-2.261Z"/><path class="cls-59" d="m43.382,209.028c.144-.583.287-1.166.431-1.749,1.326.204,2.653.407,3.979.611-.578-.614-1.156-1.227-1.734-1.841,2.578-2.979,5.156-5.958,7.734-8.937,5.752,2.318,11.504,4.636,17.256,6.952,4.082.557,8.164,1.116,12.246,1.675-.137.527-.143,1.056-.018,1.587-4.028.634-8.056,1.269-12.084,1.903-5.664,1.52-11.311,3.113-17.004,4.515-1.734.427-3.597.329-5.401.471-1.802-1.729-3.604-3.458-5.406-5.187Z"/><path class="cls-41" d="m71.193,209.228c-1.653,1.173-3.305,2.346-4.955,3.519-3.731,2.343-7.464,4.685-12.07,7.576-1.558-1.769-3.469-3.938-5.38-6.108,1.804-.142,3.667-.044,5.401-.471,5.693-1.402,11.34-2.995,17.004-4.515Z"/><path class="cls-19" d="m62.796,22.496c1.593-2.893,3.185-5.785,4.778-8.678.98-1.676,1.961-3.351,2.942-5.027,5.504-2.079,9.368-.758,10.964,5.272,2.473,6.4,3.088,11.486,3.931,18.234-8.383.268-16.486.165-24.854-.398.566-2.378,1.403-5.89,2.24-9.403Z"/><path class="cls-76" d="m160.996,53.745c2.939-2.382,5.878-4.763,8.818-7.146,4.613,6.881,9.225,13.762,13.838,20.644-1.81,1.801-3.621,3.602-5.431,5.403-2.937-2.843-5.875-5.685-8.813-8.528-2.804-3.458-5.608-6.916-8.412-10.374Z"/><path class="cls-80" d="m178.221,72.646c1.81-1.801,3.621-3.602,5.431-5.403,4.085,5.794,8.17,11.588,12.256,17.383.3,6.331.6,12.663.901,18.995-1.543-1.74-3.089-3.481-4.634-5.221.978-7.005,1.768-13.779-5.737-18.346-3.096-1.884-5.499-4.904-8.217-7.407Z"/><path class="cls-33" d="m115.995,36.424c13.683.487,29.226-1.697,41.242,5.199-2.525,2.529-4.176,5.47-4.953,8.821-3.382-.779-6.765-1.559-10.147-2.338-8.714-3.894-17.428-7.788-26.142-11.683Z"/><path class="cls-56" d="m142.137,48.107c3.382.779,6.765,1.558,10.147,2.338.621.487,1.242.973,1.863,1.459-.696,1.797-1.392,3.593-2.087,5.39-10.807-2.435-21.614-4.87-32.421-7.304-1.146-.596-2.292-1.191-3.438-1.787.156-2.143.313-4.286.481-6.59,9.02,2.302,17.238,4.398,25.455,6.495Z"/><path class="cls-82" d="m142.137,48.107c-8.217-2.097-16.434-4.193-25.455-6.495-.168,2.304-.324,4.447-.481,6.59-.787-.426-1.574-.853-2.361-1.28-3.358-3.663-6.766-7.281-10.057-11.003-2.373-2.684-4.59-5.505-6.877-8.264.13-1.745.26-3.49.39-5.235.094,9.781,8.633,10.585,14.804,13.907.163-.538.325-1.075.488-1.613.575-.032,1.15-.064,1.724-.096.561.602,1.122,1.203,1.682,1.806,8.714,3.895,17.428,7.789,26.142,11.683Z"/><path class="cls-87" d="m152.06,57.293c.696-1.797,1.392-3.593,2.087-5.39,2.283.614,4.566,1.227,6.849,1.841,2.804,3.458,5.608,6.916,8.412,10.374-.564,1.217-1.127,2.435-1.69,3.651-5.079-3.039-10.159-6.076-15.238-9.114-.16-.448-.299-.902-.419-1.363Z"/><path class="cls-12" d="m62.796,22.496c-.837,3.513-1.673,7.026-2.24,9.403,8.368.562,16.471.666,24.854.398-.843-6.748-1.458-11.834-3.931-18.234,2.814,6.231,5.627,12.46,8.442,18.69-.589.592-1.179,1.184-1.767,1.776-1.687,2.879-3.377,5.758-5.066,8.637-1.456,1.213-2.912,2.426-4.378,3.648-3.74-6.122-12.283-7.392-23.111-3.51-1.217.935-2.434,1.871-4.311,3.313-.399-2.215-.671-3.73-.944-5.245,4.151-6.292,8.301-12.584,12.452-18.875Z"/><path class="cls-32" d="m88.153,34.529c.59-.592,1.18-1.184,1.769-1.776,2.328-1.7,4.658-3.4,6.986-5.099,2.286,2.76,4.503,5.581,6.876,8.265,3.291,3.722,6.699,7.34,10.058,11.003-7.262-2.845-14.526-5.69-21.79-8.537-1.3-1.287-2.6-2.571-3.899-3.856Z"/><path class="cls-48" d="m179.903,170.699c-2.15,4.883-4.3,9.766-6.449,14.651-1.05-.612-2.682-2.002-3.062-1.718-4.286,3.203-8.381,6.663-12.525,10.056-.113-.619-.228-1.238-.343-1.858-1.07-1.267-2.141-2.533-3.212-3.799,1.105-1.036,2.209-2.072,3.314-3.108,1.773-.475,4.166-.38,5.215-1.521,5.261-5.72,10.17-11.763,15.202-17.692.62,1.663,1.24,3.326,1.86,4.989Z"/><path class="cls-21" d="m145.511,217.63c-1.193-.526-2.386-1.052-3.579-1.578-.522-.603-1.045-1.206-1.567-1.809-1.744-1.144-3.488-2.289-5.232-3.433-2.805-1.183-5.509-2.888-8.434-3.449-8.228-1.578-16.546-2.684-24.829-3.977,9.856-3.317,19.711-6.634,29.567-9.951,1.81.139,3.619.279,5.428.418,1.016,1.031,2.032,2.063,3.047,3.094,1.266,2.91,2.531,5.821,3.797,8.731,2.153,3.608,4.306,7.216,6.6,11.06-2.187.407-3.493.65-4.798.893Z"/><path class="cls-77" d="m143.71,205.677c-1.266-2.91-2.531-5.821-3.794-8.731,7.605,1.548,10.308-4.8,14.396-8.917,1.071,1.266,2.142,2.532,3.212,3.799-2.237,3.602-4.095,7.536-6.859,10.673-1.538,1.745-4.587,2.16-6.955,3.175Z"/><path class="cls-36" d="m53.792,197.112c-2.578,2.979-5.156,5.958-7.734,8.937.578.614,1.156,1.227,1.734,1.841-1.326-.204-2.653-.407-3.979-.611-.414-.424-.589-.93-.525-1.519,3.774-9.021-2.804-13.023-8.479-17.463-.621-4.521-1.242-9.043-1.863-13.564.664-3.553,1.328-7.106,1.993-10.659,5.569,8.932,14.666,11.723,24.144,13.851,3.419,2.374,6.838,4.749,10.258,7.124-7.026.155-7.176,5.618-7.431,11.656-6.352-5.341-11.747-9.878-17.548-14.756-3.184,10.258,6.423,10.374,9.431,15.164Z"/><path class="cls-5" d="m32.946,174.733c.621,4.521,1.242,9.043,1.863,13.564-.676,1.254-1.353,2.507-2.029,3.76-.999-1.265-1.999-2.529-2.999-3.793,1.296-10.54-6.396-17.124-11.216-24.929-.227-.368-2.753.682-4.21,1.07,1.052-3.608,2.105-7.216,3.159-10.824,5.144,7.051,10.289,14.101,15.433,21.152Z"/><path class="cls-20" d="m32.78,192.057c.676-1.253,1.353-2.506,2.029-3.76,5.676,4.439,12.253,8.441,8.479,17.462-3.503-4.568-7.006-9.135-10.509-13.702Z"/><path class="cls-38" d="m32.946,174.733c-5.144-7.051-10.289-14.101-15.433-21.15-1.74-2.773-3.481-5.548-5.222-8.323-1.641-2.415-3.283-4.83-4.925-7.244-.175-5.64-9.795-8.063-5.228-15.319,4.548,3.447,9.097,6.894,13.645,10.341,1.132,1.893,2.155,3.863,3.416,5.666,5.161,7.381,10.394,14.712,15.601,22.061.046,1.103.092,2.205.139,3.308-.664,3.553-1.328,7.106-1.993,10.659Z"/><path class="cls-15" d="m12.291,145.261c1.741,2.775,3.482,5.55,5.222,8.323-1.054,3.605-2.107,7.213-3.159,10.821-1.853,3.349,1.991,9.767-5.45,10.106-.638-2.252-1.277-4.505-1.916-6.757,1.768-7.498,3.535-14.995,5.303-22.493Z"/><path class="cls-90" d="m2.138,122.698c-.51-1.023-1.019-2.047-1.528-3.07,8.94-6.335,11.527-20.05,16.719-29.672,5.33-9.879,18.795-22.528,20.899-32.973,1.182-2.809,2.363-5.618,3.544-8.427,2.857-2.395,5.715-4.789,8.572-7.184.273,1.515.545,3.03.944,5.245,1.877-1.442,3.094-2.378,4.31-3.314,1.092,2.27,2.185,4.542,3.28,6.813-7.958,6.93-15.917,13.861-23.876,20.792-2.955,5.163-5.91,10.326-8.865,15.489-3.137,5.79-7.005,11.316-9.212,17.441-2.373,6.587-3.188,13.734-4.682,20.637,1.889.885,3.779,1.77,5.65,2.647-.68,1.907-1.395,3.912-2.11,5.918-4.548-3.447-9.097-6.894-13.645-10.341Z"/><path class="cls-72" d="m53.792,197.112c-3.008-4.79-12.615-4.906-9.431-15.164,5.801,4.878,11.196,9.415,17.548,14.756.255-6.038.405-11.501,7.432-11.657,5.221.567,10.442,1.135,15.662,1.703,3.136,1.315,6.171,3.042,9.434,3.843,4.43,1.089,10.871-4.375,12.931,4.167-2.297.692-4.593,1.385-6.89,2.077-10.999-1.647-21.592.033-32.887,2.826,1.74,2.216,2.598,3.309,3.457,4.402-5.752-2.318-11.504-4.636-17.256-6.953Z"/><path class="cls-60" d="m100.479,196.838c2.297-.692,4.593-1.385,6.89-2.077,2.916-.954,5.832-1.907,8.748-2.861,5.209-.502,10.885-5.666,15.321,1.534-9.856,3.317-19.711,6.634-29.567,9.951-1.658.68-3.316,1.361-4.973,2.041-4.533.594-9.067,1.188-13.601,1.781,0,0-.02.119-.02.119-.125-.531-.119-1.06.019-1.587,5.728-2.967,11.456-5.934,17.183-8.901Z"/><path class="cls-9" d="m100.479,196.838c-5.727,2.967-11.455,5.934-17.183,8.901-4.083-.558-8.165-1.117-12.247-1.674-.859-1.092-1.717-2.185-3.457-4.401,11.295-2.793,21.888-4.473,32.887-2.826Z"/><path class="cls-16" d="m192.175,98.399c1.545,1.741,3.09,3.481,4.634,5.221,3.492,6.523,8.246,12.709,5.595,20.877-.57-1.178-1.139-2.355-1.707-3.533-.089-1.767-.181-3.534-.318-6.188-3.321,3.953-5.957,7.091-9.423,11.218-.221-3.702-.365-6.119-.51-8.537-1.728-1.668-3.456-3.336-5.183-5.004,0-.624.001-1.249.002-1.873-4.213-7.678-8.483-15.345-4.678-24.548,3.863,4.122,7.726,8.245,11.588,12.367Z"/><path class="cls-35" d="m200.695,120.965c.57,1.178,1.139,2.355,1.709,3.533.099.548.266,1.073.503,1.577-2.496,5.117-4.992,10.233-7.487,15.351-2.266,2.931-4.534,5.861-6.801,8.791-5.761,3.377-7.853,12.785-17.12,10.4,5.326-7.496,12.757-13.325,17.927-20.73,4.493-6.436,5.324-14.343,11.269-18.922Z"/><path class="cls-23" d="m192.175,98.399c-3.863-4.122-7.725-8.245-11.588-12.366-4.29-6.087-8.58-12.175-12.869-18.263.564-1.217,1.127-2.435,1.691-3.652,2.938,2.843,5.875,5.685,8.813,8.528,2.718,2.503,5.121,5.523,8.217,7.407,7.506,4.567,6.715,11.341,5.737,18.346Z"/><path class="cls-78" d="m92.053,38.388c7.264,2.845,14.527,5.69,21.79,8.535.786.426,1.573.853,2.36,1.279,1.146.596,2.292,1.191,3.437,1.787,11.059,4.423,33.939,14.095,25.3,31.506-1.536-1.265-3.073-2.53-4.611-3.795,2.266-12.29-13.849-19.527-22.463-22.923-13.991-5.515-22.674-3.124-36.368,2.233,3.518-6.208,7.037-12.415,10.555-18.623Z"/><path class="cls-66" d="m144.938,81.495c8.64-17.411-14.24-27.083-25.299-31.506,10.808,2.435,21.615,4.87,32.422,7.305.12.46.259.915.419,1.363.467,9.07.989,18.138,1.311,27.213.029.833-1.218,1.711-1.872,2.567-2.326-2.314-4.654-4.627-6.981-6.941Z"/><path class="cls-61" d="m151.918,88.436c.655-.857,1.903-1.735,1.873-2.567-.322-9.075-.844-18.143-1.311-27.213,5.08,3.038,10.159,6.075,15.238,9.114,4.289,6.088,8.579,12.176,12.869,18.263-3.805,9.203.466,16.87,4.679,24.548-2.256.549-4.512,1.098-6.769,1.648-3.252-13.645-9.006-39.457-17.556-13.611-3.008-3.394-6.015-6.788-9.023-10.182Z"/><path class="cls-31" d="m58.876,50.115c-1.093-2.271-2.186-4.543-3.278-6.813,10.828-3.881,19.372-2.611,23.112,3.512,1.466-1.221,2.922-2.435,4.379-3.648-3.339,6.996-6.679,13.993-10.019,20.989-.736-.409-2.061-1.249-2.124-1.163-2.32,3.15-4.522,6.386-6.741,9.61-.592-.024-1.184-.048-1.775-.072,7.03-12.312,15.928-22.369-3.553-22.415Z"/><path class="cls-11" d="m73.07,64.155c3.34-6.996,6.68-13.993,10.019-20.989,1.689-2.879,3.378-5.758,5.066-8.637,1.298,1.285,2.597,2.569,3.897,3.856-3.518,6.21-7.036,12.418-10.555,18.625-1.587,2.953-3.173,5.905-4.76,8.857-.751.697-1.501,1.394-2.251,2.091-.472-1.268-.944-2.536-1.416-3.803Z"/><path class="cls-8" d="m188.62,150.217c2.267-2.93,4.534-5.86,6.801-8.791-4.547,9.288-9.094,18.576-13.64,27.865,2.28-6.358,4.559-12.716,6.839-19.074Z"/><path class="cls-27" d="m188.619,150.217c-2.28,6.358-4.559,12.717-6.839,19.074-.626.47-1.251.94-1.877,1.409-.621-1.665-1.241-3.328-1.86-4.991-1.628-1.077-3.256-2.153-4.884-3.23-.653-.094-1.305-.188-1.956-.28.139-.52.237-1.048.297-1.583,9.267,2.386,11.359-7.022,17.119-10.399Z"/><path class="cls-89" d="m154.312,188.03c-4.088,4.117-6.791,10.465-14.396,8.917-1.019-1.032-2.034-2.064-3.05-3.097-.34-7.685,14.074-13.557,20.484-10.69.092.588.184,1.175.276,1.763-1.105,1.036-2.209,2.072-3.314,3.108Z"/><path class="cls-68" d="m157.626,184.922c-.092-.588-.184-1.175-.276-1.763,5.27-6.893,10.54-13.787,15.809-20.68,1.628,1.077,3.256,2.153,4.884,3.23-5.033,5.929-9.942,11.972-15.202,17.692-1.049,1.14-3.442,1.046-5.215,1.521Z"/><path class="cls-77" d="m173.159,162.479c-5.27,6.894-10.54,13.787-15.809,20.68-6.41-2.867-20.825,3.004-20.484,10.689-1.809-.137-3.618-.277-5.428-.416-4.437-7.2-10.113-2.036-15.321-1.534-.526-1.183-.937-3.322-1.596-3.402-6.943-.837-13.926-1.345-20.897-1.944l1.704-4.959c6.372.584,12.743,1.167,19.115,1.751,11.098-1.18,30.954-.676,40.369-7.924,9.844-7.579,6.951-17.082,6.44-28.374,1.709-2.925,3.417-5.849,5.126-8.774-.752,4.507-1.247,9.077-2.338,13.501-.874,3.545-3.489,7.16,2.25,8.895,1.637.509,3.275,1.019,4.912,1.528.653.094,1.305.188,1.958.282Z"/><path class="cls-7" d="m135.133,210.81c-12.745-1.795-25.491-3.59-38.236-5.384,1.658-.68,3.316-1.361,4.973-2.041,8.283,1.292,16.601,2.399,24.829,3.977,2.924.561,5.629,2.266,8.434,3.449Z"/><path class="cls-79" d="m34.939,164.074c-.046-1.103-.092-2.205-.138-3.308-.567-4.026-1.134-8.052-1.702-12.079,2.888,0,5.775-.001,8.663-.001,5.193,6.345,10.386,12.689,15.58,19.034.581,3.402,1.161,6.803,1.742,10.205-9.478-2.127-18.576-4.918-24.144-13.851Z"/><path class="cls-70" d="m59.083,177.925c-.581-3.402-1.161-6.803-1.742-10.206,1.144-.012,2.289-.023,3.433-.035.614.924,1.228,1.85,1.707,2.57,1.279-2.327,2.277-4.145,3.276-5.963.632,1.136,1.265,2.271,1.897,3.407.632,1.127,1.263,2.255,1.895,3.382.825,6.792,4.836,10.152,11.508,10.394,4.752.173,9.514.089,14.271.12-.568,1.653-1.136,3.306-1.704,4.96-2.873.065-5.746.13-8.619.194-5.22-.568-10.441-1.136-15.662-1.703-3.42-2.373-6.839-4.747-10.258-7.122Z"/><path class="cls-52" d="m33.099,148.688c.567,4.026,1.134,8.052,1.701,12.078-5.207-7.349-10.441-14.679-15.601-22.061-1.261-1.803-2.284-3.773-3.416-5.666.715-2.006,1.43-4.011,2.11-5.918-1.872-.877-3.761-1.762-5.649-2.647.633-.034,1.266-.067,1.898-.1,2.296,1.701,5.205,2.97,6.772,5.186,4.36,6.166,8.163,12.725,12.187,19.129Z"/><path class="cls-67" d="m26.136,86.396c2.955-5.163,5.91-10.326,8.864-15.489,7.194-3.623,12.212-5.574,20.173-6.399.246,8.157-2.071,11.445-6.498,18.463-1.271-2.115-2.542-4.23-4.34-7.222-12.809,12.43-17.57,26.955-18.114,43.282l-.206.285c-1.666-.633-3.332-1.266-4.998-1.899.93-6.86,1.763-13.736,2.83-20.575.548-3.515,1.513-6.966,2.289-10.446Z"/><path class="cls-49" d="m48.675,82.971c4.427-7.018,6.744-10.307,6.498-18.463-7.96.825-12.979,2.776-20.173,6.399,7.961-6.93,15.92-13.861,23.878-20.791,19.479.045,10.581,10.102,3.552,22.415-2.209,1.94-4.917,3.542-6.519,5.895-2.796,4.104-4.913,8.671-7.314,13.046.026-2.833.053-5.666.079-8.5Z"/><path class="cls-86" d="m26.136,86.396c-.777,3.48-1.741,6.93-2.289,10.446-1.067,6.839-1.9,13.715-2.831,20.576-2.292,2.319-4.583,4.637-6.875,6.955-.633.033-1.265.067-1.899.101,1.494-6.903,2.308-14.05,4.682-20.637,2.207-6.124,6.075-11.651,9.212-17.441Z"/><path class="cls-10" d="m85.004,186.75c2.873-.064,5.746-.129,8.619-.194,6.972.598,13.954,1.106,20.897,1.943.659.079,1.07,2.219,1.596,3.402-2.916.954-5.832,1.907-8.748,2.861-2.059-8.542-8.501-3.079-12.931-4.167-3.263-.802-6.298-2.529-9.434-3.843Z"/><path class="cls-50" d="m166.289,160.669c-5.739-1.734-3.124-5.349-2.25-8.895,1.091-4.424,1.586-8.994,2.337-13.501.573-3.408,1.146-6.815,1.72-10.222,1.916-6.293,3.355-12.898,10.402-15.823,2.256-.549,4.512-1.098,6.768-1.647,0,.624-.001,1.248-.001,1.871-9.564,6.872-8.534,17.71-10.306,27.5-1.148,4.045-2.296,8.09-3.444,12.135-1.742,2.861-3.483,5.721-5.225,8.582Z"/><path class="cls-71" d="m166.289,160.669c1.742-2.861,3.483-5.721,5.224-8.582,12.698-8.078,17.651-19.987,17.137-34.599.599-.01,1.198-.02,1.797-.031.144,2.417.289,4.835.51,8.537,3.466-4.126,6.102-7.264,9.423-11.218.137,2.654.228,4.421.318,6.188-5.947,4.579-6.777,12.486-11.27,18.922-5.17,7.405-12.601,13.234-17.927,20.73-.059.535-.158,1.063-.296,1.582-1.639-.511-3.276-1.02-4.914-1.53Z"/><path class="cls-17" d="m190.447,117.458c-.599.01-1.198.02-1.795.031-1.679.607-4.334.751-4.881,1.898-3.21,6.725-5.928,13.685-8.813,20.566,1.773-9.789.742-20.628,10.306-27.5,1.727,1.669,3.455,3.337,5.183,5.005Z"/><path class="cls-42" d="m76.738,65.868c1.587-2.953,3.173-5.905,4.76-8.858,13.694-5.357,22.377-7.748,36.368-2.233,8.614,3.396,24.729,10.632,22.463,22.923-1.846-.206-3.693-.412-5.539-.618-1.609-1.505-3.218-3.011-4.826-4.516-.265-7.996-6.85-3.822-10.441-5.413,4.618-14.808-37.381-2.064-42.785-1.285Z"/><path class="cls-6" d="m134.79,77.081c1.846.206,3.693.412,5.539.618,1.537,1.265,3.075,2.53,4.611,3.795,2.326,2.314,4.654,4.627,6.98,6.941,3.006,3.395,6.014,6.789,9.022,10.183,2.64,4.843,5.279,9.687,7.919,14.531-.652.524-1.305,1.048-1.957,1.573-3.726-4.16-7.451-8.32-11.177-12.48-2.245-2.979-4.49-5.959-6.734-8.938-3.471-3.427-6.941-6.854-10.412-10.281-1.263-1.981-2.527-3.961-3.79-5.942Z"/><path class="cls-4" d="m155.726,102.242c3.726,4.16,7.451,8.32,11.177,12.48.652-.524,1.305-1.048,1.957-1.573-2.64-4.844-5.279-9.688-7.919-14.531,8.549-25.846,14.303-.033,17.555,13.611-7.046,2.924-8.485,9.529-10.402,15.82-.228-2.624-.454-5.246-.681-7.869-.541-.071-1.083-.141-1.624-.212-1.726,3.91-3.452,7.82-5.533,12.533-.878-4.169-1.534-7.288-2.043-9.706-5.899,1.862-11.033,3.483-16.168,5.103,1.717-2.868,3.435-5.736,5.152-8.603,2.842-5.684,5.685-11.369,8.527-17.053Z"/><path class="cls-2" d="m73.07,64.155c.472,1.268.944,2.536,1.417,3.803-2.241,4.24-4.483,8.481-6.725,12.722-2.901,1.913-5.802,3.825-8.703,5.738,1.715-4.605,3.43-9.21,5.145-13.815,2.219-3.224,4.421-6.46,6.741-9.61.063-.086,1.388.755,2.124,1.163Z"/><path class="cls-53" d="m64.205,72.602c-1.715,4.605-3.43,9.21-5.145,13.815-3.529,3.933-7.057,7.866-11.759,13.108-.238-3.407-.333-4.771-.429-6.135.575-.64,1.15-1.28,1.725-1.92,2.401-4.373,4.518-8.94,7.314-13.044,1.603-2.353,4.31-3.954,6.519-5.895.591.023,1.183.047,1.775.071Z"/><path class="cls-34" d="m67.762,80.679c2.242-4.241,4.483-8.481,6.724-12.721.749-.696,1.5-1.393,2.25-2.09,5.405-.779,47.403-13.523,42.785,1.285-5.708.178-11.416.356-17.124.534-2.846,2.956-5.953,5.705-8.482,8.91-5.051,6.401-9.784,13.051-14.648,19.598-.466.021-.902.148-1.306.379-1.35.232-2.701.464-2.708.465-2.072-5.036-3.983-9.678-5.893-14.321-.533-.68-1.065-1.359-1.598-2.039Z"/><path class="cls-73" d="m142.046,127.899c5.134-1.621,10.269-3.241,16.168-5.103.509,2.418,1.166,5.536,2.043,9.706,2.08-4.713,3.807-8.623,5.533-12.533.541.071,1.083.141,1.624.212.227,2.622.453,5.245.681,7.869-.573,3.409-1.146,6.816-1.719,10.224-1.708,2.925-3.416,5.85-5.127,8.773-1.199-.041-2.397-.081-3.594-.121-1.791,1.156-3.582,2.313-5.372,3.47.829-6.936,1.227-12.131.684-19.242-21.237,4.769-38.739,16.774-62.334,12.698-20.415-3.527-29.557-19.881-47.116-26.406-1.17-1.727-2.341-3.454-3.511-5.18,1.735-1.707,3.471-3.414,5.206-5.121.553.003,1.106.012,1.659.028,2.284,2.502,4.53,5.04,6.858,7.501,7.635,8.07,14.109,17.642,26.008,20.245,6.614,2.216,13.363,6.613,19.813,6.21,14.965-.934,30.019-3.463,42.496-13.229Z"/><path class="cls-22" d="m157.655,146.926c1.197.04,2.395.079,3.594.12.513,11.294,3.406,20.797-6.438,28.376-9.415,7.248-29.271,6.744-40.369,7.922,0-.002-.115-.211-.115-.211.059-.528.094-1.059.105-1.592,11.512-4.607,23.024-9.214,34.536-13.82,2.896-6.932,5.792-13.864,8.688-20.796Z"/><path class="cls-29" d="m95.327,181.595c-4.757-.031-9.519.052-14.271-.121-6.672-.243-10.682-3.602-11.509-10.395,3.042,1.516,5.934,3.673,9.156,4.434,11.815,2.791,23.74,5.117,35.624,7.618,0,0,.115.21.115.211-6.371-.582-12.743-1.166-19.115-1.749Z"/><path class="cls-1" d="m60.774,167.685c-1.145.011-2.289.022-3.433.034-5.193-6.344-10.386-12.688-15.579-19.034-8.199-8.211-14.757-17.3-15.747-29.369,0,0,.206-.285.205-.282,2.263.079,4.527.156,6.792.232-1.685,9.669,3.299,16.79,9.324,24.293,1.676-1.878,3.146-3.526,4.617-5.174.596.543,1.191,1.087,1.787,1.63-.991,7.686,1.071,13.829,8.688,17.164,1.115,3.502,2.231,7.004,3.346,10.506Z"/><path class="cls-62" d="m26.015,119.316c.991,12.069,7.548,21.158,15.747,29.369-2.888,0-5.775,0-8.663.002-4.023-6.403-7.826-12.962-12.186-19.128-1.567-2.216-4.476-3.484-6.772-5.186,2.292-2.318,4.584-4.636,6.876-6.955,1.666.632,3.332,1.265,4.998,1.898Z"/><path class="cls-55" d="m67.654,167.699c-.632-1.136-1.265-2.271-1.896-3.408-2.255-5.797-4.512-11.593-6.769-17.388.2-1.886.399-3.771.527-4.978,18.829,4.836,37.538,9.791,56.601,13.618,10.737-1.335,29.255-5.992,17.576,9.057-10.484,13.509-30.17,7.039-43.516,4.778-7.248-4.048-14.436-8.885-22.524-1.679Z"/><path class="cls-63" d="m67.654,167.699c8.088-7.207,15.276-2.369,22.524,1.678,4.643,1.743,9.304,3.443,13.926,5.243,3.945,1.536,10.012-.031,10.329,6.923-.011.532-.046,1.062-.105,1.59-11.884-2.502-23.809-4.828-35.624-7.619-3.222-.761-6.114-2.918-9.156-4.434-.63-1.127-1.262-2.254-1.893-3.382Z"/><path class="cls-37" d="m58.989,146.903c2.257,5.796,4.513,11.592,6.769,17.388-1,1.818-1.998,3.636-3.277,5.963-.478-.72-1.093-1.645-1.707-2.57-1.115-3.501-2.23-7.004-3.347-10.505-1.201-6.886-2.4-13.773-3.6-20.66.864-.772,1.729-1.543,2.535-2.263.965,4.644,1.796,8.645,2.627,12.646Z"/><path class="cls-47" d="m33.011,119.266c-2.264-.076-4.528-.153-6.791-.232.545-16.33,5.306-30.855,18.115-43.285,1.798,2.991,3.069,5.106,4.34,7.222-.026,2.834-.052,5.668-.078,8.5-.575.639-1.15,1.279-1.724,1.918-.553,4.584-1.107,9.17-1.661,13.755-1.735,1.707-3.471,3.414-5.206,5.121-2.331,2.334-4.663,4.667-6.994,7.001Z"/><path class="cls-39" d="m174.958,139.952c2.884-6.881,5.602-13.841,8.813-20.566.548-1.147,3.202-1.291,4.881-1.898.512,14.612-4.441,26.52-17.138,34.599,1.148-4.045,2.296-8.09,3.444-12.135Z"/><path class="cls-18" d="m134.79,77.081c1.263,1.981,2.527,3.961,3.79,5.942-.629,2.288-1.257,4.577-1.883,6.865-5.322.921-10.642,1.869-15.971,2.76-10.29,1.72-20.857,4.959-29.084-5.095,3.542-4.482,7.084-8.963,10.625-13.445,9.232-.514,18.465-1.028,27.697-1.542,1.609,1.505,3.218,3.011,4.826,4.516Z"/><path class="cls-26" d="m129.963,72.565c-9.232.514-18.465,1.028-27.697,1.542.044-2.14.088-4.281.132-6.421,5.708-.178,11.416-.356,17.124-.534,3.591,1.591,10.175-2.583,10.441,5.413Z"/><path class="cls-74" d="m155.726,102.242c-2.842,5.684-5.685,11.369-8.526,17.053-3.437,1.177-6.874,2.354-10.312,3.531-.607-1.717-1.215-3.432-1.822-5.147.012-1.198.024-2.396.037-3.594,0,0,.233-.125.233-.125,9.684-3.498,10.59-12.789,13.656-20.655,2.245,2.979,4.49,5.959,6.734,8.938Z"/><path class="cls-51" d="m148.991,93.304c-3.065,7.866-3.972,17.157-13.658,20.656.489-3.427.981-6.854,1.474-10.282-.047-4.014-.094-8.028-.141-12.043.01-.582.019-1.165.028-1.747.628-2.289,1.257-4.577,1.885-6.866,3.471,3.427,6.941,6.854,10.412,10.281Z"/><path class="cls-65" d="m136.888,122.827c3.437-1.178,6.875-2.355,10.312-3.532-1.718,2.868-3.435,5.736-5.153,8.604-12.477,9.767-27.531,12.295-42.496,13.229-6.45.403-13.2-3.994-19.813-6.212-1.116-1.765-2.231-3.529-3.348-5.293,9.597,2.296,19.22,6.52,28.785,6.393,11.601-.154,24.23-1.49,31.713-13.19Z"/><path class="cls-85" d="m45.212,107.144c.554-4.585,1.107-9.171,1.661-13.755.095,1.365.19,2.729.428,6.136,4.702-5.241,8.23-9.174,11.759-13.108,2.901-1.913,5.802-3.825,8.703-5.738.533.679,1.065,1.359,1.597,2.04-4.039,4.09-8.076,8.179-12.114,12.269-2.288,3.476-4.577,6.952-6.865,10.428-1.17.585-2.34,1.17-3.509,1.756-.553-.016-1.106-.025-1.659-.028Z"/><path class="cls-14" d="m136.806,103.678c-.492,3.428-.984,6.856-1.473,10.282.003-.001-.231.124-.23.124-12.806-.032-57.593,5.428-58.81-12.662.557-1.616,1.113-3.232,1.67-4.848.405-.232.84-.358,1.306-.372,1.328.139,2.655.271,3.982.404,2.242,2.846,3.902,7.083,6.825,8.304,15.608,6.525,31.311,5.282,46.731-1.232Z"/><path class="cls-88" d="m77.962,96.573c-.557,1.616-1.113,3.232-1.67,4.855-2.86,4.174-5.72,8.342-8.581,12.512-3.489-6.317-6.977-12.635-10.466-18.953,4.038-4.089,8.075-8.178,12.114-12.268,1.911,4.641,3.822,9.284,5.894,14.32.007-.001,1.358-.233,2.708-.465Z"/><path class="cls-57" d="m83.251,96.605c-1.328-.132-2.655-.264-3.983-.403,4.865-6.554,9.598-13.205,14.649-19.605,2.529-3.205,5.636-5.954,8.482-8.91-.044,2.14-.088,4.281-.132,6.421-3.542,4.482-7.083,8.963-10.625,13.445-1.081,1.294-2.162,2.587-3.243,3.88-1.716,1.724-3.432,3.448-5.147,5.171Z"/><path class="cls-69" d="m58.989,146.903c-.831-4.001-1.662-8.002-2.627-12.646-.806.72-1.67,1.491-2.535,2.263-1.696,1.165-3.392,2.33-5.088,3.494-.596-.543-1.191-1.087-1.787-1.632-.624-3.36-1.304-6.71-1.855-10.081-.59-3.609-1.059-7.237-1.581-10.857,17.559,6.526,26.701,22.88,47.116,26.406,23.595,4.076,41.097-7.93,62.334-12.698.543,7.111.145,12.306-.683,19.242-.543,1.143-1.087,2.286-1.631,3.43-5.551-1.382-2.696-7.02-7.855-8.883-6.674-2.41-20.789,7.727-26.682,10.601-19.063-3.827-37.772-8.782-56.601-13.618-.128,1.207-.327,3.092-.527,4.978Z"/><path class="cls-81" d="m43.517,117.445c.522,3.62.991,7.248,1.581,10.857.551,3.371,1.232,6.72,1.855,10.081-1.47,1.649-2.941,3.298-4.617,5.176-6.025-7.503-11.009-14.624-9.324-24.293,2.331-2.333,4.662-4.666,6.993-7,1.17,1.726,2.341,3.453,3.511,5.18Z"/><path class="cls-46" d="m46.871,107.171c1.17-.585,2.34-1.17,3.509-1.756,3.71,2.96,9.904,5.407,10.644,8.98,1.887,9.119,9.537,9.856,15.274,13.521.019.569.05,1.138.092,1.706,1.116,1.764,2.232,3.527,3.347,5.292-11.9-2.602-18.373-12.174-26.009-20.244-2.328-2.461-4.574-4.998-6.858-7.501Z"/><path class="cls-3" d="m150.653,153.825c.544-1.144,1.088-2.287,1.631-3.43,1.789-1.156,3.58-2.313,5.371-3.469-2.895,6.933-5.791,13.865-8.687,20.796-1.322-.181-2.644-.361-3.881-.529,1.976-4.745,3.771-9.056,5.566-13.368Z"/><path class="cls-43" d="m150.653,153.825c-1.795,4.311-3.59,8.623-5.566,13.368,1.236.168,2.559.348,3.881.529-11.513,4.607-23.025,9.213-34.536,13.821-.317-6.953-6.383-5.386-10.329-6.922-4.622-1.8-9.282-3.5-13.926-5.243,13.346,2.261,33.032,8.732,43.516-4.778,11.679-15.049-6.839-10.392-17.576-9.057,5.892-2.874,20.008-13.011,26.682-10.601,5.159,1.863,2.304,7.501,7.855,8.883Z"/><path class="cls-81" d="m48.74,140.014c1.696-1.165,3.392-2.33,5.088-3.494,1.199,6.887,2.399,13.774,3.599,20.66-7.616-3.336-9.678-9.48-8.687-17.165Z"/><path class="cls-44" d="m88.398,91.433c1.081-1.293,2.162-2.587,3.243-3.88,8.227,10.054,18.794,6.815,29.084,5.095,5.329-.891,10.649-1.838,15.971-2.76-.012.583-.021,1.165-.028,1.746-9.586,3.776-46.456,23.617-48.27-.201Z"/><path class="cls-83" d="m67.712,113.939c2.86-4.168,5.72-8.336,8.58-12.51,1.218,18.084,46.004,12.624,58.81,12.656-.012,1.198-.025,2.396-.036,3.592-.596.559-1.192,1.12-1.787,1.679-14.331,11.967-43.075-1.496-60.369-.141-1.733-1.759-3.465-3.517-5.198-5.276Z"/><path class="cls-40" d="m133.277,119.357c.597-.561,1.193-1.122,1.789-1.681.607,1.717,1.214,3.432,1.821,5.149-7.483,11.702-20.112,13.037-31.713,13.191-9.565.127-19.188-4.097-28.785-6.393-.041-.568-.072-1.137-.091-1.707.018-1.153.036-2.305.054-3.457,10.454,8.775,23.276,10.502,35.475,7.842,7.649-1.668,18.081-2.546,21.449-12.944Z"/><path class="cls-25" d="m88.398,91.433c1.814,23.818,38.684,3.977,48.27.201.045,4.015.092,8.029.139,12.043-15.421,6.515-31.124,7.757-46.732,1.232-2.922-1.222-4.582-5.458-6.825-8.304,1.716-1.725,3.432-3.449,5.148-5.173Z"/><path class="cls-64" d="m76.353,124.46c-.018,1.152-.036,2.305-.054,3.457-5.737-3.665-13.388-4.401-15.275-13.521-.739-3.573-6.934-6.02-10.644-8.98,2.288-3.476,4.577-6.952,6.865-10.428,3.488,6.317,6.977,12.635,10.466,18.952,1.733,1.758,3.466,3.516,5.198,5.275,1.147,1.748,2.295,3.496,3.443,5.244Z"/><path class="cls-28" d="m76.353,124.46c-1.148-1.748-2.296-3.496-3.443-5.244,17.294-1.356,46.038,12.107,60.369.14-3.37,10.4-13.802,11.278-21.451,12.946-12.2,2.66-25.022.933-35.475-7.842Z"/></svg>