<?xml version="1.0" encoding="UTF-8"?><svg id="Layer_1" xmlns="http://www.w3.org/2000/svg" viewBox="0 0 273.765 233.675"><defs><style>.cls-1{fill:#f0783e;}.cls-2{fill:#6a2714;}.cls-3{fill:#d36129;}.cls-4{fill:#79271a;}.cls-5{fill:#f07b42;}.cls-6{fill:#e99e76;}.cls-7{fill:#f49053;}.cls-8{fill:#621f11;}.cls-9{fill:#bd975a;}.cls-10{fill:#99682c;}.cls-11{fill:#dd6131;}.cls-12{fill:#a94027;}.cls-13{fill:#6f2417;}.cls-14{fill:#8c371e;}.cls-15{fill:#f29576;}.cls-16{fill:#c9532a;}.cls-17{fill:#dc613d;}.cls-18{fill:#8b2c1c;}.cls-19{fill:#e97851;}.cls-20{fill:#9e3221;}.cls-21{fill:#bd482c;}.cls-22{fill:#cc492a;}.cls-23{fill:#e67148;}.cls-24{fill:#7a2317;}.cls-25{fill:#b04727;}.cls-26{fill:#ed7f5b;}.cls-27{fill:#912d1e;}.cls-28{fill:#f9bc65;}.cls-29{fill:#de6f41;}.cls-30{fill:#cf735e;}.cls-31{fill:#c14928;}.cls-32{fill:#f2926a;}.cls-33{fill:#dd7a61;}.cls-34{fill:#b03d25;}.cls-35{fill:#fbda7e;}.cls-36{fill:#d4633f;}.cls-37{fill:#b54727;}.cls-38{fill:#d3572f;}.cls-39{fill:#f38d52;}.cls-40{fill:#fbf09e;}.cls-41{fill:#c8502b;}.cls-42{fill:#ba6e66;}.cls-43{fill:#872f1c;}.cls-44{fill:#ec9871;}.cls-45{fill:#c7532b;}.cls-46{fill:#fcd077;}.cls-47{fill:#d45b34;}.cls-48{fill:#cb5231;}.cls-49{fill:#ab4126;}.cls-50{fill:#f59551;}.cls-51{fill:#d7623e;}.cls-52{fill:#bd583b;}.cls-53{fill:#631b0f;}.cls-54{fill:#d35031;}.cls-55{fill:#b9402b;}.cls-56{fill:#621a0f;}.cls-57{fill:#d86036;}.cls-58{fill:#b14527;}.cls-59{fill:#f8cc7c;}.cls-60{fill:#6c2113;}.cls-61{fill:#b94328;}.cls-62{fill:#d2563c;}.cls-63{fill:#94742e;}.cls-64{fill:#c47362;}.cls-65{fill:#c3604c;}.cls-66{fill:#bf9b52;}.cls-67{fill:#e26837;}.cls-68{fill:#bb4a28;}.cls-69{fill:#c97941;}.cls-70{fill:#f5936c;}.cls-71{fill:#eb7c55;}.cls-72{fill:#ec8346;}.cls-73{fill:#db5c33;}.cls-74{fill:#b84d28;}.cls-75{fill:#fae789;}.cls-76{fill:#cc6042;}.cls-77{fill:#c9592f;}.cls-78{fill:#faeda2;}.cls-79{fill:#8d2f1d;}.cls-80{fill:#f6ad62;}.cls-81{fill:#cf532c;}.cls-82{fill:#f8af64;}.cls-83{fill:#842f1b;}.cls-84{fill:#a93e24;}.cls-85{fill:#ae4728;}.cls-86{fill:#aa4726;}.cls-87{fill:#942d1e;}.cls-88{fill:#bf4628;}.cls-89{fill:#de7c5d;}.cls-90{fill:#c3542c;}.cls-91{fill:#ef7f41;}.cls-92{fill:#722614;}.cls-93{fill:#d95f3c;}.cls-94{fill:#fbec8f;}.cls-95{fill:#f28863;}.cls-96{fill:#923a20;}.cls-97{fill:#c77065;}.cls-98{fill:#7e301c;}.cls-99{fill:#e07054;}.cls-100{fill:#e87a57;}.cls-101{fill:#7d2818;}.cls-102{fill:#f59253;}</style></defs><path class="cls-83" d="m265.868,111.384c.213,2.92.495,9.728-.184,18.119-.354,4.381-.878,8.05-1.323,10.723-.709.681-1.419,1.363-2.128,2.044-3.179,2.607-6.358,5.214-9.536,7.821,2.553-7.831,5.107-15.662,7.661-23.493.038-1.249.077-2.497.115-3.746-.801-17.701-9.917-35.815-15.691-52.423-14.827-21.353-28.284-40.056-52.428-51.662-25.103-12.067-51.74-11.153-78.94-12.301-1.966-.037-3.931-.075-5.897-.112-1.39-.585-2.78-1.169-4.17-1.754,20.632-2.377,41.227-2.552,61.638,1.747,10.988,2.315,21.861,5.167,32.786,7.777,6.425,3.446,13.849,8.094,21.505,14.337,5.381,4.389,9.917,8.782,13.692,12.862,11.521,14.44,18.651,27.756,23.023,37.361,3.992,8.769,8.94,19.859,9.875,32.699Z"/><path class="cls-60" d="m87.933,2.352c31.79-1.043,82.843-8.974,109.84,11.773-10.925-2.61-21.798-5.462-32.786-7.777-20.411-4.3-41.006-4.125-61.637-1.748-9.566.082-19.135.164-28.703.246,4.429-.832,8.857-1.663,13.285-2.495Z"/><path class="cls-33" d="m74.647,4.846c9.568-.082,19.136-.164,28.703-.246,1.388.585,2.778,1.17,4.17,1.755-.039,1.318-.08,2.636-.119,3.954-3.902-.007-7.806-.015-11.711-.022-8.342-.145-16.683-.289-25.025-.434-.66-1.085-1.32-2.169-1.981-3.254,1.987-.585,3.975-1.169,5.962-1.754Z"/><path class="cls-42" d="m68.685,6.6c.66,1.085,1.32,2.169,1.978,3.253-5.284.916-10.679,1.452-15.785,2.953-1.782.524-2.851,3.426-4.246,5.241-3.807.525-7.614,1.049-11.42,1.574,3.206-3.104,5.893-7.536,9.736-9.007,6.178-2.366,13.119-2.777,19.738-4.014Z"/><path class="cls-97" d="m35.168,49.094c-7.236,6.209-19.792,13.16-23.423,22.449-2.624,6.711.384,14.613-.18,21.889-6.558-1.161-9.772-4.891-9.92-11.641-.094-4.321-1.067-8.623-1.645-12.932,10.978-8.56,21.956-17.121,32.937-25.683,3.068-.731,6.133-1.462,9.201-2.193.981.898,1.958,1.795,2.935,2.693-.199.462-.384.93-.555,1.404-3.117,1.338-6.234,2.677-9.35,4.015Z"/><path class="cls-25" d="m260.474,122.853c-.038,1.249-.077,2.497-.114,3.747-3.23,5.21-6.461,10.418-9.692,15.627-.001-1.284-.003-2.569-.004-3.854,4.602-15.886,2.846-48.001-9.929-60.141-.703-1.418-1.408-2.836-2.109-4.255-16.027-32.459-40.733-53.47-77.926-58.017-6.433-1.782-12.784-3.986-19.32-5.245-9.25-1.782-18.637-2.866-27.965-4.248,27.2,1.148,53.837.233,78.94,12.301,24.143,11.606,37.601,30.31,52.428,51.662,2.615,9.081,5.159,18.184,7.866,27.238,2.518,8.421,5.209,16.792,7.824,25.185Z"/><path class="cls-64" d="m264.362,140.226c6.685,6.399,12.358,13.127,7.701,23.219-8.366,5.218-16.732,10.437-25.1,15.657.534-2.649,1.071-5.299,1.609-7.947.127-1.196.253-2.394.379-3.591,15.007-.616,20.916-11.867,13.284-25.293.709-.681,1.419-1.363,2.128-2.044Z"/><path class="cls-2" d="m262.234,142.271c7.632,13.426,1.724,24.677-13.286,25.293-.032-3.869-.062-7.738-.092-11.606,1.28-1.955,2.561-3.91,3.842-5.865,3.179-2.607,6.357-5.214,9.536-7.821Z"/><path class="cls-29" d="m113.415,6.467c9.328,1.382,18.715,2.467,27.965,4.248,6.536,1.259,12.887,3.463,19.319,5.246-13.202-.005-26.402-.01-39.602-.016-4.566-1.879-9.132-3.757-13.698-5.635.041-1.318.082-2.636.121-3.954,1.964.037,3.93.075,5.895.112Z"/><path class="cls-96" d="m260.474,122.853c-2.615-8.393-5.307-16.763-7.824-25.185-2.707-9.055-5.251-18.157-7.866-27.238,5.773,16.608,14.89,34.722,15.691,52.423Z"/><path class="cls-96" d="m252.698,150.092c-1.281,1.955-2.561,3.91-3.843,5.865.603-4.577,1.208-9.154,1.812-13.73,3.231-5.208,6.463-10.417,9.692-15.626-2.555,7.83-5.108,15.661-7.662,23.492Z"/><path class="cls-13" d="m42.134,40.982c-3.065.731-6.13,1.462-9.198,2.193,9.157-5.384,18.316-10.768,28.633-16.832-4.556-3.457-7.745-5.877-10.936-8.297,1.393-1.815,2.463-4.717,4.244-5.241,5.106-1.501,10.501-2.037,15.785-2.953,8.344.145,16.686.289,25.03.434.826,1.078,1.649,2.156,2.895,3.788-25.229,0-19.871,16.368-42.037,21.284-4.805,1.875-9.61,3.75-14.416,5.624Z"/><path class="cls-44" d="m246.426,181.309c.261,6.156,6.048,11.968,4.197,18.247-1.965,6.663-10.401,8.638-13.336,14.573-1.386.665-2.772,1.33-4.158,1.994-3.408-.807-6.817-1.615-10.224-2.421,2.195-2.403,4.39-4.806,6.584-7.209,7.537-1.549,5.218-7.553,5.56-12.264.824-11.339,3.612-14.576,11.376-12.921Z"/><path class="cls-30" d="m222.904,213.703c3.408.807,6.817,1.614,10.225,2.422-5.946,3.755-11.891,7.509-17.837,11.263-8.344,2.096-16.689,4.192-25.035,6.287-2.944-.417-5.886-.832-10.939-1.546,4.398-2.241,6.542-3.333,8.686-4.426,3.318-1.272,6.635-2.545,9.953-3.817,7.135-3.161,14.27-6.321,21.406-9.482,1.18-.233,2.361-.467,3.541-.7Z"/><path class="cls-72" d="m246.426,181.309c-7.764-1.654-10.552,1.582-11.376,12.921-.342,4.71,1.977,10.714-5.561,12.263-.119-.689-.237-1.377-.355-2.065.64-.66,1.279-1.32,1.919-1.979.444-.787,1.475-1.86,1.247-2.32-6.595-13.295-1.098-22.102,10.647-28.663,1.874-.104,3.749-.209,5.623-.313-.536,2.651-1.073,5.301-1.607,7.95-.177.734-.357,1.47-.536,2.207Z"/><path class="cls-98" d="m149.028,233.345c-10.022-.351-21.62-1.49-34.305-4.113-7.642-1.581-14.647-3.487-20.971-5.514-1.867-1.132-3.812-2.388-5.81-3.781-1.921-1.339-3.706-2.675-5.356-3.984-8.643-6.459-19.121-15.504-29.459-27.719-9.972-11.783-16.974-23.16-21.842-32.467-3.279-7.15-6.559-14.3-9.838-21.449,2.566,2.654,5.131,5.308,7.697,7.961,1.251.632,2.501,1.264,3.751,1.897,1.404,3.246,2.808,6.492,4.212,9.738,22.254,37.303,47.464,62.522,92.109,71.813.7.031,1.4.062,2.101.092,5.904,2.509,11.808,5.017,17.712,7.526Z"/><path class="cls-49" d="m56.549,35.358c22.167-4.916,16.809-21.284,42.038-21.284-1.246-1.631-2.069-2.709-2.895-3.788,3.902.007,7.807.014,11.708.022,4.564,1.879,9.13,3.757,13.698,5.637-19.045,3.884-35.786,12.075-49.226,26.723,9.321-3.051,18.642-6.101,27.964-9.152,3.222,2.619,6.443,5.237,9.665,7.856-8.756,9.71-11.982,15.977-14.615,29.068-1.096,5.453-.528,26.457-8.892,27.065.928-13.906,1.855-27.811,2.764-41.423-22.569-8.703-30.58,28.427-23.64,42.695,2.639.731,5.947,1.646,9.255,2.562-7.275.609-14.548,1.249-21.826,1.816-4.651.363-7.15-.793-3.812-5.715,7.749-18.568,18.525-35.188,28.87-52.451-6.326,2.506-10.692,4.236-15.058,5.965-6.535,12.278-13.071,24.556-19.606,36.834-3.237,1.356-6.474,2.711-9.711,4.067,6.301-12.613,12.702-25.179,18.849-37.865,2.091-4.315,6.676-9.88-3.285-10.821,5.58-1.647,11.161-3.293,16.741-4.94-.04-.625-.081-1.25-.121-1.875-2.955-.333-5.911-.665-8.866-.998Z"/><path class="cls-8" d="m35.168,49.094c3.117-1.338,6.234-2.677,9.353-4.015,6.159,3.144,1.608,6.946.221,9.966-6.896,15.014-14.164,29.86-21.3,44.766-1.926,3.926-3.851,7.853-5.777,11.779.408-13.216,26.978-55.345,17.504-62.496Z"/><path class="cls-89" d="m17.664,111.59c1.926-3.926,3.851-7.853,5.778-11.781,3.1-2.092,6.199-4.182,9.302-6.272.733.676,1.462,1.352,2.191,2.028-.583.682-1.166,1.364-1.749,2.046-.709.664-1.418,1.327-2.126,1.991-11.916,10.566-8.342,22.596-3.347,34.76.477,2.639.954,5.277,1.43,7.916-2.565-2.653-5.13-5.307-7.695-7.961-1.261-7.577-2.522-15.152-3.783-22.728Z"/><path class="cls-43" d="m32.74,93.537c-3.099,2.09-6.199,4.181-9.299,6.272,7.136-14.904,14.404-29.75,21.3-44.764,1.387-3.02,5.938-6.822-.221-9.966.168-.473.352-.941.552-1.405,1.241-.169,2.481-.336,3.722-.504,9.961.941,5.376,6.505,3.285,10.821-6.147,12.686-12.548,25.252-18.849,37.864-.156.562-.319,1.123-.491,1.681Z"/><path class="cls-99" d="m48.795,43.171c-1.24.167-2.481.335-3.722.504-.978-.896-1.955-1.794-2.935-2.692,4.802-1.875,9.608-3.75,14.413-5.625,2.954.332,5.909.665,8.865.998.04.625.081,1.25.121,1.875-5.58,1.647-11.161,3.293-16.741,4.94Z"/><path class="cls-71" d="m99.837,33.516c-9.321,3.051-18.642,6.101-27.964,9.152,13.44-14.647,30.181-22.838,49.226-26.723,13.198.005,26.398.011,39.599.015,37.193,4.547,61.9,25.558,77.927,58.017.701,1.419,1.406,2.837,2.11,4.255,5.191,21.072,10.071,42.163,3.934,63.92-.575.076-1.141.198-1.697.368-.709-4.643-1.417-9.286-2.126-13.928-.026-1.244-.051-2.489-.077-3.733.649-1.353,1.298-2.706,1.948-4.059-2.785-13.115-5.558-26.233-8.395-39.337-.114-.527-.822-.929-1.254-1.389-4.587-7.766-9.175-15.532-13.762-23.297-4.779-5.738-9.539-11.492-14.45-17.118-.118-.136-1.917,1.169-2.932,1.801-2.665,2.568-5.33,5.135-7.996,7.703.039-1.871.078-3.741.117-5.612,8.009-5.219,2.888-8.813-2.091-10.738-12.259-4.739-24.848-8.64-37.304-12.878-5.209.628-10.418,1.257-15.626,1.885-10.292-3.476-31.656,2.9-39.188,11.695Z"/><path class="cls-90" d="m244.668,142.151c6.138-21.756,1.258-42.847-3.933-63.919,12.774,12.14,14.53,44.256,9.928,60.141-1.941,3.247-3.882,6.494-5.824,9.74-.057-1.988-.114-3.975-.171-5.962Z"/><path class="cls-74" d="m244.84,148.113c1.941-3.247,3.882-6.494,5.823-9.74.001,1.285.003,2.57.004,3.854-.604,4.576-1.209,9.152-1.812,13.73.031,3.87.061,7.738.093,11.607-.124,1.198-.249,2.396-.377,3.591-1.876.102-3.75.206-5.626.31-2.079-.132-4.157-.264-6.127-.388v-7.719c.046-.535.115-1.067.205-1.597,2.606-4.549,5.211-9.099,7.817-13.648Z"/><path class="cls-65" d="m149.028,233.345c-5.904-2.509-11.808-5.017-17.714-7.527,1.329-.722,2.659-1.442,3.989-2.163,7.781,1.341,15.562,2.681,23.343,4.022,9.786.008,19.572.016,29.358.025-2.144,1.093-4.289,2.185-8.686,4.426,5.053.714,7.995,1.13,10.939,1.546-13.742-.109-27.485-.219-41.229-.33Z"/><path class="cls-14" d="m188.004,227.702c-9.786-.008-19.572-.017-29.359-.025,5.969-7.923,20.593-8.008,29.728-11.615,12.47-4.924,24.023-12.399,35.838-18.636,1.6,2.275,3.261,4.638,4.923,7.002.118.688.236,1.376.355,2.065-2.194,2.404-4.388,4.807-6.584,7.21-1.182.233-2.362.466-3.542.698,1.147-2.166,2.295-4.331,3.442-6.496-.511-.712-1.022-1.423-1.533-2.135-10.188,5.161-20.376,10.321-30.564,15.482l.718,2.081c2.177.184,4.354.369,6.53.553-3.318,1.272-6.635,2.545-9.953,3.817Z"/><path class="cls-92" d="m197.957,223.885c-2.177-.184-4.354-.369-6.53-.553l-.718-2.081c10.188-5.161,20.376-10.321,30.564-15.482.511.712,1.022,1.423,1.533,2.135-1.147,2.165-2.294,4.33-3.442,6.496-7.136,3.162-14.271,6.323-21.406,9.484Z"/><path class="cls-86" d="m229.134,204.428c-1.661-2.363-3.323-4.727-4.923-7.002-11.815,6.237-23.368,13.712-35.838,18.636-9.135,3.607-23.759,3.692-29.728,11.615-7.78-1.341-15.561-2.682-23.344-4.021-1.143-1.291-2.283-2.583-4.961-5.619,12.211,0,22.935,1.102,34.231-3.612,7.775-2.067,15.549-4.133,23.324-6.2,2.812-.364,5.632-.677,8.435-1.101,11.904-1.799,19.265-10.162,26.795-18.272,2.643,4.532,5.286,9.064,7.928,13.595-.639.66-1.279,1.32-1.918,1.979Z"/><path class="cls-3" d="m231.053,202.449c-2.643-4.532-5.286-9.063-7.927-13.595-.003-1.358-.008-2.716-.013-4.073,3.9-7.169,7.799-14.338,11.699-21.507.669.029,1.338.057,2.007.086v7.719c1.97.125,4.048.256,6.127.388-11.744,6.561-17.241,15.369-10.646,28.663.228.46-.803,1.533-1.247,2.32Z"/><path class="cls-85" d="m129.215,225.727c-44.645-9.292-69.855-34.51-92.109-71.813,4.692,5.306,9.437,10.569,14.057,15.936,2.594,3.014,4.982,6.202,7.463,9.312,3.438,10.382,10.41,16.48,21.584,17.487,12.821,9.907,26.225,17.195,42.99,9.409.725,1.401,1.45,2.802,2.175,4.203-1.254.669-2.508,1.338-3.762,2.008-1.766.737-3.532,1.475-5.878,2.454,5.165,4.217,9.322,7.611,13.48,11.005Z"/><path class="cls-68" d="m58.626,179.162c-2.481-3.11-4.869-6.298-7.463-9.312-4.62-5.368-9.365-10.63-14.057-15.936-1.404-3.246-2.808-6.492-4.208-9.738,7.359-3.176,5.61-40.381.287-46.564.583-.682,1.166-1.364,1.751-2.046,1.621,1.508,3.982,2.739,4.686,4.588,1.07,2.811.99,6.051,1.399,9.108-.033,1.873-.065,3.746-.098,5.618,3.357,14.869,6.161,29.892,10.33,44.535,1.78,6.251,6.406,11.707,9.738,17.524-.788.741-1.576,1.481-2.364,2.222Z"/><path class="cls-37" d="m33.185,97.612c5.322,6.183,7.072,43.388-.287,46.564-1.254-.632-2.504-1.265-3.755-1.897-.478-2.638-.955-5.277-1.432-7.916,8.701-10.869,6.415-22.778,3.348-34.76.709-.664,1.418-1.328,2.126-1.991Z"/><path class="cls-77" d="m129.215,225.727c-4.157-3.394-8.315-6.788-13.48-11.005,2.346-.979,4.112-1.717,5.877-2.454,3.025,1.249,6.056,3.57,9.077,3.556,11.296-.052,22.588-.868,33.881-1.398-11.296,4.714-22.021,3.612-34.231,3.612,2.679,3.035,3.819,4.327,4.961,5.619-1.328.72-2.659,1.44-3.987,2.162-.698-.03-1.399-.061-2.099-.092Z"/><path class="cls-18" d="m74.374,101.34c-3.308-.916-6.616-1.832-9.255-2.562-6.941-14.268,1.071-51.398,23.64-42.695-.908,13.611-1.836,27.517-2.763,41.423-3.229,1.254-6.459,2.507-9.689,3.76-.644.024-1.289.049-1.933.073Z"/><path class="cls-26" d="m74.374,101.34c.644-.024,1.289-.049,1.932-.072,1.251,1.272,2.504,2.543,3.756,3.814-1.902.778-3.805,1.556-5.707,2.334-2.609.696-5.218,1.392-7.827,2.088-1.309.025-2.619.05-3.928.075-5.179-.142-10.359-.283-15.538-.425-1.374-7.121-2.747-14.242-4.121-21.364,6.535-12.278,13.071-24.556,19.606-36.833,1.648-.343,3.295-.687,3.815-.796-5.922,15.885-11.775,31.583-17.628,47.281-3.338,4.922-.839,6.078,3.812,5.715,7.278-.568,14.551-1.207,21.826-1.816Z"/><path class="cls-45" d="m80.062,105.082c-1.252-1.271-2.505-2.542-3.756-3.814,3.231-1.254,6.461-2.507,9.69-3.762,8.363-.609,7.794-21.613,8.891-27.066,2.632-13.091,5.859-19.358,14.616-29.069.001,0,.321-.207.321-.207,1.765,1.017,3.53,2.034,5.168,2.977-12.07,10.175-28.096,40.779-9.192,49.863-5.929,3.12-11.856,6.243-17.784,9.366-2.651.57-5.302,1.141-7.953,1.711Z"/><path class="cls-45" d="m99.837,33.516c7.532-8.796,28.896-15.172,39.188-11.695,1.055,1.411,2.111,2.822,4.789,6.399-15.645-2.933-24.799,5.044-33.99,12.944,0,0-.32.206-.321.207-3.223-2.618-6.444-5.237-9.666-7.855Z"/><path class="cls-76" d="m48.735,97.441c5.853-15.698,11.705-31.396,17.628-47.281-.52.109-2.168.452-3.815.796,4.366-1.73,8.732-3.46,15.058-5.966-10.345,17.263-21.121,33.884-28.87,52.451Z"/><path class="cls-57" d="m42.942,87.79c1.374,7.121,2.747,14.242,4.119,21.365-2.015.037-4.028.073-6.041.109-.408-3.058-.329-6.298-1.399-9.109-.704-1.85-3.065-3.08-4.686-4.588-.731-.676-1.46-1.352-2.193-2.029.168-.558.332-1.119.487-1.681,3.237-1.355,6.475-2.711,9.712-4.066Z"/><path class="cls-79" d="m31.059,99.603c3.068,11.982,5.354,23.891-3.348,34.76-4.994-12.164-8.568-24.194,3.348-34.76Z"/><path class="cls-58" d="m219.307,56.776c4.587,7.766,9.175,15.531,13.762,23.298,1.425,12.972-4.995,23.755-9.934,34.95-2.577-.001-5.153-.002-7.73-.003,9.551-8.117,10.199-18.37,1.573-26.484-10.094,7.031-15.643,17.069-19.181,28.45-2.692.599-5.384,1.197-9.17,2.039,4.271-5.883,7.777-10.713,12.686-17.476-5.741,0-8.572,0-11.403,0-1.309.598-2.619,1.197-3.928,1.796-2.629.094-5.257.188-7.886.282-3.183-.784-6.366-1.568-9.55-2.352-.085-.576-.12-1.155-.105-1.737,4.553-.727,9.106-1.455,13.658-2.181,1.966.006,3.933.011,5.9.016,2.611-.561,5.222-1.123,7.832-1.684,7.025-9.632,17.097-30.177,14.312-42.94,3.942,1.733,6.551,2.88,9.16,4.027Z"/><path class="cls-67" d="m109.824,41.164c9.191-7.9,18.345-15.877,33.99-12.944-2.678-3.578-3.734-4.988-4.789-6.399,5.209-.629,10.418-1.258,15.627-1.886-1.81.573-3.62,1.146-7.13,2.258,12.755,6.056,32.301,19.987,46.525,21.357-.039,1.871-.078,3.741-.117,5.611-3.26,1.925-6.519,3.851-9.779,5.776-2.016-1.308-4.03-2.616-6.045-3.924,1.099-1.378,2.198-2.757,2.81-3.525-8.283-4.773-14.696-10.22-24.33-10.072-13.348-4.21-24.966,1.937-36.828,6.293-.153.056.959,3.496,1.481,5.357.673,2.66,1.347,5.321,2.573,10.165-2.574-2.413-3.572-3.35-4.57-4.286-1.338-1.633-2.676-3.265-5.826-7.109-2.446,7.91-17.975,39.729-3.625,44.125-1.33.682-2.66,1.363-3.989,2.045-18.904-9.086-2.878-39.69,9.192-49.865-1.638-.944-3.403-1.961-5.168-2.977Z"/><path class="cls-38" d="m219.307,56.776c-2.609-1.147-5.218-2.294-9.16-4.027,2.784,12.763-7.287,33.307-14.312,42.94,5.676-10.692,9.779-21.266-.854-31.646-1.064-1.039-.583-3.632-.819-5.504,2.551-2.538,4.996-5.192,7.679-7.585,3.62-3.228,6.854-6.26.086-9.494,1.015-.633,2.814-1.937,2.932-1.801,4.911,5.625,9.671,11.379,14.45,17.118Z"/><path class="cls-41" d="m194.047,43.551c-14.223-1.37-33.77-15.302-46.525-21.357,3.51-1.112,5.32-1.685,7.13-2.258,12.456,4.238,25.045,8.138,37.304,12.877,4.979,1.925,10.1,5.519,2.091,10.738Z"/><path class="cls-81" d="m223.135,115.025c4.939-11.196,11.359-21.978,9.934-34.95.432.459,1.14.861,1.254,1.388,2.836,13.104,5.61,26.222,8.396,39.338-6.527-1.925-13.055-3.85-19.583-5.776Z"/><path class="cls-100" d="m236.818,163.358c-.669-.029-1.338-.057-2.005-.083.001-2.486.001-4.975.001-7.837-2.301,1.6-4.086,2.842-5.872,4.084.654-10.96,1.308-21.919,1.962-32.879,3.314.649,6.628,1.299,9.942,1.948.709,4.643,1.417,9.286,2.125,13.926-.527,1.546-1.054,3.094-1.58,4.642-.559-.047-1.119-.093-1.678-.14-.445-4.185-.89-8.37-1.447-13.604-5.044,7.437-1.724,19.639-1.244,28.346-.091.529-.159,1.062-.205,1.597Z"/><path class="cls-17" d="m223.135,115.025c6.528,1.926,13.056,3.851,19.583,5.776-.65,1.352-1.299,2.705-1.948,4.058-5.853-1.307-11.708-2.614-17.561-3.921-2.61.014-5.22.028-7.83.041-7.158.648-14.317,1.296-21.475,1.943,3.917-1.938,7.834-3.875,11.75-5.813,3.25-.696,6.501-1.392,9.751-2.088,2.577.001,5.153.002,7.73.003Z"/><path class="cls-34" d="m201.926,41.46c6.769,3.234,3.534,6.266-.086,9.494-2.683,2.392-5.128,5.047-7.681,7.586-1.437.135-2.872.268-4.307.402-1.264.003-2.528.007-3.791.009-.636-1.338-1.273-2.675-1.909-4.012,3.259-1.926,6.519-3.851,9.778-5.776,2.666-2.567,5.331-5.134,7.996-7.702Z"/><path class="cls-22" d="m223.209,120.938c5.854,1.307,11.708,2.613,17.562,3.92.025,1.245.05,2.49.076,3.734-3.314-.65-6.628-1.299-9.941-1.948-3.861,4.567-7.724,9.133-11.586,13.699,1.297-6.469,2.593-12.937,3.889-19.405Z"/><path class="cls-47" d="m237.023,161.762c-.481-8.707-3.8-20.909,1.244-28.346.557,5.233,1.002,9.419,1.447,13.604.559.047,1.119.093,1.678.14.526-1.548,1.052-3.096,1.58-4.642.557-.167,1.123-.29,1.698-.366.056,1.986.113,3.974.17,5.961-2.605,4.55-5.211,9.099-7.816,13.649Z"/><path class="cls-70" d="m164.571,214.426c-11.293.53-22.586,1.346-33.881,1.398-3.02.014-6.052-2.308-9.077-3.556,1.255-.669,2.509-1.338,3.762-2.007,1.819-.728,3.639-1.456,5.458-2.183,11.871-.52,23.743-1.04,35.614-1.559,6.503-1.349,13.006-2.699,19.51-4.048.637.446,1.273.892,1.91,1.339.009,1.473.018,2.946.027,4.418-7.775,2.067-15.549,4.133-23.324,6.2Z"/><path class="cls-52" d="m187.895,208.226c-.009-1.473-.018-2.946-.027-4.417,4.05-1.053,8.099-2.109,12.147-3.165,9.843-2.889,16.738-8.346,17.202-19.401.071-.742.141-1.484.212-2.225,1.895,1.921,3.789,3.841,5.684,5.762.005,1.358.01,2.715.013,4.073-7.531,8.111-14.892,16.473-26.796,18.272-2.803.424-5.623.737-8.435,1.101Z"/><path class="cls-32" d="m223.113,184.78c-1.895-1.921-3.789-3.841-5.684-5.761-.221-1.237-.441-2.475-.662-3.713,4.059-5.261,8.117-10.522,12.176-15.784,1.785-1.242,3.571-2.483,5.872-4.084,0,2.862,0,5.351-.001,7.837-3.901,7.167-7.801,14.336-11.7,21.505Z"/><path class="cls-95" d="m60.99,176.94c-3.333-5.817-7.959-11.273-9.738-17.524-4.169-14.642-6.973-29.666-10.329-44.533,1.398,1.711,3.252,3.227,4.098,5.172,1.734,3.987,2.928,8.205,4.344,12.327,1.748,5.742,2.406,12.169,5.527,17.05,3.736,5.844,5.023,15.455,15.654,14.179-.023,2.592-.045,5.184-.068,7.777,9.845,8.921,19.923,22.065,32.465,27.379,10.267,4.35,17.34-2.159,25.925,1.31-1.89,1.994-3.779,3.988-5.669,5.981-16.765,7.786-30.169.498-42.99-9.409-6.407-6.57-12.814-13.139-19.22-19.708Z"/><path class="cls-27" d="m123.2,206.058c1.89-1.994,3.779-3.988,5.67-5.98,1.474-1.79,2.948-3.581,4.421-5.372,6.3-11.984-21.791-15.59-29.512-17.554-.684-1.946-1.369-3.891-2.052-5.836-1.984-3.166-3.968-6.334-5.953-9.501,0,0,.156-.199.156-.198,12.243,6.203,24.487,12.406,37.716,19.109,1.662-4.675,2.499-7.029,3.336-9.383,1.321-5.163,2.642-10.326,3.963-15.489,1.878-3.266,3.756-6.532,5.634-9.797,0,0,.766.498.765.498,1.096,1.655,2.194,3.311,3.291,4.966-1.938,4.671-3.875,9.341-5.813,14.012.016,5.835.031,11.67.047,17.505-1.278,1.35-2.556,2.699-3.834,4.047-.1,1.156-.199,2.314-.298,3.471-1.905,4.554-3.81,9.107-5.715,13.661-1.396,1.287-2.792,2.574-4.188,3.861-1.819.728-3.639,1.456-5.458,2.183-.725-1.401-1.45-2.802-2.175-4.203Z"/><path class="cls-36" d="m60.99,176.94c6.407,6.569,12.814,13.139,19.22,19.708-11.174-1.006-18.146-7.105-21.584-17.487.788-.741,1.576-1.481,2.364-2.222Z"/><path class="cls-48" d="m49.366,132.382c-1.416-4.123-2.61-8.341-4.344-12.327-.846-1.946-2.7-3.461-4.098-5.172.032-1.874.065-3.747.097-5.62,2.013-.036,4.026-.072,6.041-.108,5.181.141,10.36.283,15.54.423-1.255.59-2.511,1.182-3.769,1.772-3.011.273-6.019.546-9.028.82,13.837,2.583,11.864,14.092,14.667,22.339-1.632-1.801-3.263-3.602-3.517-3.882-4.994.757-8.291,1.256-11.588,1.756Z"/><path class="cls-27" d="m80.062,105.082c2.651-.57,5.302-1.141,7.954-1.711,12.026,17.53,27.082,30.101,49.74,31.32,5.118.275,10.117,2.709,15.171,4.148-1.861,2.571-3.721,5.143-5.582,7.715,0,0-.766-.498-.763-.498-7.055-2.561-13.956-6.608-21.205-7.362-13.509-1.405-21.001-11.91-31.47-17.789-3.707-3.24-7.224-6.737-11.191-9.626-2.429-1.769-5.55-2.606-8.36-3.862,1.902-.778,3.805-1.556,5.707-2.335Z"/><path class="cls-27" d="m58.834,111.351c1.256-.591,2.512-1.183,3.767-1.773,1.308-.024,2.618-.049,3.927-.074,1.939,5.109,3.879,10.217,5.819,15.326.641,1.941,1.281,3.882,1.921,5.824,1.487,14.259,15.126,20.172,21.662,30.963,0,0-.156.199-.155.197-3.185-1.372-6.372-2.741-9.56-4.11-1.352-.623-2.702-1.247-4.052-1.87-8.102-14.685-14.949-29.931-23.329-44.482Z"/><path class="cls-101" d="m72.347,124.83c-1.94-5.109-3.879-10.218-5.819-15.326,2.609-.696,5.218-1.392,7.827-2.088,2.81,1.256,5.931,2.093,8.36,3.863,3.967,2.889,7.484,6.386,11.192,9.626-6.176-2.269-12.237-4.666-18.33-7.133-1.077,3.686-2.153,7.372-3.23,11.058Z"/><path class="cls-84" d="m152.927,138.841c-5.054-1.44-10.054-3.874-15.172-4.149-22.658-1.219-37.714-13.79-49.74-31.32,5.928-3.123,11.855-6.246,17.784-9.367,1.33-.679,2.66-1.361,3.989-2.044,2.025-1.246,4.052-2.49,6.078-3.735,2.282-.876,4.564-1.752,6.847-2.628.278,1.557.556,3.113.835,4.67-.167.408-.349.811-.544,1.206-3.105,1.545-6.209,3.09-9.314,4.635-.768.432-1.535.864-2.303,1.296-2.544,1.372-5.089,2.743-7.633,4.115-18.5,2.616,18.096,23.522,23.111,25.099,7.257,2.281,17.126,5.62,24.803,4.593,7.908-1.058,11.09-7.273,18.517-5.003-5.752,4.212-11.505,8.423-17.257,12.634Z"/><path class="cls-16" d="m170.184,126.207c-7.426-2.269-10.608,3.946-18.516,5.004-7.677,1.027-17.545-2.312-24.803-4.593-5.015-1.576-41.612-22.483-23.111-25.099,11.391,17.915,27.988,25.262,49.113,22.995,8.143-.874,50.711-10.423,37.046-22.963h11.403c-4.909,6.763-8.416,11.593-12.686,17.476,3.786-.842,6.478-1.441,9.169-2.039,2.619.041,5.238.081,7.857.122-3.917,1.938-7.834,3.875-11.751,5.812-.018.616-.041,1.232-.069,1.848,0,0,.002-.002.002-.001-5.028.07-10.056.139-15.083.208-2.857.41-5.713.82-8.57,1.229Z"/><path class="cls-5" d="m111.387,97.404c.768-.432,1.535-.864,2.302-1.297,10.236,11.442,22.859,18.766,38.454,16.641,8.906-1.214,17.32-5.962,25.956-9.12,2.629-.094,5.257-.188,7.886-.281-2.006,14.526-27.558,18.164-39.933,17.456-18.816-1.077-23.8-9.845-34.665-23.399Z"/><path class="cls-11" d="m111.387,97.404c10.865,13.554,15.849,22.322,34.665,23.399,12.374.708,37.927-2.93,39.933-17.456,1.309-.6,2.619-1.198,3.928-1.797,13.665,12.54-28.903,22.09-37.046,22.963-21.125,2.267-37.722-5.08-49.113-22.995,2.545-1.371,5.089-2.743,7.633-4.115Z"/><path class="cls-20" d="m205.655,117.11c-2.619-.041-5.238-.081-7.857-.122,3.538-11.381,9.087-21.419,19.181-28.45,8.626,8.115,7.977,18.367-1.573,26.484-3.25.696-6.5,1.392-9.751,2.088Z"/><path class="cls-50" d="m178.099,103.628c-8.636,3.157-17.051,7.906-25.956,9.12-15.595,2.126-28.218-5.199-38.454-16.641,3.106-1.544,6.211-3.089,9.317-4.633,9.536,15.61,30.179,22.482,45.543,9.802,3.183.784,6.366,1.568,9.55,2.353Z"/><path class="cls-28" d="m168.549,101.276c-15.365,12.68-36.008,5.809-45.543-9.802.194-.396.376-.798.542-1.207,1.84-.88,3.681-1.758,5.522-2.637,2.148,10.344,21.536,18.5,29.931,12.504.373-.266-.167-1.786-.282-2.722,2.169.034,4.339.068,6.509.102.329-.038.658-.075.987-.109.743.711,1.486,1.423,2.229,2.134-.015.582.02,1.161.105,1.737Z"/><path class="cls-82" d="m168.444,99.539c-.743-.711-1.486-1.423-2.227-2.133,7.795-4.792,11.612-.628,17.034-9.578,3.942-6.507,2.127-20.075-3.269-25.189.085-.523.176-1.046.274-1.567,1.888-.069,3.775-.139,5.663-.208,4.932,12.801,8.72,25.485-3.816,36.493-4.553.727-9.106,1.455-13.659,2.182Z"/><path class="cls-1" d="m189.852,58.942c1.435-.133,2.87-.267,4.307-.402.238,1.87-.243,4.463.821,5.502,10.634,10.38,6.53,20.954.854,31.646-2.611.562-5.222,1.123-7.833,1.686,1.939-4.473,5.516-8.965,5.465-13.416-.097-8.351-2.292-16.679-3.614-25.016Z"/><path class="cls-102" d="m189.852,58.942c1.323,8.337,3.518,16.665,3.615,25.016.051,4.451-3.526,8.944-5.465,13.416-1.966-.006-3.933-.011-5.899-.017,12.536-11.009,8.748-23.693,3.817-36.495.083-.635.13-1.271.141-1.91,1.264-.003,2.528-.007,3.791-.01Z"/><path class="cls-80" d="m122.714,85.598c-2.282.876-4.564,1.752-6.848,2.627-1.63-1.744-4.088-3.224-4.75-5.273-3.553-10.996.61-20.032,8.125-28.005.998.936,1.997,1.872,4.57,4.286-1.226-4.844-1.9-7.505-2.572-10.165,9.978-4.624,19.465-11.213,31.47-7.722-.005.668-.01,1.336-.015,2.003-.088,1.332-.175,2.666-.263,3.999-11.94-6.785-22.563.886-28.776,10.663-7.118,11.2-6.299,16.055,2.046,24.246-.996,1.114-1.991,2.227-2.987,3.341Z"/><path class="cls-39" d="m119.241,54.946c-7.514,7.973-11.678,17.008-8.125,28.005.662,2.049,3.12,3.529,4.75,5.273-2.025,1.246-4.052,2.491-6.077,3.736-14.348-4.394,1.181-36.213,3.626-44.123,3.15,3.844,4.488,5.476,5.826,7.109Z"/><path class="cls-91" d="m152.709,41.345c-12.006-3.491-21.492,3.099-31.47,7.722-.523-1.861-1.635-5.301-1.482-5.357,11.863-4.356,23.481-10.503,36.829-6.293-1.292,1.309-2.584,2.619-3.877,3.928Z"/><path class="cls-7" d="m152.709,41.345c1.293-1.309,2.585-2.618,3.877-3.928,9.634-.148,16.046,5.299,24.329,10.072-.612.768-1.711,2.147-2.81,3.525-1.832.693-3.665,1.387-5.501,2.079-4.029-5.138-7.004-12.405-15.887-7.689-1.341-.685-2.683-1.37-4.024-2.055.005-.668.01-1.336.015-2.005Z"/><path class="cls-69" d="m172.608,53.094c1.833-.694,3.666-1.387,5.498-2.08,2.014,1.308,4.029,2.616,6.044,3.924.637,1.338,1.274,2.674,1.91,4.013-.011.64-.058,1.277-.141,1.912-1.889.071-3.776.14-5.664.206-3.3-1.965-6.6-3.927-9.9-5.892.751-.696,1.501-1.389,2.252-2.083Z"/><path class="cls-93" d="m228.943,159.522c-4.059,5.261-8.117,10.522-12.173,15.784-4.723-2.781-9.448-5.563-13.417-7.899,5.261-8.918,10.614-17.991,15.967-27.064,3.862-4.566,7.725-9.133,11.586-13.7-.655,10.959-1.309,21.919-1.963,32.878Z"/><path class="cls-87" d="m193.835,124.77c.028-.616.051-1.232.069-1.848,7.159-.647,14.317-1.295,21.476-1.943,7.241,5.802,2.949,11.733-.486,16.859-8.029,11.984-16.677,23.56-25.075,35.301-1.254,1.813-2.112,4.228-3.829,5.337-9.616,6.217-5.797,12.012.207,17.899,3.211.833,6.421,1.666,9.632,2.5,1.396.59,2.792,1.181,4.188,1.771-4.05,1.055-8.099,2.11-12.149,3.164-.637-.448-1.273-.894-1.91-1.34-3.321-4.481-6.642-8.961-9.962-13.443.036-.674.071-1.346.106-2.019.316-4.036-.352-5.659-5.446-4.526-9.731,2.164-19.732,3.137-29.621,4.604,1.278-1.35,2.555-2.699,3.833-4.049,24.413.27,39.373-15.822,54.811-31.088,4.441-7.011,9.379-13.775,13.125-21.134,2.022-3.972,1.135-8.372-5.33-7.91-4.547.622-9.093,1.243-13.64,1.865Z"/><path class="cls-31" d="m189.819,173.139c8.398-11.741,17.046-23.317,25.075-35.301,3.435-5.127,7.727-11.057.486-16.859,2.61-.013,5.22-.027,7.83-.041-1.297,6.469-2.593,12.937-3.89,19.406-5.353,9.074-10.706,18.147-15.967,27.064,3.969,2.336,8.694,5.118,13.417,7.899.218,1.237.438,2.475.659,3.713-.071.741-.141,1.483-.21,2.224-1.79.599-3.581,1.2-5.372,1.802-.078-1.3-.156-2.601-.233-3.903-.524-1.259-.897-3.517-1.597-3.622-6.701-1.001-13.457-1.639-20.197-2.381Z"/><path class="cls-23" d="m175.995,189.028c3.321,4.481,6.642,8.961,9.963,13.442-6.504,1.349-13.007,2.699-19.51,4.047,0-.002-.096-.463-.096-.463,3.214-5.675,6.428-11.35,9.643-17.026Z"/><path class="cls-19" d="m130.834,208.077c1.396-1.287,2.792-2.574,4.188-3.86,10.443.613,20.887,1.225,31.331,1.836,0,0,.096.461.096.463-11.872.522-23.743,1.041-35.614,1.561Z"/><path class="cls-27" d="m211.846,183.043c1.791-.601,3.582-1.201,5.372-1.801-.466,11.057-7.361,16.513-17.204,19.402-1.394-.589-2.79-1.18-4.186-1.77,5.339-5.277,10.678-10.554,16.018-15.831Z"/><path class="cls-62" d="m101.726,171.315c.684,1.946,1.368,3.891,2.052,5.837-.654,2.786-1.308,5.571-2.343,9.978,8.143-6.028,24.485-1.193,31.856,7.575-1.473,1.791-2.947,3.582-4.421,5.372-8.586-3.47-15.66,3.038-25.926-1.312-12.542-5.314-22.62-18.458-32.466-27.379,10.399-7.311,20.817-6.389,31.249-.072Z"/><path class="cls-54" d="m49.366,132.382c3.297-.5,6.594-.999,11.588-1.756.254.28,1.886,2.081,3.518,3.882.678,1.294,1.356,2.587,2.033,3.881.785,8.28,1.276,16.694,9.971,21.346-1.976,1.292-3.953,2.584-5.929,3.875-10.631,1.276-11.918-8.335-15.654-14.179-3.12-4.881-3.778-11.307-5.527-17.05Z"/><path class="cls-88" d="m70.546,163.611c1.976-1.292,3.953-2.584,5.927-3.875,3.246-.678,6.495-1.356,9.743-2.033,3.187,1.37,6.374,2.74,9.559,4.111,1.983,3.169,3.967,6.337,5.951,9.503-10.432-6.317-20.85-7.24-31.249.071.023-2.592.046-5.184.069-7.777Z"/><path class="cls-53" d="m140.945,155.853c-1.321,5.163-2.642,10.326-3.963,15.49-3.099.398-6.496,1.819-9.251,1.033-23.113-6.597-40.04-20.905-51.451-41.771.459-4.373.918-8.746,1.656-15.783,10.162,8.787,20.813,20.831,32.988,26.978,7.347,3.71,30.198,2.595,30.022,14.053Z"/><path class="cls-24" d="m199.68,151.949c-15.438,15.266-30.398,31.358-54.811,31.088-.016-5.835-.031-11.67-.046-17.504,0,3.397,0,6.794,0,10.575,13.021-2.644,36.176-5.203,40.902-21.012,5.619-18.798-18.142-9.522-29.865-9.231,5.499-4.868,10.997-9.737,16.496-14.605,10.966,5.587,18.607,3.278,21.48-6.491,0,0-.002.002-.002.002,4.547-.622,9.093-1.244,13.641-1.866-2.598,9.681-5.197,19.363-7.797,29.045Z"/><path class="cls-56" d="m155.861,145.865c11.723-.292,35.484-9.567,29.865,9.231-4.726,15.809-27.882,18.367-40.902,21.012,0-3.781,0-7.178,0-10.575,1.937-4.671,3.875-9.341,5.812-14.011,1.742-1.885,3.484-3.771,5.226-5.657Z"/><path class="cls-4" d="m140.945,155.853c.176-11.458-22.675-10.344-30.022-14.053-12.175-6.147-22.826-18.191-32.988-26.978-.738,7.037-1.197,11.41-1.656,15.783-.67.016-1.341.032-2.012.048-.64-1.941-1.281-3.883-1.921-5.824,1.076-3.686,2.153-7.372,3.229-11.058,6.094,2.467,12.155,4.864,18.33,7.133,10.469,5.879,17.96,16.384,31.47,17.789,7.249.754,14.15,4.801,21.205,7.362-1.88,3.266-3.759,6.531-5.637,9.797Z"/><path class="cls-73" d="m166.352,206.053c-10.444-.612-20.887-1.223-31.331-1.836,1.905-4.555,3.811-9.109,5.717-13.66,11.789-1.182,23.576-2.366,35.364-3.55-.035.673-.07,1.345-.106,2.019-3.216,5.677-6.43,11.352-9.644,17.027Z"/><path class="cls-101" d="m74.269,130.653c.671-.016,1.341-.032,2.012-.048,11.411,20.866,28.338,35.173,51.451,41.771,2.755.786,6.152-.635,9.251-1.033-.837,2.354-1.674,4.707-3.337,9.382-13.23-6.702-25.473-12.905-37.716-19.109-6.535-10.792-20.174-16.705-21.661-30.964Z"/><path class="cls-6" d="m155.861,145.865c-1.742,1.886-3.485,3.772-5.226,5.657-1.096-1.657-2.194-3.313-3.29-4.968,1.861-2.571,3.722-5.143,5.582-7.714,5.753-4.21,11.506-8.421,17.258-12.633,2.856-.41,5.713-.82,8.566-1.232-2.133,2.093-4.264,4.189-6.394,6.285-5.499,4.868-10.998,9.737-16.496,14.605Z"/><path class="cls-55" d="m133.291,194.706c-7.371-8.768-23.713-13.603-31.856-7.575,1.035-4.407,1.689-7.192,2.343-9.978,7.722,1.963,35.813,5.569,29.513,17.553Z"/><path class="cls-21" d="m176.102,187.008c-11.787,1.184-23.575,2.368-35.364,3.55.097-1.16.196-2.317.296-3.473,9.89-1.465,19.891-2.439,29.622-4.603,5.094-1.133,5.762.49,5.446,4.526Z"/><path class="cls-12" d="m66.505,138.389c-.677-1.294-1.355-2.587-2.033-3.881-2.804-8.246-.831-19.756-14.668-22.338,3.009-.274,6.018-.547,9.028-.82,8.381,14.552,15.229,29.799,23.331,44.483-2.504-2.171-5.286-4.103-7.444-6.571-2.984-3.413-5.499-7.229-8.214-10.872Z"/><path class="cls-61" d="m66.505,138.389c2.716,3.643,5.23,7.46,8.214,10.872,2.158,2.468,4.94,4.4,7.444,6.571,1.35.623,2.701,1.247,4.052,1.87-3.247.677-6.496,1.355-9.742,2.033-8.692-4.653-9.183-13.067-9.969-21.346Z"/><path class="cls-10" d="m122.714,85.598c.996-1.114,1.991-2.227,2.985-3.341,3.969-3.839,7.941-7.679,11.911-11.519,2.331-2.136,4.664-4.271,6.997-6.406.887.847,1.774,1.694,2.66,2.541-3.385,4.525-6.769,9.051-10.154,13.576-2.681,2.393-5.362,4.787-8.042,7.18-1.841.879-3.682,1.758-5.522,2.637-.277-1.556-.556-3.112-.834-4.669Z"/><path class="cls-87" d="m172.357,131.26c2.13-2.096,4.26-4.192,6.394-6.285,5.031-.067,10.059-.136,15.086-.206-2.873,9.768-10.515,12.078-21.48,6.491Z"/><path class="cls-75" d="m129.07,87.629c2.681-2.393,5.361-4.787,8.042-7.181-.856,2.275-1.713,4.55-2.587,6.873,7.781,3.917,9.235,6.198,16.101,1.002,2.698,3.029,5.395,6.059,8.092,9.088.115.936.654,2.456.282,2.722-8.395,5.996-27.783-2.16-29.931-12.504Z"/><path class="cls-46" d="m179.98,62.639c5.398,5.115,7.213,18.682,3.271,25.189-5.422,8.95-9.239,4.786-17.034,9.578-.331.033-.66.069-.99.108-.399-1.201-.797-2.403-1.193-3.604,9.177-1.942,18.019-19.978,13.245-27.513-.789-1.245-3.397-1.359-5.164-1.995,2.622-.588,5.243-1.176,7.865-1.763Z"/><path class="cls-63" d="m164.032,93.91c.398,1.202.796,2.403,1.195,3.604-2.169-.035-4.339-.069-6.508-.103-2.697-3.029-5.395-6.059-8.091-9.088-5.199-8.695-.331-14.587,5.715-20.151.646,1.227,1.292,2.454,1.938,3.681-6.361,9.043-4.814,14.975,5.752,22.057Z"/><path class="cls-9" d="m158.28,71.853c-.646-1.227-1.292-2.454-1.938-3.68,2.758-3.712,5.515-7.425,8.272-11.138,1.914-.618,3.827-1.237,5.741-1.855,3.3,1.962,6.6,3.924,9.9,5.889-.098.524-.189,1.047-.274,1.57-2.623.588-5.245,1.175-7.865,1.765-4.611,2.484-9.224,4.967-13.836,7.449Z"/><path class="cls-35" d="m137.611,70.738c-3.971,3.839-7.943,7.679-11.912,11.518-8.343-8.19-9.161-13.046-2.044-24.245,6.213-9.777,16.836-17.449,28.779-10.665-.544,1.242-1.089,2.486-1.635,3.73-18.949,5.139-22.194,4.051-25.281,22.44,5.935-1.363,9.015-2.07,12.094-2.778Z"/><path class="cls-66" d="m150.798,51.076c.546-1.244,1.092-2.488,1.635-3.73.085-1.332.173-2.666.261-3.998,1.341.686,2.682,1.371,4.023,2.054-.665,3.112-1.33,6.225-1.994,9.339-2.485,4.044-4.971,8.088-7.457,12.131-.887-.847-1.774-1.694-2.66-2.541,2.064-4.418,4.128-8.837,6.192-13.255Z"/><path class="cls-59" d="m154.723,54.742c.664-3.114,1.329-6.227,1.994-9.339,8.884-4.714,11.859,2.553,15.888,7.691-.748.694-1.498,1.388-2.249,2.083-1.914.621-3.827,1.24-5.742,1.857-.887-2.339-1.773-4.677-2.66-7.015-2.41,1.574-4.821,3.149-7.231,4.723Z"/><path class="cls-51" d="m189.819,173.139c6.74.742,13.496,1.379,20.197,2.38.7.105,1.073,2.363,1.596,3.622-8.472,5.745-16.944,11.489-25.415,17.234-6.004-5.887-9.823-11.682-.207-17.899,1.717-1.11,2.574-3.525,3.829-5.337Z"/><path class="cls-15" d="m186.197,196.375c8.471-5.744,16.943-11.489,25.415-17.234.078,1.301.156,2.602.234,3.903-5.339,5.276-10.678,10.553-16.017,15.83-3.211-.833-6.421-1.666-9.632-2.499Z"/><path class="cls-27" d="m199.68,151.949c2.599-9.682,5.199-19.363,7.797-29.045,6.463-.461,7.351,3.939,5.329,7.911-3.746,7.359-8.684,14.122-13.125,21.134Z"/><path class="cls-78" d="m154.723,54.742c2.41-1.574,4.821-3.149,7.231-4.723.886,2.338,1.772,4.676,2.66,7.015-2.756,3.714-5.514,7.427-8.271,11.139-6.046,5.564-10.914,11.456-5.715,20.151-6.867,5.196-8.321,2.915-16.102-1.002.874-2.322,1.73-4.597,2.587-6.872,3.384-4.525,6.769-9.051,10.154-13.576,2.486-4.043,4.972-8.087,7.457-12.131Z"/><path class="cls-40" d="m150.798,51.076c-2.064,4.419-4.128,8.837-6.192,13.255-2.333,2.135-4.665,4.27-6.997,6.406-3.078.708-6.157,1.415-12.093,2.778,3.088-18.389,6.333-17.3,25.281-22.44Z"/><path class="cls-94" d="m158.28,71.853c4.612-2.483,9.225-4.965,13.836-7.449,1.766.635,4.374.749,5.163,1.994,4.774,7.535-4.068,25.571-13.245,27.513-10.568-7.082-12.115-13.014-5.754-22.057Z"/></svg>