<?xml version="1.0" encoding="UTF-8"?><svg id="Layer_1" xmlns="http://www.w3.org/2000/svg" viewBox="0 0 220.561 214.375"><defs><style>.cls-1{fill:#5b5f75;}.cls-2{fill:#676771;}.cls-3{fill:#8597ac;}.cls-4{fill:#d3dceb;}.cls-5{fill:#353f53;}.cls-6{fill:#889ac1;}.cls-7{fill:#716f7a;}.cls-8{fill:#a4b3cf;}.cls-9{fill:#3e4659;}.cls-10{fill:#35465b;}.cls-11{fill:#4f596d;}.cls-12{fill:#495c6b;}.cls-13{fill:#94a1be;}.cls-14{fill:#71839d;}.cls-15{fill:#b6bed3;}.cls-16{fill:#a6b8cc;}.cls-17{fill:#8798ae;}.cls-18{fill:#a6a7c0;}.cls-19{fill:#898aa7;}.cls-20{fill:#667285;}.cls-21{fill:#b9bac6;}.cls-22{fill:#707888;}.cls-23{fill:#b9cad0;}.cls-24{fill:#626e82;}.cls-25{fill:#ccd0e4;}.cls-26{fill:#8c9ab6;}.cls-27{fill:#dce8f3;}.cls-28{fill:#f7f7f9;}.cls-29{fill:#435068;}.cls-30{fill:#9698b3;}.cls-31{fill:#64627c;}.cls-32{fill:#4e5f7d;}.cls-33{fill:#92a1b5;}.cls-34{fill:#2e3647;}.cls-35{fill:#bdc5df;}.cls-36{fill:#d1d4e4;}.cls-37{fill:#798597;}.cls-38{fill:#5b6884;}.cls-39{fill:#727f98;}.cls-40{fill:#e6e8f2;}.cls-41{fill:#344253;}.cls-42{fill:#72829a;}.cls-43{fill:#aebfd6;}.cls-44{fill:#8895a8;}.cls-45{fill:#465361;}.cls-46{fill:#65657d;}.cls-47{fill:#84849f;}.cls-48{fill:#a7b3c1;}.cls-49{fill:#7b7d95;}.cls-50{fill:#8989aa;}.cls-51{fill:#b5c7e4;}.cls-52{fill:#9ea6ba;}.cls-53{fill:#81818b;}.cls-54{fill:#adb6cc;}.cls-55{fill:#aaaacb;}.cls-56{fill:#728293;}.cls-57{fill:#c3c9df;}.cls-58{fill:#d3e0ed;}.cls-59{fill:#2e3648;}.cls-60{fill:#8f9cab;}.cls-61{fill:#64637d;}.cls-62{fill:#80819a;}.cls-63{fill:#465269;}.cls-64{fill:#bfbfd3;}.cls-65{fill:#6c6e84;}.cls-66{fill:#5a697f;}.cls-67{fill:#546579;}.cls-68{fill:#bbcae0;}.cls-69{fill:#a5b1c5;}.cls-70{fill:#88889a;}.cls-71{fill:#a5a5b5;}.cls-72{fill:#9fb1cb;}.cls-73{fill:#e4e7f1;}.cls-74{fill:#738193;}.cls-75{fill:#273949;}.cls-76{fill:#77859d;}.cls-77{fill:#b1afcb;}.cls-78{fill:#637583;}.cls-79{fill:#72839a;}.cls-80{fill:#939db1;}.cls-81{fill:#a3a5c2;}.cls-82{fill:#59657b;}.cls-83{fill:#9f9fc6;}.cls-84{fill:#adb1c8;}.cls-85{fill:#8f8fa7;}.cls-86{fill:#576476;}.cls-87{fill:#a1b0c9;}.cls-88{fill:#8b8a98;}.cls-89{fill:#1e273b;}.cls-90{fill:#41495b;}.cls-91{fill:#94a1ae;}.cls-92{fill:#8686a1;}.cls-93{fill:#4a5560;}.cls-94{fill:#eef6f8;}.cls-95{fill:#acb8ce;}.cls-96{fill:#c2c6dc;}.cls-97{fill:#c5d7eb;}.cls-98{fill:#94a2bc;}.cls-99{fill:#888fa6;}</style></defs><path class="cls-7" d="m31.568,204.023c-2.034,1.378-4.241,2.191-6.737,2.049-8.301-1.756-16.355,3.132-24.831,1.094.59-4.733,5.8-1.793,7.282-4.707,9.185-1.819,10.682-5.207,5.557-12.668-1.896-2.761-5.797-4.189-5.552-8.369,1.069.688,2.138,1.377,3.206,2.065,1.189,1.102,2.377,2.204,3.566,3.306l3.657,3.368c2.535,6.475,3.665,14.554,13.94,12.191-.013.558-.043,1.115-.088,1.671Z"/><path class="cls-2" d="m45.588,21.078c-.228,2.313.76,6.163-3.777,3.833-6.524-3.35-13.564-6.554-11.953-16.052C33.719,2.117,40.297.701,47.241,0c1.893.331,4.097-.274,5.417,1.79-1.092.138-2.183.275-3.275.413-17.437-3.727-18.713,22.733-3.795,18.876Z"/><path class="cls-21" d="m49.384,2.203c1.091-.138,2.183-.275,3.275-.413,11.351,3.511,23.832-.276,34.848,5.389.004.501.075.992.212,1.473-.069.667-.136,1.335-.203,2.003-7.368-2.403-23.508-9.208-31.12-5.221-3.221,1.687-10.075,4.338-3.56,7.101-.083.476-.251.92-.504,1.332-3.396-1.518-4.945,2.988-8.04-.516-3.918-4.436,2.534-8.812,5.094-11.147Z"/><path class="cls-61" d="m160.762,22.771c.073.551.159,1.1.255,1.648-1.269.063-2.536.124-3.802.185-8.493-.554-16.813-2.403-23.851-7.074-4.562-3.028-9.07-4.664-14.325-4.912l-.43-.569c8.489-2.732,16.108,2.038,24.084,3.233,6.257.938,12.063,4.881,18.07,7.489Z"/><path class="cls-61" d="m87.72,8.652c-.138-.482-.21-.973-.213-1.473,10.217,2.592,20.119,7.182,31.103,4.873-.002-.003.428.566.427.564-6.467,1.124-12.934,2.249-19.4,3.375-3.972-2.446-7.945-4.893-11.917-7.339Z"/><path class="cls-46" d="m157.214,24.604c1.267-.061,2.534-.122,3.803-.185,19.157,9.912,34.863,23.183,43.177,43.807,1.604,3.979,1.057,9.623,7.238,10.528-.641,1.199-1.282,2.398-1.921,3.595-6.018-2.449-7.733-8.344-9.869-13.417-8.529-20.258-25.566-32.163-42.428-44.329Z"/><path class="cls-85" d="m209.509,82.353c.641-1.2,1.281-2.399,1.922-3.598,3.384,1.829,8.322,1.588,9.129,6.847-1.418,2.107-2.545,4.315-2.418,6.956-.647-.132-1.294-.262-1.942-.393-.267-2.915,2.454-7.072-.788-8.472-3.516-1.519-5.788,2.358-7.72,5.152-2.946,2.225-5.357,2.145-6.612-1.742-.886-2.744-1.536-5.565-2.291-8.351,4.056-.233,3.125,14.356,10.72,3.601Z"/><path class="cls-65" d="m186.666,191.681c-4.953-1.815-35.466,12.411-39.949,17.522-1.718.041-3.436.081-5.154.121-.017-.612-.035-1.224-.052-1.836,4.082-1.723,8.164-3.445,12.246-5.167,14.893-5.251,26.708-14.318,34.783-28.02,1.456-2.018,1.973-4.306,1.934-6.752,2.101-1.066,3.455-2.656,3.59-5.103.529-.037,1.054-.107,1.575-.209,3.036.328,4.478-2.667,7.021-3.365-4.83,6.4-4.93,14.776-9.02,21.507-2.062,3.394-6.671,5.013-6.752,9.753-.055.519-.129,1.036-.223,1.549Z"/><path class="cls-71" d="m17.716,190.161c-1.219-1.123-2.438-2.245-3.656-3.369,2.06-.237,3.547-1.067,3.567-3.425,3.635,2.823,7.738,3.794,12.263,3.092,1.205.125,2.411.249,3.616.373-1.947.902-3.893,1.805-6.152,2.853,4.962,4.32,9.49,8.697,16.59,7.539-.033.502-.088,1.001-.167,1.497-1.051.143-2.103.287-3.154.43-6.413-.776-14.289,2.456-17.599-6.858-.422-1.189-3.474-1.445-5.308-2.133Z"/><path class="cls-64" d="m17.627,183.368c-.019,2.358-1.506,3.188-3.566,3.424-1.19-1.101-2.378-2.203-3.566-3.307-1.058-7.183-2.472-14.365.019-21.543.692-1.659,2.306-1.614,3.691-1.992,3.061,3.512,1.869,7.294.856,11.16-1.166,4.451-1.969,8.945,2.566,12.258Z"/><path class="cls-88" d="m17.716,190.161c1.834.688,4.885.944,5.308,2.133,3.31,9.313,11.186,6.081,17.598,6.856-.144.457-.243.925-.296,1.402-2.89.6-5.78,1.201-8.67,1.801-10.275,2.362-11.406-5.716-13.94-12.191Z"/><path class="cls-71" d="m10.513,161.941c-2.49,7.179-1.076,14.361-.018,21.544-1.07-.687-2.139-1.375-3.208-2.064,0,0-.028.006-.028.007.203-6.418-1.113-12.962,1.59-19.174.562-.065,1.117-.169,1.664-.313Z"/><path class="cls-40" d="m52.834,12.535c-6.515-2.763.339-5.414,3.56-7.101,7.612-3.987,23.752,2.818,31.12,5.221,5.811,4.64,11.621,9.281,17.432,13.921.562.616,1.124,1.232,1.686,1.848,1.336,5.472-7.784,6.74-11.634,5.198-5.84-2.338-6.177-12.078-12.86-15.667-1.686-.873-3.291-2.026-5.368-1.549-2.282-.611-4.563-1.223-6.845-1.834-1.742.026-3.484.052-5.227.078-3.955-.038-7.91-.076-11.865-.114Z"/><path class="cls-31" d="m19.708,59.339c-.066-.454-.094-.91-.081-1.366,4.301-.841,7.73-3.151,8.289-7.547.79-6.214,9.532-6.819,9.014-13.634.56-.611,1.119-1.223,1.678-1.835,4.336-5.181,9.834-8.877,15.618-12.21.697.077,1.392.153,2.086.228-2.826,13.567-13.432,17.61-21.848,26.674-7.716,8.311-10.076,19.073-15.062,28.881-1.769,1.706-3.538,3.412-5.307,5.118,1.826-5.244,3.546-10.528,5.519-15.716,1.113-2.926,2.825-5.69.094-8.593Z"/><path class="cls-53" d="m49.384,2.203c-2.559,2.335-9.012,6.711-5.094,11.147,3.095,3.504,4.644-1.002,8.04.516-1.763,2.856-5.564,3.809-6.742,7.212-14.918,3.858-13.642-22.603,3.795-18.876Z"/><path class="cls-1" d="m56.314,22.976c-.696-.076-1.391-.152-2.088-.229,1.384-1.886,3.443-1.655,5.415-1.753,5.792-.285,7.238-3.224,5.059-8.346,1.742-.026,3.484-.052,5.226-.078,7.409,13.063.022,10.266-13.612,10.405Z"/><path class="cls-47" d="m153.757,202.32c-4.082,1.723-8.164,3.445-12.246,5.169-13.744,4.45-27.197,8.191-42.318,5.832-11.127-1.736-22.988-1.896-34.384.859-.516.167-1.044.226-1.585.178-.034-1.073-.067-2.147-.101-3.222,15.743,1.425,34.872.613,50.609-.233,14.125-.76,26.199-8.57,39.964-10.473.02.63.04,1.26.06,1.889Z"/><path class="cls-55" d="m104.947,24.575c-5.811-4.64-11.622-9.281-17.432-13.921.068-.668.135-1.335.204-2.003,3.974,2.447,7.946,4.893,11.919,7.339,1.743,2.965,3.736,4.265,7.71,3.632,10.086-1.606,19.321,3.219,28.999,4.886,1.649,2.61,6.013,1.65,6.91,5.248-12.473-3.918-25.139-6.41-38.309-5.182Z"/><path class="cls-19" d="m136.346,24.508c-9.678-1.666-18.913-6.492-28.999-4.885-3.974.633-5.967-.667-7.71-3.632,6.466-1.125,12.932-2.251,19.4-3.374,5.257.25,9.764,1.886,14.326,4.914,7.038,4.671,15.358,6.52,23.851,7.074,16.861,12.167,33.898,24.072,42.427,44.33,2.136,5.073,3.851,10.968,9.869,13.417-7.596,10.759-6.665-3.831-10.718-3.599-1.655-3.453-3.313-6.904-4.97-10.358-1.594-10.5-10.753-14.791-17.384-21.157-7.977-17.065-24.501-19.075-40.093-22.728Z"/><path class="cls-35" d="m193.822,68.395c1.658,3.452,3.315,6.903,4.97,10.356.752,2.788,1.402,5.608,2.288,8.352,1.255,3.887,3.666,3.967,6.612,1.743,1.474,2.761-3.375,10.4,5.661,7.323-.654,1.15-1.309,2.3-1.963,3.449-11.122-1.844-6.735,17.77-7.777,24.404-1.353,8.612-13.738,30.902-9.549,38.423-.135,2.447-1.489,4.037-3.59,5.103-8.017,1.888-9.637,11.835-17.524,13.887-1.134-1.793-3.732-2.596-3.568-5.267-3.999-5.819-8.062,2.102-12.078-.057,1.127-2.21,4.202-2.392,5.199-3.839,3.115-4.523,11.604-2.135,11.994-9.662,8.428,2.076,10.637,3.695,13.992-4.366,1.04-2.499-.581-12.433-.295-16.442.346-4.843,2.975-9.267,2.232-14.351.194,1.591-.515,4.347,1.185,4.433,3.831.192,3.24-3.758,4.359-6.085,2.892-11.321,3.946-22.542-1.821-33.392-1.956-8.188-6.119-15.086-12.204-20.863-.676-1.708-1.352-3.416-2.028-5.124,8.37.285,7.471,11.085,14.815,13.45-.337-4.249-.624-7.862-.91-11.475Z"/><path class="cls-73" d="m213.354,96.17c-9.035,3.077-4.187-4.562-5.661-7.323,1.932-2.796,4.203-6.672,7.72-5.154,3.242,1.4.521,5.557.788,8.472-.949,1.335-1.898,2.67-2.847,4.005Z"/><path class="cls-49" d="m14.162,159.164c7.357-10.445,2.714-20.015-1.078-30.358-2.498-6.812-1.688-14.836-2.359-22.317-.016-4.888.052-9.778-.078-14.662-.088-3.307.131-6.362,3.45-8.178,1.768-1.707,3.537-3.413,5.307-5.118-1.536,5.174-2.097,10.445-1.589,15.823-2.254,14.802-4.183,29.578,3.57,43.562.491.612.982,1.225,1.473,1.837.488,4.548-1.182,9.423,1.249,13.634,5.559,9.63,9.092,20.583,17.99,28.079-.094,1.085-.187,2.17-.28,3.254-2.349,2.356-5.447,1.773-8.309,2.111-1.205-.125-2.411-.249-3.616-.373,12.138-5.626-5.353-30.559-15.728-27.295Z"/><path class="cls-18" d="m172.95,181.436c7.887-2.052,9.507-11.999,17.524-13.887.039,2.446-.478,4.733-1.933,6.753-2.527.159-4.052,1.93-5.781,3.465-9.203,8.172-17.9,17-29.063,22.664-13.766,1.903-25.839,9.713-39.964,10.473-15.737.846-34.867,1.659-50.609.233,0,0-.09-.06-.09-.06.472-2.225.945-4.45,1.414-6.675,1.443-6.848.061-11.509-8.331-10.741.037-.533.084-1.066.14-1.599,1.109-.064,2.219-.126,3.329-.188,13.411-1.499,7.522,12.576,15.964,17.117,6.318,3.399,25.032-2.907,33.193-3.09,23.662-.532,47.577-6.086,64.208-24.465Z"/><path class="cls-83" d="m194.065,162.446c-4.189-7.521,8.196-29.811,9.549-38.423,1.042-6.634-3.345-26.247,7.777-24.404.068.54-.01,1.057-.232,1.553-7.314,7.094-3.268,15.025-1.682,22.775-2.818,5.624-1.203,11.593-1.361,17.424-.137,2.28-.275,4.561-.413,6.842-3.022-3.372-.4-8.945-5.048-12.224,1.146,9.919-5.578,17.325-7.016,26.249-.521.102-1.046.172-1.575.209Z"/><path class="cls-62" d="m153.697,200.431c11.163-5.664,19.861-14.491,29.063-22.664,1.729-1.535,3.254-3.306,5.781-3.465-8.076,13.701-19.891,22.767-34.784,28.019-.02-.63-.04-1.26-.06-1.89Z"/><path class="cls-50" d="m195.639,162.237c1.437-8.924,8.162-16.33,7.016-26.249,4.648,3.279,2.025,8.852,5.048,12.224-.237,4.235-1.876,7.807-5.042,10.659-2.543.699-3.985,3.694-7.021,3.366Z"/><path class="cls-50" d="m209.477,123.947c-1.587-7.75-5.632-15.681,1.682-22.775-.561,7.591-1.122,15.183-1.682,22.775Z"/><path class="cls-36" d="m56.257,192.063c-.057.532-.104,1.064-.142,1.597-4.057,1.188-8.114,2.375-12.171,3.563-7.1,1.158-11.628-3.219-16.59-7.539,2.259-1.048,4.205-1.951,6.152-2.853,2.863-.338,5.96.245,8.312-2.109,4.172-1.309,4.548-4.272,2.535-7.36-3.385-5.193-7.223-10.092-10.871-15.115-.319-.921-4.891-9.668-2.273-11.03-1.35.702,18.038,15.178,18.657,15.929,5.471,6.635-1.807,4.73,6.183,9.095,2.096,1.125,3.647,2.609,3.461,5.239-11.597-7.628-28.33,15.06-3.252,10.582Z"/><path class="cls-70" d="m43.944,197.224c4.057-1.188,8.114-2.376,12.171-3.563,8.392-.768,9.775,3.893,8.331,10.742-.469,2.226-.942,4.45-1.414,6.675-9.111-.865.004-8.071-4.568-11.274-4.087-2.863-9.459-1.049-14.687-1.082.078-.497.134-.996.166-1.498Z"/><path class="cls-4" d="m82.137,15.955c6.685,3.588,7.021,13.328,12.861,15.666,3.85,1.542,12.97.274,11.635-5.199,4.485.101,7.026,2.77,8.701,6.581-1.433.289-2.995.329-3.755,1.927-2.186.616-3.639-1.411-5.876-.282-.77.389.853,5.571-2.781,7.026-11.823,4.736-23.188-8.497-31.297,3.609-4.049,4.117-8.098,8.233-12.148,12.35-5.828,4.289-15.113.794-19.382,8.595-2.938,5.807-8.373,10.424-8.401,17.616-2.327.886-3.928.939-3.111-2.387.527-2.143.815-4.345,1.209-6.521.919-6.558,5.342-12.094,5.51-18.87,3.198-1.957,6.812-3.463,9.515-5.955,8.209-7.567,22.181-9.539,23.508-23.854,1.743.576,3.486,1.151,5.229,1.727,3.313,4.225,10.796,4.929,13.085-.667,1.705-4.169-3.074-7.301-4.505-11.363Z"/><path class="cls-96" d="m115.334,33.003c-1.676-3.81-4.216-6.479-8.701-6.58-.562-.615-1.124-1.231-1.686-1.847,13.17-1.228,25.836,1.264,38.309,5.182,11.592,4.82,23.929,8.226,33.182,17.479,6.631,6.365,15.79,10.656,17.384,21.157.286,3.615.573,7.228.909,11.478-7.344-2.366-6.446-13.166-14.815-13.45-2.385-2.873-4.77-5.747-7.153-8.621,6.432-10.823-43.99-30.213-45.216-24.653-4.071-.048-8.142-.096-12.213-.143Z"/><path class="cls-92" d="m73.556,27.985c-1.743-.576-3.486-1.151-5.229-1.727-2.141-2.066-4.598-1.968-7.246-1.131-.743,2.694,4.217,5.101-.277,8.143-7.1,4.807-13.657,10.413-20.444,15.68-5.217-.532-6.997,2.997-8.466,7.032-4.661,12.802-9.381,25.582-14.079,38.371-.509-5.378.052-10.649,1.588-15.824,4.985-9.808,7.345-20.571,15.061-28.882,8.416-9.065,19.022-13.108,21.848-26.674,13.635-.138,21.022,2.659,13.614-10.404,2.282.611,4.563,1.223,6.846,1.833,6.098,8.381,5.822,9.548-3.215,13.582Z"/><path class="cls-15" d="m73.556,27.985c9.037-4.034,9.313-5.201,3.215-13.582,2.075-.475,3.681.677,5.366,1.551,1.43,4.063,6.209,7.194,4.503,11.364-2.289,5.596-9.772,4.892-13.085.667Z"/><path class="cls-81" d="m176.439,47.236c-9.253-9.252-21.59-12.659-33.182-17.479-.897-3.599-5.261-2.64-6.911-5.249,15.592,3.652,32.116,5.663,40.093,22.728Z"/><path class="cls-27" d="m190.426,127.452c.743,5.084-1.886,9.507-2.232,14.351-.286,4.009,1.335,13.944.295,16.442-3.355,8.061-5.564,6.442-13.991,4.363-14.343-2.33-17.252,12.167-27.16,16.365.401.63.803,1.26,1.204,1.89,2.921-1.584,5.842-3.167,8.762-4.751,4.016,2.159,8.079-5.762,12.079.057-4.833,1.185-1.821,5.944-3.982,8.672-3.866,4.88-9.409.632-13.423,3.359-5.233.743-10.467,1.484-15.7,2.225-.563-.177-1.126-.355-1.689-.532,5.636-13.448,16.085-21.078,25.223-32.517,10.387-13.004,18.152-28.14,29.075-40.633,5.025,2.922,3.445,6.792,1.54,10.709Z"/><path class="cls-25" d="m151.978,188.198c4.014-2.725,9.557,1.522,13.423-3.358,2.161-2.728-.851-7.487,3.982-8.672-.165,2.671,2.434,3.474,3.567,5.267-16.631,18.378-40.547,23.932-64.208,24.465-8.161.184-26.875,6.489-33.193,3.09-8.441-4.541-2.552-18.616-15.964-17.117,2.087-1.899,4.142-3.814,3.591-7.053,5.822,2.282,11.643,4.564,17.465,6.847,1.092.69,2.184,1.378,3.277,2.067,1.177,1.153,2.354,2.306,3.531,3.46,10.744,3.911,21.07.288,31.483-1.748,2.472.222,5.738-.478,7.267.838,4.611,3.968,8.085,1.72,11.816-.941l.028-.019c4.768-1.49,9.584-2.848,14.287-4.52,2.87-1.021,1.841-2.008-.352-2.605Z"/><path class="cls-17" d="m172.762,57.8c2.385,2.873,4.77,5.747,7.155,8.62.676,1.708,1.352,3.416,2.026,5.125-.642.029-1.282.057-1.922.086-1.85-2.789-5.134.353-7.155-1.727-.487-2.507,3.668-6.599-.472-7.148-3.245-.43-9.274.386-8.507,7.025-.519,1.139-1.038,2.279-1.557,3.418-9.881-19.135-28.214-1.925-45.13-8.461,1.06-2.318,2.858-3.604,5.415-3.526,11.776.361,22.344-2.795,31.349-10.594,2.132.133,4.292.339,5.483-2.046,7.878-1.881,7.259,8.483,13.315,9.226Z"/><path class="cls-87" d="m194.149,92.407c5.767,10.85,4.713,22.071,1.819,33.392.346-6.161-1.212-11.307-7.443-13.966-.503-.635-1.007-1.27-1.51-1.905-.097-8.275.038-16.583-3.561-24.346,5.796-1.872,4.259,4.062,6.405,6.075,1.373,1.288,1.841,6.052,4.29.751Z"/><path class="cls-91" d="m157.304,176.112c-2.921,1.584-5.842,3.167-8.762,4.751-.401-.63-.803-1.26-1.204-1.89,9.909-4.198,12.818-18.695,27.16-16.365-.39,7.53-8.88,5.142-11.995,9.665-.997,1.447-4.072,1.629-5.199,3.839Z"/><path class="cls-3" d="m194.149,92.407c-2.449,5.301-2.917.537-4.29-.751-2.146-2.013-.609-7.947-6.405-6.075-3.41-4.094,2.125-10.384-3.432-13.95.64-.028,1.28-.057,1.922-.086,6.087,5.776,10.25,12.674,12.206,20.862Z"/><path class="cls-76" d="m188.525,111.833c6.232,2.659,7.79,7.805,7.444,13.966-1.118,2.327-.526,6.277-4.357,6.085-1.7-.085-.99-2.841-1.185-4.433,1.906-3.917,3.485-7.787-1.54-10.707-.642-.559-1.282-1.12-1.923-1.679-.049-.505-.101-1.011-.156-1.517.573-.572,1.146-1.143,1.718-1.715Z"/><path class="cls-54" d="m56.048,176.242c-7.99-4.366-.711-2.46-6.182-9.095-.619-.751-20.007-15.227-18.657-15.929-2.617,1.362,1.955,10.109,2.273,11.03-.577.012-1.153.016-1.729.012-4.492-6.9-5.113-15.328-8.896-22.507-.491-.612-.982-1.225-1.474-1.837,2.273-1.95-1.641-24.77-1.28-29.526.541-7.125.309-22.594,6.271-28.088.021,4.631.069,9.261.053,13.892-.01,2.898,1.66,2.424,3.448,1.809-.337,5.268-2.598,10.33-1.68,15.731,1.593,11.191-3.199,22.541,6.336,33.646,6.79,7.907,13.148,15.878,21.458,22.21.739,2.879-1.821,5.781.06,8.652Z"/><path class="cls-30" d="m26.372,80.301c-5.96,5.494-5.729,20.964-6.27,28.089-.361,4.755,3.552,27.576,1.28,29.526-7.751-13.984-5.822-28.759-3.568-43.562,4.698-12.788,9.419-25.569,14.08-38.371,1.469-4.036,3.249-7.565,8.467-7.032-1.629,2.413-5.691,3.098-5.056,7.116-.169,6.776-4.591,12.313-5.509,18.872-2.065,1.198-3.266,2.948-3.423,5.362Z"/><path class="cls-99" d="m22.856,139.753c3.783,7.18,4.404,15.607,8.895,22.507,1.571,3.039,1.917,6.61,4.644,9.179,2.868,2.701,6.574,5.123,5.701,10.027-8.898-7.497-12.431-18.449-17.99-28.079-2.431-4.211-.761-9.086-1.249-13.634Z"/><path class="cls-84" d="m42.096,181.467c.873-4.904-2.834-7.326-5.701-10.027-2.727-2.569-3.073-6.14-4.644-9.179.577.003,1.153,0,1.73-.013,3.648,5.022,7.486,9.921,10.871,15.114,2.013,3.088,1.637,6.051-2.535,7.36.091-1.086.185-2.171.279-3.255Z"/><path class="cls-28" d="m63.176,184.82c.551,3.24-1.505,5.155-3.591,7.053-1.11.062-2.22.125-3.329.188-25.077,4.479-8.344-18.209,3.254-10.581,1.222,1.113,2.445,2.226,3.667,3.339Z"/><path class="cls-80" d="m63.176,184.82c-1.222-1.113-2.444-2.226-3.667-3.339.186-2.63-1.365-4.114-3.461-5.239-1.882-2.871.679-5.773-.06-8.653,0,0,.295-.286.295-.286,1.076.125,2.151.25,3.227.374,3.992,4.663,7.985,9.326,11.977,13.989.019,6.105,9.194,3.841,9.154,10-5.822-2.282-11.643-4.564-17.465-6.846Z"/><path class="cls-52" d="m28.194,111.734c-.918-5.401,1.344-10.464,1.681-15.731-.472-4.214.863-8.157,1.821-12.158.028-7.192,5.463-11.81,8.404-17.615,4.816-.869,8.952-4.68,14.287-3.284-1.203,1.741-2.405,3.483-3.608,5.224-2.383-.134-3.958.795-5.826,2.546-5.896,5.53-6.753,13.782-11.498,19.841.683,5.284-1.738,10.895,1.677,15.89-.765,4.671-1.53,9.342-2.326,14.207-2.669-2.61,1.18-8.228-4.612-8.922Z"/><path class="cls-93" d="m50.778,68.171c1.203-1.741,2.405-3.483,3.608-5.225,2.056-1.427,4.435-2.546,5.092-5.312,4.049-4.117,8.098-8.233,12.148-12.35,2.816-.917,5.599-2.052,8.668-1.326-.515,2.835-1.03,5.67-1.546,8.506-3.219,3.647-6.541,7.182-10.701,9.805-2.684,1.37-5.475,2.612-6.824,5.605-2.531.16-4.142,1.694-5.466,3.656-2.558.227-3.008-2.298-4.51-3.45,0,0-.47.09-.47.09Z"/><path class="cls-74" d="m159.447,48.573c-1.191,2.385-3.351,2.179-5.485,2.046-2.052-1.741-4.307-3.077-7.007-3.531-9.005-3.745-17.888-7.985-28.086-6.837.998-1.752,4.884-3.879-.492-4.863-1.911-.35-3.929-.121-5.898-.157-.295-.113-.595-.214-.899-.302.761-1.598,2.322-1.638,3.755-1.927,4.071.047,8.142.095,12.213.143,7.557,4.504,16.171,6.374,24.196,9.711,3.033,1.261,6.986,1.325,7.703,5.716Z"/><path class="cls-77" d="m35.304,56.068c-.635-4.018,3.428-4.704,5.056-7.116,6.787-5.268,13.345-10.874,20.444-15.681,4.494-3.043-.466-5.45.277-8.143,2.648-.837,5.105-.935,7.246,1.131-1.327,14.315-15.299,16.287-23.508,23.854-2.704,2.492-6.317,3.998-9.515,5.955Z"/><path class="cls-60" d="m80.293,43.959c-3.068-.727-5.851.408-8.667,1.325,8.109-12.106,19.474,1.127,31.297-3.609,3.634-1.456,2.011-6.638,2.781-7.026,2.236-1.129,3.689.898,5.876.282.304.088.603.188.898.302-1.365,3.421-2.73,6.842-4.095,10.263-5.834-.042-11.669-.084-17.503-.125-3.242-2.624-7.019-1.234-10.587-1.411Z"/><path class="cls-57" d="m31.695,83.845c-.958,4-2.293,7.944-1.821,12.158-1.789.615-3.459,1.088-3.449-1.81.016-4.63-.032-9.261-.053-13.892.156-2.415,1.357-4.164,3.422-5.363-.396,2.174-.684,4.376-1.211,6.519-.817,3.327.784,3.273,3.111,2.387Z"/><path class="cls-48" d="m59.478,57.634c-.657,2.766-3.036,3.885-5.092,5.312-5.335-1.396-9.471,2.415-14.287,3.284,4.266-7.802,13.551-4.308,19.379-8.596Z"/><path class="cls-69" d="m159.447,48.573c-.718-4.391-4.671-4.455-7.703-5.716-8.025-3.337-16.639-5.207-24.196-9.711,1.226-5.56,51.648,13.83,45.216,24.653-6.058-.743-5.439-11.107-13.317-9.226Z"/><path class="cls-51" d="m186.963,115.064c.641.56,1.282,1.121,1.923,1.68-10.921,12.492-18.687,27.627-29.074,40.632-9.137,11.44-19.587,19.069-25.222,32.518-.655-.373-1.311-.746-1.967-1.119.096-3.582.193-7.163.289-10.745,7.699-7.117,14.773-14.914,23.382-21.044,2.864-2.039,5.036-4.748,4.412-8.707.027-.557.057-1.113.09-1.67,3.45-4.669,6.899-9.338,10.349-14.007,2.965-7.924,6.577-15.265,15.818-17.537Z"/><path class="cls-56" d="m132.623,188.774c.656.373,1.312.747,1.967,1.119.562.177,1.125.354,1.688.531,1.37,1.351,3.669,2.369,1.765,4.899,0,0-.028.019-.028.02-6.261,1.164-11.099-3.521-17.441-3.779-12.389-.503-24.609-1.863-36.656,2.17-1.092-.689-2.185-1.377-3.277-2.067.04-6.16-9.135-3.896-9.151-10.002.003-.002.486-.352.484-.35,6.304-.929,8.485,7.037,13.349,7.738,5.603.808,9.945-1.943,15.576-2.184,5.591-.239,29.341,9.302,25.11-3.868,2.781,1.265,3.209,5.221,6.613,5.774Z"/><path class="cls-33" d="m138.043,195.324c1.904-2.53-.395-3.548-1.765-4.899,5.234-.74,10.467-1.482,15.7-2.225,2.193.595,3.222,1.583.352,2.603-4.703,1.673-9.519,3.03-14.287,4.52Z"/><path class="cls-33" d="m83.918,193.734c12.047-4.032,24.267-2.673,36.656-2.17,6.342.257,11.18,4.942,17.441,3.779-3.731,2.66-7.205,4.908-11.816.94-1.529-1.316-4.795-.616-7.267-.839-10.685-2.84-21.063-.163-31.483,1.749-1.177-1.153-2.354-2.306-3.531-3.46Z"/><path class="cls-16" d="m87.449,197.194c10.42-1.912,20.798-4.589,31.483-1.749-10.413,2.036-20.739,5.66-31.483,1.749Z"/><path class="cls-66" d="m162.329,73.199c.519-1.139,1.038-2.279,1.559-3.418,2.519-2.855,4.955-2.044,7.361.161q3.349,8.423-3.918,8.154c14.686,22.337-10.574,33.111-15.173,52.553-.616.645-1.231,1.288-1.846,1.93-.005-.528-.04-1.053-.103-1.577-14.499-14.948,36.826-47.132-2.013-53.996-8.767-1.55-20.996-3.911-28.803-.823-4.655,1.841-23.618,19.971-23.237,4.257,1.807.194,3.6,2.673,5.425.034,7.72.679,9.735-5.346,15.621-7.979,5.856-2.62,11.993-2.582,18.251-2.539,6.787.047,25.14,7.808,26.875,3.242Z"/><path class="cls-42" d="m152.159,130.648c4.598-19.439,29.858-30.213,15.172-52.551q7.267.268,3.918-8.155c.538-.032,1.077-.045,1.616-.038,2.021,2.081,5.304-1.061,7.155,1.727,5.558,3.566.023,9.856,3.433,13.95,3.599,7.763,3.465,16.072,3.561,24.346-1.126-1.208-2.252-2.416-3.379-3.623-2.843-5.018-.951-11.09-3.188-17.406-5.48,5.281-3.491,10.887-3.712,15.999-.161,1.075-.321,2.151-.482,3.226-1.912,3.832-4.041,7.167-7.956,9.699-4.736,3.064-8.612,7.455-12.86,11.272-1.092.518-2.186,1.035-3.279,1.553Z"/><path class="cls-72" d="m146.955,47.089c2.7.454,4.955,1.789,7.007,3.531-9.004,7.798-19.571,10.954-31.348,10.593-2.557-.078-4.355,1.208-5.416,3.525,0,0-.108-.073-.107-.073-3.664,4.072-8.525,6.27-13.639,9.661.691-2.772,1.098-4.404,1.504-6.036,7.844-2.775,10.192-8.401,8.858-16.286-.734-4.339-.247-8.625,3.301-11.918-.141.387-.142.773-.001,1.16,3.194,2.17-6.53,12.504,5.681,8.975,2.773,10.58,16.477,1.182,24.158-3.132Z"/><path class="cls-14" d="m162.329,73.199c-1.736,4.565-20.088-3.196-26.875-3.242-6.259-.043-12.396-.081-18.251,2.539-5.886,2.634-7.901,8.658-15.622,7.978.993-4.879,5.768-5.193,9.046-6.741,4.212-1.989,6.593-4.403,6.465-9.068,0,0,.107.072.108.073,16.916,6.537,35.249-10.673,45.13,8.461Z"/><path class="cls-78" d="m172.866,69.904c-.539-.007-1.078.006-1.616.038-2.405-2.204-4.842-3.015-7.361-.16-.769-6.64,5.26-7.455,8.505-7.026,4.141.548-.015,4.641.472,7.148Z"/><path class="cls-32" d="m155.438,129.094c4.248-3.817,8.125-8.208,12.861-11.271,3.914-2.532,6.043-5.867,7.957-9.699.314,2.897,1.957,3.914,4.722,3.317,2.803-.605,2.303-2.784,2.247-4.747,0,0,.413-.39.413-.39,1.125,1.208,2.251,2.416,3.377,3.624.504.635,1.008,1.27,1.511,1.905-.573.572-1.146,1.143-1.718,1.714-5.915-.995-10.314,1.015-14.115,5.805-3.69,4.651-7.743,9.209-13.457,11.683-1.513-.167-2.974-.432-3.797-1.942Z"/><path class="cls-6" d="m159.236,131.036c5.713-2.475,9.766-7.033,13.456-11.684,3.801-4.791,8.201-6.8,14.115-5.805.054.506.106,1.012.155,1.517-9.241,2.271-12.853,9.612-15.817,17.536-6.609,2.338-10.969,6.335-10.35,14.007-.033.556-.063,1.113-.09,1.67-.571.002-1.143-.008-1.714-.028-.043-1.366-.331-2.61-1.662-3.337.012-4.045.024-8.091.035-12.136.624-.58,1.247-1.161,1.871-1.741Z"/><path class="cls-80" d="m28.194,111.734c5.791.694,1.943,6.312,4.612,8.922.797-4.865,1.562-9.536,2.327-14.206-.452-6.842,5.608-11.088,6.884-17.242h6.975c-7.944,2.234-14.021,28.363-14.268,36.15-.638,20.109,16.287,25.457,21.56,41.946,0,0-.294.285-.295.286-8.311-6.331-14.669-14.302-21.459-22.21-9.535-11.105-4.743-22.455-6.336-33.646Z"/><path class="cls-37" d="m56.284,167.304c-5.274-16.489-22.198-21.837-21.56-41.946.247-7.787,6.324-33.916,14.268-36.15-2.325,0-4.65,0-6.974-.001-2.854.45-5.708.901-8.563,1.352,4.745-6.059,5.601-14.312,11.498-19.841,1.867-1.751,3.443-2.681,5.826-2.546,0,0,.47-.09.467-.09-2.767,3.649-6.205,6.998-8.02,11.069-.945,2.119-6.055,8.084,2.677,7.934.995-.007,1.99-.014,2.985-.021,6.248,2.557,6.688,5.894,2.525,11.274-5.73,7.407-9.682,15.785-9.333,25.563-4.342,7.379-.585,13.422,3.076,19.599,4.3,7.256,11.542,12.452,14.389,20.699-.011,1.16-.023,2.319-.034,3.479-1.076-.125-2.151-.25-3.227-.374Z"/><path class="cls-79" d="m59.511,167.678c.011-1.16.023-2.319.034-3.481,5.117,4.855,13.391,5.115,17.237,11.821-3.572-.02-5.445,1.499-4.806,5.295,0,0-.483.35-.486.352-3.995-4.661-7.987-9.324-11.98-13.987Z"/><path class="cls-95" d="m33.454,90.559c2.855-.451,5.709-.902,8.563-1.352-1.278,6.154-7.337,10.401-6.885,17.243-3.416-4.996-.995-10.607-1.678-15.891Z"/><path class="cls-94" d="m68.047,62.269c4.159-2.623,7.481-6.158,10.701-9.805,4.096-.52,5.932-5.459,10.376-5.298,2.86.013,5.784.419,8.567-.036,7.366-1.204,9.918,2.044,9.037,8.951.607,4.216-3.197,5.962-4.963,8.849-1.225-.002-2.451-.004-3.676-.006-.618-.071-1.235-.142-1.853-.212-1.752-.003-3.504-.007-5.256-.01-7.305,3.313-14.921.583-22.377.996-1.934.107-.235-2.257-.557-3.43Z"/><path class="cls-24" d="m42.08,123.9c-.349-9.778,3.603-18.156,9.333-25.563,4.162-5.38,3.722-8.717-2.524-11.273,5.169-2.901,3.381-7.542,3.186-12.499-3.689,3.867-7.819,6.745-6.171,12.519-8.732.15-3.622-5.815-2.677-7.934,1.815-4.071,5.253-7.42,8.02-11.069,1.504,1.152,1.955,3.676,4.513,3.45.176.543.248,1.099.214,1.668-3.109,3.798-2.082,8.072-1.421,12.304,1.062,1.244,2.124,2.489,3.186,3.733-.033.603-.067,1.207-.1,1.81-2.873,2.336-.481,4.483.24,6.69-3.664,9.687-9.828,17.867-15.797,26.164Z"/><path class="cls-97" d="m55.971,73.199c.034-.569-.038-1.125-.214-1.668,1.324-1.962,2.935-3.496,5.466-3.656-.027,3.277.865,5.488,4.846,5.54,9.41.122,17.706-2.673,24.912-8.712,1.752.003,3.504.007,5.256.01-1.325,9.202-37.642,23.845-40.265,8.486Z"/><path class="cls-58" d="m90.981,64.703c-7.206,6.039-15.502,8.834-24.912,8.712-3.98-.052-4.872-2.263-4.846-5.54,1.349-2.994,4.139-4.235,6.824-5.605.322,1.173-1.377,3.537.557,3.43,7.456-.413,15.072,2.317,22.377-.996Z"/><path class="cls-22" d="m89.124,47.166c-4.444-.161-6.28,4.778-10.376,5.298.516-2.836,1.031-5.671,1.546-8.506,3.567.178,7.344-1.212,10.586,1.413-.585.599-1.17,1.197-1.756,1.796Z"/><path class="cls-68" d="m146.955,47.089c-7.681,4.314-21.385,13.713-24.158,3.132-12.211,3.529-2.488-6.805-5.681-8.976.584-.331,1.169-.663,1.753-.994,10.198-1.148,19.081,3.092,28.086,6.837Z"/><path class="cls-12" d="m118.869,40.252c-.584.331-1.169.662-1.753.994-.14-.387-.14-.773.002-1.16-3.716-2.64-4.01.7-5.203,2.843-1.968,3.535-.681,7.985-3.331,11.284-.067-2.906-.134-5.812-.201-8.718,1.365-3.421,2.73-6.842,4.095-10.263,1.97.036,3.987-.193,5.899.157,5.377.984,1.491,3.111.492,4.863Z"/><path class="cls-23" d="m108.382,45.495c.067,2.906.134,5.812.201,8.719-.618.623-1.237,1.246-1.855,1.868.881-6.907-1.671-10.156-9.037-8.952-2.783.455-5.707.049-8.567.036.585-.598,1.17-1.197,1.755-1.796,5.834.041,11.668.083,17.503.125Z"/><path class="cls-8" d="m158.991,148.249c.571.022,1.143.032,1.714.029.624,3.959-1.549,6.668-4.412,8.707-8.609,6.129-15.682,13.927-23.383,21.043,0,0-.186-.155-.185-.154-.426-4.782,2.015-7.542,5.553-10.741,6.922-6.26,15.617-10.644,20.712-18.885Z"/><path class="cls-8" d="m132.623,188.774c-3.404-.553-3.832-4.508-6.614-5.773-.074-.5-.136-1.002-.187-1.506-1.028-7.545,5.482-.741,6.903-3.621,0,0,.185.154.186.155-.095,3.583-.192,7.164-.288,10.746Z"/><path class="cls-8" d="m160.795,146.608c-.619-7.672,3.741-11.669,10.35-14.007-3.45,4.669-6.9,9.338-10.35,14.007Z"/><path class="cls-86" d="m125.821,181.495c.051.504.113,1.006.187,1.506,4.231,13.169-19.518,3.628-25.11,3.867-5.631.241-9.973,2.992-15.576,2.184-4.864-.701-7.045-8.666-13.349-7.738-.637-3.797,1.235-5.317,4.81-5.295.002.002.369.28.367.279.061,4.363,3.357,4.38,6.471,5.469,4.551,1.592,4.887.102,3.768-3.588,3.25,1.769,30.907,2.463,31.489-1.948.909-1.739,1.817-3.478,2.831-5.42,1.215,2.498-.076,5.453,2.377,7.177.578,1.169,1.156,2.337,1.734,3.506Z"/><path class="cls-34" d="m150.209,131.003c.063.524.098,1.05.103,1.578-1.841,2.293-3.682,4.584-5.521,6.877-4.959,5.164-14.48,4.07-17.098,12.447-.106,2.939-1.725,2.65-3.65,1.709-.627-1.105-1.253-2.21-1.88-3.314-10.465-10.492-11.442-4.381-22.087.555-3.796,1.76-21.373,2.65-16.207,9.712.063,2.326.126,4.651.188,6.977-.82,1.685-2.317,3.167-1.596,5.314.552,1.058,1.104,2.116,1.657,3.174-2.882,2.535-3.858.229-3.391-1.869,1.932-8.687-2.893-13.179-9.697-16.542-4.188-2.07-7.006-5.395-7.729-9.804-1.25-7.627-10.295-8.516-12.444-15.173,2.164-10.186,2.381-3.325,9.225-10.612,2.567-2.732,5.132-13.413,9.924-13.747l.01.007c8.569,12.147-25.243,23.594.216,35.84,20.728,9.97,35.811-16.207,55.859.518,5.147-1.96,10.097-4.249,13.938-8.379,3.256-2.022,5.327-6.329,10.181-5.268Z"/><path class="cls-63" d="m150.209,131.003c-4.854-1.061-6.925,3.246-10.182,5.267-.828-1.401-2.151-1.803-3.664-1.828,9.249-9.813,17.302-24.594,16.268-36.324-1.226-13.914-13.33-21.931-26.742-14.322-.459-1.685-1.155-5.306-2.951-3.23-8.56,9.894-22.433,9.475-31.908,17.273-6.963,3.568-16.323,2.325-21.014,10.454,0,0-.01-.007-.01-.008-1.149-1.761-2.298-3.521-3.447-5.281,3.317-1.015,6.089-3.426,8.764-5.175,6.474-4.233,18.273-3.391,17.323-15.801.753-1.551,2.271-1.564,3.667-1.822l-.159.235c-.381,15.713,18.583-2.416,23.238-4.257,7.807-3.088,20.036-.726,28.803.823,38.838,6.865-12.486,39.048,2.013,53.996Z"/><path class="cls-38" d="m144.789,139.457c1.841-2.292,3.682-4.583,5.523-6.876.615-.644,1.23-1.286,1.846-1.931,1.095-.52,2.188-1.037,3.28-1.555.823,1.509,2.284,1.774,3.796,1.941-.623.581-1.246,1.161-1.87,1.74-2.608,1.532-2.525,4.466-3.222,6.817-3.138,10.589-14.635,16.482-24.648,12.376-.001-.001-.283-.344-.283-.344,4.161-2.167,8.135-4.626,12.903-5.559,3.662-.717,5.401-2.945,2.675-6.608Z"/><path class="cls-13" d="m98.089,64.926c1.225.002,2.451.004,3.676.006-.428,2.536,1.325,3.002,3.193,3.359-.407,1.632-.813,3.263-1.504,6.036,5.113-3.391,9.975-5.589,13.639-9.661.128,4.665-2.253,7.079-6.465,9.068-3.279,1.548-8.053,1.862-9.046,6.741-1.824,2.64-3.617.161-5.424-.033,0,0,.158-.235.158-.234-.018-.615-.036-1.231-.053-1.847-.102-1.386-.514-2.595-1.864-3.27,3.825-2.447,3.662-6.34,3.692-10.164Z"/><path class="cls-67" d="m176.736,104.898c.22-5.112-1.769-10.718,3.711-15.999,2.237,6.317.345,12.388,3.188,17.406.002-.001-.411.388-.41.387-2.027-1.087-3.432-4.431-6.49-1.794Z"/><path class="cls-10" d="m176.736,104.898c3.058-2.637,4.463.708,6.49,1.794.054,1.965.554,4.144-2.249,4.749-2.765.597-4.408-.42-4.722-3.317.16-1.075.32-2.151.481-3.226Z"/><path class="cls-75" d="m104.957,68.29c-1.868-.357-3.62-.823-3.193-3.359,1.766-2.887,5.57-4.633,4.963-8.849.618-.622,1.237-1.245,1.855-1.868,2.651-3.299,1.363-7.749,3.331-11.285,1.193-2.143,1.486-5.484,5.203-2.843-3.548,3.293-4.035,7.579-3.301,11.918,1.334,7.885-1.015,13.511-8.858,16.286Z"/><path class="cls-42" d="m129.496,151.971c10.012,4.105,21.509-1.788,24.647-12.377.697-2.351.614-5.286,3.222-6.817-.011,4.047-.023,8.092-.035,12.136-7.962,10.753-21.093,15.858-29.25,26.72-1.507,2.006-4.167,3.119-3.992,6.357-2.453-1.724-1.162-4.679-2.377-7.177-1.014,1.941-1.923,3.681-2.831,5.419-5.519-3.617-11.73-.843-17.527-1.893.401-1.87,1.381-3.516,3.426-3.206,5.826.883,8.21-3.077,10.652-7.091,12.469,1.587,13.765,2.958,14.066-12.072Z"/><path class="cls-26" d="m124.087,177.99c-.175-3.239,2.485-4.351,3.992-6.357,8.157-10.861,21.288-15.966,29.25-26.72,1.331.728,1.619,1.972,1.662,3.338-5.095,8.24-13.791,12.624-20.713,18.884-3.537,3.199-5.979,5.959-5.553,10.741-1.423,2.88-7.933-3.924-6.905,3.62-.578-1.168-1.156-2.337-1.734-3.506Z"/><path class="cls-86" d="m42.08,123.9c5.969-8.297,12.133-16.477,15.797-26.163,2.371,3.231,4.055,6.572,1.701,10.562-11.223,9.332-16.485,17.677-9.953,30.917,4.114,8.338,31.101,29.356,27.528,37.083,0,0-.367-.278-.369-.28-3.849-6.708-12.122-6.968-17.239-11.823-2.848-8.245-10.09-13.441-14.39-20.698-3.66-6.178-7.417-12.22-3.076-19.599Z"/><path class="cls-41" d="m45.902,87.084c-1.648-5.774,2.482-8.652,6.171-12.519.195,4.957,1.983,9.599-3.186,12.499-.996.006-1.991.013-2.986.02Z"/><path class="cls-43" d="m98.089,64.926c-.03,3.823.133,7.717-3.692,10.164-8.66,3.42-18.322,4.317-26.272,9.285-4.74,2.962-8.867,2.953-13.574,1.129-.661-4.232-1.688-8.507,1.421-12.304,2.622,15.359,38.939.716,40.264-8.486.618.071,1.235.142,1.853.213Z"/><path class="cls-90" d="m59.578,108.299c2.354-3.99.67-7.331-1.701-10.562-.721-2.207-3.112-4.355-.239-6.692,1.848,2.201,3.695,4.403,5.542,6.606,1.126,1.785,2.253,3.569,3.379,5.354,1.149,1.76,2.298,3.52,3.447,5.281-4.792.335-7.358,11.015-9.924,13.748-6.844,7.287-7.061.426-9.225,10.612-1.562-4.229-6.202-8.173,2.084-11.756,3.31-1.431,8.222-6.402,6.637-12.59Z"/><path class="cls-98" d="m54.551,85.503c4.707,1.824,8.834,1.833,13.574-1.129,7.95-4.967,17.611-5.865,26.272-9.285,1.349.675,1.761,1.884,1.863,3.273-9.73,2.267-18.596,6.836-27.11,11.668-4.791,2.718-7.778,1.925-11.413-.794-1.062-1.244-2.124-2.489-3.186-3.733Z"/><path class="cls-39" d="m57.737,89.236c3.634,2.719,6.622,3.512,11.413.794,8.515-4.832,17.38-9.4,27.11-11.668.018.613.036,1.229.054,1.845-1.396.257-2.914.27-3.667,1.822-8.567,7.571-19.476,10.732-29.467,15.622-1.847-2.202-3.694-4.405-5.542-6.606.032-.602.066-1.206.099-1.809Z"/><path class="cls-45" d="m59.578,108.299c1.585,6.188-3.327,11.159-6.637,12.59-8.286,3.583-3.646,7.527-2.084,11.756,2.149,6.657,11.194,7.546,12.444,15.173.723,4.409,3.54,7.734,7.729,9.804,6.804,3.362,11.628,7.855,9.697,16.542-.467,2.097.51,4.404,3.391,1.869,1.091.716,2.182,1.432,3.273,2.147,1.119,3.69.784,5.18-3.768,3.588-3.114-1.089-6.41-1.106-6.471-5.469,3.575-7.727-23.413-28.744-27.526-37.082-6.532-13.24-1.27-21.585,9.953-30.917Z"/><path class="cls-44" d="m87.39,178.18c-1.091-.716-2.182-1.431-3.273-2.147-.552-1.059-1.104-2.117-1.657-3.175,6.44-1.325,12.392,3.555,18.891,1.481,5.797,1.051,12.008-1.723,17.528,1.894-.583,4.411-28.239,3.717-31.489,1.948Z"/><path class="cls-90" d="m70.016,108.294c4.691-8.129,14.051-6.885,21.013-10.454-.698,8.998-15.728,11.046-14.998,23.349-9.852,3.376-3.579,24.895,9.733,20.198,9.528-4.043,19.194-7.623,29.58-8.783,6.106-.037,11.318,4.319,17.569,3.571-2.299,2.806-7.15,3.561-6.823,8.477-20.047-16.725-35.13,9.453-55.859-.518-25.459-12.246,8.353-23.693-.216-35.84Z"/><path class="cls-11" d="m84.057,167.544c-.063-2.326-.126-4.651-.187-6.977,3.115-5.097,5.427,2.439,7.903.625,9.089-6.656,21.92-2.694,30.39-10.892.627,1.105,1.253,2.21,1.88,3.314-4.052,3.465-8.105,6.93-12.158,10.395-3.136.209-7.204-.757-9.232.849-5.944,4.707-12.063,4.2-18.596,2.687Z"/><path class="cls-9" d="m122.163,150.3c-8.47,8.198-21.301,4.236-30.39,10.892-2.476,1.813-4.788-5.722-7.903-.625-5.167-7.062,12.41-7.952,16.206-9.712,10.645-4.936,11.622-11.047,22.087-.555Z"/><path class="cls-20" d="m84.057,167.544c6.533,1.513,12.652,2.02,18.596-2.687,2.028-1.606,6.096-.64,9.233-.848,1.181.012,2.363.023,3.544.035-2.442,4.014-4.825,7.974-10.652,7.091-2.045-.31-3.025,1.336-3.426,3.206-6.499,2.073-12.452-2.807-18.892-1.482-.72-2.147.776-3.629,1.597-5.314Z"/><path class="cls-38" d="m115.43,164.043c-1.181-.011-2.362-.023-3.544-.035,4.053-3.465,8.105-6.93,12.157-10.395,1.924.942,3.544,1.231,3.649-1.709.509-.077,1.015-.17,1.518-.28,0,0,.282.343.283.344-.299,15.032-1.595,13.661-14.064,12.074Z"/><path class="cls-29" d="m129.211,151.625c-.503.11-1.009.203-1.518.28,2.618-8.376,12.14-7.283,17.098-12.447,2.724,3.662.985,5.891-2.677,6.607-4.768.933-8.742,3.392-12.903,5.559Z"/><path class="cls-66" d="m126.091,144.651c-.327-4.916,4.524-5.671,6.822-8.477,1.149-.577,2.3-1.154,3.45-1.73,1.513.024,2.836.427,3.664,1.828-3.839,4.131-8.788,6.42-13.936,8.38Z"/><path class="cls-59" d="m85.765,141.387c-13.313,4.697-19.585-16.823-9.733-20.198-.73-12.303,14.3-14.351,14.998-23.349,9.476-7.798,23.349-7.378,31.909-17.273,1.796-2.076,2.493,1.545,2.951,3.23-.549,4.119,1.566,6.486,5.18,7.871,3.598,1.379,5.745,3.734,5.266,7.846-2.427-2.037-4.708-4.287-7.312-6.064-4.733-3.23-7.913-3.037-8.453,3.868-.84,10.726-1.027,10.712-10.941,6.285-4.588-2.048-18.616,2.276-19.641,6.411-2.353,9.495-4.255,19.101-6.42,28.644-.462,2.038.617,2.503,2.198,2.728Z"/><path class="cls-5" d="m136.334,99.514c.479-4.112-1.668-6.468-5.266-7.846-3.614-1.385-5.728-3.752-5.18-7.871,13.412-7.609,25.516.408,26.742,14.322,1.034,11.73-7.019,26.511-16.268,36.324-1.15.577-2.3,1.154-3.45,1.731-6.25.749-11.462-3.608-17.568-3.57,5.74-4.933,11.965-9.247,17.753-14.165,10.205-8.672,11.105-8.651,3.236-18.924Z"/><path class="cls-82" d="m63.18,97.651c9.991-4.89,20.9-8.051,29.467-15.622.95,12.41-10.85,11.568-17.323,15.8-2.675,1.749-5.447,4.161-8.764,5.175-1.126-1.785-2.253-3.569-3.379-5.354Z"/><path class="cls-89" d="m136.334,99.514c7.869,10.274,6.969,10.253-3.236,18.924-5.788,4.919-12.014,9.232-17.753,14.165-10.386,1.16-20.052,4.74-29.58,8.783-1.58-.225-2.66-.69-2.197-2.728,2.165-9.543,4.066-19.149,6.42-28.644,1.025-4.135,15.053-8.46,19.641-6.411,9.914,4.426,10.102,4.441,10.941-6.285.541-6.905,3.72-7.098,8.453-3.868,2.604,1.777,4.885,4.027,7.312,6.064Z"/></svg>