<?xml version="1.0" encoding="UTF-8"?><svg id="Layer_1" xmlns="http://www.w3.org/2000/svg" viewBox="0 0 168.54 232.277"><defs><style>.cls-1{fill:#566370;}.cls-2{fill:#93a1aa;}.cls-3{fill:#cbd4de;}.cls-4{fill:#7e8a9a;}.cls-5{fill:#64717c;}.cls-6{fill:#d7dbe4;}.cls-7{fill:#abb1bb;}.cls-8{fill:#b3bbc7;}.cls-9{fill:#bcc4ca;}.cls-10{fill:#9e9eac;}.cls-11{fill:#979aa6;}.cls-12{fill:#76828c;}.cls-13{fill:#abbcc9;}.cls-14{fill:#84909b;}.cls-15{fill:#d0d8e3;}.cls-16{fill:#a3b4bc;}.cls-17{fill:#a8b1b9;}.cls-18{fill:#919da8;}.cls-19{fill:#c5cdd6;}.cls-20{fill:#9c9dac;}.cls-21{fill:#727086;}.cls-22{fill:#75808c;}.cls-23{fill:#9198a2;}.cls-24{fill:#bdbccb;}.cls-25{fill:#d5e0e8;}.cls-26{fill:#8f97a3;}.cls-27{fill:#a7b2c2;}.cls-28{fill:#dbe0ea;}.cls-29{fill:#cecad5;}.cls-30{fill:#b4c1ca;}.cls-31{fill:#818c98;}.cls-32{fill:#a8aeba;}.cls-33{fill:#686f7d;}.cls-34{fill:#cdd5e2;}.cls-35{fill:#a9b8c4;}.cls-36{fill:#8f96a2;}.cls-37{fill:#bac5cf;}.cls-38{fill:#8f9ba5;}.cls-39{fill:#989aa5;}.cls-40{fill:#dce1e7;}.cls-41{fill:#8f9dab;}.cls-42{fill:#6f7d8b;}.cls-43{fill:#97a2ac;}.cls-44{fill:#dfe2ec;}.cls-45{fill:#847f90;}.cls-46{fill:#e7eaf1;}.cls-47{fill:#858294;}.cls-48{fill:#d3d7e0;}.cls-49{fill:#b1bfcb;}.cls-50{fill:#727e8b;}.cls-51{fill:#abb6c1;}.cls-52{fill:#b5b6c6;}.cls-53{fill:#8b98a7;}.cls-54{fill:#a3a8b3;}.cls-55{fill:#f7f8fa;}.cls-56{fill:#62707d;}.cls-57{fill:#ebedf1;}.cls-58{fill:#ada8be;}.cls-59{fill:#79858f;}</style></defs><path class="cls-24" d="m77.284,228.9c-1.023,1.126-2.046,2.251-3.07,3.377-2.595-1.12-5.191-2.239-7.786-3.359.039-7.668.079-15.335.118-23.003.593-1.877,1.187-3.755,1.78-5.632-.588-8.923-1.176-17.846-1.765-26.769-.566-1.981-1.131-3.962-1.697-5.943.882-.507,2.205-1.66,2.57-1.411,1.845,1.258,3.441,2.881,5.125,4.376.067,11.761.134,23.523.201,35.284-.931,6.154-1.861,12.308-3.045,20.132,3.992-2.492,5.787-3.612,7.582-4.732-.004,2.56-.009,5.119-.013,7.679Z"/><path class="cls-47" d="m79.212,218.163c-.014,2.558-.028,5.117-.042,7.675-.628,1.021-1.257,2.042-1.885,3.062.004-2.56.009-5.119.013-7.679-1.512-5.133-3.025-10.267-4.537-15.4-.067-11.761-.134-23.523-.2-35.284,1.612,1.029,3.223,2.058,4.833,3.087-.064.983-.128,1.966-.192,2.949-.905,2.613-1.81,5.226-2.715,7.84-.005,2.032-.011,4.064-.016,6.096.508,2.545,1.016,5.09,1.525,7.635,1.073,6.673,2.145,13.346,3.218,20.019Z"/><path class="cls-20" d="m64.865,167.572c-4.566-1.649-9.133-3.299-13.699-4.948.485-1.44.97-2.88,1.456-4.32,17.482,2.936,34.964,5.872,52.446,8.809-6.024.603-12.132.788-18.04,1.97-3.379.676-6.433,2.974-9.633,4.541-1.611-1.029-3.222-2.058-4.833-3.087-1.684-1.495-3.28-3.118-5.126-4.376-.365-.249-1.689.904-2.57,1.411Z"/><path class="cls-10" d="m72.761,205.821c1.512,5.133,3.025,10.267,4.537,15.4-1.795,1.12-3.589,2.24-7.582,4.732,1.183-7.824,2.114-13.978,3.045-20.132Z"/><path class="cls-52" d="m43.592,163.021c-.976,3.524-1.951,7.048-2.927,10.571,1.383,8.669,2.765,17.338,4.148,26.006-.972,1.142-1.944,2.284-2.916,3.426-7.927,2.629-7.471-3.893-7.572-7.883-.206-8.168.698-16.364,1.145-24.548-.454-4.12-.907-8.24-1.361-12.36-1.68-6.088-5.233-9.662-11.998-8.926,1.129-1.063,2.258-2.126,2.903-2.735-1.63-3.135-3.054-5.875-4.478-8.615,5.506,5.255,11.013,10.51,16.519,15.765,2.179,3.1,4.358,6.199,6.536,9.299Z"/><path class="cls-54" d="m132.866,191.949c-1.931,2.627-3.861,5.254-5.792,7.881-.832-.246-1.663-.491-2.495-.737-.3-4.284-.6-8.567-.9-12.851.472-1.619.944-3.238,1.417-4.856-.021-4.668-.042-9.336-.063-14.005-3.054-7.966-9.425-1.874-14.021-3.304-6.593-3.6-12.275-2.88-19.837-2.88,1.666-1.8,2.972-3.211,4.279-4.622-.163-.705-.327-1.41-.49-2.115-15.521,3.648-30.428,3.364-44.014-5.373,1.604-.563,3.208-1.125,4.811-1.687,11.787,1.535,23.573,3.07,35.36,4.606,6.734.558,13.467,1.117,20.2,1.675-.785.887-1.571,1.773-4.13,4.662,6.349-.732,10.546-1.216,14.743-1.7,4.606-1.032,9.212-2.063,13.818-3.095-.071,1.665-.143,3.33-.214,4.995-.882.429-1.763.859-2.645,1.288-1.012,1.038-2.953,2.132-2.894,3.104.596,9.732-4.138,19.936,2.391,29.159,0,0,.477-.144.477-.144Z"/><path class="cls-36" d="m43.592,163.021c-2.179-3.1-4.358-6.199-6.535-9.3,1.677-.12,3.352-.238,5.027-.357.966-.006,1.932-.011,2.898-.017,2.547,1.653,5.094,3.306,7.64,4.958-.485,1.44-.97,2.88-1.456,4.32-2.525.132-5.049.264-7.574.396Z"/><path class="cls-48" d="m52.621,158.305c-2.547-1.653-5.094-3.306-7.64-4.957-1.382-1.579-2.915-3.06-4.05-4.801-.325-.499.502-1.748.801-2.653,3.072,1.065,6.144,2.13,9.216,3.194,13.587,8.735,28.494,9.019,44.016,5.371.163.705.327,1.41.49,2.115-1.306,1.411-2.613,2.823-4.279,4.622,7.561,0,13.244-.72,19.837,2.88-1.981,1.012-3.963,2.025-5.944,3.037-17.482-2.937-34.964-5.873-52.446-8.809Z"/><path class="cls-45" d="m132.891,159.831c-.144,7.261-.287,14.522-.432,21.785-.024,3.494-.047,6.986-.07,10.478-6.53-9.223-1.795-19.427-2.391-29.159-.06-.972,1.881-2.066,2.894-3.104Z"/><path class="cls-3" d="m41.732,145.894c-.299.905-1.126,2.154-.801,2.653,1.135,1.741,2.668,3.222,4.05,4.801-.966.005-1.932.01-2.899.017-8.319-9.825-17.23-18.955-29.514-24.301,2.656,2.964,5.312,5.929,7.967,8.893,1.424,2.74,2.848,5.48,4.478,8.615-.646.608-1.775,1.672-2.904,2.734-.061.382-.174.747-.339,1.097-1.914-2.564-3.827-5.128-5.741-7.692-1.482-2.527-2.832-5.144-4.477-7.56-2.506-3.68-5.217-7.22-7.841-10.819,1.513-1.347,3.026-2.694,3.023-2.691,4.252-2.816,5.551,6.368,8.988-.342,2.565,1.544,5.129,3.088,7.694,4.632,3.084,2.545,6.168,5.089,9.252,7.634,3.021,4.11,6.042,8.219,9.063,12.329Z"/><path class="cls-59" d="m20.536,137.957c-2.656-2.964-5.312-5.929-7.967-8.893,12.283,5.346,21.195,14.476,29.514,24.301-1.674.118-3.349.237-5.026.356-5.508-5.254-11.014-10.509-16.521-15.763Z"/><path class="cls-58" d="m21.772,150.404c-.073.968-.147,1.935-.221,2.902-.378,2.835-.326,5.829-1.295,8.445-.587,1.585-2.757,2.584-4.216,3.846-.173-6.542-.347-13.084-.52-19.627.17-1.086.34-2.173.511-3.259,1.914,2.564,3.827,5.128,5.741,7.692Z"/><path class="cls-37" d="m91.119,152.006c-11.787-1.535-23.573-3.07-35.36-4.606,0,0,.033-.068.033-.067-1.675-2.319-3.349-4.639-5.591-7.745,23.267,0,46.728,7.867,68.53-4.441,10.774-6.082,19.706-18.025,24.697-29.312,6.407-14.491,1.099-2.65,1.097-13.027-.001-6.172-9.591-4.291-1.052-11.533,2.644,1.074,5.289,2.148,8.117,3.296,2.677-8.904,5.879-16.699,1.101-24.793-2.067-5.66-4.134-11.32-6.201-16.98.127-.543.254-1.086.381-1.629,23.911,14.593,7.881,48.619,9.61,69.649,2.45-3.598,3.941-5.787,5.431-7.976-1.026,5.347-2.053,10.694-3.39,17.66,3.074-4.479,5.368-7.836,9.328-11.588.231,2.096.461,4.192.692,6.288-1.227,2.963-2.454,5.927-3.68,8.89-3.066,2.627-6.132,5.253-9.198,7.88-.989.032-1.978.064-2.967.096,1.871-2.64,3.743-5.28,5.656-7.978-7.069-3.91-12.866-1.848-19.474,6.405-6.673,5.645-13.347,11.289-20.02,16.933-3.684.507-7.384.925-11.05,1.542-5.574.939-11.126,2.015-16.687,3.034Z"/><path class="cls-40" d="m121.932,156.644c-4.197.484-8.394.968-14.743,1.7,2.56-2.889,3.345-3.776,4.129-4.663,4.017-1.107,8.035-2.213,12.054-3.318,8.695-4.038,13.985-10.993,17.05-19.857,1.582-.006,3.164-.012,4.746-.018,1.178,9.365-3.674,15.34-11.227,19.696-3.936,2.27-8.001,4.315-12.008,6.461Z"/><path class="cls-39" d="m121.932,156.644c4.007-2.146,8.072-4.191,12.008-6.461,7.554-4.356,12.406-10.331,11.226-19.696,2.509.527,5.018,1.055,7.528,1.582.989-.032,1.978-.064,2.968-.096-2.023,5.137-4.046,10.274-6.07,15.411-.526-.045-1.052-.09-1.577-.135-4.088,2.1-8.176,4.2-12.264,6.299-4.606,1.032-9.212,2.063-13.818,3.095Z"/><path class="cls-23" d="m123.371,150.361c-4.018,1.106-8.036,2.212-12.053,3.319-6.732-.557-13.465-1.116-20.199-1.674,5.561-1.018,11.112-2.095,16.686-3.034,3.666-.617,7.365-1.035,11.05-1.542,1.505.977,3.01,1.954,4.516,2.931Z"/><path class="cls-38" d="m41.732,145.894c-3.021-4.11-6.042-8.219-9.063-12.329,1.543-.238,3.741-1.239,4.513-.578,2.854,2.444,5.237,5.437,7.797,8.224,3.605,2.04,7.209,4.081,10.814,6.121,0,0-.034.068-.033.068-1.603.562-3.206,1.124-4.81,1.687-3.073-1.064-6.145-2.128-9.217-3.193Z"/><path class="cls-29" d="m135.75,153.549c4.088-2.1,8.176-4.199,12.264-6.299-1.937,2.623-3.875,5.246-5.812,7.869-.193,3.501-.386,7.002-.579,10.502-.683.322-1.365.645-2.048.967-1.346-2.682-2.692-5.364-4.039-8.046.071-1.665.142-3.329.214-4.994Z"/><path class="cls-15" d="m9.716,38.932c1.746-3.211,4.57-8.316,9.919-13.666,8.088-8.09,16.976-11.766,22.214-13.463,1.936-.97,3.873-1.939,5.809-2.909,3.603-1.056,7.206-2.112,10.809-3.169,1.14.569,2.281,1.137,3.421,1.706-7.687,3.617-15.374,7.234-23.062,10.852-8.131,5.241-11.428,10.932-1.527,15.315-.013,1.085-.027,2.17-.04,3.256-4.581.007-9.162.015-13.743.022-.61.36-1.221.721-1.83,1.083-2.552,4.67-5.104,9.338-7.656,14.007-.944,1.583-1.89,3.165-2.836,4.748-6.919,19.145-6.452,38.102,1.459,56.867,1.023,2.573,2.047,5.146,3.07,7.72-3.437,6.71-4.736-2.474-8.988.342.003-.003-1.51,1.344-3.023,2.691-.19-.526-.381-1.053-.571-1.579-1.19-6.036-2.388-13.873-2.891-23.084-.464-8.479-.174-15.1,0-18.143.807-14.115,1.608-28.141,9.466-42.595Z"/><path class="cls-27" d="m44.979,141.211c-2.56-2.787-4.943-5.78-7.797-8.224-.772-.661-2.97.34-4.513.578-3.084-2.545-6.168-5.089-9.252-7.634-10.547-7.517-1.573-32.848-3.053-44.662,1.542,3.954,3.24,7.854,4.597,11.87,3.958,11.717,6.611,24.17,18.476,31.2,1.521,1.034,3.042,2.068,4.563,3.102,3.093,2.554,6.187,5.108,9.28,7.663-4.459,1.314-10.808-1.174-12.301,6.106Z"/><path class="cls-35" d="m20.364,81.269c1.48,11.814-7.494,37.145,3.053,44.662-2.565-1.544-5.129-3.088-7.694-4.632-1.023-2.573-2.047-5.146-3.07-7.72-.519-4.61-1.037-9.219-1.556-13.829l.049-.034c5.48,2.722,3.974-1.61,4.671-4.317,1.233-4.784-3.855-11.682,4.554-14.132h-.008Z"/><path class="cls-51" d="m44.979,141.211c1.492-7.28,7.842-4.792,12.301-6.106,20.338,6.202,46.614,7.746,63.92-6.747,16.433-13.762,17.537-27.655,17.653-47.071,4.944-8.331,9.783-16.592,7.769-27.044-.711-3.687-.127-7.623-.135-11.446,2.067,5.66,4.134,11.32,6.201,16.98.949,8.887.608,17.222-9.218,21.497-8.539,7.242,1.051,5.36,1.052,11.533.002,10.376,5.31-1.465-1.097,13.027-4.99,11.288-13.923,23.23-24.697,29.312-21.802,12.308-45.263,4.441-68.53,4.441,2.242,3.106,3.917,5.426,5.591,7.745-3.604-2.041-7.209-4.081-10.813-6.122Z"/><path class="cls-43" d="m146.488,42.798c.007,3.822-.576,7.758.135,11.446,2.014,10.452-2.826,18.713-7.769,27.044-.388-5.613-2.225-6.922-7.126-3.091-2.775,2.169-6.497,3.128-9.793,4.632,8.49-7.321,14.618-15.667,14.813-27.681.083-5.116,2.376-10.196,3.665-15.292,2.555-1.054,5.111-2.108,7.666-3.162-.403,1.491-.806,2.983-1.208,4.474-.127.543-.254,1.086-.381,1.629Z"/><path class="cls-6" d="m146.869,41.168c.403-1.491.806-2.983,1.208-4.474.935-.477,1.87-.953,2.804-1.43,6.739,7.449,11.93,15.639,12.491,26.046-.832-.565-1.665-1.13-3.128-2.122,2.344,15.136,2.538,28.361,1.666,43.654-1.49,2.189-2.981,4.377-5.431,7.976-1.729-21.03,14.301-55.056-9.61-69.649Z"/><path class="cls-46" d="m161.91,102.842c.872-15.292.678-28.518-1.666-43.654,1.463.993,2.295,1.557,3.128,2.122,1.664,10.256,3.329,20.512,4.993,30.768-.173,5.612-.345,11.224-.517,16.836-3.96,3.752-6.254,7.109-9.328,11.588,1.337-6.966,2.364-12.313,3.39-17.66Z"/><path class="cls-7" d="m152.694,132.069c-2.51-.527-5.019-1.055-7.528-1.582-1.581.006-3.163.012-4.745.018-.515-.003-1.03-.005-1.545-.008,6.608-8.254,12.405-10.315,19.474-6.405-1.913,2.698-3.784,5.338-5.656,7.978Z"/><path class="cls-17" d="m138.876,130.497c.515.003,1.03.005,1.545.008-3.064,8.864-8.355,15.82-17.049,19.857-1.506-.978-3.011-1.955-4.517-2.932,6.674-5.644,13.347-11.289,20.021-16.933Z"/><path class="cls-8" d="m143.471,81.275c9.826-4.275,10.166-12.61,9.218-21.497,4.778,8.094,1.575,15.889-1.101,24.793-2.828-1.148-5.472-2.222-8.117-3.296Z"/><path class="cls-19" d="m61.887,7.431c-1.14-.569-2.281-1.137-3.42-1.705,5.757-1.575,11.512-3.151,17.268-4.728,5.705-.135,11.775-1.594,17.042-.142,12.497,3.446,24.614,8.273,36.884,12.541,1.583.555,3.166,1.11,4.749,1.666,2.285,7.981,8.647,9.017.694,15.969,1.756.864,3.512,1.73,5.269,2.595h-30.002c-.057-.762-.114-1.525-.171-2.287,2.489-1.175,4.978-2.35,7.467-3.524-.077-.696-.154-1.392-.231-2.088-15.698-.339-44.187-7.001-54.844,5.253.481.887.961,1.774,1.442,2.66-5.845,0-11.69,0-17.535,0,9.974,1.248,11.884-10.602,20.034-12.315,1.021-.009,2.041-.018,3.062-.026,3.625-.484,7.297-1.593,10.866-1.324,7.694.58,15.335,1.869,22.997,2.868h15.961c.29-1.248.58-2.497.87-3.745-5.609-2.86-11.218-5.72-16.826-8.58-4.733-.717-9.475-2.058-14.197-1.995-6.05.082-12.085,1.295-18.127,2.021,5.189-1.609,10.378-3.219,15.568-4.828-.121-.721-.242-1.442-.363-2.163-8.152,1.293-16.305,2.585-24.457,3.878Z"/><path class="cls-44" d="m149.365,21.462c-.441,2.509-.882,5.019-1.322,7.528-1.08,1.523-1.892,3.427-3.332,4.439-.998.702-2.861.176-4.338.198-1.756-.865-3.512-1.73-5.269-2.595,7.953-6.951,1.591-7.987-.694-15.969,4.985,2.133,9.97,4.265,14.955,6.398Z"/><path class="cls-8" d="m140.373,33.627c1.477-.022,3.34.504,4.338-.198,1.44-1.012,2.252-2.916,3.332-4.439.947,2.091,1.893,4.183,2.839,6.274-.935.477-1.87.953-2.805,1.43-2.555,1.054-5.111,2.108-7.666,3.161-1.031-1.56-2.062-3.118-3.093-4.677-3.286.145-6.823-.431-9.798.605-4.397,1.532-9.733,3.491-5.599,10.136-.14,7.403.088,12.073-3.593,18.388-.268-.324-.537-.648-.805-.971.567-7.333,1.134-14.666,1.769-22.883-2.989,1.799-4.811,2.896-6.633,3.992-1.048-.509-2.095-1.019-3.143-1.528,1.364-.669,2.727-1.337,4.437-2.176-6.04-5.724-12.023-5.413-18.298-2.626-1.861-5.147-6.913-6.16-15.881-2.965,2.428,1.117,4.582,2.108,6.737,3.1-1.009,0-2.018.001-3.028.002-5.054-.639-10.168-.982-15.143-2.004-4.505-.925-9.094-3.385-11.122,3.366-.993.579-1.985,1.158-2.978,1.737-3.77-7.72-10.271-2.045-15.392-3.133-.529-.454-1.059-.908-1.588-1.363.013-1.085.027-2.171.04-3.256,0,0-.039.04-.039.04,2.06-.016,4.121-.032,6.181-.048,1.02.017,2.039.034,3.059.051h17.535c-.481-.887-.961-1.774-1.442-2.66,10.657-12.254,39.145-5.592,54.844-5.253.077.696.154,1.392.231,2.088-2.489,1.175-4.978,2.35-7.467,3.524.057.762.114,1.525.171,2.287h30.002Z"/><path class="cls-4" d="m21.685,37.957c.61-.36,1.22-.721,1.83-1.082,1.478,1.554,2.704,3.984,4.483,4.495,4.978,1.43,10.184,2.066,15.301,3.015-4.752-.502-3.764,2.59-3.382,5.352.675,4.887,1.307,9.779,1.958,14.669-3.876-3.033-7.753-6.065-13.911-10.883-.847,15.903,1.605,28.987,4.699,44.675-1.031-1.015-2.061-2.029-3.092-3.044-.514-2.06-1.028-4.12-1.542-6.18-1.225-5.632-.887-12.466-4.067-16.595-4.042-5.249-5.475-9.733-3.639-15.696,2.554-4.072,5.108-8.145,8.058-12.847-1.466-2.002-8.883.87-6.697-5.88Z"/><path class="cls-41" d="m28.03,88.975c.514,2.06,1.028,4.12,1.542,6.179.683,3.412.64,7.207,2.198,10.16,3.464,6.566,7.729,12.71,11.667,19.026-11.864-7.031-14.518-19.483-18.476-31.2-1.357-4.016-3.055-7.917-4.597-11.87,0,0,.009,0,.008,0-1.294-1.017-2.511-2.162-3.907-3.011-1.162-.707-2.536-1.066-3.816-1.58.46-8.238.92-16.476,1.38-24.714,2.553-4.668,5.105-9.336,7.657-14.006-2.187,6.749,5.23,3.876,6.696,5.878-2.95,4.703-5.504,8.775-8.058,12.847-.684,4.708-2.916,9.871-1.695,14.019,1.9,6.453,6.147,12.217,9.4,18.272Z"/><path class="cls-13" d="m61.887,7.431c8.152-1.293,16.305-2.585,24.457-3.878.121.721.242,1.442.363,2.163-5.189,1.609-10.378,3.219-15.568,4.828-3.606,1.533-7.212,3.067-10.817,4.6-6.128,2.063-12.256,4.126-18.383,6.188-1.038-1.017-2.076-2.033-3.113-3.05,7.687-3.617,15.375-7.234,23.062-10.851Z"/><path class="cls-3" d="m11.098,99.751c.519,4.61,1.037,9.219,1.556,13.829-7.911-18.765-8.378-37.722-1.46-56.867-.517,6.579-1.454,13.159-1.439,19.738.018,7.768.859,15.534,1.343,23.301Z"/><path class="cls-35" d="m11.098,99.751c-.484-7.767-1.326-15.533-1.343-23.301-.015-6.578.922-13.159,1.439-19.738.947-1.582,1.892-3.165,2.837-4.748-.461,8.237-.921,16.475-1.381,24.713-.501,7.68-1.002,15.359-1.502,23.039l-.049.034Z"/><path class="cls-33" d="m43.298,44.385c-5.116-.949-10.322-1.585-15.299-3.015-1.779-.511-3.005-2.941-4.483-4.495,4.581-.007,9.163-.015,13.744-.022.529.454,1.059.909,1.588,1.363,3.069,2.054,6.138,4.108,9.207,6.162-1.586.002-3.171.005-4.757.007Z"/><path class="cls-8" d="m38.826,18.283c1.038,1.017,2.076,2.033,3.113,3.05-4.556,2.965-8.095,6.315-4.679,12.306,0,0,.039-.04.039-.04-9.901-4.384-6.605-10.074,1.527-15.316Z"/><path class="cls-21" d="m47.658,8.894c8.384-6.095,17.075-11.099,28.078-7.895-5.756,1.576-11.511,3.152-17.268,4.727-3.604,1.055-7.207,2.112-10.81,3.168Z"/><path class="cls-18" d="m121.934,82.828c3.296-1.504,7.018-2.463,9.793-4.632,4.901-3.831,6.738-2.522,7.126,3.091-.116,19.416-1.22,33.309-17.653,47.071-17.306,14.493-43.582,12.949-63.92,6.747-3.093-2.554-6.187-5.108-9.28-7.663,2.758.968,5.522,1.918,8.271,2.91,2.91,1.05,5.805,2.142,8.707,3.215,18.043,1.501,36.55,6.16,52.338-7.68,13.872-8.69,24.464-29.74,15.796-41.108-4.596.42-8.649.79-12.702,1.16-.008-.525-.015-1.049-.023-1.574.516-.513,1.032-1.025,1.548-1.538Z"/><path class="cls-53" d="m64.977,133.567c-2.902-1.073-5.797-2.165-8.707-3.215-2.749-.992-5.513-1.942-8.271-2.91-1.522-1.034-3.043-2.067-4.564-3.101-3.938-6.316-8.203-12.46-11.667-19.026-1.557-2.952-1.514-6.747-2.198-10.16,1.03,1.015,2.061,2.029,3.092,3.044,2.033,4.115,4.065,8.23,6.098,12.345,4.958,4.815,9.773,9.789,14.922,14.39,3.523,3.147,7.513,5.774,11.293,8.634Z"/><path class="cls-27" d="m11.147,99.717c.501-7.68,1.002-15.359,1.502-23.039,1.28.513,2.654.873,3.816,1.58,1.396.849,2.613,1.994,3.907,3.011-8.409,2.449-3.322,9.347-4.554,14.132-.697,2.706.808,7.039-4.671,4.317Z"/><path class="cls-16" d="m121.934,82.828c-.516.513-1.032,1.025-1.548,1.538-13.091,3.651-26.147,7.535-40.013,6.144-7.681-4.112-15.362-8.223-23.042-12.335-.081-.963-.162-1.926-.242-2.889,10.771,7.679,22.067,14.02,35.987,12.1,11.434-1.577,22.901-3.372,30.384-13.778,10.231-7.71,11.446-18.597,10.454-30.159-.068-.797-1.8-1.451-2.758-2.171,2.054-2.033,4.109-4.066,6.163-6.099,1.031,1.559,2.062,3.117,3.093,4.677-1.289,5.097-3.582,10.177-3.665,15.293-.195,12.013-6.323,20.36-14.813,27.681Z"/><path class="cls-34" d="m60.322,15.144c3.606-1.533,7.211-3.067,10.817-4.6,6.042-.726,12.076-1.939,18.127-2.021,4.723-.064,9.464,1.278,14.197,1.995-2.939.92-5.879,1.841-8.818,2.761,2.882,3.677,5.145,6.624,8.813,9.564-7.663-.999-15.303-2.287-22.997-2.868-3.568-.269-7.24.84-10.866,1.324,2.478-10.429-5.97-4.423-9.274-6.155Z"/><path class="cls-15" d="m60.322,15.144c3.304,1.732,11.752-4.274,9.274,6.155-1.021.009-2.041.017-3.062.026-5.415-.519-10.845-1.581-14.97,3.698-2.412,3.087-5.396,5.727-8.123,8.568-2.06.016-4.12.032-6.181.048-3.416-5.99.123-9.341,4.679-12.306,6.128-2.063,12.256-4.125,18.384-6.188Z"/><path class="cls-57" d="m103.459,22.842c-3.668-2.939-5.931-5.886-8.813-9.564,2.939-.92,5.878-1.84,8.818-2.761,5.609,2.86,11.218,5.719,16.827,8.579-.29,1.248-.58,2.497-.87,3.745h-15.961Z"/><path class="cls-34" d="m43.44,33.59c2.727-2.841,5.711-5.481,8.123-8.568,4.125-5.279,9.555-4.216,14.97-3.698-8.15,1.714-10.06,13.564-20.034,12.315-1.02-.017-2.04-.034-3.059-.05Z"/><path class="cls-25" d="m112.658,44.444c1.822-1.097,3.644-2.193,6.633-3.992-.635,8.217-1.202,15.55-1.769,22.883.268.324.537.647.805.971,3.681-6.314,3.453-10.985,3.593-18.388.545-.989,1.09-1.978,1.635-2.968,11.833,19.053-9.336,38.198-28.388,39.752-23.522,1.918-27.206-12.227-41.011-26.08-1.225-9.367,4.904-12.904,12.273-15.458,3.169.51,6.337,1.019,9.506,1.528-25.826,1.092-1.997,35.04,13.731,32.37,2.56-.476,5.12-.952,7.68-1.427,3.657,2.368,12.555-3.629,14.571-6.841,3.652-5.815,1.156-15.42.741-22.351Z"/><path class="cls-55" d="m112.658,44.444c.415,6.931,2.911,16.536-.741,22.351-2.017,3.211-10.915,9.209-14.572,6.84-.534-8.214-1.067-16.428-1.601-24.641,3.091-8.586,3.954-8.967,13.771-6.078,1.048.509,2.095,1.019,3.143,1.528Z"/><path class="cls-11" d="m109.515,42.916c-9.817-2.889-10.68-2.508-13.771,6.078-.778,2.527-1.556,5.054-2.054,6.671-2.24-3.984-4.701-8.361-7.162-12.737-1.016-1.559-2.031-3.118-3.047-4.677,1.009,0,2.018-.001,3.028-.002,3.088,2.684,6.152,3.687,9.144-.134,6.276-2.787,12.259-3.098,18.298,2.626-1.71.839-3.074,1.507-4.437,2.176Z"/><path class="cls-32" d="m83.482,38.25c1.016,1.559,2.031,3.118,3.047,4.676.046,3.001.092,6.002.138,9.004-1.874-5.055-4.57-9.156-10.732-9.237-3.169-.51-6.337-1.019-9.505-1.528-2.123-6.123-6.164-.903-9.213-1.553,2.028-6.752,6.617-4.291,11.122-3.366,4.975,1.021,10.089,1.365,15.143,2.004Z"/><path class="cls-43" d="m123.556,42.951c-.545.989-1.09,1.978-1.635,2.967-4.134-6.645,1.202-8.604,5.599-10.136,2.975-1.036,6.512-.46,9.798-.605-2.054,2.033-4.109,4.066-6.163,6.1-.508.018-1.016.044-1.524.077-2.025.532-4.05,1.065-6.075,1.597Z"/><path class="cls-26" d="m57.217,39.612c3.049.65,7.089-4.57,9.213,1.553-7.37,2.553-13.499,6.09-12.273,15.457-.537-3.042-1.075-6.085-1.613-9.128.565-2.048,1.131-4.097,1.696-6.145.993-.579,1.985-1.158,2.978-1.737Z"/><path class="cls-28" d="m95.654,38.114c-2.993,3.821-6.056,2.818-9.144.134-2.155-.991-4.309-1.983-6.737-3.1,8.968-3.195,14.02-2.181,15.881,2.965Z"/><path class="cls-32" d="m54.24,41.35c-.565,2.048-1.131,4.097-1.695,6.145-1.007-.541-2.014-1.081-3.022-1.622-.489-.498-.979-.996-1.468-1.495-3.069-2.054-6.138-4.108-9.208-6.162,5.122,1.089,11.623-4.587,15.393,3.133Z"/><path class="cls-42" d="m38.762,110.544c-2.033-4.115-4.066-8.23-6.098-12.345-3.095-15.687-5.547-28.772-4.699-44.675,6.158,4.817,10.034,7.85,13.911,10.882.009,2.485.119,4.975.005,7.455-.199,4.325,1.604,6.608,6.105,6.378,1.456.446,2.913.891,4.371,1.337,3.503-.813,3.748-.011,2.25,3.207-.722,1.551.69,4.095,1.136,6.189-.003.52-.006,1.04-.01,1.56-4.266-2.741-8.789-5.16-12.735-8.303-5.286-4.209-7.447-3.896-8.78,2.13,1.536,5.128,3.073,10.256,4.609,15.384.512,3.067,1.023,6.134,1.535,9.202-.534.533-1.067,1.067-1.6,1.6Z"/><path class="cls-31" d="m47.985,78.239c-4.501.23-6.304-2.053-6.105-6.378.114-2.48.004-4.97-.005-7.455-.65-4.89-1.283-9.782-1.958-14.669-.382-2.763-1.37-5.854,3.382-5.352,1.584-.002,3.17-.005,4.755-.007.489.498.979.996,1.469,1.495-.512,10.789-1.026,21.577-1.539,32.366Z"/><path class="cls-53" d="m28.03,88.975c-3.252-6.056-7.5-11.819-9.4-18.272-1.221-4.148,1.011-9.311,1.695-14.019-1.837,5.963-.404,10.447,3.638,15.696,3.18,4.129,2.842,10.962,4.067,16.595Z"/><path class="cls-22" d="m38.761,110.544c.533-.533,1.067-1.067,1.6-1.6,23.994,18.235,41.253,26.817,70.746,16.911,2.062-.505,4.123-1.01,6.185-1.515.008.515.015,1.031.023,1.546-15.788,13.84-34.295,9.18-52.338,7.68-3.781-2.86-7.77-5.486-11.293-8.634-5.15-4.601-9.965-9.575-14.922-14.39Z"/><path class="cls-14" d="m117.315,125.888c-.008-.515-.015-1.031-.023-1.546,7.01-6.139,10.315-14.255,12.332-23.06,5.931-13.173-9.906-6.889-16.951-4.627-1.529.007-3.057.013-4.586.02-9.752-.518-19.504-1.035-29.256-1.553,4.054.005,8.281.754,12.126-.14,7.799-1.813,16.761.659,23.298-5.989,2.051-1.017,4.102-2.035,6.153-3.052,4.053-.37,8.106-.741,12.702-1.16,8.668,11.368-1.924,32.418-15.796,41.108Z"/><path class="cls-43" d="m120.408,85.94c-2.051,1.017-4.102,2.035-6.154,3.052-2.487.401-4.961,1.028-7.462,1.163-8.799.475-17.551,5.43-26.42.354,13.867,1.392,26.922-2.493,40.013-6.144.008.525.015,1.049.023,1.574Z"/><path class="cls-30" d="m47.985,78.239c.513-10.789,1.026-21.577,1.539-32.366,1.007.54,2.015,1.08,3.021,1.621.537,3.043,1.075,6.086,1.612,9.128,13.805,13.852,17.489,27.997,41.011,26.08,19.052-1.553,40.221-20.699,28.388-39.752,2.025-.531,4.05-1.064,6.075-1.596.654,3.263,2.498,6.842,1.732,9.729-2.033,7.667-5.193,15.036-7.904,22.524-7.483,10.406-18.95,12.201-30.384,13.778-13.921,1.92-25.216-4.421-35.985-12.101-1.577,1.43-3.156,2.861-4.735,4.292-1.456-.445-2.913-.891-4.369-1.337Z"/><path class="cls-2" d="m80.372,90.51c8.869,5.076,17.622.121,26.42-.354,2.501-.135,4.975-.762,7.462-1.163-6.536,6.648-15.498,4.176-23.297,5.989-3.845.894-8.072.145-12.126.14-3.038-1.02-6.294-1.64-9.069-3.145-5.696-3.089-13.024-4.969-12.434-13.802,7.681,4.112,15.362,8.223,23.042,12.335Z"/><path class="cls-31" d="m57.329,78.175c-.591,8.833,6.738,10.712,12.434,13.802,2.775,1.505,6.031,2.125,9.069,3.145,9.752.518,19.504,1.035,29.256,1.553-4.607,1.525-9.214,3.05-13.822,4.576-12.318-5.243-25.88-7.11-38.524-12.278-.446-2.094-1.858-4.637-1.136-6.189,1.498-3.217,1.253-4.019-2.25-3.207,1.577-1.432,3.156-2.863,4.733-4.293.079.965.16,1.928.241,2.891Z"/><path class="cls-49" d="m123.459,73.607c2.712-7.487,5.871-14.856,7.904-22.524.766-2.888-1.078-6.466-1.732-9.729.508-.033,1.016-.059,1.524-.077.958.72,2.69,1.374,2.758,2.171.992,11.562-.223,22.449-10.454,30.159Z"/><path class="cls-55" d="m75.935,42.693c6.162.081,8.858,4.182,10.731,9.238,3.96,5.516,6.051,11.062,1.69,17.561-.724,1.079.816,3.675,1.31,5.57-15.728,2.67-39.557-31.278-13.731-32.37Z"/><path class="cls-9" d="m89.666,75.063c-.494-1.895-2.034-4.491-1.31-5.57,4.361-6.5,2.271-12.045-1.69-17.561-.045-3.003-.091-6.004-.138-9.005,2.461,4.377,4.922,8.754,7.162,12.738.498-1.617,1.276-4.144,2.054-6.671.533,8.214,1.067,16.427,1.601,24.641-2.56.476-5.119.952-7.679,1.428Z"/><path class="cls-5" d="m111.107,125.855c-29.492,9.906-46.751,1.324-70.745-16.911-.512-3.067-1.023-6.135-1.535-9.202,1.531,2.049,3.062,4.099,4.593,6.148,11.632,8.009,22.011,17.113,36.28,20.097,8.125,1.699,31.836,1.823,33.025-11.253,1.039-11.423-14.016-5.739-22.753-5.949-11.68-.28-26.158-1.026-34.228-10.584-5.508-4.955-10.912-10.037-16.641-14.723-.831-.68-3.219.539-4.886.88,1.332-6.026,3.494-6.339,8.78-2.13,3.946,3.142,8.469,5.562,12.735,8.303,8.844,10.818,20.955,12.654,33.864,12.298,4.524.095,28.113-4.579,31.731-1.696,7.447,5.936-6.131,20.484-10.22,24.722Z"/><path class="cls-56" d="m34.218,84.359c1.667-.341,4.055-1.56,4.886-.88,5.729,4.686,11.132,9.768,16.641,14.723-4.542.291-7.736-7.96-11.613-4.044-.325,5.347-.518,8.54-.712,11.732-1.531-2.049-3.062-4.099-4.593-6.148-1.536-5.128-3.073-10.256-4.609-15.384Z"/><path class="cls-12" d="m89.596,102.829c-12.908.356-25.019-1.48-33.864-12.298.003-.52.006-1.04.01-1.56,12.644,5.168,26.206,7.035,38.524,12.278-1.557.527-3.113,1.053-4.67,1.579Z"/><path class="cls-50" d="m89.596,102.829c1.556-.526,3.113-1.053,4.67-1.579,4.608-1.526,9.215-3.051,13.822-4.576,1.529-.007,3.057-.013,4.586-.02,5.65,1.542,11.301,3.084,16.951,4.627-2.017,8.805-5.322,16.921-12.332,23.06-2.062.505-4.123,1.01-6.185,1.515,4.088-4.238,17.666-18.785,10.219-24.722-3.618-2.884-27.207,1.791-31.731,1.696Z"/><path class="cls-12" d="m129.625,101.281c-5.65-1.542-11.3-3.084-16.951-4.627,7.045-2.262,22.882-8.546,16.951,4.627Z"/><path class="cls-1" d="m43.419,105.891c.194-3.193.388-6.386.712-11.732,3.876-3.917,7.071,4.334,11.613,4.044,8.07,9.558,22.547,10.305,34.228,10.584,8.737.209,23.792-5.474,22.753,5.949-1.189,13.076-24.9,12.952-33.025,11.253-14.269-2.984-24.648-12.088-36.28-20.097Z"/></svg>