<?xml version="1.0" encoding="UTF-8"?><svg id="Layer_1" xmlns="http://www.w3.org/2000/svg" viewBox="0 0 163.281 165.879"><defs><style>.cls-1{fill:#531416;}.cls-2{fill:#861719;}.cls-3{fill:#451316;}.cls-4{fill:#de4a53;}.cls-5{fill:#630e15;}.cls-6{fill:#b62f3f;}.cls-7{fill:#ac252b;}.cls-8{fill:#7e181a;}.cls-9{fill:#c12631;}.cls-10{fill:#a42f2e;}.cls-11{fill:#c33e47;}.cls-12{fill:#831618;}.cls-13{fill:#af282f;}.cls-14{fill:#6e1419;}.cls-15{fill:#ac2b2b;}.cls-16{fill:#d02427;}.cls-17{fill:#bc3640;}.cls-18{fill:#971d1f;}.cls-19{fill:#8a1823;}.cls-20{fill:#690f10;}.cls-21{fill:#db575c;}.cls-22{fill:#801517;}.cls-23{fill:#831718;}.cls-24{fill:#85191b;}.cls-25{fill:#7d141a;}.cls-26{fill:#8e1a24;}.cls-27{fill:#811517;}.cls-28{fill:#992d33;}.cls-29{fill:#d5404c;}.cls-30{fill:#28161a;}.cls-31{fill:#87191f;}.cls-32{fill:#a1242a;}.cls-33{fill:#dc4f59;}.cls-34{fill:#aa2530;}.cls-35{fill:#b92025;}.cls-36{fill:#a7383c;}.cls-37{fill:#80151a;}.cls-38{fill:#961c23;}.cls-39{fill:#d93848;}.cls-40{fill:#de505f;}.cls-41{fill:#df4d61;}.cls-42{fill:#882425;}.cls-43{fill:#d42427;}.cls-44{fill:#411;}.cls-45{fill:#981b1e;}.cls-46{fill:#b52024;}.cls-47{fill:#a12129;}.cls-48{fill:#6c0f10;}.cls-49{fill:#b72b3a;}.cls-50{fill:#ef4944;}.cls-51{fill:#640e15;}.cls-52{fill:#9d3432;}.cls-53{fill:#c5494c;}.cls-54{fill:#451415;}.cls-55{fill:#d74551;}</style></defs><path class="cls-3" d="m156.358,60.437c-1.59-4.04-4.263-10.087-8.514-16.862-13.253-21.127-35.13-38.642-44.416-33.923-1.917.974-3.034,3.011-6.58,3.668-3.9.723-7.592-.835-11.402-1.549-8.892-1.666-18.106-2.359-26.77-4.965-12.484-3.091-21.145-6.041-32.545,1.039,4.284,6.555,7.458,6.74,15.064,8.779-4.824,4.916-7.165,10.632-10.916,16.218-5.705,8.496-9.507,5.039-19.035,3.353-.229.58-.458,1.16-.686,1.74,4.771,6.715,18.182,10.969,6.812,22.28-.4,1.631-.8,3.262-1.2,4.893,7.497-4.339,5.236-10.169,7.343-16.873,1.573-5.004,4.112-8.21,9.899-13.941,11.401-11.294,25.289-15.393,30.328-16.662,17.651-4.443,32.203-.694,38.604,1.038,31.743,8.588,49.008,33.808,54.014,41.768Z"/><path class="cls-51" d="m140.058,35.941c-11.314-7.933-23.813-20.14-36.995-19.613-12.455.498-27.399-2.697-40.14-1.601-13.528,1.163-21.604,9.856-29.511,19.566-4.074,5.003-8.041,8.032-9.898,13.941-2.107,6.705.154,12.534-7.343,16.873,0,.392-.005.785-.015,1.177.005.406.01.812.016,1.218,2.436-2.018,4.872-4.037,7.308-6.055,2.415-4.457,4.83-8.914,7.245-13.371l7.317-9.713c4.492-20.033,33.443-19.788,48.411-18.679,10.123.75,21.556.537,31.238,3.758,8.63,2.871,14.567,9.544,22.447,13.653-.014-.385-.041-.769-.079-1.152Z"/><path class="cls-54" d="m17.37,60.214c11.37-11.311-2.041-15.565-6.812-22.28.229-.58.457-1.16.686-1.74,9.529,1.686,13.33,5.143,19.035-3.353,3.751-5.586,6.093-11.302,10.916-16.218-7.606-2.039-10.78-2.224-15.064-8.779,11.4-7.08,20.061-4.13,32.545-1.039C53.98,1.57,48.569-1.23,41.188.522c-5.414,1.285-11.014,1.79-16.532,2.643-2.861,4.362-1.306,7.6,1.812,11.388,5.628,6.837,5.757,11.723,1.833,17.735-.406.408-.812.815-1.218,1.223-3.832,4.893-26.025-9.615-22.158,6.952,1.111,4.761,7.443,4.41,10.406,7.344,4.847,4.8,3.178,5.543,2.04,12.409Z"/><path class="cls-25" d="m153.407,55.375c-2.791-4.068-5.582-8.136-8.372-12.205-.839-.806-1.678-1.611-2.518-2.416-.413,1.631-.826,3.261-1.238,4.892,1.141,1.745,2.234,3.524,3.436,5.227,1.646,2.332,3.374,4.606,5.067,6.905,19.501,17.982,8.193,60.248-8.53,76.479.013.807.025,1.613.038,2.42,13.115-9.692,18.232-25.035,19.782-40.323,1.725-17.012-1.83-25.853-7.664-40.979Z"/><path class="cls-37" d="m141.278,45.645c.413-1.63.825-3.261,1.238-4.892-.794-1.22-1.587-2.439-2.38-3.66-7.879-4.109-13.816-10.782-22.446-13.653-9.682-3.221-21.115-3.008-31.238-3.758-14.967-1.109-43.919-1.353-48.411,18.679,10.806-6.743,21.067-16.061,34.214-16.996,7.739-.551,36.38-2.382,41.097,6.06,4.451,1.382,9.571,1.816,13.198,4.367,5.457,3.839,9.871,9.16,14.728,13.852Z"/><path class="cls-1" d="m16.171,67.502c-.005-.406-.01-.812-.016-1.218-12.246,8.949-3.344,12.402-.483,24.539,2.62,11.118-3.478,16.866-.738,27.663,5.429,7.961,10.293,16.397,16.474,23.725,4.545,5.388,10.813,9.325,16.314,13.908,2.849.8,5.698,1.6,8.547,2.401-13.255-9.476-36.592-25.926-40.471-43.373-1.284-5.775,2.566-11.901,1.952-18.689-.739-8.169-7.733-21.897-1.578-28.955Z"/><path class="cls-54" d="m14.934,118.485c-2.74-10.797,3.359-16.544.738-27.663-2.86-12.137-11.763-15.59.483-24.539.01-.392.015-.785.015-1.177.4-1.63.8-3.261,1.2-4.892-.406-.005-.812-.01-1.218-.015-6.116,5.984-11.537,11.305-16.152,18.479,11.739,5.575,23.652,21.483,6.93,30.471,3.001,3.5,5.502,6.417,8.004,9.335Z"/><path class="cls-30" d="m28.3,32.288c3.925-6.012,3.795-10.898-1.833-17.735-3.118-3.788-4.673-7.026-1.812-11.388-2.417,1.73-4.833,3.461-8.527,6.105,9.435,5.473,14.38,12.642,12.171,23.017Z"/><path class="cls-14" d="m16.171,67.502c-6.156,7.058.839,20.786,1.578,28.955.614,6.788-3.236,12.914-1.952,18.689,3.88,17.447,27.216,33.896,40.471,43.373,11,8.309,23.596,7.907,36.365,6.717,13.236-1.233,24.835-7.08,36.508-12.745,3.234-4.058,6.467-8.116,9.701-12.174-27.502,25.445-79.584,33.473-103.217-2.413-4.045-6.047-12.046-12.264-14.453-18.818-1.869-5.091-.152-9.22.101-14.472.699-14.542-7.307-29.901,2.206-43.167-2.436,2.018-4.872,4.037-7.308,6.055Z"/><path class="cls-5" d="m138.843,140.316c-3.234,4.058-6.468,8.116-9.701,12.174,6.782-4.244,15.83-11.2,23.558-22.084,2.786-3.923,4.971-7.753,6.693-11.285,2.005-5.449,2.901-10.058,3.347-13.231,2.7-19.204-5.5-35.558-7.16-43.855,0-.001,0-.002,0-.002-2.185-6.513-4.465-12.176-4.165-12.297.283-.115,2.665,4.451,4.515,9.379.75,1.998,3.322,9.141,4.553,22.181.131,1.389.872,9.463.588,15.058-.908,17.925-13.491,33.443-19.782,40.323-.816,1.213-1.631,2.426-2.446,3.639Z"/><path class="cls-26" d="m23.479,61.447c-9.514,13.266-1.507,28.625-2.206,43.167-.253,5.252-1.97,9.381-.101,14.472,2.407,6.554,10.409,12.771,14.453,18.818,1.211.399,2.423.797,3.634,1.196-7.851-10.61-17.395-20.897-13.603-35.21-.259-1.257-.52-2.514-.78-3.771-2.203-9.329-3.17-18.605,1.167-27.659,1.173-4.056,2.346-8.112,3.519-12.168,1.199-4.072,2.398-8.143,3.597-12.215-.812,0-1.623,0-2.435,0-2.415,4.457-4.83,8.914-7.245,13.371Z"/><path class="cls-19" d="m30.724,48.076c.812,0,1.623,0,2.435,0,9.886-7.811,21.294-20.855,33.967-23.665,13.527-3,31.289,1.826,44.973,3.058.418-.014.836-.029,1.253-.043-4.718-8.442-33.358-6.611-41.097-6.06-13.147.935-23.408,10.254-34.214,16.996-2.439,3.238-4.878,6.476-7.317,9.713Z"/><path class="cls-31" d="m39.259,139.099c-1.211-.399-2.423-.797-3.634-1.196,23.634,35.886,75.716,27.858,103.218,2.413.815-1.213,1.631-2.426,2.446-3.64-.013-.807-.025-1.613-.037-2.42-1.113.004-2.226.009-3.34.013-.118.392-.235.784-.353,1.175-12.537,14.765-26.631,22.31-46.599,23.638-18.462,1.228-40.181-4.359-51.701-19.985Z"/><path class="cls-47" d="m137.913,134.269c1.113-.004,2.226-.009,3.339-.013,16.723-16.231,28.03-58.496,8.53-76.478-.885.036-1.769.072-2.652.107.88,2.796,1.759,5.593,2.638,8.391,8.43,13.553,7.136,23.341,3.636,38.86-1.189,2.842-2.377,5.684-3.566,8.526-3.975,6.869-7.95,13.739-11.925,20.608Z"/><path class="cls-38" d="m147.128,57.886c.885-.036,1.769-.072,2.654-.108-1.693-2.299-3.422-4.573-5.067-6.905-1.202-1.703-2.295-3.482-3.436-5.227-4.857-4.691-9.27-10.012-14.728-13.852-3.627-2.552-8.747-2.985-13.198-4.367-.418.014-.836.029-1.253.043,2.492,1.213,5.115,2.217,7.441,3.692,2.896,1.835,5.546,4.058,8.303,6.112,4.098,4.376,8.195,8.753,12.292,13.13,2.331,2.494,4.662,4.989,6.993,7.483Z"/><path class="cls-47" d="m39.259,139.099c11.52,15.625,33.24,21.213,51.701,19.985,19.968-1.329,34.062-8.873,46.599-23.639-3.601,2.471-7.203,4.942-10.805,7.414-7.298,3.21-14.596,6.421-21.894,9.631-7.295.791-14.59,1.583-21.884,2.375-12.59.999-23.675-3.266-34.028-9.88-3.459-2.21-5.378-5.279-3.62-9.591-1.207-1.21-2.413-2.42-3.62-3.63-1.204-1.609-2.408-3.219-3.612-4.828-5.278-3.482-8.711-8.192-9.687-14.536-.918-2.837-1.836-5.673-2.754-8.51-3.792,14.313,5.753,24.6,13.604,35.21Z"/><path class="cls-34" d="m127.843,37.274c-2.756-2.055-5.407-4.278-8.303-6.113-2.326-1.474-4.949-2.479-7.441-3.692-13.685-1.232-31.447-6.058-44.973-3.058-12.672,2.81-24.081,15.854-33.967,23.665-1.199,4.072-2.398,8.143-3.597,12.214,2.439-2.859,4.877-5.718,7.315-8.577.609-1.206.998-2.607,1.863-3.588,8.099-9.171,18.359-15.116,29.612-19.538,10.91-.594,22.028-2.736,32.667-1.313,9.222,1.234,17.903,6.509,26.822,9.999Z"/><path class="cls-40" d="m36.878,51.713c-2.439,2.859-4.877,5.718-7.316,8.577-1.173,4.057-2.346,8.113-3.52,12.168-.389,9.219-.778,18.439-1.166,27.659.26,1.257.521,2.514.78,3.771.917,2.837,1.835,5.673,2.753,8.51,2.122,2.959,4.244,5.918,6.409,8.937-2.206-9.595-4.358-18.953-6.509-28.312.248-9.015-1.526-18.311,3.708-26.632.389-.437.779-.873,1.168-1.31,2.075-3.964,4.15-7.929,6.225-11.893-.844-.492-1.688-.984-2.533-1.476Z"/><path class="cls-6" d="m24.876,100.118c.388-9.22.776-18.44,1.166-27.659-4.335,9.054-3.369,18.33-1.166,27.659Z"/><path class="cls-41" d="m126.755,142.859c3.602-2.471,7.204-4.943,10.805-7.414.117-.391.234-.783.352-1.175,3.976-6.87,7.951-13.739,11.926-20.609-.129-.95-.257-1.899-.523-3.866-1.799,2.218-3.011,3.711-4.224,5.202-4.02,12.606-13.53,20.69-24.377,27.672.332.393.664.787.996,1.18,1.682-.33,3.364-.66,5.045-.991Z"/><path class="cls-11" d="m145.092,114.999c1.212-1.493,2.423-2.986,4.223-5.204.266,1.967.394,2.917.523,3.866,1.189-2.842,2.378-5.683,3.567-8.525-.342-4.96.121-10.154-1.237-14.82-1.576-5.416-4.749-10.368-7.229-15.522-1.217-.408-2.433-.816-3.649-1.223.799,2.431,1.598,4.862,2.398,7.292,4.008,6.99,5.845,14.547,4.726,22.497-.546,3.88-2.362,7.581-3.604,11.364l.283.274Z"/><path class="cls-13" d="m144.938,74.795c2.48,5.153,5.653,10.105,7.229,15.521,1.358,4.665.895,9.859,1.237,14.82,3.5-15.519,4.794-25.307-3.636-38.86,1.246,5.65,2.491,11.3,3.737,16.95l-1.652.444c-1.475-3.829-2.951-7.659-4.427-11.487-.829.872-1.658,1.742-2.487,2.613Z"/><path class="cls-21" d="m147.426,72.181c1.475,3.829,2.951,7.659,4.426,11.488l1.652-.444c-1.245-5.65-2.491-11.3-3.737-16.95-.879-2.797-1.758-5.594-2.638-8.391-2.332-2.494-4.663-4.988-6.994-7.482.407,2.422.815,4.844,1.222,7.266,2.023,4.838,4.046,9.674,6.069,14.511Z"/><path class="cls-53" d="m141.358,57.669c-.408-2.422-.815-4.843-1.223-7.265-4.097-4.378-8.194-8.755-12.292-13.131-8.92-3.488-17.601-8.764-26.823-9.998-10.64-1.424-21.757.719-32.667,1.313,1.636,0,3.273,0,5.162,0-.658,1.517-1.093,2.521-1.529,3.525,1.22.029,2.439.058,3.659.086,22.003-13.149,52.782,8.899,65.712,25.469Z"/><path class="cls-11" d="m126.755,142.859c-1.682.33-3.364.66-5.045.99-.332-.393-.664-.787-.996-1.18,10.847-6.982,20.357-15.066,24.377-27.672.001.001-.282-.273-.28-.272-.362.058-.728.098-1.096.122-9.802,20.643-27.621,26.775-48.501,32.802-6.099.794-12.199,1.588-18.298,2.381,14.705.037,24.399-1.408,38.115-6.615.334.501.668,1.002,1.003,1.504-3.724,2.523-7.448,5.047-11.172,7.57,7.298-3.21,14.596-6.421,21.894-9.631Z"/><path class="cls-29" d="m28.309,93.024c2.152,9.359,4.303,18.717,6.509,28.312-2.165-3.019-4.288-5.978-6.409-8.937.977,6.344,4.41,11.054,9.687,14.537.835-1.933,2.933-4.878,2.316-5.648-8.335-10.39-7.242-21.619-3.666-33.202,0-2.805,0-5.61,0-8.415-.357-.039-.714-.078-1.072-.116-1.235,3.269-2.47,6.539-3.704,9.808-.817,1.623,1.444,6.318-3.661,3.662Z"/><path class="cls-17" d="m36.746,88.086c-3.576,11.583-4.669,22.812,3.666,33.202.617.77-1.481,3.715-2.316,5.648,1.205,1.609,2.408,3.218,3.612,4.828.725-.571,1.513-1.695,2.164-1.62,3.326.38,6.617,1.07,9.92,1.652-2.655-3.253-4.716-7.448-8.084-9.57-8.033-5.06-9.507-12.281-8.876-20.71-.028-4.476-.057-8.953-.085-13.429Z"/><path class="cls-33" d="m104.861,152.49c3.724-2.523,7.448-5.047,11.172-7.57-.334-.501-.668-1.002-1.003-1.504-13.715,5.207-23.41,6.652-38.115,6.615-.364-.058-.731-.086-1.099-.085q-3.992-.591-3.772,1.321c3.644,1.199,7.289,2.398,10.933,3.597,7.295-.791,14.59-1.583,21.884-2.374Z"/><path class="cls-55" d="m53.791,131.795c-3.303-.581-6.594-1.271-9.919-1.652-.651-.074-1.439,1.05-2.164,1.62,1.207,1.21,2.414,2.42,3.62,3.631,2.802,1.66,5.603,3.319,8.406,4.978,3.672,1.134,7.344,2.268,11.016,3.402,2.016.031,4.031.063,6.047.094.584-.721,1.167-1.442,1.205-1.489-6.137-3.567-12.173-7.076-18.21-10.585Z"/><path class="cls-9" d="m53.733,140.372c-2.802-1.659-5.603-3.319-8.405-4.978-1.758,4.311.161,7.38,3.62,9.59,10.353,6.614,21.438,10.879,34.028,9.88-3.644-1.199-7.289-2.399-10.933-3.598-8.006-.438-14.549-3.333-18.31-10.894Z"/><path class="cls-4" d="m71.987,32.113c.435-1.003.871-2.007,1.529-3.524-1.89,0-3.526,0-5.162,0-11.253,4.421-21.513,10.366-29.612,19.537-.866.98-1.254,2.382-1.863,3.588.845.492,1.689.984,2.532,1.474,5.62-4.149,11.241-8.297,16.862-12.444,2.013-.792,4.027-1.584,6.04-2.376,3.225-2.085,6.45-4.17,9.675-6.254Z"/><path class="cls-32" d="m36.746,88.086c.028,4.476.057,8.953.085,13.429.803,1.194,1.607,2.388,2.41,3.582,0-1.611.001-3.223.002-4.834.002-12.537.004-25.074.006-37.61l-.036-.033c-2.009.821-4.018,1.643-6.027,2.464-.389.437-.779.873-1.169,1.309-.668,5.328-1.609,10.643-1.875,15.992-.114,2.291,1.176,4.651,1.829,6.98,1.235-3.269,2.47-6.539,3.704-9.808.357.039.715.078,1.072.116,0,2.805,0,5.61,0,8.415Z"/><path class="cls-15" d="m33.186,65.082c2.009-.821,4.018-1.643,6.027-2.464,2.294-8.348,4.624-5.541,10.256-9.238,5.572-3.658,5.387-6.589,6.803-12.637-5.621,4.147-11.242,8.295-16.862,12.444-2.074,3.966-4.149,7.931-6.224,11.895Z"/><path class="cls-49" d="m31.97,89.363c-.652-2.329-1.943-4.689-1.829-6.98.266-5.349,1.207-10.664,1.875-15.992-5.234,8.322-3.459,17.618-3.707,26.633,5.105,2.657,2.844-2.038,3.661-3.661Z"/><path class="cls-8" d="m143.687,80.864c-.799-2.431-1.598-4.862-2.398-7.292-1.953-1.787-3.906-3.575-7.172-6.564,9.457.853,6.71-3.298,3.515-9.22-.41.003-.819.005-1.229.008-.248,1.594-.495,3.188-.726,4.671-2.858-.686-4.821-1.158-7.821-1.878,4.797,7.308,5.138,12.827,8.744,20.485,3.097,6.577,10.332,12.027,5.71,19.914-4.128-2.358-8.025-4.584-11.921-6.809-.417,5.676-.834,11.351-1.252,17.027.227,3.813-.128,8.208,6.065,6.057,1.121-5.087,2.242-10.174,3.363-15.262.589-.04,1.179-.08,1.768-.12.576,4.542.423,6.815,3.341,10.466.687-6.644,1.743-13.278,1.919-19.935.101-3.829-1.224-7.696-1.906-11.546Z"/><path class="cls-10" d="m137.631,57.787c3.195,5.922,5.942,10.074-3.515,9.22,3.266,2.989,5.219,4.777,7.172,6.564,1.216.408,2.433.816,3.649,1.223.829-.87,1.658-1.741,2.487-2.612-2.023-4.838-4.046-9.675-6.068-14.512-12.93-16.57-43.709-38.619-65.711-25.469,13.466.062,25.344-1.727,37.887,4.755,6.924,3.578,13.479,9.154,19.221,14.756,1.626,2.025,3.252,4.05,4.877,6.074Z"/><path class="cls-52" d="m143.687,80.864c.683,3.85,2.007,7.717,1.906,11.546-.176,6.657-1.232,13.292-1.918,19.936.013.834.027,1.668.04,2.502.367-.023.733-.063,1.096-.122,1.24-3.784,3.057-7.485,3.603-11.365,1.119-7.95-.718-15.507-4.726-22.497Z"/><path class="cls-18" d="m132.754,51.712c-5.742-5.602-12.297-11.178-19.221-14.756-12.543-6.482-24.42-4.693-37.887-4.755-1.22-.029-2.44-.058-3.659-.087-3.225,2.084-6.45,4.169-9.675,6.254-1.209,2.834-2.417,5.668-3.626,8.502,2.425-.813,4.851-1.625,7.276-2.438.809-.003,1.619-.006,2.428-.009,4.983-2.217,8.166-3.767,13.667-4.275-.108,1.829-.216,3.659-.324,5.488,6.505-4.408,8.252-8.461,16.123-8.614,3.961-.077,15.783,2.368,16.704,7.429,1.955.771,3.914,1.533,5.865,2.314,4.112,1.644,8.22,3.298,12.33,4.947Z"/><path class="cls-28" d="m143.714,114.847c-.013-.834-.026-1.667-.04-2.502-2.919-3.652-2.766-5.924-3.342-10.467-.589.04-1.179.08-1.768.12-1.121,5.087-2.242,10.174-3.363,15.262-3.631,9.857-4.749,9.257-15.074,9.979-5.7,12.078-15.24,16.636-27.414,20.33.833.026,1.666.053,2.499.079,20.881-6.027,38.699-12.159,48.501-32.802Z"/><path class="cls-7" d="m95.213,147.649c-.833-.027-1.666-.053-2.5-.079-3.6.002-7.214.212-10.794-.047-4.38-.317-3.892-2.368-1.356-4.82-3.255.388-6.511.776-9.766,1.164-2.016-.031-4.031-.063-6.047-.092-1.08,4.5,2.991,2.78,4.713,3.742,1.958,1.094,4.222,1.642,6.353,2.428.369-.001.735.027,1.099.085,6.1-.794,12.199-1.588,18.298-2.381Z"/><path class="cls-36" d="m70.797,143.868c3.255-.388,6.511-.776,9.766-1.164,2.207-1.123,4.414-2.247,6.621-3.371-.228-.475-.456-.951-.684-1.426-21.187,4.04-41.24-12.666-47.258-32.812-.803-1.194-1.607-2.388-2.41-3.582-.631,8.429.843,15.651,8.876,20.711,3.369,2.122,5.429,6.318,8.084,9.57,6.036,3.508,12.073,7.017,18.21,10.584-.038.047-.621.768-1.205,1.489Z"/><path class="cls-39" d="m75.815,149.946c-2.131-.786-4.395-1.333-6.353-2.428-1.721-.962-5.792.758-4.713-3.742-3.672-1.136-7.343-2.27-11.016-3.404,3.761,7.562,10.303,10.456,18.309,10.894q-.22-1.911,3.772-1.321Z"/><path class="cls-32" d="m58.686,46.87c1.209-2.834,2.417-5.668,3.626-8.502-2.014.792-4.027,1.584-6.04,2.376-1.416,6.048-1.231,8.979-6.803,12.637-5.631,3.697-7.962.89-10.256,9.238,0,0,.036.033.036.033,1.219.817,2.439,1.634,3.814,2.555.936-.717,2.172-1.664,3.408-2.61,4.072-5.242,8.143-10.484,12.215-15.726Z"/><path class="cls-42" d="m39.241,105.096c6.019,20.145,26.071,36.852,47.258,32.812.228.475.456.951.684,1.426-2.207,1.124-4.414,2.247-6.621,3.371-2.536,2.451-3.023,4.502,1.356,4.819,3.58.259,7.195.049,10.794.047,12.174-3.694,21.714-8.252,27.414-20.33,10.325-.723,11.443-.122,15.074-9.979-6.193,2.152-5.838-2.244-6.065-6.057-1.241-.404-2.481-.809-3.721-1.213-4.517,10.389-21.23,45.072-36.077,30.13,2.166-1.208,4.338-2.419,6.511-3.631-.513-.614-1.027-1.229-1.54-1.843-22.443,4.051-32.655-4.34-45.375-21.026-2.036-2.959-4.034-5.943-6.122-8.865-1.111-1.554-2.374-2.999-3.569-4.494,0,1.611-.001,3.223-.002,4.834Z"/><path class="cls-24" d="m39.243,100.262c1.195,1.494,2.459,2.939,3.569,4.494,2.087,2.922,4.086,5.906,6.122,8.865.236-10.006.116-21.275-2.794-30.964-2.683-8.934-4.012-11.006.422-19.994l-.093-.066c-1.236.947-2.471,1.893-3.407,2.61-1.375-.921-2.595-1.738-3.814-2.555-.002,12.537-.004,25.074-.006,37.61Z"/><path class="cls-48" d="m130.388,94.178c3.896,2.226,7.793,4.451,11.921,6.809,4.623-7.887-2.613-13.337-5.71-19.914-3.606-7.658-3.947-13.177-8.744-20.485,3.001.721,4.963,1.192,7.821,1.878.23-1.484.478-3.078.726-4.671-3.432-2.073-6.864-4.146-9.091-5.491-3.165,3.511-5.462,6.059-8.685,9.635.408,1.866,1.209,5.532,2.01,9.197,2.021,4.856,4.043,9.713,6.065,14.569,1.229,2.824,2.458,5.649,3.687,8.473Z"/><path class="cls-23" d="m120.637,71.135c-.801-3.665-1.602-7.331-2.01-9.197,3.223-3.575,5.52-6.123,8.685-9.635,2.227,1.345,5.659,3.418,9.091,5.491.409-.003.819-.005,1.229-.008-1.626-2.025-3.251-4.05-4.877-6.074-4.11-1.65-8.218-3.303-12.33-4.947-1.951-.78-3.91-1.543-5.865-2.314-1.158,9.099-.596,19.115,4.839,26.696.413-.004.826-.008,1.239-.012Z"/><path class="cls-45" d="m130.388,94.178c-1.229-2.824-2.458-5.649-3.687-8.473-6.124-2.055-2.652,3.088-3.66,4.871.791,6.472,1.582,12.944,2.374,19.416,1.241.404,2.481.809,3.722,1.213.417-5.675.834-11.351,1.252-17.026Z"/><path class="cls-45" d="m123.281,82.019c-.336.189-.671.377-1.007.566-2.139-2.038-8.345-9.705-11.148-10.588-8.746-2.754,1.081-1.639-5.836,1.677-2.079.996-2.69,2.596-6.76,4.309-5.114,2.152-11.814,2.262-17.171,2.262-.055.686-.11,1.373-.165,2.059,3.643.653,17.971.855,16.379,8.013-1.482,6.663-8.788,4.797-13.391,3.888-.805-.003-1.61-.007-2.416-.01-6.719-4.34-2.511-5.448-4.011-10.578-2.454-8.397-3.245-4.344-10.943-10.017-12.802-9.435,4.281-25.971,14.918-27.963,6.505-4.408,8.252-8.461,16.123-8.614,3.961-.077,15.783,2.368,16.704,7.429-1.158,9.099-.596,19.115,4.838,26.697,1.295,3.624,2.589,7.248,3.884,10.872Zm-21.839-9.64c-1.276-1.695-2.406-3.196-3.687-4.898,3.124-5.797,6.559-1.756,11.209-.38,1.438-5.456,1.079-10.683,1.079-16.313-3.83-1.858-7.69-3.73-13.196-6.401-9.708,2.689-26.055,5.758-28.432,17.059-.044.39-.041.78.009,1.169,4.286,15.656,21.615,19.579,33.018,9.763Z"/><path class="cls-27" d="m84.183,94.204c-.805-.003-1.61-.007-2.416-.01-8.088-.622-9.183-2.694-7.779-15.015-23.384-7.77-12.172-16.554-5.599-34.755-.809.003-1.619.006-2.428.009-3.644,3.235-7.289,6.47-10.933,9.705,4.135,5.695-.818,10.304.749,16.801,1.38,5.719,5.24,6.077,8.917,9.908,11.238,11.707,12.905,20.363,31.648,15.789-4.053-.81-8.106-1.62-12.16-2.431Z"/><path class="cls-12" d="m68.39,44.423c-6.573,18.201-17.786,26.985,5.599,34.755-1.404,12.321-.309,14.394,7.779,15.015-6.719-4.34-2.511-5.448-4.01-10.578-2.454-8.397-3.245-4.344-10.943-10.017-12.802-9.435,4.281-25.971,14.918-27.963.108-1.829.216-3.659.324-5.488-5.501.508-8.684,2.058-13.667,4.275Z"/><path class="cls-12" d="m55.029,54.137c3.644-3.235,7.289-6.47,10.933-9.705-2.425.812-4.851,1.625-7.276,2.438-4.071,5.242-8.143,10.485-12.215,15.726,0,0,.092.066.092.066,2.822-2.842,5.644-5.683,8.466-8.525Z"/><path class="cls-20" d="m55.778,70.938c1.38,5.719,5.24,6.077,8.917,9.908,11.238,11.707,12.905,20.363,31.648,15.789,3.07-3.737,6.139-7.474,9.912-12.066,1.964-.166,5.694-.48,9.423-.795.237-.62.474-1.241.711-1.861,2.217,2.887,4.435,5.775,6.652,8.662.791,6.472,1.582,12.944,2.374,19.415-4.517,10.389-21.23,45.072-36.077,30.13,2.166-1.208,4.338-2.419,6.511-3.631-.513-.614-1.027-1.229-1.54-1.843-22.443,4.051-32.655-4.34-45.375-21.026.236-10.006.116-21.275-2.794-30.964-2.683-8.934-4.012-11.006.422-19.994,2.822-2.842,5.644-5.683,8.466-8.525,4.135,5.695-.818,10.304.749,16.801Zm25.54,48.63c4.521-.139,21.936-2.879,19.272-11.015-1.247-3.81-17.685-4.791-21.434-6.831-8.394-4.569-16.533-9.604-26.099-15.219-6.436,18.896,9.098,33.654,28.261,33.066Zm-11.068,1.368c-.326.582-.651,1.163-.977,1.745,1.494,1.387,2.892,3.844,4.498,3.989,12.108,1.091,25.54,9.925,35.304-5.734-13.041,0-25.933,0-38.825,0Z"/><path class="cls-2" d="m96.343,96.635c3.07-3.737,6.139-7.474,9.912-12.066,1.964-.166,5.694-.48,9.423-.795.237-.62.474-1.241.711-1.861,2.217,2.887,4.435,5.775,6.652,8.662,1.008-1.783-2.464-6.926,3.66-4.871-2.022-4.856-4.043-9.713-6.065-14.569-.413.004-.826.008-1.239.012,1.294,3.624,2.589,7.248,3.884,10.872-.336.189-.671.377-1.007.566-2.139-2.038-8.345-9.705-11.148-10.588-8.746-2.754,1.081-1.639-5.836,1.677-2.079.996-2.69,2.596-6.76,4.309-5.114,2.152-11.814,2.262-17.171,2.262-.055.686-.11,1.373-.165,2.059,3.643.653,17.971.855,16.379,8.013-1.482,6.663-8.788,4.797-13.391,3.888,4.053.81,8.106,1.62,12.16,2.431Z"/><path class="cls-46" d="m68.425,62.616c4.286,15.656,21.615,19.58,33.018,9.764-1.276-1.695-2.406-3.196-3.687-4.898,3.124-5.797,6.559-1.756,11.209-.38,1.438-5.456,1.079-10.683,1.079-16.313-3.83-1.858-7.69-3.73-13.196-6.401-9.708,2.689-26.055,5.758-28.432,17.059,6.073-4.03,12.147-8.059,18.22-12.088,8.414-3.262,14.126-1.767,15.659,2.946-2.263,2.083-4.114,3.787-5.966,5.491,2.91,6.703-3.006,5.785-6.224,7.198l-.46.007-.46-.009c-.439.033-.877.065-1.316.098,4.184,2.225,5.188,2.739,8.287,6.884-6.414,4.475-13.688,1.182-21.208-.085.321-3.111.511-4.956.702-6.802-2.409-.823-4.817-1.647-7.225-2.47Z"/><path class="cls-43" d="m90.105,64.994c3.218-1.413,9.134-.495,6.224-7.198.539-2.291,1.078-4.583,1.984-8.437-3.299,0-7.488,0-11.678,0-6.073,4.029-12.147,8.059-18.22,12.088-.044.39-.041.78.009,1.169,2.409.823,4.817,1.647,7.226,2.47,4.073,0,8.146.002,12.219.003.439-.033.877-.065,1.315-.097-3.489-.7-6.976-1.401-11.129-2.235,5.237-6.805,19.456-9.414,12.05,2.237Z"/><path class="cls-44" d="m53.057,86.502c-6.436,18.896,9.098,33.654,28.261,33.066,4.521-.139,21.936-2.879,19.272-11.015-1.247-3.81-17.685-4.791-21.434-6.831-8.394-4.569-16.533-9.604-26.099-15.219Z"/><path class="cls-22" d="m109.075,120.937c-13.041,0-25.933,0-38.825,0-.326.582-.651,1.163-.977,1.745,1.494,1.387,2.892,3.844,4.498,3.989,12.108,1.091,25.54,9.925,35.304-5.734Z"/><path class="cls-16" d="m87.869,65.089c-4.073-.001-8.146-.002-12.219-.003-.191,1.845-.381,3.691-.702,6.802,7.519,1.267,14.794,4.56,21.208.085-3.099-4.145-4.102-4.659-8.287-6.884Z"/><path class="cls-50" d="m90.105,64.994c7.406-11.651-6.814-9.042-12.05-2.237,4.153.834,7.64,1.535,11.129,2.235.001,0,.461.009.461.009l.46-.007Z"/><path class="cls-35" d="m86.635,49.359c4.19,0,8.379,0,11.678,0-.906,3.854-1.445,6.146-1.984,8.437,1.851-1.704,3.702-3.408,5.966-5.491-1.533-4.713-7.246-6.208-15.659-2.946Z"/></svg>