<?xml version="1.0" encoding="UTF-8"?><svg id="Layer_1" xmlns="http://www.w3.org/2000/svg" viewBox="0 0 255.491 218.937"><defs><style>.cls-1{fill:#ebb1ac;}.cls-2{fill:#e1a291;}.cls-3{fill:#f8d89a;}.cls-4{fill:#f7dabb;}.cls-5{fill:#fcf5de;}.cls-6{fill:#f7cbad;}.cls-7{fill:#e8ab81;}.cls-8{fill:#f0655a;}.cls-9{fill:#fcf7e0;}.cls-10{fill:#c73d32;}.cls-11{fill:#f2c19e;}.cls-12{fill:#f2a488;}.cls-13{fill:#751f1f;}.cls-14{fill:#dd945c;}.cls-15{fill:#f4bf9d;}.cls-16{fill:#f8dbbc;}.cls-17{fill:#eb6c49;}.cls-18{fill:#f4c1a1;}.cls-19{fill:#efac59;}.cls-20{fill:#ee7453;}.cls-21{fill:#e0a3a3;}.cls-22{fill:#f6a68a;}.cls-23{fill:#b57269;}.cls-24{fill:#ea8b51;}.cls-25{fill:#f7d0d8;}.cls-26{fill:#ee866e;}.cls-27{fill:#f7db8e;}.cls-28{fill:#f7c9cf;}.cls-29{fill:#ed6447;}.cls-30{fill:#f6ca9c;}.cls-31{fill:#fcfaf5;}.cls-32{fill:#e7aca7;}.cls-33{fill:#8c413f;}.cls-34{fill:#c13e38;}.cls-35{fill:#f09173;}.cls-36{fill:#c7969c;}.cls-37{fill:#ef9273;}.cls-38{fill:#fbf0c0;}.cls-39{fill:#ebb97a;}.cls-40{fill:#f5bc92;}.cls-41{fill:#faeebc;}.cls-42{fill:#fcf8f6;}.cls-43{fill:#f3ad7e;}.cls-44{fill:#f5a481;}.cls-45{fill:#98665d;}.cls-46{fill:#c17953;}.cls-47{fill:#f9f5d2;}.cls-48{fill:#f1d3a2;}.cls-49{fill:#f4cfa0;}.cls-50{fill:#f9f2c4;}.cls-51{fill:#f2c4bd;}.cls-52{fill:#f3b3bb;}.cls-53{fill:#eb765f;}.cls-54{fill:#ac332c;}.cls-55{fill:#cc704a;}.cls-56{fill:#c77849;}.cls-57{fill:#faed9e;}.cls-58{fill:#f6e2ba;}.cls-59{fill:#f1bfaa;}.cls-60{fill:#faf4c7;}.cls-61{fill:#eb5846;}.cls-62{fill:#c86439;}.cls-63{fill:#7a1a1c;}.cls-64{fill:#c76868;}.cls-65{fill:#ef956d;}.cls-66{fill:#fbf6da;}.cls-67{fill:#cc783b;}.cls-68{fill:#f6b093;}.cls-69{fill:#f1af59;}.cls-70{fill:#d17f56;}.cls-71{fill:#de9a69;}.cls-72{fill:#92492b;}.cls-73{fill:#a65438;}.cls-74{fill:#ef7957;}.cls-75{fill:#fbf6d7;}.cls-76{fill:#f8ddc4;}.cls-77{fill:#fadcd7;}.cls-78{fill:#f9cbb7;}.cls-79{fill:#f8cf8b;}.cls-80{fill:#f7e0b3;}.cls-81{fill:#f1886a;}.cls-82{fill:#f2c78e;}.cls-83{fill:#9b5136;}.cls-84{fill:#f9d7dd;}.cls-85{fill:#fbdab8;}.cls-86{fill:#f18567;}.cls-87{fill:#f7cf9c;}.cls-88{fill:#ce8576;}.cls-89{fill:#bc7152;}.cls-90{fill:#eaa76c;}.cls-91{fill:#fbf2bc;}.cls-92{fill:#e6afa2;}.cls-93{fill:#6d1812;}.cls-94{fill:#f4c4a1;}.cls-95{fill:#e28e8b;}.cls-96{fill:#ab7370;}.cls-97{fill:#f8dbbf;}.cls-98{fill:#82381d;}.cls-99{fill:#b87d77;}.cls-100{fill:#f1c0d3;}.cls-101{fill:#ed8186;}.cls-102{fill:#a13c29;}.cls-103{fill:#8f544b;}.cls-104{fill:#f4c6a8;}.cls-105{fill:#954827;}.cls-106{fill:#ecb48a;}.cls-107{fill:#f3a488;}.cls-108{fill:#f47e6a;}.cls-109{fill:#d87156;}.cls-110{fill:#a46644;}.cls-111{fill:#fad9df;}.cls-112{fill:#a44c2d;}.cls-113{fill:#f69f87;}.cls-114{fill:#eaab70;}.cls-115{fill:#d89f72;}.cls-116{fill:#9d6365;}.cls-117{fill:#f6b36c;}</style></defs><path class="cls-34" d="m3.531,77.542c.467-.113.937-.215,1.408-.307,1.691.072,3.381.143,5.071.213-.953,1.863-3.049,4.156-.452,5.698,6.677,3.965,9.112,11.099,13.444,16.803-.043.599-.085,1.199-.128,1.798-2.13-1.672-4.259-3.345-6.389-5.018-3.501-6.947-12.005-10.522-12.956-19.188Z"/><path class="cls-102" d="m10.011,77.449c-1.691-.071-3.381-.143-5.072-.214.034-.466.119-.923.254-1.372,6.378-1.115,14.313-.009,14.405-10.088.589-1.049,1.177-2.098,1.765-3.147,10.264.89,20.705-1.79,30.851,1.526-8.505.035-17.013.157-25.519.062-3.55-.04-5.933.546-4.538,4.881-.833,2.089-1.666,4.177-2.499,6.266-3.216.696-6.432,1.391-9.648,2.087Z"/><path class="cls-13" d="m3.531,77.542c.951,8.666,9.455,12.241,12.955,19.189-.019,1.108-.037,2.214-.055,3.321-7.231-5.703-12.1-13.236-16.431-21.186.838-1.343,2.062-1.66,3.531-1.324Z"/><path class="cls-63" d="m16.431,100.051c.018-1.107.036-2.213.055-3.321,2.13,1.672,4.26,3.344,6.39,5.017,1.895,3.602,4.847,6.239,7.948,8.753,2.393,1.941,4.407,4.034,2.072,7.33-.641.149-1.281.298-1.923.448-.42-.143-.851-.234-1.294-.271,1.182-7.76-6.175-9.041-9.925-13.059,0,0,.013-.002.013-.002-.115-2.31-1.405-3.821-3.336-4.895Z"/><path class="cls-93" d="m19.598,65.774c-.091,10.079-8.026,8.974-14.405,10.088,2.653-2.277,5.305-4.555,7.958-6.834,2.945.491,3.625-3.501,6.447-3.254Z"/><path class="cls-100" d="m242.016,206.491c-5.533,5.397-13.704,5.303-19.811,9.506-4.033-.988-7.373,2.093-11.268,1.917-1.18-.263-2.361-.526-3.541-.79-4.332-5.217-26.171-.02-17.517-7.533,5.656-4.91,24.596-1.72,27.43-8.43,1.491-1.746,5.238-.856,5.175-4.42,5.184-.816,10.02-2.538,14.376-5.51,4.673-4.795.158-9.627.059-14.442,6.775.346,8.968-3.263,8.171-9.452,2.155,1.569,4.309,3.139,6.464,4.709,1.08,1.606,2.16,3.213,3.24,4.819.154,3.762.307,7.524.461,11.286-1.409,1.963-2.275,4.112-2.251,6.566-3.884,3.719-8.5,6.755-10.989,11.774Z"/><path class="cls-105" d="m251.63,57.685c.588,1.408,1.176,2.815,1.765,4.226-11.082-4.929-20.307-13.735-32.808-15.712-1.714-1.567-3.428-3.135-5.142-4.703.494-1.801,1.994-4.249,1.319-5.297-4.421-6.861,1.385-5.463,4.437-5.531-3.877-8.483-12.228-6.556-18.752-8.842-1.078-1.622-2.156-3.244-3.234-4.865.618-.065,1.235-.131,1.853-.196,5.392,4.312,10.431,4.918,14.81-1.408.474-.028.949-.042,1.424-.04,8.021,8.737,14.68,18.188,16.786,30.255.237,1.361,2.373,2.502,4.085,1.453,2.828-1.733,2.557-1.709,2.902,1.888.502,5.221,6.593,6.264,10.555,8.772Z"/><path class="cls-33" d="m68.477,165.5c-4.276,1.058-8.565-3.627-12.836.029-1.728-.193-3.735.377-4.766-1.734,3.126.02,5.78-.079,2.86-4.298-2.342-3.384-1.808-6.55,1.753-8.952,6.193-1.081,2.033,5.47,4.998,6.769.126,3.147,1.667,4.866,4.915,4.861.249,1.824,3.191,1.164,3.075,3.326Z"/><path class="cls-10" d="m37.799,117.972c-1.182-1.364-2.292-.427-3.415.106-.497-.076-.992-.157-1.487-.246,2.335-3.298.321-5.391-2.072-7.332-3.1-2.514-6.053-5.15-7.948-8.753.042-.6.084-1.199.127-1.797,6.758,4.825,13.126,10.006,16.494,17.942-.567.027-1.133.053-1.698.079Z"/><path class="cls-96" d="m55.488,150.544c-3.561,2.403-4.095,5.568-1.753,8.952,2.92,4.219.266,4.318-2.86,4.298-1.141-1.126-2.283-2.252-3.426-3.38-.088-.971-.175-1.94-.262-2.909,2.559.587,3.888-.101,3.513-3.041-.475-3.715,1.194-5.951,4.978-6.487-.063.854-.127,1.711-.19,2.568Z"/><path class="cls-55" d="m220.586,46.199c12.501,1.977,21.726,10.783,32.808,15.712.504.208,1.01.42,1.515.631-.799,1.424-2.199,1.692-3.634,1.89-2.018-.688-4.038-1.374-6.058-2.061-3.191-2.859-6.95-3.605-11.889-3.287,4.958,8.684,6.282,28.502,14.99,29.661l.123-.034c-4.082,2.006-7.794,4.269-6.791,9.796-1.024-2.179-2.05-4.359-3.075-6.538,1.903-7.035-.15-13.41-3.278-19.606-1.55-3.825-1.956-9.088-5.527-10.859-6.765-3.357-9.188-8.37-9.186-15.306Z"/><path class="cls-36" d="m242.016,206.491c2.489-5.019,7.105-8.056,10.989-11.774-.774,6.617-4.601,10.39-10.989,11.774Z"/><path class="cls-61" d="m39.498,117.891c-3.37-7.935-9.738-13.116-16.496-17.941-4.332-5.706-6.767-12.84-13.444-16.805-2.597-1.542-.501-3.835.452-5.698,3.217-.694,6.433-1.39,9.648-2.084-1.966,8.303-1.501,3.196,1.803,10.232,1.916,4.08,2.72,8.553,8.079,9.575,2.714,1.607,5.428,3.213,8.142,4.819,1.073,2.178,1.676,4.793,4.749,5.118.057,1.067.113,2.134.17,3.2,1.63,5.678,3.922,11.167,8.147,15.283,3.609,3.517,5.621,7.176,4.855,12.196-.39.199-.802.277-1.237.234-1.007-9.277-8.464-13.272-14.868-18.13Z"/><path class="cls-29" d="m29.541,95.171c-5.359-1.022-6.164-5.495-8.08-9.575-3.304-7.036-3.769-1.929-1.803-10.232.833-2.091,1.666-4.18,2.494-6.268,5.857,1.223,16.261-9.408,12.283,3.22-2.686,1.763-3.73,4.91-6.035,7.173-3.481,3.416-4.758,8.767,1.011,12.485.043,1.066.087,2.131.13,3.197Z"/><path class="cls-109" d="m34.436,72.316c3.977-12.628-6.427-1.996-12.284-3.22-1.39-4.336.993-4.921,4.543-4.881,8.505.095,17.013-.026,25.519-.062.654.513,1.31,1.027,1.966,1.542-1.293,3.033-5.213.855-6.75,3.401-4,1.795-8.405,2.859-11.48,6.33-.504-1.037-1.009-2.073-1.513-3.11Z"/><path class="cls-72" d="m81.761,39.739c1.012-.002,2.024-.004,3.036-.006.137.606.273,1.212.41,1.818-.163.425-.252.866-.265,1.321-1.684.494-1.467,2.035-1.804,3.272-7.373,2.969-8.415,10.246-11.156,16.366-1.543.839-2.946,2.074-4.907,1.726-.621-.629-1.241-1.258-1.862-1.887,2.073-6.422,3.947-12.716,11.33-15.648,2.299-.913,3.509-4.564,5.217-6.962Z"/><path class="cls-83" d="m65.214,62.348c.621.629,1.241,1.258,1.862,1.887-.049,1.816-.455,3.73,1.386,5.025.955,6.91-3.708,2.971-6.207,3.209-1.44-1.987,3.139-5.55-1.741-6.636l.057.059c.823-2.13,2.485-3.162,4.644-3.544Z"/><path class="cls-83" d="m47.429,69.096c1.537-2.546,5.458-.368,6.75-3.401,2.293-5.188,4.239.83,6.39.197,0,0-.056-.059-.056-.059-3.036,6.397-8.713,2.216-13.084,3.262Z"/><path class="cls-28" d="m207.397,217.125c-8.568,1.862-17.483-1.246-25.966,1.813-8.651-1.026-17.302-2.053-25.953-3.079-4.163-5.495-11.505-3.179-16.472-6.697,6.077-5.303,13.747-2.317,20.59-3.751,6.155-1.29.454-2.922.697-4.272,0,0,.687.03.687.03l.685-.064c9.139,3.317,18.605,1.596,27.945,1.814,8.153-.685,16.503,1.866,24.494-1.487,1.07-.09,2.139-.18,3.209-.27-2.834,6.711-21.775,3.52-27.43,8.43-8.654,7.513,13.185,2.317,17.517,7.533Z"/><path class="cls-51" d="m133.975,209.579c-.385-.191-.793-.278-1.223-.262-6.073-3.191-12.146-6.383-18.219-9.574-1.708-2.692-3.78-5.024-6.576-6.64,11.393,2.417,21.708,6.81,29.388,16.026l-3.37.449Z"/><path class="cls-92" d="m114.533,199.743c-1.145,1.67-2.29,3.339-3.436,5.009-.472-.185-.957-.324-1.455-.419-.551-.471-1.103-.942-1.654-1.413-2.734-2.794-5.468-5.588-8.202-8.383,2.575-1.324,4.958-3.741,8.171-1.435,2.795,1.617,4.868,3.948,6.575,6.641Z"/><path class="cls-45" d="m133.975,209.579c1.123-.15,2.246-.299,3.37-.449.553.01,1.106.021,1.659.031,4.967,3.518,12.31,1.202,16.472,6.697-7.207-1.957-15.578.067-21.501-6.279Z"/><path class="cls-77" d="m139.004,209.161c-.553-.01-1.106-.02-1.659-.031-7.68-9.217-17.995-13.609-29.388-16.027-3.213-2.306-5.596.111-8.171,1.435-.579-.473-1.157-.945-1.735-1.417-1.044-3.267-2.089-6.534-3.134-9.8,1.03.009,2.062.017,3.093.026.19,2.134.279,5.226,3.043,4.64,6.643-1.408,13.45.808,19.97-1.352,3.869-.93,6.06,3.095,9.569,3.236,1.127.019,2.251.037,3.376.055l.033.034c2.485,6.024,8.114,5.498,13.112,6.286,3.799,1.037,7.599,2.074,11.398,3.111.594.594,1.187,1.187,1.781,1.781-.243,1.35,5.458,2.982-.697,4.271-6.842,1.434-14.513-1.552-20.59,3.751Z"/><path class="cls-52" d="m68.477,165.5c.116-2.162-2.825-1.501-3.075-3.326-2.508-5.203.512-7.079,4.914-7.886,2.074-.38,4.235-.294,6.356-.419.592.085,1.185.169,1.778.252-5.54,3.679-7.607,6.633.664,9.919,3.082,1.224,5.069,5.201,7.555,7.923-2.824-.169-5.269-2.31-8.264-1.583-2.156-1.045-4.312-2.091-6.468-3.136-1.204-.482-2.81-.165-3.46-1.744Z"/><path class="cls-32" d="m78.405,170.38c2.995-.727,5.441,1.414,8.264,1.583,3.871,2.973,8.212,5.605,8.249,11.358,1.045,3.267,2.089,6.534,3.134,9.801-2.973.476-5.539-2.011-5.615-3.59-.468-9.674-8.67-13.313-14.031-19.151Z"/><path class="cls-84" d="m245.091,167.338c.797,6.19-1.397,9.798-8.171,9.453-1.137-.875-2.273-1.75-3.409-2.627-3.789-2.363-7.578-4.725-11.367-7.086-.04-.511-.16-1.003-.361-1.475.115-.619.231-1.238.346-1.856,4.784.37,2.112-6.82,6.725-6.622.981-.114,1.962-.227,2.943-.341,1.143.735,2.287,1.469,3.43,2.204,3.288,2.784,6.576,5.568,9.864,8.351Z"/><path class="cls-103" d="m233.51,174.165c1.137.875,2.273,1.751,3.41,2.626.099,4.814,4.614,9.646-.059,14.441.196-3.464-.839-5.978-4.813-6.222.418-4.773-3.514-6.113-6.488-8.21-4.046-3.056-8.699-.942-13.036-1.526,1.186-2.906,2.271-6.008,6.374-3.316,4.708,1.811,9.484,3.171,14.611,2.208Z"/><path class="cls-116" d="m245.091,167.338c-3.288-2.784-6.576-5.568-9.864-8.352-.036-1.161-.073-2.321-.109-3.482.172-.571.344-1.142.516-1.713,5.842,2.644,7.952,10.08,15.104,11.434,1.578.299.975,4.407.817,6.821-2.155-1.569-4.309-3.139-6.464-4.709Z"/><path class="cls-99" d="m202.766,199.444c6.775.57,13.369-.179,19.719-2.702.062,3.563-3.684,2.673-5.175,4.42-1.069.089-2.139.179-3.209.269-5.935-.059-11.87-.118-17.805-.177-.077-.466-.148-.934-.211-1.402,2.227-.136,4.454-.272,6.681-.408Z"/><path class="cls-56" d="m246.432,120.085c1.678.51,3.356,1.02,5.033,1.532.252.923.505,1.844.754,2.765-8.347.521-13.988,3.496-12.11,13.303-2.615,5.057-6.356,9.802-4.478,16.107-.169.571-.341,1.142-.511,1.715-3.213-1.899-5.837-4.025-3.114-8.184,5.85-8.528,3.897-21.183,14.426-27.237Z"/><path class="cls-98" d="m250.056,88.573c-.539.047-1.077.094-1.615.14,0,0-.122.034-.122.034-8.297-4.493-2.585-12.832,2.792-16.338-.034-.041-18.693-8.019-5.894-10.036.737.286,1.77.66,3.03,1.03,2.8.822,3.615.711,3.964.645.577-.109,1.604-.422,2.697-1.505.503,2.833.881,6.835.253,11.537-.886,6.636-3.367,11.608-5.107,14.493Z"/><path class="cls-67" d="m202.448,21.827c6.525,2.285,14.876.359,18.752,8.842-3.052.068-8.858-1.329-4.437,5.531.675,1.048-.825,3.497-1.317,5.297-.992-.592-1.985-1.184-2.979-1.776-1.429-7.128-7.256-11.176-11.472-16.351.484-.514.969-1.028,1.453-1.542Z"/><path class="cls-71" d="m212.467,39.72c.993.592,1.987,1.184,2.979,1.776,1.713,1.568,3.427,3.136,5.141,4.703-.003,6.936,2.42,11.949,9.185,15.305,3.571,1.772,3.977,7.035,5.527,10.86-3.716-.946-3.95-6.162-8.091-6.586-4.357-3.554-6.554-8.69-9.657-13.163.28-4.334-1.434-7.64-5.123-9.93.013-.988.027-1.977.04-2.965Z"/><path class="cls-62" d="m202.448,21.827c-.484.514-.969,1.028-1.453,1.542-1.609-1.088-3.218-2.177-4.827-3.266-.082-.491-.192-.975-.328-1.454-6.307-2.392-13.084-4.34-12.526-13.225,5.301,3.845,10.602,7.691,15.902,11.537,1.077,1.622,2.155,3.244,3.233,4.866Z"/><path class="cls-24" d="m183.313,5.424c-.558,8.885,6.219,10.833,12.528,13.224-8.982-.215-17.311,1.556-26.344.036-8.553-1.44-14.006-5.748-22.375-.125-.156,1.93-.927,3.288-3.107,3.336-1.212-16.418,36.361-3.939,37.276-17.741l-.038-.622c.687.631,1.373,1.262,2.06,1.893Z"/><path class="cls-1" d="m78.449,154.123c-.592-.085-1.185-.169-1.775-.253.564-1.52,2.881-2.971.187-4.622l-.164-.224c-6.633-5.761-13.836-3.61-21.034-1.512l.016.468c-3.784.533-5.453,2.769-4.978,6.484.376,2.94-.954,3.629-3.513,3.041-4.826-7.979,1.483-12.763,5.252-18.275.662-.427,1.325-.854,1.988-1.283.929.495,1.857.991,2.787,1.485-1.098,1.352-2.198,2.705-3.838,4.723h20.26c4.96,1.381,8.295,4.085,7.972,9.77-1.053.066-2.106.132-3.159.198Z"/><path class="cls-54" d="m54.428,137.948c-.663.428-1.326.855-1.988,1.282-3.822-7.814-9.883-14.088-14.643-21.257.567-.027,1.132-.053,1.699-.08,6.405,4.857,13.862,8.852,14.867,18.131.02.643.042,1.284.064,1.925Z"/><path class="cls-64" d="m55.488,150.544c.064-.857.127-1.714.19-2.568,0,.003-.016-.465-.016-.465,7.114-.926,13.973,1.698,21.035,1.513,0,0,.164.224.164.223-1.436,2.908-4.072,3.035-6.857,3.137-3.894.143-7.443,1.174-9.518,4.93-2.965-1.299,1.195-7.85-4.998-6.769Z"/><path class="cls-95" d="m60.487,157.313c2.074-3.756,5.624-4.787,9.518-4.93,2.785-.102,5.42-.229,6.857-3.137,2.694,1.653.377,3.104-.187,4.624-2.123.124-4.284.037-6.358.418-4.402.807-7.422,2.683-4.914,7.886-3.248.005-4.789-1.714-4.915-4.861Z"/><path class="cls-90" d="m246.432,120.085c-10.529,6.054-8.576,18.709-14.426,27.238-.043-2.133-.086-4.266-.129-6.4,3.814-4.187,9.011-20.907,9.812-26.662.712-5.113-7.259-18.753-4.893-22.417.594.042,1.188.084,1.782.126,1.025,2.18,2.051,4.359,3.075,6.538,4.156,6.625,2.822,14.465,4.78,21.576Z"/><path class="cls-73" d="m245.218,62.372c-12.799,2.017,5.86,9.995,5.894,10.036-5.377,3.506-11.09,11.845-2.792,16.338-8.709-1.158-10.032-20.977-14.991-29.66,4.939-.319,8.698.428,11.889,3.287Z"/><path class="cls-39" d="m238.577,91.97c-.594-.042-1.188-.084-1.78-.125.32-5.662-.069-11.188-3.123-16.201-1.932-3.435-5.438-5.84-6.466-9.866,4.141.425,4.375,5.641,8.091,6.587,3.128,6.195,5.181,12.57,3.278,19.606Z"/><path class="cls-8" d="m55.604,135.788c.765-5.02-1.247-8.679-4.855-12.196-4.224-4.117-6.516-9.606-8.147-15.284,9.373,1.452,18.139,4.526,26.093,9.767-.053,4.317-.106,8.633-.159,12.95-5.232-.91-9.472.869-12.931,4.763Z"/><path class="cls-86" d="m42.432,105.108c-3.073-.325-3.676-2.94-4.749-5.117-.284-3.329-1.499-6.812,1.566-9.598l.453-.408c1.851,2.061,5.2,2.229,6.427,5.078-7.487,3.076-.429,6.622-.322,9.943l-3.375.101Z"/><path class="cls-108" d="m42.432,105.108c1.125-.034,2.25-.067,3.375-.101,7.702,3.761,16.919,4.472,23.03,11.433-.048.545-.095,1.09-.143,1.635-7.954-5.241-16.72-8.315-26.093-9.767-.056-1.067-.113-2.133-.169-3.2Z"/><path class="cls-101" d="m55.604,135.788c3.46-3.894,7.699-5.673,12.933-4.761.58.064,1.158.127,1.736.189.056,1.143.111,2.286.166,3.43-4.215,2.128-9.413,1.548-13.225,4.788-.929-.496-1.857-.991-2.786-1.486-.022-.64-.044-1.281-.064-1.924.437.041.85-.037,1.24-.236Z"/><path class="cls-108" d="m39.249,90.394c-3.065,2.785-1.85,6.268-1.566,9.598-2.714-1.607-5.428-3.214-8.142-4.82-.043-1.066-.086-2.132-.128-3.197,3.28-.527,6.558-1.054,9.836-1.58Z"/><path class="cls-86" d="m39.249,90.394c-3.279.527-6.557,1.053-9.836,1.58-5.769-3.718-4.492-9.069-1.012-12.485,2.305-2.263,3.349-5.41,6.035-7.173.505,1.036,1.009,2.072,1.513,3.11-4.273,6.275,2.981,9.584,3.753,14.56l-.453.408Z"/><path class="cls-88" d="m90.114,28.199c1.506-.552,3.012-1.104,4.518-1.656-1.027,6.328-4.202,11.31-9.425,15.008-.136-.606-.273-1.212-.41-1.818-1.031-5.135,1.578-8.594,5.317-11.534Z"/><path class="cls-31" d="m83.139,46.143c.337-1.236.12-2.777,1.803-3.271,5.809.392,7.559-4.215,9.93-8.055,19.997-3.644,20.854,9.502,12.079,21.315-10.739,14.458-12.13,18.789-12.103,37.462.836,8.834-10.776,10.564-15.058,4.186-3.402-5.067-.066-26.062.409-31.912,2.973-4.13,1.296-8.781,1.481-13.223,1.174-2.014,2.438-4.007,1.459-6.503Z"/><path class="cls-114" d="m68.462,69.261c-1.842-1.295-1.435-3.21-1.386-5.025,1.961.348,3.365-.886,4.907-1.725,1.913.435,3.234-.802,4.692-1.657-.999,8.196-1.999,16.391-2.998,24.586-.075,3.679-.043,7.429-5.158,7.764-2.369-3.32-2.155-6.052.117-9.831,2.512-4.179,7.302-9.571-.174-14.112Z"/><path class="cls-4" d="m94.872,34.817c-2.372,3.84-4.122,8.447-9.931,8.055.014-.456.102-.897.265-1.322,5.222-3.697,8.397-8.679,9.424-15.008.63-1.035,1.26-2.069,1.89-3.103,1.074-.516,2.147-1.033,3.221-1.55.004,1.614.007,3.228.011,4.842.075,3.721-3.753,5.09-4.881,8.086Z"/><path class="cls-89" d="m76.674,60.854c-1.457.854-2.779,2.092-4.692,1.656,2.741-6.121,3.783-13.398,11.156-16.367.979,2.495-.285,4.489-1.459,6.503-1.669,2.736-3.337,5.472-5.005,8.207Z"/><path class="cls-70" d="m68.462,69.261c7.476,4.541,2.686,9.932.174,14.112-2.272,3.78-2.486,6.511-.117,9.833,0,.001.025.464.027.464-2.125-.014-4.252-.028-6.379-.041.383-2.293-2.687-4.91-.221-6.73,6.616-4.881,2.655-9.61.298-14.465,0,0,.009.035.01.036,2.5-.238,7.163,3.701,6.208-3.208Z"/><path class="cls-69" d="m124.086.399c3.932-.106,7.863-.212,11.792-.315-5.213,8.096-1.932,14.967,3.107,21.585-4.376,1.987-10.174,1.966-11.559,8.177-9.751-1.914-12.669-6.294-9.801-14.716,4.001-3.397,9.363-5.274,12.124-10.103-2.643-2.786-8.069,1.196-8.683-4.505,1.006-.041,2.013-.083,3.019-.124Z"/><path class="cls-46" d="m202.766,199.444c-2.227.136-4.454.272-6.681.406-7.749-.692-15.223,2.21-23.04,1.585-3.736-.299-7.53-3.777-11.382-.33l-.685.064s-.687-.03-.687-.03c-.593-.593-1.186-1.187-1.779-1.78,1.408-7.482,6.818-8.248,12.993-7.732-2.474,4.94-9.913,4.294,1.397,7.801,7.793,2.417,19.61-1.653,27.922-1.443.647.487,1.295.973,1.942,1.46Z"/><path class="cls-2" d="m161.662,201.104c3.852-3.448,7.646.031,11.382.33,7.817.626,15.291-2.277,23.04-1.585.064.47.134.937.209,1.404-2.267.408-4.898-.652-6.687,1.664-9.34-.218-18.806,1.504-27.945-1.814Z"/><path class="cls-21" d="m189.607,202.918c1.789-2.316,4.42-1.256,6.687-1.664,5.937.058,11.872.117,17.807.177-7.991,3.354-16.341.803-24.494,1.488Z"/><path class="cls-60" d="m130.589,189.871c-3.507-.14-5.698-4.166-9.568-3.235-.011-5.442-.022-10.884-.033-16.326,3.637-.598,33.712,14.55,26.129,1.628,4.83.423,7.955-2.587,7.394-6.583-.821-5.843,2.459-4.763,5.63-4.785-.194,6.132-11.413,22.373,6.793,18.067,8.1-1.916,4.807-5.469,7.921-12.403,2.111-4.701,11.62-2.411,4.876-8.919l.04-.155c3.444.031,6.889.014,10.331.105,4.255.111,4.279-1.986,2.708-4.988.629-3.921-1.812-8.747,3.346-11.333-3.376,12.135,2.161,21.149,13.016,21.189-2.71,2.618-5.42,5.235-8.13,7.853-12.908,4.564-23.727,12.146-37.731,13.563-12.82,1.297-26.113-1.397-38.981-1.825,2.739,3.567,4.499,5.858,6.258,8.149Z"/><path class="cls-42" d="m120.989,170.309c.011,5.442.021,10.884.033,16.326-6.519,2.16-13.326-.056-19.969,1.352-2.764.586-2.853-2.506-3.042-4.64-.165-9.043-6.15-14.477-12.392-19.658-2.122-1.761-4.468-3.149-3.82-6.445,7.057,1.858,12.493-1.422,20.394,1.508,7.227,2.68,12.277,9.598,18.796,11.557Z"/><path class="cls-14" d="m171.505,191.626c-6.174-.516-11.585.25-12.993,7.732-3.801-1.037-7.6-2.074-11.399-3.11-3.428-4.058-7.819-6.113-13.113-6.287,0,0-.033-.034-.033-.035,1.017-4.849,4.909-3.121,7.829-3.291,13.724-.8,28.091,6.086,41.075-3.488,6.018-2.273,12.67-3.455,16.476-9.543.567-.576,1.134-1.152,1.701-1.728,2.695.577,5.39,1.153,8.085,1.729-2.91,2.722-8.875.726-9.88,6.389-10.002,2.084-17.253,10.723-27.749,11.631Z"/><path class="cls-82" d="m182.871,183.148c-12.983,9.573-27.351,2.688-41.075,3.488-2.92.17-6.812-1.558-7.829,3.291-1.125-.018-2.249-.037-3.376-.055-1.761-2.291-3.521-4.582-6.26-8.149,12.868.428,26.161,3.122,38.981,1.825,14.005-1.417,24.824-8.998,37.73-13.56,0,.002.09.582.089.58-.063.433-.091.87-.083,1.31-.567.576-1.134,1.152-1.701,1.728-5.967,2.362-11.955,4.687-16.476,9.543Z"/><path class="cls-111" d="m81.799,157.245c-.648,3.296,1.698,4.683,3.82,6.445,6.242,5.181,12.227,10.615,12.392,19.658-1.032-.009-2.063-.017-3.094-.026-.037-5.753-4.377-8.386-8.248-11.359-2.486-2.722-4.473-6.699-7.555-7.923-8.272-3.285-6.204-6.24-.664-9.919,1.052-.064,2.105-.13,3.16-.196.064,1.107.126,2.213.189,3.319Z"/><path class="cls-82" d="m134,189.961c5.295.173,9.685,2.229,13.113,6.287-4.999-.788-10.628-.263-13.113-6.287Z"/><path class="cls-110" d="m210.821,176.854c-3.708,1.589-8.166.425-11.567,3.142,1.004-5.663,6.969-3.668,9.879-6.39,2.158-3.69,5.341-5.84,9.597-6.376,1.391,1.528,1.249,3.111.169,4.728-4.103-2.691-5.187.41-6.374,3.316-.567.527-1.135,1.054-1.704,1.581Z"/><path class="cls-9" d="m209.173,162.131c-10.855-.039-16.392-9.053-13.017-21.189,5.022-2.958,11.69-.448,16.268-4.886,5.24-1.914,8.626-13.924,13.02-3.771,3.434,7.936-10.532,11.984-.043,18.438-.019,2.764,2.25,4.296,3.454,6.4-4.614-.198-1.942,6.992-6.724,6.623-4.318-.538-8.638-1.076-12.957-1.615Z"/><path class="cls-3" d="m228.854,157.124c-1.204-2.105-3.473-3.636-3.453-6.4.124-4.559.815-8.675,3.021-13.07,4.168-8.305,6.799-17.38,10.069-26.134-.019-2.154-.039-4.309-.058-6.463-2.919-4.064-5.879-7.996-5.354-13.551.497-5.259.419-10.572.593-15.861,3.054,5.013,3.443,10.539,3.123,16.201-2.367,3.663,5.604,17.303,4.892,22.416-.801,5.754-5.998,22.475-9.81,26.661-1.812,5.277-6.99,10.537-.081,15.86-.981.114-1.962.227-2.943.341Z"/><path class="cls-80" d="m209.173,162.132c4.319.538,8.639,1.077,12.957,1.615-.117.618-.232,1.237-.344,1.856-7.86-2.409-13.169,5.799-20.654,4.966,0,0-.091-.579-.09-.582,2.711-2.62,5.421-5.238,8.13-7.855Z"/><path class="cls-23" d="m218.899,171.957c1.08-1.616,1.222-3.199-.167-4.729,1.138-.051,2.275-.101,3.411-.15,3.789,2.362,7.579,4.724,11.367,7.086-5.128.964-9.904-.396-14.612-2.207Z"/><path class="cls-115" d="m222.144,167.078c-1.136.05-2.273.099-3.411.15-4.258.538-7.441,2.688-9.599,6.378-2.696-.576-5.391-1.152-8.086-1.728-.007-.44.02-.877.084-1.31,7.486.835,12.795-7.373,20.655-4.964.197.472.317.963.357,1.475Z"/><path class="cls-7" d="m231.797,156.783c-6.909-5.323-1.73-10.583.081-15.86.042,2.134.085,4.268.128,6.401-2.723,4.157-.099,6.283,3.114,8.183.034,1.159.071,2.319.107,3.48-1.143-.734-2.287-1.469-3.43-2.203Z"/><path class="cls-19" d="m196.168,20.103c1.609,1.089,3.218,2.178,4.827,3.266,4.216,5.175,10.043,9.223,11.472,16.351-.013.988-.026,1.977-.04,2.968-5.259-5.224-8.579-13.137-17.823-12.848-.082-.537-.142-1.078-.181-1.62.581-2.706,1.163-5.412,1.744-8.117Z"/><path class="cls-50" d="m233.673,75.644c-.175,5.289-.096,10.602-.593,15.861-.525,5.555,2.435,9.487,5.355,13.551-7.727,1.549-14.658-12.056-13.842-17.551,1.921-12.94,9.787-8.461-1.786-20.353-2.018,7.917-3.762,14.761-5.506,21.604-4.788-3.761,2.147-10.417.163-13.611-4.768-7.678-7.68.521-13.239,2.109-.531.01-1.063.013-1.594.01,4.861-12.138-9.318-16.595-17.118-22.157,8.231-4.891,15.792-7.485,13.904-17.086,7.86,2.613,12.453,9.278,18.133,14.596,3.103,4.473,5.3,9.609,9.657,13.163,1.028,4.026,4.534,6.431,6.466,9.865Z"/><path class="cls-27" d="m217.55,52.615c-5.68-5.318-10.273-11.982-18.133-14.595-.085-1.02-.17-2.041-.254-3.061-1.44-2.57-5.484-1.764-6.44-4.962.627-.052,1.255-.105,1.882-.157,9.243-.288,12.562,7.625,17.822,12.849,3.688,2.286,5.403,5.593,5.123,9.927Z"/><path class="cls-117" d="m196.168,20.103c-.582,2.706-1.163,5.412-1.744,8.118-7.434-6.025-13.342-2.781-21.41-4.727-9.474-2.286-15.794-4.908-25.891-4.936,8.369-5.623,13.821-1.315,22.375.125,9.033,1.521,17.362-.251,26.344-.036.135.479.244.964.326,1.455Z"/><path class="cls-79" d="m147.123,18.558c10.097.028,16.417,2.65,25.891,4.936,8.068,1.947,13.976-1.298,21.41,4.727.039.542.099,1.082.181,1.619-.626.051-1.254.104-1.88.155-17.956-11.191-45.233-4.02-63.585.089-.571-.08-1.143-.16-1.714-.24,1.385-6.209,7.183-6.189,11.559-8.175,1.709-.64,3.281,1.783,5.031.224,2.18-.048,2.951-1.406,3.107-3.336Z"/><path class="cls-62" d="m144.016,21.894c-1.75,1.559-3.322-.864-5.031-.224-5.039-6.619-8.32-13.49-3.107-21.586,2.666,3.889,1.884,8.57,6.308,11.219,6.861,4.108,19.122-3.584,26.163-4.335,1.059.008,2.118.014,3.177.021,3.57.13,7.242.606,9.768-2.839-.917,13.805-38.49,1.326-37.278,17.744Z"/><path class="cls-66" d="m81.799,157.245c-.062-1.106-.125-2.212-.189-3.319.322-5.685-3.014-8.389-7.974-9.77-1.167-3.24-1.236-6.477.032-9.71.044-2.1,1.082-3.231,3.215-3.294,8.839-.09,13.412-5.218,9.146-10.999-2.321-3.146-5.351-7.654-10.855-6.948-2.611-1.843-5.419-3.464-7.794-5.572-6.534-5.797-6.184-9.122,1.163-13.965,0,0-.025-.463-.025-.464,5.115-.336,5.083-4.086,5.158-7.765,2.776-.332,2.794-2.372,3.243-4.551,1.033-5.016.509-10.388,3.28-15.02-.475,5.85-3.811,26.845-.409,31.912,4.282,6.378,15.894,4.647,15.058-4.186,2.527-1.201,3.635-3.369,3.184-5.95-1.468-8.398,3.295-9.521,9.856-8.739q-2.025,12.718,6.468,13.186c.747,4.692-1.185,6.92-5.766,8.78-12.751,5.177-15.663,10.457-13.728,22.076.035,4.001.3,8.016.058,12.001-.502,8.263,9.165,20.509,17.858,22.319l.004.008c5.082,2.924,11.634-1.581,16.342,3.23,1.764.175,3.729-.278,4.958,1.577.841,7.914,8.117,7.33,13.037,9.857,7.583,12.922-22.492-2.226-26.129-1.628-6.519-1.959-11.569-8.877-18.796-11.557-7.901-2.93-13.337.349-20.394-1.508Z"/><path class="cls-25" d="m73.669,134.447c-1.269,3.232-1.199,6.469-.033,9.709-6.512,0-13.024,0-20.26,0,1.64-2.018,2.74-3.371,3.838-4.723,3.811-3.24,9.009-2.659,13.224-4.79,1.076-.067,2.154-.132,3.231-.196Z"/><path class="cls-95" d="m76.697,149.024c-7.061.185-13.92-2.439-21.035-1.513,7.199-2.097,14.402-4.248,21.035,1.513Z"/><path class="cls-65" d="m70.272,131.216c-.578-.063-1.156-.126-1.736-.19.051-4.318.104-8.635.158-12.951.048-.545.095-1.09.142-1.635,2.862,1.3,3.238,3.816,3.197,6.535-.481,2.77.898,5.936-1.761,8.241Z"/><path class="cls-113" d="m72.032,122.975c.041-2.719-.335-5.235-3.197-6.535-6.109-6.96-15.327-7.672-23.029-11.433-.107-3.321-7.165-6.867.322-9.943,4.257-.053,8.513-.105,12.77-.158,0,0-.149.646-.149.646-3.336,3.897-5.712.004-5.59,5.743.083,3.913,16.081,11.715,18.815,13.558,1.269,2.698,2.934,5.393.059,8.121Z"/><path class="cls-30" d="m72.032,122.975c2.875-2.728,1.21-5.423-.059-8.121,1.075-.002,2.151-.003,3.226-.005,4.861,4.991,3.275,10.647,1.684,16.304-2.134.062-3.171,1.194-3.216,3.294-1.076.065-2.153.13-3.23.196-.055-1.141-.11-2.285-.166-3.427,2.658-2.304,1.279-5.47,1.76-8.24Z"/><path class="cls-112" d="m62.244,72.433c2.356,4.855,6.317,9.584-.298,14.465-2.466,1.82.604,4.437.221,6.73-1.139.641-2.278,1.283-3.418,1.924,0,0,.15-.646.149-.646-4.942-9.795-1.293-11.139,3.345-22.473Z"/><path class="cls-91" d="m129.14,30.085c18.352-4.109,45.629-11.28,63.585-.089.954,3.198,4.999,2.393,6.44,4.961-7.107-.439-17.435-8.644-23.694-2.885-7.166,6.594.861,9.834,1.555,15.351.647,5.138-4.354,5.012-1.254,10.174,1.813,3.02,9.942-2.674,10.474,5.007-5.219-5-11.782-2.891-17.856-3.372-.55-.529-1.1-1.058-1.649-1.588-3.781-7.008-20.866-7.063-27.666-4.724-7.576,2.605-8.382,4.081-10.014,12.773-7.25.994-12.18,6.138-17.846,9.966-7.88-15.19,6.09-35.208,23.228-32.823-5.393-7.064-25.601-16.269-34.689-16.105-.003-1.614-.007-3.228-.011-4.842.602-1.123,1.205-2.247,1.808-3.372,3.073-.244,3.563-2.931,4.722-4.983,2.543,1.241,8.314-3.08,6.976,4.908-1.57,9.374,6.317,14.777,15.891,11.642Z"/><path class="cls-5" d="m99.753,26.732c9.087-.163,29.296,9.042,34.689,16.105-17.137-2.385-31.108,17.632-23.228,32.823-1.109,1.082-2.217,2.164-3.326,3.246-6.561-.782-11.324.341-9.856,8.739.451,2.581-.657,4.749-3.184,5.95-.027-18.673,1.364-23.004,12.103-37.462,8.775-11.814,7.918-24.959-12.079-21.315,1.129-2.996,4.957-4.365,4.882-8.086Z"/><path class="cls-4" d="m80.199,65.869c-2.771,4.632-2.247,10.004-3.28,15.02-.449,2.179-.467,4.219-3.243,4.551,1-8.196,2-16.391,2.999-24.587,1.668-2.736,3.336-5.471,5.005-8.207-.185,4.442,1.492,9.092-1.481,13.223Z"/><path class="cls-78" d="m58.749,95.552c1.139-.641,2.279-1.283,3.418-1.924,2.127.014,4.254.027,6.379.041-7.35,4.843-7.7,8.168-1.166,13.965,2.376,2.108,5.184,3.729,7.795,5.571.008.548.016,1.096.024,1.644-1.075.001-2.151.003-3.226.005-2.734-1.843-18.732-9.645-18.815-13.558-.121-5.74,2.254-1.847,5.59-5.743Z"/><path class="cls-57" d="m129.14,30.085c-9.573,3.135-17.461-2.268-15.891-11.642,1.338-7.988-4.433-3.667-6.976-4.908.788-6.04,8.126-7.552,8.711-13.535,7.698,4.253,6.605,9.491,2.641,15.131-2.868,8.42.049,12.801,9.801,14.715.571.079,1.142.159,1.714.239Z"/><path class="cls-76" d="m212.424,136.056c-4.578,4.438-11.245,1.928-16.268,4.886-5.157,2.586-2.716,7.413-3.345,11.335-2.607-4.415-4.551-11.335-11.355-7.213-3.392,2.055-6.857,7.277-1.685,12.095,0,0-.04.155-.04.154-14.466-.198-4.049-11.5-7.304-16.92-7.128,3.989-.681,12.356-5.818,16.768.49-4.448-.241-8.746-1.617-12.963,3.622-14.005,25.929-10.807,8.245-26.149-.474-5.362,5.666-8.394,9.749-5.934,1.999,1.204-1.195,8.452,3.097,10.845,1.983,5.659,2.702,12.695,9.61,14.415,5.956,1.483,11.709-.269,15.164-6.23,1.83,1.22,1.517,3.123,1.567,4.91Z"/><path class="cls-66" d="m166.609,157.161c5.137-4.411-1.31-12.778,5.819-16.767,3.255,5.419-7.162,16.722,7.304,16.92,6.744,6.508-2.765,4.219-4.876,8.92-3.115,6.934.179,10.487-7.921,12.403-18.205,4.306-6.986-11.935-6.792-18.067,1.315-.082,2.552-.324,3.289-1.596,1.059-.605,2.119-1.208,3.178-1.812Z"/><path class="cls-58" d="m163.431,158.974c-.737,1.271-1.974,1.513-3.289,1.595-3.171.022-6.451-1.058-5.63,4.785.561,3.996-2.564,7.007-7.394,6.583-4.92-2.527-12.195-1.943-13.037-9.856.537.005,1.074-.009,1.611-.044,1.609.126,3.614-.323,4.764.469,8.104,5.58,6.431-1.001,6.704-5.219,4.325.024,8.65.047,12.975.07,1.099.538,2.198,1.077,3.297,1.617Z"/><path class="cls-49" d="m179.772,157.16c-5.172-4.818-1.708-10.04,1.685-12.095,6.804-4.122,8.748,2.798,11.355,7.213,1.571,3.001,1.546,5.098-2.708,4.987-3.442-.09-6.887-.074-10.331-.105Z"/><path class="cls-115" d="m182.871,183.148c4.521-4.856,10.509-7.181,16.476-9.543-3.806,6.088-10.457,7.27-16.476,9.543Z"/><path class="cls-41" d="m212.424,136.056c-.05-1.787.263-3.69-1.567-4.91-2.654-4.713,2.403-8.471,1.605-12.954,3.172-3.3,1.436-6.623.046-9.945-.007-1.082-.014-2.165-.021-3.247,5.444,1.316,4.072,8.551,8.854,10.88,7.941,3.869,11.011,1.658,17.152-4.362-3.27,8.755-5.901,17.829-10.069,26.134-2.206,4.395-2.897,8.512-3.021,13.07-10.489-6.454,3.477-10.502.042-18.438-4.394-10.153-7.78,1.857-13.02,3.771Z"/><path class="cls-47" d="m238.492,111.519c-6.141,6.019-9.211,8.231-17.152,4.362-4.781-2.33-3.41-9.564-8.854-10.88,0,0-.009-.067-.009-.067,1.692-4.05,8.825-5.009,6.466-11.362-.547-1.606-1.094-3.211-1.641-4.817,1.744-6.843,3.488-13.686,5.506-21.604,11.574,11.893,3.707,7.414,1.786,20.353-.816,5.495,6.115,19.1,13.842,17.551.018,2.155.037,4.309.057,6.463Z"/><path class="cls-75" d="m186.245,62.604c-.532-7.681-8.66-1.987-10.473-5.007-3.099-5.162,1.901-5.035,1.254-10.174-.694-5.517-8.722-8.758-1.555-15.351,6.259-5.758,16.587,2.446,23.694,2.885.083,1.022.167,2.043.252,3.062,1.889,9.6-5.673,12.194-13.904,17.085,7.799,5.562,21.979,10.019,17.118,22.157.005,1.319-.314,2.547-.957,3.683-2.941,1.383-9.624-14.553-15.28-15.181-.049-1.053-.099-2.107-.148-3.16Z"/><path class="cls-48" d="m217.301,88.755c.547,1.606,1.094,3.211,1.641,4.817-.871.917-10.597,9.626-10.621,8.526.551,2.112,1.936,3.057,4.155,2.836,0,0,.009.067.009.067.007,1.082.014,2.165.021,3.247-4.544-1.729-9.479-3.129-8.207-9.747,18.214-.073,7.047-11.683-4.751-11.391,5.315-1.507,6.418-5.009,4.677-9.858,5.559-1.588,8.471-9.787,13.239-2.109,1.984,3.194-4.951,9.85-.163,13.611Z"/><path class="cls-97" d="m204.225,77.253c1.741,4.85.638,8.351-4.679,9.858-.624,1.608-1.247,3.217-1.869,4.826-.529-.022-1.059-.045-1.588-.069.427-5.206-.949-7.945-6.608-4.821,2.812-7.65,4.827-15.185-3.087-21.282,5.657.628,12.339,16.564,15.28,15.181.643-1.137.962-2.364.957-3.683.531.003,1.063,0,1.594-.01Z"/><path class="cls-18" d="m135.692,162.038c-.537.035-1.074.049-1.611.044-1.229-1.856-3.193-1.403-4.958-1.577-3.791-8.453-.133-17.563-2.073-25.97-2.492-1.802-4.131,5.008-6.632.271-1.759-3.332-.676-4.856,2.951-5.523,2.87-.527,2.424-3.137,2.323-5.278-.146-3.087-5.072-2.358-4.732-5.863-.151-32.505-26.714.596-8.147,3.223-5.505,10.027-6.083,10.107-14.959,2.61-.751-.634-1.984-.698-2.993-1.027-1.935-11.619.977-16.899,13.728-22.076,4.581-1.86,6.514-4.088,5.767-8.781.028-.587.055-1.172.082-1.757,8.916,3.795,5.69,2.925,11.406,1.816.913-.177,7.943-10.602,8.124-.274-1.048,1.643-2.095,3.286-3.143,4.929-1.181-.206-2.378-1.178-3.334.603-4.737,8.821-1.449,16.493,3.302,23.984-3.501,6.122-4.997,27.487.446,32.632,6.773,6.403,19.298-4.333,28.976,3.025l-.082.311c-4.325-.024-8.65-.047-12.976-.072-4.846-.884-8.561.958-11.466,4.751Z"/><path class="cls-16" d="m94.862,122.947c1.009.329,2.242.393,2.993,1.027,8.875,7.497,9.454,7.417,14.958-2.61,2.493-1.637,4.729-3.922,8.147-3.222-.34,3.505,4.586,2.777,4.732,5.863.101,2.141.547,4.75-2.323,5.278-3.627.667-4.71,2.191-2.951,5.523,2.5,4.737,4.139-2.073,6.632-.271,1.94,8.407-1.718,17.516,2.073,25.97-4.708-4.811-11.26-.307-16.342-3.23,15.763.405,7.55-23.232-2.909-24.257-19.964-1.955-4.801,19.376,2.905,24.249-8.692-1.81-18.36-14.056-17.858-22.319.242-3.984-.023-7.999-.058-12.001Z"/><path class="cls-6" d="m114.439,90.333c-.027.585-.054,1.171-.082,1.757q-8.494-.467-6.469-13.185c1.108-1.082,2.217-2.164,3.326-3.246,5.666-3.828,10.596-8.972,17.846-9.966,0,0,.204.203.203.202-2.805,2.473-6.083,4.585-8.306,7.499-3.75,4.917-8.929,9.554-6.518,16.937Z"/><path class="cls-38" d="m75.2,114.849c-.008-.548-.016-1.096-.024-1.644,5.503-.706,8.533,3.802,10.854,6.948,4.266,5.78-.307,10.909-9.146,10.999,1.592-5.656,3.178-11.312-1.684-16.303Z"/><path class="cls-94" d="m186.394,65.765c7.914,6.097,5.899,13.631,3.088,21.282-2.629,1.643-5.258,3.287-7.888,4.93,0,0-.326.002-.324.002-.492.002-.986-.007-1.479-.024.034-6.994,9.082-7.137,7.041-16.58-1.453-6.721-11.491-14.184-18.403-14.479-.013-.555-.026-1.109-.039-1.664,6.074.481,12.637-1.627,17.856,3.372.049,1.054.098,2.107.148,3.16Z"/><path class="cls-87" d="m129.06,65.694c1.632-8.692,2.438-10.168,10.014-12.773,6.801-2.339,23.886-2.284,27.666,4.725-10.029-3.149-20.231-1.077-30.363-.957-2.904.034-2.171,2.489-2.409,4.227-2.029,1.226-1.265,5.085-4.704,4.981l-.204-.203Z"/><path class="cls-43" d="m133.968,60.915c.239-1.738-.495-4.192,2.41-4.227,10.132-.12,20.333-2.192,30.363.957.55.529,1.1,1.059,1.65,1.587.013.554.026,1.108.038,1.663-.001,0-.121.132-.121.131-1.606-.562-3.211-1.124-4.817-1.685-5.475,1.25-10.957,3.128-16.389-.156-4.338-2.528-7.851.119-11.511,1.835-.54-.039-1.081-.074-1.622-.105Z"/><path class="cls-97" d="m186.08,122.961c-4.29-2.393-1.096-9.64-3.095-10.845-4.083-2.46-10.222.572-9.749,5.934-.56.024-1.12.048-1.679.072-11.237-1.779-.293-7.187-.393-7.047,1.358-1.919,6.57-2.576,8.772-6.467,1.609-2.844,1.805-9.464,1.331-12.63,0,0,.326-.002.324-.003,3.059.075,5.483.234,2.946,4.416-1.899,3.131-3.589,6.872,1.901,8.69-.017,1.079-.035,2.159-.052,3.238-2.784,4.912-.804,9.799.077,14.691l-.383-.05Z"/><path class="cls-59" d="m171.557,118.123c.56-.024,1.12-.048,1.68-.072,17.684,15.341-4.622,12.143-8.244,26.148-.563.011-1.127.022-1.69.034-4.451-7.526-4.023-8.866,3.793-9.734,3.36-.373,5.831-1.127,6.262-4.891,8.826-5.303-.876-7.707-1.8-11.484Z"/><path class="cls-11" d="m212.461,118.192c.798,4.483-4.259,8.241-1.605,12.954-3.455,5.961-9.208,7.713-15.164,6.23-6.907-1.72-7.627-8.756-9.61-14.415-.002,0,.381.05.379.049,4.895,1.431,3.743,7.819,8.013,9.764,6.799,4.328,9.812,2.935,13.373-4.471,1.606-3.339-1.195-8.786,4.613-10.112Z"/><path class="cls-104" d="m163.303,144.233c.564-.011,1.128-.023,1.69-.034,1.375,4.217,2.106,8.515,1.616,12.963-1.06.603-2.119,1.206-3.179,1.811-1.099-.538-2.198-1.077-3.297-1.616,0,.001.082-.309.082-.307,4.369-3.468,3.029-8.311,3.087-12.818Z"/><path class="cls-104" d="m135.692,162.038c2.905-3.793,6.62-5.635,11.466-4.751-.272,4.219,1.402,10.8-6.703,5.22-1.15-.792-3.155-.343-4.764-.469Z"/><path class="cls-40" d="m212.461,118.192c-5.809,1.326-3.008,6.772-4.613,10.112-3.561,7.406-6.574,8.799-13.373,4.471,22.083-3.01,8.525-25.686-8.088-24.455.017-1.079.035-2.159.051-3.239,5.292-2.891,7.824-7.796,9.651-13.214.529.024,1.059.047,1.589.07,1.721,2.678,1.42,7.392,6.621,6.565-1.272,6.617,3.663,8.017,8.207,9.747,1.391,3.321,3.127,6.644-.045,9.944Z"/><path class="cls-50" d="m212.476,104.934c-2.219.221-3.604-.724-4.155-2.836.024,1.1,9.75-7.609,10.621-8.526,2.359,6.352-4.774,7.311-6.466,11.361Z"/><path class="cls-106" d="m204.299,98.501c-5.201.827-4.9-3.886-6.621-6.565.622-1.609,1.244-3.218,1.868-4.826,11.799-.292,22.967,11.318,4.753,11.391Z"/><path class="cls-76" d="m196.089,91.867c-1.828,5.419-4.359,10.323-9.651,13.214-5.489-1.817-3.799-5.559-1.9-8.69,2.537-4.182.113-4.341-2.946-4.416,2.632-1.643,5.261-3.286,7.89-4.93,5.658-3.124,7.034-.385,6.607,4.821Z"/><path class="cls-35" d="m135.59,61.02c3.661-1.716,7.173-4.362,11.511-1.833-9.105.309-10.124,6.428-9.784,13.557.293,6.13,3.873,8.612,8.936,5.036,10.794-7.623,18.265,1.159,26.903,4.43-2.167.607-5.646-3.87-6.536,1.684-6.153-4.615-12.715-4.505-19.512-1.69-13.622,10.66-13.633,19.093-.033,26.024,1.716,2.417,4.312,1.457,6.591,1.713q-13.248,4.782-19.607-4.923c-.103-3.115-.585-6.081-3.231-8.196,0,0-.002-.021-.002-.021,1.048-1.643,2.095-3.286,3.143-4.928,2.827-1.18,3.812-3.613,4.569-6.866-29.263-2.672-7.809-7.524-2.949-23.989Z"/><path class="cls-12" d="m163.303,144.233c-.058,4.507,1.281,9.35-3.087,12.818-9.678-7.361-22.203,3.375-28.976-3.027-5.442-5.145-3.947-26.51-.446-32.632.517-.051,1.035-.097,1.554-.137,2.146-.547,4.292-1.095,6.438-1.643l.237.219c-3.329,8.07-8.787,3.238-8.661,14.807.122,11.276,5.883,14.849,16.118,15.905,18.659,1.926,8.315-2.85,11.53-13.307,2.826-9.194,7.395-6.216,15.078-7.875l.272.247c-.433,3.763-2.903,4.517-6.263,4.89-7.816.868-8.244,2.208-3.793,9.734Z"/><path class="cls-68" d="m135.59,61.02c-4.859,16.466-26.313,21.317,2.949,23.989-.757,3.253-1.742,5.686-4.569,6.866-.183-10.329-7.212.096-8.125.273-5.717,1.109-2.49,1.978-11.406-1.816-2.411-7.384,2.767-12.021,6.518-16.937,2.223-2.915,5.501-5.027,8.306-7.499,3.441.105,2.677-3.755,4.706-4.981.54.03,1.081.066,1.622.105Z"/><path class="cls-22" d="m120.961,118.142c-3.418-.7-5.655,1.586-8.147,3.222-18.567-2.626,7.997-35.728,8.147-3.222Z"/><path class="cls-85" d="m132.347,121.253c-.518.041-1.036.087-1.553.137-4.751-7.49-8.039-15.162-3.302-23.983.956-1.781,2.154-.81,3.334-.603,0,0,.002.021.002.021-.294,8.193,3.211,16.149,1.519,24.429Z"/><path class="cls-15" d="m112.778,157.267c-7.706-4.873-22.869-26.204-2.905-24.249,10.459,1.024,18.672,24.661,2.909,24.257,0,0-.004-.007-.004-.007Z"/><path class="cls-12" d="m134.059,105.02q6.359,9.706,19.607,4.923c3.576-2.857,7.007-5.215,12.208-5.065,12.177.351,12.187.009,12.215-12.902l1.702-.022c.493.018.987.026,1.479.024.472,3.166.277,9.786-1.333,12.63-2.202,3.891-7.414,4.548-8.772,6.467.1-.141-10.845,5.268.393,7.047.924,3.777,10.626,6.181,1.8,11.485.001.001-.27-.246-.269-.244.025-2.642.729-5.6-2.078-7.303-7.428-4.508-14.543-11.249-23.971-4.044l.014.007c-2.677.603-5.354,1.205-8.031,1.808,0,0-.237-.219-.235-.218-5.188-3.694-5.127-9.089-4.728-14.593Z"/><path class="cls-107" d="m179.791,91.954c-.567.007-1.134.015-1.701.022-2.913-1.294-4.39-4.896-8.046-4.995-1.099-.554-2.199-1.108-3.298-1.662-.053-.474-.095-.948-.125-1.424.89-5.555,4.369-1.078,6.536-1.684l.07.036c6.67,5.593,8.754.737,8.547-5.508-.165-4.98-9.342-13.714-13.467-15.711,0,0,.12-.131.121-.132,6.913.295,16.951,7.757,18.404,14.479,2.041,9.443-7.007,9.585-7.041,16.58Z"/><path class="cls-74" d="m173.157,82.211c-8.638-3.271-16.109-12.053-26.903-4.43-5.064,3.576-8.644,1.093-8.936-5.036-.34-7.129.679-13.248,9.784-13.557,5.432,3.283,10.914,1.405,16.388.155,1.749,1.941,2.503,4.244,2.261,6.911,1.099,3.07,3.372,4.364,6.82,3.884.982,1.653,10.543,13.41.656,12.11l-.07-.036Z"/><path class="cls-37" d="m173.227,82.247c9.886,1.3.325-10.457-.656-12.11-3.448.48-5.721-.814-6.82-3.884.242-2.667-.512-4.971-2.261-6.911,1.606.562,3.212,1.123,4.817,1.685,4.125,1.998,13.302,10.732,13.467,15.711.207,6.246-1.877,11.102-8.547,5.508Z"/><path class="cls-44" d="m186.387,108.32c16.613-1.231,30.171,21.445,8.088,24.455-4.27-1.945-3.118-8.333-8.013-9.764-.879-4.892-2.859-9.779-.075-14.691Z"/><path class="cls-17" d="m166.62,83.895c.03.476.072.95.125,1.425,6.118,10.266-32.426,27.368-19.637-3.115,6.797-2.815,13.359-2.925,19.512,1.69Z"/><path class="cls-20" d="m147.108,82.206c-12.79,30.483,25.755,13.381,19.637,3.115,1.1.553,2.199,1.107,3.298,1.662,4.423,7.33.941,14.206-7.84,14.698-6.003.336-11.021,2.204-15.128,6.55-13.6-6.932-13.589-15.365.033-26.024Z"/><path class="cls-81" d="m147.075,108.23c4.107-4.345,9.125-6.213,15.128-6.55,8.781-.492,12.262-7.368,7.84-14.698,3.656.098,5.134,3.701,8.047,4.994-.028,12.911-.038,13.253-12.216,12.902-5.201-.15-8.633,2.208-12.208,5.065-2.279-.256-4.874.704-6.591-1.713Z"/><path class="cls-18" d="m134.059,105.02c-.399,5.504-.46,10.899,4.728,14.593-2.148.547-4.294,1.095-6.44,1.642,1.691-8.28-1.813-16.237-1.52-24.429,2.646,2.114,3.128,5.08,3.231,8.195Z"/><path class="cls-26" d="m139.023,119.831c2.677-.603,5.354-1.205,8.031-1.807-3.834,5.83-10.795,4.661-6.93,13.114,1.026,2.243,8.052,7.435,10.777,7.083,9.657-1.248,8.235-20.668-3.86-20.205,9.428-7.206,16.543-.464,23.971,4.044,2.807,1.703,2.102,4.661,2.078,7.303-7.685,1.657-12.254-1.32-15.08,7.873-3.215,10.457,7.129,15.233-11.53,13.307-10.235-1.056-15.995-4.629-16.118-15.905-.126-11.569,5.333-6.738,8.661-14.807Z"/><path class="cls-53" d="m147.04,118.016c12.096-.463,13.517,18.957,3.86,20.205-2.725.352-9.751-4.84-10.777-7.083-3.865-8.452,3.096-7.284,6.93-13.114,0,0-.014-.008-.014-.008Z"/></svg>