<?xml version="1.0" encoding="UTF-8"?><svg id="Layer_1" xmlns="http://www.w3.org/2000/svg" viewBox="0 0 219.767 215.177"><defs><style>.cls-1{fill:#d3e9f5;}.cls-2{fill:#96b8db;}.cls-3{fill:#40768e;}.cls-4{fill:#9fc9e9;}.cls-5{fill:#789fbe;}.cls-6{fill:#b2ddf2;}.cls-7{fill:#417193;}.cls-8{fill:#9abbde;}.cls-9{fill:#9fb7d7;}.cls-10{fill:#455b7e;}.cls-11{fill:#40728f;}.cls-12{fill:#90bfd9;}.cls-13{fill:#60afb9;}.cls-14{fill:#a4d2e5;}.cls-15{fill:#a6bde2;}.cls-16{fill:#718fb8;}.cls-17{fill:#354667;}.cls-18{fill:#ceeaf4;}.cls-19{fill:#7ea5d0;}.cls-20{fill:#9bb9d5;}.cls-21{fill:#495f82;}.cls-22{fill:#8fbee3;}.cls-23{fill:#cbe6f4;}.cls-24{fill:#b9dff3;}.cls-25{fill:#6b91c2;}.cls-26{fill:#607ea7;}.cls-27{fill:#d3e8f4;}.cls-28{fill:#3d5272;}.cls-29{fill:#466d86;}.cls-30{fill:#6c92bd;}.cls-31{fill:#84acd7;}.cls-32{fill:#627ea9;}.cls-33{fill:#88c0cb;}.cls-34{fill:#b7c8e7;}.cls-35{fill:#7fa2c7;}.cls-36{fill:#4c86af;}.cls-37{fill:#38657f;}.cls-38{fill:#546c92;}.cls-39{fill:#507eac;}.cls-40{fill:#90bbdc;}.cls-41{fill:#6483a7;}.cls-42{fill:#4c7a9d;}.cls-43{fill:#a9d8f2;}.cls-44{fill:#7ba8d2;}.cls-45{fill:#b3ddf1;}.cls-46{fill:#6183a6;}.cls-47{fill:#92bbe2;}.cls-48{fill:#46849f;}.cls-49{fill:#a3d1ee;}.cls-50{fill:#a1cbe6;}.cls-51{fill:#97b7db;}.cls-52{fill:#bedcf3;}.cls-53{fill:#437988;}.cls-54{fill:#50809e;}.cls-55{fill:#375e7f;}.cls-56{fill:#9ad8e1;}.cls-57{fill:#6292b4;}.cls-58{fill:#556d92;}.cls-59{fill:#6998c4;}.cls-60{fill:#b4d7f1;}.cls-61{fill:#6d92bc;}.cls-62{fill:#8eb6dc;}.cls-63{fill:#2a3956;}.cls-64{fill:#6694bb;}.cls-65{fill:#305c72;}.cls-66{fill:#407489;}.cls-67{fill:#72a4c5;}.cls-68{fill:#7496c4;}.cls-69{fill:#5592ae;}.cls-70{fill:#99c1dd;}.cls-71{fill:#4a739b;}.cls-72{fill:#637a9f;}.cls-73{fill:#537095;}</style></defs><path class="cls-13" d="m2.371,169.204c1.716-.546,1.504-2.026,1.538-3.387,1.089-.704,2.179-1.407,3.269-2.111,0,0,.153.475.149.471,4.221.328,7.483,4.674,12.162,3.108.137,2.965,5.712,2.81,3.753,6.977-4.28,1.603-6.826,7.085-12.356,5.891-1.618-.853-3.45-1.47-3.837-3.69,3.893-.687,12.47,1.351,6.79-6.492-7.001-9.666-5.925,4.9-6.803,6.481-1.19-.648-2.381-1.296-3.571-1.945-.364-1.768-.729-3.535-1.093-5.302Z"/><path class="cls-11" d="m151.202,207.17c-26.084,5.547-51.707,12.858-78.216,3.559-8.072-2.831-49.574-36.269-53.534-29.087-2.891-.295-6.042,1.009-8.57-1.491,5.533,1.196,8.079-4.287,12.356-5.887,7.069,2.233,12.577,9.212,20.987,7.384.578.576,1.156,1.153,1.734,1.729-.197,3.521,2.263,5.156,4.462,7.18,4.972,4.576,10.864,7.629,16.467,11.169.136,1.976,1.087,3.342,2.863,4.098,19.761,8.402,39.937,8.503,60.381,3.216,7.02-1.884,14.039-3.769,21.059-5.653,0,0,.024.356.024.356-.004,1.143-.008,2.285-.012,3.428Z"/><path class="cls-65" d="m38.821,20.3c1.173.011,2.347.021,3.519.032-1.131,1.836-3.758,2.629-3.531,5.41-7.859,6.394-16.64,11.829-21.13,21.719-2.909-4.486-5.731-9.132-12.193-7.195,14.965.207,21.27-15.007,33.334-19.966Z"/><path class="cls-53" d="m5.486,40.267c6.462-1.937,9.284,2.709,12.193,7.195-.034,2.394-.069,4.787-.102,7.182-1.691.072-3.383.142-5.076.212-1.166-1.287-2.331-2.574-3.497-3.86,10.021-9.391-8.445-11.078.017.043-1.164.048-2.328.096-3.492.144-1.935-2.736-1.984-5.854-1.713-9.035.557-.627,1.113-1.254,1.67-1.881Z"/><path class="cls-37" d="m9.004,50.995c1.166,1.287,2.331,2.574,3.496,3.86-1.271,2.972-3.441,5.585-3.41,9.079-.014,1.158-.027,2.316-.04,3.474-7.032,17.543-6.735,36.013-4.785,54.197,1.278,11.918,3.276,24.225,10.002,34.757.587,5.351-3.433,6.341-6.938,7.818,0,0-.153-.475-.153-.475,5.968-4.759-4.207-26.345-5.184-32.216C-.645,115.64.124,99.803.049,83.802c.37-5.082,1.027-10.09,3.562-14.609,2.634-4.527,5.451-9.031,1.828-14.405.029-1.202.059-2.404.09-3.605,1.165-.048,2.329-.096,3.493-.144,0,0-.017-.044-.017-.044Z"/><path class="cls-64" d="m44.225,181.649c-8.41,1.828-13.918-5.151-20.987-7.384,1.962-4.17-3.613-4.015-3.75-6.98-.491-3.66,1.347-7.737-1.833-10.916-7.091-15.032-9.021-31.274-10.513-47.629-1.11-12.169,1.528-23.892,3.789-35.669,3.22,2.869-.201,7.781,3.062,10.64.158,3.319-.543,6.58-.748,9.832-.92,14.556-3.251,29.368,4.408,43.016,2.146,9.048,2.844,18.732,10.458,25.376,5.372,6.571,10.743,13.143,16.115,19.714Z"/><path class="cls-48" d="m17.655,156.369c3.18,3.178,1.341,7.256,1.833,10.916-4.679,1.566-7.94-2.78-12.162-3.108,3.509-1.473,7.528-2.463,6.941-7.814,1.129.002,2.259.004,3.388.006Z"/><path class="cls-56" d="m7.035,176.451c.878-1.58-.198-16.146,6.803-6.481,5.681,7.843-2.896,5.805-6.79,6.492,0,0-.013-.012-.013-.012Z"/><path class="cls-55" d="m38.809,25.742c-.227-2.781,2.401-3.574,3.531-5.41C66.508-1.797,95.298-1.842,124.913,1.772c10.541,1.286,21.538.76,29.92,9.329-1.749.083-3.497.165-5.247.246-.63-.073-1.257-.144-1.884-.216-6.933-12.252-77.749-13.219-80.949-.022-1.122.071-2.243.142-3.365.213-3.384.067-6.088,2.026-8.798,3.685-5.417,3.316-9.113,9.347-15.781,10.736Z"/><path class="cls-7" d="m149.588,11.348c1.748-.082,3.496-.164,5.245-.247,12.547,6.651,23.487,8.422,32.831,20.031,7.385,9.175,10.353,23.901,19.629,31.077.551,1.779,1.104,3.556,1.657,5.333-.535.634-1.071,1.268-1.607,1.901-1.999-2.268-3.978-4.561-6.894-5.63-.429-8.432-8.724-12.342-10.712-19.877-4.203-9.946-9.337-18.656-20.194-22.672-6.892-2.549-14.771-3.512-19.956-9.917Z"/><path class="cls-66" d="m216.186,127.351c-4.149,7.395-7.228,15.041-9.777,23.34-2.165,7.048-5.23,15.903-13.087,20.125-1.224-6.006,6.482-8.422,5.415-14.365,6.14-8.902,5.17-18.571,9.736-27.405,3.196-6.183,12.69-8.553,7.722-16.356-.176-4.882-2.67-9.473-1.704-14.498,3.914,9.512,8.718,18.969,1.697,29.16Z"/><path class="cls-3" d="m214.49,98.191c-.965,5.025,1.528,9.616,1.704,14.499-3.218-.118-2.917-2.677-3.675-4.956-2.611-7.858.095-16.846-4.946-24.123-.077-4.722-.154-9.444-.23-14.167.536-.635,1.073-1.269,1.608-1.903,3.906,9.82,5.12,20.158,5.539,30.649Z"/><path class="cls-54" d="m198.736,156.45c1.067,5.943-6.638,8.359-5.415,14.365-4.972,4.564-8.039,11.044-13.891,14.722-9.695,5.59-17.04,15.063-28.216,18.204,0,0-.024-.356-.024-.354.596-1.151,1.191-2.305,1.786-3.458,13.271-9.104,26.793-17.922,35.128-32.685,4.414-2.684,5.424-8.943,10.631-10.794Z"/><path class="cls-29" d="m151.215,203.742c11.176-3.141,18.521-12.615,28.216-18.204-7.148,10.359-16.497,17.654-28.228,21.633.004-1.143.008-2.285.013-3.428Z"/><path class="cls-1" d="m44.225,181.649c-5.372-6.571-10.743-13.143-16.114-19.715-1.556-10.473-5.557-20.025-10.335-29.285-.504-1.172-1.009-2.343-1.513-3.515,2.836-2.347-.025-6.843,3.197-9.045,1.192,2.404,2.96,4.217,5.274,5.468-.394,15.533,10.482,33.599,21.135,43.456,1.897,2.327,3.827,4.52,6.937,1.766,1.094,1.734,2.694,2.122,4.403,1.375,5.787-2.53,8.361.43,9.607,5.812-2.916.494-7.034-.814-7.891,3.303-.672,3.229,1.49,6.057,4.446,7.764,1.261,2.415.58,3.696-2.089,3.819-6.417-.899-9.148-8.157-15.323-9.473-.578-.576-1.156-1.153-1.734-1.729Z"/><path class="cls-57" d="m45.96,183.377c6.175,1.316,8.906,8.574,15.325,9.472,6.18,3.408,12.951,5.071,19.595,7.108,2.553,3.373,6.573,4.452,10.058,4.689,10.695.727,21.448.558,32.178.737,9.036-1.426,17.747-4.097,26.308-7.34,1.184.629,2.369,1.258,3.553,1.887-.596,1.153-1.191,2.307-1.787,3.458-7.019,1.883-14.039,3.767-21.059,5.651-21.397.472-42.812,1.111-63.244-7.313-5.603-3.54-11.494-6.593-16.467-11.169-2.199-2.024-4.659-3.659-4.462-7.18Z"/><path class="cls-54" d="m66.888,201.726c20.433,8.424,41.847,7.785,63.244,7.313-20.445,5.288-40.62,5.187-60.381-3.215-1.776-.755-2.727-2.122-2.863-4.098Z"/><path class="cls-71" d="m38.809,25.742c6.668-1.389,10.363-7.42,15.781-10.736,2.711-1.659,5.414-3.618,8.798-3.686-1.173,1.789-2.346,3.578-3.519,5.368-8.382,6.913-17.909,11.558-25.656,19.409-3.222,3.265-10.885,18.482-16.336,18.85l-.301-.305c.035-2.393.069-4.787.103-7.181,4.489-9.891,13.271-15.326,21.129-21.72Z"/><path class="cls-71" d="m9.092,63.935c-.032-3.494,2.139-6.107,3.409-9.079,1.693-.069,3.385-.139,5.077-.211-.001-.002.3.303.298.301-.061,1.75-.121,3.502-.18,5.254-2.868,1.245-5.736,2.49-8.604,3.735Z"/><path class="cls-33" d="m9.022,51.039c-8.463-11.122,10.003-9.435-.017-.043,0,0,.017.043.017.043Z"/><path class="cls-42" d="m17.655,156.369c-1.13-.002-2.259-.004-3.388-.006-6.726-10.532-8.723-22.839-10.001-34.757-1.951-18.184-2.247-36.654,4.784-54.197.671.639,1.344,1.278,2.012,1.916-.045,1.249-.087,2.498-.128,3.747-2.263,11.775-4.902,23.498-3.792,35.667,1.493,16.356,3.422,32.597,10.513,47.629Z"/><path class="cls-64" d="m11.066,69.325c-.672-.639-1.345-1.277-2.016-1.916.014-1.158.027-2.316.041-3.474,2.869-1.245,5.737-2.49,8.605-3.734.606,2.446,1.212,4.892,1.818,7.338l.02-.029c-2.639,1.52-5.484,2.013-8.468,1.816Z"/><path class="cls-8" d="m16.263,129.133c.504,1.172,1.009,2.343,1.512,3.517-.041,1.304-.082,2.606-.123,3.908-7.659-13.648-5.327-28.461-4.408-43.016.206-3.253.907-6.513.75-9.831,1.847-5.399,3.693-10.801,5.538-16.202,0,0-.02.029-.02.028,1.716-1.858,3.433-3.716,5.149-5.573-9.471,21.5-12.961,43.797-8.399,67.168Z"/><path class="cls-70" d="m17.652,136.558c.041-1.302.082-2.605.123-3.908,4.778,9.259,8.779,18.811,10.336,29.284-7.615-6.643-8.312-16.328-10.459-25.376Z"/><path class="cls-25" d="m19.533,67.509c-1.846,5.401-3.691,10.802-5.538,16.202-3.264-2.861.156-7.772-3.064-10.641.044-1.247.085-2.496.13-3.745,2.988.197,5.833-.295,8.472-1.815Z"/><path class="cls-39" d="m59.869,16.688c1.173-1.789,2.346-3.579,3.518-5.368,1.122-.07,2.243-.141,3.366-.211,12.358-2.462,24.455-5.678,37.347-5.639,14.881.044,29.341,1.496,43.6,5.661.627.072,1.255.144,1.884.216,5.186,6.406,13.066,7.369,19.958,9.918,10.857,4.016,15.991,12.726,20.195,22.671-6.592-2.903-7.279-11.744-13.84-14.679-12.093-3.866-22.362-12.414-35.111-14.597-16.731-10.443-34.971-6.977-52.905-6.027-9.88.523-17.838,8.457-28.015,8.055Z"/><path class="cls-71" d="m147.701,11.13c-14.26-4.164-28.719-5.616-43.6-5.661-12.892-.038-24.989,3.178-37.347,5.639,3.199-13.197,74.014-12.231,80.947.021Z"/><path class="cls-59" d="m175.9,29.256c6.56,2.935,7.247,11.777,13.839,14.68,1.986,7.536,10.281,11.446,10.71,19.878-.062.604-.123,1.208-.182,1.812-1.982-2.913-5.221-2.848-8.101-3.639-.738-1.274-1.473-2.548-2.209-3.823-.509-6.259-3.898-10.915-7.445-15.754-2.849-3.885-8.712-6.515-6.611-13.154Z"/><path class="cls-36" d="m200.265,65.625c.061-.604.122-1.207.184-1.811,2.917,1.068,4.896,3.362,6.895,5.63.076,4.724.153,9.446.228,14.17-.002.002-.248.331-.248.331-3.774-5.522-5.937-11.707-7.059-18.319Z"/><path class="cls-69" d="m198.736,156.45c-5.206,1.851-6.217,8.11-10.631,10.795,4.527-12.368,11.63-20.207,14.938-33.982,4.046-16.845,4.773-32.086,4.281-49.319,0,0,.246-.329.248-.331,5.042,7.275,2.336,16.264,4.947,24.121.757,2.279.456,4.838,3.675,4.956,4.968,7.801-4.526,10.171-7.722,16.354-4.566,8.834-3.595,18.503-9.736,27.405Z"/><path class="cls-67" d="m207.324,83.944c.493,17.233-.235,32.474-4.281,49.319-3.308,13.775-10.411,21.614-14.938,33.982-8.335,14.763-21.856,23.581-35.128,32.685-1.184-.629-2.368-1.258-3.553-1.886,1.334-2.233,4.649-2.485,5.18-5.521,16.46-9.97,28.226-24.378,36.933-41.677,4.139-5.269,6.127-11.434,7.038-18.046,3.732-14.402,5.72-28.885,1.872-43.634-.287-9.863-4.055-18.596-8.28-27.179,2.878.791,6.116.726,8.099,3.639,1.121,6.612,3.283,12.796,7.057,18.318Z"/><path class="cls-52" d="m16.263,129.133c-4.562-23.371-1.072-45.669,8.399-67.168,1.56-2.161,1.098-5.431,3.631-7.059.142,1.387-.333,3.907,1.022,3.837,7.32-.376,9.75-4.694,7.76-13.01,4.1-4.811,8.2-9.623,12.3-14.435,1.123-.722,2.246-1.444,3.369-2.166.4,5.102-5.157,5.908-6.018,9.779-.802,3.605,4.385,2.967,3.578,6.221-1.41,5.686-10.358,15.979-2.755,20.524,4.424,14.212-.703,10.403-10.297,12.309-5.375,1.068-8.03-3.197-10.392,2.372-2.021,4.767,14.637,7.232,15.442,7.092,1.765,1.202,3.53,2.404,5.295,3.606.573.613,1.147,1.227,1.72,1.841-.689,1.606-1.119,3.409-2.106,4.788q-10.909,15.24.349,29.689v-.003c-.402,5.757,2.419,13.617-7.114,12.649,4.569,9.082-3.248,20.944,5.423,29.011-10.654-9.856-21.53-27.922-21.136-43.455,2.851-.945,4.488,4.203,7.989,1.516-.903-3.367-12.002-15.202-13.263-6.983-3.221,2.202-.361,6.697-3.197,9.045Z"/><path class="cls-24" d="m80.879,199.958c-6.644-2.037-13.415-3.7-19.595-7.108,2.666-.121,3.347-1.403,2.086-3.818,18.59,5.282,10.26-13.787,3.445-11.067-1.247-5.382-3.82-8.341-9.607-5.812-1.709.747-3.309.359-4.402-1.374-2.769-5.098-1.486-10.575-1.595-18.123,22.864,27.994,52.875,25.995,82.516,25.391,1.112.099,2.225.198,3.338.296,3.575,3.544-3.773,7.157.064,10.699-5.731,11.745-5.019-4.772-4.774-4.51-10.261.539-18.894-2.33-18.189,5.871.807,9.394,9.235,9.505,16.05,9.57-1.607,2.79-5.529.765-7.096,3.639-14.246.827-28.296-.766-42.241-3.654Z"/><path class="cls-49" d="m133.728,178.046c-29.642.606-59.653,2.605-82.517-25.39.109,7.548-1.174,13.025,1.595,18.123-3.11,2.753-5.04.559-6.937-1.767-8.671-8.067-.854-19.93-5.422-29.012,9.533.968,6.712-6.892,7.113-12.649,2.365,4.038,4.402,8.106,5.706,12.779,4.145,14.851,24.821,30.442,39.941,30.738,6.122.01,12.261.325,18.361-.043,8.365-.505,16.296-.189,22.161,7.222Z"/><path class="cls-15" d="m66.816,177.964c6.815-2.72,15.145,16.35-3.445,11.067-2.956-1.707-5.119-4.535-4.446-7.764.857-4.117,4.975-2.809,7.891-3.303Z"/><path class="cls-9" d="m19.46,120.088c1.261-8.219,12.361,3.616,13.263,6.983-3.502,2.687-5.139-2.461-7.989-1.516-2.314-1.251-4.081-3.063-5.274-5.467Z"/><path class="cls-12" d="m123.121,203.611c1.567-2.874,5.488-.849,7.095-3.64,8.129-2.483,16.259-4.966,24.389-7.449-.531,3.037-3.846,3.288-5.179,5.522-8.561,3.242-17.272,5.913-26.309,7.339-.01-.591-.008-1.181.005-1.772Z"/><path class="cls-40" d="m123.121,203.611c-.012.59-.014,1.181-.005,1.772-10.73-.179-21.483-.009-32.178-.737-3.485-.237-7.505-1.315-10.058-4.689,13.945,2.888,27.995,4.481,42.241,3.654Z"/><path class="cls-25" d="m28.293,54.906c-2.533,1.627-2.071,4.898-3.631,7.059-1.717,1.857-3.434,3.715-5.15,5.573-.606-2.446-1.212-4.891-1.818-7.338.059-1.752.119-3.504.18-5.255,5.453-.367,13.116-15.584,16.338-18.849,7.747-7.851,17.274-12.496,25.656-19.409,10.177.403,18.135-7.531,28.015-8.054,17.934-.95,36.174-4.416,52.904,6.029-1.241.094-2.48.187-3.72.279-2.954-.602-6.289.955-8.888-1.669-21.124-4.075-41.786-3.803-61.335,6.947-5.113,2.274-9.738,5.373-14.101,8.914-1.123.722-2.246,1.444-3.369,2.165-6.978,2.401-11.815,7.059-14.164,14.339-2.306,3.09-4.612,6.18-6.917,9.269Z"/><path class="cls-31" d="m137.068,14.942c1.24-.093,2.48-.185,3.72-.279,12.75,2.181,23.018,10.729,35.111,14.595-2.099,6.638,3.763,9.268,6.612,13.153,3.548,4.838,6.936,9.495,7.444,15.756-5.694-3.076-7.267-9.5-10.87-14.274-10.314-15.364-26.2-22.105-42.018-28.951Z"/><path class="cls-18" d="m179.084,43.892c3.605,4.774,5.178,11.198,10.872,14.274.736,1.272,1.472,2.546,2.21,3.821,4.227,8.584,7.995,17.316,8.282,27.18.344,14.667-.026,29.27-3.663,43.579-3.578,2.04-8.704,1.665-10.386,5.874,1.426-3.569,5.335,12.654,5.139,12.227-8.707,17.299-20.473,31.707-36.933,41.677-8.131,2.482-16.261,4.965-24.39,7.448-6.814-.064-15.242-.175-16.049-9.569-.705-8.201,7.928-5.332,18.189-5.871-.245-.262-.956,16.255,4.774,4.51,2.327-1.844,4.654-3.689,6.981-5.532,3.888-1.384,7.447-2.773,7.829-8.144.181-2.553,1.842-5.097,4.519-6.311,2.247-4.07,5.546-2.586,8.72-1.764,8.079.422,4.564-7.426,7.254-10.849,5.142-7.555,10.643-49.272,19.683-45.834-.566-16.462-7.731-29.998-16.189-42.978,2.591-.749,8.262.9,5.953-4.276-1.793-4.018-1.323-8.78-4.317-12.188-3.243.941-7.776,8.787-10.089-1.372-3.055-13.418,6.39-5.402,11.611-5.902Z"/><path class="cls-50" d="m191.538,150.847c.196.427-3.713-15.796-5.139-12.227,1.682-4.208,6.808-3.833,10.387-5.873.597.018,1.194.036,1.79.054-.911,6.612-2.899,12.777-7.038,18.046Z"/><path class="cls-14" d="m198.576,132.8c-.596-.018-1.193-.036-1.79-.054,3.636-14.31,4.006-28.913,3.662-43.58,3.848,14.749,1.86,29.231-1.872,43.634Z"/><path class="cls-27" d="m52.744,29.133c4.363-3.541,8.988-6.639,14.101-8.913,9.56-.923,18.282-6.455,28.19-5.468-3.616,15.254-13.106.866-16.507,6.779.067,1.831.857,3.25,2.37,4.258.009,2.401.019,4.803.028,7.204-7.165.239-8.371,8.896-14.126,10.829-9.677,3.25-14.439,10.747-17.482,20.006l-1.77,1.829c-7.603-4.545,1.345-14.838,2.755-20.524.807-3.253-4.38-2.616-3.578-6.221.861-3.871,6.418-4.677,6.018-9.779Z"/><path class="cls-60" d="m80.927,32.993c-.009-2.401-.019-4.803-.028-7.204,7.32.68,46.32,8.376,47.483,1.759,2.175,1.822,2.246,3.65.012,5.483-6.635,1.1-14.74-3.413-19.352,5.409-12.029-4.411-11.086-4.552-20.599-.143-4.385,2.033-20.822,10.223-21.582,16.448-.577.022-1.154.036-1.732.042-11.415,6.027-4.336,13.988-9.874,21.954-2.447,3.519-14.469,4.598-12.953,10.689-.805.14-17.463-2.325-15.442-7.092,2.361-5.569,5.017-1.304,10.392-2.372,9.594-1.907,14.721,1.903,10.297-12.309.59-.61,1.18-1.22,1.769-1.829,6.583-.478,13.518-13.692,18.853-17.667,6.91-5.149,11.732-2.717,12.754-13.168Z"/><path class="cls-47" d="m93.206,170.868c-15.12-.296-35.795-15.887-39.941-30.738-1.305-4.674-3.341-8.741-5.706-12.779,0,0,.001.003.001.003-.888-4.992-.379-9.719.644-14.795,1.275-6.328,3.421-12.986,1.113-19.681-.573-.614-1.147-1.227-1.72-1.84,2.265-4.314,7.958-3.355,10.484-7.268-.987,7.223-12.283,39.669-5.151,43.525.554.026,1.109.056,1.663.09.891,13.271,6.822,23.117,17.001,31.545,6.713,5.558,15.813,5.388,21.613,11.939Z"/><path class="cls-4" d="m58.08,83.768c-2.526,3.913-8.219,2.954-10.483,7.268-1.765-1.202-3.529-2.404-5.294-3.606-1.516-6.091,10.506-7.17,12.953-10.69,5.538-7.966-1.541-15.928,9.874-21.954-2.572,7.007-5.841,13.893-3.542,21.747-2.216,1.87-3.184,4.386-3.508,7.235Z"/><path class="cls-49" d="m49.317,92.877c2.308,6.696.163,13.353-1.113,19.681-1.023,5.076-1.531,9.803-.644,14.795q-11.281-14.466-.349-29.689c.987-1.378,1.417-3.182,2.106-4.788Z"/><path class="cls-27" d="m28.293,54.906c2.306-3.09,4.612-6.18,6.918-9.269.622.032,1.243.064,1.864.096,1.991,8.316-.439,12.634-7.76,13.01-1.356.07-.881-2.45-1.022-3.837Z"/><path class="cls-51" d="m37.075,45.734c-.621-.032-1.242-.064-1.864-.096,2.349-7.28,7.186-11.938,14.164-14.339-4.1,4.812-8.2,9.624-12.3,14.435Z"/><path class="cls-44" d="m93.206,170.868c-5.801-6.551-14.901-6.381-21.613-11.939-10.179-8.428-16.11-18.274-17.001-31.545,5.074,6.013,4.363,15.797,12.223,19.993.93,8.743,9.972,9.008,14.108,14.4,24.062,5.525,42.612,8.356,61.872-9.829,5.064-4.782,7.972-11.322,11.326-14.534,4.812-4.608,11.164,2.97,11.181-10.066,1.179.006,2.357.013,3.536.019-2.84,12.104-1.058,8.206-9.649,17.044-4.301,4.425-8.518,9.107-12.858,13.486-5.1,5.146-23.219,11.39-9.24,14.833,2.219,2.555,7.606,1.831,7.043,7.263-2.356-.55-4.713-1.1-7.069-1.65-1.113-.098-2.226-.197-3.338-.296-5.864-7.411-13.795-7.728-22.16-7.222-6.1.369-12.239.054-18.361.044Z"/><path class="cls-22" d="m137.066,178.343c2.356.55,4.713,1.1,7.069,1.649-.008,1.172-.016,2.344-.025,3.516-2.327,1.844-4.654,3.689-6.981,5.533-3.837-3.542,3.511-7.155-.064-10.699Z"/><path class="cls-23" d="m128.394,33.03c2.234-1.833,2.162-3.661-.013-5.483-3.513-5.439-5.853-12.377-14.219-11.607-.44.04-1.045-1.84-1.573-2.826,5.197.053,10.394.105,15.591.158,2.599,2.624,5.933,1.067,8.888,1.669,15.818,6.847,31.704,13.587,42.018,28.951-5.223.501-14.668-7.516-11.613,5.902,2.313,10.159,6.846,2.313,10.089,1.372.553,3.794-1.129,7.193-1.78,10.776-.499.178-1.013.256-1.541.235-4.756-.568-8.045-4.601-8.39-8.123-1.13-11.528-7.735-10.709-15.514-8.956-7.594,1.711-18.469-4.367-21.943-12.067Z"/><path class="cls-2" d="m128.18,13.272c-5.197-.053-10.394-.105-15.592-.158-5.848.579-11.95-1.735-17.554,1.638-9.908-.987-18.63,4.545-28.19,5.468,19.549-10.751,40.211-11.023,61.335-6.948Z"/><path class="cls-45" d="m165.179,167.291c-3.174-.822-6.474-2.306-8.72,1.764.004-1.802.008-3.605.012-5.407,2.47-.401,4.069-1.396,2.122-4.106-1.694-2.358-2.402-4.09,1.212-5.204,9.667-2.98,11.869-10.891,12.577-20.075.548-7.121-.255-16.345,4.939-20.385,9.261-7.204,3.189-13.847.682-19.559-1.465-3.337-3.356-7.273-5.725-10.507-1.355-4.805.145-10.79-7.032-13.937,3.477-.676,5.741-.29,7.096-2.216,1.12-.106,2.241-.211,3.361-.316l.226.29c8.457,12.979,15.622,26.514,16.188,42.976-9.039-3.438-14.54,38.279-19.684,45.833-.374-1.325-1.207-3.739-2.371-1.676-2.169,3.843-5.519,7.44-4.882,12.526Z"/><path class="cls-43" d="m156.471,163.647c-.004,1.802-.008,3.605-.012,5.407-2.678,1.214-4.338,3.758-4.519,6.311-.381,5.371-3.941,6.76-7.829,8.144.008-1.173.016-2.345.024-3.517.562-5.431-4.825-4.708-7.043-7.263,3.858-3.5,8.993-5.297,12.126-9.772,2.76-3.943,4.904-.338,7.253.69Z"/><path class="cls-20" d="m165.179,167.291c-.637-5.086,2.713-8.683,4.882-12.526,1.164-2.063,1.997.352,2.371,1.676-2.688,3.423.826,11.271-7.253,10.849Z"/><path class="cls-45" d="m175.782,61.941c.651-3.582,2.333-6.981,1.78-10.775,2.995,3.408,2.524,8.17,4.317,12.188,2.31,5.175-3.362,3.527-5.953,4.276.001.001-.225-.288-.224-.287,1.402-.947,3.882-1.791,3.979-2.865.197-2.182-2.207-2.231-3.9-2.537Z"/><path class="cls-34" d="m95.035,14.752c5.604-3.373,11.705-1.059,17.554-1.638.529.987,1.134,2.867,1.573,2.827,8.366-.771,10.706,6.167,14.219,11.607-1.162,6.617-40.162-1.078-47.482-1.759-1.513-1.008-2.303-2.427-2.371-4.258,3.401-5.913,12.892,8.476,16.507-6.779Z"/><path class="cls-52" d="m80.927,32.993c-1.022,10.451-5.844,8.019-12.754,13.168-5.335,3.976-12.271,17.189-18.853,17.667,3.043-9.26,7.805-16.757,17.481-20.006,5.755-1.933,6.961-10.59,14.126-10.829Z"/><path class="cls-4" d="m172.341,67.659c-1.356,1.925-3.62,1.539-7.097,2.215,7.177,3.146,5.677,9.131,7.032,13.937-3.835-2.412-7.201-5.949-12.25-5.459-.881-7.134-6.364-11.876-8.855-18.173-1.156.022-2.312.044-3.468.065-4.354-2.183-5.961-7.063-10.786-9.65-9.952-5.336-20.505-4.842-30.581-7.46-15.28-3.97-24.7,5.544-35.942,11.629-1.177-.007-2.355-.013-3.532-.02.76-6.225,17.197-14.415,21.582-16.448,9.513-4.409,8.569-4.268,20.599.143,15.577,3.309,23.349,5.929,37.293,13.713,5.17,2.886,17.484,14.281,20.899,13.611,1.165,2.176,3.268,1.656,5.107,1.896Z"/><path class="cls-6" d="m167.234,65.763c-3.415.671-15.729-10.725-20.899-13.611-13.944-7.784-21.716-10.403-37.293-13.713,4.611-8.822,12.717-4.309,19.352-5.409,3.474,7.7,14.35,13.778,21.944,12.067,7.778-1.753,14.384-2.571,15.514,8.956.345,3.522,3.634,7.555,8.389,8.122-2.336,1.195-4.671,2.391-7.006,3.587Z"/><path class="cls-47" d="m66.861,54.744c1.177.007,2.355.013,3.532.02-5.857,5.996-6.466,14.256-8.805,21.769-2.3-7.854.969-14.74,3.542-21.747.577-.006,1.155-.021,1.732-.042Z"/><path class="cls-62" d="m61.588,76.534c2.339-7.513,2.949-15.773,8.805-21.769,11.242-6.086,20.662-15.6,35.942-11.63,10.076,2.618,20.629,2.124,30.581,7.46,4.826,2.587,6.432,7.466,10.786,9.65-4.342,5.555-45.919-29.36-57.996-9.125-33.841.29-27.536,54.346-36.778,76.175-7.131-3.857,4.164-36.302,5.151-43.525.323-2.849,1.291-5.365,3.507-7.235Z"/><path class="cls-68" d="m52.929,127.294c9.242-21.828,2.937-75.885,36.778-76.174.598.017,1.196.033,1.794.049-1.163,1.111-2.325,2.221-3.488,3.332-.588.11-1.177.22-1.765.329-7.13,2.291-13.315,5.563-14.083,14.463.565,12.373-10.621,22.512-11.347,35.318-.372,6.556,1.408,31.867,5.98,35.612.048,2.346.096,4.693.144,7.039l-.13.115c-7.859-4.197-7.148-13.981-12.222-19.994-.554-.033-1.109-.063-1.663-.089Z"/><path class="cls-22" d="m160.027,78.351c5.048-.49,8.414,3.047,12.249,5.459,2.369,3.234,4.26,7.17,5.725,10.507,2.508,5.712,8.579,12.355-.682,19.559-5.193,4.04-4.39,13.263-4.939,20.385-.707,9.184-2.909,17.095-12.577,20.075-3.614,1.114-2.906,2.846-1.212,5.204,1.947,2.71.348,3.705-2.122,4.106-2.348-1.028-4.493-4.633-7.253-.69-3.133,4.475-8.268,6.272-12.126,9.772-13.98-3.443,4.14-9.687,9.239-14.833,4.34-4.379,8.557-9.061,12.858-13.486,8.591-8.838,6.808-4.941,9.648-17.044,3.59-6.576-2.215-13.244.2-19.848,4.448-12.163-1.586-20.901-9.011-29.167Z"/><path class="cls-61" d="m165.303,127.347c-.018,13.035-6.369,5.457-11.181,10.066-3.354,3.212-6.262,9.752-11.326,14.534-19.26,18.186-37.811,15.355-61.872,9.83.008-.601.018-1.202.03-1.802,3.603.051,7.269-.286,10.53,1.846,5.455,4.012,11.223.551,16.835.81,13.421.62,28.774-8.566,34.084-20.726,6.741-5.278.78-11.223.58-17.504,1.868,1.189,3.276,2.084,4.683,2.98,5.686,8.099,8.829,9.354,10.175,4.644,3.116-10.902,8.237-21.791,3.996-33.703,1.111,0,2.223.002,3.334.003,3.546,9.657-1.01,19.354.133,29.024Z"/><path class="cls-19" d="m165.303,127.347c-1.142-9.669,3.414-19.366-.132-29.024-1.588-13.165-9.576-20.942-20.576-26.276-.932-.452-1.451-1.814-2.162-2.754,3.797-2.133,10.449-1.348,8.738-9.115,2.491,6.297,7.974,11.039,8.855,18.173,7.426,8.266,13.459,17.003,9.011,29.167-2.415,6.604,3.391,13.272-.2,19.848-1.178-.006-2.356-.013-3.535-.019Z"/><path class="cls-68" d="m80.953,159.973c-.012.601-.022,1.202-.03,1.803-4.136-5.392-13.178-5.658-14.108-14.4,0,0,.129-.114.128-.114,4.6,4.319,10.727,6.843,14.01,12.711Z"/><path class="cls-5" d="m167.234,65.763c2.335-1.196,4.669-2.392,7.006-3.587.529.022,1.043-.056,1.542-.234,1.693.305,4.096.354,3.9,2.536-.097,1.074-2.577,1.918-3.979,2.865-1.121.103-2.242.208-3.362.314-1.838-.238-3.942.281-5.107-1.895Z"/><path class="cls-35" d="m151.171,60.179c1.711,7.767-4.94,6.981-8.738,9.115-.089-4.056.562-8.574-5.286-9.036-5.677-2.505-11.163-5.789-17.075-7.336-9.309-2.437-18.79-5.919-28.569-1.752-.598-.016-1.196-.033-1.795-.049,12.076-20.236,53.653,14.68,57.996,9.124,1.156-.022,2.312-.043,3.468-.065Z"/><path class="cls-58" d="m86.249,54.831c.588-.11,1.177-.22,1.764-.328,1.198,1.282,2.397,2.561,3.595,3.841-.044.628-.086,1.256-.129,1.884-1.218.695-10.552,13.037-11.91,14.741-5.05,6.337-6.381,12.223-7.518,20.234-2.644,18.632-2.138,37.934,8.888,53.91-7.28-4.573-10.64-11.244-10.623-20.054.009-4.411-1.056-8.741-3.4-12.587-.07-16.494-.609-24.519,6.978-39.956,4.651-4.872,9.302-9.744,13.953-14.616-.533-2.356-1.066-4.712-1.599-7.068Z"/><path class="cls-32" d="m73.894,76.515c-7.587,15.438-7.048,23.462-6.978,39.956.006,7.229.012,14.458.018,21.686-.045.688-.09,1.377-.135,2.065-4.572-3.745-6.352-29.057-5.98-35.612.726-12.806,11.912-22.945,11.346-35.318,1.157-.015,2.313-.031,3.47-.046-.581,2.423-1.161,4.845-1.742,7.268Z"/><path class="cls-16" d="m91.609,58.344c-1.199-1.28-2.398-2.559-3.596-3.841,1.163-1.113,2.326-2.223,3.489-3.334,9.78-4.166,19.261-.685,28.57,1.752,5.912,1.548,11.398,4.831,17.075,7.336.001,2.399.003,4.799.004,7.198-4.53-2.703-7.381-8.831-13.982-7.31-3.321-4.474-17.148-7.483-22.278-6.866-4.559.549-6.076,6.129-9.282,5.064Z"/><path class="cls-46" d="m66.8,140.223c.045-.688.09-1.377.134-2.065,7.781,9.076,15.022,18.796,26.39,23.589-.614.024-1.228.049-1.842.073-3.261-2.132-6.927-1.795-10.53-1.846-3.283-5.868-9.41-8.392-14.01-12.711-.047-2.347-.096-4.693-.144-7.039Z"/><path class="cls-16" d="m75.636,69.247c-1.157.015-2.313.031-3.47.046.768-8.899,6.952-12.172,14.083-14.463.533,2.357,1.066,4.713,1.6,7.07-6.672-2.166-9.027,3.327-12.213,7.347Z"/><path class="cls-73" d="m93.325,161.747c-11.369-4.793-18.61-14.513-26.391-23.589-.006-7.23-.012-14.459-.018-21.687,2.345,3.847,3.409,8.176,3.4,12.587-.017,8.81,3.343,15.481,10.623,20.054,1.751,1.213,3.503,2.426,5.254,3.639.035,2.358,1.113,3.604,3.478,3.475,17.284.472,22.627-1.875,35.687-13.357,2.422-2.13,12.828-8.358,13.913-12.472,1.141-4.327-3.197-9.308-2.126-12.111,3.837-10.041,5.073.807,11.011-1.965,9.827-4.588,3.872-19.612,3.017-27.03,6.166,1.458,8.134,6.516,8.687,11.986,1.124,11.128-.159,21.385-12.196,26.103-1.407-.895-2.815-1.791-4.683-2.98.2,6.281,6.161,12.226-.58,17.503-6.331-3.739-16.691,9.1-21.221,11.928-9.122,5.696-19.459,2.709-27.856,7.915Z"/><path class="cls-26" d="m147.665,127.38c12.037-4.717,13.32-14.975,12.196-26.103-.553-5.471-2.521-10.528-8.686-11.987,0,0-.019-.003-.019-.003-6.439-1.613-11.844-4.538-14.506-11.392-.49-1.261-1.993-2.103-3.029-3.138-.009-2.607-.023-5.217,3.456-5.476,7.829,15.233,22.443,10.953,24.759,29.04,4.241,11.912-.88,22.801-3.996,33.703-1.347,4.71-4.49,3.455-10.175-4.644Z"/><path class="cls-41" d="m93.325,161.747c8.398-5.206,18.734-2.219,27.856-7.915,4.53-2.828,14.89-15.667,21.221-11.928-5.31,12.16-20.663,21.346-34.084,20.726-5.612-.259-11.38,3.202-16.835-.81.614-.024,1.228-.049,1.842-.073Z"/><path class="cls-30" d="m161.836,98.321c-2.316-18.087-16.931-13.807-24.759-29.04.025-.608.049-1.217.073-1.825-.002-2.4-.003-4.799-.004-7.198,5.848.462,5.198,4.98,5.286,9.036.711.939,1.23,2.302,2.162,2.754,11,5.334,18.988,13.111,20.576,26.276-1.112,0-2.224-.002-3.335-.003Z"/><path class="cls-10" d="m86.194,152.751c-1.751-1.213-3.503-2.426-5.254-3.639-11.026-15.976-11.531-35.277-8.888-53.91,1.137-8.011,2.468-13.897,7.518-20.234,1.358-1.704,10.692-14.045,11.91-14.741.632,1.17,1.264,2.34,1.895,3.511,2.039,2.862,4.398,1.901,6.941.792,13.721-5.981,24.037-.529,26.299,13.823,6.686,4.62,5.004,14,9.063,17.564,2.537,2.227,7.573-2.281,9.083.788,3.871,7.865-.483,4.081-2.975,8.29-4.033-.858-6.092.794-6.175,4.955-.09,2.888-1.342,5.053-3.757,6.496.008-.604.011-1.208.008-1.812-.348-18.14,2.141-24.899-11.858-35.467-8.686-6.557-15.521-10.972-27.084-7.522-24.931,7.438-23.413,60.182-4.991,73.875-.184,2.511.822,5.326-1.734,7.23Z"/><path class="cls-72" d="m93.375,63.739c-.632-1.17-1.264-2.34-1.896-3.51.042-.628.085-1.256.129-1.884,3.207,1.065,4.724-4.515,9.283-5.064,5.13-.618,18.957,2.392,22.277,6.867,0,0-.159.169-.158.168-10.351-3.229-20.303-2.768-29.635,3.424Z"/><path class="cls-72" d="m75.636,69.247c3.185-4.02,5.54-9.513,12.213-7.347-4.652,4.871-9.303,9.743-13.954,14.615.58-2.423,1.161-4.846,1.742-7.268Z"/><path class="cls-72" d="m137.151,67.456c-.024.608-.048,1.217-.073,1.825-3.48.258-3.466,2.869-3.457,5.476-2.343-5.75-7.629-9.192-10.612-14.441,0,0,.158-.168.159-.169,6.601-1.522,9.453,4.606,13.983,7.309Z"/><path class="cls-21" d="m131.853,116.448c2.415-1.443,3.668-3.608,3.757-6.496.083-4.161,2.141-5.813,6.175-4.955,2.492-4.208,6.846-.425,2.975-8.29-1.51-3.069-6.546,1.44-9.083-.788-4.06-3.564-2.377-12.944-9.063-17.564,10.294-.922,5.174,7.551,11.042,11.477,4.801,3.212,8.115-.115,13.5-.545,0,0,.019.003.019.003.856,7.418,6.81,22.442-3.017,27.031-5.939,2.773-7.174-8.076-11.011,1.965-1.071,2.803,3.267,7.784,2.126,12.111-1.085,4.115-11.491,10.343-13.913,12.472-13.06,11.482-18.403,13.829-35.687,13.358,1.742-3.135,3.748-4.621,7.791-3.793,3.825.783,8.633,1.886,11.818-1.254,9.956-9.818,23.578-17.27,22.572-34.733Z"/><path class="cls-28" d="m131.853,116.448c1.006,17.463-12.616,24.915-22.572,34.733-3.184,3.14-7.993,2.038-11.818,1.254-4.043-.828-6.049.658-7.791,3.793-2.365.127-3.443-1.118-3.478-3.477,2.556-1.904,1.55-4.719,1.735-7.23,2.248,6.597,18.829-.232,22.168-2.512,14.069-9.608,16.109-18.579,5.975-30.171,2.338.002,4.676.005,7.014.007,2.475,2.949,5.81,1.4,8.775,1.789.003.604,0,1.208-.008,1.813Z"/><path class="cls-38" d="m151.156,89.287c-5.385.43-8.699,3.757-13.5.545-5.868-3.926-.748-12.399-11.042-11.477-2.262-14.353-12.578-19.805-26.299-13.823-2.543,1.108-4.901,2.07-6.941-.792,9.333-6.193,19.285-6.654,29.636-3.425,2.981,5.25,8.267,8.692,10.611,14.442,1.035,1.035,2.539,1.877,3.029,3.138,2.662,6.855,8.067,9.779,14.506,11.392Z"/><path class="cls-17" d="m116.072,112.838c10.135,11.592,8.094,20.563-5.975,30.171-3.339,2.28-19.92,9.109-22.168,2.512-18.423-13.693-19.941-66.437,4.99-73.875,11.563-3.45,18.398.965,27.084,7.522,13.999,10.568,11.51,17.326,11.858,35.467-2.965-.39-6.3,1.159-8.775-1.789,11.963-1.817-1.307-27.861-12.427-29.717-15.344-2.562-32.715,8.277-24.151,25.853,3.732,7.658,8.715,3.526,8.247,14.753-.21,5.036-10.327,4.369-4.412,11.445,3.816,4.566,18.599-1.64,20.435-3.767,7.307-8.463-2.868-12.937-2.049-19.541,2.709-1.852,4.981-.053,7.342.967Z"/><path class="cls-63" d="m116.072,112.838c-2.361-1.02-4.633-2.819-7.342-.967-.819,6.604,9.355,11.078,2.049,19.541-1.836,2.127-16.619,8.333-20.435,3.767-5.915-7.076,4.202-6.409,4.412-11.445.468-11.227-4.515-7.095-8.247-14.753-8.564-17.575,8.807-28.415,24.151-25.853,11.12,1.857,24.39,27.9,12.427,29.717-2.338-.002-4.676-.005-7.014-.007Z"/></svg>